<?xml version="1.0" encoding="UTF-8"?>
<!DOCTYPE svg PUBLIC "-//W3C//DTD SVG 1.1//EN" "http://www.w3.org/Graphics/SVG/1.1/DTD/svg11.dtd">
<!-- Creator: CorelDRAW X8 -->
<svg xmlns="http://www.w3.org/2000/svg" xml:space="preserve" width="29.3356mm" height="33.8834mm" version="1.1" style="shape-rendering:geometricPrecision; text-rendering:geometricPrecision; image-rendering:optimizeQuality; fill-rule:evenodd; clip-rule:evenodd"
viewBox="0 0 486 562"
 xmlns:xlink="http://www.w3.org/1999/xlink">
 <defs>
  <style type="text/css">
   <![CDATA[
    .fil0 {fill:#2C3D51}
    .fil3 {fill:#3C0404}
    .fil1 {fill:#FFBD2D}
    .fil4 {fill:white}
    .fil2 {fill:white;fill-opacity:0.301961}
   ]]>
  </style>
     <mask id="id0">
  <radialGradient id="id1" gradientUnits="userSpaceOnUse" cx="150.937" cy="158.184" r="0" fx="150.937" fy="158.184">
   <stop offset="0" style="stop-opacity:1; stop-color:white"/>
   <stop offset="1" style="stop-opacity:0; stop-color:white"/>
  </radialGradient>
      <rect style="fill:url(#id1)" x="149" y="157" width="23.2339" height="23.2339"/>
     </mask>
     <mask id="id2">
  <radialGradient id="id3" gradientUnits="userSpaceOnUse" cx="344.348" cy="158.184" r="0" fx="344.348" fy="158.184">
   <stop offset="0" style="stop-opacity:1; stop-color:white"/>
   <stop offset="1" style="stop-opacity:0; stop-color:white"/>
  </radialGradient>
      <rect style="fill:url(#id3)" x="343" y="157" width="23.2339" height="23.2339"/>
     </mask>
 </defs>
 <g id="Layer_x0020_1">
  <metadata id="CorelCorpID_0Corel-Layer"/>
  <g id="_1394302347200">
   <path class="fil0" d="M26 297c-15,-5 -26,-20 -26,-36 0,-19 13,-34 30,-38 22,-97 109,-169 212,-169 104,0 190,72 213,168 18,4 31,20 31,39 0,17 -11,32 -27,37 -5,39 -20,76 -43,106l0 0c0,0 21,6 -2,158 0,0 -12,-62 -110,-80l0 0c-20,5 -40,8 -62,8 -112,0 -204,-84 -216,-193z"/>
   <circle class="fil1" cx="242" cy="272" r="194"/>
   <path class="fil2" d="M242 78c84,0 155,53 182,126 -48,55 -112,88 -182,88 -70,0 -133,-33 -182,-88 28,-73 99,-126 182,-126z"/>
   <path class="fil0" d="M59 62c16,0 28,12 28,28 0,16 -12,28 -28,28 -16,0 -28,-12 -28,-28 0,-16 12,-28 28,-28zm272 -35c2,0 4,2 4,4 0,2 -2,4 -4,4 -2,0 -4,-2 -4,-4 0,-2 2,-4 4,-4zm-22 -10c3,0 6,2 6,5 0,4 -3,6 -6,6 -3,0 -5,-2 -5,-6 0,-3 2,-5 5,-5zm-27 -9c4,0 8,4 8,8 0,5 -4,9 -8,9 -5,0 -9,-4 -9,-9 0,-4 4,-8 9,-8zm-32 -7c7,0 12,5 12,12 0,7 -5,12 -12,12 -6,0 -12,-5 -12,-12 0,-7 6,-12 12,-12zm-40 -1c8,0 15,7 15,16 0,8 -7,15 -15,15 -9,0 -16,-7 -16,-15 0,-9 7,-16 16,-16zm-49 5c12,0 21,10 21,21 0,12 -9,21 -21,21 -11,0 -21,-9 -21,-21 0,-11 10,-21 21,-21zm-49 19c13,0 24,11 24,25 0,13 -11,24 -24,24 -13,0 -24,-11 -24,-24 0,-14 11,-25 24,-25z"/>
   <g>
    <circle class="fil3" cx="146" cy="185" r="39"/>
    <path class="fil4" style="mask:url(#id0)" d="M161 158c5,0 10,5 10,10 0,6 -5,10 -10,10 -6,0 -10,-4 -10,-10 0,-5 4,-10 10,-10z"/>
    <circle class="fil3" cx="339" cy="185" r="39"/>
    <path class="fil4" style="mask:url(#id2)" d="M354 158c6,0 10,5 10,10 0,6 -4,10 -10,10 -5,0 -10,-4 -10,-10 0,-5 5,-10 10,-10z"/>
   </g>
   <path class="fil3" d="M138 379c-2,3 -4,6 -8,8l0 0 0 0c-2,0 -4,1 -6,1 -9,0 -15,-7 -15,-15 0,-6 3,-12 8,-14 70,-56 216,-81 257,19l0 0 0 0c1,3 2,6 2,10 0,14 -12,26 -26,26 -6,0 -11,-2 -16,-5l0 0 0 0c-1,-1 -3,-2 -4,-4 -101,-92 -170,-46 -192,-26z"/>
  </g>
 </g>
</svg>
