<?xml version="1.0" encoding="UTF-8"?>
<!DOCTYPE svg PUBLIC "-//W3C//DTD SVG 1.1//EN" "http://www.w3.org/Graphics/SVG/1.1/DTD/svg11.dtd">
<!-- Creator: CorelDRAW X8 -->
<svg xmlns="http://www.w3.org/2000/svg" xml:space="preserve" width="34.7605mm" height="40.3188mm" version="1.1" style="shape-rendering:geometricPrecision; text-rendering:geometricPrecision; image-rendering:optimizeQuality; fill-rule:evenodd; clip-rule:evenodd"
viewBox="0 0 660 765"
 xmlns:xlink="http://www.w3.org/1999/xlink">
 <defs>
  <style type="text/css">
   <![CDATA[
    .str3 {stroke:black;stroke-width:1.44603;stroke-opacity:0.050980}
    .str2 {stroke:black;stroke-width:1.00577;stroke-opacity:0.050980}
    .str6 {stroke:black;stroke-width:1.44603;stroke-opacity:0.090196}
    .str1 {stroke:black;stroke-width:1.44603;stroke-opacity:0.101961}
    .str0 {stroke:black;stroke-width:1.31889}
    .str7 {stroke:black;stroke-width:3.29817}
    .str4 {stroke:black;stroke-width:3.29817}
    .str5 {stroke:black;stroke-width:3.29817}
    .fil5 {fill:none}
    .fil8 {fill:none}
    .fil10 {fill:none}
    .fil4 {fill:black}
    .fil3 {fill:#21302B}
    .fil0 {fill:#2C3D51}
    .fil6 {fill:#DF8E29}
    .fil1 {fill:#FFBD2D}
    .fil9 {fill:white;fill-opacity:0.050980}
    .fil11 {fill:white;fill-opacity:0.090196}
    .fil7 {fill:white;fill-opacity:0.101961}
    .fil2 {fill:white;fill-opacity:0.301961}
   ]]>
  </style>
 </defs>
 <g id="Layer_x0020_1">
  <metadata id="CorelCorpID_0Corel-Layer"/>
  <g id="_2160266463920">
   <path class="fil0" d="M29 340c-17,-6 -29,-22 -29,-42 0,-21 15,-38 34,-43 26,-111 125,-193 243,-193 119,0 218,82 244,193 20,4 36,22 36,43 0,20 -13,37 -32,43 -5,45 -22,87 -49,122l0 0c0,0 25,7 -2,180 0,0 -14,-70 -126,-92l0 0c-23,7 -46,10 -71,10 -128,0 -234,-96 -248,-221z"/>
   <circle class="fil1" cx="277" cy="312" r="222"/>
   <path class="fil2" d="M277 89c96,0 177,61 209,145 -55,63 -129,101 -209,101 -80,0 -153,-38 -208,-101 32,-84 113,-145 208,-145z"/>
   <path class="fil0" d="M68 71c18,0 32,14 32,32 0,18 -14,33 -32,33 -18,0 -33,-15 -33,-33 0,-18 15,-32 33,-32zm311 -40c3,0 5,2 5,4 0,3 -2,5 -5,5 -2,0 -4,-2 -4,-5 0,-2 2,-4 4,-4zm-25 -12c4,0 6,3 6,7 0,3 -2,6 -6,6 -4,0 -7,-3 -7,-6 0,-4 3,-7 7,-7zm-31 -10c5,0 9,4 9,10 0,5 -4,9 -9,9 -6,0 -10,-4 -10,-9 0,-6 4,-10 10,-10zm-36 -8c7,0 13,6 13,14 0,8 -6,14 -13,14 -8,0 -14,-6 -14,-14 0,-8 6,-14 14,-14zm-47 -1c10,0 18,8 18,18 0,10 -8,18 -18,18 -10,0 -18,-8 -18,-18 0,-10 8,-18 18,-18zm-55 6c13,0 23,11 23,24 0,13 -10,24 -23,24 -14,0 -24,-11 -24,-24 0,-13 10,-24 24,-24zm-57 22c16,0 28,12 28,28 0,15 -12,27 -28,27 -15,0 -27,-12 -27,-27 0,-16 12,-28 27,-28z"/>
   <ellipse class="fil3" cx="352" cy="249" rx="31" ry="37"/>
   <ellipse class="fil3" cx="180" cy="266" rx="31" ry="37"/>
   <path class="fil4" d="M298 175c34,-11 68,-26 111,-1 5,4 15,-6 12,-12 -14,-32 -96,-31 -122,-17 -21,11 -14,33 -1,30z"/>
   <path class="fil4" d="M222 235c-34,-10 -68,-25 -111,0 -6,4 -15,-6 -12,-12 13,-32 96,-31 122,-17 21,11 13,33 1,29z"/>
   <path class="fil3" d="M204 445c0,6 5,11 11,11 25,0 34,-38 113,-21 6,1 11,-5 11,-11 0,-28 -135,-20 -135,21z"/>
   <g>
    <g>
     <path class="fil5 str0" d="M404 305c-7,0 -14,3 -19,8l0 0c0,0 -16,5 -16,35 -1,21 0,177 -6,188 -2,5 -29,40 -29,40 0,0 -16,21 -17,54 -1,34 29,78 29,78 0,0 33,51 79,55 45,3 54,-10 54,-10 0,0 13,-9 27,0 13,10 52,1 52,1 0,0 36,-12 56,-47 20,-35 15,-62 15,-62 19,2 21,-9 25,-21 6,-15 4,-74 4,-94 0,-14 -25,-31 -39,-31 -15,0 -18,3 -24,8 -3,-14 -18,-25 -35,-25 -13,0 -25,7 -31,16 -3,-14 -17,-25 -35,-25 -19,0 -32,14 -35,31 -1,5 -2,6 -2,6l-14 0c1,-34 14,-205 -39,-205z"/>
     <path id="1" class="fil6" d="M404 305c-7,0 -14,3 -19,8l0 0c0,0 -16,5 -16,35 -1,21 0,177 -6,188 -2,5 -29,40 -29,40 0,0 -16,21 -17,54 -1,34 29,78 29,78 0,0 33,51 79,55 45,3 54,-10 54,-10 0,0 13,-9 27,0 13,10 52,1 52,1 0,0 36,-12 56,-47 20,-35 15,-62 15,-62 19,2 21,-9 25,-21 6,-15 4,-74 4,-94 0,-14 -25,-31 -39,-31 -15,0 -18,3 -24,8 -3,-14 -18,-25 -35,-25 -13,0 -25,7 -31,16 -3,-14 -17,-25 -35,-25 -19,0 -32,14 -35,31 -1,5 -2,6 -2,6l-14 0c1,-34 14,-205 -39,-205z"/>
    </g>
    <path class="fil7 str1" d="M654 624l0 0c6,-15 4,-74 4,-94 0,-14 -25,-31 -39,-31 -15,0 -18,3 -24,8 -3,-14 -18,-25 -35,-25 -13,0 -25,7 -31,16 -3,-14 -17,-25 -35,-25 -19,0 -32,14 -35,31 -1,5 -2,6 -2,6l-3 0 2 27c0,0 17,7 38,24 6,5 12,12 18,21 1,2 6,12 5,17 0,4 6,5 8,7 41,34 69,6 69,6 0,0 1,13 39,14 6,0 13,-1 21,-2z"/>
    <g>
     <path class="fil8 str2" d="M404 305c-3,0 -7,1 -10,2 0,0 39,135 -3,236 -16,38 -8,60 -51,68 0,0 9,38 29,62 6,8 14,22 25,32 2,2 9,8 12,9 2,0 3,1 5,2 8,2 22,0 30,0 21,-1 48,-6 60,0 10,1 14,10 19,11 5,1 7,2 16,0 7,-2 13,-5 19,-7 8,-3 14,-7 19,-10 14,-8 21,-13 21,-13 12,-18 14,-34 7,-40 -5,-4 -9,-9 -24,1 -8,6 -16,9 -24,8l-5 -1 -4 -1 -7 -5 -4 -4 -4 0 -9 2 -6 4 -5 6 -5 11 -3 13 -1 8 -5 4 -4 -4 -2 -5 0 -6 1 -5 0 -3 -3 -13 -4 -9 -7 -10 -6 -6 -10 -5 -18 -8 -13 -5 -30 23 2 -28 1 -21 2 -4 8 -7 6 -3 24 -76c1,-40 13,-203 -39,-203z"/>
     <path id="1" class="fil9" d="M404 305c-3,0 -7,1 -10,2 0,0 39,135 -3,236 -16,38 -8,60 -51,68 0,0 9,38 29,62 6,8 14,22 25,32 2,2 9,8 12,9 2,0 3,1 5,2 8,2 22,0 30,0 21,-1 48,-6 60,0 10,1 14,10 19,11 5,1 7,2 16,0 7,-2 13,-5 19,-7 8,-3 14,-7 19,-10 14,-8 21,-13 21,-13 12,-18 14,-34 7,-40 -5,-4 -9,-9 -24,1 -8,6 -16,9 -24,8l-5 -1 -4 -1 -7 -5 -4 -4 -4 0 -9 2 -6 4 -5 6 -5 11 -3 13 -1 8 -5 4 -4 -4 -2 -5 0 -6 1 -5 0 -3 -3 -13 -4 -9 -7 -10 -6 -6 -10 -5 -18 -8 -13 -5 -30 23 2 -28 1 -21 2 -4 8 -7 6 -3 24 -76c1,-40 13,-203 -39,-203z"/>
    </g>
    <path class="fil9 str3" d="M657 599c2,-23 1,-55 1,-69 0,-14 -25,-31 -39,-31 -15,0 -18,3 -24,8 -3,-14 -18,-25 -35,-25 -13,0 -25,7 -31,16 -3,-14 -17,-25 -35,-25 -5,0 -9,1 -13,2 0,6 0,14 1,20 1,14 33,36 33,36 0,0 17,15 38,0 21,-15 43,6 58,9 16,3 16,30 13,42 -2,12 -23,2 -6,24 18,23 39,-7 39,-7z"/>
    <g>
     <path class="fil5 str4" d="M529 498c-3,-14 -17,-25 -35,-25 -19,0 -32,14 -35,31 -1,5 -2,6 -2,6l-1 0 0 27c46,18 86,70 44,84 -9,2 -20,6 -36,3 -13,-3 18,22 31,19 36,-9 30,-48 30,-48l0 -10 1 -24 3 -63z"/>
    </g>
    <g>
     <path class="fil10 str4" d="M595 507c-3,-14 -18,-25 -35,-25 -13,0 -25,7 -31,16l-4 85c0,0 -5,57 32,65 36,-6 36,-43 36,-43l2 -98z"/>
    </g>
    <g>
     <path class="fil10 str4" d="M654 624c6,-15 4,-74 4,-94 0,-14 -25,-31 -39,-31 -15,0 -18,3 -24,8 0,0 -4,106 0,118 6,20 34,20 34,20 17,1 18,-3 25,-21z"/>
    </g>
    <g>
     <path class="fil5 str5" d="M419 627c0,0 14,-2 2,-22"/>
    </g>
    <path class="fil11 str6" d="M445 440l-77 0c0,0 45,12 77,0zm-64 -73c27,8 44,-1 44,-1 0,0 -13,23 -44,1zm153 288c-30,-4 -33,44 -33,44 0,0 -6,9 -9,0 -4,-9 -1,-16 -1,-16 0,0 -2,-36 -30,-46 -27,-11 -31,-13 -31,-13l-30 23c0,0 4,-37 2,-46 -1,-9 18,-17 18,-17 0,0 27,26 53,23 25,-2 45,-5 45,-5l-2 -13 -9 -15 -17 -16 -23 -16 -21 -10 -24 -8 21 -14 -12 12 -9 2c0,0 -31,-9 -39,40 -8,50 -43,47 -43,47 0,0 37,106 78,106 41,0 80,-12 96,7 17,18 81,-27 81,-27 0,0 21,-30 4,-42 -17,-13 -34,31 -65,0z"/>
    <g>
     <path class="fil5 str7" d="M359 542c0,0 17,-19 40,-22 29,-3 145,51 114,94 -42,29 -92,-9 -92,-9"/>
    </g>
    <g>
     <path class="fil5 str4" d="M404 305c-7,0 -14,3 -19,8l0 0c0,0 -16,5 -16,35 -1,21 0,177 -6,188 -2,5 -29,40 -29,40 0,0 -16,21 -17,54 -1,34 29,78 29,78 0,0 33,51 79,55 45,3 54,-10 54,-10 0,0 13,-9 27,0 13,10 52,1 52,1 0,0 36,-12 56,-47 20,-35 15,-62 15,-62 19,2 21,-9 25,-21 6,-15 4,-74 4,-94 0,-14 -25,-31 -39,-31 -15,0 -18,3 -24,8 -3,-14 -18,-25 -35,-25 -13,0 -25,7 -31,16 -3,-14 -17,-25 -35,-25 -19,0 -32,14 -35,31 -1,5 -2,6 -2,6l-14 0c1,-34 14,-205 -39,-205z"/>
    </g>
   </g>
  </g>
 </g>
</svg>
