<?xml version="1.0" encoding="UTF-8"?>
<!DOCTYPE svg PUBLIC "-//W3C//DTD SVG 1.1//EN" "http://www.w3.org/Graphics/SVG/1.1/DTD/svg11.dtd">
<!-- Creator: CorelDRAW X8 -->
<svg xmlns="http://www.w3.org/2000/svg" xml:space="preserve" width="36.0264mm" height="38.723mm" version="1.1" style="shape-rendering:geometricPrecision; text-rendering:geometricPrecision; image-rendering:optimizeQuality; fill-rule:evenodd; clip-rule:evenodd"
viewBox="0 0 458 492"
 xmlns:xlink="http://www.w3.org/1999/xlink">
 <defs>
  <style type="text/css">
   <![CDATA[
    .str3 {stroke:black;stroke-width:0.967942;stroke-opacity:0.050980}
    .str2 {stroke:black;stroke-width:0.673241;stroke-opacity:0.050980}
    .str6 {stroke:black;stroke-width:0.967942;stroke-opacity:0.090196}
    .str1 {stroke:black;stroke-width:0.967942;stroke-opacity:0.101961}
    .str0 {stroke:black;stroke-width:0.882834}
    .str5 {stroke:black;stroke-width:2.20772}
    .str4 {stroke:black;stroke-width:2.20772}
    .str7 {stroke:black;stroke-width:2.20772}
    .fil5 {fill:none}
    .fil8 {fill:none}
    .fil10 {fill:none}
    .fil4 {fill:black}
    .fil3 {fill:#21302B}
    .fil0 {fill:#2C3D51}
    .fil6 {fill:#DF8E29}
    .fil1 {fill:#FEC12B}
    .fil9 {fill:white;fill-opacity:0.050980}
    .fil11 {fill:white;fill-opacity:0.090196}
    .fil7 {fill:white;fill-opacity:0.101961}
    .fil2 {fill:white;fill-opacity:0.301961}
   ]]>
  </style>
 </defs>
 <g id="Layer_x0020_1">
  <metadata id="CorelCorpID_0Corel-Layer"/>
  <g id="_2160276621184">
   <g>
    <path class="fil0" d="M57 69l0 10c0,0 0,1 1,1 0,2 1,4 2,6 1,1 2,2 4,4l0 0 0 0c3,3 8,5 13,5l0 0 0 0 0 0c11,1 21,-7 21,-20 1,-12 -8,-19 -17,-21l0 0 0 0 -1 0 0 0 0 0c0,0 -1,0 -1,0l0 0 -1 0c-5,0 -11,2 -15,6 -2,2 -3,4 -4,6l-2 2c0,0 0,1 0,1zm43 103c-16,0 -29,12 -29,28 0,16 13,29 29,29 0,0 0,0 0,0l0 81c0,30 26,55 56,55l133 0c1,1 1,1 1,1 48,57 35,87 35,87 61,-69 51,-82 65,-90 3,-1 5,-2 8,-3l0 0 0 0c19,-9 32,-28 32,-50l0 -81c15,-1 28,-14 28,-29 0,-15 -13,-28 -28,-28l0 -81c0,-31 -25,-56 -56,-56l-218 0c-30,0 -56,25 -56,56l0 81c0,0 0,0 0,0zm-12 -139c1,7 6,12 12,13 2,0 3,1 5,1 3,0 7,-1 9,-3 6,-3 10,-10 8,-19 -2,-6 -6,-10 -11,-12 -2,-1 -4,-1 -6,-1 -4,0 -8,1 -11,4 -4,3 -8,9 -6,17zm59 -33c8,0 14,6 14,14 0,8 -6,14 -14,14 -8,0 -14,-6 -14,-14 0,-8 6,-14 14,-14zm140 11c2,0 3,1 3,3 0,2 -1,3 -3,3 -2,0 -3,-1 -3,-3 0,-2 1,-3 3,-3zm-18 -2c3,0 5,2 5,5 0,2 -2,5 -5,5 -2,0 -4,-3 -4,-5 0,-3 2,-5 4,-5zm-23 -2c3,0 7,3 7,7 0,4 -4,7 -7,7 -4,0 -7,-3 -7,-7 0,-4 3,-7 7,-7zm-26 -1c4,0 8,3 8,8 0,4 -4,8 -8,8 -5,0 -8,-4 -8,-8 0,-5 3,-8 8,-8zm-33 -3c6,0 11,5 11,11 0,6 -5,11 -11,11 -6,0 -10,-5 -10,-11 0,-6 4,-11 10,-11z"/>
    <rect class="fil1" x="121" y="56" width="288" height="289" rx="49" ry="9"/>
    <path class="fil2" d="M170 56l191 0c26,0 48,22 48,48l0 64c-39,32 -89,51 -144,51 -54,0 -104,-19 -144,-51l0 -64c0,-26 22,-48 49,-48z"/>
    <ellipse class="fil3" cx="213" cy="167" rx="22" ry="27"/>
    <ellipse class="fil3" cx="337" cy="180" rx="22" ry="27"/>
    <path class="fil4" d="M253 114c-25,-7 -50,-18 -80,0 -5,3 -11,-4 -9,-9 10,-23 69,-22 88,-12 15,8 9,24 1,21z"/>
    <path class="fil4" d="M307 158c24,-8 49,-18 80,0 4,2 10,-5 9,-9 -10,-23 -70,-22 -88,-12 -15,7 -10,24 -1,21z"/>
    <path class="fil3" d="M320 308c0,5 -4,8 -8,8 -18,0 -25,-27 -81,-15 -4,1 -8,-3 -8,-8 0,-20 97,-14 97,15z"/>
   </g>
   <g>
    <g>
     <path class="fil5 str0" d="M171 184c5,0 10,2 13,5l0 0c0,0 10,4 11,23 0,15 0,119 4,127 1,3 19,26 19,26 0,0 10,14 11,37 1,22 -19,52 -19,52 0,0 -22,34 -53,36 -30,3 -36,-6 -36,-6 0,0 -9,-6 -18,0 -9,6 -35,1 -35,1 0,0 -24,-9 -37,-32 -14,-23 -10,-41 -10,-41 -13,1 -14,-7 -17,-15 -4,-10 -3,-49 -3,-62 0,-10 17,-22 26,-22 10,0 12,2 16,6 3,-10 12,-17 23,-17 9,0 17,5 21,11 2,-9 12,-17 24,-17 13,0 21,10 23,21 1,3 2,4 2,4l9 0c0,-23 -10,-137 26,-137z"/>
     <path id="1" class="fil6" d="M171 184c5,0 10,2 13,5l0 0c0,0 10,4 11,23 0,15 0,119 4,127 1,3 19,26 19,26 0,0 10,14 11,37 1,22 -19,52 -19,52 0,0 -22,34 -53,36 -30,3 -36,-6 -36,-6 0,0 -9,-6 -18,0 -9,6 -35,1 -35,1 0,0 -24,-9 -37,-32 -14,-23 -10,-41 -10,-41 -13,1 -14,-7 -17,-15 -4,-10 -3,-49 -3,-62 0,-10 17,-22 26,-22 10,0 12,2 16,6 3,-10 12,-17 23,-17 9,0 17,5 21,11 2,-9 12,-17 24,-17 13,0 21,10 23,21 1,3 2,4 2,4l9 0c0,-23 -10,-137 26,-137z"/>
    </g>
    <path class="fil7 str1" d="M4 398l0 -1c-4,-10 -3,-49 -3,-62 0,-10 17,-22 26,-22 10,0 12,2 16,6 3,-10 12,-17 23,-17 9,0 17,5 21,11 2,-9 12,-17 24,-17 13,0 21,10 23,21 1,3 2,4 2,4l2 0 -1 18c0,0 -12,5 -26,16 -4,4 -8,8 -12,14 -1,2 -4,8 -4,12 0,2 -3,3 -5,4 -28,23 -46,4 -46,4 0,0 -1,9 -26,10 -4,0 -9,-1 -14,-1z"/>
    <g>
     <path class="fil8 str2" d="M171 184c2,0 5,1 7,1 0,0 -26,91 2,158 11,25 5,40 34,45 0,0 -6,26 -19,42 -5,6 -10,15 -17,22 -1,1 -6,5 -8,6 -1,0 -2,0 -3,1 -6,1 -15,0 -20,0 -15,-1 -33,-4 -41,0 -7,1 -9,7 -13,7 -3,1 -4,1 -10,0 -5,-1 -9,-3 -13,-4 -5,-3 -9,-5 -13,-7 -9,-5 -14,-9 -14,-9 -8,-12 -9,-22 -4,-27 3,-2 6,-5 16,1 5,4 10,6 16,6l3 -1 3 -1 4 -3 3 -3 3 0 6 1 4 3 3 4 4 8 2 8 0 5 3 3 4 -2 1 -4 0 -4 -1 -3 0 -2 2 -9 3 -6 4 -6 4 -4 7 -4 12 -5 9 -4 20 16 -2 -19 0 -14 -2 -3 -5 -4 -4 -2 -16 -52c-1,-26 -9,-135 26,-135z"/>
     <path id="1" class="fil9" d="M171 184c2,0 5,1 7,1 0,0 -26,91 2,158 11,25 5,40 34,45 0,0 -6,26 -19,42 -5,6 -10,15 -17,22 -1,1 -6,5 -8,6 -1,0 -2,0 -3,1 -6,1 -15,0 -20,0 -15,-1 -33,-4 -41,0 -7,1 -9,7 -13,7 -3,1 -4,1 -10,0 -5,-1 -9,-3 -13,-4 -5,-3 -9,-5 -13,-7 -9,-5 -14,-9 -14,-9 -8,-12 -9,-22 -4,-27 3,-2 6,-5 16,1 5,4 10,6 16,6l3 -1 3 -1 4 -3 3 -3 3 0 6 1 4 3 3 4 4 8 2 8 0 5 3 3 4 -2 1 -4 0 -4 -1 -3 0 -2 2 -9 3 -6 4 -6 4 -4 7 -4 12 -5 9 -4 20 16 -2 -19 0 -14 -2 -3 -5 -4 -4 -2 -16 -52c-1,-26 -9,-135 26,-135z"/>
    </g>
    <path class="fil9 str3" d="M1 381c0,-16 0,-37 0,-46 0,-10 17,-22 26,-22 10,0 12,2 16,6 3,-10 12,-17 23,-17 9,0 17,5 21,11 2,-9 12,-17 24,-17 3,0 6,1 9,2 0,4 -1,9 -1,13 -1,9 -22,24 -22,24 0,0 -11,10 -25,0 -15,-10 -29,4 -39,6 -11,2 -11,20 -9,28 1,8 15,1 4,16 -12,16 -27,-4 -27,-4z"/>
    <g>
     <path class="fil5 str4" d="M87 313c2,-9 12,-17 24,-17 13,0 21,10 23,21 1,3 2,4 2,4l1 0 0 18c-31,12 -59,47 -30,56 6,2 13,5 24,2 8,-2 -12,15 -21,13 -24,-6 -20,-32 -20,-32l0 -7 -1 -16 -2 -42z"/>
    </g>
    <g>
     <path class="fil10 str4" d="M43 319c3,-10 12,-17 23,-17 9,0 17,5 21,11l3 57c0,0 3,38 -21,43 -25,-3 -24,-28 -24,-28l-2 -66z"/>
    </g>
    <g>
     <path class="fil10 str4" d="M4 397c-4,-10 -3,-49 -3,-62 0,-10 17,-22 26,-22 10,0 12,2 16,6 0,0 3,71 0,79 -4,13 -22,14 -22,14 -12,0 -13,-3 -17,-15z"/>
    </g>
    <g>
     <path class="fil5 str5" d="M161 399c0,0 -10,-1 -1,-14"/>
    </g>
    <path class="fil11 str6" d="M144 274l51 0c0,0 -30,8 -51,0zm42 -49c-18,5 -29,0 -29,0 0,0 9,15 29,0zm-102 193c21,-3 22,29 22,29 0,0 4,7 7,1 2,-7 0,-11 0,-11 0,0 1,-24 20,-31 18,-7 21,-9 21,-9l20 16c0,0 -3,-25 -2,-31 1,-6 -12,-12 -12,-12 0,0 -18,18 -35,16 -17,-1 -30,-3 -30,-3l1 -9 6 -10 12 -11 15 -11 14 -6 16 -6 -14 -9 8 8 6 1c0,0 21,-6 26,27 6,33 29,31 29,31 0,0 -25,71 -52,71 -27,0 -54,-7 -65,5 -11,12 -54,-18 -54,-18 0,0 -14,-20 -2,-28 11,-8 22,21 43,0z"/>
    <g>
     <path class="fil5 str7" d="M201 342c0,0 -11,-13 -27,-14 -19,-2 -97,34 -76,63 28,19 62,-6 62,-6"/>
    </g>
    <g>
     <path class="fil5 str4" d="M171 184c5,0 10,2 13,5l0 0c0,0 10,4 11,23 0,15 0,119 4,127 1,3 19,26 19,26 0,0 10,14 11,37 1,22 -19,52 -19,52 0,0 -22,34 -53,36 -30,3 -36,-6 -36,-6 0,0 -9,-6 -18,0 -9,6 -35,1 -35,1 0,0 -24,-9 -37,-32 -14,-23 -10,-41 -10,-41 -13,1 -14,-7 -17,-15 -4,-10 -3,-49 -3,-62 0,-10 17,-22 26,-22 10,0 12,2 16,6 3,-10 12,-17 23,-17 9,0 17,5 21,11 2,-9 12,-17 24,-17 13,0 21,10 23,21 1,3 2,4 2,4l9 0c0,-23 -10,-137 26,-137z"/>
    </g>
   </g>
  </g>
 </g>
</svg>
