<?xml version="1.0" encoding="UTF-8"?>
<!DOCTYPE svg PUBLIC "-//W3C//DTD SVG 1.1//EN" "http://www.w3.org/Graphics/SVG/1.1/DTD/svg11.dtd">
<!-- Creator: CorelDRAW X8 -->
<svg xmlns="http://www.w3.org/2000/svg" xml:space="preserve" width="31.564mm" height="35.6728mm" version="1.1" style="shape-rendering:geometricPrecision; text-rendering:geometricPrecision; image-rendering:optimizeQuality; fill-rule:evenodd; clip-rule:evenodd"
viewBox="0 0 857 968"
 xmlns:xlink="http://www.w3.org/1999/xlink">
 <defs>
  <style type="text/css">
   <![CDATA[
    .fil3 {fill:black}
    .fil0 {fill:#2C3D51}
    .fil1 {fill:#FEC12B}
    .fil2 {fill:white;fill-opacity:0.301961}
   ]]>
  </style>
 </defs>
 <g id="Layer_x0020_1">
  <metadata id="CorelCorpID_0Corel-Layer"/>
  <g id="_2537544339984">
   <path class="fil0" d="M0 148l0 20c1,1 1,2 2,3 1,5 3,9 6,13 1,3 3,5 7,8l0 0 0 0c7,7 17,11 28,12l0 0 0 0 1 0c23,0 45,-17 45,-43 1,-26 -17,-42 -37,-45l-1 -1 0 0 0 0 -1 0 -1 0c0,0 -1,0 -1,0l-1 0 -1 0c-12,-1 -24,4 -33,13 -4,4 -7,8 -9,13l-3 5c0,0 -1,1 -1,2zm92 219c-34,0 -61,27 -61,61 0,33 27,61 61,61 0,0 1,0 2,-1l0 174c0,65 53,119 119,119l284 0c1,1 1,1 2,2 102,122 74,185 74,185 131,-146 110,-176 139,-192 6,-2 12,-4 18,-7l0 0 0 0c40,-19 68,-60 68,-107l0 -174c33,-1 59,-27 59,-60 0,-33 -26,-60 -59,-61l0 -173c0,-66 -53,-120 -119,-120l-466 0c-66,0 -119,54 -119,120l0 173c-1,0 -2,0 -2,0zm-25 -296c3,15 13,24 25,27 4,1 8,2 11,2 8,0 14,-2 20,-6 13,-7 21,-21 16,-41 -3,-13 -12,-21 -22,-25 -4,-2 -9,-2 -14,-2 -8,0 -16,2 -22,7 -11,8 -17,21 -14,38zm126 -71c16,0 30,13 30,30 0,16 -14,29 -30,29 -16,0 -30,-13 -30,-29 0,-17 14,-30 30,-30zm299 23c4,0 7,3 7,7 0,4 -3,7 -7,7 -4,0 -7,-3 -7,-7 0,-4 3,-7 7,-7zm-38 -3c6,0 10,4 10,10 0,5 -4,10 -10,10 -5,0 -10,-5 -10,-10 0,-6 5,-10 10,-10zm-50 -5c8,0 15,7 15,15 0,8 -7,14 -15,14 -8,0 -14,-6 -14,-14 0,-8 6,-15 14,-15zm-55 -3c10,0 18,8 18,18 0,9 -8,17 -18,17 -10,0 -18,-8 -18,-17 0,-10 8,-18 18,-18zm-70 -5c13,0 23,10 23,23 0,12 -10,23 -23,23 -12,0 -23,-11 -23,-23 0,-13 11,-23 23,-23z"/>
   <rect class="fil1" x="138" y="119" width="616" height="617" rx="104" ry="19"/>
   <path class="fil2" d="M242 119l408 0c57,0 104,47 104,104l0 137c-84,68 -192,108 -308,108 -117,0 -224,-40 -308,-108l0 -137c0,-57 47,-104 104,-104z"/>
   <g>
    <rect class="fil3" x="293" y="284" width="66.107" height="106.118" rx="23" ry="53"/>
    <rect class="fil3" x="532" y="284" width="66.107" height="106.118" rx="23" ry="53"/>
   </g>
   <rect class="fil3" x="272" y="580" width="347.497" height="46.1008" rx="174" ry="16"/>
  </g>
 </g>
</svg>
