<?xml version="1.0" encoding="UTF-8"?>
<!DOCTYPE svg PUBLIC "-//W3C//DTD SVG 1.1//EN" "http://www.w3.org/Graphics/SVG/1.1/DTD/svg11.dtd">
<!-- Creator: CorelDRAW X8 -->
<svg xmlns="http://www.w3.org/2000/svg" xml:space="preserve" width="29.3356mm" height="33.8834mm" version="1.1" style="shape-rendering:geometricPrecision; text-rendering:geometricPrecision; image-rendering:optimizeQuality; fill-rule:evenodd; clip-rule:evenodd"
viewBox="0 0 396 457"
 xmlns:xlink="http://www.w3.org/1999/xlink">
 <defs>
  <style type="text/css">
   <![CDATA[
    .fil3 {fill:black}
    .fil0 {fill:#2C3D51}
    .fil1 {fill:#FFBD2D}
    .fil2 {fill:white;fill-opacity:0.301961}
   ]]>
  </style>
 </defs>
 <g id="Layer_x0020_1">
  <metadata id="CorelCorpID_0Corel-Layer"/>
  <g id="_2537544313584">
   <path class="fil0" d="M21 242c-12,-5 -21,-16 -21,-30 0,-15 10,-27 24,-31 18,-78 89,-137 173,-137 84,0 155,58 173,137 15,3 26,16 26,31 0,14 -10,26 -22,30 -4,33 -17,62 -35,87l0 0c0,0 17,5 -2,128 0,0 -10,-50 -90,-65l0 0c-16,5 -32,7 -50,7 -91,0 -166,-69 -176,-157z"/>
   <circle class="fil1" cx="197" cy="221" r="158"/>
   <path class="fil2" d="M197 64c68,0 126,42 148,102 -39,45 -91,72 -148,72 -57,0 -109,-27 -148,-72 22,-60 80,-102 148,-102z"/>
   <path class="fil0" d="M48 50c13,0 23,11 23,23 0,13 -10,23 -23,23 -13,0 -23,-10 -23,-23 0,-12 10,-23 23,-23zm221 -28c2,0 4,1 4,3 0,2 -2,3 -4,3 -1,0 -3,-1 -3,-3 0,-2 2,-3 3,-3zm-17 -8c2,0 4,2 4,4 0,3 -2,5 -4,5 -3,0 -5,-2 -5,-5 0,-2 2,-4 5,-4zm-23 -8c4,0 7,3 7,7 0,4 -3,7 -7,7 -3,0 -7,-3 -7,-7 0,-4 4,-7 7,-7zm-25 -5c5,0 9,4 9,10 0,5 -4,10 -9,10 -6,0 -10,-5 -10,-10 0,-6 4,-10 10,-10zm-33 -1c7,0 12,6 12,13 0,7 -5,12 -12,12 -7,0 -13,-5 -13,-12 0,-7 6,-13 13,-13zm-40 4c10,0 17,8 17,17 0,10 -7,17 -17,17 -9,0 -17,-7 -17,-17 0,-9 8,-17 17,-17zm-40 16c11,0 20,9 20,19 0,11 -9,20 -20,20 -11,0 -19,-9 -19,-20 0,-10 8,-19 19,-19z"/>
   <g>
    <rect class="fil3" x="121" y="162" width="32.8432" height="52.7212" rx="11" ry="26"/>
    <rect class="fil3" x="240" y="162" width="32.8432" height="52.7212" rx="11" ry="26"/>
   </g>
   <rect class="fil3" x="111" y="282" width="172.643" height="22.9037" rx="86" ry="8"/>
  </g>
 </g>
</svg>
