<?xml version="1.0" encoding="UTF-8"?>
<!DOCTYPE svg PUBLIC "-//W3C//DTD SVG 1.1//EN" "http://www.w3.org/Graphics/SVG/1.1/DTD/svg11.dtd">
<!-- Creator: CorelDRAW X8 -->
<svg xmlns="http://www.w3.org/2000/svg" xml:space="preserve" width="54.0801mm" height="54.0801mm" version="1.1" style="shape-rendering:geometricPrecision; text-rendering:geometricPrecision; image-rendering:optimizeQuality; fill-rule:evenodd; clip-rule:evenodd"
viewBox="0 0 318 318"
 xmlns:xlink="http://www.w3.org/1999/xlink">
 <defs>
  <style type="text/css">
   <![CDATA[
    .fil0 {fill:#FF6600}
    .fil1 {fill:black}
   ]]>
  </style>
     <clipPath id="id0">
      <path d="M0 0l318 0 0 318 -318 0 0 -318z"/>
     </clipPath>
 </defs>
 <g id="Layer_x0020_1">
  <metadata id="CorelCorpID_0Corel-Layer"/>
  <g id="_1488328760000">
   <g>
    <g style="clip-path:url(#id0)">
     <image x="0" y="0" width="318" height="318" xlink:href="logo_Images\logo_ImgID1.png"/>
    </g>
   </g>
   <circle class="fil0" cx="156" cy="156" r="156"/>
   <path class="fil1" d="M119 28c9,7 12,58 13,73 22,-16 83,-61 102,-59 13,-4 17,3 11,13 -18,26 -111,68 -101,89 11,23 106,17 128,35 8,6 5,12 -6,12 -14,6 -79,-13 -110,-11 -7,2 -10,6 -8,13 1,6 15,81 13,87 -7,11 -21,10 -26,-6 -6,-19 -12,-62 -15,-85 -3,-17 2,-14 -15,-16 -23,-4 -71,-13 -69,-21 1,-8 46,-27 64,-35 10,-4 8,-1 6,-12l-13 -73c5,-6 19,-9 26,-4zm-12 110c0,0 -24,9 -10,10 13,2 12,-2 10,-10z"/>
  </g>
 </g>
</svg>
