<?xml version="1.0" encoding="UTF-8"?>
<!DOCTYPE svg PUBLIC "-//W3C//DTD SVG 1.1//EN" "http://www.w3.org/Graphics/SVG/1.1/DTD/svg11.dtd">
<!-- Creator: CorelDRAW X8 -->
<svg xmlns="http://www.w3.org/2000/svg" xml:space="preserve" width="87.751mm" height="87.751mm" version="1.1" style="shape-rendering:geometricPrecision; text-rendering:geometricPrecision; image-rendering:optimizeQuality; fill-rule:evenodd; clip-rule:evenodd"
viewBox="0 0 808 808"
 xmlns:xlink="http://www.w3.org/1999/xlink">
 <defs>
  <style type="text/css">
   <![CDATA[
    .fil0 {fill:black}
    .fil1 {fill:#FF6600}
    .fil2 {fill:black}
   ]]>
  </style>
     <clipPath id="id0">
      <path d="M155 155l498 0 0 498 -498 0 0 -498z"/>
     </clipPath>
 </defs>
 <g id="Layer_x0020_1">
  <metadata id="CorelCorpID_0Corel-Layer"/>
  <g id="_1488302766784">
   <rect class="fil0" y="351" width="808" height="105" rx="147" ry="19"/>
   <rect class="fil0" transform="matrix(1.82844E-14 -0.690379 0.0900597 2.38519E-15 351.124 807.601)" width="1170" height="1170" rx="213" ry="213"/>
  </g>
  <g id="_1488302765760">
   <g>
    <g style="clip-path:url(#id0)">
     <image x="155" y="155" width="498" height="498" xlink:href="logo+_Images\logo+_ImgID1.png"/>
    </g>
   </g>
   <circle class="fil1" cx="399" cy="399" r="244"/>
   <path class="fil2" d="M341 199c14,11 20,91 21,115 33,-25 130,-96 160,-94 20,-6 26,6 16,21 -28,40 -173,106 -157,139 17,36 165,26 200,55 12,10 7,18 -9,19 -22,9 -124,-21 -172,-17 -11,3 -17,9 -14,20 3,10 24,127 21,135 -11,19 -33,16 -41,-9 -8,-28 -19,-97 -24,-132 -4,-28 4,-22 -22,-26 -37,-6 -112,-20 -109,-32 3,-13 72,-43 100,-55 15,-6 12,-2 9,-19l-19 -114c7,-10 30,-15 40,-6zm-19 171c0,0 -37,15 -16,17 21,2 19,-3 16,-17z"/>
  </g>
 </g>
</svg>
