<?xml version="1.0" encoding="UTF-8"?>
<!DOCTYPE svg PUBLIC "-//W3C//DTD SVG 1.1//EN" "http://www.w3.org/Graphics/SVG/1.1/DTD/svg11.dtd">
<!-- Creator: CorelDRAW X8 -->
<svg xmlns="http://www.w3.org/2000/svg" xml:space="preserve" width="279.216mm" height="194.088mm" version="1.1" style="shape-rendering:geometricPrecision; text-rendering:geometricPrecision; image-rendering:optimizeQuality; fill-rule:evenodd; clip-rule:evenodd"
viewBox="0 0 28073 19514"
 xmlns:xlink="http://www.w3.org/1999/xlink">
 <defs>
  <style type="text/css">
   <![CDATA[
    .str0 {stroke:black;stroke-width:20.1086;stroke-opacity:0.188235}
    .fil34 {fill:black}
    .fil14 {fill:black}
    .fil38 {fill:#181B32}
    .fil3 {fill:#1C1F39}
    .fil35 {fill:#1D213A}
    .fil21 {fill:#231F20}
    .fil27 {fill:#232945}
    .fil9 {fill:#2A1304}
    .fil0 {fill:#2C3D51}
    .fil6 {fill:#3C0404}
    .fil11 {fill:#3C456E}
    .fil13 {fill:#422B0D}
    .fil40 {fill:#470D12}
    .fil39 {fill:#6D12C3}
    .fil10 {fill:#6F4104}
    .fil31 {fill:#831B21}
    .fil22 {fill:#918F90}
    .fil17 {fill:#A12210}
    .fil24 {fill:#E6E6E6}
    .fil23 {fill:#EF8A86}
    .fil20 {fill:#F2EFEE}
    .fil7 {fill:#FEC12B}
    .fil32 {fill:red}
    .fil25 {fill:red}
    .fil1 {fill:#FFBD2D}
    .fil18 {fill:#FFD94C}
    .fil12 {fill:white}
    .fil8 {fill:#00CCFF;fill-rule:nonzero}
    .fil28 {fill:#C6F3FF;fill-rule:nonzero}
    .fil16 {fill:red;fill-rule:nonzero}
    .fil4 {fill:white;fill-opacity:0.019608}
    .fil15 {fill:white;fill-opacity:0.188235}
    .fil19 {fill:white;fill-opacity:0.211765}
    .fil26 {fill:#611204;fill-opacity:0.301961}
    .fil2 {fill:white;fill-opacity:0.301961}
    .fil5 {fill:white;fill-opacity:0.309804}
    .fil29 {fill:white;fill-rule:nonzero;fill-opacity:0.701961}
    .fil37 {fill:url(#id24)}
    .fil30 {fill:url(#id25)}
    .fil33 {fill:url(#id26)}
    .fil36 {fill:url(#id27)}
   ]]>
  </style>
      <mask id="id0">
  <radialGradient id="id1" gradientUnits="userSpaceOnUse" cx="25868.4" cy="1266.4" r="0" fx="25868.4" fy="1266.4">
   <stop offset="0" style="stop-opacity:1; stop-color:white"/>
   <stop offset="1" style="stop-opacity:0; stop-color:white"/>
  </radialGradient>
       <rect style="fill:url(#id1)" x="25858" y="1256" width="202" height="202"/>
      </mask>
      <mask id="id2">
  <radialGradient id="id3" gradientUnits="userSpaceOnUse" cx="26867.3" cy="1266.4" r="0" fx="26867.3" fy="1266.4">
   <stop offset="0" style="stop-opacity:1; stop-color:white"/>
   <stop offset="1" style="stop-opacity:0; stop-color:white"/>
  </radialGradient>
       <rect style="fill:url(#id3)" x="26857" y="1256" width="202" height="202"/>
      </mask>
       <mask id="id4">
  <radialGradient id="id5" gradientUnits="userSpaceOnUse" cx="20960.9" cy="1169.55" r="0" fx="20960.9" fy="1169.55">
   <stop offset="0" style="stop-opacity:1; stop-color:white"/>
   <stop offset="1" style="stop-opacity:0; stop-color:white"/>
  </radialGradient>
        <rect style="fill:url(#id5)" x="20951" y="1159" width="202" height="202"/>
       </mask>
       <mask id="id6">
  <radialGradient id="id7" gradientUnits="userSpaceOnUse" cx="21959.8" cy="1169.55" r="0" fx="21959.8" fy="1169.55">
   <stop offset="0" style="stop-opacity:1; stop-color:white"/>
   <stop offset="1" style="stop-opacity:0; stop-color:white"/>
  </radialGradient>
        <rect style="fill:url(#id7)" x="21950" y="1159" width="202" height="202"/>
       </mask>
     <mask id="id8">
  <linearGradient id="id9" gradientUnits="userSpaceOnUse" x1="26426.8" y1="13072" x2="26376.3" y2="13545.4">
   <stop offset="0" style="stop-opacity:0; stop-color:white"/>
   <stop offset="1" style="stop-opacity:1; stop-color:white"/>
  </linearGradient>
      <rect style="fill:url(#id9)" x="26202" y="13019" width="445" height="391"/>
     </mask>
     <mask id="id10">
  <linearGradient id="id11" gradientUnits="userSpaceOnUse" x1="21519.3" y1="12971.5" x2="21468.8" y2="13444.9">
   <stop offset="0" style="stop-opacity:0; stop-color:white"/>
   <stop offset="1" style="stop-opacity:1; stop-color:white"/>
  </linearGradient>
      <rect style="fill:url(#id11)" x="21294" y="12918" width="445" height="391"/>
     </mask>
      <mask id="id12">
  <radialGradient id="id13" gradientUnits="userSpaceOnUse" cx="10975.7" cy="11919.4" r="0" fx="10975.7" fy="11919.4">
   <stop offset="0" style="stop-opacity:1; stop-color:white"/>
   <stop offset="1" style="stop-opacity:0; stop-color:white"/>
  </radialGradient>
       <rect style="fill:url(#id13)" x="10966" y="11909" width="156" height="156"/>
      </mask>
      <mask id="id14">
  <radialGradient id="id15" gradientUnits="userSpaceOnUse" cx="11948.4" cy="11919.4" r="0" fx="11948.4" fy="11919.4">
   <stop offset="0" style="stop-opacity:1; stop-color:white"/>
   <stop offset="1" style="stop-opacity:0; stop-color:white"/>
  </radialGradient>
       <rect style="fill:url(#id15)" x="11938" y="11909" width="156" height="156"/>
      </mask>
      <mask id="id16">
  <linearGradient id="id17" gradientUnits="userSpaceOnUse" x1="11596.5" y1="13160" x2="11574.7" y2="13736.7">
   <stop offset="0" style="stop-opacity:0; stop-color:white"/>
   <stop offset="1" style="stop-opacity:1; stop-color:white"/>
  </linearGradient>
       <rect style="fill:url(#id17)" x="11269" y="13039" width="595" height="555"/>
      </mask>
       <mask id="id18">
  <radialGradient id="id19" gradientUnits="userSpaceOnUse" cx="15883.2" cy="12008.9" r="0" fx="15883.2" fy="12008.9">
   <stop offset="0" style="stop-opacity:1; stop-color:white"/>
   <stop offset="1" style="stop-opacity:0; stop-color:white"/>
  </radialGradient>
        <rect style="fill:url(#id19)" x="15873" y="11999" width="156" height="156"/>
       </mask>
       <mask id="id20">
  <radialGradient id="id21" gradientUnits="userSpaceOnUse" cx="16855.9" cy="12008.9" r="0" fx="16855.9" fy="12008.9">
   <stop offset="0" style="stop-opacity:1; stop-color:white"/>
   <stop offset="1" style="stop-opacity:0; stop-color:white"/>
  </radialGradient>
        <rect style="fill:url(#id21)" x="16846" y="11999" width="156" height="156"/>
       </mask>
      <mask id="id22">
  <linearGradient id="id23" gradientUnits="userSpaceOnUse" x1="16504" y1="13340.9" x2="16482.2" y2="13917.7">
   <stop offset="0" style="stop-opacity:0; stop-color:white"/>
   <stop offset="1" style="stop-opacity:1; stop-color:white"/>
  </linearGradient>
       <rect style="fill:url(#id23)" x="16176" y="13220" width="595" height="555"/>
      </mask>
  <linearGradient id="id24" gradientUnits="userSpaceOnUse" x1="7202.84" y1="17716.9" x2="6962.79" y2="18421.1">
   <stop offset="0" style="stop-opacity:1; stop-color:#E15261"/>
   <stop offset="1" style="stop-opacity:1; stop-color:#420909"/>
  </linearGradient>
  <linearGradient id="id25" gradientUnits="userSpaceOnUse" x1="11555.6" y1="12755" x2="11576.9" y2="13173.4">
   <stop offset="0" style="stop-opacity:1; stop-color:#2A0609"/>
   <stop offset="1" style="stop-opacity:1; stop-color:#BF2222"/>
  </linearGradient>
  <linearGradient id="id26" gradientUnits="userSpaceOnUse" xlink:href="#id25" x1="16463.1" y1="12935.9" x2="16484.4" y2="13354.4">
  </linearGradient>
  <linearGradient id="id27" gradientUnits="userSpaceOnUse" xlink:href="#id24" x1="2347.05" y1="17490.6" x2="2083.19" y2="18264.5">
  </linearGradient>
 </defs>
 <g id="Layer_x0020_1">
  <metadata id="CorelCorpID_0Corel-Layer"/>
  <g id="_1488302772448">
   <path class="fil0" d="M5244 1983c-91,-33 -155,-119 -155,-221 0,-112 77,-205 180,-230 136,-587 662,-1024 1290,-1024 627,0 1152,436 1289,1022 108,21 190,117 190,232 0,105 -69,195 -165,225 -28,241 -121,462 -260,645l0 0c0,0 129,38 -10,955 0,0 -76,-371 -672,-485l0 0c-118,34 -243,53 -372,53 -680,0 -1240,-512 -1315,-1172z"/>
   <circle class="fil1" cx="6559" cy="1832" r="1177"/>
   <path class="fil2" d="M6559 654c505,0 937,319 1103,767 -292,331 -679,532 -1103,532 -425,0 -812,-201 -1104,-532 167,-448 598,-767 1104,-767z"/>
   <path class="fil0" d="M5447 555c95,0 173,77 173,172 0,95 -78,172 -173,172 -95,0 -172,-77 -172,-172 0,-95 77,-172 172,-172zm1650 -212c13,0 24,11 24,24 0,13 -11,23 -24,23 -13,0 -23,-10 -23,-23 0,-13 10,-24 23,-24zm-133 -61c19,0 35,16 35,35 0,19 -16,34 -35,34 -19,0 -34,-15 -34,-34 0,-19 15,-35 34,-35zm-166 -54c28,0 51,23 51,51 0,28 -23,51 -51,51 -28,0 -51,-23 -51,-51 0,-28 23,-51 51,-51zm-191 -41c40,0 73,33 73,73 0,41 -33,74 -73,74 -41,0 -73,-33 -73,-74 0,-40 32,-73 73,-73zm-246 -6c52,0 95,42 95,94 0,53 -43,95 -95,95 -53,0 -95,-42 -95,-95 0,-52 42,-94 95,-94zm-294 31c69,0 126,57 126,126 0,70 -57,127 -126,127 -70,0 -127,-57 -127,-127 0,-69 57,-126 127,-126zm-298 117c81,0 146,65 146,146 0,81 -65,146 -146,146 -81,0 -146,-65 -146,-146 0,-81 65,-146 146,-146z"/>
   <g>
    <g>
     <ellipse class="fil3" cx="6019" cy="1388" rx="209" ry="252"/>
     <path class="fil4" d="M6221 1455c-25,107 -106,185 -202,185 -94,0 -173,-73 -200,-176 44,-78 118,-130 204,-130 81,0 154,48 198,121z"/>
     <path class="fil5" d="M5973 1225c41,0 74,34 74,74 0,41 -33,74 -74,74 -41,0 -74,-33 -74,-74 0,-40 33,-74 74,-74z"/>
    </g>
    <g>
     <ellipse class="fil3" cx="7092" cy="1388" rx="209" ry="252"/>
     <path class="fil4" d="M7294 1455c-25,107 -106,185 -202,185 -94,0 -173,-73 -200,-176 44,-78 118,-130 204,-130 81,0 154,48 198,121z"/>
     <path class="fil5" d="M7046 1225c41,0 74,34 74,74 0,41 -33,74 -74,74 -41,0 -74,-33 -74,-74 0,-40 33,-74 74,-74z"/>
    </g>
   </g>
   <path class="fil6" d="M6015 2577c-10,7 -23,11 -36,11 -35,0 -64,-28 -64,-63 0,-13 4,-25 11,-35 6,-10 15,-18 25,-23 313,-261 856,-320 1217,-162l0 0c24,9 41,32 41,59 0,35 -29,64 -64,64 -8,0 -15,-2 -22,-4 -85,-15 -403,-63 -610,-22 -241,49 -498,175 -498,175z"/>
  </g>
  <g id="_1488302776576">
   <path class="fil0" d="M0 638l0 74c3,4 5,8 7,12 5,17 12,33 22,48 5,9 13,19 26,30l0 0 0 0c28,25 65,41 105,43l0 0 1 0 1 0c85,2 166,-61 168,-160 3,-94 -62,-153 -136,-166l-4 -1 0 0 -2 0 -5 -1 0 0c-2,0 -4,0 -6,0l-2 0 -3 0c-45,-2 -91,13 -125,49 -13,14 -23,29 -31,46l-12 20c-1,-1 -3,4 -4,6zm339 810c-125,0 -226,102 -226,226 0,125 101,226 226,226 3,0 5,0 8,0l0 641c0,243 198,441 440,441l1054 0c2,3 4,5 6,8 380,452 275,687 275,687 485,-543 409,-654 515,-712 22,-7 44,-15 65,-25l1 0 0 0c149,-71 253,-223 253,-399l0 -641c121,-4 218,-104 218,-226 0,-122 -97,-221 -218,-225l0 -642c0,-242 -199,-441 -441,-441l-1728 0c-242,0 -440,199 -440,441l0 642c-3,0 -5,-1 -8,-1zm-92 -1095c11,57 50,90 95,101 13,4 27,6 41,6 27,0 52,-7 73,-21 47,-26 78,-77 60,-150 -12,-51 -45,-82 -84,-95 -15,-6 -32,-9 -49,-9 -32,0 -61,11 -85,29 -38,28 -62,75 -51,139zm468 -262c61,0 110,49 110,109 0,61 -49,110 -110,110 -61,0 -110,-49 -110,-110 0,-60 49,-109 110,-109zm1107 83c15,0 26,12 26,26 0,15 -11,27 -26,27 -14,0 -26,-12 -26,-27 0,-14 12,-26 26,-26zm-140 -11c20,0 37,17 37,37 0,21 -17,37 -37,37 -21,0 -37,-16 -37,-37 0,-20 16,-37 37,-37zm-186 -16c30,0 54,24 54,53 0,30 -24,54 -54,54 -29,0 -53,-24 -53,-54 0,-29 24,-53 53,-53zm-204 -12c36,0 65,29 65,65 0,37 -29,66 -65,66 -36,0 -65,-29 -65,-66 0,-36 29,-65 65,-65zm-258 -20c47,0 85,38 85,85 0,48 -38,86 -85,86 -47,0 -85,-38 -85,-86 0,-47 38,-85 85,-85z"/>
   <rect class="fil7" x="511" y="531" width="2280" height="2286" rx="385" ry="72"/>
   <path class="fil2" d="M896 531l1510 0c212,0 385,174 385,385l0 507c-311,252 -708,402 -1140,402 -432,0 -828,-150 -1140,-402l0 -507c0,-211 173,-385 385,-385z"/>
   <g>
    <g>
     <g>
      <ellipse class="fil3" cx="1115" cy="1291" rx="209" ry="252"/>
      <path class="fil4" d="M1317 1358c-25,107 -106,185 -202,185 -94,0 -173,-74 -200,-176 44,-78 118,-130 203,-130 82,0 154,48 199,121z"/>
      <path class="fil5" d="M1069 1128c41,0 74,33 74,74 0,41 -33,74 -74,74 -41,0 -74,-33 -74,-74 0,-41 33,-74 74,-74z"/>
     </g>
     <g>
      <ellipse class="fil3" cx="2188" cy="1291" rx="209" ry="252"/>
      <path class="fil4" d="M2389 1358c-24,107 -105,185 -201,185 -94,0 -173,-74 -200,-176 44,-78 118,-130 203,-130 82,0 154,48 198,121z"/>
      <path class="fil5" d="M2142 1128c41,0 74,33 74,74 0,41 -33,74 -74,74 -41,0 -74,-33 -74,-74 0,-41 33,-74 74,-74z"/>
     </g>
    </g>
    <path class="fil6" d="M1111 2480c-11,7 -23,11 -36,11 -36,0 -64,-28 -64,-63 0,-13 4,-26 11,-36 6,-9 15,-17 25,-22 313,-262 856,-320 1217,-162l0 0c24,9 40,32 40,59 0,35 -28,63 -63,63 -8,0 -15,-1 -22,-3 -86,-15 -403,-64 -610,-22 -241,49 -498,175 -498,175z"/>
   </g>
  </g>
  <g id="_1488302780640">
   <path class="fil0" d="M9979 547l0 74c3,5 5,8 7,12 5,18 12,34 22,48 6,10 13,19 26,30l0 1 1 0c27,25 64,41 104,42l1 0 0 0 1 0c85,2 166,-61 169,-160 2,-93 -63,-153 -136,-166l-5 0 0 0 -1 -1 -5 0 -1 0c-2,0 -4,-1 -5,-1l-2 0 -4 0c-45,-2 -91,14 -124,50 -13,13 -24,29 -32,46l-12 20c0,-2 -2,4 -4,5zm339 811c-124,0 -225,101 -225,226 0,124 101,225 225,225 3,0 5,0 8,0l0 642c0,242 198,441 441,441l1053 0c2,2 4,5 6,7 380,453 275,688 275,688 486,-544 409,-654 515,-713 23,-6 45,-15 66,-25l0 0 0 0c149,-70 253,-223 253,-398l0 -642c121,-4 218,-103 218,-225 0,-122 -97,-222 -218,-226l0 -641c0,-243 -198,-441 -441,-441l-1727 0c-243,0 -441,198 -441,441l0 641c-3,0 -5,0 -8,0zm-91 -1095c10,57 49,89 95,101 13,4 26,6 40,6 27,0 52,-8 73,-21 47,-26 78,-78 61,-151 -13,-50 -46,-81 -85,-94 -15,-6 -32,-9 -49,-9 -32,0 -61,10 -84,29 -39,27 -63,74 -51,139zm467 -263c61,0 110,49 110,110 0,61 -49,110 -110,110 -60,0 -109,-49 -109,-110 0,-61 49,-110 109,-110zm1107 84c15,0 27,11 27,26 0,14 -12,26 -27,26 -14,0 -26,-12 -26,-26 0,-15 12,-26 26,-26zm-140 -11c21,0 37,16 37,37 0,20 -16,37 -37,37 -20,0 -37,-17 -37,-37 0,-21 17,-37 37,-37zm-185 -17c29,0 53,24 53,54 0,29 -24,53 -53,53 -30,0 -54,-24 -54,-53 0,-30 24,-54 54,-54zm-205 -11c36,0 66,29 66,65 0,36 -30,65 -66,65 -36,0 -65,-29 -65,-65 0,-36 29,-65 65,-65zm-258 -20c47,0 86,38 86,85 0,47 -39,85 -86,85 -47,0 -85,-38 -85,-85 0,-47 38,-85 85,-85z"/>
   <rect class="fil7" x="10490" y="441" width="2280" height="2286" rx="385" ry="72"/>
   <path class="fil2" d="M10876 441l1509 0c212,0 386,173 386,385l0 506c-312,252 -709,403 -1140,403 -432,0 -829,-151 -1141,-403l0 -506c0,-212 174,-385 386,-385z"/>
   <path class="fil8" d="M10736 1077c57,219 227,329 227,438 0,110 -56,220 -227,220 -170,0 -227,-110 -227,-220 0,-109 170,-219 227,-438z"/>
   <g>
    <g>
     <path class="fil9" d="M11335 1009c29,0 56,24 52,52 -37,235 -461,179 -482,0 -3,-28 23,-52 52,-52 17,0 33,8 43,22 67,83 224,131 284,16 7,-22 27,-38 51,-38z"/>
     <path class="fil9" d="M12303 1009c29,0 57,24 53,52 -37,235 -461,179 -482,0 -3,-28 23,-52 52,-52 17,0 33,8 43,22 67,83 224,131 284,16 6,-22 27,-38 50,-38z"/>
    </g>
    <rect class="fil10" x="10992" y="2011" width="1278" height="148" rx="348" ry="74"/>
   </g>
  </g>
  <g id="_1488302782048">
   <path class="fil0" d="M15223 1893c-90,-33 -155,-120 -155,-222 0,-111 77,-204 181,-229 135,-587 661,-1025 1289,-1025 627,0 1152,437 1289,1022 109,21 191,117 191,232 0,106 -70,195 -166,225 -28,241 -121,462 -260,645l0 0c0,0 130,38 -10,956 0,0 -76,-371 -672,-486l0 0c-118,35 -243,53 -372,53 -680,0 -1239,-512 -1315,-1171z"/>
   <circle class="fil1" cx="16538" cy="1741" r="1177"/>
   <path class="fil2" d="M16538 564c506,0 937,319 1103,766 -292,331 -679,533 -1103,533 -424,0 -811,-202 -1103,-533 166,-447 597,-766 1103,-766z"/>
   <path class="fil0" d="M15427 464c95,0 172,77 172,172 0,95 -77,172 -172,172 -95,0 -173,-77 -173,-172 0,-95 78,-172 173,-172zm1650 -211c13,0 23,10 23,23 0,13 -10,24 -23,24 -13,0 -24,-11 -24,-24 0,-13 11,-23 24,-23zm-133 -61c19,0 34,15 34,34 0,19 -15,35 -34,35 -19,0 -35,-16 -35,-35 0,-19 16,-34 35,-34zm-167 -55c29,0 51,23 51,51 0,28 -22,51 -51,51 -28,0 -50,-23 -50,-51 0,-28 22,-51 50,-51zm-191 -40c41,0 73,32 73,73 0,40 -32,73 -73,73 -40,0 -73,-33 -73,-73 0,-41 33,-73 73,-73zm-246 -7c52,0 95,42 95,95 0,52 -43,94 -95,94 -52,0 -95,-42 -95,-94 0,-53 43,-95 95,-95zm-294 32c70,0 126,56 126,126 0,70 -56,126 -126,126 -70,0 -126,-56 -126,-126 0,-70 56,-126 126,-126zm-298 116c81,0 147,65 147,146 0,81 -66,147 -147,147 -81,0 -146,-66 -146,-147 0,-81 65,-146 146,-146z"/>
   <path class="fil8" d="M15687 1276c57,220 227,329 227,439 0,110 -56,219 -227,219 -170,0 -227,-109 -227,-219 0,-110 170,-219 227,-439z"/>
   <g>
    <g>
     <path class="fil9" d="M16242 1166c29,0 57,24 52,53 -36,234 -461,178 -481,0 -4,-29 23,-53 52,-53 17,0 33,8 42,22 68,84 225,131 285,16 6,-22 27,-38 50,-38z"/>
     <path class="fil9" d="M17211 1166c29,0 57,24 52,53 -37,234 -461,178 -482,0 -3,-29 24,-53 53,-53 17,0 33,8 42,22 68,84 224,131 285,16 6,-22 26,-38 50,-38z"/>
    </g>
    <rect class="fil10" x="15899" y="2168" width="1278" height="148" rx="348" ry="74"/>
   </g>
  </g>
  <g id="_1488302798016">
   <path class="fil0" d="M25197 1914c-91,-33 -156,-120 -156,-222 0,-111 77,-204 181,-229 135,-587 661,-1024 1289,-1024 627,0 1153,436 1289,1021 109,22 191,117 191,232 0,106 -70,195 -165,225 -29,241 -121,462 -261,645l0 0c0,0 130,38 -10,956 0,0 -76,-371 -671,-486l0 0c-119,35 -243,53 -373,53 -679,0 -1239,-512 -1314,-1171z"/>
   <circle class="fil1" cx="26511" cy="1762" r="1177"/>
   <path class="fil2" d="M26511 585c506,0 937,319 1104,766 -293,331 -679,533 -1104,533 -424,0 -811,-202 -1103,-533 166,-447 598,-766 1103,-766z"/>
   <path class="fil0" d="M25400 485c95,0 172,77 172,172 0,95 -77,172 -172,172 -95,0 -172,-77 -172,-172 0,-95 77,-172 172,-172zm1650 -211c13,0 23,10 23,23 0,13 -10,24 -23,24 -13,0 -24,-11 -24,-24 0,-13 11,-23 24,-23zm-133 -61c19,0 34,15 34,34 0,19 -15,35 -34,35 -19,0 -35,-16 -35,-35 0,-19 16,-34 35,-34zm-166 -55c28,0 51,23 51,51 0,28 -23,51 -51,51 -28,0 -51,-23 -51,-51 0,-28 23,-51 51,-51zm-192 -40c41,0 74,32 74,73 0,40 -33,73 -74,73 -40,0 -73,-33 -73,-73 0,-41 33,-73 73,-73zm-246 -7c53,0 95,42 95,95 0,52 -42,95 -95,95 -52,0 -94,-43 -94,-95 0,-53 42,-95 94,-95zm-294 32c70,0 126,56 126,126 0,70 -56,126 -126,126 -70,0 -126,-56 -126,-126 0,-70 56,-126 126,-126zm-298 116c81,0 147,65 147,146 0,81 -66,147 -147,147 -80,0 -146,-66 -146,-147 0,-81 66,-146 146,-146z"/>
   <g>
    <g>
     <ellipse class="fil11" cx="26019" cy="1460" rx="214" ry="261"/>
     <ellipse class="fil11" cx="27009" cy="1464" rx="208" ry="269"/>
    </g>
    <g>
     <path class="fil12" style="mask:url(#id0)" d="M25959 1266c50,0 91,41 91,91 0,50 -41,91 -91,91 -50,0 -91,-41 -91,-91 0,-50 41,-91 91,-91z"/>
     <path class="fil12" style="mask:url(#id2)" d="M26958 1266c50,0 91,41 91,91 0,50 -41,91 -91,91 -50,0 -91,-41 -91,-91 0,-50 41,-91 91,-91z"/>
    </g>
   </g>
   <g>
    <path class="fil10" d="M25603 1061c25,0 219,55 274,64 200,34 359,41 359,41l0 -120c0,-48 39,-88 87,-88 48,0 87,40 87,88 0,99 -2,199 -2,299 -307,-21 -552,-28 -826,-188 -17,-8 -29,-26 -29,-46 0,-28 22,-50 50,-50z"/>
    <path class="fil10" d="M27419 1061c-24,0 -218,55 -273,64 -200,34 -359,41 -359,41l0 -120c0,-48 -39,-88 -88,-88 -48,0 -87,40 -87,88 0,99 3,199 3,299 306,-21 551,-28 826,-188 17,-8 29,-26 29,-46 0,-28 -23,-50 -51,-50z"/>
   </g>
   <path class="fil6" d="M26059 2439l0 0 -1 0 0 0 0 1 0 0 0 0 0 0 0 0 -1 0 0 0 0 0 0 0 -1 0 0 1c-4,1 -8,3 -12,3l-1 0 0 0 0 0 -1 0 0 1 -1 0 0 0 0 0 -1 0 0 0 -1 0 0 0 -1 0 -1 0 0 0 0 0c-26,0 -47,-21 -47,-47l0 -1 0 -1 0 -1 0 -1 0 0 0 0 0 -2 0 -1c1,-1 1,-2 1,-3l0 0c1,-4 2,-8 4,-12l0 0 1 -1 0 0 1 -1 0 -1c2,-3 4,-6 7,-8l1 -1 0 0c0,0 134,-196 477,-196 10,0 20,0 29,1 10,-1 20,-1 29,-1 344,0 478,196 478,196l0 0 1 1c2,2 5,5 7,8l0 1 1 1 0 0 0 1 0 0c2,4 4,8 4,12l1 0c0,1 0,2 0,3l0 1 0 2 0 0 0 0 1 1 0 1 0 1 0 1c0,26 -21,47 -47,47l-1 0 0 0 -1 0 -1 0 0 0 0 0 -1 0 0 0 0 0 -1 0 0 0 -1 -1 0 0 0 0 -1 0 0 0c-4,0 -9,-2 -13,-3l0 -1 0 0 0 0 -1 0 0 0 0 0 0 0 -1 0 0 0 0 0 0 -1 0 0 0 0 0 0 -1 0c-25,-12 -213,-102 -422,-110 -10,0 -20,-1 -30,-1 -10,0 -19,1 -29,1 -210,8 -398,98 -423,110l0 0z"/>
  </g>
  <g id="_1488302802560">
   <path class="fil0" d="M19953 569l0 73c2,5 4,9 6,12 5,18 13,34 22,48 6,10 13,19 26,30l1 1 0 0c28,25 64,41 104,42l1 0 1 0 1 0c84,2 165,-61 168,-160 2,-93 -63,-153 -136,-166l-4 0 -1 0 -1 0 -5 -1 -1 0c-1,0 -3,-1 -5,-1l-2 0 -3 0c-46,-2 -92,14 -125,50 -13,13 -24,29 -31,46l-12 20c-1,-2 -3,4 -4,6zm339 810c-125,0 -226,101 -226,226 0,124 101,225 226,225 2,0 5,0 7,0l0 642c0,242 199,441 441,441l1053 0c3,2 4,5 6,7 381,453 275,688 275,688 486,-544 409,-654 515,-713 23,-6 45,-15 66,-24l0 -1 0 0c149,-70 253,-223 253,-398l0 -642c121,-4 218,-103 218,-225 0,-122 -97,-222 -218,-226l0 -641c0,-243 -198,-441 -441,-441l-1727 0c-242,0 -441,198 -441,441l0 641c-2,0 -5,0 -7,0zm-92 -1095c10,57 49,89 95,101 13,4 26,6 40,6 27,0 52,-8 73,-21 47,-26 79,-78 61,-151 -12,-50 -45,-81 -85,-94 -15,-6 -31,-9 -49,-9 -31,0 -61,10 -84,29 -39,27 -63,74 -51,139zm468 -263c60,0 110,49 110,110 0,61 -50,110 -110,110 -61,0 -110,-49 -110,-110 0,-61 49,-110 110,-110zm1107 84c14,0 26,11 26,26 0,14 -12,26 -26,26 -15,0 -27,-12 -27,-26 0,-15 12,-26 27,-26zm-140 -11c20,0 37,16 37,37 0,20 -17,37 -37,37 -21,0 -38,-17 -38,-37 0,-21 17,-37 38,-37zm-186 -17c30,0 53,24 53,54 0,29 -23,53 -53,53 -30,0 -54,-24 -54,-53 0,-30 24,-54 54,-54zm-204 -11c36,0 65,29 65,65 0,36 -29,65 -65,65 -36,0 -66,-29 -66,-65 0,-36 30,-65 66,-65zm-258 -20c47,0 85,38 85,85 0,47 -38,85 -85,85 -47,0 -86,-38 -86,-85 0,-47 39,-85 86,-85z"/>
   <rect class="fil7" x="20464" y="462" width="2280" height="2286" rx="385" ry="72"/>
   <path class="fil2" d="M20849 462l1510 0c212,0 385,173 385,385l0 507c-312,251 -708,402 -1140,402 -432,0 -829,-151 -1140,-402l0 -507c0,-212 173,-385 385,-385z"/>
   <g>
    <g>
     <g>
      <ellipse class="fil11" cx="21111" cy="1363" rx="214" ry="261"/>
      <ellipse class="fil11" cx="22102" cy="1367" rx="208" ry="269"/>
     </g>
     <g>
      <path class="fil12" style="mask:url(#id4)" d="M21052 1170c50,0 90,40 90,90 0,50 -40,91 -90,91 -50,0 -91,-41 -91,-91 0,-50 41,-90 91,-90z"/>
      <path class="fil12" style="mask:url(#id6)" d="M22051 1170c50,0 90,40 90,90 0,50 -40,91 -90,91 -51,0 -91,-41 -91,-91 0,-50 40,-90 91,-90z"/>
     </g>
    </g>
    <g>
     <path class="fil10" d="M20696 964c24,0 218,55 273,64 200,34 359,41 359,41l0 -120c0,-48 39,-87 88,-87 48,0 87,39 87,87 0,99 -3,199 -3,299 -306,-21 -551,-28 -826,-188 -17,-8 -29,-26 -29,-46 0,-28 23,-50 51,-50z"/>
     <path class="fil10" d="M22512 964c-25,0 -219,55 -274,64 -200,34 -359,41 -359,41l0 -120c0,-48 -39,-87 -87,-87 -48,0 -87,39 -87,87 0,99 2,199 2,299 307,-21 552,-28 826,-188 17,-8 29,-26 29,-46 0,-28 -22,-50 -50,-50z"/>
    </g>
    <path class="fil6" d="M21151 2343l0 0 0 0 0 0 0 0 0 0 0 0 -1 0 0 0 0 0 0 0 -1 0 0 0 0 1 0 0c-4,2 -9,3 -13,3l0 1 -1 0 0 0 0 0 -1 0 0 0 -1 0 0 0 0 0 -1 0 0 0 0 0 -1 0 -1 0 0 0 -1 0c-26,0 -47,-21 -47,-47l0 -1 0 -1 0 -1 1 -1 0 0 0 0 0 -2 0 -1c0,-1 0,-2 0,-3l1 0c0,-4 2,-8 4,-11l0 0 0 -2 0 0 1 -1 0 0c2,-4 5,-6 7,-9l1 -1 0 0c0,0 134,-196 478,-196 9,0 19,0 29,1 9,-1 19,-1 29,-1 343,0 477,196 477,196l0 0 1 1c3,3 5,5 7,9l0 0 1 1 0 0 1 2 0 0c2,3 3,7 4,11l0 0c0,1 0,2 1,3l0 1 0 2 0 0 0 0 0 1 0 1 0 1 0 1c0,26 -21,47 -47,47l0 0 0 0 -1 0 -1 0 0 0 -1 0 0 0 -1 0 0 0 0 0 -1 0 0 0 -1 0 0 0 0 0 -1 -1c-4,0 -8,-1 -12,-3l0 0 -1 -1 0 0 0 0 0 0 -1 0 0 0 0 0 0 0 0 0 0 0 0 0 -1 0 0 0 0 -1c-25,-12 -213,-102 -423,-110 -10,0 -19,0 -29,0 -10,0 -20,0 -30,0 -209,8 -397,98 -422,110l-1 1z"/>
   </g>
  </g>
  <g id="_1488302808576">
   <path class="fil0" d="M5388 7262c-90,-33 -155,-120 -155,-222 0,-111 77,-204 180,-230 136,-586 662,-1024 1290,-1024 627,0 1152,437 1289,1022 108,21 190,117 190,232 0,106 -69,195 -165,225 -28,241 -121,462 -260,645l0 0c0,0 129,38 -10,956 0,0 -76,-372 -672,-486l0 0c-118,35 -243,53 -372,53 -680,0 -1240,-512 -1315,-1171z"/>
   <circle class="fil1" cx="6703" cy="7110" r="1177"/>
   <path class="fil2" d="M6703 5933c505,0 937,318 1103,766 -292,331 -679,532 -1103,532 -425,0 -811,-201 -1104,-532 167,-448 598,-766 1104,-766z"/>
   <path class="fil0" d="M5591 5833c95,0 173,77 173,172 0,95 -78,172 -173,172 -95,0 -172,-77 -172,-172 0,-95 77,-172 172,-172zm1650 -211c13,0 24,10 24,23 0,13 -11,23 -24,23 -13,0 -23,-10 -23,-23 0,-13 10,-23 23,-23zm-133 -61c19,0 35,15 35,34 0,19 -16,35 -35,35 -19,0 -34,-16 -34,-35 0,-19 15,-34 34,-34zm-166 -55c28,0 51,23 51,51 0,28 -23,51 -51,51 -28,0 -51,-23 -51,-51 0,-28 23,-51 51,-51zm-191 -41c40,0 73,33 73,74 0,40 -33,73 -73,73 -40,0 -73,-33 -73,-73 0,-41 33,-74 73,-74zm-246 -6c52,0 95,42 95,95 0,52 -43,94 -95,94 -52,0 -95,-42 -95,-94 0,-53 43,-95 95,-95zm-294 31c69,0 126,57 126,127 0,69 -57,126 -126,126 -70,0 -127,-57 -127,-126 0,-70 57,-127 127,-127zm-298 117c81,0 146,65 146,146 0,81 -65,146 -146,146 -81,0 -146,-65 -146,-146 0,-81 65,-146 146,-146z"/>
   <g>
    <ellipse class="fil13" cx="7203" cy="6784" rx="179" ry="209"/>
    <ellipse class="fil13" cx="6202" cy="6831" rx="179" ry="209"/>
   </g>
   <g>
    <path class="fil13" d="M7562 6442c0,26 -20,46 -46,46 -18,0 -33,-10 -41,-25l0 0 0 0c-2,-4 -4,-9 -4,-15 -14,-38 -59,-136 -155,-109 -107,31 -238,85 -262,95 -1,1 -3,2 -4,2l0 0c-4,2 -9,3 -14,3 -22,0 -41,-19 -41,-41 0,-13 7,-25 16,-32 170,-199 519,-203 551,76z"/>
    <path class="fil13" d="M6381 6491c21,0 39,17 39,39 0,122 -278,0 -353,25 -115,37 -153,157 -186,157 -18,0 -33,-15 -33,-33 0,0 -43,-183 133,-241 175,-59 243,72 389,55 3,-1 7,-2 11,-2z"/>
   </g>
   <path class="fil13" d="M6999 7787c4,3 7,6 10,9l0 0 0 0c10,11 16,26 16,42 0,34 -28,62 -62,62 -7,0 -13,-1 -19,-3l0 0 0 0c-4,-2 -9,-4 -12,-6 -39,-17 -159,-63 -258,-43 -118,25 -219,45 -219,45 -4,1 -8,1 -13,1 -34,0 -62,-27 -62,-62 0,-20 10,-38 25,-49 0,0 144,-124 310,-117 139,6 251,92 284,121z"/>
   <path class="fil14" d="M7067 6357c241,0 441,176 479,406l153 0c52,0 94,42 94,94l0 0c0,51 -42,94 -94,94l-159 0c-49,216 -242,377 -473,377 -268,0 -485,-217 -485,-485 0,-268 217,-486 485,-486zm626 428c40,0 72,32 72,72 0,40 -32,72 -72,72 -40,0 -72,-32 -72,-72 0,-40 32,-72 72,-72zm-626 -378c241,0 436,195 436,436 0,240 -195,435 -436,435 -241,0 -436,-195 -436,-435 0,-241 195,-436 436,-436z"/>
   <path class="fil15 str0" d="M7067 6407c241,0 436,195 436,436 0,240 -195,435 -436,435 -241,0 -436,-195 -436,-435 0,-241 195,-436 436,-436z"/>
   <path class="fil12" d="M7067 6467c207,0 375,168 375,376 0,20 -1,39 -4,58l0 -2c0,-204 -165,-369 -369,-369 -204,0 -369,165 -369,369 0,10 1,21 2,31 -7,-28 -11,-57 -11,-87 0,-208 169,-376 376,-376z"/>
   <path class="fil14" d="M7702 6992c43,0 79,36 79,79 0,44 -36,79 -79,79 -44,0 -79,-35 -79,-79 0,-43 35,-79 79,-79zm0 25c30,0 54,24 54,54 0,30 -24,55 -54,55 -30,0 -55,-25 -55,-55 0,-30 25,-54 55,-54z"/>
   <path class="fil14" d="M7702 7181c43,0 79,36 79,79 0,44 -36,79 -79,79 -44,0 -79,-35 -79,-79 0,-43 35,-79 79,-79zm0 25c30,0 54,24 54,54 0,30 -24,55 -54,55 -30,0 -55,-25 -55,-55 0,-30 25,-54 55,-54z"/>
   <path class="fil14" d="M7702 7370c43,0 79,36 79,79 0,44 -36,79 -79,79 -44,0 -79,-35 -79,-79 0,-43 35,-79 79,-79zm0 25c30,0 54,24 54,54 0,30 -24,55 -54,55 -30,0 -55,-25 -55,-55 0,-30 25,-54 55,-54z"/>
   <path class="fil14" d="M7702 7559c43,0 79,36 79,79 0,44 -36,79 -79,79 -44,0 -79,-35 -79,-79 0,-43 35,-79 79,-79zm0 25c30,0 54,24 54,54 0,30 -24,55 -54,55 -30,0 -55,-25 -55,-55 0,-30 25,-54 55,-54z"/>
   <path class="fil14" d="M7702 7748c43,0 79,36 79,79 0,44 -36,79 -79,79 -44,0 -79,-35 -79,-79 0,-43 35,-79 79,-79zm0 25c30,0 54,24 54,54 0,30 -24,55 -54,55 -30,0 -55,-25 -55,-55 0,-30 25,-54 55,-54z"/>
   <path class="fil14" d="M7702 7937c43,0 79,36 79,79 0,44 -36,79 -79,79 -44,0 -79,-35 -79,-79 0,-43 35,-79 79,-79zm0 25c30,0 54,24 54,54 0,30 -24,55 -54,55 -30,0 -55,-25 -55,-55 0,-30 25,-54 55,-54z"/>
   <path class="fil14" d="M7702 8126c43,0 79,36 79,79 0,44 -36,79 -79,79 -44,0 -79,-35 -79,-79 0,-43 35,-79 79,-79zm0 25c30,0 54,24 54,54 0,30 -24,55 -54,55 -30,0 -55,-25 -55,-55 0,-30 25,-54 55,-54z"/>
   <rect class="fil14" x="7683" y="6910" width="38.546" height="130.191" rx="19" ry="15"/>
   <rect class="fil14" x="7683" y="7096" width="38.546" height="130.191" rx="19" ry="15"/>
   <rect class="fil14" x="7683" y="7287" width="38.546" height="130.191" rx="19" ry="15"/>
   <rect class="fil14" x="7683" y="7478" width="38.546" height="130.191" rx="19" ry="15"/>
   <rect class="fil14" x="7683" y="7669" width="38.546" height="130.191" rx="19" ry="15"/>
   <rect class="fil14" x="7683" y="7858" width="38.546" height="130.191" rx="19" ry="15"/>
   <rect class="fil14" x="7683" y="8045" width="38.546" height="130.191" rx="19" ry="15"/>
  </g>
  <g id="_1488302816800">
   <path class="fil0" d="M144 5916l0 74c3,4 5,8 7,12 5,17 12,34 22,48 5,9 13,19 26,30l0 0 0 1c28,25 65,40 105,42l0 0 1 0 1 0c85,2 166,-61 168,-160 3,-94 -62,-153 -136,-166l-4 0 0 -1 -2 0 -5 0 0 0c-2,-1 -4,-1 -6,-1l-2 0 -3 0c-45,-2 -91,13 -125,50 -13,13 -23,28 -31,45l-12 20c-1,-1 -3,4 -4,6zm339 811c-125,0 -226,101 -226,225 0,125 101,226 226,226 3,0 5,0 8,0l0 642c0,242 198,440 441,440l1053 0c2,3 4,5 6,8 380,452 275,687 275,687 485,-543 409,-653 515,-712 22,-6 44,-15 65,-25l1 0 0 0c149,-71 253,-223 253,-398l0 -642c121,-4 218,-104 218,-226 0,-122 -97,-221 -218,-225l0 -642c0,-242 -199,-440 -441,-440l-1727 0c-243,0 -441,198 -441,440l0 642c-3,0 -5,0 -8,0zm-92 -1096c11,57 50,90 95,101 13,4 27,6 41,6 27,0 52,-7 73,-21 47,-26 78,-77 60,-150 -12,-51 -45,-81 -84,-95 -15,-5 -32,-9 -49,-9 -32,0 -61,11 -85,29 -38,28 -62,75 -51,139zm468 -262c61,0 110,49 110,110 0,60 -49,110 -110,110 -60,0 -110,-50 -110,-110 0,-61 50,-110 110,-110zm1107 83c15,0 26,12 26,27 0,14 -11,26 -26,26 -14,0 -26,-12 -26,-26 0,-15 12,-27 26,-27zm-140 -10c20,0 37,16 37,37 0,20 -17,37 -37,37 -20,0 -37,-17 -37,-37 0,-21 17,-37 37,-37zm-186 -17c30,0 54,24 54,54 0,29 -24,53 -54,53 -29,0 -53,-24 -53,-53 0,-30 24,-54 53,-54zm-204 -12c36,0 65,30 65,66 0,36 -29,65 -65,65 -36,0 -65,-29 -65,-65 0,-36 29,-66 65,-66zm-258 -20c47,0 85,39 85,86 0,47 -38,85 -85,85 -47,0 -85,-38 -85,-85 0,-47 38,-86 85,-86z"/>
   <rect class="fil7" x="655" y="5809" width="2280" height="2286" rx="385" ry="72"/>
   <path class="fil2" d="M1040 5809l1510 0c212,0 385,174 385,386l0 506c-311,252 -708,402 -1140,402 -432,0 -828,-150 -1140,-402l0 -506c0,-212 173,-386 385,-386z"/>
   <g>
    <ellipse class="fil13" cx="2296" cy="6663" rx="179" ry="209"/>
    <ellipse class="fil13" cx="1295" cy="6710" rx="179" ry="209"/>
   </g>
   <g>
    <path class="fil13" d="M2655 6241c0,25 -21,46 -46,46 -18,0 -33,-10 -41,-25l0 0 0 0c-3,-4 -4,-9 -5,-15 -14,-38 -59,-136 -154,-109 -108,31 -239,85 -263,95 -1,1 -2,2 -3,2l0 0c-5,2 -9,2 -14,2 -23,0 -41,-18 -41,-40 0,-13 6,-25 16,-32 170,-199 519,-203 551,76z"/>
    <path class="fil13" d="M1473 6290c22,0 39,17 39,39 0,122 -278,0 -353,25 -114,37 -152,157 -185,157 -19,0 -34,-15 -34,-33 0,0 -42,-183 133,-241 175,-59 243,72 389,54 4,-1 7,-1 11,-1z"/>
   </g>
   <path class="fil13" d="M2092 7787c3,3 7,6 10,9l0 0 0 0c10,11 16,26 16,42 0,34 -28,62 -62,62 -7,0 -13,-1 -20,-3l0 0 0 0c-4,-2 -8,-4 -12,-6 -38,-17 -159,-63 -257,-43 -119,25 -220,45 -220,45 -4,1 -8,1 -12,1 -34,0 -62,-27 -62,-62 0,-20 10,-38 25,-49 0,0 143,-124 310,-117 138,6 250,92 284,121z"/>
   <g>
    <path class="fil14" d="M2295 6257c240,0 440,175 478,405l154 0c51,0 94,43 94,94l0 0c0,52 -43,94 -94,94l-159 0c-49,216 -243,377 -473,377 -269,0 -486,-217 -486,-485 0,-268 217,-485 486,-485zm626 427c39,0 72,32 72,72 0,40 -33,72 -72,72 -40,0 -73,-32 -73,-72 0,-40 33,-72 73,-72zm-626 -378c240,0 435,196 435,436 0,241 -195,436 -435,436 -241,0 -436,-195 -436,-436 0,-240 195,-436 436,-436z"/>
    <path class="fil15 str0" d="M2295 6306c240,0 435,196 435,436 0,241 -195,436 -435,436 -241,0 -436,-195 -436,-436 0,-240 195,-436 436,-436z"/>
    <path class="fil12" d="M2295 6367c207,0 375,168 375,375 0,20 -2,40 -5,59l0 -3c0,-203 -165,-368 -368,-368 -204,0 -369,165 -369,368 0,11 0,21 1,31 -6,-28 -10,-57 -10,-87 0,-207 168,-375 376,-375z"/>
    <path class="fil14" d="M2929 6892c44,0 79,35 79,79 0,43 -35,78 -79,78 -43,0 -78,-35 -78,-78 0,-44 35,-79 78,-79zm0 24c30,0 55,25 55,55 0,30 -25,54 -55,54 -30,0 -54,-24 -54,-54 0,-30 24,-55 54,-55z"/>
    <path class="fil14" d="M2929 7081c44,0 79,35 79,79 0,43 -35,78 -79,78 -43,0 -78,-35 -78,-78 0,-44 35,-79 78,-79zm0 24c30,0 55,25 55,55 0,30 -25,54 -55,54 -30,0 -54,-24 -54,-54 0,-30 24,-55 54,-55z"/>
    <path class="fil14" d="M2929 7270c44,0 79,35 79,79 0,43 -35,78 -79,78 -43,0 -78,-35 -78,-78 0,-44 35,-79 78,-79zm0 24c30,0 55,25 55,55 0,30 -25,54 -55,54 -30,0 -54,-24 -54,-54 0,-30 24,-55 54,-55z"/>
    <path class="fil14" d="M2929 7459c44,0 79,35 79,79 0,43 -35,78 -79,78 -43,0 -78,-35 -78,-78 0,-44 35,-79 78,-79zm0 24c30,0 55,25 55,55 0,30 -25,54 -55,54 -30,0 -54,-24 -54,-54 0,-30 24,-55 54,-55z"/>
    <path class="fil14" d="M2929 7648c44,0 79,35 79,79 0,43 -35,78 -79,78 -43,0 -78,-35 -78,-78 0,-44 35,-79 78,-79zm0 24c30,0 55,25 55,55 0,30 -25,54 -55,54 -30,0 -54,-24 -54,-54 0,-30 24,-55 54,-55z"/>
    <path class="fil14" d="M2929 7837c44,0 79,35 79,79 0,43 -35,78 -79,78 -43,0 -78,-35 -78,-78 0,-44 35,-79 78,-79zm0 24c30,0 55,25 55,55 0,30 -25,54 -55,54 -30,0 -54,-24 -54,-54 0,-30 24,-55 54,-55z"/>
    <path class="fil14" d="M2929 8026c44,0 79,35 79,79 0,43 -35,79 -79,79 -43,0 -78,-36 -78,-79 0,-44 35,-79 78,-79zm0 24c30,0 55,25 55,55 0,30 -25,54 -55,54 -30,0 -54,-24 -54,-54 0,-30 24,-55 54,-55z"/>
    <rect class="fil14" x="2910" y="6809" width="38.546" height="130.191" rx="19" ry="15"/>
    <rect class="fil14" x="2910" y="6996" width="38.546" height="130.191" rx="19" ry="15"/>
    <rect class="fil14" x="2910" y="7186" width="38.546" height="130.191" rx="19" ry="15"/>
    <rect class="fil14" x="2910" y="7378" width="38.546" height="130.191" rx="19" ry="15"/>
    <rect class="fil14" x="2910" y="7569" width="38.546" height="130.191" rx="19" ry="15"/>
    <rect class="fil14" x="2910" y="7757" width="38.546" height="130.191" rx="19" ry="15"/>
    <rect class="fil14" x="2910" y="7944" width="38.546" height="130.191" rx="19" ry="15"/>
   </g>
  </g>
  <g id="_1488302759712">
   <path class="fil0" d="M9999 5746l0 74c2,4 5,8 7,12 4,17 12,33 22,48 5,9 13,19 26,30l0 0 0 0c28,25 64,41 105,42l0 0 1 0 1 0c85,2 166,-60 168,-159 2,-94 -63,-153 -136,-166l-4 -1 0 0 -2 0 -5 -1 0 0c-2,0 -4,0 -6,0l-2 0 -3 -1c-45,-2 -91,14 -125,50 -13,13 -23,29 -31,46l-12 20c-1,-1 -3,4 -4,6zm339 810c-125,0 -226,101 -226,226 0,125 101,226 226,226 2,0 5,0 8,-1l0 642c0,243 198,441 440,441l1054 0c2,3 4,5 6,8 380,452 275,687 275,687 485,-544 408,-654 515,-712 22,-7 44,-15 65,-25l0 0 0 0c150,-71 253,-223 253,-399l0 -642c121,-4 218,-103 218,-225 0,-122 -97,-221 -218,-226l0 -641c0,-242 -198,-441 -440,-441l-1728 0c-242,0 -440,199 -440,441l0 641c-3,0 -6,0 -8,0zm-92 -1095c11,57 50,90 95,101 13,4 27,6 41,6 26,0 52,-8 73,-21 47,-26 78,-77 60,-150 -12,-51 -45,-82 -84,-95 -16,-6 -32,-9 -49,-9 -32,0 -62,11 -85,29 -38,27 -63,75 -51,139zm468 -263c61,0 110,50 110,110 0,61 -49,110 -110,110 -61,0 -110,-49 -110,-110 0,-60 49,-110 110,-110zm1107 84c14,0 26,12 26,26 0,15 -12,26 -26,26 -15,0 -26,-11 -26,-26 0,-14 11,-26 26,-26zm-140 -11c20,0 37,17 37,37 0,21 -17,37 -37,37 -21,0 -37,-16 -37,-37 0,-20 16,-37 37,-37zm-186 -16c30,0 54,24 54,53 0,30 -24,54 -54,54 -29,0 -53,-24 -53,-54 0,-29 24,-53 53,-53zm-204 -12c36,0 65,29 65,65 0,36 -29,66 -65,66 -36,0 -66,-30 -66,-66 0,-36 30,-65 66,-65zm-258 -20c47,0 85,38 85,85 0,47 -38,86 -85,86 -47,0 -85,-39 -85,-86 0,-47 38,-85 85,-85z"/>
   <rect class="fil7" x="10510" y="5639" width="2280" height="2286" rx="385" ry="72"/>
   <path class="fil2" d="M10895 5639l1510 0c212,0 385,173 385,385l0 507c-312,251 -708,402 -1140,402 -432,0 -828,-151 -1140,-402l0 -507c0,-212 173,-385 385,-385z"/>
   <path class="fil6" d="M11196 7298c401,189 507,189 908,0 -118,366 -801,332 -908,0z"/>
   <g>
    <path class="fil6" d="M11423 6461c3,3 4,7 4,12 0,11 -9,20 -20,20 -6,0 -12,-3 -16,-8 -198,-165 -280,-87 -447,76 -7,10 -18,16 -31,16 -20,0 -36,-16 -36,-36 0,-5 1,-10 3,-15l0 0c1,-2 2,-4 3,-6 124,-216 376,-277 540,-59z"/>
    <path class="fil6" d="M11877 6461c-3,3 -4,7 -4,12 0,11 9,20 20,20 6,0 12,-3 16,-8 198,-165 280,-87 447,76 7,10 18,16 31,16 20,0 36,-16 36,-36 0,-5 -1,-10 -3,-15l0 0c-1,-2 -2,-4 -3,-6 -124,-216 -376,-277 -540,-59z"/>
   </g>
   <path class="fil16" d="M10407 6602c44,-66 88,-99 176,-99 97,0 176,59 176,132 0,132 -176,264 -352,396 -177,-132 -353,-264 -353,-396 0,-73 79,-132 176,-132 88,0 132,33 177,99z"/>
   <path class="fil16" d="M12377 7785c63,-104 126,-156 253,-156 140,0 254,93 254,209 0,208 -254,416 -507,625 -254,-209 -507,-417 -507,-625 0,-116 113,-209 253,-209 127,0 190,52 254,156z"/>
   <path class="fil16" d="M12603 5724c45,-75 91,-113 181,-113 100,0 182,68 182,151 0,151 -182,303 -363,454 -182,-151 -363,-303 -363,-454 0,-83 81,-151 181,-151 91,0 136,38 182,113z"/>
  </g>
  <g id="_1488302763104">
   <path class="fil0" d="M15243 7091c-91,-33 -155,-120 -155,-221 0,-112 77,-205 180,-230 136,-587 661,-1024 1289,-1024 628,0 1153,436 1289,1022 109,21 191,117 191,232 0,105 -69,195 -165,225 -28,241 -121,461 -261,645l0 0c0,0 130,37 -9,955 0,0 -76,-371 -672,-485l0 0c-118,34 -243,53 -373,53 -679,0 -1239,-512 -1314,-1172z"/>
   <circle class="fil1" cx="16557" cy="6939" r="1177"/>
   <path class="fil2" d="M16557 5762c506,0 937,319 1104,767 -292,331 -679,532 -1104,532 -424,0 -811,-201 -1103,-532 167,-448 598,-767 1103,-767z"/>
   <path class="fil0" d="M15446 5662c95,0 172,78 172,173 0,95 -77,172 -172,172 -95,0 -172,-77 -172,-172 0,-95 77,-173 172,-173zm1650 -211c13,0 24,11 24,24 0,13 -11,23 -24,23 -13,0 -23,-10 -23,-23 0,-13 10,-24 23,-24zm-133 -61c19,0 35,16 35,35 0,19 -16,34 -35,34 -19,0 -34,-15 -34,-34 0,-19 15,-35 34,-35zm-166 -54c28,0 51,22 51,50 0,29 -23,51 -51,51 -28,0 -51,-22 -51,-51 0,-28 23,-50 51,-50zm-191 -41c40,0 73,33 73,73 0,41 -33,73 -73,73 -41,0 -73,-32 -73,-73 0,-40 32,-73 73,-73zm-246 -7c52,0 94,43 94,95 0,52 -42,95 -94,95 -53,0 -95,-43 -95,-95 0,-52 42,-95 95,-95zm-295 32c70,0 127,57 127,126 0,70 -57,127 -127,127 -69,0 -126,-57 -126,-127 0,-69 57,-126 126,-126zm-297 116c81,0 146,66 146,147 0,80 -65,146 -146,146 -81,0 -147,-66 -147,-146 0,-81 66,-147 147,-147z"/>
   <g>
    <path class="fil6" d="M16103 7295c401,190 508,190 909,0 -118,366 -801,333 -909,0z"/>
    <g>
     <path class="fil6" d="M16331 6458c2,3 4,7 4,12 0,11 -9,20 -20,20 -7,0 -13,-3 -16,-8 -199,-164 -280,-87 -448,77 -6,9 -18,16 -30,16 -20,0 -37,-17 -37,-37 0,-5 2,-10 4,-15l0 0c0,-2 2,-4 3,-5 124,-217 376,-278 540,-60z"/>
     <path class="fil6" d="M16784 6458c-2,3 -4,7 -4,12 0,11 9,20 20,20 7,0 13,-3 16,-8 199,-164 280,-87 448,77 6,9 17,16 30,16 20,0 37,-17 37,-37 0,-5 -2,-10 -4,-15l0 0c0,-2 -2,-4 -3,-5 -124,-217 -376,-278 -540,-60z"/>
    </g>
   </g>
   <path class="fil16" d="M17866 6602c-44,-66 -88,-99 -176,-99 -98,0 -177,59 -177,132 0,132 177,264 353,396 176,-132 353,-264 353,-396 0,-73 -79,-132 -177,-132 -88,0 -132,33 -176,99z"/>
   <path class="fil16" d="M15896 7785c-63,-104 -127,-156 -254,-156 -140,0 -253,93 -253,209 0,208 253,416 507,625 253,-209 507,-417 507,-625 0,-116 -114,-209 -254,-209 -126,0 -190,52 -253,156z"/>
   <path class="fil16" d="M15670 5724c-46,-75 -91,-113 -182,-113 -100,0 -181,68 -181,151 0,151 181,303 363,454 181,-151 363,-303 363,-454 0,-83 -82,-151 -182,-151 -90,0 -136,38 -181,113z"/>
  </g>
  <g id="_1488302766304">
   <path class="fil0" d="M19972 5767l0 74c3,4 5,8 7,12 5,17 12,33 22,48 5,9 13,19 26,30l0 0 0 0c28,25 65,41 105,42l0 0 1 0 1 0c85,3 166,-60 168,-159 3,-94 -62,-153 -136,-166l-4 -1 0 0 -2 0 -5 -1 0 0c-2,0 -4,0 -6,0l-2 0 -3 -1c-45,-2 -91,14 -125,50 -13,14 -23,29 -31,46l-12 20c-1,-1 -2,4 -4,6zm339 810c-125,0 -226,101 -226,226 0,125 101,226 226,226 3,0 5,0 8,-1l0 642c0,243 198,441 441,441l1053 0c2,3 4,5 6,8 380,452 275,687 275,687 485,-544 409,-654 515,-712 22,-7 44,-15 66,-25l0 0 0 0c149,-71 253,-223 253,-399l0 -642c121,-4 218,-103 218,-225 0,-122 -97,-221 -218,-225l0 -642c0,-242 -199,-441 -441,-441l-1727 0c-243,0 -441,199 -441,441l0 642c-3,-1 -5,-1 -8,-1zm-92 -1095c11,57 50,90 95,101 13,4 27,6 41,6 27,0 52,-8 73,-21 47,-26 78,-77 60,-150 -12,-51 -45,-82 -84,-95 -15,-6 -32,-9 -49,-9 -32,0 -61,11 -85,29 -38,28 -62,75 -51,139zm468 -263c61,0 110,50 110,110 0,61 -49,110 -110,110 -60,0 -110,-49 -110,-110 0,-60 50,-110 110,-110zm1107 84c15,0 26,12 26,26 0,15 -11,26 -26,26 -14,0 -26,-11 -26,-26 0,-14 12,-26 26,-26zm-140 -11c20,0 37,17 37,37 0,21 -17,37 -37,37 -20,0 -37,-16 -37,-37 0,-20 17,-37 37,-37zm-186 -16c30,0 54,24 54,53 0,30 -24,54 -54,54 -29,0 -53,-24 -53,-54 0,-29 24,-53 53,-53zm-204 -12c36,0 65,29 65,65 0,36 -29,66 -65,66 -36,0 -65,-30 -65,-66 0,-36 29,-65 65,-65zm-258 -20c47,0 85,38 85,85 0,47 -38,86 -85,86 -47,0 -85,-39 -85,-86 0,-47 38,-85 85,-85z"/>
   <rect class="fil7" x="20483" y="5660" width="2280" height="2286" rx="385" ry="72"/>
   <path class="fil2" d="M20868 5660l1510 0c212,0 385,173 385,385l0 507c-311,251 -708,402 -1140,402 -432,0 -828,-151 -1140,-402l0 -507c0,-212 173,-385 385,-385z"/>
   <g>
    <g>
     <path class="fil14" d="M21301 5990c29,0 53,23 53,53 0,7 -2,15 -5,21l0 0c-13,65 -74,190 -284,159 -210,-30 -304,110 -304,110 0,0 0,0 57,-116 58,-117 231,-99 320,-104 68,-5 100,-58 111,-83 6,-23 27,-40 52,-40z"/>
     <path class="fil14" d="M21946 5990c-30,0 -53,23 -53,53 0,7 1,15 4,21l0 0c14,65 75,190 285,159 210,-30 304,110 304,110 0,0 0,0 -58,-116 -58,-117 -230,-99 -320,-104 -68,-5 -99,-58 -111,-83 -5,-23 -26,-40 -51,-40z"/>
    </g>
    <g>
     <path class="fil14" d="M21856 6609c103,-294 496,-266 621,15 -214,-212 -472,-150 -621,-15z"/>
     <path class="fil14" d="M21391 6609c-104,-294 -496,-266 -622,15 215,-212 473,-150 622,-15z"/>
    </g>
   </g>
   <g>
    <ellipse class="fil17" cx="21623" cy="7462" rx="367" ry="403"/>
    <path class="fil14" d="M21623 7059c203,0 368,181 368,403 0,11 -1,22 -2,33 -15,-207 -173,-371 -366,-371 -193,0 -351,164 -366,371 -1,-11 -1,-22 -1,-33 0,-222 164,-403 367,-403z"/>
   </g>
   <g>
    <path class="fil18" d="M21261 7677c11,-81 198,-177 331,-162 132,15 88,-77 88,-77 0,0 -22,-81 -250,-66 -227,15 -367,209 -367,209 0,0 -67,-147 190,-242 258,-95 217,-173 170,-235 -47,-62 -268,26 -353,88 -84,62 -279,283 -455,521 -176,239 -92,404 -92,404 0,0 125,279 331,250 205,-30 253,-41 253,-41l279 -235c0,0 50,-70 107,-69 10,0 216,43 159,-102 -15,-39 -73,-58 -137,-53 -133,11 -184,37 -184,37 142,-168 174,-109 266,-119 88,-9 172,-48 77,-130 -25,-23 -60,-36 -108,-30 -114,15 -305,52 -305,52z"/>
    <path class="fil19" d="M21447 7162c-2,-22 -12,-42 -24,-58 -47,-62 -268,26 -353,88 -84,62 -279,283 -455,521 -62,84 -91,159 -104,220 45,27 85,39 106,17 66,-70 95,-158 95,-158 0,0 89,-231 144,-246 55,-14 139,-191 187,-194 48,-4 81,-136 150,-136 70,0 173,-23 173,-23l81 -31z"/>
    <path class="fil18" d="M20675 7630l10 -207c0,0 -22,-282 106,-209 129,74 89,170 89,170l-205 246z"/>
    <path class="fil19" d="M20680 7529l5 -106c0,0 -6,-81 8,-145 33,-10 74,-18 91,-5 30,24 30,48 -28,180 -21,48 -49,69 -76,76z"/>
    <path class="fil19" d="M21223 7792c0,0 -120,-11 -127,42 -7,54 28,76 28,76 0,0 108,16 128,-33 20,-50 -29,-85 -29,-85z"/>
    <path class="fil19" d="M21010 7699c0,0 97,76 110,27 13,-49 7,-114 7,-114 0,0 -73,-46 -90,4 -16,50 -27,83 -27,83z"/>
   </g>
  </g>
  <g id="_1490160572960">
   <path class="fil0" d="M25216 7112c-90,-33 -155,-120 -155,-221 0,-112 77,-205 180,-230 136,-587 662,-1024 1290,-1024 627,0 1152,436 1289,1022 108,21 190,117 190,232 0,105 -69,195 -165,225 -28,241 -121,461 -260,645l0 0c0,0 130,37 -10,955 0,0 -76,-371 -672,-485l0 0c-118,34 -243,53 -372,53 -680,0 -1240,-512 -1315,-1172z"/>
   <circle class="fil1" cx="26531" cy="6960" r="1177"/>
   <path class="fil2" d="M26531 5783c505,0 937,319 1103,767 -292,331 -679,532 -1103,532 -425,0 -811,-201 -1104,-532 167,-448 598,-767 1104,-767z"/>
   <path class="fil0" d="M25419 5684c95,0 173,77 173,172 0,95 -78,172 -173,172 -95,0 -172,-77 -172,-172 0,-95 77,-172 172,-172zm1650 -212c13,0 24,11 24,24 0,13 -11,23 -24,23 -13,0 -23,-10 -23,-23 0,-13 10,-24 23,-24zm-133 -61c19,0 35,16 35,35 0,19 -16,34 -35,34 -19,0 -34,-15 -34,-34 0,-19 15,-35 34,-35zm-166 -54c28,0 51,22 51,51 0,28 -23,50 -51,50 -28,0 -51,-22 -51,-50 0,-29 23,-51 51,-51zm-191 -41c40,0 73,33 73,73 0,41 -33,73 -73,73 -40,0 -73,-32 -73,-73 0,-40 33,-73 73,-73zm-246 -7c52,0 95,43 95,95 0,53 -43,95 -95,95 -52,0 -95,-42 -95,-95 0,-52 43,-95 95,-95zm-294 32c69,0 126,57 126,126 0,70 -57,127 -126,127 -70,0 -127,-57 -127,-127 0,-69 57,-126 127,-126zm-298 116c81,0 146,66 146,147 0,81 -65,146 -146,146 -81,0 -146,-65 -146,-146 0,-81 65,-147 146,-147z"/>
   <g>
    <ellipse class="fil17" cx="26531" cy="7606" rx="367" ry="403"/>
    <path class="fil14" d="M26531 7203c203,0 367,180 367,403 0,11 0,22 -1,33 -15,-208 -173,-371 -366,-371 -193,0 -351,163 -366,371 -1,-11 -2,-22 -2,-33 0,-223 165,-403 368,-403z"/>
   </g>
   <g>
    <path class="fil18" d="M26290 7851c11,-80 199,-176 331,-161 132,15 88,-77 88,-77 0,0 -22,-81 -250,-66 -227,14 -367,209 -367,209 0,0 -67,-147 190,-242 258,-95 217,-174 170,-235 -47,-62 -268,26 -352,88 -85,62 -279,283 -456,521 -176,239 -91,404 -91,404 0,0 124,279 330,250 205,-30 253,-41 253,-41l279 -235c0,0 50,-70 108,-69 9,0 215,43 158,-102 -15,-39 -73,-58 -137,-53 -132,11 -184,37 -184,37 142,-169 174,-109 266,-119 88,-9 172,-48 77,-130 -25,-23 -60,-36 -108,-30 -114,15 -305,51 -305,51z"/>
    <path class="fil19" d="M26476 7337c-2,-22 -12,-42 -24,-58 -47,-62 -268,26 -352,88 -85,62 -279,283 -456,521 -61,84 -91,158 -104,220 45,27 85,39 106,17 66,-70 96,-158 96,-158 0,0 88,-231 143,-246 55,-15 139,-191 187,-194 48,-4 81,-136 150,-136 70,0 173,-23 173,-23l81 -31z"/>
    <path class="fil18" d="M25704 7805l10 -207c0,0 -22,-282 107,-209 128,73 88,170 88,170l-205 246z"/>
    <path class="fil19" d="M25709 7704l5 -106c0,0 -6,-81 8,-145 33,-10 74,-18 91,-5 30,24 30,48 -27,180 -22,48 -50,69 -77,76z"/>
    <path class="fil19" d="M26252 7967c0,0 -119,-11 -127,42 -7,54 28,76 28,76 0,0 108,16 128,-33 20,-50 -29,-85 -29,-85z"/>
    <path class="fil19" d="M26039 7873c0,0 97,77 110,28 13,-50 7,-114 7,-114 0,0 -73,-46 -90,4 -16,49 -27,82 -27,82z"/>
   </g>
   <g>
    <g>
     <path class="fil14" d="M26208 6115c29,0 53,24 53,53 0,8 -1,15 -4,22l0 0c-14,65 -75,190 -285,159 -210,-30 -304,110 -304,110 0,0 0,0 58,-117 58,-116 230,-98 320,-104 68,-4 99,-57 111,-82 5,-24 26,-41 51,-41z"/>
     <path class="fil14" d="M26853 6115c-29,0 -53,24 -53,53 0,8 2,15 5,22l0 0c13,65 74,190 284,159 210,-30 304,110 304,110 0,0 0,0 -58,-117 -57,-116 -230,-98 -319,-104 -68,-4 -100,-57 -111,-82 -6,-24 -27,-41 -52,-41z"/>
    </g>
    <g>
     <path class="fil14" d="M26763 6734c104,-294 496,-265 621,16 -214,-213 -472,-150 -621,-16z"/>
     <path class="fil14" d="M26298 6734c-103,-294 -496,-265 -621,16 214,-213 472,-150 621,-16z"/>
    </g>
   </g>
  </g>
  <g id="_1524678072448">
   <path class="fil0" d="M25279 12584c-91,-33 -155,-120 -155,-222 0,-111 77,-204 180,-229 136,-587 662,-1024 1290,-1024 627,0 1152,436 1288,1021 109,22 191,117 191,232 0,106 -69,195 -165,225 -28,241 -121,462 -261,646l1 0c0,0 129,37 -10,955 0,0 -76,-371 -672,-486l0 0c-118,35 -243,54 -372,54 -680,0 -1240,-513 -1315,-1172z"/>
   <circle class="fil1" cx="26594" cy="12432" r="1177"/>
   <path class="fil2" d="M26594 11255c505,0 936,319 1103,766 -292,331 -679,533 -1103,533 -425,0 -812,-202 -1104,-533 167,-447 598,-766 1104,-766z"/>
   <path class="fil0" d="M25482 11155c95,0 172,77 172,172 0,95 -77,173 -172,173 -95,0 -172,-78 -172,-173 0,-95 77,-172 172,-172zm1650 -211c13,0 24,10 24,23 0,13 -11,24 -24,24 -13,0 -23,-11 -23,-24 0,-13 10,-23 23,-23zm-133 -61c19,0 35,15 35,34 0,19 -16,35 -35,35 -19,0 -34,-16 -34,-35 0,-19 15,-34 34,-34zm-166 -55c28,0 51,23 51,51 0,28 -23,51 -51,51 -28,0 -51,-23 -51,-51 0,-28 23,-51 51,-51zm-191 -40c40,0 73,32 73,73 0,40 -33,73 -73,73 -41,0 -73,-33 -73,-73 0,-41 32,-73 73,-73zm-246 -7c52,0 94,43 94,95 0,52 -42,95 -94,95 -53,0 -95,-43 -95,-95 0,-52 42,-95 95,-95zm-295 32c70,0 127,56 127,126 0,70 -57,126 -127,126 -69,0 -126,-56 -126,-126 0,-70 57,-126 126,-126zm-297 116c81,0 146,66 146,146 0,81 -65,147 -146,147 -81,0 -147,-66 -147,-147 0,-80 66,-146 147,-146z"/>
   <g>
    <g>
     <path class="fil10" d="M26164 11500c18,0 33,15 33,33 0,18 -15,33 -33,33 0,0 -129,21 -251,144 -123,122 -123,122 -123,122 0,0 22,-205 173,-271 152,-67 201,-61 201,-61z"/>
     <path class="fil10" d="M27391 11770c-48,-3 -339,-48 -423,-199 -5,-13 -17,-21 -31,-21 -19,0 -34,15 -34,34 0,10 4,19 11,25 101,151 253,246 477,161z"/>
    </g>
    <g>
     <g>
      <path class="fil20" d="M27397 12045c-34,151 -169,264 -330,264 -186,0 -337,-151 -337,-337 0,-51 -8,-123 12,-166 122,-18 602,89 655,239z"/>
      <path class="fil21" d="M27124 12304c-18,3 -37,5 -57,5 -73,0 -142,-24 -197,-64 -6,-16 -9,-33 -9,-50 0,-85 69,-154 155,-154 85,0 154,69 154,154 0,43 -18,81 -46,109z"/>
      <circle class="fil22" cx="27003" cy="12220" r="74"/>
     </g>
     <path class="fil20" d="M25795 12000c33,151 168,264 329,264 187,0 338,-151 338,-338 0,-50 7,-122 -13,-165 -121,-18 -601,89 -654,239z"/>
     <path class="fil21" d="M26279 11774c-78,13 -168,36 -249,66 -5,15 -8,31 -8,48 0,86 69,155 154,155 85,0 154,-69 154,-155 0,-45 -20,-86 -51,-114z"/>
     <circle class="fil22" cx="26188" cy="11869" r="74"/>
    </g>
   </g>
   <g>
    <path class="fil6" d="M25987 12873c15,0 29,8 37,20 21,27 150,183 371,149 141,-22 308,-67 443,-3 128,60 337,63 407,-78 -44,206 -214,234 -388,186 -111,-31 -194,-83 -365,-41 -197,47 -410,29 -535,-155 -9,-8 -15,-20 -15,-34 0,-24 20,-44 45,-44z"/>
    <path class="fil23" d="M26194 13042c-131,204 35,410 204,421 127,8 291,-81 275,-435 -94,0 -191,22 -278,35 -79,13 -146,1 -201,-21z"/>
    <path class="fil24" style="mask:url(#id8)" d="M26412 13238c27,-28 42,-144 48,-186 58,-10 118,-20 177,-23 -26,612 -551,355 -397,28 45,11 97,15 155,6 6,0 12,-1 17,-2 -4,46 -13,135 0,177z"/>
   </g>
  </g>
  <g id="_1524678077856">
   <path class="fil0" d="M20035 11239l0 74c2,4 5,8 7,11 4,18 12,34 22,48 5,10 13,19 26,31l0 0 0 0c28,25 64,41 105,42l0 0 1 0 1 0c85,2 166,-61 168,-159 3,-94 -63,-154 -136,-166l-4 -1 0 0 -2 0 -5 -1 0 0c-2,0 -4,0 -6,-1l-2 0 -3 0c-45,-2 -91,14 -125,50 -13,13 -23,29 -31,46l-12 20c-1,-2 -3,4 -4,6zm339 810c-125,0 -226,101 -226,226 0,124 101,225 226,225 2,0 5,0 8,0l0 642c0,242 198,441 440,441l1054 0c2,2 4,5 6,7 380,453 275,688 275,688 485,-544 408,-654 515,-712 22,-7 44,-15 65,-25l1 0 -1 0c150,-71 254,-224 254,-399l0 -642c121,-4 217,-103 217,-225 0,-122 -96,-222 -217,-226l0 -641c0,-243 -199,-441 -441,-441l-1728 0c-242,0 -440,198 -440,441l0 641c-3,0 -6,0 -8,0zm-92 -1095c11,57 50,90 95,101 13,4 27,6 41,6 27,0 52,-8 73,-21 47,-26 78,-78 60,-151 -12,-50 -45,-81 -84,-94 -15,-6 -32,-9 -49,-9 -32,0 -61,11 -85,29 -38,27 -63,75 -51,139zm468 -263c61,0 110,49 110,110 0,61 -49,110 -110,110 -61,0 -110,-49 -110,-110 0,-61 49,-110 110,-110zm1107 84c14,0 26,12 26,26 0,14 -12,26 -26,26 -15,0 -26,-12 -26,-26 0,-14 11,-26 26,-26zm-140 -11c20,0 37,17 37,37 0,20 -17,37 -37,37 -21,0 -37,-17 -37,-37 0,-20 16,-37 37,-37zm-186 -17c30,0 54,24 54,54 0,30 -24,53 -54,53 -29,0 -53,-23 -53,-53 0,-30 24,-54 53,-54zm-204 -11c36,0 65,29 65,65 0,36 -29,65 -65,65 -36,0 -65,-29 -65,-65 0,-36 29,-65 65,-65zm-258 -20c47,0 85,38 85,85 0,47 -38,85 -85,85 -47,0 -85,-38 -85,-85 0,-47 38,-85 85,-85z"/>
   <rect class="fil7" x="20546" y="11132" width="2280" height="2286" rx="385" ry="72"/>
   <path class="fil2" d="M20931 11132l1510 0c212,0 385,173 385,385l0 507c-312,251 -708,402 -1140,402 -432,0 -828,-151 -1140,-402l0 -507c0,-212 173,-385 385,-385z"/>
   <g>
    <g>
     <path class="fil10" d="M21256 11374c19,0 33,15 33,33 0,19 -14,34 -33,34 0,0 -129,21 -251,143 -122,122 -122,122 -122,122 0,0 21,-204 173,-271 151,-66 200,-61 200,-61z"/>
     <path class="fil10" d="M22483 11644c-48,-3 -338,-48 -422,-199 -5,-12 -18,-21 -32,-21 -19,0 -34,16 -34,34 0,10 4,19 11,26 101,150 254,245 477,160z"/>
    </g>
    <g>
     <g>
      <path class="fil20" d="M22489 11920c-33,151 -168,263 -329,263 -187,0 -338,-151 -338,-337 0,-50 -7,-122 13,-165 121,-19 601,88 654,239z"/>
      <path class="fil21" d="M22216 12179c-18,3 -37,4 -56,4 -74,0 -142,-23 -198,-63 -5,-16 -8,-33 -8,-51 0,-85 69,-154 154,-154 85,0 154,69 154,154 0,43 -17,82 -46,110z"/>
      <circle class="fil22" cx="22095" cy="12094" r="74"/>
     </g>
     <path class="fil20" d="M20887 11875c34,150 169,263 330,263 186,0 337,-151 337,-337 0,-51 8,-122 -12,-165 -121,-19 -602,88 -655,239z"/>
     <path class="fil21" d="M21371 11648c-77,14 -167,36 -249,66 -5,15 -8,32 -8,49 0,85 69,154 154,154 86,0 155,-69 155,-154 0,-46 -20,-87 -52,-115z"/>
     <circle class="fil22" cx="21281" cy="11743" r="74"/>
    </g>
   </g>
   <g>
    <path class="fil6" d="M21079 12772c16,0 30,8 38,21 20,27 149,182 371,148 141,-22 307,-66 443,-3 127,60 336,63 407,-78 -44,206 -214,235 -388,186 -112,-31 -194,-83 -366,-41 -197,48 -410,29 -534,-155 -10,-8 -16,-20 -16,-33 0,-25 20,-45 45,-45z"/>
    <path class="fil23" d="M21287 12941c-131,205 34,410 203,421 127,8 292,-81 275,-435 -93,0 -190,22 -277,36 -79,12 -147,0 -201,-22z"/>
    <path class="fil24" style="mask:url(#id10)" d="M21505 13137c26,-27 41,-144 48,-185 57,-10 117,-21 176,-24 -26,612 -550,355 -396,28 45,12 96,16 155,7 5,-1 11,-2 17,-3 -5,46 -14,136 0,177z"/>
   </g>
  </g>
  <g id="_1524678083296">
   <path class="fil0" d="M9915 11258l0 74c3,5 5,8 7,12 5,17 12,34 22,48 5,10 13,19 26,30l0 1 0 0c28,25 65,41 105,42l0 0 1 0 1 0c85,2 166,-61 168,-160 3,-94 -62,-153 -136,-166l-4 0 0 0 -2 -1 -5 0 0 0c-2,0 -4,-1 -6,-1l-2 0 -3 0c-45,-2 -91,14 -125,50 -12,13 -23,28 -31,45l-12 20c-1,-1 -2,5 -4,6zm339 811c-125,0 -226,101 -226,225 0,125 101,226 226,226 3,0 5,0 8,0l0 642c0,242 198,441 441,441l1053 0c2,2 4,5 6,7 380,453 275,688 275,688 485,-544 409,-654 515,-713 23,-6 44,-15 66,-25l0 0 0 0c149,-70 253,-223 253,-398l0 -642c121,-4 218,-104 218,-226 0,-122 -97,-221 -218,-225l0 -641c0,-243 -199,-441 -441,-441l-1727 0c-243,0 -441,198 -441,441l0 641c-3,0 -5,0 -8,0zm-92 -1095c11,57 50,89 95,101 13,3 27,6 41,6 27,0 52,-8 73,-21 47,-26 78,-78 60,-151 -12,-51 -45,-81 -84,-94 -15,-6 -32,-9 -49,-9 -32,0 -61,10 -85,29 -38,27 -62,74 -51,139zm468 -263c61,0 110,49 110,110 0,60 -49,110 -110,110 -60,0 -110,-50 -110,-110 0,-61 50,-110 110,-110zm1107 84c15,0 26,11 26,26 0,14 -11,26 -26,26 -14,0 -26,-12 -26,-26 0,-15 12,-26 26,-26zm-140 -11c20,0 37,16 37,37 0,20 -17,37 -37,37 -20,0 -37,-17 -37,-37 0,-21 17,-37 37,-37zm-186 -17c30,0 54,24 54,54 0,29 -24,53 -54,53 -29,0 -53,-24 -53,-53 0,-30 24,-54 53,-54zm-204 -12c36,0 65,30 65,66 0,36 -29,65 -65,65 -36,0 -65,-29 -65,-65 0,-36 29,-66 65,-66zm-258 -20c47,0 85,39 85,86 0,47 -38,85 -85,85 -47,0 -85,-38 -85,-85 0,-47 38,-86 85,-86z"/>
   <rect class="fil25" x="10426" y="11151" width="2280" height="2286" rx="385" ry="72"/>
   <path class="fil26" d="M10811 11151l1510 0c212,0 385,174 385,386l0 506c-311,252 -708,403 -1140,403 -432,0 -828,-151 -1140,-403l0 -506c0,-212 173,-386 385,-386z"/>
   <g>
    <g>
     <path class="fil27" d="M11080 11840c102,0 185,104 185,232 0,129 -88,185 -190,185 -102,0 -180,-56 -180,-185 0,-128 83,-232 185,-232z"/>
     <path class="fil12" style="mask:url(#id12)" d="M11044 11919c37,0 68,31 68,68 0,38 -31,69 -68,69 -38,0 -68,-31 -68,-69 0,-37 30,-68 68,-68z"/>
    </g>
    <g>
     <path class="fil27" d="M12053 11840c102,0 185,104 185,232 0,129 -88,185 -190,185 -103,0 -180,-56 -180,-185 0,-128 82,-232 185,-232z"/>
     <path class="fil12" style="mask:url(#id14)" d="M12016 11919c38,0 69,31 69,68 0,38 -31,69 -69,69 -37,0 -68,-31 -68,-69 0,-37 31,-68 68,-68z"/>
    </g>
   </g>
   <g>
    <path class="fil14" d="M11252 11412c40,0 73,33 73,73 0,13 -3,25 -9,36l0 0c-7,11 -16,20 -26,27 -164,149 -649,331 -649,195 0,-49 42,-54 225,-106 183,-52 332,-201 332,-201l0 0c13,-15 32,-24 54,-24z"/>
    <path class="fil14" d="M11881 11412c-41,0 -73,33 -73,73 0,13 3,25 9,36l0 0c6,11 15,20 26,27 163,149 649,331 649,195 0,-49 -42,-54 -225,-106 -184,-52 -332,-201 -332,-201l0 0c-13,-15 -33,-24 -54,-24z"/>
   </g>
   <g>
    <path class="fil28" d="M10482 12416c63,264 253,397 253,529 0,132 -64,264 -253,264 -189,0 -252,-132 -252,-264 0,-132 189,-265 252,-529z"/>
    <path class="fil29" d="M10476 12538c22,109 90,164 90,218 0,54 -22,109 -90,109 -68,0 -91,-55 -91,-109 0,-54 68,-109 91,-218z"/>
   </g>
   <g>
    <path class="fil28" d="M12604 11202c63,264 252,396 252,529 0,132 -63,264 -252,264 -189,0 -252,-132 -252,-264 0,-133 189,-265 252,-529z"/>
    <path class="fil29" d="M12597 11324c23,109 91,163 91,218 0,54 -23,109 -91,109 -68,0 -91,-55 -91,-109 0,-55 68,-109 91,-218z"/>
   </g>
   <g>
    <path class="fil30" d="M11564 12756c235,0 420,125 487,284 75,177 -275,123 -463,123 -189,0 -574,61 -510,-126 56,-162 253,-281 486,-281z"/>
    <g>
     <path class="fil31" d="M11926 13050c10,66 15,139 13,211 6,207 -34,394 -267,444 -32,8 -66,12 -104,12l-2 0 -1 0c-38,0 -73,-4 -104,-12 -233,-50 -274,-237 -267,-444 -3,-72 3,-145 12,-211l5 -4c2,-18 4,-36 6,-53 0,0 153,-84 349,-78 196,-6 350,78 350,78 2,17 4,35 5,53l5 4z"/>
     <path class="fil12" style="mask:url(#id16)" d="M11852 13416c0,92 -128,168 -286,168 -158,0 -286,-76 -286,-168 0,0 -26,-296 125,-354l1 0 1 0 1 -1 1 0 2 -1 1 0 1 0 1 -1 2 0 1 -1 1 0 1 -1 1 0 1 0 1 0 1 -1 2 0 3 -1 2 0 1 -1 3 0 1 -1 1 0 1 0 1 0 1 -1 1 0 1 0 1 0 3 -1 1 0 1 0 2 0 1 0 2 -1 2 0 0 0 3 0 1 0 1 0 1 0 1 0 1 0 1 0 1 0 1 0 1 0c14,-3 25,1 33,8l2 1 2 1 2 2 2 1 2 2 2 1 1 2 2 1c1,2 2,3 3,4 1,1 2,2 3,4 1,2 2,3 4,5l1 2c0,2 1,3 2,5l1 2 0 2c2,3 3,5 3,8l1 2c0,2 1,3 1,5l1 2c0,3 1,6 1,8 0,2 1,5 1,7l0 2c0,2 0,4 1,5l0 4c0,3 0,5 0,7l0 2 0 1 0 3 0 1 0 4 -1 3 0 0 0 1 0 1 0 0 0 0 0 1 0 0 0 0c0,0 -11,46 30,50 42,-4 31,-50 31,-50l0 0 0 0 -1 -1 0 0 0 0 0 -1 0 -1 0 0 0 -3 0 -4 0 -1 0 -3 0 -1 0 -2c0,-2 0,-4 0,-7l0 -4c0,-1 0,-3 0,-5l1 -2c0,-2 0,-5 0,-7 1,-2 1,-5 2,-8l0 -2 2 -5 0 -2c1,-3 2,-5 3,-8l1 -2 1 -2c1,-2 1,-3 2,-5l1 -2c1,-2 2,-3 4,-5 1,-2 1,-3 2,-4 1,-1 2,-2 3,-4l2 -1 2 -2 2 -1 1 -2 2 -1 2 -2 2 -1 3 -1c7,-7 18,-11 33,-8l1 0 0 0 1 0 2 0 1 0 0 0 1 0 2 0 1 0 2 0 1 0 2 0 1 1 1 0 3 0 1 0 1 0 2 1 1 0 1 0 1 0 1 1 1 0 1 0 2 0 1 1 3 0 1 1 2 0 3 1 1 0 1 1 1 0 1 0 1 0 1 1 1 0 2 1 2 0 1 1 1 0 1 0 1 1 1 0 1 1 2 0 1 0c151,58 124,354 124,354z"/>
    </g>
   </g>
  </g>
  <g id="_1524678089472">
   <path class="fil0" d="M15159 12604c-90,-33 -155,-120 -155,-222 0,-111 77,-204 180,-229 136,-587 662,-1025 1290,-1025 627,0 1152,437 1289,1022 108,21 190,117 190,232 0,106 -69,195 -165,225 -28,241 -121,462 -260,645l0 0c0,0 130,38 -10,956 0,0 -76,-371 -672,-486l0 0c-118,35 -243,53 -372,53 -680,0 -1240,-512 -1315,-1171z"/>
   <circle class="fil32" cx="16474" cy="12452" r="1177"/>
   <path class="fil26" d="M16474 11275c505,0 937,319 1103,766 -292,331 -679,533 -1103,533 -425,0 -811,-202 -1104,-533 167,-447 598,-766 1104,-766z"/>
   <path class="fil0" d="M15362 11175c95,0 173,77 173,172 0,95 -78,172 -173,172 -95,0 -172,-77 -172,-172 0,-95 77,-172 172,-172zm1650 -211c13,0 24,10 24,23 0,13 -11,24 -24,24 -12,0 -23,-11 -23,-24 0,-13 11,-23 23,-23zm-133 -61c19,0 35,15 35,34 0,19 -16,35 -35,35 -19,0 -34,-16 -34,-35 0,-19 15,-34 34,-34zm-166 -55c28,0 51,23 51,51 0,28 -23,51 -51,51 -28,0 -51,-23 -51,-51 0,-28 23,-51 51,-51zm-191 -40c40,0 73,32 73,73 0,40 -33,73 -73,73 -40,0 -73,-33 -73,-73 0,-41 33,-73 73,-73zm-246 -7c52,0 95,42 95,95 0,52 -43,94 -95,94 -52,0 -95,-42 -95,-94 0,-53 43,-95 95,-95zm-294 31c69,0 126,57 126,127 0,70 -57,126 -126,126 -70,0 -127,-56 -127,-126 0,-70 57,-127 127,-127zm-298 117c81,0 146,65 146,146 0,81 -65,146 -146,146 -81,0 -146,-65 -146,-146 0,-81 65,-146 146,-146z"/>
   <g>
    <g>
     <g>
      <path class="fil27" d="M15987 11930c103,0 185,104 185,232 0,128 -87,185 -190,185 -102,0 -180,-57 -180,-185 0,-128 83,-232 185,-232z"/>
      <path class="fil12" style="mask:url(#id18)" d="M15951 12009c38,0 68,30 68,68 0,38 -30,68 -68,68 -37,0 -68,-30 -68,-68 0,-38 31,-68 68,-68z"/>
     </g>
     <g>
      <path class="fil27" d="M16960 11930c102,0 185,104 185,232 0,128 -88,185 -190,185 -102,0 -180,-57 -180,-185 0,-128 83,-232 185,-232z"/>
      <path class="fil12" style="mask:url(#id20)" d="M16924 12009c38,0 68,30 68,68 0,38 -30,68 -68,68 -38,0 -68,-30 -68,-68 0,-38 30,-68 68,-68z"/>
     </g>
    </g>
    <g>
     <path class="fil14" d="M16159 11501c41,0 73,33 73,73 0,14 -3,26 -9,36l0 0c-6,11 -15,21 -26,27 -163,150 -649,332 -649,196 0,-49 42,-54 225,-106 184,-52 332,-202 332,-202l0 0c13,-14 33,-24 54,-24z"/>
     <path class="fil14" d="M16788 11501c-40,0 -73,33 -73,73 0,14 3,26 9,36l0 0c7,11 16,21 26,27 164,150 649,332 649,196 0,-49 -42,-54 -225,-106 -183,-52 -332,-202 -332,-202l0 0c-13,-14 -32,-24 -54,-24z"/>
    </g>
   </g>
   <g>
    <path class="fil33" d="M16472 12937c234,0 420,125 487,284 74,177 -276,123 -464,123 -188,0 -574,61 -509,-126 55,-162 253,-281 486,-281z"/>
    <g>
     <path class="fil31" d="M16834 13231c9,66 15,139 12,211 7,207 -34,394 -267,444 -31,8 -66,12 -104,12l-1 0 -2 0c-38,0 -72,-4 -104,-12 -233,-50 -273,-237 -267,-444 -2,-72 3,-145 13,-211l5 -4c1,-18 3,-36 5,-53 0,0 154,-84 350,-78 196,-6 349,78 349,78 2,17 4,35 6,53l5 4z"/>
     <path class="fil12" style="mask:url(#id22)" d="M16760 13597c0,92 -128,168 -286,168 -158,0 -286,-76 -286,-168 0,0 -27,-296 124,-354l2 0 1 0 1 -1 1 0 1 -1 1 0 1 0 1 -1 3 -1 1 0 1 0 1 -1 1 0 1 0 1 -1 1 0 1 0 3 -1 2 0 1 -1 3 0 1 -1 2 0 1 0 1 0 1 -1 1 0 1 0 1 0 2 -1 1 0 1 0 3 0 1 0 1 -1 2 0 1 0 2 0 1 0 2 0 1 0 1 0 0 0 2 0 1 0 0 0 1 0c15,-3 26,1 33,8l3 1 2 1 2 2 2 1 1 2 2 1 2 2 2 1c1,2 2,3 3,4 1,1 1,2 2,4 2,2 3,3 4,5l1 2c1,2 1,3 2,5l1 2 1 2c1,3 2,5 3,8l0 2c1,2 1,3 2,5l0 2c1,3 1,6 2,8 0,2 0,5 0,7l1 2c0,2 0,4 0,5l0 4c0,3 0,5 0,7l0 2 0 1 0 3 0 1 0 4 0 3 0 0 0 1 0 1 0 0 0 0 0 1 0 0 -1 0c0,0 -11,46 31,50 41,-4 30,-50 30,-50l0 0 0 0 0 -1 0 0 0 0 0 -1 0 -1 0 0 -1 -3 0 -4 0 -1 0 -3 0 -1 0 -2c0,-2 0,-4 0,-7l0 -4c1,-1 1,-3 1,-5l0 -2c0,-2 1,-5 1,-7 0,-2 1,-5 1,-8l1 -2 1 -5 1 -2c1,-3 1,-5 3,-8l0 -2 1 -2c1,-2 2,-3 2,-5l2 -2c1,-2 2,-3 3,-5 1,-2 2,-3 3,-4 1,-1 2,-2 3,-4l2 -1 1 -2 2 -1 2 -2 2 -1 2 -2 2 -1 2 -1c8,-7 19,-11 33,-8l1 0 1 0 1 0 1 0 1 0 1 0 1 0 1 0 1 0 3 0 0 0 2 0 2 1 1 0 2 0 1 0 1 0 3 1 1 0 1 0 1 0 1 1 1 0 1 0 1 0 1 1 3 0 1 1 2 0 4 1 1 0 1 0 1 1 1 0 1 0 1 1 1 0 1 0 2 1 1 1 1 0 1 0 2 1 1 0 1 1 1 0 1 0c151,58 125,354 125,354z"/>
    </g>
   </g>
   <g>
    <path class="fil28" d="M15341 12416c63,264 252,397 252,529 0,132 -63,264 -252,264 -190,0 -253,-132 -253,-264 0,-132 190,-265 253,-529z"/>
    <path class="fil29" d="M15334 12538c23,109 91,164 91,218 0,54 -23,109 -91,109 -68,0 -91,-55 -91,-109 0,-54 68,-109 91,-218z"/>
   </g>
   <g>
    <path class="fil28" d="M17447 11579c63,264 252,396 252,529 0,132 -63,264 -252,264 -189,0 -252,-132 -252,-264 0,-133 189,-265 252,-529z"/>
    <path class="fil29" d="M17440 11701c23,109 91,163 91,218 0,54 -22,109 -91,109 -68,0 -90,-55 -90,-109 0,-55 68,-109 90,-218z"/>
   </g>
  </g>
  <g id="_1524678119168">
   <path class="fil0" d="M5278 12562c-90,-33 -155,-120 -155,-222 0,-111 77,-204 181,-229 135,-587 661,-1024 1289,-1024 627,0 1152,436 1289,1022 109,21 191,116 191,231 0,106 -70,195 -166,226 -28,240 -120,461 -260,645l0 0c0,0 130,37 -10,955 0,0 -76,-371 -671,-486l-1 0c-118,35 -243,54 -372,54 -679,0 -1239,-513 -1315,-1172z"/>
   <circle class="fil32" cx="6593" cy="12410" r="1177"/>
   <path class="fil2" d="M6593 11233c506,0 937,319 1104,766 -293,331 -680,533 -1104,533 -424,0 -811,-202 -1103,-533 166,-447 597,-766 1103,-766z"/>
   <path class="fil0" d="M5482 11133c95,0 172,77 172,172 0,96 -77,173 -172,173 -95,0 -172,-77 -172,-173 0,-95 77,-172 172,-172zm1650 -211c13,0 23,10 23,23 0,13 -10,24 -23,24 -13,0 -24,-11 -24,-24 0,-13 11,-23 24,-23zm-133 -61c19,0 34,15 34,34 0,20 -15,35 -34,35 -19,0 -35,-15 -35,-35 0,-19 16,-34 35,-34zm-166 -55c28,0 50,23 50,51 0,28 -22,51 -50,51 -29,0 -51,-23 -51,-51 0,-28 22,-51 51,-51zm-192 -40c41,0 73,33 73,73 0,40 -32,73 -73,73 -40,0 -73,-33 -73,-73 0,-40 33,-73 73,-73zm-246 -7c53,0 95,43 95,95 0,52 -42,95 -95,95 -52,0 -95,-43 -95,-95 0,-52 43,-95 95,-95zm-294 32c70,0 126,56 126,126 0,70 -56,126 -126,126 -70,0 -126,-56 -126,-126 0,-70 56,-126 126,-126zm-298 116c81,0 147,66 147,146 0,81 -66,147 -147,147 -80,0 -146,-66 -146,-147 0,-80 66,-146 146,-146z"/>
   <g>
    <path class="fil34" d="M6323 11771c13,0 24,11 24,25l0 215c0,0 -32,1 -85,-5 -1,30 -5,62 -5,89 0,138 -62,250 -139,250 -77,0 -139,-112 -139,-250 0,-46 -4,-115 2,-169l1 1c-8,-4 -17,-7 -25,-11 -216,-103 -304,-176 -304,-176 0,0 358,141 480,172 123,31 165,26 165,26l0 -138c0,-1 0,-3 0,-4 0,-14 11,-25 25,-25z"/>
    <path class="fil34" d="M6864 11771c-14,0 -25,11 -25,25l0 215c0,0 32,1 85,-5 1,30 5,62 5,89 0,138 62,250 139,250 77,0 139,-112 139,-250 0,-46 4,-115 -1,-169l-2 1c9,-4 17,-7 25,-11 216,-103 304,-176 304,-176 0,0 -357,141 -480,172 -123,31 -165,26 -165,26l0 -138c0,-1 0,-3 0,-4 0,-14 -11,-25 -24,-25z"/>
   </g>
   <path class="fil34" d="M6028 13181c174,-392 954,-395 1130,0 -271,-236 -858,-236 -1130,0z"/>
  </g>
  <g id="_1524678121056">
   <path class="fil0" d="M34 11217l0 74c3,4 5,8 7,11 5,18 12,34 22,49 6,9 13,18 26,30l0 0 1 0c28,25 64,41 104,42l1 0 0 0 2 0c84,2 165,-61 168,-159 2,-94 -63,-154 -136,-166l-4 -1 -1 0 -1 0 -5 -1 -1 0c-2,0 -3,0 -5,-1l-2 0 -4 0c-45,-2 -91,14 -124,50 -13,13 -24,29 -32,46l-12 20c0,-2 -2,4 -4,6zm339 810c-124,0 -225,101 -225,226 0,124 101,225 225,225 3,0 6,0 8,0l0 642c0,243 198,441 441,441l1053 0c2,2 4,5 6,7 380,453 275,688 275,688 486,-544 409,-654 515,-712 23,-7 45,-15 66,-25l0 0 0 0c149,-71 253,-224 253,-399l0 -642c121,-4 218,-103 218,-225 0,-122 -97,-222 -218,-226l0 -641c0,-243 -198,-441 -441,-441l-1727 0c-243,0 -441,198 -441,441l0 641c-2,0 -5,0 -8,0zm-91 -1095c10,57 49,90 95,101 13,4 26,6 40,6 27,0 52,-8 73,-21 47,-26 78,-78 61,-151 -13,-50 -46,-81 -85,-94 -15,-6 -31,-9 -49,-9 -32,0 -61,11 -84,29 -39,27 -63,75 -51,139zm468 -263c60,0 109,49 109,110 0,61 -49,110 -109,110 -61,0 -110,-49 -110,-110 0,-61 49,-110 110,-110zm1106 84c15,0 27,12 27,26 0,14 -12,26 -27,26 -14,0 -26,-12 -26,-26 0,-14 12,-26 26,-26zm-140 -11c21,0 37,17 37,37 0,20 -16,37 -37,37 -20,0 -37,-17 -37,-37 0,-20 17,-37 37,-37zm-185 -16c29,0 53,23 53,53 0,30 -24,54 -53,54 -30,0 -54,-24 -54,-54 0,-30 24,-53 54,-53zm-205 -12c37,0 66,29 66,65 0,36 -29,65 -66,65 -36,0 -65,-29 -65,-65 0,-36 29,-65 65,-65zm-258 -20c48,0 86,38 86,85 0,47 -38,85 -86,85 -47,0 -85,-38 -85,-85 0,-47 38,-85 85,-85z"/>
   <rect class="fil32" x="545" y="11110" width="2280" height="2286" rx="385" ry="72"/>
   <path class="fil2" d="M931 11110l1510 0c211,0 385,173 385,385l0 507c-312,251 -709,402 -1140,402 -432,0 -829,-151 -1141,-402l0 -507c0,-212 174,-385 386,-385z"/>
   <g>
    <path class="fil34" d="M1415 11670c14,0 25,11 25,25l0 215c0,0 -32,2 -85,-5 -1,30 -5,62 -5,90 0,138 -62,249 -139,249 -77,0 -140,-111 -140,-249 0,-47 -3,-115 2,-169l1 0c-8,-3 -16,-7 -24,-11 -217,-103 -305,-176 -305,-176 0,0 358,141 481,172 122,32 165,26 165,26l0 -137c-1,-2 -1,-3 -1,-5 0,-14 11,-25 25,-25z"/>
    <path class="fil34" d="M1956 11670c-14,0 -25,11 -25,25l0 215c0,0 32,2 86,-5 0,30 4,62 4,90 0,138 63,249 140,249 77,0 139,-111 139,-249 0,-47 3,-115 -2,-169l-1 0c8,-3 16,-7 24,-11 217,-103 305,-176 305,-176 0,0 -358,141 -481,172 -122,32 -165,26 -165,26l0 -137c1,-2 1,-3 1,-5 0,-14 -11,-25 -25,-25z"/>
   </g>
   <path class="fil34" d="M1121 13181c174,-392 954,-395 1129,0 -270,-236 -858,-236 -1129,0z"/>
  </g>
  <g id="_1524678122432">
   <path class="fil0" d="M19847 16475l0 74c2,4 4,8 6,12 5,17 13,33 22,48 6,9 13,19 26,30l1 0 0 0c28,25 64,41 104,42l1 1 0 0 2 0c84,2 165,-61 168,-160 2,-94 -63,-153 -136,-166l-4 -1 -1 0 -1 0 -5 -1 -1 0c-1,0 -3,0 -5,0l-2 0 -3 0c-46,-2 -92,13 -125,49 -13,14 -24,29 -31,46l-12 20c-1,-1 -3,4 -4,6zm339 810c-125,0 -226,101 -226,226 0,125 101,226 226,226 2,0 5,0 7,0l0 641c0,243 199,441 441,441l1053 0c2,3 4,5 6,8 381,452 275,687 275,687 486,-543 409,-654 515,-712 23,-7 45,-15 66,-25l0 0 0 0c149,-71 253,-223 253,-399l0 -641c121,-5 218,-104 218,-226 0,-122 -97,-221 -218,-225l0 -642c0,-242 -198,-441 -441,-441l-1727 0c-242,0 -441,199 -441,441l0 642c-2,0 -5,-1 -7,-1zm-92 -1095c10,57 49,90 95,101 13,4 26,6 40,6 27,0 52,-7 73,-21 47,-26 79,-77 61,-150 -12,-51 -45,-82 -85,-95 -15,-6 -31,-9 -49,-9 -31,0 -61,11 -84,29 -39,28 -63,75 -51,139zm468 -262c60,0 110,49 110,109 0,61 -50,110 -110,110 -61,0 -110,-49 -110,-110 0,-60 49,-109 110,-109zm1107 83c14,0 26,12 26,26 0,15 -12,27 -26,27 -15,0 -27,-12 -27,-27 0,-14 12,-26 27,-26zm-141 -11c21,0 38,17 38,37 0,21 -17,37 -38,37 -20,0 -37,-16 -37,-37 0,-20 17,-37 37,-37zm-185 -16c30,0 53,24 53,53 0,30 -23,54 -53,54 -30,0 -54,-24 -54,-54 0,-29 24,-53 54,-53zm-204 -12c36,0 65,29 65,65 0,36 -29,66 -65,66 -37,0 -66,-30 -66,-66 0,-36 29,-65 66,-65zm-258 -20c47,0 85,38 85,85 0,48 -38,86 -85,86 -47,0 -86,-38 -86,-86 0,-47 39,-85 86,-85z"/>
   <rect class="fil7" x="20358" y="16368" width="2280" height="2286" rx="385" ry="72"/>
   <path class="fil2" d="M20743 16368l1510 0c212,0 385,173 385,385l0 507c-312,252 -708,402 -1140,402 -432,0 -829,-150 -1140,-402l0 -507c0,-212 173,-385 385,-385z"/>
   <g>
    <path class="fil9" d="M20918 16625c182,0 330,222 330,495 0,69 -10,135 -27,194 -50,-176 -167,-300 -303,-300 -136,0 -253,124 -304,300 -17,-59 -26,-125 -26,-194 0,-273 148,-495 330,-495z"/>
    <path class="fil9" d="M22067 16625c182,0 330,222 330,495 0,69 -9,135 -26,194 -51,-176 -168,-300 -304,-300 -136,0 -253,124 -303,300 -17,-59 -27,-125 -27,-194 0,-273 148,-495 330,-495z"/>
    <path class="fil9" d="M22459 17893c-121,291 -504,504 -958,504l-3 0 -3 0c-454,0 -837,-213 -958,-504l4 -4c-1,-3 -3,-7 -4,-10l54 -54c157,202 503,343 907,344 403,-1 750,-142 906,-344l55 54c-2,3 -3,7 -4,10l4 4z"/>
   </g>
  </g>
  <g id="_1524678125792">
   <path class="fil0" d="M25091 17820c-91,-33 -156,-119 -156,-221 0,-112 77,-205 181,-230 135,-587 661,-1024 1289,-1024 627,0 1153,436 1289,1022 109,21 191,117 191,232 0,105 -70,195 -165,225 -29,241 -121,462 -261,645l0 0c0,0 130,37 -10,955 0,0 -76,-371 -671,-485l0 0c-119,34 -244,53 -373,53 -679,0 -1239,-512 -1314,-1172z"/>
   <circle class="fil1" cx="26405" cy="17668" r="1177"/>
   <path class="fil2" d="M26405 16491c506,0 937,319 1104,767 -293,331 -679,532 -1104,532 -424,0 -811,-201 -1103,-532 166,-448 598,-767 1103,-767z"/>
   <path class="fil0" d="M25294 16392c95,0 172,77 172,172 0,95 -77,172 -172,172 -95,0 -172,-77 -172,-172 0,-95 77,-172 172,-172zm1650 -212c13,0 23,11 23,24 0,13 -10,23 -23,23 -13,0 -24,-10 -24,-23 0,-13 11,-24 24,-24zm-133 -61c19,0 34,16 34,35 0,19 -15,34 -34,34 -19,0 -35,-15 -35,-34 0,-19 16,-35 35,-35zm-166 -54c28,0 51,22 51,51 0,28 -23,51 -51,51 -28,0 -51,-23 -51,-51 0,-29 23,-51 51,-51zm-192 -41c41,0 74,33 74,73 0,41 -33,73 -74,73 -40,0 -73,-32 -73,-73 0,-40 33,-73 73,-73zm-246 -6c53,0 95,42 95,94 0,53 -42,95 -95,95 -52,0 -94,-42 -94,-95 0,-52 42,-94 94,-94zm-294 31c70,0 126,57 126,126 0,70 -56,127 -126,127 -70,0 -126,-57 -126,-127 0,-69 56,-126 126,-126zm-298 116c81,0 147,66 147,147 0,81 -66,146 -147,146 -80,0 -146,-65 -146,-146 0,-81 66,-147 146,-147z"/>
   <g>
    <path class="fil9" d="M25825 16783c183,0 330,221 330,494 0,69 -9,135 -26,195 -50,-177 -167,-301 -304,-301 -136,0 -253,124 -303,301 -17,-60 -26,-126 -26,-195 0,-273 147,-494 329,-494z"/>
    <path class="fil9" d="M26975 16783c182,0 330,221 330,494 0,69 -10,135 -27,195 -50,-177 -167,-301 -303,-301 -137,0 -254,124 -304,301 -17,-60 -26,-126 -26,-195 0,-273 147,-494 330,-494z"/>
    <path class="fil9" d="M27366 18050c-121,292 -504,504 -958,504l-3 0 -3 0c-454,0 -837,-212 -958,-504l4 -4c-1,-3 -2,-6 -4,-10l55 -54c156,202 503,343 906,344 403,-1 750,-142 907,-344l54 54c-1,4 -3,7 -4,10l4 4z"/>
   </g>
  </g>
  <g id="_1524678127200">
   <path class="fil0" d="M122 16363l0 74c3,4 5,8 7,12 5,17 13,34 22,48 6,10 13,19 26,30l1 0 0 1c28,25 64,40 104,42l1 0 0 0 2 0c84,2 165,-61 168,-160 2,-94 -63,-153 -136,-166l-4 0 -1 0 -1 -1 -5 0 -1 0c-2,-1 -3,-1 -5,-1l-2 0 -3 0c-46,-2 -92,13 -125,50 -13,13 -24,28 -32,45l-12 20c0,-1 -2,4 -4,6zm339 811c-124,0 -225,101 -225,225 0,125 101,226 225,226 3,0 6,0 8,0l0 642c0,242 199,440 441,440l1053 0c2,3 4,5 6,8 380,452 275,687 275,687 486,-543 409,-653 515,-712 23,-6 45,-15 66,-25l0 0 0 0c149,-71 253,-223 253,-398l0 -642c121,-4 218,-104 218,-226 0,-122 -97,-221 -218,-225l0 -642c0,-242 -198,-440 -441,-440l-1727 0c-242,0 -441,198 -441,440l0 642c-2,0 -5,0 -8,0zm-91 -1096c10,57 49,90 95,101 13,4 26,6 40,6 27,0 52,-7 73,-21 47,-26 78,-77 61,-150 -12,-51 -46,-81 -85,-95 -15,-5 -31,-9 -49,-9 -32,0 -61,11 -84,29 -39,28 -63,75 -51,139zm468 -262c60,0 109,49 109,110 0,60 -49,110 -109,110 -61,0 -110,-50 -110,-110 0,-61 49,-110 110,-110zm1107 83c14,0 26,12 26,27 0,14 -12,26 -26,26 -15,0 -27,-12 -27,-26 0,-15 12,-27 27,-27zm-141 -10c21,0 37,16 37,37 0,20 -16,37 -37,37 -20,0 -37,-17 -37,-37 0,-21 17,-37 37,-37zm-185 -17c29,0 53,24 53,54 0,29 -24,53 -53,53 -30,0 -54,-24 -54,-53 0,-30 24,-54 54,-54zm-205 -12c37,0 66,30 66,66 0,36 -29,65 -66,65 -36,0 -65,-29 -65,-65 0,-36 29,-66 65,-66zm-257 -20c47,0 85,39 85,86 0,47 -38,85 -85,85 -48,0 -86,-38 -86,-85 0,-47 38,-86 86,-86z"/>
   <rect class="fil7" x="633" y="16256" width="2280" height="2286" rx="385" ry="72"/>
   <path class="fil2" d="M1019 16256l1510 0c211,0 385,174 385,386l0 506c-312,252 -709,402 -1140,402 -432,0 -829,-150 -1141,-402l0 -506c0,-212 174,-386 386,-386z"/>
   <path class="fil35" d="M1495 16828c121,77 28,350 -124,249 -116,-77 -144,-107 -282,-113 -269,-12 -264,195 -382,101 -32,-92 34,-209 167,-281 189,-103 462,-115 621,44zm557 0c-120,77 -27,350 125,249 116,-77 143,-107 281,-113 269,-12 264,195 383,101 31,-92 -34,-209 -168,-281 -189,-103 -462,-115 -621,44z"/>
   <g>
    <path class="fil6" d="M2498 17856c-20,0 -39,10 -51,24 -196,155 -442,231 -689,231 -246,0 -493,-76 -688,-231 -13,-14 -31,-24 -52,-24 -37,0 -67,30 -67,67 0,16 6,30 16,42 144,260 456,393 771,398 329,6 661,-127 812,-398 9,-12 15,-26 15,-42 0,-37 -30,-67 -67,-67z"/>
    <path class="fil36" d="M2301 17466c163,0 295,132 295,295 0,34 -6,66 -16,96l0 0 0 0c-14,39 -35,75 -63,105 -82,118 -246,299 -489,322 -326,32 -142,-82 -142,-82 90,-52 123,-213 135,-347 -10,-29 -15,-61 -15,-94 0,-38 7,-74 19,-107l0 0 0 0c43,-110 150,-188 276,-188z"/>
   </g>
  </g>
  <g id="_1524678129280">
   <path class="fil0" d="M5366 17709c-90,-33 -155,-120 -155,-222 0,-111 77,-204 181,-230 135,-586 661,-1024 1289,-1024 627,0 1153,437 1289,1022 109,21 191,117 191,232 0,106 -70,195 -165,225 -29,241 -121,462 -261,645l0 0c0,0 130,38 -10,956 0,0 -76,-372 -671,-486l-1 0c-118,35 -243,53 -372,53 -679,0 -1239,-512 -1315,-1171z"/>
   <circle class="fil1" cx="6681" cy="17557" r="1177"/>
   <path class="fil2" d="M6681 16380c506,0 937,318 1104,766 -293,331 -680,532 -1104,532 -424,0 -811,-201 -1103,-532 166,-448 597,-766 1103,-766z"/>
   <path class="fil0" d="M5570 16280c95,0 172,77 172,172 0,95 -77,172 -172,172 -95,0 -172,-77 -172,-172 0,-95 77,-172 172,-172zm1650 -211c13,0 23,10 23,23 0,13 -10,23 -23,23 -13,0 -24,-10 -24,-23 0,-13 11,-23 24,-23zm-133 -61c19,0 34,15 34,34 0,19 -15,35 -34,35 -19,0 -35,-16 -35,-35 0,-19 16,-34 35,-34zm-166 -55c28,0 50,23 50,51 0,28 -22,51 -50,51 -29,0 -51,-23 -51,-51 0,-28 22,-51 51,-51zm-192 -41c41,0 74,33 74,74 0,40 -33,73 -74,73 -40,0 -73,-33 -73,-73 0,-41 33,-74 73,-74zm-246 -6c53,0 95,42 95,95 0,52 -42,94 -95,94 -52,0 -94,-42 -94,-94 0,-53 42,-95 94,-95zm-294 31c70,0 126,57 126,127 0,70 -56,126 -126,126 -70,0 -126,-56 -126,-126 0,-70 56,-127 126,-127zm-298 117c81,0 147,65 147,146 0,81 -66,146 -147,146 -80,0 -146,-65 -146,-146 0,-81 66,-146 146,-146z"/>
   <path class="fil35" d="M6428 16961c109,69 25,318 -113,226 -106,-70 -131,-97 -257,-103 -244,-10 -240,178 -348,92 -28,-83 31,-190 152,-256 173,-93 421,-104 566,41zm507 0c-110,69 -25,318 113,226 105,-70 131,-97 256,-103 244,-10 240,178 348,92 29,-83 -31,-190 -152,-256 -173,-93 -421,-104 -565,41z"/>
   <g>
    <path class="fil6" d="M7341 18049c-19,0 -36,9 -47,23 -178,140 -402,209 -627,209 -224,0 -449,-69 -626,-209 -12,-14 -28,-23 -47,-23 -34,0 -61,28 -61,61 0,15 5,28 14,38 131,237 415,358 702,363 299,5 601,-116 738,-363 9,-10 14,-23 14,-38 0,-33 -27,-61 -60,-61z"/>
    <path class="fil37" d="M7161 17694c148,0 268,120 268,269 0,30 -5,60 -14,87l0 0 -1 1c-12,35 -31,67 -56,94 -76,108 -224,273 -445,294 -297,29 -129,-75 -129,-75 82,-47 112,-193 122,-315 -9,-27 -14,-56 -14,-86 0,-35 7,-67 18,-97l0 0 0 0c39,-101 137,-172 251,-172z"/>
   </g>
  </g>
  <g id="_1524678132096">
   <path class="fil0" d="M10102 16273l0 74c2,4 5,8 7,11 4,18 12,34 22,49 5,9 13,18 26,30l0 0 0 0c28,25 64,41 105,42l0 0 1 0 1 0c85,2 166,-60 168,-159 2,-94 -63,-154 -136,-166l-4 -1 0 0 -2 0 -5 -1 0 0c-2,0 -4,0 -6,0l-2 -1 -3 0c-45,-2 -91,14 -125,50 -13,13 -23,29 -31,46l-12 20c-1,-2 -3,4 -4,6zm339 810c-125,0 -226,101 -226,226 0,124 101,225 226,225 2,0 5,0 8,0l0 642c0,243 198,441 440,441l1054 0c2,2 4,5 6,7 380,453 274,688 274,688 486,-544 409,-654 516,-712 22,-7 44,-15 65,-25l0 0 0 0c150,-71 253,-223 253,-399l0 -642c121,-4 218,-103 218,-225 0,-122 -97,-222 -218,-226l0 -641c0,-243 -198,-441 -440,-441l-1728 0c-242,0 -440,198 -440,441l0 641c-3,0 -6,0 -8,0zm-92 -1095c11,57 50,90 95,101 13,4 27,6 41,6 26,0 52,-8 73,-21 47,-26 78,-78 60,-151 -12,-50 -45,-81 -84,-94 -16,-6 -32,-9 -49,-9 -32,0 -62,11 -85,29 -38,27 -63,75 -51,139zm468 -263c61,0 110,49 110,110 0,61 -49,110 -110,110 -61,0 -110,-49 -110,-110 0,-61 49,-110 110,-110zm1107 84c14,0 26,12 26,26 0,15 -12,26 -26,26 -15,0 -26,-11 -26,-26 0,-14 11,-26 26,-26zm-140 -11c20,0 37,17 37,37 0,21 -17,37 -37,37 -21,0 -37,-16 -37,-37 0,-20 16,-37 37,-37zm-186 -16c30,0 54,24 54,53 0,30 -24,54 -54,54 -29,0 -53,-24 -53,-54 0,-29 24,-53 53,-53zm-204 -12c36,0 65,29 65,65 0,36 -29,65 -65,65 -36,0 -66,-29 -66,-65 0,-36 30,-65 66,-65zm-258 -20c47,0 85,38 85,85 0,47 -38,85 -85,85 -47,0 -85,-38 -85,-85 0,-47 38,-85 85,-85z"/>
   <rect class="fil7" x="10613" y="16166" width="2280" height="2286" rx="385" ry="72"/>
   <path class="fil2" d="M10998 16166l1510 0c212,0 385,173 385,385l0 507c-312,251 -708,402 -1140,402 -432,0 -828,-151 -1140,-402l0 -507c0,-212 173,-385 385,-385z"/>
   <g>
    <g>
     <path class="fil38" d="M11945 17092c-6,3 -13,4 -21,4 -34,0 -61,-28 -61,-62 0,-93 199,-186 256,-209 92,-39 229,-89 332,-89 24,0 43,19 43,43 0,23 -18,42 -40,43 -65,17 -296,84 -329,159 275,62 397,155 397,155l0 0c19,8 32,26 32,48 0,34 -32,58 -65,50 -21,0 -327,-142 -544,-142z"/>
     <path class="fil38" d="M11561 17092c6,3 13,4 21,4 33,0 61,-28 61,-62 0,-93 -199,-186 -256,-209 -92,-39 -229,-89 -332,-89 -24,0 -43,19 -43,43 0,23 18,42 40,43 64,17 296,84 329,159 -275,62 -397,155 -397,155l0 0c-19,8 -32,26 -32,48 0,34 32,58 65,50 21,0 327,-142 544,-142z"/>
    </g>
    <g>
     <path class="fil39" d="M12443 16566c21,0 38,17 38,38 0,21 -17,38 -38,38 -1,0 -2,0 -3,0l0 0c-163,5 -542,30 -542,-213 0,-22 17,-39 38,-39 15,0 27,8 34,20 106,107 325,157 473,156z"/>
     <path class="fil39" d="M11063 16566c-21,0 -38,17 -38,38 0,21 17,38 38,38 1,0 2,0 3,0l0 0c163,5 542,30 542,-213 0,-22 -17,-39 -38,-39 -15,0 -27,8 -34,20 -106,107 -325,157 -473,156z"/>
    </g>
   </g>
   <path class="fil40" d="M12402 18052c2,-162 -95,-213 -197,-227 -113,-15 -144,10 -241,20 -90,9 -332,9 -423,0 -96,-10 -127,-35 -240,-20 -102,14 -199,65 -197,227 0,80 102,90 162,73 125,-37 183,-56 323,-64 109,0 219,0 328,0 140,8 198,27 323,64 60,17 162,7 162,-73z"/>
  </g>
  <path class="fil0" d="M15346 17618c-91,-33 -155,-120 -155,-222 0,-111 77,-204 180,-229 136,-587 661,-1024 1289,-1024 628,0 1153,436 1289,1022 109,21 191,116 191,231 0,106 -69,196 -165,226 -28,240 -121,461 -261,645l0 0c0,0 130,37 -9,955 0,0 -76,-371 -672,-486l0 0c-118,35 -243,54 -373,54 -679,0 -1239,-513 -1314,-1172z"/>
  <circle class="fil1" cx="16660" cy="17466" r="1177"/>
  <path class="fil2" d="M16660 16289c506,0 937,319 1104,767 -292,330 -679,532 -1104,532 -424,0 -811,-202 -1103,-532 167,-448 598,-767 1103,-767z"/>
  <path class="fil0" d="M15549 16189c95,0 172,77 172,172 0,96 -77,173 -172,173 -95,0 -172,-77 -172,-173 0,-95 77,-172 172,-172zm1650 -211c13,0 24,10 24,23 0,13 -11,24 -24,24 -13,0 -23,-11 -23,-24 0,-13 10,-23 23,-23zm-133 -61c19,0 35,15 35,35 0,19 -16,34 -35,34 -19,0 -34,-15 -34,-34 0,-20 15,-35 34,-35zm-166 -55c28,0 51,23 51,51 0,28 -23,51 -51,51 -28,0 -51,-23 -51,-51 0,-28 23,-51 51,-51zm-191 -40c40,0 73,33 73,73 0,40 -33,73 -73,73 -41,0 -73,-33 -73,-73 0,-40 32,-73 73,-73zm-246 -7c52,0 94,43 94,95 0,52 -42,95 -94,95 -53,0 -95,-43 -95,-95 0,-52 42,-95 95,-95zm-295 32c70,0 127,56 127,126 0,70 -57,126 -127,126 -69,0 -126,-56 -126,-126 0,-70 57,-126 126,-126zm-297 116c81,0 146,66 146,146 0,81 -65,147 -146,147 -81,0 -147,-66 -147,-147 0,-80 66,-146 147,-146z"/>
  <g id="_1524679730848">
   <g>
    <path class="fil38" d="M16853 17116c-7,3 -14,4 -21,4 -34,0 -62,-28 -62,-62 0,-93 199,-186 257,-210 92,-38 228,-89 332,-89 24,0 43,20 43,44 0,23 -18,42 -41,43 -64,17 -296,84 -329,159 276,62 397,155 397,155l0 0c19,8 32,26 32,47 0,34 -32,59 -64,50 -22,0 -328,-141 -544,-141z"/>
    <path class="fil38" d="M16468 17116c7,3 14,4 21,4 34,0 62,-28 62,-62 0,-93 -199,-186 -257,-210 -92,-38 -228,-89 -332,-89 -24,0 -43,20 -43,44 0,23 18,42 41,43 64,17 296,84 329,159 -276,62 -397,155 -397,155l0 0c-19,8 -32,26 -32,47 0,34 32,59 64,50 21,0 328,-141 544,-141z"/>
   </g>
   <g>
    <path class="fil39" d="M17351 16590c21,0 38,17 38,38 0,21 -17,38 -38,38 -2,0 -3,0 -4,0l0 0c-162,5 -541,30 -541,-214 0,-21 17,-38 38,-38 14,0 27,8 33,20 107,107 326,157 474,156z"/>
    <path class="fil39" d="M15970 16590c-21,0 -38,17 -38,38 0,21 17,38 38,38 1,0 3,0 4,0l0 0c162,5 541,30 541,-214 0,-21 -17,-38 -38,-38 -14,0 -27,8 -33,20 -107,107 -326,157 -474,156z"/>
   </g>
  </g>
  <path class="fil40" d="M17310 18177c1,-162 -95,-214 -197,-227 -113,-16 -144,10 -241,20 -90,9 -333,9 -423,0 -97,-10 -128,-36 -241,-20 -102,13 -198,65 -197,227 0,80 103,90 162,72 126,-36 184,-56 323,-63 110,0 219,0 329,0 139,7 197,27 323,63 59,18 162,8 162,-72z"/>
 </g>
</svg>
