<?xml version="1.0" encoding="UTF-8"?>
<!DOCTYPE svg PUBLIC "-//W3C//DTD SVG 1.1//EN" "http://www.w3.org/Graphics/SVG/1.1/DTD/svg11.dtd">
<!-- Creator: CorelDRAW X8 -->
<svg xmlns="http://www.w3.org/2000/svg" xml:space="preserve" width="31.564mm" height="35.6728mm" version="1.1" style="shape-rendering:geometricPrecision; text-rendering:geometricPrecision; image-rendering:optimizeQuality; fill-rule:evenodd; clip-rule:evenodd"
viewBox="0 0 359 406"
 xmlns:xlink="http://www.w3.org/1999/xlink">
 <defs>
  <style type="text/css">
   <![CDATA[
    .fil8 {fill:#00CCFF}
    .fil0 {fill:#2C3D51}
    .fil4 {fill:#333333}
    .fil5 {fill:#3C0404}
    .fil3 {fill:#672604}
    .fil6 {fill:#DCE7EE}
    .fil1 {fill:#FEC12B}
    .fil7 {fill:#00CCFF;fill-opacity:0.109804}
    .fil2 {fill:white;fill-opacity:0.301961}
   ]]>
  </style>
 </defs>
 <g id="Layer_x0020_1">
  <metadata id="CorelCorpID_0Corel-Layer"/>
  <g id="_1262244517392">
   <path class="fil0" d="M0 62l0 8c0,1 1,1 1,2 0,2 1,3 2,5 1,1 2,2 3,3l0 1 0 0c3,2 8,4 12,4l0 0 0 0 0 0c10,1 19,-7 19,-18 1,-10 -7,-17 -15,-19l0 0 -1 0 0 0 0 0 0 0c-1,0 -1,0 -1,0l0 0 -1 0c-5,0 -10,2 -14,6 -1,1 -2,3 -3,5l-2 2c0,0 0,1 0,1zm38 92c-14,0 -25,11 -25,25 0,14 11,26 25,26 1,0 1,0 1,0l0 72c0,28 23,50 50,50l119 0c0,0 1,1 1,1 43,51 31,78 31,78 55,-62 46,-74 58,-81 3,-1 5,-2 8,-3l0 0 0 0c17,-8 28,-25 28,-45l0 -72c14,-1 25,-12 25,-26 0,-14 -11,-25 -25,-25l0 -73c0,-27 -22,-50 -50,-50l-195 0c-27,0 -50,23 -50,50l0 73c0,0 0,0 -1,0zm-10 -124c1,6 6,10 11,11 1,1 3,1 4,1 3,0 6,-1 9,-3 5,-2 8,-8 6,-17 -1,-5 -5,-9 -9,-10 -2,-1 -4,-1 -6,-1 -3,0 -7,1 -9,3 -5,3 -7,8 -6,16zm53 -30c7,0 12,6 12,12 0,7 -5,13 -12,13 -7,0 -13,-6 -13,-13 0,-6 6,-12 13,-12zm125 9c2,0 3,2 3,3 0,2 -1,3 -3,3 -2,0 -3,-1 -3,-3 0,-1 1,-3 3,-3zm-16 -1c3,0 4,2 4,4 0,3 -1,5 -4,5 -2,0 -4,-2 -4,-5 0,-2 2,-4 4,-4zm-21 -2c4,0 6,3 6,6 0,4 -2,6 -6,6 -3,0 -6,-2 -6,-6 0,-3 3,-6 6,-6zm-23 -1c4,0 8,3 8,7 0,5 -4,8 -8,8 -4,0 -7,-3 -7,-8 0,-4 3,-7 7,-7zm-29 -2c5,0 10,4 10,9 0,6 -5,10 -10,10 -5,0 -10,-4 -10,-10 0,-5 5,-9 10,-9z"/>
   <rect class="fil1" x="58" y="50" width="258" height="259" rx="44" ry="8"/>
   <path class="fil2" d="M101 50l171 0c24,0 44,19 44,43l0 58c-36,28 -80,45 -129,45 -49,0 -94,-17 -129,-45l0 -58c0,-24 19,-43 43,-43z"/>
   <g>
    <g>
     <path class="fil3" d="M270 97c-15,-18 -61,-6 -59,19 0,0 25,-23 59,-19z"/>
     <path class="fil4" d="M216 136c-3,30 78,29 78,-4 0,0 -28,14 -78,4z"/>
    </g>
    <g>
     <path class="fil3" d="M103 97c16,-18 61,-6 60,19 0,0 -25,-23 -60,-19z"/>
     <path class="fil4" d="M157 136c4,30 -77,29 -78,-4 0,0 28,14 78,4z"/>
    </g>
   </g>
   <path class="fil5" d="M158 266c-12,6 -15,11 -25,15 -54,25 -18,-37 52,-37 68,-1 112,62 56,37 -9,-4 -13,-9 -24,-15 -20,-10 -39,-10 -59,0z"/>
   <g>
    <g>
     <path class="fil6" d="M210 236c0,0 -4,-8 -1,-9 3,-1 27,33 27,33 0,0 19,23 23,24 3,1 5,-1 5,-1 0,0 10,-10 22,-1 11,9 13,11 12,20 -1,8 -1,10 -1,10 0,0 28,4 17,26 -10,23 -30,12 -30,12 0,0 1,24 -23,26 -23,2 -20,-11 -20,-11 0,0 -21,9 -29,-2 -8,-11 9,-30 9,-30 0,0 -14,-8 -14,-20 0,-12 13,-18 13,-18l12 0 -22 -59z"/>
     <path class="fil7" d="M224 252c0,0 -3,-7 -1,-8 3,-1 23,27 23,27 0,0 15,19 18,20 3,1 5,0 5,0 0,0 8,-9 18,-2 9,8 10,10 10,17 -1,7 -1,8 -1,8 0,0 23,3 14,22 -9,18 -25,10 -25,10 0,0 1,20 -19,21 -19,2 -17,-9 -17,-9 0,0 -16,7 -23,-2 -7,-9 8,-24 8,-24 0,0 -13,-7 -13,-17 0,-10 12,-14 12,-14l10 -1 -19 -48z"/>
     <circle class="fil8" cx="261" cy="322" r="11"/>
     <circle class="fil8" cx="295" cy="328" r="9"/>
     <path class="fil8" d="M278 287c7,0 13,4 13,9 0,6 -1,10 -8,10 -7,0 -17,-6 -17,-12 0,-5 5,-7 12,-7z"/>
    </g>
    <g>
     <path class="fil6" d="M164 236c0,0 4,-8 1,-9 -4,-1 -28,33 -28,33 0,0 -18,23 -22,24 -4,1 -5,-1 -5,-1 0,0 -11,-10 -22,-1 -12,9 -13,11 -12,20 0,8 0,10 0,10 0,0 -27,4 -17,26 11,23 31,12 31,12 0,0 -1,24 22,26 24,2 21,-11 21,-11 0,0 20,9 28,-2 9,-11 -9,-30 -9,-30 0,0 15,-8 15,-20 0,-12 -13,-18 -13,-18l-13 0 23 -59z"/>
     <path class="fil7" d="M150 252c0,0 3,-7 0,-8 -3,-1 -22,27 -22,27 0,0 -16,19 -19,20 -3,1 -4,0 -4,0 0,0 -9,-9 -18,-2 -10,8 -11,10 -10,17 0,7 0,8 0,8 0,0 -22,3 -14,22 9,18 25,10 25,10 0,0 0,20 19,21 19,2 17,-9 17,-9 0,0 17,7 23,-2 7,-9 -7,-24 -7,-24 0,0 12,-7 12,-17 0,-10 -11,-14 -11,-14l-10 -1 19 -48z"/>
     <circle class="fil8" cx="112" cy="322" r="11"/>
     <circle class="fil8" cx="78" cy="328" r="9"/>
     <path class="fil8" d="M95 287c-6,0 -12,4 -12,9 0,6 1,10 8,10 7,0 17,-6 17,-12 0,-5 -6,-7 -13,-7z"/>
    </g>
   </g>
  </g>
 </g>
</svg>
