<?xml version="1.0" encoding="UTF-8"?>
<!DOCTYPE svg PUBLIC "-//W3C//DTD SVG 1.1//EN" "http://www.w3.org/Graphics/SVG/1.1/DTD/svg11.dtd">
<!-- Creator: CorelDRAW X8 -->
<svg xmlns="http://www.w3.org/2000/svg" xml:space="preserve" width="29.3356mm" height="33.8834mm" version="1.1" style="shape-rendering:geometricPrecision; text-rendering:geometricPrecision; image-rendering:optimizeQuality; fill-rule:evenodd; clip-rule:evenodd"
viewBox="0 0 488 564"
 xmlns:xlink="http://www.w3.org/1999/xlink">
 <defs>
  <style type="text/css">
   <![CDATA[
    .fil8 {fill:#00CCFF}
    .fil0 {fill:#2C3D51}
    .fil4 {fill:#333333}
    .fil5 {fill:#3C0404}
    .fil3 {fill:#672604}
    .fil6 {fill:#DCE7EE}
    .fil1 {fill:#FFBD2D}
    .fil7 {fill:#00CCFF;fill-opacity:0.109804}
    .fil2 {fill:white;fill-opacity:0.301961}
   ]]>
  </style>
 </defs>
 <g id="Layer_x0020_1">
  <metadata id="CorelCorpID_0Corel-Layer"/>
  <g id="_1262233486352">
   <path class="fil0" d="M26 298c-15,-5 -26,-19 -26,-36 0,-19 13,-34 30,-38 22,-97 109,-170 213,-170 104,0 191,72 214,169 18,4 31,20 31,39 0,17 -11,32 -27,37 -5,40 -20,76 -43,107l0 0c0,0 21,6 -2,158 0,0 -13,-62 -111,-81l0 0c-20,6 -40,9 -62,9 -112,0 -205,-84 -217,-194z"/>
   <circle class="fil1" cx="243" cy="273" r="195"/>
   <path class="fil2" d="M243 78c84,0 155,53 183,127 -48,55 -113,88 -183,88 -70,0 -134,-33 -182,-88 27,-74 99,-127 182,-127z"/>
   <path class="fil0" d="M59 62c16,0 29,13 29,28 0,16 -13,29 -29,29 -15,0 -28,-13 -28,-29 0,-15 13,-28 28,-28zm273 -35c3,0 4,2 4,4 0,2 -1,4 -4,4 -2,0 -3,-2 -3,-4 0,-2 1,-4 3,-4zm-22 -10c4,0 6,2 6,6 0,3 -2,5 -6,5 -3,0 -5,-2 -5,-5 0,-4 2,-6 5,-6zm-27 -9c5,0 8,4 8,8 0,5 -3,9 -8,9 -5,0 -9,-4 -9,-9 0,-4 4,-8 9,-8zm-32 -7c7,0 12,6 12,12 0,7 -5,12 -12,12 -6,0 -12,-5 -12,-12 0,-6 6,-12 12,-12zm-40 -1c8,0 15,7 15,16 0,8 -7,15 -15,15 -9,0 -16,-7 -16,-15 0,-9 7,-16 16,-16zm-49 5c11,0 21,10 21,21 0,12 -10,21 -21,21 -12,0 -21,-9 -21,-21 0,-11 9,-21 21,-21zm-49 19c13,0 24,11 24,25 0,13 -11,24 -24,24 -14,0 -25,-11 -25,-24 0,-14 11,-25 25,-25z"/>
   <g>
    <g>
     <path class="fil3" d="M365 148c-22,-27 -89,-8 -86,28 0,0 36,-35 86,-28z"/>
     <path class="fil4" d="M286 204c-5,44 114,44 115,-5 0,0 -42,21 -115,5z"/>
    </g>
    <g>
     <path class="fil3" d="M121 148c23,-27 89,-8 87,28 0,0 -36,-35 -87,-28z"/>
     <path class="fil4" d="M200 204c6,44 -113,44 -114,-5 0,0 41,21 114,5z"/>
    </g>
   </g>
   <path class="fil5" d="M201 375c-17,8 -22,15 -36,21 -79,36 -27,-53 76,-55 99,-1 163,92 82,55 -14,-6 -19,-13 -35,-21 -30,-16 -57,-16 -87,0z"/>
   <g>
    <g>
     <path class="fil6" d="M277 331c0,0 -6,-12 -1,-14 5,-2 39,48 39,48 0,0 28,34 33,35 6,2 8,0 8,0 0,0 15,-15 32,-3 17,13 19,17 18,30 -1,12 -1,15 -1,15 0,0 40,5 24,38 -15,33 -44,18 -44,18 0,0 1,35 -33,37 -34,3 -30,-16 -30,-16 0,0 -29,13 -41,-3 -12,-16 13,-43 13,-43 0,0 -22,-13 -22,-30 0,-17 20,-26 20,-26l18 -1 -33 -85z"/>
     <path class="fil7" d="M297 353c0,0 -4,-9 0,-11 4,-1 33,40 33,40 0,0 22,28 27,29 4,1 6,0 6,0 0,0 12,-13 26,-2 15,10 16,13 15,24 0,10 0,12 0,12 0,0 32,4 20,31 -13,28 -37,15 -37,15 0,0 1,29 -27,31 -29,2 -25,-13 -25,-13 0,0 -24,11 -34,-3 -10,-13 11,-35 11,-35 0,0 -18,-11 -18,-25 0,-14 16,-21 16,-21l15 -1 -28 -71z"/>
     <ellipse class="fil8" cx="352" cy="456" rx="16" ry="15"/>
     <circle class="fil8" cx="402" cy="464" r="14"/>
     <path class="fil8" d="M377 404c10,0 18,7 18,15 0,8 -1,13 -11,13 -11,0 -25,-8 -25,-17 0,-8 8,-11 18,-11z"/>
    </g>
    <g>
     <path class="fil6" d="M210 331c0,0 6,-12 1,-14 -5,-2 -40,48 -40,48 0,0 -27,34 -33,35 -5,2 -7,0 -7,0 0,0 -16,-15 -33,-3 -17,13 -18,17 -18,30 1,12 1,15 1,15 0,0 -39,5 -24,38 15,33 44,18 44,18 0,0 -1,35 34,37 34,3 30,-16 30,-16 0,0 29,13 41,-3 12,-16 -13,-43 -13,-43 0,0 21,-13 21,-30 0,-17 -19,-26 -19,-26l-18 -1 33 -85z"/>
     <path class="fil7" d="M189 353c0,0 5,-9 1,-11 -4,-1 -33,40 -33,40 0,0 -23,28 -27,29 -5,1 -7,0 -7,0 0,0 -12,-13 -26,-2 -14,10 -16,13 -15,24 1,10 1,12 1,12 0,0 -33,4 -20,31 13,28 36,15 36,15 0,0 -1,29 28,31 28,2 25,-13 25,-13 0,0 24,11 34,-3 10,-13 -11,-35 -11,-35 0,0 18,-11 18,-25 0,-14 -17,-21 -17,-21l-15 -1 28 -71z"/>
     <ellipse class="fil8" cx="135" cy="456" rx="16" ry="15"/>
     <circle class="fil8" cx="84" cy="464" r="14"/>
     <path class="fil8" d="M110 404c-10,0 -19,7 -19,15 0,8 2,13 12,13 10,0 24,-8 24,-17 0,-8 -7,-11 -17,-11z"/>
    </g>
   </g>
  </g>
 </g>
</svg>
