<?xml version="1.0" encoding="UTF-8"?>
<!DOCTYPE svg PUBLIC "-//W3C//DTD SVG 1.1//EN" "http://www.w3.org/Graphics/SVG/1.1/DTD/svg11.dtd">
<!-- Creator: CorelDRAW X8 -->
<svg xmlns="http://www.w3.org/2000/svg" xml:space="preserve" width="31.564mm" height="35.6728mm" version="1.1" style="shape-rendering:geometricPrecision; text-rendering:geometricPrecision; image-rendering:optimizeQuality; fill-rule:evenodd; clip-rule:evenodd"
viewBox="0 0 839 948"
 xmlns:xlink="http://www.w3.org/1999/xlink">
 <defs>
  <style type="text/css">
   <![CDATA[
    .fil4 {fill:#1E203C}
    .fil0 {fill:#2C3D51}
    .fil3 {fill:#771E18}
    .fil6 {fill:#DF8E29}
    .fil1 {fill:#FEC12B}
    .fil5 {fill:white}
    .fil2 {fill:white;fill-opacity:0.301961}
   ]]>
  </style>
      <mask id="id0">
  <radialGradient id="id1" gradientUnits="userSpaceOnUse" cx="318.195" cy="328.856" r="27.0597" fx="318.195" fy="328.856">
   <stop offset="0" style="stop-opacity:0.45098; stop-color:white"/>
   <stop offset="1" style="stop-opacity:0; stop-color:white"/>
  </radialGradient>
       <rect style="fill:url(#id1)" x="288" y="299" width="38.8655" height="38.8655"/>
      </mask>
      <mask id="id2">
  <radialGradient id="id3" gradientUnits="userSpaceOnUse" cx="602.322" cy="328.856" r="27.0597" fx="602.322" fy="328.856">
   <stop offset="0" style="stop-opacity:0.45098; stop-color:white"/>
   <stop offset="1" style="stop-opacity:0; stop-color:white"/>
  </radialGradient>
       <rect style="fill:url(#id3)" x="573" y="299" width="38.8682" height="38.8655"/>
      </mask>
 </defs>
 <g id="Layer_x0020_1">
  <metadata id="CorelCorpID_0Corel-Layer"/>
  <g id="_2537743630128">
   <path class="fil0" d="M0 145l0 19c1,1 1,2 2,3 1,5 3,9 6,13 1,2 3,5 6,8l1 0 0 0c7,7 17,11 27,11l0 0 1 0 0 0c22,1 44,-16 44,-42 1,-25 -16,-40 -36,-44l-1 0 0 0 0 0 -2 0 0 0c0,0 -1,0 -1,0l-1 0 -1 0c-11,-1 -24,3 -32,13 -4,3 -7,7 -9,12l-3 5c0,0 -1,1 -1,2zm90 214c-33,0 -60,26 -60,59 0,33 27,60 60,60 0,0 1,0 2,0l0 170c0,64 52,116 116,116l278 0c1,1 1,1 2,2 100,120 73,182 73,182 128,-144 108,-173 136,-189 6,-1 11,-3 17,-6l0 0 0 0c40,-19 67,-59 67,-105l0 -170c32,-1 58,-27 58,-60 0,-32 -26,-58 -58,-59l0 -170c0,-64 -52,-116 -117,-116l-456 0c-64,0 -116,52 -116,116l0 170c-1,0 -2,0 -2,0zm-25 -290c3,15 13,24 25,27 4,1 7,2 11,2 7,0 14,-2 19,-6 13,-7 21,-20 16,-40 -3,-13 -12,-21 -22,-25 -4,-1 -8,-2 -13,-2 -8,0 -16,3 -22,8 -10,7 -17,19 -14,36zm124 -69c16,0 29,13 29,29 0,16 -13,29 -29,29 -16,0 -29,-13 -29,-29 0,-16 13,-29 29,-29zm292 22c4,0 7,3 7,7 0,4 -3,7 -7,7 -3,0 -6,-3 -6,-7 0,-4 3,-7 6,-7zm-37 -3c6,0 10,5 10,10 0,5 -4,10 -10,10 -5,0 -9,-5 -9,-10 0,-5 4,-10 9,-10zm-49 -4c8,0 15,6 15,14 0,8 -7,14 -15,14 -7,0 -14,-6 -14,-14 0,-8 7,-14 14,-14zm-54 -3c10,0 18,7 18,17 0,10 -8,17 -18,17 -9,0 -17,-7 -17,-17 0,-10 8,-17 17,-17zm-68 -6c13,0 23,11 23,23 0,12 -10,23 -23,23 -12,0 -22,-11 -22,-23 0,-12 10,-23 22,-23z"/>
   <rect class="fil1" x="135" y="116" width="603" height="604" rx="102" ry="19"/>
   <path class="fil2" d="M237 116l399 0c56,0 102,46 102,102l0 134c-83,67 -188,106 -302,106 -114,0 -219,-39 -301,-106l0 -134c0,-56 46,-102 102,-102z"/>
   <path class="fil3" d="M363 595c1,0 2,1 3,1 85,9 203,-7 260,-78 2,-4 7,-7 12,-7 7,0 14,7 14,15 0,3 -1,5 -2,8l0 0c-52,88 -198,130 -288,90 -8,0 -14,-6 -14,-14 0,-8 7,-15 15,-15z"/>
   <g>
    <g>
     <path class="fil4" d="M369 335c0,27 -22,49 -49,49 -26,0 -48,-22 -48,-49 0,-5 1,-9 2,-14l0 0c-6,-16 -34,0 -54,7 -43,2 31,-55 96,-51 35,1 53,24 53,58z"/>
     <path class="fil5" style="mask:url(#id0)" d="M308 302c9,0 17,7 17,17 0,9 -8,16 -17,16 -9,0 -17,-7 -17,-16 0,-10 8,-17 17,-17z"/>
    </g>
    <g>
     <path class="fil4" d="M653 335c0,27 -22,49 -49,49 -26,0 -48,-22 -48,-49 0,-5 1,-9 2,-14l0 0c-6,-16 -34,0 -54,7 -43,2 31,-55 97,-51 34,1 52,24 52,58z"/>
     <path class="fil5" style="mask:url(#id2)" d="M592 302c9,0 17,7 17,17 0,9 -8,16 -17,16 -9,0 -17,-7 -17,-16 0,-10 8,-17 17,-17z"/>
    </g>
    <path class="fil6" d="M220 212c42,-22 119,-31 144,-5 12,12 9,28 -8,33 -9,3 -22,-2 -37,-6 -18,-5 -66,1 -92,6 -37,6 -39,-11 -7,-28z"/>
    <path class="fil6" d="M653 212c-43,-22 -120,-31 -144,-5 -12,12 -9,28 7,33 10,3 22,-2 38,-6 18,-5 65,1 92,6 36,6 39,-11 7,-28z"/>
   </g>
  </g>
 </g>
</svg>
