<?xml version="1.0" encoding="UTF-8"?>
<!DOCTYPE svg PUBLIC "-//W3C//DTD SVG 1.1//EN" "http://www.w3.org/Graphics/SVG/1.1/DTD/svg11.dtd">
<!-- Creator: CorelDRAW X8 -->
<svg xmlns="http://www.w3.org/2000/svg" xml:space="preserve" width="29.3356mm" height="33.8834mm" version="1.1" style="shape-rendering:geometricPrecision; text-rendering:geometricPrecision; image-rendering:optimizeQuality; fill-rule:evenodd; clip-rule:evenodd"
viewBox="0 0 391 452"
 xmlns:xlink="http://www.w3.org/1999/xlink">
 <defs>
  <style type="text/css">
   <![CDATA[
    .fil4 {fill:#1E203C}
    .fil0 {fill:#2C3D51}
    .fil3 {fill:#771E18}
    .fil6 {fill:#DF8E29}
    .fil1 {fill:#FFBD2D}
    .fil5 {fill:white}
    .fil2 {fill:white;fill-opacity:0.301961}
   ]]>
  </style>
      <mask id="id0">
  <radialGradient id="id1" gradientUnits="userSpaceOnUse" cx="135.204" cy="174.01" r="13.5797" fx="135.204" fy="174.01">
   <stop offset="0" style="stop-opacity:0.45098; stop-color:white"/>
   <stop offset="1" style="stop-opacity:0; stop-color:white"/>
  </radialGradient>
       <rect style="fill:url(#id1)" x="120" y="159" width="18.5151" height="18.5151"/>
      </mask>
      <mask id="id2">
  <radialGradient id="id3" gradientUnits="userSpaceOnUse" cx="269.407" cy="174.01" r="13.5797" fx="269.407" fy="174.01">
   <stop offset="0" style="stop-opacity:0.45098; stop-color:white"/>
   <stop offset="1" style="stop-opacity:0; stop-color:white"/>
  </radialGradient>
       <rect style="fill:url(#id3)" x="254" y="159" width="18.5151" height="18.5151"/>
      </mask>
 </defs>
 <g id="Layer_x0020_1">
  <metadata id="CorelCorpID_0Corel-Layer"/>
  <g id="_2537817537136">
   <path class="fil0" d="M21 239c-12,-4 -21,-16 -21,-29 0,-15 10,-27 24,-31 18,-78 88,-136 171,-136 83,0 153,58 171,136 14,3 25,15 25,31 0,14 -9,26 -22,30 -4,31 -16,61 -34,85l0 0c0,0 17,5 -2,127 0,0 -10,-49 -89,-65l0 0c-15,5 -32,7 -49,7 -90,0 -164,-68 -174,-155z"/>
   <circle class="fil1" cx="195" cy="219" r="156"/>
   <path class="fil2" d="M195 63c67,0 124,42 146,101 -39,44 -90,71 -146,71 -56,0 -108,-27 -146,-71 22,-59 79,-101 146,-101z"/>
   <path class="fil0" d="M48 50c12,0 22,10 22,22 0,13 -10,23 -22,23 -13,0 -23,-10 -23,-23 0,-12 10,-22 23,-22zm218 -28c2,0 3,1 3,3 0,1 -1,3 -3,3 -1,0 -3,-2 -3,-3 0,-2 2,-3 3,-3zm-17 -8c2,0 4,2 4,4 0,3 -2,5 -4,5 -3,0 -5,-2 -5,-5 0,-2 2,-4 5,-4zm-22 -8c3,0 6,3 6,7 0,4 -3,7 -6,7 -4,0 -7,-3 -7,-7 0,-4 3,-7 7,-7zm-26 -5c6,0 10,4 10,10 0,5 -4,9 -10,9 -5,0 -9,-4 -9,-9 0,-6 4,-10 9,-10zm-32 -1c7,0 12,6 12,13 0,7 -5,12 -12,12 -7,0 -13,-5 -13,-12 0,-7 6,-13 13,-13zm-39 4c9,0 16,8 16,17 0,9 -7,17 -16,17 -10,0 -17,-8 -17,-17 0,-9 7,-17 17,-17zm-40 16c11,0 20,8 20,19 0,11 -9,19 -20,19 -11,0 -19,-8 -19,-19 0,-11 8,-19 19,-19z"/>
   <path class="fil3" d="M148 308c0,0 1,0 1,0 43,5 102,-3 131,-39 1,-2 3,-3 6,-3 4,0 7,3 7,7 0,2 0,3 -1,4l0 0c-26,44 -99,66 -144,46 -4,-1 -7,-4 -7,-8 0,-4 3,-7 7,-7z"/>
   <g>
    <g>
     <path class="fil4" d="M158 176c0,13 -10,23 -23,23 -12,0 -22,-10 -22,-23 0,-2 0,-4 1,-6l0 0c-3,-8 -17,0 -26,3 -20,1 15,-26 46,-25 16,1 24,12 24,28z"/>
     <path class="fil5" style="mask:url(#id0)" d="M130 160c4,0 7,4 7,8 0,5 -3,8 -7,8 -5,0 -8,-3 -8,-8 0,-4 3,-8 8,-8z"/>
    </g>
    <g>
     <path class="fil4" d="M292 176c0,13 -10,23 -22,23 -13,0 -23,-10 -23,-23 0,-2 0,-4 1,-6l0 0c-3,-8 -16,0 -26,3 -20,1 15,-26 46,-25 16,1 24,12 24,28z"/>
     <path class="fil5" style="mask:url(#id2)" d="M264 160c4,0 8,4 8,8 0,5 -4,8 -8,8 -5,0 -8,-3 -8,-8 0,-4 3,-8 8,-8z"/>
    </g>
    <path class="fil6" d="M88 118c20,-10 56,-15 68,-3 6,6 4,14 -4,16 -4,1 -10,-1 -17,-3 -9,-2 -31,1 -44,3 -17,3 -18,-5 -3,-13z"/>
    <path class="fil6" d="M293 118c-21,-10 -57,-15 -69,-3 -5,6 -4,14 4,16 5,1 10,-1 18,-3 8,-2 31,1 43,3 17,3 19,-5 4,-13z"/>
   </g>
  </g>
 </g>
</svg>
