<?xml version="1.0" encoding="UTF-8"?>
<!DOCTYPE svg PUBLIC "-//W3C//DTD SVG 1.1//EN" "http://www.w3.org/Graphics/SVG/1.1/DTD/svg11.dtd">
<!-- Creator: CorelDRAW X8 -->
<svg xmlns="http://www.w3.org/2000/svg" xml:space="preserve" width="29.3356mm" height="33.8834mm" version="1.1" style="shape-rendering:geometricPrecision; text-rendering:geometricPrecision; image-rendering:optimizeQuality; fill-rule:evenodd; clip-rule:evenodd"
viewBox="0 0 390 451"
 xmlns:xlink="http://www.w3.org/1999/xlink">
 <defs>
  <style type="text/css">
   <![CDATA[
    .fil0 {fill:#2C3D51}
    .fil6 {fill:#3C0404}
    .fil3 {fill:#3C456E}
    .fil5 {fill:#6F4104}
    .fil1 {fill:#FFBD2D}
    .fil4 {fill:white}
    .fil2 {fill:white;fill-opacity:0.301961}
   ]]>
  </style>
      <mask id="id0">
  <radialGradient id="id1" gradientUnits="userSpaceOnUse" cx="109.459" cy="152.945" r="0" fx="109.459" fy="152.945">
   <stop offset="0" style="stop-opacity:1; stop-color:white"/>
   <stop offset="1" style="stop-opacity:0; stop-color:white"/>
  </radialGradient>
       <rect style="fill:url(#id1)" x="108" y="152" width="26.6849" height="26.6863"/>
      </mask>
      <mask id="id2">
  <radialGradient id="id3" gradientUnits="userSpaceOnUse" cx="241.696" cy="152.945" r="0" fx="241.696" fy="152.945">
   <stop offset="0" style="stop-opacity:1; stop-color:white"/>
   <stop offset="1" style="stop-opacity:0; stop-color:white"/>
  </radialGradient>
       <rect style="fill:url(#id3)" x="240" y="152" width="26.6863" height="26.6863"/>
      </mask>
 </defs>
 <g id="Layer_x0020_1">
  <metadata id="CorelCorpID_0Corel-Layer"/>
  <g id="_2537691818704">
   <path class="fil0" d="M21 239c-12,-5 -21,-16 -21,-30 0,-14 10,-27 24,-30 18,-78 87,-136 171,-136 83,0 152,58 170,136 15,2 25,15 25,30 0,14 -9,26 -21,30 -4,32 -16,61 -35,86l0 0c0,0 17,4 -1,126 0,0 -10,-49 -89,-64l0 0c-16,4 -32,7 -49,7 -90,0 -164,-68 -174,-155z"/>
   <circle class="fil1" cx="195" cy="219" r="156"/>
   <path class="fil2" d="M195 63c66,0 124,42 146,101 -39,44 -90,71 -146,71 -57,0 -108,-27 -147,-71 23,-59 80,-101 147,-101z"/>
   <path class="fil0" d="M47 50c13,0 23,10 23,22 0,13 -10,23 -23,23 -12,0 -22,-10 -22,-23 0,-12 10,-22 22,-22zm219 -28c2,0 3,1 3,3 0,1 -1,3 -3,3 -2,0 -3,-2 -3,-3 0,-2 1,-3 3,-3zm-18 -9c3,0 5,3 5,5 0,3 -2,5 -5,5 -2,0 -4,-2 -4,-5 0,-2 2,-5 4,-5zm-22 -7c4,0 7,3 7,7 0,4 -3,7 -7,7 -3,0 -6,-3 -6,-7 0,-4 3,-7 6,-7zm-25 -5c5,0 10,4 10,10 0,5 -5,9 -10,9 -5,0 -10,-4 -10,-9 0,-6 5,-10 10,-10zm-33 -1c7,0 13,6 13,13 0,6 -6,12 -13,12 -7,0 -12,-6 -12,-12 0,-7 5,-13 12,-13zm-39 4c10,0 17,8 17,17 0,9 -7,17 -17,17 -9,0 -16,-8 -16,-17 0,-9 7,-17 16,-17zm-39 16c11,0 19,8 19,19 0,11 -8,19 -19,19 -11,0 -19,-8 -19,-19 0,-11 8,-19 19,-19z"/>
   <g>
    <g>
     <ellipse class="fil3" cx="129" cy="179" rx="28" ry="35"/>
     <ellipse class="fil3" cx="260" cy="179" rx="28" ry="36"/>
    </g>
    <g>
     <path class="fil4" style="mask:url(#id0)" d="M121 153c7,0 12,5 12,12 0,7 -5,12 -12,12 -6,0 -12,-5 -12,-12 0,-7 6,-12 12,-12z"/>
     <path class="fil4" style="mask:url(#id2)" d="M254 153c6,0 12,5 12,12 0,7 -6,12 -12,12 -7,0 -12,-5 -12,-12 0,-7 5,-12 12,-12z"/>
    </g>
   </g>
   <g>
    <path class="fil5" d="M74 126c4,0 29,7 37,8 26,5 47,6 47,6l0 -16c0,-7 5,-12 12,-12 6,0 11,5 11,12 0,13 0,26 0,39 -41,-2 -73,-3 -109,-25 -3,-1 -4,-3 -4,-6 0,-3 3,-6 6,-6z"/>
    <path class="fil5" d="M315 126c-4,0 -29,7 -36,8 -27,5 -48,6 -48,6l0 -16c0,-7 -5,-12 -12,-12 -6,0 -11,5 -11,12 0,13 0,26 0,39 41,-2 73,-3 110,-25 2,-1 3,-3 3,-6 0,-3 -3,-6 -6,-6z"/>
   </g>
   <path class="fil6" d="M135 308l0 0 0 0 0 0 0 0 0 0 0 0 0 0 0 0 -1 0 0 0 0 0 0 0 0 0 0 0c0,1 -1,1 -1,1l0 0 0 0 0 0 -1 0 0 0 0 0 0 0 0 0 0 0 0 0 0 0 0 0 0 0 0 0 0 0 0 0c-4,0 -6,-3 -6,-6l0 0 0 -1 0 0 0 0 0 0 0 0 0 0 0 0c0,0 0,0 0,-1l0 0c0,0 0,-1 0,-1l0 0 0 0 0 0 0 0 0 -1c1,0 1,0 1,-1l0 0 0 0c0,0 18,-26 64,-26 1,0 2,0 4,0 1,0 2,0 3,0 46,0 64,26 64,26l0 0 0 0c0,1 0,1 1,1l0 1 0 0 0 0 0 0 0 0c0,0 0,1 0,1l0 0c0,1 0,1 1,1l0 0 0 0 0 0 0 0 0 0 0 0 0 1 0 0c0,3 -3,6 -7,6l0 0 0 0 0 0 0 0 0 0 0 0 0 0 0 0 0 0 0 0 0 0 0 0 0 0 0 0 0 0 -1 0c0,0 -1,0 -1,-1l0 0 0 0 0 0 0 0 0 0 0 0 0 0 0 0 0 0 0 0 0 0 0 0 -1 0 0 0 0 0c-3,-1 -28,-13 -56,-14 -1,0 -2,0 -3,0 -2,0 -3,0 -4,0 -28,1 -53,13 -56,14l0 0z"/>
  </g>
 </g>
</svg>
