<?xml version="1.0" encoding="UTF-8"?>
<!DOCTYPE svg PUBLIC "-//W3C//DTD SVG 1.1//EN" "http://www.w3.org/Graphics/SVG/1.1/DTD/svg11.dtd">
<!-- Creator: CorelDRAW X8 -->
<svg xmlns="http://www.w3.org/2000/svg" xml:space="preserve" width="31.564mm" height="35.6728mm" version="1.1" style="shape-rendering:geometricPrecision; text-rendering:geometricPrecision; image-rendering:optimizeQuality; fill-rule:evenodd; clip-rule:evenodd"
viewBox="0 0 836 945"
 xmlns:xlink="http://www.w3.org/1999/xlink">
 <defs>
  <style type="text/css">
   <![CDATA[
    .fil0 {fill:#2C3D51}
    .fil6 {fill:#3C0404}
    .fil3 {fill:#3C456E}
    .fil5 {fill:#6F4104}
    .fil1 {fill:#FEC12B}
    .fil4 {fill:white}
    .fil2 {fill:white;fill-opacity:0.301961}
   ]]>
  </style>
       <mask id="id0">
  <radialGradient id="id1" gradientUnits="userSpaceOnUse" cx="265.584" cy="302.514" r="0" fx="265.584" fy="302.514">
   <stop offset="0" style="stop-opacity:1; stop-color:white"/>
   <stop offset="1" style="stop-opacity:0; stop-color:white"/>
  </radialGradient>
        <rect style="fill:url(#id1)" x="263" y="300" width="53.0977" height="53.1003"/>
       </mask>
       <mask id="id2">
  <radialGradient id="id3" gradientUnits="userSpaceOnUse" cx="528.71" cy="302.514" r="0" fx="528.71" fy="302.514">
   <stop offset="0" style="stop-opacity:1; stop-color:white"/>
   <stop offset="1" style="stop-opacity:0; stop-color:white"/>
  </radialGradient>
        <rect style="fill:url(#id3)" x="526" y="300" width="53.1003" height="53.1003"/>
       </mask>
 </defs>
 <g id="Layer_x0020_1">
  <metadata id="CorelCorpID_0Corel-Layer"/>
  <g id="_2537608303760">
   <path class="fil0" d="M0 144l0 20c1,1 1,2 2,3 1,4 3,9 6,12 1,3 3,5 6,8l1 0 0 0c7,7 17,11 27,12l0 0 0 0 1 0c22,0 43,-16 44,-42 1,-25 -17,-41 -36,-44l-1 0 0 0 0 0 -2 -1 0 0c0,0 -1,0 -1,0l-1 0 -1 0c-12,0 -24,4 -33,13 -3,4 -6,8 -8,12l-3 6c0,-1 -1,1 -1,1zm89 214c-33,0 -59,26 -59,59 0,33 26,60 59,60 1,0 2,0 2,-1l0 170c0,63 53,116 116,116l278 0c0,0 1,1 1,2 101,119 73,181 73,181 128,-143 108,-173 136,-188 5,-2 11,-4 17,-6l0 0 0 0c39,-19 67,-59 67,-105l0 -170c31,-1 57,-27 57,-59 0,-32 -26,-58 -57,-59l0 -169c0,-64 -53,-116 -117,-116l-455 0c-63,0 -116,52 -116,116l0 169c0,0 -1,0 -2,0zm-24 -289c3,15 13,24 25,27 4,1 7,1 11,1 7,0 14,-2 19,-5 12,-7 21,-21 16,-40 -3,-13 -12,-21 -22,-25 -4,-1 -9,-2 -13,-2 -9,0 -16,3 -22,8 -11,7 -17,19 -14,36zm123 -69c16,0 29,13 29,29 0,16 -13,29 -29,29 -16,0 -29,-13 -29,-29 0,-16 13,-29 29,-29zm292 22c4,0 7,3 7,7 0,4 -3,7 -7,7 -4,0 -7,-3 -7,-7 0,-4 3,-7 7,-7zm-37 -3c5,0 10,5 10,10 0,5 -5,10 -10,10 -5,0 -10,-5 -10,-10 0,-5 5,-10 10,-10zm-49 -4c8,0 14,6 14,14 0,8 -6,14 -14,14 -8,0 -14,-6 -14,-14 0,-8 6,-14 14,-14zm-54 -3c10,0 18,7 18,17 0,9 -8,17 -18,17 -9,0 -17,-8 -17,-17 0,-10 8,-17 17,-17zm-68 -6c13,0 23,11 23,23 0,12 -10,22 -23,22 -12,0 -22,-10 -22,-22 0,-12 10,-23 22,-23z"/>
   <rect class="fil1" x="135" y="116" width="601" height="602" rx="101" ry="19"/>
   <path class="fil2" d="M236 116l398 0c56,0 101,46 101,102l0 133c-82,66 -186,106 -300,106 -114,0 -218,-40 -300,-106l0 -133c0,-56 45,-102 101,-102z"/>
   <g>
    <g>
     <g>
      <ellipse class="fil3" cx="305" cy="354" rx="56" ry="69"/>
      <ellipse class="fil3" cx="566" cy="355" rx="55" ry="71"/>
     </g>
     <g>
      <path class="fil4" style="mask:url(#id0)" d="M289 303c14,0 24,10 24,23 0,14 -10,24 -24,24 -13,0 -23,-10 -23,-24 0,-13 10,-23 23,-23z"/>
      <path class="fil4" style="mask:url(#id2)" d="M553 303c13,0 24,10 24,23 0,14 -11,24 -24,24 -14,0 -24,-10 -24,-24 0,-13 10,-23 24,-23z"/>
     </g>
    </g>
    <g>
     <path class="fil5" d="M196 248c6,0 57,15 72,17 53,9 94,11 94,11l0 -32c0,-12 11,-23 23,-23 13,0 23,11 23,23 0,26 0,53 0,79 -81,-5 -146,-7 -218,-49 -4,-2 -8,-7 -8,-12 0,-8 6,-14 14,-14z"/>
     <path class="fil5" d="M674 248c-6,0 -57,15 -72,17 -53,9 -95,11 -95,11l0 -32c0,-12 -10,-23 -23,-23 -12,0 -23,11 -23,23 0,26 1,53 1,79 81,-5 145,-7 218,-49 4,-2 7,-7 7,-12 0,-8 -6,-14 -13,-14z"/>
    </g>
    <path class="fil6" d="M316 611l0 0 0 0 0 0 0 1 0 0 0 0 -1 0 0 0 0 0 0 0 0 0 0 0 0 0 0 0c-1,0 -2,1 -3,1l0 0 0 0 -1 0 0 0 0 0 0 0 0 0 0 0 0 0 0 0 0 0 0 0 -1 0 0 0 0 0 0 0c-7,0 -12,-6 -12,-12l0 -1 0 0 0 0 0 0 0 -1 0 0 0 0 0 0c0,-1 0,-1 0,-1l0 0c0,-1 1,-2 1,-3l0 0 0 0 0 0 0 -1 0 0c1,-1 2,-1 2,-2l0 0 0 0c0,0 36,-52 126,-52 3,0 5,0 8,0 2,0 5,0 8,0 90,0 125,52 125,52l0 0 1 0c0,1 1,1 1,2l0 0 1 1 0 0 0 0 0 0c0,1 1,2 1,3l0 0c0,0 0,0 0,1l0 0 0 0 0 0 0 1 0 0 0 0 0 0 0 1c0,6 -5,12 -12,12l0 0 0 0 0 0 -1 0 0 0 0 0 0 0 0 0 0 0 0 0 0 0 -1 0 0 0 0 0 0 0 0 0c-1,0 -2,-1 -3,-1l0 0 0 0 0 0 -1 0 0 0 0 0 0 0 0 0 0 0 0 0 0 -1 0 0 0 0 0 0 0 0c-7,-3 -56,-27 -111,-29 -3,0 -5,0 -8,0 -3,0 -5,0 -8,0 -55,2 -105,26 -111,29l0 0z"/>
   </g>
  </g>
 </g>
</svg>
