<?xml version="1.0" encoding="UTF-8"?>
<!DOCTYPE svg PUBLIC "-//W3C//DTD SVG 1.1//EN" "http://www.w3.org/Graphics/SVG/1.1/DTD/svg11.dtd">
<!-- Creator: CorelDRAW X8 -->
<svg xmlns="http://www.w3.org/2000/svg" xml:space="preserve" width="31.564mm" height="35.6728mm" version="1.1" style="shape-rendering:geometricPrecision; text-rendering:geometricPrecision; image-rendering:optimizeQuality; fill-rule:evenodd; clip-rule:evenodd"
viewBox="0 0 825 932"
 xmlns:xlink="http://www.w3.org/1999/xlink">
 <defs>
  <style type="text/css">
   <![CDATA[
    .fil5 {fill:#231F20}
    .fil0 {fill:#2C3D51}
    .fil7 {fill:#3C0404}
    .fil3 {fill:#6F4104}
    .fil6 {fill:#918F90}
    .fil9 {fill:#E6E6E6}
    .fil8 {fill:#EF8A86}
    .fil4 {fill:#F2EFEE}
    .fil1 {fill:#FEC12B}
    .fil2 {fill:white;fill-opacity:0.301961}
   ]]>
  </style>
     <mask id="id0">
  <linearGradient id="id1" gradientUnits="userSpaceOnUse" x1="385.703" y1="592.502" x2="372.577" y2="715.503">
   <stop offset="0" style="stop-opacity:0; stop-color:white"/>
   <stop offset="1" style="stop-opacity:1; stop-color:white"/>
  </linearGradient>
      <rect style="fill:url(#id1)" x="327" y="579" width="116" height="102"/>
     </mask>
 </defs>
 <g id="Layer_x0020_1">
  <metadata id="CorelCorpID_0Corel-Layer"/>
  <g id="_2537691796880">
   <path class="fil0" d="M0 142l0 19c1,2 1,3 2,4 1,4 3,8 6,12 1,2 3,5 6,8l0 0 0 0c8,6 17,11 28,11l0 0 0 0 0 0c22,0 43,-16 44,-42 0,-24 -16,-39 -36,-43l-1 0 0 0 0 0 -1 0 -1 0c0,0 0,0 -1,0l0 0 -1 0c-12,-1 -24,3 -33,13 -3,3 -6,7 -8,12l-3 5c0,-1 -1,1 -1,1zm88 211c-32,0 -59,26 -59,58 0,33 27,59 59,59 1,0 1,0 2,0l0 167c0,63 52,114 115,114l273 0c1,1 1,2 2,2 99,118 71,179 71,179 126,-141 107,-170 134,-185 6,-2 12,-4 17,-7l0 0 0 0c39,-18 66,-58 66,-103l0 -167c31,-1 57,-27 57,-59 0,-31 -26,-57 -57,-58l0 -167c0,-63 -52,-114 -115,-114l-448 0c-63,0 -115,51 -115,114l0 167c-1,0 -1,0 -2,0zm-24 -285c3,15 13,24 25,26 3,1 7,2 10,2 7,0 14,-2 19,-5 13,-7 21,-21 16,-40 -3,-13 -12,-21 -22,-24 -4,-2 -8,-2 -13,-2 -8,0 -15,2 -21,7 -10,7 -17,20 -14,36zm122 -68c16,0 28,13 28,29 0,15 -12,28 -28,28 -16,0 -29,-13 -29,-28 0,-16 13,-29 29,-29zm287 22c4,0 7,3 7,7 0,3 -3,6 -7,6 -3,0 -6,-3 -6,-6 0,-4 3,-7 6,-7zm-36 -3c5,0 10,4 10,10 0,5 -5,9 -10,9 -5,0 -10,-4 -10,-9 0,-6 5,-10 10,-10zm-48 -4c7,0 14,6 14,14 0,7 -7,13 -14,13 -8,0 -14,-6 -14,-13 0,-8 6,-14 14,-14zm-53 -3c9,0 17,7 17,17 0,9 -8,17 -17,17 -10,0 -17,-8 -17,-17 0,-10 7,-17 17,-17zm-67 -6c12,0 22,10 22,23 0,12 -10,22 -22,22 -13,0 -22,-10 -22,-22 0,-13 9,-23 22,-23z"/>
   <rect class="fil1" x="133" y="114" width="592" height="594" rx="100" ry="19"/>
   <path class="fil2" d="M233 114l392 0c55,0 100,46 100,101l0 131c-81,66 -184,105 -296,105 -112,0 -215,-39 -296,-105l0 -131c0,-55 45,-101 100,-101z"/>
   <g>
    <g>
     <path class="fil3" d="M317 177c5,0 9,4 9,9 0,5 -4,9 -9,9 0,0 -33,5 -65,37 -32,32 -32,32 -32,32 0,0 6,-53 45,-71 40,-17 52,-16 52,-16z"/>
     <path class="fil3" d="M636 248c-12,-1 -88,-13 -110,-52 -1,-3 -4,-6 -8,-6 -5,0 -9,4 -9,9 0,3 1,5 3,7 26,39 66,64 124,42z"/>
    </g>
    <g>
     <g>
      <path class="fil4" d="M638 319c-9,39 -44,69 -86,69 -48,0 -88,-40 -88,-88 0,-13 -2,-32 4,-43 31,-5 156,23 170,62z"/>
      <path class="fil5" d="M567 387c-5,0 -10,1 -15,1 -19,0 -37,-6 -51,-17 -2,-4 -2,-8 -2,-13 0,-22 18,-40 40,-40 22,0 40,18 40,40 0,11 -5,21 -12,29z"/>
      <circle class="fil6" cx="535" cy="364" r="19"/>
     </g>
     <path class="fil4" d="M221 307c9,40 44,69 86,69 48,0 88,-39 88,-88 0,-13 2,-31 -3,-43 -32,-4 -157,23 -171,62z"/>
     <path class="fil5" d="M347 249c-20,3 -43,9 -64,17 -2,4 -3,8 -3,12 0,23 18,41 41,41 22,0 40,-18 40,-41 0,-11 -6,-22 -14,-29z"/>
     <circle class="fil6" cx="324" cy="273" r="19"/>
    </g>
   </g>
   <g>
    <path class="fil7" d="M271 541c4,0 8,2 10,5 5,7 39,47 96,39 37,-6 80,-18 116,-1 33,15 87,16 105,-20 -11,53 -55,61 -101,48 -28,-8 -50,-22 -94,-11 -52,13 -107,8 -139,-40 -3,-2 -4,-5 -4,-9 0,-6 5,-11 11,-11z"/>
    <path class="fil8" d="M325 585c-34,53 9,106 53,109 33,2 76,-21 72,-113 -25,0 -50,6 -73,9 -20,3 -38,0 -52,-5z"/>
    <path class="fil9" style="mask:url(#id0)" d="M382 636c7,-8 11,-38 12,-49 15,-2 31,-5 46,-6 -6,159 -143,92 -103,8 12,3 25,4 40,1 2,0 3,0 5,0 -1,12 -4,35 0,46z"/>
   </g>
  </g>
 </g>
</svg>
