<?xml version="1.0" encoding="UTF-8"?>
<!DOCTYPE svg PUBLIC "-//W3C//DTD SVG 1.1//EN" "http://www.w3.org/Graphics/SVG/1.1/DTD/svg11.dtd">
<!-- Creator: CorelDRAW X8 -->
<svg xmlns="http://www.w3.org/2000/svg" xml:space="preserve" width="29.3356mm" height="33.8834mm" version="1.1" style="shape-rendering:geometricPrecision; text-rendering:geometricPrecision; image-rendering:optimizeQuality; fill-rule:evenodd; clip-rule:evenodd"
viewBox="0 0 388 448"
 xmlns:xlink="http://www.w3.org/1999/xlink">
 <defs>
  <style type="text/css">
   <![CDATA[
    .fil5 {fill:#231F20}
    .fil0 {fill:#2C3D51}
    .fil7 {fill:#3C0404}
    .fil3 {fill:#6F4104}
    .fil6 {fill:#918F90}
    .fil9 {fill:#E6E6E6}
    .fil8 {fill:#EF8A86}
    .fil4 {fill:#F2EFEE}
    .fil1 {fill:#FFBD2D}
    .fil2 {fill:white;fill-opacity:0.301961}
   ]]>
  </style>
     <mask id="id0">
  <linearGradient id="id1" gradientUnits="userSpaceOnUse" x1="171.218" y1="301.026" x2="164.58" y2="363.229">
   <stop offset="0" style="stop-opacity:0; stop-color:white"/>
   <stop offset="1" style="stop-opacity:1; stop-color:white"/>
  </linearGradient>
      <rect style="fill:url(#id1)" x="142" y="294" width="58.4735" height="51.4148"/>
     </mask>
 </defs>
 <g id="Layer_x0020_1">
  <metadata id="CorelCorpID_0Corel-Layer"/>
  <g id="_2537696216464">
   <path class="fil0" d="M20 237c-12,-4 -20,-16 -20,-29 0,-15 10,-27 24,-30 18,-77 87,-135 169,-135 83,0 152,57 169,134 15,3 26,16 26,31 0,14 -10,25 -22,29 -4,32 -16,61 -34,85l0 0c0,0 17,5 -2,126 0,0 -10,-49 -88,-64l0 0c-15,4 -32,7 -49,7 -89,0 -163,-67 -173,-154z"/>
   <circle class="fil1" cx="193" cy="217" r="155"/>
   <path class="fil2" d="M193 62c67,0 123,42 145,101 -38,43 -89,70 -145,70 -56,0 -106,-27 -145,-70 22,-59 79,-101 145,-101z"/>
   <path class="fil0" d="M47 49c13,0 23,10 23,23 0,12 -10,22 -23,22 -12,0 -23,-10 -23,-22 0,-13 11,-23 23,-23zm217 -28c2,0 3,2 3,3 0,2 -1,4 -3,4 -2,0 -3,-2 -3,-4 0,-1 1,-3 3,-3zm-18 -8c3,0 5,2 5,5 0,2 -2,4 -5,4 -2,0 -4,-2 -4,-4 0,-3 2,-5 4,-5zm-21 -7c3,0 6,3 6,7 0,4 -3,7 -6,7 -4,0 -7,-3 -7,-7 0,-4 3,-7 7,-7zm-26 -5c6,0 10,4 10,9 0,6 -4,10 -10,10 -5,0 -9,-4 -9,-10 0,-5 4,-9 9,-9zm-32 -1c7,0 13,6 13,12 0,7 -6,13 -13,13 -7,0 -12,-6 -12,-13 0,-6 5,-12 12,-12zm-39 4c10,0 17,8 17,17 0,9 -7,16 -17,16 -9,0 -16,-7 -16,-16 0,-9 7,-17 16,-17zm-39 15c11,0 20,9 20,20 0,10 -9,19 -20,19 -10,0 -19,-9 -19,-19 0,-11 9,-20 19,-20z"/>
   <g>
    <g>
     <path class="fil3" d="M137 94c2,0 4,2 4,5 0,2 -2,4 -4,4 0,0 -17,3 -33,19 -16,16 -16,16 -16,16 0,0 2,-27 22,-36 20,-8 27,-8 27,-8z"/>
     <path class="fil3" d="M298 130c-6,0 -45,-6 -56,-26 0,-2 -2,-3 -4,-3 -2,0 -4,2 -4,5 0,1 0,2 1,3 13,20 34,32 63,21z"/>
    </g>
    <g>
     <g>
      <path class="fil4" d="M299 166c-5,20 -22,35 -44,35 -24,0 -44,-20 -44,-45 0,-6 -1,-16 2,-21 16,-3 79,11 86,31z"/>
      <path class="fil5" d="M263 200c-3,1 -5,1 -8,1 -9,0 -18,-3 -26,-9 0,-2 -1,-4 -1,-6 0,-11 9,-20 21,-20 11,0 20,9 20,20 0,5 -2,10 -6,14z"/>
      <circle class="fil6" cx="247" cy="189" r="10"/>
     </g>
     <path class="fil4" d="M88 160c5,20 22,35 43,35 25,0 45,-20 45,-45 0,-6 1,-16 -2,-21 -16,-3 -79,11 -86,31z"/>
     <path class="fil5" d="M152 130c-10,2 -22,5 -33,9 -1,2 -1,4 -1,7 0,11 9,20 20,20 11,0 21,-9 21,-20 0,-6 -3,-12 -7,-16z"/>
     <circle class="fil6" cx="140" cy="143" r="10"/>
    </g>
   </g>
   <g>
    <path class="fil7" d="M113 275c2,0 4,1 5,3 3,3 20,24 49,19 19,-3 40,-9 58,0 17,8 44,8 54,-11 -6,27 -28,31 -51,25 -15,-4 -26,-11 -48,-6 -26,7 -54,4 -71,-20 -1,-1 -2,-3 -2,-4 0,-4 3,-6 6,-6z"/>
    <path class="fil8" d="M141 297c-18,27 4,54 26,55 17,1 39,-10 37,-57 -13,0 -25,3 -37,5 -10,1 -19,0 -26,-3z"/>
    <path class="fil9" style="mask:url(#id0)" d="M169 323c4,-4 6,-19 7,-25 7,-1 15,-2 23,-3 -4,81 -73,47 -52,4 6,2 12,2 20,1 1,0 2,0 2,0 0,6 -1,17 0,23z"/>
   </g>
  </g>
 </g>
</svg>
