<?xml version="1.0" encoding="UTF-8"?>
<!DOCTYPE svg PUBLIC "-//W3C//DTD SVG 1.1//EN" "http://www.w3.org/Graphics/SVG/1.1/DTD/svg11.dtd">
<!-- Creator: CorelDRAW X8 -->
<svg xmlns="http://www.w3.org/2000/svg" xml:space="preserve" width="31.564mm" height="35.6728mm" version="1.1" style="shape-rendering:geometricPrecision; text-rendering:geometricPrecision; image-rendering:optimizeQuality; fill-rule:evenodd; clip-rule:evenodd"
viewBox="0 0 851 962"
 xmlns:xlink="http://www.w3.org/1999/xlink">
 <defs>
  <style type="text/css">
   <![CDATA[
    .fil3 {fill:#2A1304}
    .fil0 {fill:#2C3D51}
    .fil1 {fill:#FEC12B}
    .fil2 {fill:white;fill-opacity:0.301961}
   ]]>
  </style>
 </defs>
 <g id="Layer_x0020_1">
  <metadata id="CorelCorpID_0Corel-Layer"/>
  <g id="_2537743644272">
   <path class="fil0" d="M0 147l0 20c1,1 1,2 2,3 1,4 3,9 6,13 1,2 3,5 7,8l0 0 0 0c7,7 17,11 28,11l0 0 0 0 0 0c23,1 45,-16 46,-43 0,-25 -17,-41 -37,-44l-1 0 0 0 0 0 -2 -1 0 0c0,0 -1,0 -1,0l-1 0 -1 0c-12,0 -24,4 -33,14 -4,3 -7,7 -9,12l-3 5c0,0 -1,1 -1,2zm91 217c-34,0 -61,27 -61,61 0,33 27,60 61,60 1,0 1,0 2,0l0 172c0,65 53,118 118,118l283 0c0,1 1,2 1,2 102,122 74,185 74,185 130,-146 110,-176 138,-191 6,-2 12,-4 18,-7l0 0 0 0c40,-19 68,-60 68,-107l0 -172c32,-1 58,-28 58,-60 0,-33 -26,-60 -58,-61l0 -172c0,-65 -54,-118 -119,-118l-463 0c-65,0 -118,53 -118,118l0 172c-1,0 -1,0 -2,0zm-25 -294c3,16 14,24 26,28 3,1 7,1 11,1 7,0 14,-2 19,-6 13,-6 21,-20 16,-40 -3,-13 -12,-22 -22,-25 -4,-2 -9,-3 -13,-3 -9,0 -17,3 -23,8 -10,8 -17,20 -14,37zm126 -70c16,0 29,13 29,29 0,17 -13,30 -29,30 -17,0 -30,-13 -30,-30 0,-16 13,-29 30,-29zm297 22c3,0 7,4 7,7 0,4 -4,7 -7,7 -4,0 -7,-3 -7,-7 0,-3 3,-7 7,-7zm-38 -2c5,0 10,4 10,9 0,6 -5,10 -10,10 -5,0 -10,-4 -10,-10 0,-5 5,-9 10,-9zm-50 -5c8,0 15,7 15,14 0,8 -7,15 -15,15 -8,0 -14,-7 -14,-15 0,-7 6,-14 14,-14zm-55 -3c10,0 18,8 18,17 0,10 -8,18 -18,18 -9,0 -17,-8 -17,-18 0,-9 8,-17 17,-17zm-69 -5c13,0 23,10 23,22 0,13 -10,23 -23,23 -12,0 -23,-10 -23,-23 0,-12 11,-22 23,-22z"/>
   <rect class="fil1" x="137" y="118" width="611" height="613" rx="103" ry="19"/>
   <path class="fil2" d="M240 118l405 0c57,0 103,47 103,103l0 136c-83,68 -189,108 -305,108 -116,0 -222,-40 -306,-108l0 -136c0,-56 47,-103 103,-103z"/>
   <g>
    <path class="fil3" d="M287 187c49,0 89,60 89,133 0,18 -3,36 -7,52 -14,-48 -45,-81 -82,-81 -36,0 -68,33 -81,81 -5,-16 -7,-34 -7,-52 0,-73 39,-133 88,-133z"/>
    <path class="fil3" d="M595 187c49,0 89,60 89,133 0,18 -3,36 -7,52 -14,-48 -45,-81 -82,-81 -36,0 -67,33 -81,81 -4,-16 -7,-34 -7,-52 0,-73 40,-133 88,-133z"/>
    <path class="fil3" d="M700 527c-32,78 -135,135 -257,135l0 0 -1 0c-122,0 -225,-57 -257,-135l1 -1c0,-1 -1,-2 -1,-3l15 -14c42,54 135,92 243,92 108,0 201,-38 243,-92l14 14c0,1 0,2 -1,3l1 1z"/>
   </g>
  </g>
 </g>
</svg>
