<?xml version="1.0" encoding="UTF-8"?>
<!DOCTYPE svg PUBLIC "-//W3C//DTD SVG 1.1//EN" "http://www.w3.org/Graphics/SVG/1.1/DTD/svg11.dtd">
<!-- Creator: CorelDRAW X8 -->
<svg xmlns="http://www.w3.org/2000/svg" xml:space="preserve" width="29.3356mm" height="33.8834mm" version="1.1" style="shape-rendering:geometricPrecision; text-rendering:geometricPrecision; image-rendering:optimizeQuality; fill-rule:evenodd; clip-rule:evenodd"
viewBox="0 0 394 455"
 xmlns:xlink="http://www.w3.org/1999/xlink">
 <defs>
  <style type="text/css">
   <![CDATA[
    .fil3 {fill:#2A1304}
    .fil0 {fill:#2C3D51}
    .fil1 {fill:#FFBD2D}
    .fil2 {fill:white;fill-opacity:0.301961}
   ]]>
  </style>
 </defs>
 <g id="Layer_x0020_1">
  <metadata id="CorelCorpID_0Corel-Layer"/>
  <g id="_2537701136240">
   <path class="fil0" d="M21 241c-12,-4 -21,-16 -21,-30 0,-15 10,-27 24,-30 18,-79 89,-137 172,-137 84,0 154,58 173,136 14,3 25,16 25,31 0,14 -9,26 -22,30 -4,33 -16,62 -35,87l0 0c0,0 18,5 -1,127 0,0 -10,-49 -90,-65l0 0c-16,5 -32,8 -50,8 -90,0 -165,-69 -175,-157z"/>
   <circle class="fil1" cx="196" cy="221" r="157"/>
   <path class="fil2" d="M196 63c68,0 126,43 148,103 -39,44 -91,71 -148,71 -56,0 -108,-27 -147,-71 22,-60 80,-103 147,-103z"/>
   <path class="fil0" d="M48 50c13,0 23,10 23,23 0,13 -10,23 -23,23 -13,0 -23,-10 -23,-23 0,-13 10,-23 23,-23zm220 -28c2,0 4,1 4,3 0,2 -2,3 -4,3 -1,0 -3,-1 -3,-3 0,-2 2,-3 3,-3zm-17 -8c2,0 4,2 4,4 0,3 -2,5 -4,5 -3,0 -5,-2 -5,-5 0,-2 2,-4 5,-4zm-23 -8c4,0 7,3 7,7 0,4 -3,7 -7,7 -3,0 -6,-3 -6,-7 0,-4 3,-7 6,-7zm-25 -5c5,0 10,4 10,10 0,5 -5,9 -10,9 -6,0 -10,-4 -10,-9 0,-6 4,-10 10,-10zm-33 -1c7,0 13,6 13,13 0,7 -6,12 -13,12 -7,0 -13,-5 -13,-12 0,-7 6,-13 13,-13zm-39 4c9,0 17,8 17,17 0,9 -8,17 -17,17 -10,0 -17,-8 -17,-17 0,-9 7,-17 17,-17zm-40 16c11,0 19,9 19,19 0,11 -8,20 -19,20 -11,0 -20,-9 -20,-20 0,-10 9,-19 20,-19z"/>
   <g>
    <path class="fil3" d="M119 102c24,0 44,30 44,66 0,10 -1,18 -3,26 -7,-23 -23,-40 -41,-40 -18,0 -34,17 -41,40 -2,-8 -3,-16 -3,-26 0,-36 20,-66 44,-66z"/>
    <path class="fil3" d="M273 102c24,0 44,30 44,66 0,10 -2,18 -4,26 -7,-23 -22,-40 -40,-40 -19,0 -34,17 -41,40 -2,-8 -4,-16 -4,-26 0,-36 20,-66 45,-66z"/>
    <path class="fil3" d="M325 272c-16,39 -67,67 -128,67l-1 0 0 0c-61,0 -112,-28 -128,-67l1 -1c-1,0 -1,-1 -1,-1l7 -7c21,27 68,45 121,46 54,-1 101,-19 122,-46l7 7c0,0 -1,1 -1,1l1 1z"/>
   </g>
  </g>
 </g>
</svg>
