<?xml version="1.0" encoding="UTF-8"?>
<!DOCTYPE svg PUBLIC "-//W3C//DTD SVG 1.1//EN" "http://www.w3.org/Graphics/SVG/1.1/DTD/svg11.dtd">
<!-- Creator: CorelDRAW -->
<svg xmlns="http://www.w3.org/2000/svg" xml:space="preserve" width="0.47352in" height="0.48in" version="1.1" style="shape-rendering:geometricPrecision; text-rendering:geometricPrecision; image-rendering:optimizeQuality; fill-rule:evenodd; clip-rule:evenodd"
viewBox="0 0 111.36 112.88"
 xmlns:xlink="http://www.w3.org/1999/xlink"
 xmlns:xodm="http://www.corel.com/coreldraw/odm/2003">
 <defs>
  <style type="text/css">
   <![CDATA[
    .fil0 {fill:#373435}
   ]]>
  </style>
 </defs>
 <g id="Layer_x0020_1">
  <metadata id="CorelCorpID_0Corel-Layer"/>
  <path class="fil0" d="M55.68 0c30.75,0 55.68,25.27 55.68,56.44 0,31.17 -24.93,56.44 -55.68,56.44 -30.75,0 -55.68,-25.27 -55.68,-56.44 0,-31.17 24.93,-56.44 55.68,-56.44zm10.22 46.17c0,-3.68 0.66,-6.26 1.99,-7.73 1.33,-1.47 3.35,-2.21 6.06,-2.21 1.3,0 2.38,0.16 3.21,0.48 0.84,0.32 1.52,0.74 2.05,1.25 0.53,0.51 0.95,1.06 1.25,1.62 0.31,0.57 0.55,1.23 0.74,1.99 0.36,1.44 0.54,2.95 0.54,4.52 0,3.52 -0.6,6.09 -1.79,7.72 -1.19,1.63 -3.24,2.45 -6.15,2.45 -1.63,0 -2.95,-0.26 -3.95,-0.78 -1.01,-0.52 -1.83,-1.28 -2.47,-2.29 -0.46,-0.71 -0.83,-1.69 -1.09,-2.92 -0.26,-1.24 -0.39,-2.61 -0.39,-4.11zm5.33 0.01c0,2.46 0.22,4.15 0.65,5.06 0.44,0.9 1.07,1.35 1.9,1.35 0.55,0 1.02,-0.19 1.42,-0.57 0.4,-0.38 0.69,-0.99 0.88,-1.82 0.19,-0.83 0.28,-2.12 0.28,-3.87 0,-2.57 -0.22,-4.3 -0.65,-5.19 -0.44,-0.88 -1.09,-1.33 -1.96,-1.33 -0.89,0 -1.54,0.45 -1.93,1.35 -0.4,0.9 -0.6,2.58 -0.6,5.02zm-7.8 -5.27l-5.36 0.65c-0.14,-0.74 -0.37,-1.27 -0.7,-1.57 -0.33,-0.31 -0.74,-0.46 -1.22,-0.46 -0.87,0 -1.55,0.44 -2.03,1.32 -0.35,0.64 -0.61,1.99 -0.78,4.07 0.65,-0.65 1.3,-1.14 1.98,-1.45 0.68,-0.31 1.46,-0.47 2.35,-0.47 1.73,0 3.19,0.62 4.38,1.85 1.2,1.24 1.79,2.8 1.79,4.7 0,1.28 -0.3,2.45 -0.91,3.51 -0.6,1.06 -1.44,1.86 -2.51,2.4 -1.07,0.54 -2.41,0.81 -4.03,0.81 -1.94,0 -3.49,-0.33 -4.67,-0.99 -1.17,-0.66 -2.11,-1.72 -2.81,-3.16 -0.7,-1.45 -1.05,-3.37 -1.05,-5.76 0,-3.5 0.74,-6.06 2.21,-7.69 1.47,-1.62 3.51,-2.44 6.12,-2.44 1.54,0 2.76,0.18 3.66,0.53 0.89,0.36 1.64,0.88 2.23,1.56 0.59,0.69 1.04,1.55 1.35,2.59zm-9.92 8.64c0,1.05 0.27,1.87 0.79,2.47 0.53,0.6 1.18,0.89 1.95,0.89 0.71,0 1.3,-0.27 1.78,-0.81 0.47,-0.54 0.71,-1.34 0.71,-2.41 0,-1.09 -0.25,-1.93 -0.74,-2.5 -0.5,-0.57 -1.11,-0.86 -1.84,-0.86 -0.75,0 -1.38,0.28 -1.89,0.84 -0.51,0.55 -0.76,1.35 -0.76,2.38zm-18.52 -7.39l-5.09 -0.91c0.42,-1.62 1.23,-2.86 2.44,-3.73 1.2,-0.86 2.9,-1.3 5.1,-1.3 2.53,0 4.35,0.47 5.48,1.41 1.12,0.94 1.69,2.13 1.69,3.56 0,0.84 -0.23,1.59 -0.69,2.27 -0.46,0.68 -1.14,1.27 -2.06,1.78 0.75,0.19 1.32,0.4 1.72,0.65 0.65,0.4 1.14,0.92 1.5,1.57 0.36,0.65 0.54,1.42 0.54,2.32 0,1.13 -0.29,2.21 -0.88,3.25 -0.59,1.03 -1.44,1.83 -2.55,2.39 -1.11,0.56 -2.57,0.84 -4.38,0.84 -1.76,0 -3.15,-0.21 -4.17,-0.62 -1.02,-0.41 -1.86,-1.02 -2.51,-1.82 -0.65,-0.8 -1.16,-1.81 -1.51,-3.01l5.39 -0.72c0.21,1.09 0.54,1.85 0.98,2.27 0.44,0.42 1.01,0.63 1.7,0.63 0.72,0 1.32,-0.27 1.8,-0.79 0.48,-0.53 0.72,-1.23 0.72,-2.12 0,-0.9 -0.23,-1.59 -0.69,-2.09 -0.46,-0.49 -1.09,-0.74 -1.88,-0.74 -0.42,0 -1,0.1 -1.74,0.32l0.28 -3.85c0.29,0.04 0.52,0.07 0.69,0.07 0.7,0 1.28,-0.23 1.74,-0.67 0.46,-0.45 0.7,-0.97 0.7,-1.59 0,-0.59 -0.18,-1.06 -0.52,-1.41 -0.35,-0.35 -0.84,-0.53 -1.44,-0.53 -0.63,0 -1.14,0.19 -1.54,0.57 -0.39,0.38 -0.66,1.05 -0.8,2zm52.03 4.87c0,0 9.41,5.49 6.27,7.84 -3.13,2.35 -7.06,-0.78 -7.06,-0.78l0.78 -7.06zm-62.71 0c0,0 -9.41,5.49 -6.27,7.84 3.13,2.35 7.06,-0.78 7.06,-0.78l-0.78 -7.06zm-10.97 8.62l0 7.06c0,0 7.05,6.27 14.89,7.06 7.84,0.78 10.98,0.78 10.98,0.78l0 6.27 10.97 -8.62 -10.97 -9.41 0 4.7c0,0 -4.7,1.57 -14.11,-1.57 -9.41,-3.14 -11.76,-6.27 -11.76,-6.27zm84.66 0l0 7.06c0,0 -7.05,6.27 -14.89,7.06 -7.84,0.78 -10.98,0.78 -10.98,0.78l0 6.27 -10.97 -8.62 10.97 -9.41 0 4.7c0,0 4.7,1.57 14.11,-1.57 9.41,-3.14 11.76,-6.27 11.76,-6.27zm-11.24 -19.6c2.02,0 3.66,1.23 3.66,2.74 0,1.51 -1.64,2.74 -3.66,2.74 -2.02,0 -3.66,-1.23 -3.66,-2.74 0,-1.51 1.64,-2.74 3.66,-2.74zm-31.09 -32.92c29.04,0 52.59,23.87 52.59,53.31 0,29.44 -23.54,53.31 -52.59,53.31 -29.04,0 -52.59,-23.87 -52.59,-53.31 0,-29.44 23.54,-53.31 52.59,-53.31z"/>
 </g>
</svg>
