<?xml version="1.0" encoding="UTF-8"?>
<!DOCTYPE svg PUBLIC "-//W3C//DTD SVG 1.1//EN" "http://www.w3.org/Graphics/SVG/1.1/DTD/svg11.dtd">
<!-- Creator: CorelDRAW -->
<svg xmlns="http://www.w3.org/2000/svg" xml:space="preserve" width="0.630567in" height="0.657374in" version="1.1" style="shape-rendering:geometricPrecision; text-rendering:geometricPrecision; image-rendering:optimizeQuality; fill-rule:evenodd; clip-rule:evenodd"
viewBox="0 0 630.57 657.37"
 xmlns:xlink="http://www.w3.org/1999/xlink"
 xmlns:xodm="http://www.corel.com/coreldraw/odm/2003">
 <defs>
  <style type="text/css">
   <![CDATA[
    .fil0 {fill:#014645}
    .fil12 {fill:#022B37}
    .fil14 {fill:#047176}
    .fil13 {fill:#05548D}
    .fil15 {fill:#093071}
    .fil10 {fill:#09694F}
    .fil5 {fill:#0B7B18}
    .fil24 {fill:#15292D}
    .fil17 {fill:#163B38}
    .fil22 {fill:#6F9250}
    .fil18 {fill:#70352E}
    .fil1 {fill:#859111}
    .fil20 {fill:#889526}
    .fil21 {fill:#92AA30}
    .fil8 {fill:#98331B}
    .fil2 {fill:#C63717}
    .fil6 {fill:#D04912}
    .fil16 {fill:#D72B17}
    .fil25 {fill:#D8EFEC}
    .fil19 {fill:#E79F6D}
    .fil23 {fill:#EAF6D8}
    .fil11 {fill:#EBE5B7}
    .fil9 {fill:#F6C909}
    .fil3 {fill:#FBC943}
    .fil4 {fill:#FDE0AC}
    .fil7 {fill:#FDEBC2}
   ]]>
  </style>
 </defs>
 <g id="Layer_x0020_1">
  <metadata id="CorelCorpID_0Corel-Layer"/>
  <g id="_2150601353584">
   <path class="fil0" d="M335.66 545.61l5.2 -0.54 0.21 23.81 -5.3 -0.04 -0.12 -23.23zm-92.69 -0.38l5.05 -0.11 0.08 23.78 -4.98 0.14 -0.14 -23.81zm-19.54 0.03l4.92 -0.1 0.26 19.18 9.83 0.31 -0.24 4.19 -14.72 0.24 -0.04 -23.81zm-60.8 23.83l-4.47 0.05c0.29,-2.76 5.8,-21.02 7.26,-23.71l6.26 -0.31c1.47,4.15 7.08,19.64 7.08,23.9l-4.94 0.07c-3.09,-5.01 1.91,-5.11 -8.39,-5.13 -1.4,2.02 -1.74,3.52 -2.8,5.13zm285.3 -7.82c-1.64,-6.43 0.24,-14.13 5.2,-15.9 16.02,-5.7 17.79,19.2 8.39,23.13 -5.43,2.28 -11.54,0.8 -13.58,-7.24zm-188.35 7.57l-5.32 0.28 -0.07 -23.89 4.95 -0.17c2.01,2.44 7.02,12.53 8.7,13.75l0.72 -13.41 4.38 -0.16 0.19 23.58c-9.46,1.4 -6.83,-8.34 -13.58,-12.18l0.04 12.19zm-108.56 -9.67c0.91,3.78 3.7,5.36 4.08,9.89l-5.06 0.09c-1.79,-2.49 -1.82,-2.66 -2.98,-5.63 -1.03,-2.63 -2,-4.44 -4.27,-3.87l-0.44 9.34 -5.36 -0.08 -0.06 -23.56c11.71,-1.07 23.87,0.54 14.09,13.82zm201.33 9.76l-4.63 0.2 0.12 -23.85 5.03 -0.1c1.26,2.28 7.71,12.3 8.01,13.73l0.15 -13.71 5.14 -0.14 0.15 23.87 -5.09 -0.09c-1.63,-2.92 -7.19,-13.29 -8.77,-14.26l-0.12 14.34zm144.56 -15.16l-4.39 -0.18c2.51,-13.37 13.91,-8.6 15.94,-5.97 5.5,7.13 -5.79,14.02 -8.01,16.95l9.48 0.08 -0.33 4.29 -16.24 0.11c-0.36,-11.06 13.45,-11.26 10.54,-19l-4.73 -0.67 -2.26 4.39zm-21.68 -0.09l-4.2 0.05c0.54,-12.32 13.21,-9.95 15.9,-5.57 4.39,7.14 -5.09,11.76 -8.89,16.37l10.07 0.1 -0.45 4.14 -15.94 0.23c-1.07,-10.33 12.22,-10.94 10.32,-18.91l-4.6 -0.54 -2.2 4.13zm-49.13 -0.09c0.97,-12.79 13.68,-9.39 15.94,-5.24 4.2,7.72 -5.6,11.88 -9.05,16.31l9.78 -0.04 -0.34 4.33 -16.14 0.11c-0.3,-4.76 2.97,-7.81 5.43,-10.04 2.79,-2.54 6.91,-4.8 5.2,-8.93l-4.27 -0.62c-2.1,3.68 -0.3,4.74 -6.56,4.13zm-23.94 10.97l10.1 0.19 -0.14 4.09 -15.09 0.14 -0.17 -22.4c0.74,-1.67 -1.1,-1.6 7.03,-1.52 2.78,0.03 5.46,-0.11 8.2,0.31l0.18 3.94 -10.32 0.29 0.04 4.38 8.78 0.12 0.09 4.42 -8.78 0.11 0.07 5.94zm-22.74 -0.11l5.6 -0.04 1.83 -4.48 4.98 0.1c0.69,12.23 -19.92,13.78 -20.06,-2.22 -0.15,-16.3 13.2,-13.66 16.38,-11.55 2.67,1.78 3.08,3.1 3.54,7.38l-5.28 -0.16c-1.02,-2.45 -0.11,-3.61 -3.54,-3.96 -7.28,-0.75 -6.63,9.94 -3.44,14.93zm-67.22 -2.66c8.64,-0.71 3.34,4.51 11.65,2.46 3.74,-6.63 -8.37,-4.75 -10.71,-9.33 -0.95,-5.94 0.98,-9.69 6.79,-10.02 5.35,-0.3 10.32,1.72 9.78,7.15 -6.48,0.97 -3.57,-0.26 -6.22,-2.06 -1.63,-1.11 -6.1,-1.12 -5.23,1.83 0.84,2.83 8.72,2.47 11,6.44 2.89,5.03 -0.31,10.3 -5.74,10.85 -6.93,0.7 -11.18,-1 -11.32,-7.33zm-18.6 -0.52c-1.22,-0.94 -0.08,-0.1 -1.74,-0.71 -3.12,-1.14 -2.83,-0.69 -2.81,-4.2l9.95 -0.14c0.62,8.17 -0.74,12.46 -8.34,12.92 -8.08,0.5 -11.32,-2.56 -12.09,-9.96 -1.9,-18.45 18.66,-18.75 20.68,-5.58l-5.14 0.06c-2.33,-3.47 -1.51,-4.5 -7.19,-4.22 -9.91,12 4.39,20.82 6.69,11.83zm-91.11 7.66l0.1 -23.56 15.07 -0.17 0.17 4.01 -10.13 -0.02 -0.07 4.72 8.51 0.08 0.36 4.52 -8.68 0.24 -0.27 5.54 10.49 0.39 -0.09 4.27 -15.46 -0.03zm-88.71 -20.25l0.15 -2.8c1.06,-0.64 0.28,-0.38 1.87,-0.7 0.47,-0.09 1.56,-0.19 2.04,-0.21l14.59 0.34 0.14 4.09 -6.59 0.28 -0.33 19.58 -5.12 -0.31c-0.13,-3.54 0.65,-17.69 -0.57,-18.82 -1.48,-1.37 -3.47,0.2 -6.17,-1.46zm77.63 20.42c-6.62,0.02 -5.74,2.22 -9.12,-9.43 -1.16,-3.99 -3.81,-10.76 -3.66,-14.51l4.28 0.03c2.51,3.03 3.89,12.07 4.98,16.07 2.3,-2.28 3.39,-12 5.51,-16.09l4.88 -0.05 -6.86 23.98zm-68.74 -40.63l-12.38 0.09 12.51 -61.74 16.75 0.05 13.64 61.69 -13.09 0c-0.33,-2.53 -1.33,-9.38 -2.64,-11.68l-12.59 0c-1.43,3.05 -1.86,7.89 -2.19,11.59zm154.17 -61.37l13.01 -0.29 0.07 43.45c0.09,4.95 0.94,8.7 6.26,8.56 9.07,-0.25 6.32,-14.91 6.33,-22.58 0.01,-9.59 -0.35,-19.82 0.08,-29.33l12.45 -0.05c0.61,13.05 0.07,27.4 0.09,40.57 0.02,15.3 -3.24,21.83 -18.94,22.24 -15.63,0.41 -19.07,-7.21 -19.23,-21.52 -0.15,-13.56 0.39,-27.57 -0.13,-41.04zm228.7 42.42c-0.74,-9.41 -0.42,-21.23 -0.23,-30.8 0.2,-9.94 2.05,-18.57 7.93,-22.8 8.22,-5.91 34.41,-10.2 37.3,15.89 1,9.07 0.35,21.35 0.26,30.7 -0.09,10.15 -2.02,17.76 -8.08,22.72 -5.15,4.21 -16.54,5.72 -24.62,2.96 -7.83,-2.68 -11.82,-9.17 -12.56,-18.69zm-47.99 -1.4c-0.87,-14.59 -2.78,-34.3 10.84,-40.44 6.25,-2.82 16.15,-2.26 21.42,1.4 5.41,3.76 6.95,10.37 7.12,18.74 0.36,17.11 2.91,34.9 -11.31,40.5 -6.77,2.67 -15.15,0.99 -20.24,-2.62 -5.2,-3.69 -7.3,-8.56 -7.83,-17.58zm114.24 20.45l-11.86 -0.04 0.01 -61.62 13.22 -0.08 13.26 37.48c0.55,-1.16 -0.05,-32.66 -0.11,-37.5l11.42 0.05 -0.04 61.65 -12.67 0.04 -13.56 -37.7 0.33 37.72zm-209.32 -61.73l36.47 0.02 0.08 10.52 -11.89 0.01 -0.08 51.08 -12.51 0.07 -0.04 -51.16 -12.02 0.03 -0 -10.58zm-39.81 41.92l12.78 -0.03c-0.43,20.39 16.68,7.61 8.49,-1.49 -2.15,-2.39 -6.56,-4.85 -9.75,-7.06 -5.78,-4 -12.98,-9.44 -10.87,-20.89 1.61,-8.76 9.15,-14.5 19.76,-13.41 10.95,1.13 14.48,6.69 15.28,17.7l-13.08 -0c-0.74,-17.36 -19.14,-3.39 -2.62,6.74 7.9,4.84 16.26,8.86 16.28,21.28 0.03,21.4 -24.51,21.59 -32.25,12.18 -3.63,-4.41 -3.7,-7.96 -4.03,-15.03zm-82.84 19.68l-10.76 0.08c-0.41,-3.99 -2.06,-9.07 -2.93,-13.27 -0.59,-2.83 -8.59,-38.5 -9.78,-40.3l0.41 53.61 -12.9 -0.01 0.08 -76.18 19.87 0c0.87,6.15 9.99,46.86 11.47,49.47l10.56 -49.5 20.2 0.01 0.15 76.19 -13.38 0.01 0.45 -55.89 -13.44 55.78zm-86.78 -61.42l13.67 -0.17 7.26 23.92c2.4,-3.46 6.15,-18.85 7.99,-23.95l13.46 0.03c-2.42,8.73 -14.84,36.51 -15.3,41.97 -0.46,5.53 -0.15,13.98 0.01,19.69l-12.6 0.02c0.24,-6.28 0.13,-12.8 0.1,-19.04 -0.04,-6.94 -11.83,-35.57 -14.59,-42.48zm281.15 33.17l-6.95 -0.35 0.09 -11.57 20.86 -0.04 0.23 40.14c-5.4,0.59 -7.29,0.53 -9.22,-0.66l-0.51 -5.56c-2.27,1.52 -1.56,2.94 -5.76,5.22 -8.32,4.52 -19.37,1.79 -24.3,-6.48 -5.09,-8.54 -3.95,-30.98 -3.39,-42.16 1.68,-33.3 30.82,-25.54 38.13,-17.78 4.56,4.85 4.86,9.79 5.13,17.7l-14.09 0.19c-0.4,-18.24 -11.52,-11.72 -12.74,-10.26 -3.49,4.2 -2.07,19.86 -2.07,26.26 0.01,7.3 -1.35,20.5 4.97,22.72 9.27,3.27 10.25,-9.92 9.63,-17.37zm-338.78 28.39l-17.38 -0.04c-0.47,-6.67 -2.56,-15.42 -3.72,-22.28 -1.37,-8.1 -2.72,-15.1 -3.56,-23.29 -2.65,6.13 -5.94,40.22 -8.14,45.41l-16.87 0.15 -13.47 -76.14 14.03 -0.04 8.37 55.73c1.81,-4.39 7.48,-46.33 9.57,-55.64l13.62 -0.14 8.47 55.2c0.57,1.75 0.25,0.85 0.69,1.57l7.39 -56.16c0.48,-0.05 0.73,-0.31 0.82,-0.16l2.32 -0.49c0.92,-0.07 2.54,0.02 3.52,0.03 2.46,0.05 4.96,-0.06 7.37,0.28l-13.04 76zm185.48 -112.77l1.22 -2.17 6.2 1.47 -0.6 3.66c-3.51,-0.42 -5.01,-0.85 -6.81,-2.96zm14.97 2.04c-1.21,-0.99 -0.52,0.27 -1.19,-1.17 -0.46,-1.01 -0.23,-1 -0.29,-2.03l4.15 -0.1 -2.68 3.3zm-23.46 -12.47l3.71 0.2c0.22,1.25 0.69,3.18 1.09,4.48l-2.65 1.26c-1.58,-2.08 -1.96,-2.57 -2.16,-5.95zm31.06 -6.54l0.84 4.67 -4.58 -0.91c1.04,-2.04 1.5,-2.31 3.74,-3.75zm-28.55 -6.1c1.28,0.84 2.15,0.56 3.05,4.96 -2.14,0.43 -3.37,0.08 -5.37,-0.69l2.33 -4.27zm18.72 4.25c-0.85,-1.07 -1.15,1.04 -0.64,-3.28 0.2,-1.68 0.37,-2.7 0.43,-4.53 2.98,0.61 3.75,0.96 5.06,2.85 -0.84,1.72 -4.45,4.99 -4.85,4.96zm-28.91 -2.26l-6.33 -1.38 1.01 -10.77c2.28,1.44 6.76,3.89 8.39,5.74l-3.06 6.4zm-62.05 -12.96l0.53 -4.17 0.21 -7.04 -0.06 -3.7c-0.85,-10.22 2,-9.48 6.43,-15.06l10.36 -11.46 2.39 -3.54c4.94,3.08 12.48,14.32 15.28,21.33 4.19,10.48 6.04,18.88 4.98,31.56 -2.48,0.36 -2.72,0.67 -4.53,-0.42l-36.58 -4.37 0.98 -3.15zm-10 -57.69c0.88,15.09 -0.06,32.27 0.11,47.67 0.09,7.95 -1.46,13.02 -7.96,15.95 -6.19,2.79 -15.06,1.72 -22.19,1.71 -17.89,-0.02 -30.34,2.49 -30.17,-17.66 0.13,-15.34 -1.1,-32.48 -0.02,-47.66l9.27 0.16c0.24,3.91 -0.88,9.24 1.69,10.02l8.58 0.27 0.18 -10.41 21.35 -0.02 -0.04 10.46 10.61 -0.06 0.19 -10.38 8.41 -0.06zm266.22 19.94c0.17,6.82 0.9,26.69 -0.09,32.3 -2.26,12.72 -15.31,10.84 -22.04,10.85 -6.88,0.01 -19.17,0.12 -21.45,-11.37 -0.74,-3.71 -0.54,-27.53 -0.14,-32.14l16.73 0.12c0.29,8.92 -1.83,9.89 10.15,8.71l0.24 -8.84 16.59 0.38zm-191.65 30.84c-0.49,-2.12 0.1,-5.08 1.05,-6.8 1.17,3.91 3.52,7.43 4.32,10.57 -1.94,-0.83 -3.91,-2.41 -5.37,-3.77zm-144.56 4.58c0.47,1.19 0.65,1.91 0.65,3.79 1.31,1.42 1.85,3.76 2.81,5.41 1.07,1.83 2.57,3.42 3.83,4.71l3.76 2.88c4.4,1.37 6.82,3.63 12.74,3.37 -0.15,-1.1 6.79,-0.97 8.21,-0.63 0.11,0.03 0.34,0.09 0.49,0.18l4.05 -0.17c0.8,-0.44 -1.34,-0.99 2.27,-0.22 0.6,0.13 1.93,0.8 2.43,1.03l1.5 0.6 4.39 0.86 0.87 0.09 4.2 -0.01 0.15 -0.01 4.43 -0.23 0.96 -0.4c1.45,-0.61 1.89,-0.8 3.91,-0.87l2.43 -0.45 1.65 -0.97c0.51,-0.3 1.2,-0.71 1.43,-0.84 1.33,-0.78 0.75,-0.78 2.77,-1.47 2.2,-3.46 4.8,-2.2 9.52,-1.6 3.92,0.5 7.9,0.97 11.83,1.44 5.33,0.65 19.15,1.68 23.33,3.14l3.93 0.39c1.17,5.29 -7.11,21.64 -11.82,27.19 -8.75,10.31 -10.33,11.5 -21.63,18.26 -4.33,2.59 -8.01,4.29 -13.77,5.83 -17.42,4.65 -35.22,2.75 -50.87,-4.98 -28.15,-13.91 -45.72,-47.22 -36.43,-78.85 1.55,-5.28 3.24,-9.86 6.04,-14.24 1.97,-3.09 4.94,-10.36 8.98,-11.72l-0.2 5.67 0.57 16.34 0.04 3.8 0.52 12.7zm151.79 -23.08c1.17,-1.68 1.79,-2.55 3.54,-3.3 1.37,2.54 3.57,17.94 2.92,20.21 -2.17,-5.61 -3.92,-11.36 -6.46,-16.92zm194.54 -23.09l-0.22 -3.56c9.44,-0.4 23.16,17.39 28.09,26.64 22.11,41.48 -2.41,91.41 -51.93,96.95 -34.68,3.88 -59.5,-16.11 -69.77,-39.65 -16.97,-38.93 12.2,-76.75 21.74,-78.34l0.69 3.52c1.66,1.14 6.52,8.54 6.76,9.38l-0.5 14.67c1.75,1.42 1.41,2.31 0.83,4.26l0.05 8.01 0.63 5.18c1.28,1.56 2.55,3.75 3.35,5.82 1.41,2.35 1.24,0.83 1.81,3.68 2.19,0.89 4.31,2.55 5.83,4.19 2.31,0.61 2.69,0.76 4.17,2.48l1.94 0.49c5.2,1.16 7.3,2.83 14.26,2.97 7.08,0.15 9.69,-1.5 15.21,-1.89l3.23 -1.34 3.35 -2.7 4.23 -3.57c1.58,-2.27 0.89,-2.24 3.57,-3.65 0.03,-2.15 0.57,-2.81 1.97,-4.51l0.52 -4.72 0.15 -6 0.03 -4.29c0.47,-4.88 -0.93,-12.84 1.27,-16.08 -0.43,-0.7 -0.57,-0.43 -0.84,-1.82 -0.18,-0.94 -0.08,-1.27 -0.07,-2.19l-0.37 -13.91zm-255.89 -0.14c-1.06,2.39 -8.39,10.54 -9.88,12.02l0.11 -16c0.4,-1.85 -0.11,-0.47 0.76,-1.64l-0.59 -3.69c3.61,1.21 10.45,3.91 11.9,7.36 -1.37,2.14 0.13,0.84 -2.3,1.95zm200.62 -9.68c3.43,-1.81 7.35,-4.5 12.48,-4.57 27.71,-0.35 35.59,-2.27 32.58,19.3l-15.75 -0.03c-0.12,-0.15 -0.23,-0.38 -0.28,-0.48l-1.11 -2.98 -9.1 -0.03c-0.54,1.23 -0.29,1.09 -0.66,2.04 -0.53,1.35 0.05,0.44 -0.74,1.59l-15.71 -0.18 -1.71 -14.66zm-178.73 -1.63c1.26,-1.83 1.94,-1.78 3.57,-3.46 1.14,-1.18 1.86,-2.11 2.94,-3.39 1.97,-2.31 4.24,-5.07 6.57,-6.92 3.35,10.92 10.21,24.05 12.66,35.71 -1.7,3.22 -3.6,3.78 -4.93,7.21 -0.52,-0.56 -0.47,-0.47 -1.04,-1.38l-0.54 -0.96c-3.06,-5.89 -3.41,-7.3 -7.93,-13.73 -3.75,-5.34 -10.95,-11.78 -11.31,-13.09zm-102.76 -3.27c-0.2,-26.53 -0.41,-22.02 30.36,-22.01 27.8,0 30.94,-4.46 29.87,21.98l-8.46 -0.09 -1.12 -3.13 -9.07 -0.15 -1.42 3.29 -19.58 0.1c-1.23,-1.75 -0.43,-1.33 -1.4,-3.26l-8.91 0.16c-1.14,1.54 -0.35,0.7 -0.87,1.71 -0.6,1.15 -0.1,0.48 -0.72,1.4l-8.68 0zm221.15 77.95c2.71,1.26 1.87,0.94 4.98,0.33 0.45,8.77 4.97,21.73 9.25,29.37 1.7,3.05 3.87,5.68 5.01,8.44l-8.96 -0.08c-8.43,-9.97 -10.72,-28.48 -13.04,-30.55 -5.22,-4.66 -5.69,-3.87 -5.45,-16.2 0.12,-6 1.11,-14.81 2.47,-20.52 -0.19,0.12 -0.44,0.1 -0.53,0.39l-3.35 3.41c-3.46,3.79 -22.16,23.55 -23.15,25.83 3.3,6 4.89,0.35 11.87,6.37 3.41,2.93 5.84,8.1 3.68,14.05 -2.19,6.02 -6.93,5.09 -10.65,8.19 -11.52,9.6 -11.54,0.91 -21.14,6.9 -14.63,9.14 -39.54,1.39 -44.94,-14.04l-2.74 4.13c-8.95,15.25 -5.02,12.46 -17.72,12.7 0.79,-1.7 1.04,-1.4 2.23,-3.03l7.33 -11.61c2.42,-4.61 6.16,-12.19 7.04,-18.11l8.04 0.99c1.87,12.96 3.11,14.81 11.35,21 6.29,4.73 18.41,5.25 25.64,1.33 7.21,-3.91 1.08,-3.74 11.71,-3.31 12.28,0.49 3.42,-4.92 9.79,-5.76 2.65,-0.35 4.5,1.05 6.26,-1.68 1.46,-2.25 0.42,-4.63 -1.08,-5.88 -2.44,-2.03 -8.84,-2.95 -12.62,-4.17 -3.51,-16.37 -5.95,-6.02 13.14,-28.21l56.81 -62.09c2.52,-2.53 3.65,-3.69 5.81,-6.06 1.92,-2.11 3.35,-4.19 5.73,-5.96l3.06 10.24c-3.98,2.69 -6.58,4.22 -9.81,6.61 -12.24,9.05 -15.36,13.27 -23.9,25.06 -4.43,6.13 -7.77,14.08 -9.81,22.38 -1.71,6.94 -4.35,23.61 -2.31,29.55zm-79.63 -82.76c1.21,1.71 2.31,3.13 3.57,4.85 -0.6,2.23 -7.48,11.91 -9.31,14.48l-12.7 -33.36c1.85,-1.08 4.57,-1.42 7.3,-1.39 2.77,2.84 8.33,11.41 11.15,15.41zm46.13 55.15c-0.68,2.1 -13.2,15.37 -13.93,15.99 -1.69,-0.76 -3.04,-1.69 -4.98,-2.58 -2.26,-1.04 -3.61,-1.19 -5.76,-1.89 -0.72,-5.85 2.52,-20.1 3.39,-27.28 3.3,-27 0.79,-20.33 13.99,-33.48 2.74,-2.73 4.61,-5.12 7.43,-7.97 1.87,-1.89 1.65,-2.5 3.34,-4.37 1.69,-1.87 2.21,-2.36 3.62,-4.05 2.35,-2.82 4.5,-5.31 6.44,-8.98 3.63,-0.65 48.52,-4.87 55.06,-4.37 1.16,0.09 0.96,0.12 1.83,0.33 0.13,0.03 0.43,0.37 0.53,0.2 0,-0 3.11,-1.4 -6.97,10.31 -1.87,2.17 -3.14,2.72 -4.94,4.78 -1.58,1.82 -2.72,3.06 -4.27,4.87 -4.93,5.76 -18.35,18.98 -22.85,24.66 -1.21,1.52 -2.91,3.73 -4.19,4.96 -5.2,4.96 -25.66,28.12 -27.76,28.87zm-24.73 -73.37c-1.59,-3.08 -5.59,-11.72 -6.65,-14.91 2.67,1.12 5.04,2.41 7.79,3.63 2.37,1.05 5.75,1.82 8.02,3.09l-9.16 8.2zm-43.35 -5.37l-6.75 -17.89 12.71 17.57 -5.96 0.32zm166.49 -28.38c3.51,-1.37 5.99,-0.95 10.07,-1.02 6.63,-0.1 4.38,0.4 7.41,-3.4 2.97,3.06 4.88,7.56 4.13,13.59l-21.98 -0.2 0.36 -8.96zm-133.46 -23.03c3.49,-1.14 9.4,-5.15 13.94,-7.03 13.92,-5.78 29.59,-13.05 41.44,-20.96 2.3,7.83 18.5,31.45 22.92,35.3 6.72,5.86 33.52,10.26 43.29,14.19 -2.43,0.24 -9.31,0.02 -11.99,-0.17 -17.16,-1.18 -8.53,7.19 -6.43,19.22l-52.13 3.71c0.17,-7.63 -4.91,-12.3 -8.47,-15.28 -4.36,-3.63 -8.4,-6.9 -13.37,-10.37 -4.88,-3.4 -16.36,-11.53 -21.57,-14.15l-6.8 -3.76c-0.1,-0.07 -0.35,-0.11 -0.43,-0.35 -0.07,-0.24 -0.28,-0.24 -0.43,-0.36zm140.67 63.06c-1.23,-1.41 -3.7,-1.57 -5.97,-3.06 -4.91,-3.23 -2.63,-10.56 -1.66,-21.46l21.13 -0.06c0.2,5.34 -4.21,8.38 -9.19,9.98 -6.17,1.98 -11.42,-1.46 -7.62,7.44 22.58,1.37 23.53,-10.31 27.51,-17.59l0.29 -15.17 5.62 -0.15c-0.96,6.29 -1.81,8.59 1.42,13.48 2.17,3.29 4.09,5.66 9.86,5.77 -2.51,-9.52 -4.77,-8.92 -3.58,-21.85 0.85,-9.33 3.02,-19.7 -7.98,-18.87 -5.07,7.01 -4.43,11.51 -12.23,4.8 -9.56,-8.23 -19.08,-3.19 -25.28,2.64 -10.31,-3.77 -26.53,-12.07 -34.81,-17.34 -3.7,-2.35 -4.83,-1.78 -6.55,-6.74 -2.1,-6.05 -9.4,-25.81 -9.62,-29.63 20.02,-8.45 10.04,-7.03 18.94,-3.48 9.43,3.75 12.53,-5.19 14,-12.3l7.69 -1.35c2.27,-8.18 -4.75,-7.81 -0.05,-17.65 5.55,0.43 8.55,2.67 12.43,-0.83 -0.58,-3.41 -6.87,-5.78 -10.05,-6.72 0.35,-7.33 -2.74,-14.27 -8.61,-17.81 -12.51,-7.55 -29.8,-6.79 -38.62,5.04 -2.01,2.7 -2.96,5.36 -4.03,9.27 -1.45,5.34 -1.15,5.69 2.46,8.2l-1.78 9.31c-5.93,5.05 -47.9,-17.86 -108.11,30.28 -8.3,6.63 -27.73,27.2 -31.18,35.98 -3.34,8.51 -1.34,18.37 3.12,24.54 -3.8,-0.04 -7.28,-0.1 -8.39,3.09 -3.18,9.15 14.02,11.85 20.13,12.7 1.29,1.76 9.46,23.43 9.38,25.41 -0.09,2.29 -5.58,7.78 -7.48,9.72 -3.18,3.27 -5.55,6.56 -8.5,8.8 -9.08,-5.1 -20.23,-12.42 -32.34,-15.09 2.64,-5.6 5.01,-8.37 4.33,-16.67 -2.01,-24.65 -24.69,-21.46 -40.4,-21.4 -15.75,0.05 -22.72,-1.02 -31.52,8.69 -2.87,3.17 -5.05,9.62 -4.78,15.39 0.36,7.93 3.16,9.7 5.19,15.78 -10.22,2.77 -4.3,13.96 -8.72,17.79l-7.02 6.33c-8.04,8.31 -24.22,30.39 -21.88,43.63 2.24,0.43 2.96,-0.44 4.24,0.53 -3.77,7.97 -0.04,27.46 2.03,35.73 1.3,5.21 3.19,10.39 5.53,14.76 2.65,4.95 5.48,8.66 7.82,12.51 -26.61,-0.55 -54.3,-0.19 -80.98,0.02 -15.93,0.13 -22.99,0.08 -23.02,17.28 -0.02,13.29 0.01,26.58 -0,39.87 -0.05,46.35 -4.73,40.39 27.46,53.62l258.39 105.29c10.39,4.15 19.12,9.41 32.15,6.06l28.98 -11.64c9.52,-4.08 18.58,-7.85 28.67,-11.87l86.1 -34.91c47.11,-18.48 97.75,-38.63 144.1,-58.02 15.15,-6.34 12.69,-14.38 12.69,-27.56 0.01,-13.29 0.03,-26.57 0.01,-39.86 -0.02,-11.09 2.79,-29.84 -4.81,-35.49 -5.79,-4.3 -29.39,-2.39 -38.24,-2.39 -26.44,-0.02 -54.18,-0.79 -80.46,0.1 0.74,-2.04 1.92,-2.7 3.53,-4.87 8.36,-11.33 13.38,-30.41 12.96,-44.76 -0.78,-26.73 -15.02,-49.94 -35.35,-62.95 -3.02,-1.93 -6.65,-4.15 -10.33,-5.7 -1.11,-0.47 -5.07,-1.95 -5.83,-2.59 -2.7,-2.29 0.43,-2.35 -3.21,-4.46 -3.65,-2.11 -21.84,-5.04 -27.44,-5.36 -9.02,-0.53 -20.36,1.56 -28.1,4.17 -3.21,-12.96 -8.15,-25.26 -11.38,-37.78l11.02 -0.07c-0.94,8.01 -2,17.9 0.26,25.42 2.94,9.74 8.16,7.67 17.65,6.09z"/>
   <path class="fil0" d="M544.48 335.8c0.22,-1.3 0.29,-1.89 0.61,-3.12l1.48 -2.9c1.47,1.08 -0.37,0.51 2.8,0.35l-1.32 4.69c-0.83,1.95 -0.24,0.58 -0.79,1.44 0.02,-0.51 0.34,-2.68 0.34,-2.78 -0.04,-2.09 0.49,-0.34 -0.63,-1.7 -0.09,0.36 -0.3,1.83 -0.41,2.07 -0.82,1.88 -0.21,1.21 -2.08,1.96zm-10.22 -6.15c2.78,0.46 5.3,1.63 3.92,4.8 -1.31,-0.49 -0.03,0.78 -2.04,-1.94l-1.88 -2.86zm-455.85 -2.3c4.39,-0.73 6.28,-2.73 10.09,-1.84l0.59 3.56c-2.64,1.6 -6.31,3.14 -8.98,3.31 -0.13,-0.19 -0.31,-0.69 -0.38,-0.57 -0.02,0.04 -1.77,-2.17 -1.32,-4.46zm472.91 -11.31c0.14,-0.19 0.82,-2.19 2.24,-3.24 -0.3,4.58 -2.61,9.38 -4.2,12.18 -2.1,-2.64 -2.72,-8.47 1.41,-13.04 0.77,0.96 1.64,1.6 0.55,4.09zm-461.37 2.5l-0.91 0.34 -11.69 3.81c-0.78,-1.5 -1.71,-6.17 -1.92,-7.97 3.04,-1.14 7.67,-1.7 10.44,-2.93l2.43 -2.46 3.13 1.68c6.03,2.13 10.12,-6.46 9.69,4.23l-11.18 3.3zm453.13 3.18l-5.31 -1.33c-2.42,-7.37 0.49,-5.76 0.93,-5.99 0.35,-5.46 3.28,-11.28 5.87,-19.39l1.53 -3c1.59,2.45 1.57,14.72 1.36,15.41l-4.37 14.31zm-444.23 -25.14c0.52,6.87 2.37,5.19 -9.19,7.05 -3.92,0.63 -12.24,2.5 -15.54,2.15l-1.04 -6.68 0.07 -5.44c3.63,-0.41 24.15,-1.56 25.51,-0.94l0.19 3.87zm396.45 -9.15l0.21 9.17c-0.68,-0.43 -2.53,-0.28 -2.49,-4.57 0,-0.42 0.24,-1.82 0.31,-2.03 1.45,-3.74 0.57,-1.32 1.96,-2.56zm-396.23 -4.3l-11.35 -0.79c0.07,-2.14 1.39,-11.19 2.22,-11.96 1.27,-1.19 9.12,0.48 11.5,1.06l-2.37 11.7zm-16.22 -1.72l-9.58 -0.3 0.5 -13.27 2.86 -0.58c2.56,-0.21 5.31,0.68 8.4,0.93 0.02,2.39 -1.64,10.29 -2.18,13.22zm464.83 -21.69c3.85,1.1 2.95,1.8 3.75,6.63 0.63,3.82 1.9,5.98 -0.66,8.3 -2.39,-1.93 -1.77,-2.48 -2.02,-6.43 -0.21,-3.21 -1.02,-5.49 -1.07,-8.51zm-404.96 -13.46c-7.5,-3.51 -5.29,-1.19 -5.72,-3.9 2.08,-0.94 5.97,-0.06 8.55,0.28 13.7,1.81 5.38,6.69 14.53,5.28 4.57,-0.7 5.4,0.34 6.86,3.54 -5.46,0.53 -5.29,-0.44 -9.65,-0.94 -5.22,-0.59 -1.15,1.75 -6.89,-1.48 -2.87,-1.62 -4.64,-1.35 -7.67,-2.78zm11.85 -7.09c-1.24,-1.84 -3.02,-3.43 0.38,-3.75 2.06,4.25 -0.02,3.31 -0.38,3.75zm33.26 -54.17c0.11,-1.72 -0.36,-0.84 1.77,-3.8 1.73,-2.42 1.13,-1.52 3.59,-2.07 3.25,-0.74 4.69,-2.57 8.52,-1.84 -2.24,3.19 -9.3,6.84 -13.88,7.71zm16.03 -13.37c0.61,-3.38 -0.45,-0.1 2.39,-3.13 1.83,-1.95 3.09,-5.13 8.14,-7.33l0.58 3.65c-0.31,2.12 -0.65,2.45 -1.3,4.09 1.36,2.17 2.26,0.17 1.1,4.64 -6.35,0.26 -0.08,-0.31 -5.11,-2 -1.46,-0.49 -3.9,-0.24 -5.79,0.08zm102.51 -22.05c-0.67,-0.09 -2.03,0.26 -0.37,-2.18 2.41,0.96 1.94,0.94 3,2.63l-1.04 0.48c-2.77,1.35 -1.96,0.82 -3.24,7.93 -10.06,1.22 -5.83,-7.2 -2.22,-9.79 2.96,0.14 1.41,0.47 3.87,0.93zm-20.65 -28.31c0.11,-0.11 0.24,-0.3 0.3,-0.37 3.37,-4.02 7.37,-3.45 10.57,0.46 -0.8,1.77 -0.34,1.57 -2.62,2.78 -0.49,0.26 -2.27,0.94 -2.92,1.22 -2.43,1.04 -3.73,1.86 -6.03,2.57 -3.61,-2.38 -2.89,-4.13 -6.48,-5.5 1.82,-3.76 3.85,-4.23 7.18,-1.16zm114.02 -21.47c-0.82,-0.67 -1.49,-1.08 -2.03,-1.98 3.64,0.07 5.68,0.24 8.05,2.06 -1.74,1.17 -1.13,0.45 -3.97,0.44 0.72,4.1 -3.62,4.14 0.85,7.75 -0.11,0.13 -0.3,0.28 -0.37,0.35 -0.06,0.06 -0.27,0.26 -0.35,0.33l-2.34 1.78c-1.6,0.26 -3.43,-0.74 -4.05,-1.92 -0.99,-1.88 -0.63,-4.67 0.14,-6.56 1.15,-2.83 0.86,-2.39 4.07,-2.25zm-63 -11.94c6.09,-0.09 9.87,-3.38 22.72,-1.13 -2.65,0.94 -1.89,-0.11 -5.5,2.07 -0.17,0.1 -0.74,0.46 -0.86,0.54l-0.87 0.55c0.72,1.48 1.29,2.11 2.04,3.5l-2.44 0.43c-4.35,0.77 0.37,1.02 -6.54,0.45 -0.04,0.8 -0.06,1.78 -0.22,2.54 -0.27,1.36 -0.13,0.83 -0.61,1.66 -3.74,-1.21 -6.41,-6.7 -7.72,-10.61zm47.59 -0.56c0.3,-0.59 0.16,-0.69 0.27,-1.11 0.28,-1.04 -0.11,-0.26 0.43,-1.28 1.25,0.24 2.31,0.46 3.17,1 2.4,1.49 1.35,0.76 2.21,3.04 -1.63,0.17 -4.46,0.08 -5.82,0.07 -4.67,-0.04 -3.85,-2.1 -4.18,-2.91l3.92 1.19zm-175.16 5.29c10.74,-1.38 10.99,-2.2 19.74,-6.39 3.03,-1.45 16.43,-3.84 20.76,-4.5 3.62,-0.55 1.31,-0.07 4.79,0.76 0.85,0.2 5.25,0.57 6.11,0.52 1.92,-0.12 6.69,-1.98 10.16,-2.53 6.68,-1.04 16.66,-1.78 23.39,-1.6l1.05 2.46 -13.48 1.06c6.85,2.41 13.42,-0.51 21.02,-0.08l-1.24 1.68c-2.67,3.14 -6.04,3.71 -7.26,6.6 -0.68,1.6 -0.24,1.65 -0.89,3.37 -0.81,2.14 -3.26,4.56 -3.41,4.99 -0.38,1.04 0.32,1.5 1.01,2.6 -3.17,0.04 -1.39,-0.49 -2.61,0.78l0.22 2.43c-6.17,-3.07 -2.58,-3.69 -6.96,-3.47 -0.93,1.7 -0.91,0.54 0.54,2.65l-3.62 0.67c1.62,3.02 2.83,1.92 6.01,4.2 -1.38,1.32 -2.1,1.05 -4.78,1.21 2.95,0.6 2.09,0.55 2.19,2.02 -4.52,0.59 -6.7,1.45 -11.57,0.93l-2.56 3.76c-3.35,5.61 -6.77,0.22 -12.75,6.13l-4.75 5.07c-5.14,4.96 -2.45,4.33 -5.82,8.72l-6 -3.37c-2.82,-2.41 -1.93,-6.89 -3.86,-12.11 3.38,-2.3 1.52,-2.71 3.56,-5.53 3.87,-1.34 2.28,-0.07 4.48,-2.97 -1.77,1.23 0.35,0.89 -1.78,0.86 -3.59,-0.05 -1.35,0.07 -2.2,-1.23 0.16,-0.14 0.42,-0.23 0.57,-0.3l3.87 -1.1c-1.54,-7.95 1.67,-3.8 1.04,-11.19 -4.57,-3.13 -3.21,-2.46 -12.66,-1.74 2.11,-3.59 7.89,-4.38 9.91,-5.57 1.94,-1.14 0.31,-0.28 1.31,-1.65 2.35,-3.21 9.39,-3.35 12.9,-5.03 -4.69,-3.04 -12.15,2.03 -16.5,3.8 -2.62,1.07 -5.06,0.99 -7.76,2.6 -3.16,1.88 -1.56,2.83 -5.04,5.51l-6.56 3.94c-1.73,0.96 -16.35,2.22 -18.37,1.96 -6.74,-0.86 -1.43,0.64 -8.8,1.54 0.79,-2.18 0.17,-2.43 3.04,-3.22 3.78,-1.05 10.59,-1.17 12.46,-4.17 -1.77,0.47 -2.5,0.89 -4.31,1.26 1.61,-2.59 -0.25,-0.11 2.05,-1.52 5.5,-3.37 2.43,-2.19 3.34,-4.8zm-86.3 172.96c-3.33,-0.76 -3.86,-1.96 -5.29,-4.73l-1.09 1.8c-5.2,-0.01 -6.96,-0.02 -10.52,-2.75 -10.31,-7.89 -7.02,-6.09 -5.67,-9.81 0.74,-2.03 0.48,-2.04 0.4,-4.11 -0.46,-11.24 -2.52,-4.35 -3.26,-24.67 -4.74,4.21 -2.24,12.84 -1.61,18.81 0.73,6.93 1.25,4.86 -0.8,6.91 -0.46,-2.17 -0.77,-5.67 -1.22,-7.77 -0.83,-3.81 -2.6,-4.47 -2.76,-6.14 -0.15,-1.57 1.76,-3.69 2.16,-6.22 1.51,-9.45 -2.46,-13.24 -0.2,-23.39 1.45,-6.52 3.18,-8.06 5.57,-12.78 0.41,2.11 -1.24,1.34 0.71,1.59 2.7,-9.93 11.59,-24.94 18.46,-32.62 1.94,-2.18 2.67,-3.38 4.28,-5.54l14.35 -15.72c3.92,-3.54 6.21,-7.2 10.26,-10.01l13.14 -9.94c1.15,-0.92 0.03,-0.11 1.24,-0.89 5.2,-3.36 9.46,-6.37 15.7,-8.59 0.13,0.11 0.25,0.33 0.31,0.41l0.87 1.12c1.16,1.38 -1.19,-0.08 0.86,0.85 2.94,-1.88 12.72,-5.32 17.27,-6.06 -2.72,6.54 -1.44,-2.96 -6.59,14.54 2.31,-1.03 2.43,-2.18 5.33,-2.33 1.77,-0.09 5.6,0.44 7.56,0.61 -0.92,3.04 -2.28,2.54 -5.15,4.23 -3.36,1.98 -2.72,2.65 -6.98,1.32 -0.65,5.18 0.72,-0.81 1.71,3.49 0.65,2.85 -5.49,6.33 -7.88,7.05 1.35,-3.61 4.43,-4.04 1.7,-6.94 -3.16,5.77 -15.41,8.96 -21.24,19.62l1.8 5.85 6.19 0.86c0.64,4.98 -1.54,6.04 -2.08,9.79 3.44,-0.17 5.98,-1.45 8.21,-3.61 -0.46,-2.54 -2.33,-3.63 0.11,-6.3 2.8,-3.06 1.79,0.39 4.94,-2.03 7.37,-5.67 3.69,-4.74 3.13,-11.76 2.04,-1.41 2.41,-1.29 4.28,-3.27 1.3,-1.38 1.91,-2.55 3.99,-3.07 2.8,-0.72 3.76,0.37 6.64,0.2 2.24,-0.13 3.66,-1.03 5.05,-1.38 -1.7,-4.24 -0.54,0.19 -2.43,-2.18 -1.11,-1.39 -0.43,-1.15 -1.01,-3.11 -2.2,-0.51 -1.88,0.3 -3.47,-0.67 1.87,-2.64 4.93,-2.47 7.2,-4.67 2.88,-2.79 1.27,-4.13 2.29,-7.06 -4.39,-0.33 -6.77,1.22 -11,2.09 -0.09,-0.14 -0.12,-0.38 -0.15,-0.46l-1.7 -3.9c-1.63,-3.8 6.49,-5.87 10.07,-6.61 3.19,-0.66 10.81,-2.24 13.83,-2.21 -1.26,2.93 -3.21,1.87 -4.35,4.91l5.29 -0.24c-0.65,2.58 0.32,1.45 -1.8,2.76l0.61 0.09c0.12,0.03 0.59,0.12 0.73,0.15 1.3,0.34 0.45,-0.12 1.28,0.45 -2.24,2.4 -3.59,1.65 -1.92,4.7 1.27,2.33 2.8,2.88 5.34,3.68 -1.67,2.58 -3.8,3.04 -5.23,5.19 -1.63,-1.05 -3.13,-2.29 -5.09,-2.62 -0.04,2.83 0.13,5.72 -1.21,7.51 -2.97,-0.47 -0.85,-0.51 -2.22,-2.99l-8 10.44c-1.62,1.5 -1.27,0.74 -0.46,3.17 2.73,-0.6 4.2,-1.83 7.76,-2 0.32,2.87 0.5,3.65 0.3,7.03 -0.37,6.5 -0.43,5.8 2.21,7.28 1.65,0.92 0.1,-0.44 1.07,0.98 0.08,0.12 0.24,0.52 0.31,0.66l1.22 2.07c-0.2,0.64 -10.7,9.66 -12.56,9.98 -4.66,0.8 -6.74,-2.33 -11.91,0.67 -2,1.16 -5.16,3.92 -6.16,5.71 3.85,-1.24 7.2,-4.15 11.41,-4.8 -0.49,2.88 -0.7,2.02 -1.73,3.96 -1.71,3.2 -0.32,1.49 -0.83,3.96 -0.49,2.42 -3.65,3.01 -5.84,4.14 -13.93,7.18 -8.04,4.45 -11.18,10.37 -5.44,1.53 -5.74,0.77 -8.56,4.76 -2.01,2.84 -4.18,4.07 -6.73,6.49 1.48,4.09 2.93,4.69 -2.93,8.38 -2.59,1.63 -6.52,2.76 -8.2,5.7 -4.21,7.33 2.16,18.96 -7.69,17.85 -0.3,-3.07 4.16,-14.57 -7.17,-11.87 -5.27,1.25 -0.08,4.71 -6.92,4.26 -2.25,-0.15 -3.98,-0.75 -3.75,-3.06 0.26,-2.67 1.28,0.77 0.11,-0.76 -3.94,3.73 -12.07,14.63 -11.68,20.35 0.33,4.83 2.09,10.95 3.89,14.81 6.27,-3.05 7.17,-7.83 8.49,-9.93 1.91,-0.35 4.59,0.19 5.16,-1.33 2.39,12.13 -5.63,6.53 -3.6,15.4 13.18,-8.89 16.71,-6.04 33.45,-6.11l-0.42 -2.35 6.56 0.61 -0.3 1.88c13.92,-0.76 26.1,0.59 32.81,8.75 6.41,7.78 11.28,18.35 6.35,31.43l21.42 10.09 8.2 -9.26c-1.28,-4.34 -3.39,-9.71 -5.11,-14.12 -2.51,-6.4 -4.45,-2 -13.47,-6.83 -3.72,-1.99 -8.85,-5.87 -10.11,-10.13 -2.37,-8.09 4.59,-14.9 4.6,-14.91 1.44,-5.02 -9.4,-15 15.22,-41.88 5.29,-5.77 4.14,-5.78 11.63,-12.15 12.99,-11.04 15.73,-14.4 34.1,-24.66 7.21,-4.03 25.45,-12.09 34.74,-12.97 3.4,-7.64 5.48,-8.7 -0.39,-13.43 0.22,-4.19 1.24,-6.33 5.19,-6.82 0.73,1.41 0.5,3.56 0.57,3 0.01,-0.09 0.07,0.28 0.16,0.4l-1.74 0.74c-0.02,-0.08 -0.17,0.03 -0.25,0.07 0.46,0.69 0.74,1.22 1.05,1.63 4.41,5.9 1.15,2.13 2.44,4.81 1.53,3.15 2.21,-1.6 3.56,7.17 2.61,1.54 10.69,0.07 14.52,-0.07 -0.56,-3.26 -1.3,-6.31 0.1,-9.09 1.11,-2.21 0.37,-0.78 1.26,-1.75 3.37,0.87 3.11,0.19 4.5,1.94 1.77,2.23 0.02,1.87 2.58,3.02 3.61,1.63 7,-0.09 8.71,2.61l0.76 -2.48c1.55,-11.59 6.44,-18.39 12.81,-23.32 -2.35,-1.98 -2.43,-2.11 -3.34,-5.43 -3.04,1.1 -6.08,4.96 -8.24,7.26 -3.72,3.96 -1.59,5.78 0.87,8.9 -0.62,2.46 -4.37,11 -6.78,11.47 -5.96,-1.02 -6.09,-6.02 -6.43,-11.5 -6.72,1.99 -2.19,5.54 -6.86,6.09 -2.64,-1.76 -0.85,-1.45 -2.07,-4.87 -0.73,-2.07 -1.94,-2.59 -2.06,-4.91 -0.15,-2.85 3.69,-6.26 5.8,-7.43 6.67,-3.68 2.2,-1.59 6.9,-6.3 7.44,-7.44 2.43,-8.06 16.12,-11.43 9.39,-2.31 15.08,4.52 17.81,4.42 1.21,-0.05 1.43,-1.71 4.51,0.31 2.68,1.76 0.1,1.06 4.42,1.9l1.72 4.11c6.14,0.59 4.63,-0.53 5.8,-5.01l2.56 -0.08c-0.44,-1.05 -0.22,-0.54 -0.43,-1.76 3.82,-0.2 6,0.98 8.55,2.79 0.75,0.53 2.31,1.52 3.63,1.75 3.88,0.67 -2.7,-0.38 3.64,-0.89 -1.84,-1.62 -1.65,-0.65 -1.07,-3.78 3.74,-0.72 12.63,3.94 15.11,5.47 -2.44,-2.96 -2.14,-1.63 -5.48,-3.59 -1.63,-0.95 -2.34,-2.84 -2.88,-4.8 2.87,-0.73 3.33,-2.65 6.6,-0.48 2.28,1.52 1.79,2.76 3.65,4.91 2.3,2.66 3.24,0.54 5.28,3.73 1.6,2.51 0.73,4.3 1.77,6.32 0.87,-2.38 0.5,-5.41 -1.34,-7.49 -2.17,-2.45 -4.73,-1.65 -4.74,-5.67 1.35,-0.59 -0.63,0.17 0.8,0.05 2.34,-0.2 0.15,-2.39 5.85,1.44 -1.24,-1.79 -3.98,-3.25 -1.85,-5.02 1.49,-0.77 -0.16,-0.63 1.93,0.08l5.5 2.44c-2.59,-0.79 -5.57,-2.7 -7.05,-4.87 2.28,-0.37 3.85,1.13 5.91,2.54l4.14 -1c-1.7,-2.68 -0.11,-2.35 0.06,-2.61 5.36,2.03 10.87,5.77 15.7,8.7 24.65,14.93 33.54,26.28 51.22,46.06 9.57,10.72 24.98,32.92 26.69,45.76 -1.16,-0.37 -0.81,-0.32 -2.19,0.06l-1.91 -4.6c-1.22,2.3 -0.78,4.94 0.29,7.34 1.5,3.36 0.71,0.79 3.91,0.27 4.85,4.78 0.46,5.75 1.39,9.04 0.43,1.5 3.28,5.98 4.48,8.77 1.9,4.45 2.67,3.76 2.64,9.34 -0.02,2.56 0.43,4.12 1.33,5.75 2.15,3.91 0.8,0.99 1.73,1.23 0.52,4.46 1.1,4.98 -0.76,8.83l-2.49 -6.13c-1,1.53 -1,2.57 -1.96,4.34 -6.1,11.24 -2.44,0.23 -3.63,13.24 -1.45,-0.38 -0.75,1.76 -2.21,-1.9 -1.11,-2.76 0.43,-5.65 -0.52,-8.56 -3.02,3.1 -0.9,3.78 -2.66,8.47 -1.39,3.7 5.7,9.97 4.39,17.49 -0.41,2.33 -0.67,3.04 -1.24,5.21 -0.76,2.88 0.15,2.55 -1.89,4.07 -2.19,-1.43 -3.21,-9.4 -5.29,-13.22 -0.98,9.85 -2.88,5.43 -0.14,17.05 1.39,5.92 3.56,10.1 3.31,17.21l-3.46 0.33 0.24 3.42c3.1,-0.18 2.48,-1.62 3.49,1.17 2.16,5.99 -1.52,9.38 -1.8,14.29 0.13,0.04 0.33,0.01 0.39,0.02 0.07,0.01 0.32,0.02 0.41,0.03 0.15,0.02 0.75,0.07 0.91,0.09 2.96,0.41 1.66,2.32 1.32,4.84 -5.57,-1.88 -4.42,-2.06 -6.24,-7.27 -3.5,-10.03 -1.57,-14.96 -7.82,-25.74l-2.16 -4.36c1.46,0.83 4.43,1.28 6.61,1.39 0.74,2.77 0.47,3.85 1.82,4.89 3.48,-5.5 -0.24,-8.88 -0.67,-15.83 -0.39,-6.4 -1.18,-12.59 -1.75,-18.93l-1.53 2.2c-0.04,-0.11 -0.15,0.28 -0.32,0.44l-1.95 -3.18 -2.17 4.37c-0.98,-1.54 -0.7,-4.46 -0.11,-6.7 0.71,-2.72 0.67,-2.87 0.11,-5.5l-1.48 -0.5c-3.17,-1.41 -3.69,-5.14 -5.1,-8.08l-2.17 4.57c-1.25,0.19 -0.07,0.19 -1.5,-0.51 -2.2,-1.07 1.49,-0.13 -1.43,-0.87 -2.03,4.97 -2.46,4.96 -5.12,8.81 -2.9,4.22 -4.82,2.6 -6.41,6.87 -2.39,6.41 0.58,6.34 0.2,11.36 -0.02,0.26 -3.41,9.73 -3.55,9.97 -8.12,1.31 -4.69,-10.46 -8.06,-17.39 -1.64,-3.37 -2.03,-6.01 -3.1,-10.15 -1.4,-5.42 -0.92,-8.64 -2.13,-10.37l-3.14 2.85 -2.63 -3.5c-1.09,5.1 -1.68,15.61 0.7,21.08 0.75,1.73 2.27,3.7 2.72,5.65 1.35,5.67 -1.66,8.92 -5.18,10.46 -5.43,2.37 -7.83,-0.34 -12.25,-1.64l-0.81 11.95c2.56,1.79 9.67,2.43 12.63,4.44 4.38,2.97 -1.82,0.9 10.64,7.59 22.44,12.06 42.24,35.39 45.58,63.39 3.7,-3.2 6.46,-8.03 10.76,-12.22 3.61,-3.52 1.93,0.17 5.56,-6.27 2.04,-3.63 3.37,-5.24 6.56,-5.74 0,-0.01 6.05,-18.03 7.87,-26.04 7.15,-31.52 4.17,-60.94 -3.75,-91.33 -4.14,-15.88 -12.69,-37.44 -19.93,-49.31 -4.63,-7.58 -8.49,-14.42 -13.47,-20.8 -2.75,-3.52 -5.28,-6.24 -7.87,-9.56l-16.39 -17.89 -28.52 -23.26c-44.64,-30.32 -104.37,-48.4 -161.13,-46.45 -42.56,1.46 -77.67,11.13 -111.14,26.43 -16.22,7.41 -30.87,16.62 -43.13,26.12 -39.81,30.84 -69.9,73.92 -80.41,126.63 -7.67,38.45 -6.24,77.83 11.7,112.75l2.41 3.39c2.6,-14.63 11.85,-28.53 21.52,-38.56 14.91,-15.48 4.09,-2.2 9.28,-17.34 0.79,-2.3 2.61,-4.07 2.73,-5.33 0.48,-5.05 -8.79,-10.54 4.61,-34.1z"/>
   <path class="fil1" d="M463.69 187.49c-1.85,-1.34 -0.33,1.01 -1.94,-1.58 -0.89,-1.44 -0.37,-0.77 -0.55,-2.28 2.96,-1.56 8.4,-1.33 11.06,0.47l-7.51 -0.26 -1.06 3.65zm-30.28 -7.14c2.55,0.13 2.74,1.63 5.27,3.32l-0.4 6.59c-1.67,-0.46 -1.19,-0.54 -2.67,-1.28 -2.33,-9.96 -3.83,-3.02 -2.2,-8.64zm66.05 -21.15c2.29,0.96 2.58,2.36 3.4,5.22 0.64,2.23 0.93,6.05 -1.04,7.24l-2.36 -12.45zm-105.37 -44.14c2.04,0.63 3.8,0.85 6.48,1.43 -0.06,0.17 -0.16,0.41 -0.19,0.5l-0.26 1.46c-2.76,-0.17 -4.5,-1.34 -6.03,-3.38zm0 0l-2.56 0.08c-1.17,4.48 0.34,5.61 -5.8,5.01l-1.72 -4.11c-4.31,-0.83 -1.74,-0.14 -4.42,-1.9 -3.08,-2.02 -3.3,-0.36 -4.51,-0.31 -2.72,0.11 -8.42,-6.72 -17.81,-4.42 -13.69,3.37 -8.68,3.99 -16.12,11.43 -4.7,4.7 -0.23,2.62 -6.9,6.3 -2.11,1.17 -5.96,4.58 -5.8,7.43 0.12,2.32 1.33,2.84 2.06,4.91 1.22,3.42 -0.57,3.11 2.07,4.87 4.67,-0.56 0.15,-4.1 6.86,-6.09 0.33,5.47 0.46,10.47 6.43,11.5 2.41,-0.47 6.16,-9.01 6.78,-11.47 -2.46,-3.12 -4.59,-4.94 -0.87,-8.9 2.16,-2.3 5.2,-6.16 8.24,-7.26 0.91,3.31 0.99,3.45 3.34,5.43 6.29,-3.96 16.13,-7.59 25.09,-6.35 13.32,1.85 24.99,8.89 28.01,21.17 1.75,7.11 3.44,4.38 8.46,8.35 3.39,2.68 3.8,7.54 0.91,12.18 -2.63,4.2 -5.79,4.37 -11.19,5.43 1.48,5.02 2.65,6.57 -0.43,11.38 4.4,2.57 1.27,1.35 3.09,0.73 0.49,-0.17 -0.29,-2.39 2.41,1.09 -0.57,3.08 -0.45,0.91 -1.96,3.81 4.56,4.46 11.27,13.54 9.83,20.5 -3.27,0.1 -9.74,-1.17 -11.5,-3.34 0.36,-1.46 0.23,-0.51 1.14,-1.02l0.83 -0.38c-1.03,-4.92 -1.72,-5.35 -5.28,-7.5 -5.07,-3.07 -2.49,-2.98 -5.22,-7.88 -4.52,-0.18 -2.03,0.41 -5.69,6.35 -0.73,1.19 -0.33,0.64 -1.2,1.61l-1.4 1.37c-10,9.66 -15.46,-0.8 -23.06,2.92l1.09 3.77 4.66 -1.94c-2.11,5.62 -1.86,5.51 0.46,11.11l0.8 -3.8c0.35,0.17 0.33,0.25 0.69,0.75 0.06,0.07 0.19,0.27 0.25,0.36 0.07,0.1 0.22,0.31 0.29,0.41l0.66 0.95c1,-3.12 0.46,-2.48 3.55,-3.69 0.93,5.87 0.8,3.59 -0.8,8.5 -1.97,6.06 0.2,2.9 -4.05,6.72 1.81,3.01 2.58,1.73 7.85,4.85 5.87,3.48 21.18,12.63 27.17,12.93l1.39 -2.07 1.28 -2.85c-3.08,-2.91 -1.08,-1.91 -3.46,-5.76 -0.39,-0.64 -0.92,-1.33 -1.09,-1.49l2.2 -2.06c8.31,1.79 -0.19,3.57 11.5,8.58 8.27,-0.03 10.65,2.21 15.95,5.03 1.91,-2.09 3.07,-3.94 7.06,-4.9 12.91,-3.09 17.46,5.28 17.94,18.16l2.63 3.5 3.14 -2.85c1.22,1.74 0.73,4.96 2.13,10.37 1.07,4.14 1.46,6.79 3.1,10.15 3.37,6.93 -0.06,18.69 8.06,17.39 0.14,-0.24 3.53,-9.72 3.55,-9.97 0.38,-5.02 -2.59,-4.95 -0.2,-11.36 1.59,-4.27 3.51,-2.65 6.41,-6.87 2.66,-3.86 3.09,-3.84 5.12,-8.81 2.93,0.73 -0.77,-0.21 1.43,0.87 1.43,0.7 0.25,0.7 1.5,0.51l2.17 -4.57c1.41,2.94 1.94,6.67 5.1,8.08l1.48 0.5c0.57,2.63 0.61,2.78 -0.11,5.5 -0.59,2.24 -0.87,5.17 0.11,6.7l2.17 -4.37 1.95 3.18c0.17,-0.17 0.29,-0.55 0.32,-0.44l1.53 -2.2c0.57,6.35 1.36,12.53 1.75,18.93 0.43,6.95 4.15,10.33 0.67,15.83 -1.35,-1.04 -1.08,-2.12 -1.82,-4.89 -2.17,-0.1 -5.14,-0.56 -6.61,-1.39l2.16 4.36c6.24,10.78 4.31,15.72 7.82,25.74 1.82,5.21 0.67,5.39 6.24,7.27 0.34,-2.52 1.64,-4.43 -1.32,-4.84 -0.16,-0.02 -0.76,-0.07 -0.91,-0.09 -0.09,-0.01 -0.33,-0.02 -0.41,-0.03 -0.07,-0 -0.27,0.03 -0.39,-0.02 0.27,-4.91 3.96,-8.3 1.8,-14.29 -1.01,-2.79 -0.39,-1.35 -3.49,-1.17l-0.24 -3.42 3.46 -0.33c0.25,-7.11 -1.92,-11.29 -3.31,-17.21 -2.74,-11.63 -0.85,-7.2 0.14,-17.05 2.08,3.82 3.09,11.79 5.29,13.22 2.04,-1.52 1.13,-1.19 1.89,-4.07 0.57,-2.17 0.83,-2.88 1.24,-5.21 1.31,-7.52 -5.78,-13.78 -4.39,-17.49 1.76,-4.69 -0.36,-5.37 2.66,-8.47 0.94,2.91 -0.59,5.8 0.52,8.56 1.46,3.66 0.76,1.52 2.21,1.9 1.19,-13 -2.46,-2 3.63,-13.24 0.96,-1.77 0.95,-2.81 1.96,-4.34l2.49 6.13c1.87,-3.85 1.28,-4.37 0.76,-8.83 -0.93,-0.24 0.42,2.68 -1.73,-1.23 -0.9,-1.63 -1.34,-3.19 -1.33,-5.75 0.04,-5.59 -0.74,-4.89 -2.64,-9.34 -1.2,-2.8 -4.05,-7.28 -4.48,-8.77 -0.93,-3.3 3.46,-4.26 -1.39,-9.04 -3.19,0.52 -2.41,3.09 -3.91,-0.27 -1.07,-2.4 -1.51,-5.04 -0.29,-7.34l1.91 4.6c1.37,-0.38 1.02,-0.43 2.19,-0.06 -1.71,-12.84 -17.12,-35.04 -26.69,-45.76 -17.68,-19.78 -26.57,-31.13 -51.22,-46.06 -4.83,-2.93 -10.33,-6.67 -15.7,-8.7 -0.17,0.25 -1.76,-0.07 -0.06,2.61l-4.14 1c-2.07,-1.41 -3.63,-2.91 -5.91,-2.54 1.48,2.17 4.46,4.09 7.05,4.87l-5.5 -2.44c-2.08,-0.71 -0.43,-0.85 -1.93,-0.08 -2.13,1.77 0.6,3.23 1.85,5.02 -5.7,-3.83 -3.52,-1.64 -5.85,-1.44 -1.43,0.12 0.56,-0.64 -0.8,-0.05 0,4.02 2.57,3.21 4.74,5.67 1.84,2.08 2.21,5.11 1.34,7.49 -1.04,-2.03 -0.17,-3.81 -1.77,-6.32 -2.04,-3.19 -2.98,-1.07 -5.28,-3.73 -1.87,-2.16 -1.37,-3.4 -3.65,-4.91 -3.27,-2.17 -3.73,-0.25 -6.6,0.48 0.54,1.96 1.25,3.85 2.88,4.8 3.34,1.96 3.05,0.63 5.48,3.59 -2.48,-1.53 -11.37,-6.19 -15.11,-5.47 -0.58,3.13 -0.77,2.16 1.07,3.78 -6.33,0.51 0.24,1.56 -3.64,0.89 -1.32,-0.23 -2.88,-1.22 -3.63,-1.75 -2.55,-1.81 -4.73,-2.99 -8.55,-2.79 0.21,1.22 -0.02,0.71 0.43,1.76z"/>
   <path class="fil1" d="M147.2 177.97c1.13,-1.72 5.85,-5.09 8.51,-4.2 5.69,1.88 0.89,4.85 8.57,6.28 0.13,0.02 0.37,0.02 0.54,0.09 -3.4,5.36 -7.14,2.05 -10.98,5.22 -2.69,2.22 -3.82,5.84 -7.13,8.65 0.69,-2.25 1.86,-7.54 3.15,-9.15 2.35,-2.96 5.93,-2.34 7,-5.98 -3.1,-0.42 -6.05,0.39 -8.94,1.31l-0.71 -2.2zm-0.24 -6.93c-2.39,-2.89 -0.96,-8.06 1.67,-9.57l-0.26 6.84c-0.74,3.82 -0.43,1.76 -1.41,2.73zm-8.26 -24.93c1.52,-3.19 2.31,-2.61 5.05,-4.46 1.84,-1.23 2.68,-2.42 5.51,-1.39l-4.44 3.87c-1.27,0.88 -3.92,1.81 -6.13,1.98zm46.3 -32.36c2.17,-1.11 1.11,-1.23 3.34,-2.3 -0.25,4.33 0.06,1 -1.76,3.19 -1.33,1.59 -1.22,3.06 -1.47,3.36l-6.74 3.95c1.53,-3.2 2.87,-1.99 3.37,-6.28 -2.66,0.84 -0.15,-0.2 -2.57,1.27 -8.3,5.03 -7.59,3.96 -15.74,8.02l-9.22 4.71c-3.28,1.44 -6.49,2.61 -9.62,3.33 2.16,-1.24 4.45,-2.53 6.86,-3.75l-0.28 -3.1c6.8,-1.91 6.13,-5.88 9.72,-7.23 2.21,-0.83 2.84,-0.45 5.26,-0.65l-7.54 4.66c-1.25,0.93 -1.5,1.24 -3.05,2.51 -1.52,1.24 -1.54,0.74 -2.74,2.93 4.1,-0.5 13.64,-5.75 17.46,-7.68 1.58,-0.8 2.75,-1.39 4.19,-2.18 5.38,-2.95 2.58,-7.31 10.55,-4.77zm-62.15 151.82l4.97 -3.85c-2.03,-8.87 6,-3.27 3.6,-15.4 -0.57,1.52 -3.25,0.98 -5.16,1.33 -1.32,2.09 -2.22,6.88 -8.49,9.93 -1.8,-3.86 -3.56,-9.98 -3.89,-14.81 -0.4,-5.71 7.74,-16.62 11.68,-20.35 1.17,1.52 0.15,-1.92 -0.11,0.76 -0.23,2.3 1.5,2.91 3.75,3.06 6.84,0.46 1.65,-3 6.92,-4.26 11.33,-2.69 6.88,8.81 7.17,11.87 9.85,1.1 3.48,-10.52 7.69,-17.85 1.69,-2.94 5.62,-4.07 8.2,-5.7 5.86,-3.7 4.41,-4.29 2.93,-8.38 2.56,-2.41 4.72,-3.65 6.73,-6.49 2.82,-3.99 3.12,-3.24 8.56,-4.76 3.13,-5.92 -2.75,-3.19 11.18,-10.37 2.19,-1.13 5.35,-1.72 5.84,-4.14 0.5,-2.48 -0.88,-0.76 0.83,-3.96 1.03,-1.94 1.24,-1.07 1.73,-3.96 -4.21,0.64 -7.56,3.56 -11.41,4.8 1,-1.79 4.16,-4.55 6.16,-5.71 5.17,-3 7.25,0.13 11.91,-0.67 1.86,-0.32 12.36,-9.33 12.56,-9.98l-1.22 -2.07c-0.07,-0.13 -0.23,-0.54 -0.31,-0.66 -0.97,-1.42 0.59,-0.06 -1.07,-0.98 -2.64,-1.47 -2.58,-0.78 -2.21,-7.28 0.2,-3.37 0.02,-4.16 -0.3,-7.03 -3.55,0.17 -5.02,1.39 -7.76,2 -0.81,-2.43 -1.16,-1.68 0.46,-3.17l8 -10.44c1.37,2.48 -0.75,2.52 2.22,2.99 1.34,-1.79 1.17,-4.67 1.21,-7.51 1.95,0.33 3.46,1.57 5.09,2.62 1.43,-2.14 3.56,-2.6 5.23,-5.19 -2.54,-0.8 -4.07,-1.35 -5.34,-3.68 -1.67,-3.06 -0.32,-2.3 1.92,-4.7 -0.83,-0.57 0.02,-0.11 -1.28,-0.45 -0.13,-0.03 -0.61,-0.13 -0.73,-0.15l-0.61 -0.09c2.12,-1.31 1.14,-0.18 1.8,-2.76l-5.29 0.24c1.13,-3.04 3.08,-1.98 4.35,-4.91 -3.02,-0.04 -10.63,1.55 -13.83,2.21 -3.58,0.74 -11.7,2.81 -10.07,6.61l1.7 3.9c0.02,0.08 0.06,0.32 0.15,0.46 4.24,-0.87 6.61,-2.42 11,-2.09 -1.02,2.93 0.59,4.27 -2.29,7.06 -2.26,2.2 -5.33,2.03 -7.2,4.67 1.59,0.97 1.27,0.16 3.47,0.67 0.58,1.96 -0.09,1.72 1.01,3.11 1.89,2.37 0.72,-2.06 2.43,2.18 -1.39,0.35 -2.81,1.25 -5.05,1.38 -2.88,0.17 -3.83,-0.92 -6.64,-0.2 -2.08,0.53 -2.7,1.69 -3.99,3.07 -1.86,1.98 -2.24,1.87 -4.28,3.27 0.56,7.01 4.24,6.09 -3.13,11.76 -3.15,2.42 -2.14,-1.02 -4.94,2.03 -2.44,2.66 -0.58,3.75 -0.11,6.3 -2.23,2.15 -4.76,3.44 -8.21,3.61 0.54,-3.75 2.72,-4.81 2.08,-9.79l-6.19 -0.86 -1.8 -5.85c5.84,-10.66 18.09,-13.85 21.24,-19.62 2.73,2.9 -0.35,3.33 -1.7,6.94 2.39,-0.72 8.53,-4.2 7.88,-7.05 -0.98,-4.3 -2.35,1.69 -1.71,-3.49 4.26,1.33 3.61,0.67 6.98,-1.32 2.87,-1.7 4.24,-1.19 5.15,-4.23 -1.96,-0.17 -5.79,-0.7 -7.56,-0.61 -2.91,0.15 -3.02,1.3 -5.33,2.33 5.14,-17.5 3.87,-8 6.59,-14.54 -4.55,0.74 -14.33,4.19 -17.27,6.06 -2.04,-0.94 0.3,0.52 -0.86,-0.85l-0.87 -1.12c-0.06,-0.08 -0.18,-0.3 -0.31,-0.41 -6.24,2.22 -10.5,5.24 -15.7,8.59 -1.21,0.78 -0.09,-0.03 -1.24,0.89l-13.14 9.94c-4.05,2.8 -6.34,6.47 -10.26,10.01l-14.35 15.72c-1.62,2.16 -2.34,3.36 -4.28,5.54 -6.87,7.68 -15.76,22.69 -18.46,32.62 -1.95,-0.25 -0.3,0.52 -0.71,-1.59 -2.39,4.72 -4.11,6.26 -5.57,12.78 -2.26,10.15 1.71,13.94 0.2,23.39 -0.41,2.53 -2.31,4.65 -2.16,6.22 0.15,1.67 1.93,2.33 2.76,6.14 0.46,2.11 0.76,5.6 1.22,7.77 2.05,-2.06 1.53,0.01 0.8,-6.91 -0.63,-5.97 -3.13,-14.61 1.61,-18.81 0.74,20.32 2.81,13.43 3.26,24.67 0.09,2.07 0.34,2.07 -0.4,4.11 -1.35,3.72 -4.64,1.91 5.67,9.81 3.56,2.72 5.31,2.74 10.52,2.75l1.09 -1.8c1.43,2.77 1.96,3.96 5.29,4.73z"/>
   <path class="fil2" d="M439.22 401.87l14.78 45.15c-4.11,1.78 -10.52,2.3 -15.13,2.55l0.35 -47.7zm-4.24 3.43l-0.33 44.07c-4.84,-0.12 -11.58,-0.31 -15.24,-2.8l15.57 -41.27zm22.79 40.61c-1.63,-7.19 -12.2,-35.47 -14,-44.17l27.69 38.24c-2.64,1.81 -9.98,5.43 -13.7,5.93zm-41.04 -26.39c4.86,-6.12 9.49,-12.02 14.18,-18.31 0.29,6.2 -12.95,34.96 -15.16,44.35 -3.82,-1.01 -7.93,-3.04 -11.2,-5.21l-2.73 -2.57 14.91 -18.26zm58.51 17.89l-3.75 -4.54c-1.18,-1.63 -2.11,-3.01 -3.17,-4.53 -4.34,-6.22 -17.35,-22.78 -19.78,-27.87l10.3 6.6c3.14,2.07 6.32,4.54 9.26,6.81 3.44,2.66 16.62,11.74 18.18,14.01 -1.18,1.49 -1.36,1.02 -2.81,2.41 -0.98,0.94 -1.31,1.61 -2.26,2.65 -0.88,0.97 -4.43,3.55 -5.96,4.46zm-48.7 -37.44c-1.18,2.04 -2.17,3.05 -3.52,4.9l-14.14 18.03c-1.16,1.59 -2.37,3.1 -3.38,4.31l-7.19 9.13c-3.76,-2.39 -8.5,-6.84 -10.39,-10.74l38.61 -25.63zm42.49 -66.69l8.01 5.6 -2.13 2.51c-2.91,3.28 -2.6,1.87 -5.51,5.8 -0.01,0.92 -0.11,1.25 0.07,2.19 0.27,1.39 0.41,1.12 0.84,1.82 1.79,-1.77 1.03,-1.17 2.89,-2.5 3.47,-2.49 3.61,-3.92 6.93,-7.05 2.74,1.92 7.11,6.6 8.99,10.52 -0.1,0.13 -0.25,0.29 -0.32,0.36l-19.76 14.76 -0.03 4.29c3.06,-1.19 13.83,-9.06 17.32,-11.79l5.13 -3.75c2.52,2.35 5.39,10.52 6.38,14.51 -6.97,1.17 -24.47,6.8 -27.65,7.07 -0.43,0.04 -0.57,0.77 -0.9,-0.02 -0.06,-0.15 -0.29,-0.01 -0.43,-0.04l-0.52 4.72 30.28 -8.17c1.56,3.78 2.19,10.17 2.23,14.36l-34.48 -1.69c-2.69,1.4 -1.99,1.38 -3.57,3.65l37.72 2.28c0.01,4.71 -1.54,9.23 -2.28,13.65l-39.67 -12.35 -3.35 2.7c12.72,4.84 28.09,9.05 41.61,13.33 -1.82,5.49 -4.49,9.79 -7.59,13.56l-2.79 -1.58c-11.9,-8.13 -21.38,-16.15 -34.46,-23.97 -5.52,0.39 -8.13,2.03 -15.21,1.89 -6.96,-0.14 -9.07,-1.81 -14.26,-2.97 -2.02,1.87 -33.44,23.58 -37.64,25.2 -1.3,-3.79 -4.85,-8.39 -6.82,-14.09 5.2,-0.55 39.89,-9.64 42.52,-11.6 -1.48,-1.72 -1.86,-1.87 -4.17,-2.48l-39.96 10.65 -1.83 -15.37 35.96 0.53c-0.57,-2.85 -0.4,-1.33 -1.81,-3.68l-33.89 -0.76c-0.61,-5.27 1.37,-9.52 1.83,-14.63l28.71 9.57 -0.63 -5.18c-0.12,0.05 -0.31,0.07 -0.38,0.07l-26.18 -8.19c1.09,-4.46 3.84,-10.86 7.01,-13.28l19.5 13.38c0.58,-1.95 0.91,-2.84 -0.83,-4.26 -2.71,-3.09 -12.98,-10.1 -16.85,-12.15 1.04,-2.97 2.37,-3.39 4.95,-6.29 1.74,-1.95 3.52,-3.61 5.64,-5.61l-0.69 -3.52c-9.54,1.59 -38.71,39.41 -21.74,78.34 10.26,23.54 35.09,43.53 69.77,39.65 49.51,-5.54 74.03,-55.48 51.93,-96.95 -4.93,-9.25 -18.64,-27.04 -28.09,-26.64l0.22 3.56z"/>
   <path class="fil2" d="M192.68 324.08l-8.41 0.06 -0.19 10.38 -10.61 0.06 0.04 -10.46 -21.35 0.02 -0.18 10.41 -8.58 -0.27c-2.56,-0.77 -1.44,-6.11 -1.69,-10.02l-9.27 -0.16c-1.09,15.18 0.14,32.32 0.02,47.66 -0.17,20.15 12.28,17.64 30.17,17.66 7.13,0.01 16,1.08 22.19,-1.71 6.5,-2.93 8.06,-8 7.96,-15.95 -0.17,-15.4 0.77,-32.59 -0.11,-47.67z"/>
   <path class="fil3" d="M253.28 472.66l-0.45 55.89 13.38 -0.01 -0.15 -76.19 -20.2 -0.01 -10.56 49.5c-1.48,-2.61 -10.61,-43.32 -11.47,-49.47l-19.87 0 -0.08 76.18 12.9 0.01 -0.41 -53.61c1.19,1.81 9.19,37.47 9.78,40.3 0.87,4.2 2.52,9.28 2.93,13.27l10.76 -0.08 13.44 -55.78z"/>
   <path class="fil3" d="M108.46 452.58c-2.41,-0.33 -4.92,-0.23 -7.37,-0.28 -0.98,-0.02 -2.59,-0.1 -3.52,-0.03l-2.32 0.49c-0.09,-0.16 -0.34,0.11 -0.82,0.16l-7.39 56.16c-0.44,-0.72 -0.12,0.18 -0.69,-1.57l-8.47 -55.2 -13.62 0.14c-2.09,9.31 -7.76,51.26 -9.57,55.64l-8.37 -55.73 -14.03 0.04 13.47 76.14 16.87 -0.15c2.2,-5.19 5.48,-39.28 8.14,-45.41 0.83,8.19 2.19,15.19 3.56,23.29 1.16,6.86 3.25,15.61 3.72,22.28l17.38 0.04 13.04 -76z"/>
   <path class="fil2" d="M215.9 420.61c-2.2,-1.93 -5.63,-4.48 -7.59,-6.46 -1.69,-1.72 -1.2,-1.85 -3.39,-3.57l-11.03 -10.14 37.86 13.26c-1.14,5.57 -6.02,10.78 -8.88,13.8l-6.97 -6.9zm21.43 -21.56l-2.95 10.67c-5.97,-1.06 -15.17,-4.63 -21.21,-6.73 -5.57,-1.94 -15.29,-6.12 -20.53,-6.92 -2.02,0.69 -1.44,0.69 -2.77,1.47 -0.22,0.13 -0.92,0.54 -1.43,0.84l-1.65 0.97c0.1,0.12 0.28,0.27 0.34,0.33l7.95 7.46c2.54,3.3 5.31,4.53 8.43,7.7l16.26 15.22c0.05,-0.11 0.21,0.28 0.3,0.43 -2.53,2.99 -8.32,7.5 -11.99,9.09 -2.65,-3.25 -9.34,-15.85 -11.9,-20.26 -3.93,-6.76 -7.81,-13.36 -11.82,-19.52 -2.03,0.08 -2.46,0.26 -3.91,0.87 1.05,2.71 1.8,2.69 3.23,5.23l8.95 15.51c3.46,6.35 8.65,13.69 11.57,20.2 -1.71,1.99 -11.02,5.14 -14.01,5.6l-10.7 -46.14 -4.43 0.23c1.71,4.47 11.22,45.3 10.52,46.63 -4.64,1.79 -10.6,1.13 -15.63,0.92l4.96 -47.54 -4.2 0.01 -4.71 47.27 -15.68 -4.21c5.62,-14.33 13.48,-28.78 19.52,-43.15l-4.39 -0.86 -9.48 21.38c-3.38,6.6 -5.82,14.06 -9.43,20.63 -5.03,-2.44 -9.42,-4.58 -12.78,-7.7l30.19 -34.91c-0.5,-0.23 -1.83,-0.9 -2.43,-1.03 -3.61,-0.77 -1.47,-0.22 -2.27,0.22l-21.83 25.15c-1.37,1.54 -4.82,6.58 -7.35,7.57l-2.55 -3.14c-0.83,-0.83 -1.65,-1.46 -2.6,-2.31 -2.43,-2.19 -2.83,-2.62 -4.41,-5.55 6.19,-4.52 27.65,-16.66 34.69,-21.55 -0.15,-0.09 -0.38,-0.15 -0.49,-0.18 -1.42,-0.33 -8.36,-0.47 -8.21,0.63 -1.39,1.77 -5.66,3.86 -7.69,4.97 -5.88,3.22 -14.67,9.53 -20.72,12.56 -1.67,-3.09 -5.13,-9.86 -6.13,-13.66 4.3,-1.57 19.33,-5.41 21.8,-7.24l-3.76 -2.88 -19.1 5.92c-1.91,-4.63 -1.96,-11.57 -2.1,-16.84l14.56 0.81c0,-1.88 -0.18,-2.6 -0.65,-3.79 -4.47,-0.57 -9.92,-0.04 -14.02,-1.46l3.42 -15.19 10.08 3.96 -0.04 -3.8 -7.63 -3.43c0.7,-3.3 5.33,-10.93 7.06,-12.92l0.2 -5.67c-4.05,1.36 -7.02,8.63 -8.98,11.72 -2.8,4.38 -4.48,8.96 -6.04,14.24 -9.29,31.63 8.28,64.94 36.43,78.85 15.65,7.73 33.45,9.63 50.87,4.98 5.76,-1.54 9.44,-3.24 13.77,-5.83 11.29,-6.77 12.87,-7.95 21.63,-18.26 4.71,-5.55 12.99,-21.89 11.82,-27.19l-3.93 -0.39z"/>
   <path class="fil3" d="M520.24 508.12c-0.93,-5.41 -0.47,-28.05 0.1,-34.11 0.52,-5.44 1.64,-9.32 7.35,-9.36 5.76,-0.04 7.65,3.92 8.16,9.28 0.81,8.49 0.64,25.52 0.06,34.19 -0.36,5.41 -2.03,9.01 -7.54,9.16 -5.87,0.15 -7.26,-4.04 -8.13,-9.15zm-14.68 1.4c0.74,9.53 4.74,16.02 12.56,18.69 8.09,2.76 19.48,1.25 24.62,-2.96 6.07,-4.96 7.99,-12.57 8.08,-22.72 0.09,-9.36 0.74,-21.63 -0.26,-30.7 -2.9,-26.09 -29.08,-21.8 -37.3,-15.89 -5.88,4.22 -7.73,12.85 -7.93,22.8 -0.19,9.56 -0.51,21.39 0.23,30.8z"/>
   <path class="fil1" d="M209.16 92.62c-0.92,2.61 2.15,1.43 -3.34,4.8 -2.3,1.41 -0.44,-1.07 -2.05,1.52 1.81,-0.36 2.54,-0.79 4.31,-1.26 -1.88,2.99 -8.69,3.12 -12.46,4.17 -2.87,0.8 -2.25,1.04 -3.04,3.22 7.37,-0.9 2.06,-2.4 8.8,-1.54 2.01,0.26 16.64,-1 18.37,-1.96l6.56 -3.94c3.47,-2.68 1.87,-3.63 5.04,-5.51 2.7,-1.61 5.14,-1.53 7.76,-2.6 4.35,-1.77 11.81,-6.85 16.5,-3.8 -3.51,1.68 -10.55,1.82 -12.9,5.03 -1,1.37 0.62,0.51 -1.31,1.65 -2.03,1.19 -7.8,1.98 -9.91,5.57 9.45,-0.72 8.09,-1.39 12.66,1.74 0.63,7.39 -2.57,3.24 -1.04,11.19l-3.87 1.1c-0.15,0.06 -0.41,0.16 -0.57,0.3 0.85,1.3 -1.39,1.18 2.2,1.23 2.12,0.03 0.01,0.37 1.78,-0.86 -2.19,2.89 -0.61,1.63 -4.48,2.97 -2.04,2.81 -0.18,3.23 -3.56,5.53 1.93,5.22 1.04,9.7 3.86,12.11l6 3.37c3.37,-4.38 0.69,-3.76 5.82,-8.72l4.75 -5.07c5.98,-5.91 9.4,-0.52 12.75,-6.13l2.56 -3.76c4.87,0.52 7.05,-0.34 11.57,-0.93 -0.1,-1.47 0.76,-1.42 -2.19,-2.02 2.68,-0.16 3.4,0.11 4.78,-1.21 -3.17,-2.28 -4.39,-1.18 -6.01,-4.2l3.62 -0.67c-1.46,-2.11 -1.47,-0.95 -0.54,-2.65 4.37,-0.22 0.78,0.4 6.96,3.47l-0.22 -2.43c1.22,-1.26 -0.56,-0.73 2.61,-0.78 -0.69,-1.1 -1.39,-1.56 -1.01,-2.6 0.15,-0.43 2.61,-2.85 3.41,-4.99 0.65,-1.72 0.21,-1.78 0.89,-3.37 1.22,-2.89 4.59,-3.46 7.26,-6.6l1.24 -1.68c-7.6,-0.43 -14.17,2.49 -21.02,0.08l13.48 -1.06 -1.05 -2.46c-6.73,-0.17 -16.71,0.56 -23.39,1.6 -3.47,0.54 -8.24,2.41 -10.16,2.53 -0.87,0.05 -5.26,-0.31 -6.11,-0.52 -3.48,-0.82 -1.17,-1.31 -4.79,-0.76 -4.34,0.66 -17.73,3.06 -20.76,4.5 -8.74,4.19 -9,5.01 -19.74,6.39z"/>
   <path class="fil3" d="M434.2 500.19c0.62,7.45 -0.36,20.65 -9.63,17.37 -6.32,-2.23 -4.96,-15.43 -4.97,-22.72 -0,-6.4 -1.42,-22.06 2.07,-26.26 1.22,-1.46 12.33,-7.98 12.74,10.26l14.09 -0.19c-0.27,-7.91 -0.57,-12.85 -5.13,-17.7 -7.31,-7.76 -36.45,-15.52 -38.13,17.78 -0.56,11.18 -1.7,33.62 3.39,42.16 4.93,8.27 15.98,11 24.3,6.48 4.2,-2.28 3.5,-3.7 5.76,-5.22l0.51 5.56c1.94,1.19 3.82,1.24 9.22,0.66l-0.23 -40.14 -20.86 0.04 -0.09 11.57 6.95 0.35z"/>
   <path class="fil2" d="M88.55 110.23l1.48 2.85c-4.76,-0.62 -1.67,-0.87 -5.7,0.6 -3.76,-5.11 -0.98,-1.3 -2.59,-6.69l3.09 0.65c1.65,-0.01 -0.3,-0.63 1.35,0.06 1.22,0.51 0.91,0.52 1.89,0.56 0.65,0.03 0.07,-0.38 2.29,0.01 -0.61,1.95 0.19,0.58 -1.82,1.96zm35.69 10.5c4.7,-4.97 11.36,-11.59 17.2,-15.42 -0.68,-2.39 -10.36,-14.76 -12.21,-16.93 -4.03,-4.74 -9.83,-11.36 -13.13,-16.01 -7.38,0.83 -37.57,34.26 -39.99,37.83 3.88,5.31 17.57,15.82 23.86,20.7l8.11 6.6 16.16 -16.78z"/>
   <path class="fil2" d="M375.47 27.36l-1.19 -2.32c-0.26,-0.56 -0.37,-0.52 -0.72,-1.86 2.75,0.88 2.63,1.3 4.53,2.41 3.48,2.04 2.11,0.51 5.17,1.38l-1.45 0.96c-0.93,0.7 -0.55,0.38 -1.24,1.14 1.1,3.3 -0.16,-0.09 0.72,1.57 0.79,1.47 0.04,-0.23 0.81,1.31 0.93,1.86 0.53,0.52 0.82,2.67 -1.94,-0.91 -2.18,-0.55 -2.92,-2.67l-1.59 1.51c-1.94,1.82 -0.5,1.56 -3.18,1.57 -1.45,-2.56 2.45,-2.07 -3.12,-4.35 -1.22,-0.5 -0.74,-0.17 -1.9,-0.92 1.57,-1.56 3.29,-2.01 5.26,-2.41zm-12 24.79c2.91,2.41 16.53,4.48 21.45,5.76 7.08,1.84 14.86,4.46 21.79,5.96 2.03,-2.81 15.76,-34.99 16.44,-38.3 -5.57,-2.85 -47.11,-13.31 -53.5,-13.26 -2.38,6.37 -5.19,31.69 -6.17,39.84z"/>
   <path class="fil2" d="M235.94 26.59c13.3,-3.81 21.19,16.77 6.63,21.55 -6.71,2.2 -12.85,-3.07 -14.4,-7.61 -2.25,-6.61 3.41,-12.69 7.76,-13.94zm-29.36 -3.93c0.19,4.3 6.99,24.83 9.13,30.98 0.88,2.52 2.57,8.1 3.57,10.17 2.86,0.49 19.43,-4.23 23.79,-5.29 7.63,-1.85 17.09,-3.74 25.14,-4.29 0.4,-4.21 -3.42,-37.88 -4.63,-42.17 -8.79,-0.91 -46.88,7.66 -57,10.6z"/>
   <path class="fil3" d="M571.47 490.85l13.56 37.7 12.67 -0.04 0.04 -61.65 -11.42 -0.05c0.06,4.84 0.66,36.34 0.11,37.5l-13.26 -37.48 -13.22 0.08 -0.01 61.62 11.86 0.04 -0.33 -37.72z"/>
   <path class="fil1" d="M301.33 240.07c3.49,0.71 19.13,12.19 22.85,14.91 5.78,4.22 16.17,12.52 17.92,20.02l35.76 -2.84c-0.31,-5.72 -2.08,-5.41 -0.5,-12.99 -11.14,-2.81 -17.83,-3.01 -24.93,-13.57 -2.56,-3.8 -4.97,-6.9 -7.82,-11.07l-7.85 -11.78 -30.71 14.01c-3.7,1.57 -3.41,1.52 -4.72,3.3z"/>
   <path class="fil0" d="M343.07 23.62l-1.09 14.92c-1.66,3.44 -0.72,9.55 -1.86,13.37l-50.8 -0.63c-1.56,-2.82 -1.14,-7.92 -1.06,-10.8 0.05,-1.94 1.05,0.34 -0.39,-2.16l-0.8 -15.07 -0.81 -14.61c6.33,-1.13 22.29,-0.52 29.52,-0.43 9.63,0.12 19.3,0.25 28.89,0.34 0.48,1.9 -0.96,13.46 -1.61,15.08zm-59.67 35.65c2.64,0.69 38.81,0.29 48.47,0.64 4.44,0.16 12.61,2.28 14.7,-1.44 0.99,-1.76 4.71,-37.87 5.46,-44.82 0.65,-5.97 2.73,-11.66 -3.39,-12.52 -8.93,-1.26 -58.46,-1.7 -66.35,-0.04 -5.4,1.14 -3.8,7 -3.45,11.91 0.37,5.15 0.81,10.28 1.19,15.37 0.61,8.15 0.89,25.02 3.37,30.9z"/>
   <path class="fil2" d="M458.9 344.02l-16.59 -0.38 -0.24 8.84c-11.98,1.18 -9.86,0.21 -10.15,-8.71l-16.73 -0.12c-0.41,4.61 -0.6,28.43 0.14,32.14 2.28,11.49 14.57,11.38 21.45,11.37 6.73,-0.01 19.78,1.87 22.04,-10.85 0.99,-5.61 0.26,-25.48 0.09,-32.3z"/>
   <path class="fil0" d="M408.1 66.09c-6.95,-1.07 -15.9,-4.65 -23.01,-6.35 -7.78,-1.87 -15.91,-3.81 -23.78,-5.35 1.26,-14.2 4.26,-30.88 6.79,-44.6 8.59,1.58 53.07,11.58 57.31,14.39 -1.59,5.5 -14.72,38.14 -17.31,41.91zm-54.58 -5.43c3.82,1.99 24.38,5.18 30.87,6.84 4.85,1.24 9.99,2.76 14.78,4.11 13.87,3.94 11.01,10.15 25.65,-26.52 1.88,-4.7 3.59,-8.81 5.44,-13.44 1.81,-4.53 5.74,-10.81 1.23,-13.43 -9.94,-5.77 -47.37,-12.83 -61.26,-14.96 -11.33,-1.74 -9.46,-1.72 -13.17,23.71 -1.09,7.46 -5.09,27.92 -3.54,33.68z"/>
   <path class="fil3" d="M471.32 512.32c-0.98,-4.73 -0.69,-21.19 -0.39,-26.61 0.69,-12.52 11.74,-10.43 12.61,-3.43 0.81,6.57 0.15,19.39 0.13,26.58 -0.05,12.57 -10.76,11.05 -12.35,3.46zm-13.76 -4.2c0.54,9.03 2.63,13.89 7.83,17.58 5.08,3.61 13.47,5.29 20.24,2.62 14.22,-5.59 11.67,-23.39 11.31,-40.5 -0.17,-8.37 -1.71,-14.99 -7.12,-18.74 -5.27,-3.66 -15.17,-4.22 -21.42,-1.4 -13.61,6.14 -11.7,25.85 -10.84,40.44z"/>
   <path class="fil0" d="M439.58 48.78c0.94,-2.37 1.89,-4.33 2.73,-6.66l4.16 -10.12c3.39,0.54 31.63,14.36 37.39,17.77 2.16,1.28 9.81,5.89 11.41,7.98 -0.56,3.14 -3.71,6.72 -5.28,8.21 -1.3,2.13 -3,4.17 -4.33,6.57l-1.45 2.48c-2.39,4.65 -2.02,2.17 -3.58,5.81l-1.51 -0.11c0.25,1.84 -3.67,6.24 -5.04,7.61 -0.72,1.98 -0.84,2.02 -2.26,3.78 -1.24,1.53 -1.49,1.88 -2.88,2.93l-20.07 -11.59c-6.56,-3.6 -14.34,-7.12 -21.03,-10.2 2.15,-2.83 2.34,-5.55 4.7,-8.06l2.62 -6.7 4.01 1.36c-2.15,-2.62 -1.58,-0.47 -2.83,-3.5 1.01,-2.49 1.35,-1.86 1.93,-3.26 0.85,-2.04 -0.14,-1.48 1.31,-4.32zm30.06 55.93c2.83,-1.15 8.2,-8.49 10.73,-11.74l23.74 -32.29c2.35,-3.29 2.32,-4.96 -0.72,-7.29 -9.25,-7.06 -51.81,-30.08 -60.71,-29.89 -2.55,4.2 -24.09,52.31 -23.67,53.51 0.83,2.39 22.04,10.82 26.09,13.04l24.55 14.66z"/>
   <path class="fil0" d="M206.58 22.66c10.12,-2.94 48.21,-11.51 57,-10.6 1.21,4.3 5.03,37.96 4.63,42.17 -8.05,0.55 -17.51,2.44 -25.14,4.29 -4.35,1.06 -20.93,5.78 -23.79,5.29 -1,-2.07 -2.69,-7.65 -3.57,-10.17 -2.14,-6.15 -8.94,-26.68 -9.13,-30.98zm-8.59 -4.5c-1,4.78 1.67,9.39 3.29,14.22 2.34,7.02 12.08,39.31 14.7,40.53 4.29,0.73 17.07,-3.94 22.26,-5.28l34.85 -7.09c4.59,-1.56 2.79,-6.06 2.23,-10.53l-4.07 -37.83c-0.4,-4.62 -0.07,-8.83 -4.55,-9.56 -7.65,-1.22 -59.74,11.48 -68.7,15.54z"/>
   <path class="fil0" d="M530.73 85.83c2.29,1 6.42,4.01 7.35,6.97 1.14,-0.68 1.33,0.79 1.19,-1.15 0.77,3.29 5.39,6.24 8.22,9.23l7.76 9.42c-1.31,1.93 -13.28,11.85 -15.65,13.35 -0.78,0.71 -5.35,4.29 -6.34,4.78 -2.22,2.13 -4.79,4.38 -6.58,5.96 -2.03,1.8 -5.29,4.69 -7.7,5.88l-8.78 -9.78c-3.48,-3.4 -2.4,-1.09 -2.83,-4.45 -2.39,-0.74 -5.97,-4.57 -6.98,-6.7 -2.39,0.35 -1.81,0 -3.37,-1.56 -1.6,-1.61 -2.03,-1.81 -3.28,-3.01 -1.55,-1.49 -4.7,-4.63 -6.45,-5.28l2.34 -3.09c0.14,-0.16 0.55,-0.58 0.69,-0.73l2.09 -2.83c5.09,-6.94 3.66,-3.26 6.04,-6.48 0.59,-2.51 0.68,-2.04 2.35,-3.99 1.09,-1.28 1.46,-1.96 2.63,-3.68 2.04,-0.22 0.17,-0.22 1.23,0.89l0.06 -1.37c0.24,-1.86 3.25,-5.61 4.64,-7.55 1.11,-1.54 0.72,-1.01 1.92,-2.38 1.88,-2.16 3.34,-3.53 4.11,-6.22 3.4,0.97 0.46,-0.63 3.31,1.73 2.42,2 11.26,9.65 12.05,12.04zm-17.4 -23.2c-2.96,1.64 -2.37,1.94 -5.21,5.64 -1.56,2.01 -2.87,3.75 -4.52,5.96l-23.69 30.15c-2,2.34 -4.22,3.95 -1.19,7.18 2.6,2.76 12.31,8.74 20.5,17.28 4.08,4.25 7.51,6.14 13.46,13.83 5.8,7.49 4.65,7.96 18.34,-3.23 2.3,-1.88 3.53,-2.63 5.86,-4.63l24.04 -19.29c7.43,-5.99 0.49,-9.13 -7.47,-18.54l-30.28 -29.13c-4.25,-3.49 -7.24,-6.67 -9.86,-5.22z"/>
   <path class="fil3" d="M276.85 467.1c0.52,13.47 -0.03,27.48 0.13,41.04 0.16,14.31 3.6,21.93 19.23,21.52 15.69,-0.4 18.96,-6.94 18.94,-22.24 -0.02,-13.17 0.52,-27.52 -0.09,-40.57l-12.45 0.05c-0.44,9.51 -0.07,19.74 -0.08,29.33 -0.01,7.68 2.74,22.33 -6.33,22.58 -5.33,0.15 -6.18,-3.61 -6.26,-8.56l-0.07 -43.45 -13.01 0.29z"/>
   <path class="fil0" d="M193.8 57.87c3.24,1.01 1.13,-0.73 2.68,2.41l4.43 11.46c-11.26,5.33 -21.37,9.6 -32.21,15.87 -3.81,2.2 -7.12,4.82 -10.26,5.65l-7.35 -9.27c-1.2,-1.74 -0.67,-1.08 -1.45,-3.19 -1.69,-1.56 -8.7,-11.94 -9.31,-13.84 -1.9,-1.62 -5.74,-6.33 -6.2,-8.5 7.22,-4.74 43.83,-26.04 50.91,-26.59 1.09,2.97 3.14,7.55 3.57,9.98 1.41,1.84 2.53,5.61 3.5,8.1 0.79,2.02 3.64,6.89 1.71,7.94zm15.31 17.37c-0.07,-4.19 -8.94,-25.15 -10.83,-30.02 -8.51,-21.94 -6.41,-25.1 -16.51,-20.81 -14.17,6.02 -41.05,20.15 -53.12,28.69 -6.54,4.63 -1.7,7.75 1.61,12.52 2.83,4.07 5.48,8.06 8.31,11.98l17.23 23.44c3.46,2.99 6.9,-1 12.82,-4.43 12.4,-7.18 14.58,-7.93 26.57,-14.01 4.17,-2.12 11.36,-3.87 13.93,-7.36z"/>
   <path class="fil0" d="M34.12 173.14c2.07,-8.31 25.68,-41.39 26.77,-44.04 5.74,2.63 29.37,22.67 33.28,24.09 -1.57,4.85 -17.2,25.7 -20.33,35.94 -12.57,-4.26 -29.35,-9.35 -39.71,-16zm-9.33 4.53c3.66,2.07 9.02,4 13.43,5.92l28.09 11.09c5.74,2.3 10.44,6.23 13.5,-0.25 4.56,-9.67 8.95,-16.87 13.94,-25.13 13.03,-21.52 18.98,-10.69 -18.72,-40.04 -7.47,-5.82 -13.35,-12.69 -17.67,-8.28 -0.77,0.79 -3.19,4.11 -4.26,5.54 -7.82,10.39 -15.87,24.51 -22.44,36.32 -2.51,4.5 -6.28,9.15 -5.86,14.82z"/>
   <path class="fil0" d="M108.09 137.5l-8.11 -6.6c-6.3,-4.88 -19.98,-15.4 -23.86,-20.7 2.42,-3.57 32.61,-37 39.99,-37.83 3.29,4.65 9.09,11.27 13.13,16.01 1.85,2.18 11.54,14.55 12.21,16.93 -5.84,3.83 -12.5,10.45 -17.2,15.42l-16.16 16.78zm6.54 -74.21l-9.09 6.63c-3.68,3.24 -37.62,35.48 -38.58,40.49 -0.64,3.36 2.12,4.65 3.98,6.15 1.97,1.6 3.75,3.09 5.85,4.65l25.63 21.26c5.99,5.1 4.37,7.99 14.58,-3.75 4.41,-5.06 20.61,-20.38 27.15,-25.28 6.96,-5.2 8.76,-5.6 3.87,-11.69l-18 -23.99c-1.6,-2.12 -3.05,-3.56 -4.66,-5.81 -3.45,-4.83 -6.77,-10.46 -10.74,-8.65z"/>
   <path class="fil0" d="M553.22 140.12c1.68,-0.38 1.34,-0.42 1.75,-1.21l7.98 -5.29c2.61,-1.74 4.7,-3.46 7.4,-5.04 2.9,2.77 6.78,8.85 9.28,12.15l0.98 1.19c0.8,0.85 0.91,0.85 1.7,1.41l-0.32 2.22c0.93,2.04 0.7,2.23 2.64,3.47 2.32,-2.5 0.61,0.3 2.54,4.65 1.61,3.61 8.39,14.96 9.15,18.31l-13.96 6.89c-3.24,1.89 -2.16,2.15 -4.24,1.3 -0.09,0.14 -0.3,0.15 -0.35,0.36l-1.15 0.95c-0.59,0.42 -1.67,1.01 -1.83,1.17 -0.78,2.55 0.4,1.1 -2.17,2.29 -1.03,0.47 -2.25,0.29 -3.53,0.47l-16.2 6.6 -7.08 -13.09c-1.26,-1.87 -2.19,-1.37 -3.64,-3.05 -0.08,-0.09 -0.82,-1.24 -0.9,-1.44 -1.85,-5.02 -0.37,-1.97 0.37,-3.02 -1.44,-1.48 -1.13,-1.38 -1.57,-3.49 -1.59,-2.39 -2.74,-3.44 -4.16,-5.83 -1.86,-3.12 -3.35,-3.98 -3.65,-6.44 5.31,-3.83 11.92,-6.38 15.08,-11.83 0.87,-1.51 1.47,-2.59 3.2,-3.21 1.8,-0.65 -1.1,-0.42 2.7,-0.5zm52 35.81c0.55,-8.12 -22.56,-43.13 -29.14,-52.58 -5.7,-8.19 -5.19,-5.78 -23.04,7.98 -7.97,6.15 -15.67,11.46 -23.79,17.49 -6.5,4.83 -7.82,3.53 -2.68,11.44l14.94 25.64c10.85,20.47 3.05,16.22 35.76,3.29 5.03,-1.99 25.48,-9.94 27.94,-13.26z"/>
   <path class="fil0" d="M614.53 344.38c-1.42,3.93 -2.15,9.32 -4.41,12.46 -0.83,3.58 -3.35,9.48 -5,12.6l-41.11 -17.08 3.28 -11.47c0.39,-4.39 1.75,-6.47 1.43,-10.29l1.22 -2.02c0.08,-0.16 0.17,-0.33 0.24,-0.49 0.52,-1.15 0.57,-1.57 0.82,-2.66 0.43,-1.89 0.65,-3.88 1.24,-5.99l46.74 7.22c-0.21,1.28 -3.93,16.57 -4.46,17.72zm-59 11.26c1,2.2 1.2,1.96 4.07,3.1l34.01 14.93c12.28,5.19 14.95,8.26 17.97,0.11 6.31,-17.04 9.14,-22.85 13.49,-41.73 3.2,-13.87 3.89,-12.15 -9.97,-14.15 -7.09,-1.02 -45.06,-7.47 -48.55,-5.91 -1.45,0.94 -4.39,17.81 -5.57,22.43 -1.07,4.18 -6.72,18.78 -5.45,21.22z"/>
   <path class="fil3" d="M131.13 480.99l5 25.89 -10.34 -0.27 5.35 -25.62zm-8.46 47.48c0.33,-3.7 0.76,-8.54 2.19,-11.59l12.59 0c1.31,2.3 2.31,9.15 2.64,11.68l13.09 0 -13.64 -61.69 -16.75 -0.05 -12.51 61.74 12.38 -0.09z"/>
   <path class="fil0" d="M589.59 199.75c2.07,-1.76 13.11,-6.1 16.75,-6.16 1.91,12.3 11.6,32.76 11.63,44.26 -5.68,-0.12 -10.9,2.38 -17.13,2.55l-16.47 2.6c-1.16,0.47 -13,2.79 -14.59,2.77 -0.84,-3.12 -0.7,-5.46 -1.59,-8.71l-6.81 -24.87c0.12,-2.71 1.88,-2.56 2.94,-3.02l7.24 -2.67c2.89,-0.46 0.92,-0.54 3.66,0.36 -1.19,-2.34 -0.81,-1.54 1.67,-2.62 1.32,-0.58 2.63,-1.03 4.06,-1.56 2.99,-1.1 5.57,-2.19 8.64,-2.93zm36.2 42.63c1.2,-3.81 -11.87,-49.87 -14.71,-55.43 -2.51,-4.91 -7.37,-1.1 -11.57,0.63l-38.67 15.23c-11.34,4.7 -9.58,1.84 -3.4,21.68 1.43,4.58 2.66,9.17 3.65,13.83 0.78,3.63 1.23,13.04 3.95,14.28 2.13,0.98 26.77,-3.36 31.09,-3.98 5.39,-0.78 27.09,-3.05 29.65,-6.24z"/>
   <path class="fil0" d="M622.83 272.99l0.26 15.04 -0.76 16.04c-5.71,0.22 -45.93,-3.53 -48.93,-5.11l0.73 -17.41 -0.25 -6.31 -0.44 -11c8.17,-0.33 17.15,-1.4 24.87,-2.42 6.95,-0.91 17.35,-2.65 23.68,-2.68l0.84 13.85zm4.26 -20.99c-3.29,-1.6 -45.09,4.85 -52.52,5.81 -12.45,1.61 -9.17,-0.14 -7.86,18.81 0.63,9.12 -0.96,20.88 -0.2,28.46 4.74,1.3 57.31,7.73 60.83,6.96 4.72,-2.36 3.02,-38.77 2.44,-46.57 -0.32,-4.31 0.25,-11.52 -2.7,-13.46z"/>
   <path class="fil0" d="M56.7 244.02c-4.06,0.99 -36.84,-5.46 -44.08,-6.63 1.56,-14.05 8.63,-30.74 12.16,-43.95l20.36 7.71c5.81,2.18 14.71,5.96 20.2,7.41 -3.21,13.69 -5.47,18.5 -8.64,35.46zm-52.15 -1.57c6.39,3.26 20.01,4.22 28.65,5.66 39.24,6.5 25.7,7.86 35.56,-24.82 7.69,-25.5 12.97,-15.18 -26.5,-31.19 -4.13,-1.67 -8.45,-3.25 -12.15,-4.66 -4.49,-1.72 -8.26,-4.72 -11.1,0.16 -3.23,5.52 -15.23,47.8 -14.46,54.85z"/>
   <path class="fil2" d="M15.09 235.47l39.83 6.61 7.45 -31.87c-0.18,-0.11 -0.46,-0.46 -0.56,-0.3 -0.1,0.16 -0.41,-0.22 -0.55,-0.29l-34.38 -13.09c-3.31,3.14 -10.32,32.24 -11.79,38.95z"/>
   <path class="fil3" d="M322.68 508.76c0.33,7.07 0.4,10.61 4.03,15.03 7.74,9.41 32.28,9.22 32.25,-12.18 -0.02,-12.41 -8.38,-16.43 -16.28,-21.28 -16.52,-10.13 1.88,-24.1 2.62,-6.74l13.08 0c-0.81,-11.02 -4.33,-16.57 -15.28,-17.7 -10.61,-1.09 -18.15,4.65 -19.76,13.41 -2.11,11.44 5.08,16.89 10.87,20.89 3.19,2.21 7.6,4.67 9.75,7.06 8.19,9.1 -8.92,21.88 -8.49,1.49l-12.78 0.03z"/>
   <path class="fil4" d="M60.1 149.93c16.98,-6.24 25.05,19.67 9.67,24.06 -16.98,4.85 -25.4,-18.28 -9.67,-24.06zm-25.98 23.21c10.36,6.65 27.14,11.74 39.71,16 3.13,-10.24 18.77,-31.09 20.33,-35.94 -3.91,-1.43 -27.53,-21.46 -33.28,-24.09 -1.09,2.65 -24.69,35.72 -26.77,44.04z"/>
   <path class="fil0" d="M51.85 286.96l0.37 12.05c-4.19,0.54 -6.9,1.17 -11.26,1.2 -7.85,0.05 -14.89,1.48 -22.34,1.74 -3.87,0.13 -6.83,1.11 -10.58,1.26l-0.62 -17.3 -0.02 -13.97 0.76 -13.4c5.44,-0.44 16.11,1.87 21.74,2.53 7.78,0.91 14.53,1.24 23,1.92l-0.64 12.66 -0.41 11.32zm7.9 16.82c0.59,-9.01 -0.47,-18.97 0.09,-28.57 1.02,-17.33 3.82,-17.05 -6.77,-18.39 -8.29,-1.05 -44.72,-6.8 -49.6,-5.8 -4.82,5.37 -4,52.3 -1.28,59.37 4.66,1.13 22.85,-1.98 29.2,-2.67 6.87,-0.75 24.16,-1.21 28.35,-3.94z"/>
   <path class="fil0" d="M11.67 324.89c4.5,-2.87 34.88,-6.5 42.39,-8.11 2.31,4.66 0.45,2.45 2.26,8.16l2.72 11.23c0.33,1.13 0.38,0.93 0.74,2.09l2.98 13.89c-7.03,2.33 -13.65,4.8 -19.76,7.69 -6.1,2.89 -14.34,5.56 -20.24,7.6 -2.48,-3.02 -11.76,-36.6 -11.1,-42.55zm47.76 -14.28c-3.5,-1.28 -36.01,4.6 -44.34,5.9 -7.55,1.18 -11.69,0.46 -11.85,4.83 -0.21,6 11.43,49 14.11,53.02 2.65,3.97 8.13,0.56 12.02,-0.9l35.97 -14.37c6.2,-2.43 8,-1.85 5.43,-9.48l-7.53 -26.02c-0.94,-3.82 -1.46,-10.93 -3.82,-12.98z"/>
   <path class="fil2" d="M132.27 318.56l8.68 0c0.62,-0.92 0.12,-0.25 0.72,-1.4 0.52,-1.01 -0.28,-0.17 0.87,-1.71l8.91 -0.16c0.97,1.93 0.17,1.51 1.4,3.26l19.58 -0.1 1.42 -3.29 9.07 0.15 1.12 3.13 8.46 0.09c1.08,-26.44 -2.07,-21.98 -29.87,-21.98 -30.77,-0 -30.56,-4.52 -30.36,22.01z"/>
   <path class="fil3" d="M153.05 467.02c2.76,6.91 14.55,35.53 14.59,42.48 0.04,6.24 0.14,12.76 -0.1,19.04l12.6 -0.02c-0.15,-5.72 -0.47,-14.17 -0.01,-19.69 0.46,-5.46 12.89,-33.24 15.3,-41.97l-13.46 -0.03c-1.84,5.1 -5.59,20.49 -7.99,23.95l-7.26 -23.92 -13.67 0.17z"/>
   <path class="fil5" d="M16.64 344.44c3.36,-4.65 13.5,-16.55 15.75,-20.43 3.28,0.44 22.58,9.11 24.63,10.67l-14.67 21.33 -25.72 -11.57zm-4.98 -19.55c-0.66,5.95 8.61,39.54 11.1,42.55 5.9,-2.04 14.13,-4.71 20.24,-7.6 6.12,-2.9 12.73,-5.36 19.76,-7.69l-2.98 -13.89c-0.37,-1.16 -0.41,-0.96 -0.74,-2.09l-2.72 -11.23c-1.81,-5.71 0.05,-3.5 -2.26,-8.16 -7.51,1.6 -37.89,5.23 -42.39,8.11z"/>
   <polygon class="fil3" points="362.49,477.42 374.51,477.39 374.56,528.54 387.07,528.47 387.15,477.39 399.04,477.38 398.96,466.85 362.49,466.84 "/>
   <path class="fil6" d="M287.08 23.24l55.99 0.37c0.65,-1.61 2.09,-13.18 1.61,-15.08 -9.59,-0.09 -19.26,-0.22 -28.89,-0.34 -7.23,-0.09 -23.18,-0.69 -29.52,0.43l0.81 14.61z"/>
   <path class="fil7" d="M287.88 38.31c7.99,0.48 18.15,-0.42 26.51,-0.34 9.26,0.09 18.34,0.12 27.59,0.56l1.09 -14.92 -55.99 -0.37 0.8 15.07z"/>
   <path class="fil0" d="M520.24 508.12c0.87,5.11 2.26,9.3 8.13,9.15 5.51,-0.15 7.18,-3.75 7.54,-9.16 0.58,-8.67 0.75,-25.7 -0.06,-34.19 -0.52,-5.36 -2.4,-9.31 -8.16,-9.28 -5.71,0.04 -6.83,3.92 -7.35,9.36 -0.57,6.06 -1.02,28.7 -0.1,34.11z"/>
   <path class="fil8" d="M589.59 199.75c0.47,3.97 4.57,14.59 5.91,19.51 1.9,7.01 3.56,14.04 5.35,21.14 6.23,-0.17 11.44,-2.67 17.13,-2.55 -0.03,-11.49 -9.71,-31.95 -11.63,-44.26 -3.65,0.06 -14.68,4.4 -16.75,6.16z"/>
   <path class="fil2" d="M413.76 323.46l1.71 14.66 15.71 0.18c0.79,-1.15 0.21,-0.24 0.74,-1.59 0.37,-0.95 0.12,-0.81 0.66,-2.04l9.1 0.03 1.11 2.98c0.06,0.11 0.17,0.34 0.28,0.48l15.75 0.03c3.01,-21.57 -4.87,-19.65 -32.58,-19.3 -5.13,0.07 -9.05,2.76 -12.48,4.57z"/>
   <path class="fil7" d="M553.22 140.12l-2.52 2.22c-1.1,0.8 -0.98,0.73 -2.17,1.33 1.13,3.58 5.88,11.08 7.8,14.74 -5.56,2.65 -12.9,9.06 -16.29,9.5 0.45,2.11 0.13,2.01 1.57,3.49l2.78 5.19c4.95,-2.95 10.87,-7.39 16.17,-9.65 2.83,4.26 7.07,12.47 9.11,17.44 2.5,-0.46 2.37,-1.03 5.11,-1.73 0.17,-0.16 1.24,-0.75 1.83,-1.17l1.15 -0.95c0.06,-0.22 0.26,-0.22 0.35,-0.36l-9.66 -18.09 16.6 -10.65c-0.7,-2.02 -0.16,-0.66 -0.43,-2.41 -1.94,-1.24 -1.71,-1.43 -2.64,-3.47l-1.84 -1.83c-4.99,2.85 -11.24,7.88 -16.22,9.9l-6.11 -11.23c-1.3,-2.54 -1.02,-2.33 -2.85,-3.47 -0.41,0.79 -0.07,0.83 -1.75,1.21z"/>
   <path class="fil9" d="M504.64 89.59c-1.07,-1.11 0.8,-1.11 -1.23,-0.89 -1.17,1.72 -1.54,2.4 -2.63,3.68 -1.67,1.95 -1.77,1.48 -2.35,3.99 1.61,0.56 10.86,9.28 12.37,10.92 -0.96,2.44 -8.11,10.02 -10.42,12.06 1.01,2.13 4.59,5.96 6.98,6.7 0.98,-3.06 7.61,-8.69 10.55,-11.65 2.4,1.65 5.4,4.76 7.74,6.96 2.75,2.58 4.59,5.44 7.61,7.08 1,-0.49 5.56,-4.07 6.34,-4.78 -1.5,-2.48 -5.44,-5.62 -7.78,-7.8 -1.96,-1.82 -5.85,-5.6 -7.5,-7.76 1.1,-2.3 11.61,-13.91 13.76,-15.3 -0.93,-2.96 -5.06,-5.97 -7.35,-6.97 -2.96,3.87 -11.02,12.85 -13.8,14.88 -1.72,-1.71 -4.17,-3.83 -6.25,-5.68 -1.46,-1.3 -3.91,-4.12 -6.04,-5.44z"/>
   <path class="fil7" d="M164.8 55.54c7.59,-4.41 12.21,7.01 6.19,9.92 -7.34,3.54 -12.44,-6.28 -6.19,-9.92zm-24.48 11.4c0.62,1.91 7.63,12.29 9.31,13.84 7.15,-2.98 14.86,-8.24 21.74,-11.53 7.85,-3.75 14.66,-8.24 22.43,-11.39 1.93,-1.05 -0.92,-5.92 -1.71,-7.94 -0.97,-2.48 -2.09,-6.26 -3.5,-8.1 -7.16,4.19 -16.93,8.32 -24.46,12.57 -5.47,3.08 -18.6,10.92 -23.82,12.55z"/>
   <path class="fil5" d="M149.64 80.78c0.78,2.11 0.25,1.45 1.45,3.19l7.35 9.27c3.14,-0.83 6.45,-3.45 10.26,-5.65 10.83,-6.27 20.95,-10.53 32.21,-15.87l-4.43 -11.46c-1.54,-3.14 0.57,-1.4 -2.68,-2.41 -7.77,3.14 -14.58,7.63 -22.43,11.39 -6.88,3.29 -14.59,8.55 -21.74,11.53z"/>
   <path class="fil8" d="M623.09 288.03l-48.73 -0.89 -0.23 -5.59 -0.73 17.41c3,1.59 43.22,5.33 48.93,5.11l0.76 -16.04z"/>
   <path class="fil10" d="M341.98 38.54c-9.26,-0.44 -18.33,-0.47 -27.59,-0.56 -8.36,-0.08 -18.52,0.81 -26.51,0.34 1.43,2.5 0.43,0.22 0.39,2.16 -0.07,2.88 -0.49,7.98 1.06,10.8l50.8 0.63c1.13,-3.82 0.2,-9.93 1.86,-13.37z"/>
   <polygon class="fil11" points="573.89,275.24 574.13,281.55 574.37,287.14 623.09,288.03 622.83,272.99 "/>
   <path class="fil2" d="M140.32 66.94c5.22,-1.63 18.35,-9.46 23.82,-12.55 7.52,-4.24 17.3,-8.38 24.46,-12.57 -0.43,-2.43 -2.47,-7 -3.57,-9.98 -7.08,0.56 -43.69,21.85 -50.91,26.59 0.46,2.17 4.3,6.88 6.2,8.5z"/>
   <path class="fil5" d="M51.85 286.96l-44.42 -1.06 0.62 17.3c3.75,-0.15 6.71,-1.13 10.58,-1.26 7.44,-0.26 14.48,-1.69 22.34,-1.74 4.36,-0.03 7.06,-0.67 11.26,-1.2l-0.37 -12.05z"/>
   <path class="fil12" d="M568.72 330.59c4.61,0.06 17.64,4.04 22.52,5.52 6.72,2.05 16.21,5 23.69,5.16l-0.4 3.1c0.53,-1.15 4.25,-16.44 4.46,-17.72l-46.74 -7.22c-0.6,2.11 -0.81,4.1 -1.24,5.99 -0.24,1.09 -0.3,1.51 -0.82,2.66 -0.07,0.16 -0.17,0.33 -0.24,0.49l-1.22 2.02z"/>
   <path class="fil7" d="M575.22 206.85c2.74,7.09 8.94,28.27 9.15,36.14l16.47 -2.6c-1.79,-7.09 -3.44,-14.13 -5.35,-21.14 -1.33,-4.92 -5.44,-15.54 -5.91,-19.51 -3.07,0.73 -5.65,1.82 -8.64,2.93 -1.43,0.53 -2.74,0.98 -4.06,1.56 -2.48,1.08 -2.86,0.28 -1.67,2.62z"/>
   <path class="fil1" d="M334.63 307.22c0.77,8.4 -0.64,6.86 2.79,13.44 8.2,2.46 5.63,-0.85 10.52,5.72l0.71 0.83c2.43,-2.38 4.55,-4.94 7.11,-7.13 3.19,-2.72 3.89,-5 6.48,-7.49 2.7,-2.6 11.28,-11.6 12.76,-14.65 -10.51,1.8 -24.71,1.9 -33.99,3.35 -3.83,0.6 -4.62,3.51 -6.38,5.92z"/>
   <path class="fil2" d="M567.29 340.88c0.15,0.13 0.37,0.13 0.45,0.38l4.4 2.19c1.68,0.54 3.77,1.26 5.76,1.95 3.65,1.27 7.16,2.43 10.86,3.81l21.37 7.63c2.25,-3.13 2.98,-8.52 4.41,-12.46l0.4 -3.1c-7.47,-0.16 -16.96,-3.11 -23.69,-5.16 -4.88,-1.48 -17.91,-5.46 -22.52,-5.52 0.32,3.82 -1.04,5.9 -1.43,10.29z"/>
   <path class="fil2" d="M442.31 42.11c7.19,2.33 17.56,8.24 24.4,11.59 4.91,2.41 19.79,11.43 23.28,12.25 1.57,-1.48 4.72,-5.07 5.28,-8.21 -1.6,-2.09 -9.25,-6.7 -11.41,-7.98 -5.76,-3.41 -34,-17.23 -37.39,-17.77l-4.16 10.12z"/>
   <path class="fil2" d="M573.89 275.24l48.94 -2.25 -0.84 -13.85c-6.32,0.03 -16.72,1.77 -23.68,2.68 -7.72,1.02 -16.7,2.08 -24.87,2.42l0.44 11z"/>
   <path class="fil2" d="M7.41 271.94c5.65,1 30.28,2 39.88,2.72 2.41,0.18 3.85,-0.17 4.97,0.98l0.64 -12.66c-8.46,-0.68 -15.21,-1 -23,-1.92 -5.63,-0.66 -16.3,-2.98 -21.74,-2.53l-0.76 13.4z"/>
   <path class="fil4" d="M7.43 285.91l44.42 1.06 0.41 -11.32c-1.13,-1.15 -2.57,-0.8 -4.97,-0.98 -9.6,-0.72 -34.23,-1.72 -39.88,-2.72l0.02 13.97z"/>
   <path class="fil13" d="M584.37 242.99c-0.21,-7.87 -6.4,-29.06 -9.15,-36.14 -2.74,-0.9 -0.78,-0.83 -3.66,-0.36l-7.24 2.67c-1.06,0.46 -2.82,0.31 -2.94,3.02l6.81 24.87c0.89,3.25 0.75,5.59 1.59,8.71 1.59,0.02 13.43,-2.3 14.59,-2.77z"/>
   <path class="fil9" d="M610.12 356.83l-21.37 -7.63c-3.7,-1.38 -7.21,-2.54 -10.86,-3.81 -1.98,-0.69 -4.07,-1.41 -5.76,-1.95l-4.4 -2.19c-0.08,-0.25 -0.3,-0.25 -0.45,-0.38l-3.28 11.47 41.11 17.08c1.66,-3.12 4.17,-9.02 5,-12.6z"/>
   <path class="fil2" d="M425.55 301.8c23.87,1.13 26.02,0.04 24.2,-24.74 -3.98,7.28 -4.93,18.95 -27.51,17.59 -3.8,-8.9 1.44,-5.46 7.62,-7.44 4.97,-1.59 9.39,-4.63 9.19,-9.98l-21.13 0.06c-0.97,10.91 -3.25,18.23 1.66,21.46 2.27,1.49 4.74,1.65 5.97,3.06z"/>
   <path class="fil2" d="M60.1 149.93c-15.73,5.78 -7.32,28.91 9.67,24.06 15.38,-4.39 7.31,-30.3 -9.67,-24.06z"/>
   <path class="fil2" d="M220.15 340.35c3.74,4 6.34,6.59 9.3,11.56 -4.97,3.68 -22.35,11.63 -26.08,14.95l0.06 3.7 21.56 -11.26c2.79,-1.65 3.79,-2.52 6.82,-3.66 1.73,3.41 4.69,10.48 5.43,14.62l-34.03 7.34 -0.53 4.17 35.49 -7.27 0.28 14.28c-0.02,-0.09 -0.09,0.34 -0.17,0.5 1.81,1.08 2.05,0.78 4.53,0.42 1.06,-12.67 -0.79,-21.08 -4.98,-31.56 -2.8,-7.01 -10.34,-18.25 -15.28,-21.33l-2.39 3.54z"/>
   <path class="fil14" d="M538.07 92.8c-2.15,1.39 -12.66,13 -13.76,15.3 1.64,2.15 5.54,5.93 7.5,7.76 2.34,2.18 6.28,5.33 7.78,7.8 2.36,-1.5 14.33,-11.42 15.65,-13.35l-7.76 -9.42c-2.83,-2.98 -7.45,-5.94 -8.22,-9.23 0.15,1.94 -0.05,0.47 -1.19,1.15z"/>
   <path class="fil15" d="M439.17 59.85c2.11,1.91 7.21,3.63 9.72,4.7 6.93,2.94 27.33,15.12 30.22,16.17l1.51 0.11c1.56,-3.65 1.19,-1.16 3.58,-5.81l1.45 -2.48 -34.63 -17.93c-1.93,-0.91 -10.75,-4.68 -11.44,-5.82 -1.45,2.83 -0.45,2.28 -1.31,4.32 -0.59,1.4 -0.92,0.76 -1.93,3.26 1.25,3.02 0.68,0.87 2.83,3.5z"/>
   <path class="fil0" d="M471.32 512.32c1.58,7.59 12.3,9.11 12.35,-3.46 0.03,-7.19 0.69,-20.01 -0.13,-26.58 -0.87,-7 -11.92,-9.09 -12.61,3.43 -0.3,5.42 -0.59,21.89 0.39,26.61z"/>
   <path class="fil8" d="M310.34 350.73c-1.65,3.92 -0.72,6.47 1.57,9.5 2.48,3.29 4.35,5.12 8.15,4.15l13.8 -14.42c0.87,-1.09 1.23,-1.62 2.24,-2.66 1.95,-2.01 0.93,-0.15 2.46,-2.88 -0.86,-3.28 -3.69,-4.04 -5.76,-5.76 -1.95,-1.61 -4.55,-4.25 -5.79,-5.41 -1.8,1.1 -2.79,2.58 -4.24,4.24 -1.85,2.1 -2.49,2.13 -4.4,3.94 -2.9,2.74 -5.47,6.2 -8.02,9.3z"/>
   <path class="fil12" d="M578.11 180.16c2.08,0.85 1,0.59 4.24,-1.3l13.96 -6.89c-0.76,-3.36 -7.53,-14.7 -9.15,-18.31 -1.94,-4.34 -0.22,-7.15 -2.54,-4.65 0.27,1.74 -0.27,0.39 0.43,2.41l-16.6 10.65 9.66 18.09z"/>
   <path class="fil2" d="M474.08 88.32c-3.59,-4.11 -34.57,-21.48 -41.54,-23.14 -2.36,2.51 -2.56,5.22 -4.7,8.06 6.69,3.08 14.48,6.6 21.03,10.2l20.07 11.59c1.39,-1.05 1.64,-1.4 2.88,-2.93 1.42,-1.76 1.54,-1.8 2.26,-3.78z"/>
   <path class="fil9" d="M46.56 343.69c-2.51,3.43 -4.95,7.91 -11.25,5.74 -4.09,-1.41 -7.72,-5.69 -6.55,-11.24l0.2 -2.19c2.39,-5.39 9.45,-9.14 14.8,-2.72 0.46,0.54 1.42,1.94 1.63,2.62l-0.11 2.43 1.63 0.47 -0.35 4.89zm-29.91 0.75l25.72 11.57 14.67 -21.33c-2.05,-1.56 -21.36,-10.23 -24.63,-10.67 -2.26,3.88 -12.39,15.78 -15.75,20.43z"/>
   <path class="fil7" d="M439.58 48.78c0.69,1.14 9.51,4.91 11.44,5.82l34.63 17.93c1.33,-2.4 3.04,-4.44 4.33,-6.57 -3.48,-0.82 -18.37,-9.84 -23.28,-12.25 -6.85,-3.35 -17.22,-9.26 -24.4,-11.59 -0.84,2.33 -1.79,4.29 -2.73,6.66z"/>
   <path class="fil14" d="M504.64 89.59c2.14,1.33 4.58,4.14 6.04,5.44 2.08,1.85 4.53,3.96 6.25,5.68 2.78,-2.03 10.84,-11 13.8,-14.88 -0.79,-2.39 -9.63,-10.04 -12.05,-12.04 -2.85,-2.36 0.09,-0.76 -3.31,-1.73 -0.77,2.69 -2.24,4.06 -4.11,6.22 -1.19,1.37 -0.81,0.84 -1.92,2.38 -1.39,1.93 -4.4,5.69 -4.64,7.55l-0.06 1.37z"/>
   <path class="fil9" d="M235.94 26.59c-4.35,1.25 -10.02,7.33 -7.76,13.94 1.55,4.54 7.69,9.82 14.4,7.61 14.56,-4.78 6.66,-25.36 -6.63,-21.55z"/>
   <path class="fil12" d="M541.62 171.41c-0.73,1.05 -2.22,-2 -0.37,3.02 0.07,0.2 0.82,1.35 0.9,1.44 1.44,1.68 2.38,1.17 3.64,3.05l7.08 13.09 16.2 -6.6c1.28,-0.18 2.5,0 3.53,-0.47 2.57,-1.19 1.39,0.26 2.17,-2.29 -2.73,0.7 -2.61,1.27 -5.11,1.73 -2.04,-4.97 -6.28,-13.18 -9.11,-17.44 -5.29,2.27 -11.21,6.7 -16.17,9.65l-2.78 -5.19z"/>
   <path class="fil7" d="M432.54 65.19c6.96,1.66 37.94,19.03 41.54,23.14 1.37,-1.37 5.29,-5.77 5.04,-7.61 -2.89,-1.05 -23.3,-13.22 -30.22,-16.17 -2.51,-1.07 -7.61,-2.8 -9.72,-4.7l-4.01 -1.36 -2.62 6.7z"/>
   <path class="fil7" d="M15.09 235.47c1.47,-6.71 8.48,-35.81 11.79,-38.95l34.38 13.09c0.14,0.07 0.45,0.45 0.55,0.29 0.1,-0.17 0.38,0.19 0.56,0.3l-7.45 31.87 -39.83 -6.61zm41.62 8.54c3.17,-16.96 5.43,-21.78 8.64,-35.46 -5.48,-1.44 -14.39,-5.22 -20.2,-7.41l-20.36 -7.71c-3.54,13.21 -10.6,29.9 -12.16,43.95 7.24,1.17 40.02,7.62 44.08,6.63z"/>
   <path class="fil14" d="M507.35 126.06c0.43,3.35 -0.65,1.05 2.83,4.45l8.78 9.78c2.42,-1.19 5.68,-4.09 7.7,-5.88 1.79,-1.58 4.36,-3.83 6.58,-5.96 -3.02,-1.64 -4.87,-4.5 -7.61,-7.08 -2.34,-2.19 -5.34,-5.3 -7.74,-6.96 -2.94,2.97 -9.57,8.6 -10.55,11.65z"/>
   <path class="fil12" d="M554.96 138.91c1.82,1.15 1.55,0.93 2.85,3.47l6.11 11.23c4.98,-2.02 11.23,-7.05 16.22,-9.9l1.84 1.83 0.32 -2.22c-0.78,-0.56 -0.9,-0.57 -1.7,-1.41l-0.98 -1.19c-2.5,-3.3 -6.38,-9.37 -9.28,-12.15 -2.7,1.57 -4.79,3.3 -7.4,5.04l-7.98 5.29z"/>
   <path class="fil7" d="M363.46 52.15c0.98,-8.15 3.8,-33.47 6.17,-39.84 6.4,-0.04 47.93,10.41 53.5,13.26 -0.68,3.3 -14.41,35.49 -16.44,38.3 -6.93,-1.5 -14.71,-4.11 -21.79,-5.96 -4.92,-1.28 -18.54,-3.35 -21.45,-5.76zm44.64 13.93c2.59,-3.77 15.72,-36.41 17.31,-41.91 -4.24,-2.81 -48.72,-12.81 -57.31,-14.39 -2.53,13.72 -5.52,30.41 -6.79,44.6 7.87,1.53 16.01,3.48 23.78,5.35 7.11,1.7 16.06,5.28 23.01,6.35z"/>
   <path class="fil2" d="M259.54 556.65c6.76,3.83 4.13,13.57 13.58,12.18l-0.19 -23.58 -4.38 0.16 -0.72 13.41c-1.68,-1.22 -6.69,-11.31 -8.7,-13.75l-4.95 0.17 0.07 23.89 5.32 -0.28 -0.04 -12.19z"/>
   <path class="fil2" d="M352.47 554.59c1.58,0.96 7.13,11.34 8.77,14.26l5.09 0.09 -0.15 -23.87 -5.14 0.14 -0.15 13.71c-0.3,-1.43 -6.75,-11.45 -8.01,-13.73l-5.03 0.1 -0.12 23.85 4.63 -0.2 0.12 -14.34z"/>
   <path class="fil12" d="M540.04 167.92c3.39,-0.45 10.73,-6.86 16.29,-9.5 -1.92,-3.67 -6.67,-11.17 -7.8,-14.74 1.2,-0.6 1.07,-0.52 2.17,-1.33l2.52 -2.22c-3.8,0.08 -0.89,-0.16 -2.7,0.5 -1.72,0.62 -2.32,1.7 -3.2,3.21 -3.16,5.44 -9.78,8 -15.08,11.83 0.3,2.45 1.79,3.31 3.65,6.44 1.42,2.39 2.57,3.43 4.16,5.83z"/>
   <path class="fil2" d="M142.68 549.71c3.85,-0.39 4.09,-0.26 6.33,1.77 -0.03,4.5 -1.91,3.7 -6.69,3.58l0.36 -5.35zm8.35 9.46c9.78,-13.28 -2.38,-14.89 -14.09,-13.82l0.06 23.56 5.36 0.08 0.44 -9.34c2.26,-0.57 3.24,1.23 4.27,3.87 1.16,2.97 1.19,3.14 2.98,5.63l5.06 -0.09c-0.39,-4.53 -3.17,-6.11 -4.08,-9.89z"/>
   <path class="fil2" d="M293.61 561.27c-2.31,8.99 -16.61,0.17 -6.69,-11.83 5.68,-0.28 4.86,0.75 7.19,4.22l5.14 -0.06c-2.02,-13.17 -22.58,-12.87 -20.68,5.58 0.76,7.41 4,10.46 12.09,9.96 7.6,-0.46 8.96,-4.75 8.34,-12.92l-9.95 0.14c-0.02,3.51 -0.3,3.06 2.81,4.2 1.67,0.61 0.52,-0.24 1.74,0.71z"/>
   <path class="fil14" d="M500.37 119.35c2.31,-2.04 9.46,-9.61 10.42,-12.06 -1.51,-1.65 -10.75,-10.36 -12.37,-10.92 -2.38,3.22 -0.94,-0.46 -6.04,6.48l-2.09 2.83c-0.13,0.15 -0.55,0.57 -0.69,0.73l-2.34 3.09c1.76,0.65 4.91,3.79 6.45,5.28 1.24,1.2 1.68,1.4 3.28,3.01 1.56,1.56 0.98,1.91 3.37,1.56z"/>
   <path class="fil2" d="M454.96 564.45c-2.9,-5.11 -2.89,-10.22 -0.01,-14.93 5.01,-0.43 6.16,0.37 6.58,5.4 0.3,3.51 -0.46,6.86 -1.68,9.63l-4.9 -0.1zm-7.03 -3.18c2.04,8.04 8.15,9.51 13.58,7.24 9.4,-3.94 7.63,-28.83 -8.39,-23.13 -4.95,1.76 -6.83,9.46 -5.2,15.9z"/>
   <path class="fil2" d="M168.23 551.04c1.44,1.01 2.16,6.02 2.17,8.28l-4.28 -0.3 2.11 -7.98zm-5.59 18.06c1.06,-1.61 1.39,-3.12 2.8,-5.13 10.3,0.02 5.3,0.12 8.39,5.13l4.94 -0.07c0,-4.26 -5.61,-19.75 -7.08,-23.9l-6.26 0.31c-1.46,2.69 -6.97,20.95 -7.26,23.71l4.47 -0.05z"/>
   <path class="fil1" d="M525.61 374.46l0.29 16.96c3.39,-2.8 10.57,-15.88 12.43,-19.54 2.51,-4.94 9.01,-15.99 10.15,-21.65 -3.19,0.5 -4.51,2.11 -6.56,5.74 -3.63,6.44 -1.95,2.75 -5.56,6.27 -4.3,4.19 -7.05,9.02 -10.76,12.22z"/>
   <path class="fil2" d="M312.21 561.8c0.15,6.32 4.4,8.03 11.32,7.33 5.43,-0.56 8.63,-5.82 5.74,-10.85 -2.28,-3.97 -10.16,-3.61 -11,-6.44 -0.87,-2.95 3.6,-2.94 5.23,-1.83 2.65,1.8 -0.27,3.03 6.22,2.06 0.54,-5.43 -4.43,-7.45 -9.78,-7.15 -5.81,0.33 -7.74,4.07 -6.79,10.02 2.34,4.58 14.46,2.7 10.71,9.33 -8.31,2.05 -3.01,-3.17 -11.65,-2.46z"/>
   <path class="fil2" d="M379.43 564.45c-3.19,-5 -3.84,-15.69 3.44,-14.93 3.44,0.35 2.52,1.51 3.54,3.96l5.28 0.16c-0.46,-4.28 -0.87,-5.6 -3.54,-7.38 -3.18,-2.11 -16.52,-4.75 -16.38,11.55 0.15,16 20.75,14.45 20.06,2.22l-4.98 -0.1 -1.83 4.48 -5.6 0.04z"/>
   <path class="fil0" d="M414.2 179.71c-1,1.96 -1.18,2.34 -2.97,3.61 -0.35,0.25 -1.29,0.76 -1.73,1.03l-1.95 1.38c2.73,4.91 0.15,4.81 5.22,7.88 3.56,2.16 4.25,2.58 5.28,7.5l-0.83 0.38c-0.91,0.51 -0.78,-0.43 -1.14,1.02 1.76,2.17 8.22,3.44 11.5,3.34 1.44,-6.97 -5.27,-16.04 -9.83,-20.5 1.51,-2.91 1.39,-0.73 1.96,-3.81 -2.7,-3.48 -1.92,-1.26 -2.41,-1.09 -1.83,0.63 1.31,1.84 -3.09,-0.73z"/>
   <path class="fil2" d="M499.17 549.38l4.73 0.67c2.91,7.74 -10.91,7.94 -10.54,19l16.24 -0.11 0.33 -4.29 -9.48 -0.08c2.22,-2.93 13.51,-9.81 8.01,-16.95 -2.03,-2.63 -13.43,-7.39 -15.94,5.97l4.39 0.18 2.26 -4.39z"/>
   <path class="fil2" d="M426.11 553.59c6.26,0.61 4.46,-0.45 6.56,-4.13l4.27 0.62c1.71,4.14 -2.41,6.39 -5.2,8.93 -2.45,2.22 -5.72,5.28 -5.43,10.04l16.14 -0.11 0.34 -4.33 -9.78 0.04c3.44,-4.43 13.25,-8.59 9.05,-16.31 -2.26,-4.14 -14.97,-7.54 -15.94,5.24z"/>
   <path class="fil2" d="M477.44 549.55l4.6 0.54c1.89,7.98 -11.39,8.59 -10.32,18.91l15.94 -0.23 0.45 -4.14 -10.07 -0.1c3.8,-4.61 13.28,-9.23 8.89,-16.37 -2.69,-4.37 -15.35,-6.74 -15.9,5.57l4.2 -0.05 2.2 -4.13z"/>
   <path class="fil2" d="M198.28 545.12l-4.88 0.05c-2.12,4.09 -3.21,13.81 -5.51,16.09 -1.09,-4 -2.47,-13.04 -4.98,-16.07l-4.28 -0.03c-0.15,3.74 2.5,10.52 3.66,14.51 3.38,11.65 2.5,9.44 9.12,9.43l6.86 -23.98z"/>
   <path class="fil0" d="M337.43 320.66c-3.43,-6.58 -2.02,-5.04 -2.79,-13.44l-14.73 16.21c-5.72,6.14 -10.49,8.78 -11.27,11.84 -0.32,1.26 -0.85,4.93 -0.85,6.06 3.22,-2.27 7.57,-7.9 11.15,-11.19 4.82,-4.44 6.8,-8.01 16.02,-6.37l2.48 -3.11z"/>
   <path class="fil2" d="M418.34 261.77l-0.36 8.96 21.98 0.2c0.74,-6.03 -1.16,-10.53 -4.13,-13.59 -3.03,3.8 -0.78,3.3 -7.41,3.4 -4.08,0.06 -6.56,-0.35 -10.07,1.02z"/>
   <path class="fil2" d="M115.81 545.19c-1.59,0.32 -0.8,0.06 -1.87,0.7l-0.15 2.8c2.69,1.67 4.69,0.09 6.17,1.46 1.22,1.13 0.44,15.29 0.57,18.82l5.12 0.31 0.33 -19.58 6.59 -0.28 -0.14 -4.09 -14.59 -0.34c-0.48,0.02 -1.57,0.12 -2.04,0.21z"/>
   <path class="fil9" d="M73.07 299.11l1.04 6.68c3.3,0.35 11.62,-1.52 15.54,-2.15 11.56,-1.86 9.7,-0.18 9.19,-7.05l-25.77 2.52z"/>
   <polygon class="fil2" points="223.47,569.07 238.19,568.83 238.43,564.65 228.6,564.34 228.35,545.16 223.43,545.26 "/>
   <path class="fil1" d="M547.44 307.42c0.21,-0.69 0.23,-12.95 -1.36,-15.41l-1.53 3c-2.58,8.11 -5.52,13.93 -5.87,19.39 -0.44,0.23 -3.35,-1.39 -0.93,5.99l5.31 1.33 4.37 -14.31z"/>
   <path class="fil2" d="M402.17 564.56l-0.07 -5.94 8.78 -0.11 -0.09 -4.42 -8.78 -0.12 -0.04 -4.38 10.32 -0.29 -0.18 -3.94c-2.74,-0.42 -5.43,-0.28 -8.2,-0.31 -8.13,-0.07 -6.3,-0.15 -7.03,1.52 1.71,-0.43 3.1,-0.54 4.96,-0.31 2.55,0.31 2.49,1.5 3.31,1.71 3.22,-0.14 2.13,-0.82 4.03,-0.97 3.13,-0.24 1.26,-1.34 3.01,2.36l-5.57 -0.65c-1.01,-0.13 -1.23,-0.07 -2.03,-0.22 -3.08,-0.55 -1.75,-1.21 -3.52,-1.55 -1.18,-0.23 -1.43,-0.65 -1.49,0.7 -0.02,0.28 -0.07,0.41 -0.08,0.54 -0.88,6.31 -1.36,7.98 -1.12,15.63l0.08 1.25c0.01,0.28 0.02,0.46 0.02,0.73 0,0.25 0.01,1.38 -0.03,1.61l8.99 0.09c3.19,-0.7 1.46,0.24 3.46,-2.06 -7.33,0.49 -6.26,1 -8.72,-0.91z"/>
   <path class="fil13" d="M46.56 343.69l0.26 -3.89c-6.49,1.21 -11.83,-0.87 -18.06,-1.61 -1.17,5.55 2.46,9.83 6.55,11.24 6.3,2.17 8.74,-2.31 11.25,-5.74z"/>
   <path class="fil8" d="M101.44 271.45c-2.39,-0.57 -10.23,-2.25 -11.5,-1.06 -0.83,0.78 -2.15,9.83 -2.22,11.96l11.35 0.79 2.37 -11.7z"/>
   <path class="fil1" d="M332.61 156.61l19.87 1.56c-0.95,-2.66 -2.19,-4.14 -1.95,-7.31l-0.76 2.48c-1.72,-2.7 -5.1,-0.98 -8.71,-2.61 -2.57,-1.16 -0.81,-0.79 -2.58,-3.02 -1.39,-1.75 -1.13,-1.07 -4.5,-1.94 -0.88,0.97 -0.14,-0.46 -1.26,1.75 -1.4,2.78 -0.66,5.83 -0.1,9.09z"/>
   <path class="fil8" d="M82.84 281.43c0.54,-2.93 2.2,-10.83 2.18,-13.22 -3.09,-0.26 -5.84,-1.15 -8.4,-0.93l-2.86 0.58 -0.5 13.27 9.58 0.3z"/>
   <path class="fil1" d="M336.74 87.89c1.31,3.91 3.98,9.4 7.72,10.61 0.47,-0.83 0.33,-0.3 0.61,-1.66 0.15,-0.76 0.17,-1.74 0.22,-2.54 6.92,0.57 2.19,0.32 6.54,-0.45l2.44 -0.43c-0.75,-1.38 -1.32,-2.01 -2.04,-3.5l0.87 -0.55c0.13,-0.07 0.69,-0.43 0.86,-0.54 3.61,-2.18 2.85,-1.13 5.5,-2.07 -12.85,-2.26 -16.62,1.03 -22.72,1.13z"/>
   <polygon class="fil0" points="125.79,506.61 136.13,506.88 131.13,480.99 "/>
   <path class="fil2" d="M202.5 568.93l15.46 0.03 0.09 -4.27 -10.49 -0.39 0.27 -5.54 8.68 -0.24 -0.36 -4.52 -8.51 -0.08 0.07 -4.72 -3.1 -0.63c-0.96,4.55 -0.09,12.76 -0.02,18.49l11.98 0.16c1.74,1.28 -0.02,-2 1.3,1.74l-15.38 -0.03z"/>
   <path class="fil8" d="M73.07 299.11l25.77 -2.52 -0.19 -3.87c-1.36,-0.61 -21.88,0.54 -25.51,0.94l-0.07 5.44z"/>
   <path class="fil0" d="M327.01 333.26c1.24,1.15 3.84,3.79 5.79,5.41 2.07,1.72 4.9,2.48 5.76,5.76 5.54,-3.84 0.7,-2.8 2.78,-7.95 2.52,-6.23 -0.9,-9.57 -7.36,-4.31l-1.48 -0.85c-1.03,-0.58 0.1,-0.28 -2.02,-1.07 -2.35,1.25 -2.3,1.25 -3.47,3.03z"/>
   <polygon class="fil2" points="335.78,568.85 341.07,568.88 340.86,545.07 335.66,545.61 "/>
   <path class="fil0" d="M149.86 184.84c-1.29,1.62 -2.46,6.9 -3.15,9.15 3.31,-2.81 4.44,-6.43 7.13,-8.65 3.84,-3.17 7.59,0.14 10.98,-5.22 -0.17,-0.07 -0.42,-0.06 -0.54,-0.09 -7.67,-1.42 -2.88,-4.39 -8.57,-6.28 -2.66,-0.88 -7.38,2.48 -8.51,4.2l0.71 2.2c2.89,-0.92 5.84,-1.73 8.94,-1.31 -1.07,3.63 -4.64,3.01 -7,5.98z"/>
   <polygon class="fil2" points="243.11,569.04 248.1,568.91 248.02,545.13 242.97,545.23 "/>
   <path class="fil16" d="M202.5 568.93l15.38 0.03c-1.32,-3.74 0.44,-0.46 -1.3,-1.74l-11.98 -0.16c-0.07,-5.73 -0.94,-13.94 0.02,-18.49l3.1 0.63 10.13 0.02 -0.17 -4.01 -15.07 0.17 -0.1 23.56z"/>
   <path class="fil0" d="M454.96 564.45l4.9 0.1c1.22,-2.77 1.97,-6.11 1.68,-9.63 -0.43,-5.03 -1.57,-5.83 -6.58,-5.4 -2.88,4.7 -2.89,9.81 0.01,14.93z"/>
   <path class="fil1" d="M307.49 159.11c1.74,-0.48 3.47,-0.76 5.27,-0.91 0.69,-0.06 2.46,-0.06 3.13,-0.21 3.1,-0.66 1.45,0.98 2.2,-1.3 -1.35,-8.78 -2.04,-4.03 -3.56,-7.17 -1.3,-2.68 1.97,1.09 -2.44,-4.81 -0.31,-0.41 -0.59,-0.95 -1.05,-1.63 0.08,-0.04 0.23,-0.15 0.25,-0.07l1.74 -0.74c-0.09,-0.11 -0.15,-0.49 -0.16,-0.4 -0.07,0.56 0.16,-1.59 -0.57,-3 -3.94,0.49 -4.96,2.64 -5.19,6.82 5.86,4.72 3.79,5.79 0.39,13.43z"/>
   <path class="fil1" d="M136.99 242.37c0.44,2.71 -1.78,0.39 5.72,3.9 3.04,1.42 4.8,1.16 7.67,2.78 5.73,3.23 1.67,0.89 6.89,1.48 4.36,0.5 4.19,1.47 9.65,0.94 -1.46,-3.2 -2.29,-4.24 -6.86,-3.54 -9.15,1.41 -0.83,-3.47 -14.53,-5.28 -2.58,-0.34 -6.47,-1.22 -8.55,-0.28z"/>
   <path class="fil17" d="M377.29 201.74c1.11,5.27 3.97,15.26 6.5,19.38 4.25,-3.82 2.08,-0.66 4.05,-6.72 1.6,-4.91 1.72,-2.63 0.8,-8.5 -3.09,1.2 -2.56,0.57 -3.55,3.69l-0.66 -0.95c-0.07,-0.1 -0.22,-0.31 -0.29,-0.41 -0.06,-0.09 -0.19,-0.28 -0.25,-0.36 -0.35,-0.5 -0.34,-0.57 -0.69,-0.75l-0.8 3.8c-2.32,-5.59 -2.57,-5.49 -0.46,-11.11l-4.66 1.94z"/>
   <path class="fil17" d="M185.01 113.76c-7.96,-2.54 -5.17,1.82 -10.55,4.77 -1.44,0.79 -2.61,1.38 -4.19,2.18 -3.82,1.93 -13.35,7.17 -17.46,7.68 1.2,-2.18 1.22,-1.68 2.74,-2.93 1.55,-1.27 1.8,-1.59 3.05,-2.51l7.54 -4.66c-2.42,0.19 -3.04,-0.19 -5.26,0.65 -3.59,1.35 -2.93,5.32 -9.72,7.23l0.28 3.1c-2.41,1.22 -4.7,2.51 -6.86,3.75 3.13,-0.72 6.34,-1.9 9.62,-3.33l9.22 -4.71c8.15,-4.06 7.44,-2.99 15.74,-8.02 2.42,-1.47 -0.09,-0.43 2.57,-1.27 -0.5,4.29 -1.84,3.08 -3.37,6.28l6.74 -3.95c0.25,-0.3 0.15,-1.77 1.47,-3.36 1.83,-2.19 1.51,1.14 1.76,-3.19 -2.22,1.07 -1.17,1.19 -3.34,2.3z"/>
   <path class="fil1" d="M285.72 121.3c-3.33,-3.07 -5.36,-2.61 -7.18,1.16 3.59,1.37 2.87,3.11 6.48,5.5 2.3,-0.71 3.6,-1.52 6.03,-2.57 0.65,-0.28 2.43,-0.96 2.92,-1.22 2.28,-1.2 1.82,-1.01 2.62,-2.78 -3.2,-3.91 -7.2,-4.48 -10.57,-0.46 -0.06,0.07 -0.19,0.26 -0.3,0.37z"/>
   <path class="fil15" d="M166.17 59.17c0.04,-0.11 0.17,-0.39 0.2,-0.48l-0.33 4.87 -2.38 -3.56c-0.06,-0.3 -0.22,-0.37 -0.31,-0.56 1.47,0.82 1.42,0.81 2.46,0.78l0.35 -1.05zm-1.37 -3.63c-6.26,3.63 -1.15,13.45 6.19,9.92 6.03,-2.91 1.41,-14.33 -6.19,-9.92z"/>
   <path class="fil0" d="M319.93 368.89c0.95,-2.23 0.86,-2.58 0.13,-4.51 -3.79,0.97 -5.67,-0.86 -8.15,-4.15 -2.28,-3.03 -3.22,-5.58 -1.57,-9.5 -7.48,-0.22 -4.53,8.36 -2.2,11.89 2.03,3.08 2.41,2.72 5.17,4.63 2.43,1.69 3.5,2.87 6.62,1.63z"/>
   <path class="fil13" d="M28.96 336l16.32 2.33 0.11 -2.43c-0.21,-0.68 -1.17,-2.08 -1.63,-2.62 -5.35,-6.41 -12.41,-2.67 -14.8,2.72z"/>
   <path class="fil16" d="M402.17 564.56c2.46,1.91 1.39,1.4 8.72,0.91 -2,2.3 -0.27,1.36 -3.46,2.06l-8.99 -0.09c0.04,-0.23 0.03,-1.36 0.03,-1.61 -0,-0.27 -0.02,-0.45 -0.02,-0.73l-0.08 -1.25c-0.24,-7.66 0.24,-9.33 1.12,-15.63 0.02,-0.13 0.07,-0.27 0.08,-0.54 0.06,-1.36 0.31,-0.93 1.49,-0.7 1.77,0.34 0.44,1 3.52,1.55 0.8,0.14 1.02,0.09 2.03,0.22l5.57 0.65c-1.75,-3.7 0.12,-2.6 -3.01,-2.36 -1.9,0.15 -0.81,0.83 -4.03,0.97 -0.82,-0.21 -0.76,-1.4 -3.31,-1.71 -1.86,-0.23 -3.24,-0.13 -4.96,0.31l0.17 22.4 15.09 -0.14 0.14 -4.09 -10.1 -0.19z"/>
   <path class="fil18" d="M89.04 318.89c-1.51,-0.5 -2.63,-0.53 -3.2,-2.5 -0.44,-1.52 -0.11,-3.08 0.04,-4.59 -2.78,1.22 -7.41,1.79 -10.44,2.93 0.21,1.8 1.15,6.48 1.92,7.97l11.69 -3.81z"/>
   <path class="fil1" d="M399.73 99.83c-3.21,-0.13 -2.92,-0.58 -4.07,2.25 -0.77,1.89 -1.13,4.68 -0.14,6.56 0.62,1.18 2.45,2.17 4.05,1.92l2.34 -1.78c0.07,-0.07 0.28,-0.27 0.35,-0.33 0.07,-0.07 0.26,-0.22 0.37,-0.35 -4.46,-3.61 -0.13,-3.65 -0.85,-7.75 2.84,0 2.23,0.73 3.97,-0.44 -2.37,-1.81 -4.41,-1.98 -8.05,-2.06 0.54,0.89 1.21,1.31 2.03,1.98z"/>
   <path class="fil1" d="M203.86 171.65c1.89,-0.32 4.33,-0.57 5.79,-0.08 5.04,1.69 -1.24,2.27 5.11,2 1.17,-4.47 0.26,-2.46 -1.1,-4.64 0.65,-1.65 0.98,-1.98 1.3,-4.09l-0.58 -3.65c-5.05,2.2 -6.31,5.38 -8.14,7.33 -2.84,3.03 -1.78,-0.25 -2.39,3.13z"/>
   <path class="fil11" d="M267.8 388.33c-1.63,-1.85 -6.11,-4.31 -8.39,-5.74l-1.01 10.77 6.33 1.38 3.06 -6.4z"/>
   <path class="fil9" d="M375.47 27.36c-1.96,0.4 -3.69,0.85 -5.26,2.41 1.15,0.76 0.68,0.43 1.9,0.92 5.57,2.28 1.67,1.79 3.12,4.35 2.68,-0 1.24,0.26 3.18,-1.57l1.59 -1.51c0.74,2.11 0.98,1.76 2.92,2.67 -0.29,-2.15 0.11,-0.81 -0.82,-2.67 -0.78,-1.54 -0.02,0.16 -0.81,-1.31 -0.89,-1.66 0.37,1.72 -0.72,-1.57 0.69,-0.76 0.31,-0.44 1.24,-1.14l1.45 -0.96c-3.06,-0.87 -1.68,0.66 -5.17,-1.38 -1.9,-1.11 -1.78,-1.53 -4.53,-2.41 0.36,1.33 0.47,1.3 0.72,1.86l1.19 2.32z"/>
   <path class="fil1" d="M306.37 149.61c-2.46,-0.46 -0.91,-0.79 -3.87,-0.93 -3.61,2.59 -7.83,11.01 2.22,9.79 1.29,-7.11 0.48,-6.57 3.24,-7.93l1.04 -0.48c-1.07,-1.69 -0.59,-1.67 -3,-2.63 -1.66,2.44 -0.3,2.09 0.37,2.18z"/>
   <path class="fil0" d="M420.2 236.83c3.52,-2.11 5.8,-3.05 10.42,-3.58 -11.69,-5.01 -3.19,-6.79 -11.5,-8.58l-2.2 2.06c0.17,0.16 0.69,0.85 1.09,1.49 2.38,3.85 0.39,2.85 3.46,5.76l-1.28 2.85z"/>
   <path class="fil8" d="M91.43 311.02c0.65,2.85 0.97,3.57 -0.42,6.02l-1.07 1.51 11.18 -3.3c0.43,-10.69 -3.66,-2.1 -9.69,-4.23z"/>
   <path class="fil18" d="M78.41 327.36c-0.44,2.29 1.3,4.5 1.32,4.46 0.06,-0.13 0.25,0.38 0.38,0.57 2.68,-0.17 6.34,-1.71 8.98,-3.31l-0.59 -3.56c-3.82,-0.89 -5.7,1.11 -10.09,1.84z"/>
   <path class="fil11" d="M274.48 356.37c2.54,5.56 4.29,11.31 6.46,16.92 0.65,-2.27 -1.55,-17.67 -2.92,-20.21 -1.75,0.74 -2.37,1.61 -3.54,3.3z"/>
   <path class="fil2" d="M204.13 327.52c2.64,2.11 6.48,4.77 9.01,5.61 2.43,-1.11 0.93,0.19 2.3,-1.95 -1.44,-3.45 -8.29,-6.15 -11.9,-7.36l0.59 3.69z"/>
   <path class="fil19" d="M85.87 311.8c-0.15,1.51 -0.48,3.07 -0.04,4.59 0.57,1.97 1.7,2 3.2,2.5l0.91 -0.34 1.07 -1.51c1.39,-2.45 1.07,-3.17 0.42,-6.02l-3.13 -1.68 -2.43 2.46z"/>
   <path class="fil20" d="M187.83 185.02c4.59,-0.87 11.65,-4.52 13.88,-7.71 -3.83,-0.72 -5.27,1.11 -8.52,1.84 -2.46,0.56 -1.86,-0.35 -3.59,2.07 -2.13,2.96 -1.66,2.07 -1.77,3.8z"/>
   <path class="fil20" d="M551.32 316.05c1.09,-2.49 0.22,-3.13 -0.55,-4.09 -4.13,4.57 -3.51,10.4 -1.41,13.04 1.59,-2.8 3.9,-7.6 4.2,-12.18 -1.42,1.05 -2.1,3.05 -2.24,3.24z"/>
   <path class="fil20" d="M550.77 274.67c2.56,-2.32 1.29,-4.48 0.66,-8.3 -0.8,-4.83 0.1,-5.53 -3.75,-6.63 0.05,3.02 0.86,5.3 1.07,8.51 0.25,3.95 -0.36,4.49 2.02,6.43z"/>
   <path class="fil7" d="M28.76 338.19c6.22,0.73 11.56,2.82 18.06,1.61l-0.26 3.89 0.35 -4.89 -1.63 -0.47 -16.32 -2.33 -0.2 2.19z"/>
   <path class="fil9" d="M81.74 106.98c1.61,5.39 -1.17,1.58 2.59,6.69 4.03,-1.47 0.94,-1.22 5.7,-0.6l-1.48 -2.85c2,-1.37 1.21,-0 1.82,-1.96 -2.22,-0.39 -1.64,0.02 -2.29,-0.01 -0.98,-0.04 -0.67,-0.05 -1.89,-0.56 -1.65,-0.69 0.3,-0.07 -1.35,-0.06l-3.09 -0.65z"/>
   <path class="fil17" d="M438.67 183.67c-2.53,-1.7 -2.72,-3.19 -5.27,-3.32 -1.63,5.62 -0.13,-1.32 2.2,8.64 1.48,0.73 1,0.81 2.67,1.28l0.4 -6.59z"/>
   <path class="fil0" d="M142.32 555.06c4.79,0.11 6.67,0.92 6.69,-3.58 -2.24,-2.03 -2.48,-2.16 -6.33,-1.77l-0.36 5.35z"/>
   <path class="fil11" d="M293.64 396.99c0.4,0.04 4,-3.24 4.85,-4.96 -1.3,-1.89 -2.07,-2.24 -5.06,-2.85 -0.06,1.82 -0.23,2.85 -0.43,4.53 -0.51,4.32 -0.21,2.2 0.64,3.28z"/>
   <path class="fil20" d="M384.32 87.33l-3.92 -1.19c0.33,0.8 -0.49,2.87 4.18,2.91 1.36,0.01 4.19,0.1 5.82,-0.07 -0.86,-2.29 0.19,-1.55 -2.21,-3.04 -0.85,-0.53 -1.92,-0.76 -3.17,-1 -0.54,1.02 -0.15,0.24 -0.43,1.28 -0.11,0.43 0.03,0.52 -0.27,1.11z"/>
   <path class="fil11" d="M280.9 415.81c1.81,2.11 3.31,2.55 6.81,2.96l0.6 -3.66 -6.2 -1.47 -1.22 2.17z"/>
   <path class="fil11" d="M267.25 374.86c1.47,1.36 3.43,2.94 5.37,3.77 -0.8,-3.14 -3.15,-6.67 -4.32,-10.57 -0.95,1.72 -1.54,4.68 -1.05,6.8z"/>
   <path class="fil17" d="M138.71 146.12c2.21,-0.17 4.85,-1.1 6.13,-1.98l4.44 -3.87c-2.83,-1.03 -3.67,0.16 -5.51,1.39 -2.74,1.84 -3.53,1.26 -5.05,4.46z"/>
   <path class="fil17" d="M499.46 159.2l2.36 12.45c1.98,-1.19 1.68,-5.01 1.04,-7.24 -0.82,-2.85 -1.11,-4.26 -3.4,-5.22z"/>
   <path class="fil17" d="M166.12 559.02l4.28 0.3c-0.01,-2.26 -0.73,-7.27 -2.17,-8.28l-2.11 7.98z"/>
   <path class="fil7" d="M277.22 410.06c-0.41,-1.31 -0.87,-3.23 -1.09,-4.48l-3.71 -0.2c0.19,3.38 0.57,3.87 2.16,5.95l2.65 -1.26z"/>
   <path class="fil17" d="M464.75 183.84l7.51 0.26c-2.66,-1.81 -8.1,-2.04 -11.06,-0.47 0.17,1.51 -0.35,0.84 0.55,2.28 1.61,2.59 0.09,0.24 1.94,1.58l1.06 -3.65z"/>
   <path class="fil17" d="M146.97 171.04c0.98,-0.97 0.67,1.09 1.41,-2.73l0.26 -6.84c-2.63,1.51 -4.06,6.69 -1.67,9.57z"/>
   <path class="fil7" d="M272.59 397.01c2.01,0.77 3.23,1.11 5.37,0.69 -0.9,-4.41 -1.77,-4.12 -3.05,-4.96l-2.33 4.27z"/>
   <path class="fil21" d="M495.3 287.44c-1.4,1.24 -0.52,-1.18 -1.96,2.56 -0.08,0.21 -0.31,1.61 -0.31,2.03 -0.04,4.29 1.81,4.14 2.49,4.57l-0.21 -9.17z"/>
   <path class="fil22" d="M546.97 331.78c1.11,1.36 0.59,-0.39 0.63,1.7 0,0.1 -0.32,2.27 -0.34,2.78 0.55,-0.85 -0.04,0.52 0.79,-1.44l1.32 -4.69c-3.17,0.16 -1.32,0.73 -2.8,-0.35l-1.48 2.9c-0.32,1.24 -0.39,1.83 -0.61,3.12 1.87,-0.74 1.26,-0.08 2.08,-1.96 0.1,-0.24 0.32,-1.7 0.41,-2.07z"/>
   <polygon class="fil20" points="161.28,255.61 167.11,255.76 167.41,253.87 160.85,253.26 "/>
   <path class="fil23" d="M303.46 398.84c-2.24,1.44 -2.7,1.72 -3.74,3.75l4.58 0.91 -0.84 -4.67z"/>
   <path class="fil17" d="M394.09 115.07c1.53,2.04 3.27,3.21 6.03,3.38l0.26 -1.46c0.03,-0.09 0.13,-0.33 0.19,-0.5 -2.67,-0.58 -4.44,-0.8 -6.48,-1.43z"/>
   <polygon class="fil24" points="303.58,375.22 307.92,373.78 304.6,370.27 "/>
   <path class="fil21" d="M534.26 329.65l1.88 2.86c2.01,2.73 0.73,1.46 2.04,1.94 1.38,-3.17 -1.14,-4.34 -3.92,-4.8z"/>
   <path class="fil23" d="M298.55 414.55l-4.15 0.1c0.06,1.03 -0.17,1.02 0.29,2.03 0.66,1.44 -0.03,0.18 1.19,1.17l2.68 -3.3z"/>
   <path class="fil20" d="M154.56 239.19c0.36,-0.44 2.44,0.5 0.38,-3.75 -3.39,0.32 -1.62,1.91 -0.38,3.75z"/>
   <path class="fil25" d="M165.81 60.22c-1.04,0.02 -0.98,0.04 -2.46,-0.78 0.09,0.19 0.25,0.26 0.31,0.56l2.38 3.56 0.33 -4.87c-0.04,0.09 -0.16,0.37 -0.2,0.48l-0.35 1.05z"/>
  </g>
 </g>
</svg>
