<?xml version="1.0" encoding="UTF-8"?>
<!DOCTYPE svg PUBLIC "-//W3C//DTD SVG 1.1//EN" "http://www.w3.org/Graphics/SVG/1.1/DTD/svg11.dtd">
<!-- Creator: CorelDRAW X8 -->
<svg xmlns="http://www.w3.org/2000/svg" xml:space="preserve" width="29.3356mm" height="33.8834mm" version="1.1" style="shape-rendering:geometricPrecision; text-rendering:geometricPrecision; image-rendering:optimizeQuality; fill-rule:evenodd; clip-rule:evenodd"
viewBox="0 0 3385 3909"
 xmlns:xlink="http://www.w3.org/1999/xlink">
 <defs>
  <style type="text/css">
   <![CDATA[
    .fil0 {fill:#2C3D51}
    .fil3 {fill:#3C0404}
    .fil4 {fill:#F32D2D}
    .fil1 {fill:#FFBD2D}
    .fil5 {fill:white;fill-opacity:0.168627}
    .fil6 {fill:white;fill-opacity:0.231373}
    .fil2 {fill:white;fill-opacity:0.301961}
   ]]>
  </style>
 </defs>
 <g id="Layer_x0020_1">
  <metadata id="CorelCorpID_0Corel-Layer"/>
  <g id="_1262233496528">
   <path class="fil0" d="M178 2069c-104,-38 -178,-138 -178,-255 0,-127 88,-234 207,-263 156,-673 759,-1175 1480,-1175 719,0 1322,500 1479,1172 124,25 219,134 219,266 0,122 -80,224 -190,259 -32,276 -139,530 -299,740l0 0c0,0 149,43 -11,1096 0,0 -88,-426 -771,-557l0 0c-136,40 -279,61 -427,61 -780,0 -1423,-588 -1509,-1344z"/>
   <circle class="fil1" cx="1687" cy="1895" r="1351"/>
   <path class="fil2" d="M1687 544c580,0 1075,366 1266,879 -336,380 -779,611 -1266,611 -487,0 -931,-231 -1267,-611 192,-513 686,-879 1267,-879z"/>
   <path class="fil0" d="M411 429c109,0 198,89 198,198 0,109 -89,197 -198,197 -109,0 -197,-88 -197,-197 0,-109 88,-198 197,-198zm1894 -242c15,0 27,12 27,27 0,15 -12,27 -27,27 -15,0 -27,-12 -27,-27 0,-15 12,-27 27,-27zm-153 -70c22,0 40,18 40,39 0,22 -18,40 -40,40 -22,0 -39,-18 -39,-40 0,-21 17,-39 39,-39zm-191 -63c33,0 59,26 59,59 0,32 -26,58 -59,58 -32,0 -58,-26 -58,-58 0,-33 26,-59 58,-59zm-219 -46c46,0 84,37 84,84 0,46 -38,84 -84,84 -46,0 -84,-38 -84,-84 0,-47 38,-84 84,-84zm-282 -8c60,0 108,49 108,109 0,60 -48,108 -108,108 -61,0 -109,-48 -109,-108 0,-60 48,-109 109,-109zm-338 36c80,0 145,65 145,145 0,80 -65,145 -145,145 -80,0 -145,-65 -145,-145 0,-80 65,-145 145,-145zm-342 134c93,0 168,75 168,168 0,92 -75,168 -168,168 -92,0 -168,-76 -168,-168 0,-93 76,-168 168,-168z"/>
   <path class="fil3" d="M1709 2406c-155,-10 -494,-36 -652,-87 -207,-66 -192,-64 -192,-64 0,0 -119,-35 -108,77 -3,21 2,51 18,91 176,469 447,669 933,667l1 0 1 0c486,2 757,-198 933,-667 15,-40 21,-70 18,-91 11,-112 -109,-77 -109,-77 0,0 16,-2 -192,64 -157,51 -497,77 -651,87z"/>
   <path class="fil4" d="M2137 2738c0,0 152,62 69,116 -83,54 -90,52 -90,52 0,0 -247,79 -319,247 -73,168 -139,226 -139,226 0,0 -179,136 -391,136 -212,0 -347,-229 -347,-229 0,0 -79,-128 2,-264 82,-136 212,-253 212,-253 0,0 189,-177 364,-166 174,10 373,0 373,0 0,0 94,-7 266,135z"/>
   <path class="fil5" d="M1188 3504c-166,-45 -268,-218 -268,-218 0,0 -79,-128 2,-264 82,-136 212,-253 212,-253 0,0 189,-177 364,-166 40,2 82,3 123,4 0,0 -267,185 -204,284 87,-191 268,-284 268,-284l0 0c104,0 186,-4 186,-4 0,0 21,-2 61,11 43,44 77,89 70,119 -16,77 -48,88 -48,88 0,0 -259,153 -290,319 -31,167 -222,287 -222,287 0,0 -125,43 -254,77z"/>
   <path class="fil6" d="M1120 3078c-61,98 -63,173 -63,173 0,0 -60,74 -89,4 -29,-71 -6,-156 -6,-156 0,0 64,-253 182,-234 91,14 2,171 -24,213z"/>
   <g>
    <path class="fil3" d="M2171 1122c150,-134 357,-122 357,-122 -265,-257 -919,214 -601,231 146,8 402,49 556,171 154,121 158,130 158,130 46,46 167,26 97,-70 -28,-40 -72,-77 -72,-77 -178,-164 -264,-176 -487,-228 0,0 -33,-9 -8,-35z"/>
    <path class="fil3" d="M1249 1122c-150,-134 -357,-122 -357,-122 265,-257 918,214 600,231 -146,8 -402,49 -556,171 -154,121 -158,130 -158,130 -46,46 -166,26 -97,-70 28,-40 73,-77 73,-77 177,-164 264,-176 487,-228 0,0 32,-9 8,-35z"/>
   </g>
  </g>
 </g>
</svg>
