<?xml version="1.0" encoding="UTF-8"?>
<!DOCTYPE svg PUBLIC "-//W3C//DTD SVG 1.1//EN" "http://www.w3.org/Graphics/SVG/1.1/DTD/svg11.dtd">
<!-- Creator: CorelDRAW X8 -->
<svg xmlns="http://www.w3.org/2000/svg" xml:space="preserve" width="31.564mm" height="35.6728mm" version="1.1" style="shape-rendering:geometricPrecision; text-rendering:geometricPrecision; image-rendering:optimizeQuality; fill-rule:evenodd; clip-rule:evenodd"
viewBox="0 0 1314 1485"
 xmlns:xlink="http://www.w3.org/1999/xlink">
 <defs>
  <style type="text/css">
   <![CDATA[
    .fil0 {fill:#2C3D51}
    .fil3 {fill:#3C0404}
    .fil4 {fill:#F32D2D}
    .fil1 {fill:#FEC12B}
    .fil5 {fill:white;fill-opacity:0.168627}
    .fil6 {fill:white;fill-opacity:0.231373}
    .fil2 {fill:white;fill-opacity:0.301961}
   ]]>
  </style>
 </defs>
 <g id="Layer_x0020_1">
  <metadata id="CorelCorpID_0Corel-Layer"/>
  <g id="_1262197072496">
   <path class="fil0" d="M0 227l0 30c1,2 2,4 3,5 2,7 5,14 9,20 2,4 5,8 11,13l0 0 0 0c11,10 27,17 43,17l0 0 1 0 0 0c35,1 69,-25 70,-66 1,-39 -26,-63 -57,-69l-1 0 0 0 -1 0 -2 0 0 0c-1,0 -2,0 -3,0l0 0 -2 -1c-18,0 -38,6 -51,21 -6,6 -10,12 -13,19l-5 8c-1,0 -1,2 -2,3zm140 335c-51,0 -93,42 -93,94 0,51 42,93 93,93 1,0 3,0 4,0l0 266c0,100 82,183 182,183l436 0c1,1 2,2 3,3 157,187 114,284 114,284 201,-225 169,-270 213,-295 9,-2 19,-6 27,-10l0 0 0 0c62,-29 105,-92 105,-165l0 -266c50,-1 90,-43 90,-93 0,-51 -40,-92 -90,-94l0 -265c0,-101 -82,-183 -182,-183l-716 0c-100,0 -182,82 -182,183l0 265c-1,0 -3,0 -4,0zm-38 -453c5,23 21,37 40,42 5,1 11,2 17,2 11,0 21,-3 30,-9 19,-10 32,-32 25,-62 -5,-21 -19,-34 -35,-39 -6,-2 -13,-4 -20,-4 -14,0 -26,5 -35,12 -16,12 -26,31 -22,58zm194 -109c25,0 46,20 46,45 0,26 -21,46 -46,46 -25,0 -45,-20 -45,-46 0,-25 20,-45 45,-45zm459 35c6,0 10,5 10,10 0,6 -4,11 -10,11 -6,0 -11,-5 -11,-11 0,-5 5,-10 11,-10zm-58 -5c8,0 15,7 15,15 0,9 -7,16 -15,16 -9,0 -16,-7 -16,-16 0,-8 7,-15 16,-15zm-77 -7c12,0 22,10 22,22 0,13 -10,23 -22,23 -12,0 -22,-10 -22,-23 0,-12 10,-22 22,-22zm-85 -5c15,0 27,13 27,27 0,15 -12,28 -27,28 -15,0 -27,-13 -27,-28 0,-14 12,-27 27,-27zm-107 -8c20,0 36,16 36,35 0,20 -16,36 -36,36 -19,0 -35,-16 -35,-36 0,-19 16,-35 35,-35z"/>
   <rect class="fil1" x="212" y="182" width="944" height="947" rx="160" ry="30"/>
   <path class="fil2" d="M371 182l625 0c88,0 160,72 160,160l0 210c-129,104 -293,166 -472,166 -179,0 -343,-62 -472,-166l0 -210c0,-88 71,-160 159,-160z"/>
   <path class="fil3" d="M684 847c56,-3 178,-13 235,-31 75,-24 70,-23 70,-23 0,0 43,-13 39,28 1,7 -1,18 -7,33 -63,169 -161,241 -336,240l-1 0 0 0c-176,1 -274,-71 -337,-240 -6,-15 -8,-26 -7,-33 -4,-41 40,-28 40,-28 0,0 -6,-1 69,23 57,18 179,28 235,31z"/>
   <path class="fil4" d="M530 967c0,0 -55,22 -25,42 30,19 32,19 32,19 0,0 89,28 115,89 27,61 51,82 51,82 0,0 64,49 141,49 76,0 125,-83 125,-83 0,0 28,-46 -1,-95 -29,-49 -76,-92 -76,-92 0,0 -69,-63 -132,-60 -63,4 -135,0 -135,0 0,0 -33,-2 -95,49z"/>
   <path class="fil5" d="M872 1244c60,-17 97,-79 97,-79 0,0 28,-46 -1,-95 -29,-49 -76,-92 -76,-92 0,0 -69,-63 -132,-60 -14,1 -29,2 -44,2 0,0 96,66 74,102 -32,-68 -97,-102 -97,-102l0 0c-38,0 -68,-2 -68,-2 0,0 -7,0 -21,5 -16,15 -28,32 -26,43 6,27 17,31 17,31 0,0 94,55 105,115 12,60 81,104 81,104 0,0 45,15 91,28z"/>
   <path class="fil6" d="M897 1090c21,35 22,62 22,62 0,0 22,27 32,2 11,-26 3,-57 3,-57 0,0 -24,-91 -66,-84 -33,5 -1,62 9,77z"/>
   <g>
    <path class="fil3" d="M517 409c-54,-49 -128,-44 -128,-44 95,-93 331,77 216,83 -52,3 -145,18 -200,62 -56,44 -57,47 -57,47 -17,16 -60,9 -35,-26 10,-14 26,-27 26,-27 64,-60 95,-64 176,-82 0,0 11,-4 2,-13z"/>
    <path class="fil3" d="M850 409c54,-49 129,-44 129,-44 -96,-93 -332,77 -217,83 53,3 145,18 201,62 56,44 57,47 57,47 17,16 60,9 35,-26 -10,-14 -26,-27 -26,-27 -64,-60 -95,-64 -176,-82 0,0 -12,-4 -3,-13z"/>
   </g>
  </g>
 </g>
</svg>
