<?xml version="1.0" encoding="UTF-8"?>
<!DOCTYPE svg PUBLIC "-//W3C//DTD SVG 1.1//EN" "http://www.w3.org/Graphics/SVG/1.1/DTD/svg11.dtd">
<!-- Creator: CorelDRAW X8 -->
<svg xmlns="http://www.w3.org/2000/svg" xml:space="preserve" width="29.3356mm" height="33.8834mm" version="1.1" style="shape-rendering:geometricPrecision; text-rendering:geometricPrecision; image-rendering:optimizeQuality; fill-rule:evenodd; clip-rule:evenodd"
viewBox="0 0 494 570"
 xmlns:xlink="http://www.w3.org/1999/xlink">
 <defs>
  <style type="text/css">
   <![CDATA[
    .fil0 {fill:#2C3D51}
    .fil4 {fill:#DF8E29}
    .fil3 {fill:#FF473E}
    .fil1 {fill:#FFBD2D}
    .fil2 {fill:white;fill-opacity:0.301961}
   ]]>
  </style>
 </defs>
 <g id="Layer_x0020_1">
  <metadata id="CorelCorpID_0Corel-Layer"/>
  <g id="_2537813958688">
   <path class="fil0" d="M26 302c-15,-6 -26,-20 -26,-37 0,-19 13,-35 30,-39 23,-98 111,-171 216,-171 105,0 193,73 216,171 18,3 32,19 32,39 0,17 -12,32 -28,37 -5,41 -20,78 -44,108l0 0c0,0 22,7 -1,160 0,0 -13,-62 -113,-81l0 0c-19,6 -40,9 -62,9 -114,0 -207,-86 -220,-196z"/>
   <circle class="fil1" cx="246" cy="276" r="197"/>
   <path class="fil2" d="M246 79c85,0 157,54 185,129 -49,55 -114,89 -185,89 -71,0 -136,-34 -185,-89 28,-75 100,-129 185,-129z"/>
   <path class="fil0" d="M60 63c16,0 29,13 29,28 0,16 -13,29 -29,29 -16,0 -29,-13 -29,-29 0,-15 13,-28 29,-28zm276 -36c2,0 4,2 4,4 0,2 -2,4 -4,4 -2,0 -4,-2 -4,-4 0,-2 2,-4 4,-4zm-22 -10c3,0 6,3 6,6 0,3 -3,6 -6,6 -3,0 -6,-3 -6,-6 0,-3 3,-6 6,-6zm-28 -9c5,0 9,4 9,8 0,5 -4,9 -9,9 -5,0 -8,-4 -8,-9 0,-4 3,-8 8,-8zm-32 -7c7,0 12,6 12,12 0,7 -5,13 -12,13 -7,0 -12,-6 -12,-13 0,-6 5,-12 12,-12zm-41 -1c9,0 16,7 16,16 0,9 -7,16 -16,16 -9,0 -16,-7 -16,-16 0,-9 7,-16 16,-16zm-49 5c11,0 21,10 21,21 0,12 -10,22 -21,22 -12,0 -22,-10 -22,-22 0,-11 10,-21 22,-21zm-50 20c13,0 24,11 24,24 0,14 -11,25 -24,25 -14,0 -25,-11 -25,-25 0,-13 11,-24 25,-24z"/>
   <g>
    <path class="fil3" d="M232 343c-2,-2 -7,-3 -10,-3 -3,0 -6,1 -9,2l0 0c-1,0 -1,1 -2,2 -10,6 -46,31 -55,45 30,52 76,55 90,55 14,0 60,-3 90,-55 -9,-14 -45,-39 -55,-45 -1,-1 -1,-2 -2,-2l0 0c-24,-13 -24,29 -47,1z"/>
    <path class="fil0" d="M276 384c1,1 1,2 1,3 0,10 -14,19 -31,19 -17,0 -31,-9 -31,-19 0,-1 0,-2 1,-3 8,2 19,4 30,4 11,0 22,-2 30,-4z"/>
   </g>
   <g>
    <g>
     <path class="fil0" d="M334 175l0 0c12,0 21,10 21,21l0 41c0,-3 -9,-5 -21,-5 -12,0 -21,2 -21,5l0 -41c0,-11 9,-21 21,-21z"/>
     <path class="fil0" d="M158 175l0 0c12,0 21,10 21,21l0 41c0,-3 -9,-5 -21,-5 -12,0 -21,2 -21,5l0 -41c0,-11 9,-21 21,-21z"/>
    </g>
    <g>
     <path class="fil4" d="M362 159c1,1 2,2 2,4 0,2 -3,5 -5,5 -3,0 -5,-2 -5,-4 -3,-3 -11,-10 -23,-11 -12,0 -16,1 -18,2 0,1 0,1 -1,1 0,1 -1,1 -3,1 -2,0 -5,-2 -5,-5 0,-2 1,-3 3,-4 0,0 12,-13 30,-8 19,5 25,19 25,19z"/>
     <path class="fil4" d="M130 159c-1,1 -2,2 -2,4 0,2 3,5 5,5 3,0 5,-2 5,-4 3,-3 11,-10 23,-11 12,0 16,1 18,2 0,1 0,1 1,1 0,1 1,1 3,1 2,0 5,-2 5,-5 0,-2 -1,-3 -3,-4 0,0 -12,-13 -30,-8 -19,5 -25,19 -25,19z"/>
    </g>
   </g>
  </g>
 </g>
</svg>
