<?xml version="1.0" encoding="UTF-8"?>
<!DOCTYPE svg PUBLIC "-//W3C//DTD SVG 1.1//EN" "http://www.w3.org/Graphics/SVG/1.1/DTD/svg11.dtd">
<!-- Creator: CorelDRAW X8 -->
<svg xmlns="http://www.w3.org/2000/svg" xml:space="preserve" width="31.564mm" height="35.6728mm" version="1.1" style="shape-rendering:geometricPrecision; text-rendering:geometricPrecision; image-rendering:optimizeQuality; fill-rule:evenodd; clip-rule:evenodd"
viewBox="0 0 362 409"
 xmlns:xlink="http://www.w3.org/1999/xlink">
 <defs>
  <style type="text/css">
   <![CDATA[
    .fil0 {fill:#2C3D51}
    .fil3 {fill:#DF8E29}
    .fil1 {fill:#FEC12B}
    .fil4 {fill:#FF473E}
    .fil2 {fill:white;fill-opacity:0.301961}
   ]]>
  </style>
 </defs>
 <g id="Layer_x0020_1">
  <metadata id="CorelCorpID_0Corel-Layer"/>
  <g id="_2537691780464">
   <path class="fil0" d="M0 62l0 9c0,0 1,1 1,1 0,2 1,4 2,6 1,1 2,2 3,3l0 0 0 0c3,3 8,5 12,5l0 0 0 0 0 0c10,0 19,-7 20,-18 0,-11 -8,-18 -16,-19l0 0 0 0 -1 0 0 0 0 0c0,0 -1,0 -1,0l0 0 0 0c-6,-1 -11,1 -15,5 -1,2 -2,3 -3,5l-2 3c0,0 0,0 0,0zm39 93c-15,0 -26,11 -26,25 0,15 11,26 26,26 0,0 0,0 0,0l0 73c0,28 23,50 51,50l120 0c0,1 0,1 0,1 44,52 32,79 32,79 55,-62 46,-75 58,-82 3,0 5,-1 8,-2l0 0 0 0c17,-8 29,-26 29,-46l0 -73c14,0 25,-12 25,-26 0,-13 -11,-25 -25,-25l0 -73c0,-28 -23,-51 -50,-51l-197 0c-28,0 -51,23 -51,51l0 73c0,0 0,0 0,0zm-11 -125c1,6 6,10 11,11 1,1 3,1 5,1 3,0 6,-1 8,-2 5,-3 9,-9 7,-17 -2,-6 -5,-10 -10,-11 -2,-1 -3,-1 -5,-1 -4,0 -7,1 -10,3 -4,3 -7,9 -6,16zm53 -30c7,0 13,6 13,13 0,6 -6,12 -13,12 -6,0 -12,-6 -12,-12 0,-7 6,-13 12,-13zm127 10c1,0 3,1 3,3 0,1 -2,2 -3,2 -2,0 -3,-1 -3,-2 0,-2 1,-3 3,-3zm-16 -2c2,0 4,2 4,5 0,2 -2,4 -4,4 -3,0 -5,-2 -5,-4 0,-3 2,-5 5,-5zm-22 -2c4,0 7,3 7,7 0,3 -3,6 -7,6 -3,0 -6,-3 -6,-6 0,-4 3,-7 6,-7zm-23 -1c4,0 8,3 8,8 0,4 -4,7 -8,7 -4,0 -7,-3 -7,-7 0,-5 3,-8 7,-8zm-29 -2c5,0 10,4 10,10 0,5 -5,9 -10,9 -6,0 -10,-4 -10,-9 0,-6 4,-10 10,-10z"/>
   <rect class="fil1" x="58" y="50" width="260" height="260" rx="44" ry="8"/>
   <path class="fil2" d="M102 50l172 0c24,0 44,20 44,44l0 58c-36,28 -81,46 -130,46 -49,0 -94,-18 -130,-46l0 -58c0,-24 20,-44 44,-44z"/>
   <g>
    <g>
     <path class="fil0" d="M248 115l0 0c8,0 14,7 14,15l0 27c0,-2 -6,-3 -14,-3 -8,0 -14,1 -14,3l0 -27c0,-8 6,-15 14,-15z"/>
     <path class="fil0" d="M128 115l0 0c8,0 15,7 15,15l0 27c0,-2 -7,-3 -15,-3 -8,0 -14,1 -14,3l0 -27c0,-8 6,-15 14,-15z"/>
    </g>
    <g>
     <path class="fil3" d="M267 104c1,1 1,2 1,3 0,2 -1,3 -3,3 -2,0 -3,-1 -4,-2 -2,-3 -7,-7 -15,-8 -8,0 -11,1 -12,2 0,0 0,0 -1,0 0,1 -1,1 -2,1 -2,0 -3,-2 -3,-4 0,-1 1,-2 2,-3 0,0 8,-8 20,-5 13,4 17,13 17,13z"/>
     <path class="fil3" d="M109 104c0,1 -1,2 -1,3 0,2 2,3 3,3 2,0 3,-1 4,-2 2,-3 7,-7 15,-8 8,0 11,1 12,2 0,0 1,0 1,0 0,1 1,1 2,1 2,0 3,-2 3,-4 0,-1 0,-2 -1,-3 0,0 -8,-8 -21,-5 -13,4 -17,13 -17,13z"/>
    </g>
   </g>
   <g>
    <path class="fil4" d="M179 223c-2,-2 -5,-2 -8,-2 -2,0 -3,0 -5,1l0 0c-1,1 -1,1 -2,1 -6,5 -31,22 -37,31 20,36 52,38 61,38 10,0 41,-2 62,-38 -7,-9 -31,-26 -38,-31 -1,0 -1,0 -2,-1l0 0c-16,-8 -16,20 -31,1z"/>
    <path class="fil0" d="M209 251c0,1 0,1 0,2 0,7 -9,13 -21,13 -11,0 -21,-6 -21,-13 0,-1 0,-1 0,-2 6,2 14,3 21,3 8,0 15,-1 21,-3z"/>
   </g>
  </g>
 </g>
</svg>
