<?xml version="1.0" encoding="UTF-8"?>
<!DOCTYPE svg PUBLIC "-//W3C//DTD SVG 1.1//EN" "http://www.w3.org/Graphics/SVG/1.1/DTD/svg11.dtd">
<!-- Creator: CorelDRAW X8 -->
<svg xmlns="http://www.w3.org/2000/svg" xml:space="preserve" width="31.564mm" height="35.6728mm" version="1.1" style="shape-rendering:geometricPrecision; text-rendering:geometricPrecision; image-rendering:optimizeQuality; fill-rule:evenodd; clip-rule:evenodd"
viewBox="0 0 818 925"
 xmlns:xlink="http://www.w3.org/1999/xlink">
 <defs>
  <style type="text/css">
   <![CDATA[
    .fil3 {fill:#1A1626}
    .fil4 {fill:#1C1F39}
    .fil0 {fill:#2C3D51}
    .fil1 {fill:#FEC12B}
    .fil2 {fill:white;fill-opacity:0.301961}
   ]]>
  </style>
 </defs>
 <g id="Layer_x0020_1">
  <metadata id="CorelCorpID_0Corel-Layer"/>
  <g id="_1262253776272">
   <path class="fil0" d="M0 141l0 19c1,1 1,2 2,3 1,5 3,9 5,13 2,2 4,5 7,7l0 0 0 0c7,7 17,11 27,11l0 0 0 0 1 0c22,1 42,-15 43,-41 1,-24 -16,-39 -35,-43l-1 0 0 0 0 0 -2 0 0 0c0,0 -1,0 -1,0l-1 0 -1 0c-11,-1 -23,3 -32,13 -3,3 -6,7 -8,11l-3 6c0,-1 -1,1 -1,1zm87 209c-32,0 -58,26 -58,58 0,32 26,58 58,58 1,0 2,0 2,0l0 166c0,62 52,113 114,113l272 0c0,1 1,2 1,2 98,117 71,178 71,178 125,-141 105,-169 133,-184 6,-2 11,-4 17,-6l0 0 0 0c38,-19 65,-58 65,-103l0 -166c31,-1 56,-26 56,-58 0,-31 -25,-57 -56,-58l0 -165c0,-63 -51,-114 -114,-114l-445 0c-62,0 -114,51 -114,114l0 165c0,0 -1,0 -2,0zm-23 -282c2,14 13,23 24,26 4,1 7,1 11,1 7,0 13,-2 19,-5 12,-7 20,-20 15,-39 -3,-13 -12,-21 -22,-24 -4,-2 -8,-3 -12,-3 -9,0 -16,3 -22,8 -10,7 -16,19 -13,36zm120 -68c16,0 29,13 29,28 0,16 -13,29 -29,29 -15,0 -28,-13 -28,-29 0,-15 13,-28 28,-28zm286 22c3,0 6,3 6,6 0,4 -3,7 -6,7 -4,0 -7,-3 -7,-7 0,-3 3,-6 7,-6zm-36 -3c5,0 9,4 9,9 0,6 -4,10 -9,10 -6,0 -10,-4 -10,-10 0,-5 4,-9 10,-9zm-48 -4c7,0 14,6 14,13 0,8 -7,14 -14,14 -8,0 -14,-6 -14,-14 0,-7 6,-13 14,-13zm-53 -4c9,0 17,8 17,17 0,10 -8,17 -17,17 -9,0 -17,-7 -17,-17 0,-9 8,-17 17,-17zm-66 -5c12,0 22,10 22,22 0,12 -10,22 -22,22 -13,0 -22,-10 -22,-22 0,-12 9,-22 22,-22z"/>
   <rect class="fil1" x="132" y="114" width="588" height="589" rx="99" ry="19"/>
   <path class="fil2" d="M231 114l389 0c55,0 100,44 100,99l0 131c-81,64 -183,103 -294,103 -112,0 -214,-39 -294,-104l0 -130c0,-55 44,-99 99,-99z"/>
   <g>
    <path class="fil3" d="M366 224c0,0 -69,-8 -101,7 -11,6 -33,24 -44,12 -12,-13 27,-33 27,-33 0,0 140,-64 118,14z"/>
    <path class="fil3" d="M486 224c0,0 68,-8 100,7 12,6 34,24 44,12 12,-13 -27,-33 -27,-33 0,0 -140,-64 -117,14z"/>
   </g>
   <g>
    <path class="fil4" d="M244 296c10,17 59,31 59,31 0,0 -24,21 -38,42 -13,20 -5,32 -5,32 0,0 7,5 25,-16 18,-22 36,-44 36,-44 0,0 10,-5 45,24 35,28 37,17 37,17 0,0 -2,-23 -30,-43 -29,-19 -29,-19 -29,-19 0,0 20,-23 32,-30 13,-6 13,-18 13,-18 0,0 -14,-6 -37,9 -23,16 -27,26 -27,26 0,0 -18,-3 -41,-13 -22,-11 -35,-13 -40,2z"/>
    <path class="fil4" d="M608 296c-11,17 -59,31 -59,31 0,0 24,21 37,42 13,20 5,32 5,32 0,0 -7,5 -25,-16 -18,-22 -36,-44 -36,-44 0,0 -10,-5 -45,24 -34,28 -37,17 -37,17 0,0 2,-23 31,-43 28,-19 28,-19 28,-19 0,0 -19,-23 -32,-30 -12,-6 -13,-18 -13,-18 0,0 14,-6 37,9 23,16 27,26 27,26 0,0 18,-3 41,-13 22,-11 36,-13 41,2z"/>
   </g>
   <path class="fil4" d="M495 592c-59,19 -63,-35 -119,-28 -62,8 -56,45 -56,45 0,0 59,-10 104,26 12,10 67,15 93,-4 29,-22 10,-50 -22,-39z"/>
  </g>
 </g>
</svg>
