<?xml version="1.0" encoding="UTF-8"?>
<!DOCTYPE svg PUBLIC "-//W3C//DTD SVG 1.1//EN" "http://www.w3.org/Graphics/SVG/1.1/DTD/svg11.dtd">
<!-- Creator: CorelDRAW X8 -->
<svg xmlns="http://www.w3.org/2000/svg" xml:space="preserve" width="29.3356mm" height="33.8834mm" version="1.1" style="shape-rendering:geometricPrecision; text-rendering:geometricPrecision; image-rendering:optimizeQuality; fill-rule:evenodd; clip-rule:evenodd"
viewBox="0 0 386 446"
 xmlns:xlink="http://www.w3.org/1999/xlink">
 <defs>
  <style type="text/css">
   <![CDATA[
    .fil4 {fill:#1A1626}
    .fil3 {fill:#1C1F39}
    .fil0 {fill:#2C3D51}
    .fil1 {fill:#FFBD2D}
    .fil2 {fill:white;fill-opacity:0.301961}
   ]]>
  </style>
 </defs>
 <g id="Layer_x0020_1">
  <metadata id="CorelCorpID_0Corel-Layer"/>
  <g id="_1262253790672">
   <path class="fil0" d="M20 236c-12,-4 -20,-16 -20,-29 0,-15 10,-27 24,-30 17,-77 86,-134 168,-134 82,0 151,57 169,134 14,2 25,15 25,30 0,14 -9,25 -22,29 -3,32 -16,61 -34,85l0 0c0,0 17,5 -1,125 0,0 -10,-49 -88,-64l0 0c-15,5 -32,7 -49,7 -89,0 -162,-67 -172,-153z"/>
   <circle class="fil1" cx="192" cy="216" r="154"/>
   <path class="fil2" d="M192 62c66,0 123,42 145,100 -39,44 -89,70 -145,70 -55,0 -106,-26 -144,-70 22,-58 78,-100 144,-100z"/>
   <path class="fil0" d="M47 49c12,0 22,10 22,22 0,13 -10,23 -22,23 -13,0 -23,-10 -23,-23 0,-12 10,-22 23,-22zm216 -28c1,0 3,2 3,3 0,2 -2,3 -3,3 -2,0 -3,-1 -3,-3 0,-1 1,-3 3,-3zm-18 -8c3,0 5,2 5,5 0,2 -2,4 -5,4 -2,0 -4,-2 -4,-4 0,-3 2,-5 4,-5zm-21 -7c3,0 6,3 6,7 0,4 -3,6 -6,6 -4,0 -7,-2 -7,-6 0,-4 3,-7 7,-7zm-25 -5c5,0 9,4 9,9 0,6 -4,10 -9,10 -6,0 -10,-4 -10,-10 0,-5 4,-9 10,-9zm-33 -1c7,0 13,6 13,12 0,7 -6,13 -13,13 -6,0 -12,-6 -12,-13 0,-6 6,-12 12,-12zm-38 4c9,0 16,8 16,17 0,9 -7,16 -16,16 -9,0 -17,-7 -17,-16 0,-9 8,-17 17,-17zm-39 15c11,0 19,9 19,20 0,10 -8,19 -19,19 -11,0 -19,-9 -19,-19 0,-11 8,-20 19,-20z"/>
   <path class="fil3" d="M230 299c-32,10 -34,-19 -65,-15 -33,4 -30,24 -30,24 0,0 32,-5 56,14 7,5 37,8 51,-2 16,-12 6,-27 -12,-21z"/>
   <g>
    <path class="fil3" d="M100 152c5,8 30,15 30,15 0,0 -12,11 -19,22 -7,10 -3,16 -3,16 0,0 4,3 13,-8 9,-11 18,-23 18,-23 0,0 5,-2 23,12 18,15 19,9 19,9 0,0 -1,-12 -16,-21 -14,-10 -14,-10 -14,-10 0,0 10,-12 16,-15 7,-4 7,-10 7,-10 0,0 -7,-3 -19,5 -12,8 -14,13 -14,13 0,0 -9,-1 -20,-7 -12,-5 -18,-6 -21,2z"/>
    <path class="fil3" d="M285 152c-5,8 -30,15 -30,15 0,0 12,11 19,22 7,10 2,16 2,16 0,0 -3,3 -12,-8 -10,-11 -19,-23 -19,-23 0,0 -5,-2 -22,12 -18,15 -19,9 -19,9 0,0 1,-12 15,-21 15,-10 15,-10 15,-10 0,0 -10,-12 -17,-15 -6,-4 -6,-10 -6,-10 0,0 7,-3 19,5 11,8 13,13 13,13 0,0 10,-1 21,-7 11,-5 18,-6 21,2z"/>
   </g>
   <g>
    <path class="fil4" d="M162 125c0,0 -35,-4 -51,4 -6,3 -17,12 -23,6 -6,-7 14,-17 14,-17 0,0 71,-32 60,7z"/>
    <path class="fil4" d="M223 125c0,0 34,-4 51,4 6,3 17,12 22,6 6,-7 -14,-17 -14,-17 0,0 -71,-32 -59,7z"/>
   </g>
  </g>
 </g>
</svg>
