<?xml version="1.0" encoding="UTF-8"?>
<!DOCTYPE svg PUBLIC "-//W3C//DTD SVG 1.1//EN" "http://www.w3.org/Graphics/SVG/1.1/DTD/svg11.dtd">
<!-- Creator: CorelDRAW X8 -->
<svg xmlns="http://www.w3.org/2000/svg" xml:space="preserve" width="29.3356mm" height="36.4618mm" version="1.1" style="shape-rendering:geometricPrecision; text-rendering:geometricPrecision; image-rendering:optimizeQuality; fill-rule:evenodd; clip-rule:evenodd"
viewBox="0 0 487 605"
 xmlns:xlink="http://www.w3.org/1999/xlink">
 <defs>
  <style type="text/css">
   <![CDATA[
    .fil0 {fill:#2C3D51}
    .fil3 {fill:#714504}
    .fil5 {fill:#9999FF}
    .fil1 {fill:#FFBD2D}
    .fil4 {fill:white}
    .fil2 {fill:white;fill-opacity:0.301961}
    .fil6 {fill:white;fill-opacity:0.490196}
   ]]>
  </style>
     <mask id="id0">
  <linearGradient id="id1" gradientUnits="userSpaceOnUse" x1="241.554" y1="385.905" x2="238.598" y2="540.391">
   <stop offset="0" style="stop-opacity:0; stop-color:white"/>
   <stop offset="1" style="stop-opacity:0.678431; stop-color:white"/>
  </linearGradient>
      <rect style="fill:url(#id1)" x="136" y="384" width="213" height="222"/>
     </mask>
     <mask id="id2">
  <linearGradient id="id3" gradientUnits="userSpaceOnUse" x1="241.554" y1="385.905" x2="238.598" y2="540.391">
   <stop offset="0" style="stop-opacity:0; stop-color:white"/>
   <stop offset="1" style="stop-opacity:0.678431; stop-color:white"/>
  </linearGradient>
      <rect style="fill:url(#id3)" x="136" y="384" width="213" height="222"/>
     </mask>
 </defs>
 <g id="Layer_x0020_1">
  <metadata id="CorelCorpID_0Corel-Layer"/>
  <g id="_1262233498992">
   <path class="fil0" d="M26 297c-15,-5 -26,-19 -26,-36 0,-18 13,-34 30,-38 22,-97 109,-169 212,-169 104,0 191,72 213,169 18,3 32,19 32,38 0,17 -12,32 -28,37 -4,40 -20,76 -43,106l0 0c0,0 22,7 -1,158 0,0 -13,-61 -111,-80l0 0c-20,6 -40,9 -62,9 -112,0 -204,-85 -216,-194z"/>
   <circle class="fil1" cx="242" cy="272" r="194"/>
   <path class="fil2" d="M242 78c84,0 155,53 183,127 -49,54 -113,87 -183,87 -70,0 -133,-33 -182,-87 28,-74 99,-127 182,-127z"/>
   <path class="fil0" d="M59 62c16,0 29,12 29,28 0,16 -13,29 -29,29 -16,0 -28,-13 -28,-29 0,-16 12,-28 28,-28zm272 -35c3,0 4,2 4,4 0,2 -1,4 -4,4 -2,0 -4,-2 -4,-4 0,-2 2,-4 4,-4zm-22 -10c4,0 6,2 6,5 0,4 -2,6 -6,6 -3,0 -5,-2 -5,-6 0,-3 2,-5 5,-5zm-27 -9c5,0 8,4 8,8 0,5 -3,9 -8,9 -5,0 -8,-4 -8,-9 0,-4 3,-8 8,-8zm-32 -7c7,0 13,6 13,12 0,7 -6,12 -13,12 -6,0 -12,-5 -12,-12 0,-6 6,-12 12,-12zm-40 -1c8,0 15,7 15,16 0,8 -7,15 -15,15 -9,0 -16,-7 -16,-15 0,-9 7,-16 16,-16zm-49 5c12,0 21,10 21,21 0,12 -9,21 -21,21 -11,0 -21,-9 -21,-21 0,-11 10,-21 21,-21zm-49 19c14,0 24,11 24,25 0,13 -10,24 -24,24 -13,0 -24,-11 -24,-24 0,-14 11,-25 24,-25z"/>
   <g>
    <g>
     <path class="fil3" d="M81 184c0,0 -5,-12 11,-24 25,-19 47,-40 79,-39 20,1 30,9 13,26 -10,11 -27,22 -27,22 0,0 -46,25 -76,15z"/>
     <path class="fil3" d="M404 184c0,0 5,-12 -11,-24 -25,-19 -47,-40 -79,-39 -20,1 -30,9 -13,26 10,11 27,22 27,22 0,0 46,25 76,15z"/>
    </g>
    <g>
     <path class="fil0" d="M271 201c46,38 107,18 107,18 -7,38 -109,49 -107,-18z"/>
     <path class="fil0" d="M214 201c-47,38 -107,18 -107,18 7,38 109,49 107,-18z"/>
    </g>
   </g>
   <g>
    <path class="fil0" d="M242 366c29,0 53,24 53,54 0,5 -1,11 -3,15l-100 0c-2,-4 -2,-10 -2,-15 0,-30 23,-54 52,-54z"/>
    <path class="fil4" style="mask:url(#id0)" d="M242 386c0,0 -15,0 -26,41 -10,42 -12,46 -12,46 0,0 -36,-31 -59,8 -22,39 9,51 9,51 0,0 -20,36 8,50 27,13 33,-5 33,-5 0,0 7,28 49,28 42,0 52,-30 52,-30 0,0 37,16 49,-13 12,-29 -21,-46 -21,-46 0,0 7,-27 -14,-39 -20,-13 -29,4 -29,4 0,0 -8,-88 -39,-95z"/>
    <path class="fil5" style="mask:url(#id2)" d="M242 386c0,0 -15,0 -26,41 -10,42 -12,46 -12,46 0,0 -36,-31 -59,8 -22,39 9,51 9,51 0,0 -20,36 8,50 27,13 33,-5 33,-5 0,0 7,28 49,28 42,0 52,-30 52,-30 0,0 37,16 49,-13 12,-29 -21,-46 -21,-46 0,0 7,-27 -14,-39 -20,-13 -29,4 -29,4 0,0 -8,-88 -39,-95z"/>
    <path class="fil6" d="M242 405c0,0 -6,43 -7,69 -1,26 -27,4 -27,4 0,0 -32,-26 -52,7 -20,32 7,41 7,41 0,0 -17,31 8,42 24,12 29,-4 29,-4 0,0 6,24 44,24 37,0 46,-25 46,-25 0,0 33,13 44,-11 10,-24 -19,-38 -19,-38 0,0 6,-23 -12,-33 -19,-11 -29,18 -51,8 -9,-15 5,-73 -10,-84z"/>
   </g>
  </g>
 </g>
</svg>
