<?xml version="1.0" encoding="UTF-8"?>
<!DOCTYPE svg PUBLIC "-//W3C//DTD SVG 1.1//EN" "http://www.w3.org/Graphics/SVG/1.1/DTD/svg11.dtd">
<!-- Creator: CorelDRAW X8 -->
<svg xmlns="http://www.w3.org/2000/svg" xml:space="preserve" width="31.564mm" height="36.1565mm" version="1.1" style="shape-rendering:geometricPrecision; text-rendering:geometricPrecision; image-rendering:optimizeQuality; fill-rule:evenodd; clip-rule:evenodd"
viewBox="0 0 358 410"
 xmlns:xlink="http://www.w3.org/1999/xlink">
 <defs>
  <style type="text/css">
   <![CDATA[
    .fil0 {fill:#2C3D51}
    .fil6 {fill:#714504}
    .fil4 {fill:#9999FF}
    .fil1 {fill:#FEC12B}
    .fil3 {fill:white}
    .fil2 {fill:white;fill-opacity:0.301961}
    .fil5 {fill:white;fill-opacity:0.490196}
   ]]>
  </style>
    <mask id="id0">
  <linearGradient id="id1" gradientUnits="userSpaceOnUse" x1="185.436" y1="260.602" x2="183.414" y2="366.313">
   <stop offset="0" style="stop-opacity:0; stop-color:white"/>
   <stop offset="1" style="stop-opacity:0.678431; stop-color:white"/>
  </linearGradient>
     <rect style="fill:url(#id1)" x="113" y="260" width="146" height="152"/>
    </mask>
    <mask id="id2">
  <linearGradient id="id3" gradientUnits="userSpaceOnUse" x1="185.436" y1="260.602" x2="183.414" y2="366.313">
   <stop offset="0" style="stop-opacity:0; stop-color:white"/>
   <stop offset="1" style="stop-opacity:0.678431; stop-color:white"/>
  </linearGradient>
     <rect style="fill:url(#id3)" x="113" y="260" width="146" height="152"/>
    </mask>
 </defs>
 <g id="Layer_x0020_1">
  <metadata id="CorelCorpID_0Corel-Layer"/>
  <g id="_1262203574544">
   <path class="fil0" d="M0 62l0 8c0,1 1,1 1,1 0,2 1,4 2,6 1,1 2,2 3,3l0 0 0 0c3,3 8,5 12,5l0 0 0 0 0 0c10,0 19,-7 19,-18 1,-10 -7,-17 -15,-19l-1 0 0 0 0 0 0 0 0 0c-1,0 -1,0 -1,0l0 0 -1 0c-5,0 -10,2 -14,6 -1,1 -2,3 -3,5l-2 2c0,0 0,1 0,1zm38 91c-14,0 -25,12 -25,26 0,14 11,25 25,25 1,0 1,0 1,0l0 73c0,27 23,49 50,49l119 0c0,1 0,1 1,1 42,51 31,78 31,78 54,-61 46,-74 58,-80 2,-1 5,-2 7,-3l0 0 0 0c17,-8 29,-26 29,-45l0 -73c13,0 24,-11 24,-25 0,-14 -11,-25 -24,-26l0 -72c0,-27 -23,-50 -50,-50l-195 0c-27,0 -50,23 -50,50l0 72c0,0 0,0 -1,0zm-10 -123c1,6 6,10 11,11 1,0 3,1 4,1 3,0 6,-1 8,-3 6,-3 9,-8 7,-17 -1,-5 -5,-9 -9,-10 -2,-1 -4,-1 -6,-1 -3,0 -7,1 -9,3 -5,3 -7,8 -6,16zm53 -30c7,0 12,6 12,12 0,7 -5,13 -12,13 -7,0 -13,-6 -13,-13 0,-6 6,-12 13,-12zm125 9c1,0 3,2 3,3 0,2 -2,3 -3,3 -2,0 -3,-1 -3,-3 0,-1 1,-3 3,-3zm-16 -1c2,0 4,2 4,4 0,3 -2,5 -4,5 -2,0 -4,-2 -4,-5 0,-2 2,-4 4,-4zm-21 -2c3,0 6,3 6,6 0,4 -3,6 -6,6 -3,0 -6,-2 -6,-6 0,-3 3,-6 6,-6zm-23 -1c4,0 7,3 7,7 0,4 -3,8 -7,8 -4,0 -8,-4 -8,-8 0,-4 4,-7 8,-7zm-29 -2c5,0 9,4 9,9 0,6 -4,10 -9,10 -6,0 -10,-4 -10,-10 0,-5 4,-9 10,-9z"/>
   <rect class="fil1" x="58" y="50" width="257" height="258" rx="43" ry="8"/>
   <path class="fil2" d="M101 50l171 0c24,0 43,19 43,43l0 57c-35,29 -80,46 -129,46 -48,0 -93,-17 -128,-46l0 -57c0,-24 19,-43 43,-43z"/>
   <path class="fil0" d="M186 247c20,0 36,16 36,37 0,4 -1,7 -2,10l-69 0c-1,-3 -1,-6 -1,-10 0,-21 16,-37 36,-37z"/>
   <path class="fil3" style="mask:url(#id0)" d="M185 261c0,0 -10,0 -17,28 -7,28 -8,31 -8,31 0,0 -25,-21 -40,6 -15,27 5,34 5,34 0,0 -13,26 6,35 19,9 23,-4 23,-4 0,0 4,19 33,19 29,0 35,-20 35,-20 0,0 26,11 34,-9 8,-20 -14,-31 -14,-31 0,0 5,-19 -10,-27 -14,-9 -19,3 -19,3 0,0 -6,-60 -28,-65z"/>
   <path class="fil4" style="mask:url(#id2)" d="M185 261c0,0 -10,0 -17,28 -7,28 -8,31 -8,31 0,0 -25,-21 -40,6 -15,27 5,34 5,34 0,0 -13,26 6,35 19,9 23,-4 23,-4 0,0 4,19 33,19 29,0 35,-20 35,-20 0,0 26,11 34,-9 8,-20 -14,-31 -14,-31 0,0 5,-19 -10,-27 -14,-9 -19,3 -19,3 0,0 -6,-60 -28,-65z"/>
   <path class="fil5" d="M186 274c0,0 -4,29 -5,47 -1,18 -18,2 -18,2 0,0 -22,-17 -36,5 -13,22 5,29 5,29 0,0 -12,21 5,29 17,7 20,-3 20,-3 0,0 4,16 30,16 25,0 31,-17 31,-17 0,0 23,9 30,-8 8,-16 -12,-26 -12,-26 0,0 4,-15 -9,-22 -12,-8 -19,12 -34,5 -6,-10 3,-50 -7,-57z"/>
   <g>
    <path class="fil6" d="M76 118c0,0 -4,-8 8,-17 16,-13 31,-27 54,-26 13,0 20,6 9,18 -8,7 -19,14 -19,14 0,0 -32,18 -52,11z"/>
    <path class="fil6" d="M297 118c0,0 3,-8 -8,-17 -17,-13 -32,-27 -54,-26 -13,0 -20,6 -9,18 8,7 19,14 19,14 0,0 32,18 52,11z"/>
   </g>
   <g>
    <path class="fil0" d="M206 133c32,26 73,12 73,12 -5,26 -75,34 -73,-12z"/>
    <path class="fil0" d="M167 133c-32,26 -73,12 -73,12 5,26 74,34 73,-12z"/>
   </g>
  </g>
 </g>
</svg>
