<?xml version="1.0" encoding="UTF-8"?>
<!DOCTYPE svg PUBLIC "-//W3C//DTD SVG 1.1//EN" "http://www.w3.org/Graphics/SVG/1.1/DTD/svg11.dtd">
<!-- Creator: CorelDRAW X8 -->
<svg xmlns="http://www.w3.org/2000/svg" xml:space="preserve" width="31.564mm" height="35.6728mm" version="1.1" style="shape-rendering:geometricPrecision; text-rendering:geometricPrecision; image-rendering:optimizeQuality; fill-rule:evenodd; clip-rule:evenodd"
viewBox="0 0 358 405"
 xmlns:xlink="http://www.w3.org/1999/xlink">
 <defs>
  <style type="text/css">
   <![CDATA[
    .fil4 {fill:#1B2038}
    .fil0 {fill:#2C3D51}
    .fil5 {fill:#601714}
    .fil3 {fill:#DE7A00}
    .fil1 {fill:#FEC12B}
    .fil2 {fill:white;fill-opacity:0.301961}
   ]]>
  </style>
 </defs>
 <g id="Layer_x0020_1">
  <metadata id="CorelCorpID_0Corel-Layer"/>
  <g id="_2537817534800">
   <path class="fil0" d="M0 62l0 8c0,1 1,1 1,1 0,2 1,4 2,6 1,1 2,2 3,3l0 0 0 0c3,3 8,5 12,5l0 0 0 0 0 0c10,0 19,-7 19,-18 1,-10 -7,-17 -15,-19l-1 0 0 0 0 0 0 0 0 0c-1,0 -1,0 -1,0l0 0 -1 0c-5,0 -10,2 -14,6 -1,1 -2,3 -3,5l-2 2c0,0 0,1 0,1zm38 91c-14,0 -25,12 -25,26 0,14 11,25 25,25 1,0 1,0 1,0l0 73c0,27 23,50 50,50l119 0c0,0 0,0 1,0 42,51 31,78 31,78 54,-61 46,-74 58,-80 2,-1 5,-2 7,-3l0 0 0 0c17,-8 29,-25 29,-45l0 -73c13,0 24,-11 24,-25 0,-14 -11,-25 -24,-26l0 -72c0,-27 -23,-50 -50,-50l-195 0c-27,0 -50,23 -50,50l0 72c0,0 0,0 -1,0zm-10 -123c1,6 6,10 11,11 1,1 3,1 4,1 3,0 6,-1 8,-3 6,-3 9,-8 7,-17 -1,-5 -5,-9 -9,-10 -2,-1 -4,-1 -6,-1 -3,0 -7,1 -9,3 -5,3 -7,8 -6,16zm53 -30c7,0 12,6 12,12 0,7 -5,13 -12,13 -7,0 -13,-6 -13,-13 0,-6 6,-12 13,-12zm125 9c1,0 3,2 3,3 0,2 -2,3 -3,3 -2,0 -3,-1 -3,-3 0,-1 1,-3 3,-3zm-16 -1c2,0 4,2 4,4 0,3 -2,5 -4,5 -2,0 -4,-2 -4,-5 0,-2 2,-4 4,-4zm-21 -2c3,0 6,3 6,6 0,4 -3,6 -6,6 -3,0 -6,-2 -6,-6 0,-3 3,-6 6,-6zm-23 -1c4,0 7,3 7,7 0,4 -3,8 -7,8 -4,0 -7,-4 -7,-8 0,-4 3,-7 7,-7zm-29 -2c5,0 9,4 9,9 0,6 -4,10 -9,10 -6,0 -10,-4 -10,-10 0,-5 4,-9 10,-9z"/>
   <rect class="fil1" x="58" y="50" width="257" height="258" rx="44" ry="8"/>
   <path class="fil2" d="M101 50l171 0c24,0 43,19 43,43l0 57c-35,29 -80,46 -129,46 -48,0 -93,-17 -128,-46l0 -57c0,-24 19,-43 43,-43z"/>
   <g>
    <path class="fil3" d="M284 120c-39,-11 -61,-33 -61,-33 0,0 -23,15 14,33 36,18 52,10 52,10 0,0 7,-9 -5,-10z"/>
    <path class="fil3" d="M89 120c39,-11 61,-33 61,-33 0,0 23,15 -14,33 -36,18 -52,10 -52,10 0,0 -7,-9 5,-10z"/>
   </g>
   <g>
    <path class="fil4" d="M214 137c-13,10 -9,40 30,38 6,-1 26,-4 36,-14 14,-14 0,-27 -10,-15 -14,16 -50,6 -56,-9z"/>
    <path class="fil4" d="M159 137c13,10 9,40 -30,38 -6,-1 -27,-4 -36,-14 -14,-14 0,-27 10,-15 14,16 50,6 56,-9z"/>
   </g>
   <path class="fil5" d="M186 256c24,0 44,7 44,15 0,1 -1,2 -2,3l-83 0c-2,-1 -2,-2 -2,-3 0,-8 19,-15 43,-15z"/>
  </g>
 </g>
</svg>
