<?xml version="1.0" encoding="UTF-8"?>
<!DOCTYPE svg PUBLIC "-//W3C//DTD SVG 1.1//EN" "http://www.w3.org/Graphics/SVG/1.1/DTD/svg11.dtd">
<!-- Creator: CorelDRAW X8 -->
<svg xmlns="http://www.w3.org/2000/svg" xml:space="preserve" width="29.3356mm" height="33.8834mm" version="1.1" style="shape-rendering:geometricPrecision; text-rendering:geometricPrecision; image-rendering:optimizeQuality; fill-rule:evenodd; clip-rule:evenodd"
viewBox="0 0 487 562"
 xmlns:xlink="http://www.w3.org/1999/xlink">
 <defs>
  <style type="text/css">
   <![CDATA[
    .fil4 {fill:#1B2038}
    .fil0 {fill:#2C3D51}
    .fil5 {fill:#601714}
    .fil3 {fill:#DE7A00}
    .fil1 {fill:#FFBD2D}
    .fil2 {fill:white;fill-opacity:0.301961}
   ]]>
  </style>
 </defs>
 <g id="Layer_x0020_1">
  <metadata id="CorelCorpID_0Corel-Layer"/>
  <g id="_2537701152272">
   <path class="fil0" d="M26 298c-15,-6 -26,-20 -26,-37 0,-18 13,-34 30,-38 22,-97 109,-169 213,-169 103,0 190,72 212,169 18,3 32,19 32,38 0,17 -12,32 -28,37 -4,40 -19,76 -42,107l0 0c0,0 21,6 -2,157 0,0 -13,-61 -111,-80l0 0c-19,6 -40,9 -61,9 -113,0 -205,-85 -217,-193z"/>
   <circle class="fil1" cx="243" cy="272" r="194"/>
   <path class="fil2" d="M243 78c83,0 154,53 182,127 -49,54 -112,88 -182,88 -70,0 -134,-34 -183,-88 28,-74 99,-127 183,-127z"/>
   <path class="fil0" d="M59 62c16,0 29,12 29,28 0,16 -13,29 -29,29 -16,0 -28,-13 -28,-29 0,-16 12,-28 28,-28zm272 -35c3,0 4,2 4,4 0,2 -1,4 -4,4 -2,0 -3,-2 -3,-4 0,-2 1,-4 3,-4zm-21 -10c3,0 5,2 5,6 0,3 -2,5 -5,5 -4,0 -6,-2 -6,-5 0,-4 2,-6 6,-6zm-28 -9c5,0 8,4 8,8 0,5 -3,9 -8,9 -5,0 -8,-4 -8,-9 0,-4 3,-8 8,-8zm-31 -7c6,0 12,6 12,12 0,7 -6,12 -12,12 -7,0 -13,-5 -13,-12 0,-6 6,-12 13,-12zm-41 -1c9,0 16,7 16,16 0,8 -7,15 -16,15 -9,0 -16,-7 -16,-15 0,-9 7,-16 16,-16zm-49 5c12,0 21,10 21,21 0,12 -9,21 -21,21 -11,0 -21,-9 -21,-21 0,-11 10,-21 21,-21zm-49 19c14,0 24,11 24,25 0,13 -10,24 -24,24 -13,0 -24,-11 -24,-24 0,-14 11,-25 24,-25z"/>
   <g>
    <path class="fil3" d="M385 160c-57,-15 -89,-48 -89,-48 0,0 -34,22 20,48 54,26 76,15 76,15 0,0 11,-13 -7,-15z"/>
    <path class="fil3" d="M101 160c56,-15 88,-48 88,-48 0,0 34,22 -20,48 -53,26 -76,15 -76,15 0,0 -11,-13 8,-15z"/>
   </g>
   <g>
    <path class="fil4" d="M282 203c-19,14 -12,57 44,54 10,-1 39,-5 53,-20 21,-20 0,-39 -15,-22 -20,23 -72,9 -82,-12z"/>
    <path class="fil4" d="M203 203c19,14 13,57 -44,54 -10,-1 -39,-5 -53,-20 -20,-20 0,-39 15,-22 20,23 72,9 82,-12z"/>
   </g>
   <path class="fil5" d="M243 360c35,0 63,9 63,21 0,2 -1,3 -2,5l-123 0c-1,-2 -2,-3 -2,-5 0,-12 28,-21 64,-21z"/>
  </g>
 </g>
</svg>
