<?xml version="1.0" encoding="UTF-8"?>
<!DOCTYPE svg PUBLIC "-//W3C//DTD SVG 1.1//EN" "http://www.w3.org/Graphics/SVG/1.1/DTD/svg11.dtd">
<!-- Creator: CorelDRAW X8 -->
<svg xmlns="http://www.w3.org/2000/svg" xml:space="preserve" width="31.564mm" height="35.6728mm" version="1.1" style="shape-rendering:geometricPrecision; text-rendering:geometricPrecision; image-rendering:optimizeQuality; fill-rule:evenodd; clip-rule:evenodd"
viewBox="0 0 1273 1438"
 xmlns:xlink="http://www.w3.org/1999/xlink">
 <defs>
  <style type="text/css">
   <![CDATA[
    .fil0 {fill:#2C3D51}
    .fil3 {fill:#3C0404}
    .fil1 {fill:#FEC12B}
    .fil2 {fill:url(#id0);fill-opacity:0.301961}
   ]]>
  </style>
  <linearGradient id="id0" gradientUnits="userSpaceOnUse" x1="665.277" y1="695.711" x2="659.204" y2="176.676">
   <stop offset="0" style="stop-opacity:1; stop-color:#00FFD5"/>
   <stop offset="0.0352941" style="stop-opacity:1; stop-color:#02F9A7"/>
   <stop offset="0.235294" style="stop-opacity:1; stop-color:#4DD509"/>
   <stop offset="1" style="stop-opacity:1; stop-color:#0E144D"/>
  </linearGradient>
 </defs>
 <g id="Layer_x0020_1">
  <metadata id="CorelCorpID_0Corel-Layer"/>
  <g id="_1394310937536">
   <path class="fil0" d="M0 220l0 29c1,2 2,3 3,5 2,7 5,13 9,19 2,4 5,8 10,12l0 0 0 0c11,11 26,17 42,17l0 0 1 0 0 0c34,1 66,-24 67,-64 1,-37 -25,-61 -54,-66l-2 0 0 0 0 -1 -2 0 -1 0c0,0 -1,0 -2,0l-1 0 -1 0c-18,-1 -37,5 -50,20 -5,5 -9,11 -13,18l-4 8c-1,0 -1,2 -2,3zm136 325c-50,0 -91,40 -91,90 0,50 41,91 91,91 1,0 2,0 3,0l0 257c0,97 80,177 177,177l422 0c1,1 2,2 3,3 152,181 110,275 110,275 195,-218 164,-262 207,-285 9,-3 17,-6 26,-10l0 0 0 0c60,-29 101,-90 101,-160l0 -257c49,-2 88,-42 88,-91 0,-49 -39,-89 -88,-90l0 -258c0,-97 -79,-176 -176,-176l-693 0c-97,0 -177,79 -177,176l0 258c-1,0 -2,0 -3,0zm-37 -440c4,23 20,36 38,41 5,1 11,2 17,2 10,0 20,-3 29,-8 19,-11 31,-31 24,-61 -5,-20 -18,-32 -34,-37 -6,-3 -13,-4 -19,-4 -13,0 -25,4 -34,12 -16,11 -26,30 -21,55zm188 -105c24,0 44,20 44,44 0,24 -20,44 -44,44 -25,0 -44,-20 -44,-44 0,-24 19,-44 44,-44zm444 34c6,0 10,4 10,10 0,6 -4,11 -10,11 -6,0 -11,-5 -11,-11 0,-6 5,-10 11,-10zm-56 -5c8,0 14,7 14,15 0,8 -6,15 -14,15 -9,0 -15,-7 -15,-15 0,-8 6,-15 15,-15zm-75 -6c12,0 22,9 22,21 0,12 -10,22 -22,22 -12,0 -21,-10 -21,-22 0,-12 9,-21 21,-21zm-82 -5c15,0 26,12 26,26 0,15 -11,26 -26,26 -14,0 -26,-11 -26,-26 0,-14 12,-26 26,-26zm-103 -8c19,0 34,15 34,34 0,19 -15,34 -34,34 -19,0 -34,-15 -34,-34 0,-19 15,-34 34,-34z"/>
   <rect class="fil1" x="205" y="177" width="915" height="917" rx="155" ry="29"/>
   <path class="fil2" d="M359 177l606 0c85,0 155,69 155,154l0 203c-126,101 -285,162 -458,162 -173,0 -332,-61 -457,-162l0 -203c0,-85 69,-154 154,-154z"/>
   <g>
    <ellipse class="fil0" cx="880" cy="522" rx="86" ry="105"/>
    <ellipse class="fil0" cx="444" cy="522" rx="86" ry="105"/>
   </g>
   <g>
    <path class="fil3" d="M812 296c-3,1 -6,1 -9,1 -17,0 -30,-13 -30,-29 0,-13 8,-24 19,-28 49,-45 226,45 276,107 4,3 6,7 6,12 0,8 -7,15 -15,15 -3,0 -7,-1 -9,-3 0,0 -181,-78 -238,-75z"/>
    <path class="fil3" d="M513 296c3,1 6,1 9,1 16,0 29,-13 29,-29 0,-13 -8,-24 -19,-28 -48,-45 -225,45 -276,107 -4,3 -6,7 -6,12 0,8 7,15 15,15 4,0 7,-1 10,-3 0,0 180,-78 238,-75z"/>
   </g>
   <path class="fil3" d="M662 812c125,0 226,87 226,195 0,74 -97,-20 -222,-20 -125,0 -230,90 -230,20 0,-108 101,-195 226,-195z"/>
  </g>
 </g>
</svg>
