<?xml version="1.0" encoding="UTF-8"?>
<!DOCTYPE svg PUBLIC "-//W3C//DTD SVG 1.1//EN" "http://www.w3.org/Graphics/SVG/1.1/DTD/svg11.dtd">
<!-- Creator: CorelDRAW X8 -->
<svg xmlns="http://www.w3.org/2000/svg" xml:space="preserve" width="29.3356mm" height="33.8834mm" version="1.1" style="shape-rendering:geometricPrecision; text-rendering:geometricPrecision; image-rendering:optimizeQuality; fill-rule:evenodd; clip-rule:evenodd"
viewBox="0 0 3749 4330"
 xmlns:xlink="http://www.w3.org/1999/xlink">
 <defs>
  <style type="text/css">
   <![CDATA[
    .fil0 {fill:#2C3D51}
    .fil3 {fill:#3C0404}
    .fil1 {fill:#FFBD2D}
    .fil2 {fill:url(#id0);fill-opacity:0.321569}
   ]]>
  </style>
  <linearGradient id="id0" gradientUnits="userSpaceOnUse" x1="1868.24" y1="2253.19" x2="1868.24" y2="602.304">
   <stop offset="0" style="stop-opacity:1; stop-color:#00FFEE"/>
   <stop offset="0.0156863" style="stop-opacity:1; stop-color:#00FDDB"/>
   <stop offset="0.270588" style="stop-opacity:1; stop-color:#1FD803"/>
   <stop offset="1" style="stop-opacity:1; stop-color:#040D45"/>
  </linearGradient>
 </defs>
 <g id="Layer_x0020_1">
  <metadata id="CorelCorpID_0Corel-Layer"/>
  <g id="_1394312283408">
   <path class="fil0" d="M197 2292c-115,-42 -197,-153 -197,-282 0,-142 98,-260 229,-292 173,-746 841,-1302 1639,-1302 797,0 1465,555 1639,1299 138,27 242,149 242,295 0,134 -88,248 -210,286 -36,306 -154,587 -331,820l0 0c0,0 165,48 -13,1214 0,0 -96,-471 -853,-617l-1 0c-150,44 -308,68 -473,68 -864,0 -1575,-651 -1671,-1489z"/>
   <circle class="fil1" cx="1868" cy="2099" r="1496"/>
   <path class="fil2" d="M1868 602c643,0 1191,406 1403,975 -372,420 -863,676 -1403,676 -539,0 -1031,-256 -1402,-676 211,-569 759,-975 1402,-975z"/>
   <path class="fil0" d="M456 476c120,0 218,98 218,218 0,121 -98,219 -218,219 -121,0 -219,-98 -219,-219 0,-120 98,-218 219,-218zm2097 -269c16,0 30,13 30,30 0,16 -14,30 -30,30 -16,0 -30,-14 -30,-30 0,-17 14,-30 30,-30zm-169 -78c24,0 44,20 44,44 0,24 -20,44 -44,44 -24,0 -44,-20 -44,-44 0,-24 20,-44 44,-44zm-211 -69c35,0 64,29 64,65 0,35 -29,64 -64,64 -36,0 -65,-29 -65,-64 0,-36 29,-65 65,-65zm-243 -52c51,0 93,42 93,93 0,52 -42,93 -93,93 -52,0 -93,-41 -93,-93 0,-51 41,-93 93,-93zm-313 -8c66,0 120,54 120,120 0,67 -54,121 -120,121 -67,0 -121,-54 -121,-121 0,-66 54,-120 121,-120zm-374 40c88,0 160,72 160,161 0,88 -72,160 -160,160 -89,0 -161,-72 -161,-160 0,-89 72,-161 161,-161zm-379 148c103,0 186,83 186,186 0,103 -83,186 -186,186 -102,0 -186,-83 -186,-186 0,-103 84,-186 186,-186z"/>
   <g>
    <g>
     <ellipse class="fil0" cx="2559" cy="1676" rx="272" ry="332"/>
     <ellipse class="fil0" cx="1177" cy="1676" rx="272" ry="332"/>
    </g>
    <g>
     <path class="fil3" d="M2342 1204c-9,2 -18,4 -28,4 -52,0 -94,-42 -94,-94 0,-40 25,-74 61,-88 153,-142 715,144 875,339 11,9 18,22 18,38 0,26 -21,48 -48,48 -11,0 -21,-4 -30,-11 0,0 -572,-245 -754,-236z"/>
     <path class="fil3" d="M1395 1204c8,2 18,4 28,4 52,0 94,-42 94,-94 0,-40 -26,-74 -62,-88 -152,-142 -714,144 -874,339 -11,9 -19,22 -19,38 0,26 22,48 48,48 12,0 22,-4 30,-11 0,0 573,-245 755,-236z"/>
    </g>
   </g>
   <path class="fil3" d="M1868 2637c396,0 716,277 716,620 0,234 -308,-65 -704,-65 -395,0 -728,285 -728,65 0,-343 321,-620 716,-620z"/>
  </g>
 </g>
</svg>
