<?xml version="1.0" encoding="UTF-8"?>
<!DOCTYPE svg PUBLIC "-//W3C//DTD SVG 1.1//EN" "http://www.w3.org/Graphics/SVG/1.1/DTD/svg11.dtd">
<!-- Creator: CorelDRAW X8 -->
<svg xmlns="http://www.w3.org/2000/svg" xml:space="preserve" width="31.564mm" height="35.6728mm" version="1.1" style="shape-rendering:geometricPrecision; text-rendering:geometricPrecision; image-rendering:optimizeQuality; fill-rule:evenodd; clip-rule:evenodd"
viewBox="0 0 357 403"
 xmlns:xlink="http://www.w3.org/1999/xlink">
 <defs>
  <style type="text/css">
   <![CDATA[
    .fil8 {fill:black}
    .fil10 {fill:#2A1304}
    .fil0 {fill:#2C3D51}
    .fil3 {fill:#4D4D4D}
    .fil5 {fill:#666666}
    .fil9 {fill:#6F4104}
    .fil4 {fill:gray}
    .fil7 {fill:#E99718}
    .fil11 {fill:#FC8891}
    .fil1 {fill:#FEC12B}
    .fil12 {fill:#FFD94C}
    .fil6 {fill:white}
    .fil2 {fill:white;fill-opacity:0.301961}
   ]]>
  </style>
     <mask id="id0">
  <radialGradient id="id1" gradientUnits="userSpaceOnUse" cx="254.048" cy="149.14" r="18.554" fx="254.048" fy="149.14">
   <stop offset="0" style="stop-opacity:1; stop-color:white"/>
   <stop offset="0.258824" style="stop-opacity:-127.502; stop-color:white"/>
   <stop offset="1" style="stop-opacity:0; stop-color:white"/>
  </radialGradient>
      <rect style="fill:url(#id1)" x="234" y="129" width="16.0148" height="16.0136"/>
     </mask>
     <mask id="id2">
  <radialGradient id="id3" gradientUnits="userSpaceOnUse" cx="140.812" cy="149.14" r="18.554" fx="140.812" fy="149.14">
   <stop offset="0" style="stop-opacity:1; stop-color:white"/>
   <stop offset="0.258824" style="stop-opacity:-127.502; stop-color:white"/>
   <stop offset="1" style="stop-opacity:0; stop-color:white"/>
  </radialGradient>
      <rect style="fill:url(#id3)" x="121" y="129" width="16.0136" height="16.0136"/>
     </mask>
     <mask id="id4">
  <linearGradient id="id5" gradientUnits="userSpaceOnUse" x1="185.816" y1="238.287" x2="186.915" y2="199.941">
   <stop offset="0" style="stop-opacity:0; stop-color:white"/>
   <stop offset="0.639216" style="stop-opacity:-127.502; stop-color:white"/>
   <stop offset="1" style="stop-opacity:1; stop-color:white"/>
  </linearGradient>
      <rect style="fill:url(#id5)" x="162" y="215" width="48.9616" height="19.9328"/>
     </mask>
     <mask id="id6">
  <radialGradient id="id7" gradientUnits="userSpaceOnUse" cx="204.056" cy="219.309" r="30.2255" fx="204.056" fy="219.309">
   <stop offset="0" style="stop-opacity:1; stop-color:white"/>
   <stop offset="0.129412" style="stop-opacity:-127.502; stop-color:white"/>
   <stop offset="1" style="stop-opacity:0; stop-color:white"/>
  </radialGradient>
      <rect style="fill:url(#id7)" x="173" y="205" width="27.0868" height="12.8308"/>
     </mask>
 </defs>
 <g id="Layer_x0020_1">
  <metadata id="CorelCorpID_0Corel-Layer"/>
  <g id="_2537603795488">
   <path class="fil0" d="M0 62l0 8c0,0 1,1 1,1 0,2 1,4 2,6 1,1 2,2 3,3l0 0 0 0c3,3 7,5 12,5l0 0 0 0 0 0c10,0 19,-7 19,-18 0,-11 -7,-17 -15,-19l-1 0 0 0 0 0 0 0 0 0c-1,0 -1,0 -1,0l0 0 -1 0c-5,0 -10,1 -14,6 -1,1 -2,3 -3,5l-2 2c0,0 0,0 0,1zm38 91c-14,0 -25,11 -25,25 0,14 11,26 25,26 0,0 1,0 1,0l0 72c0,27 22,49 50,49l118 0c0,1 1,1 1,1 43,51 31,77 31,77 54,-61 46,-73 58,-80 2,0 5,-1 7,-2l0 0 0 0c17,-8 28,-26 28,-45l0 -72c14,-1 25,-12 25,-26 0,-14 -11,-25 -25,-25l0 -72c0,-28 -22,-50 -49,-50l-194 0c-28,0 -50,22 -50,50l0 72c0,0 -1,0 -1,0zm-10 -123c1,6 5,10 11,11 1,0 2,1 4,1 3,0 6,-1 8,-3 6,-3 9,-8 7,-17 -1,-5 -5,-9 -9,-10 -2,-1 -4,-1 -6,-1 -4,0 -7,1 -9,3 -5,3 -8,8 -6,16zm52 -30c7,0 13,6 13,12 0,7 -6,13 -13,13 -6,0 -12,-6 -12,-13 0,-6 6,-12 12,-12zm125 9c2,0 3,2 3,3 0,2 -1,3 -3,3 -2,0 -3,-1 -3,-3 0,-1 1,-3 3,-3zm-16 -1c3,0 4,2 4,4 0,3 -1,5 -4,5 -2,0 -4,-2 -4,-5 0,-2 2,-4 4,-4zm-21 -2c4,0 6,3 6,6 0,4 -2,6 -6,6 -3,0 -6,-2 -6,-6 0,-3 3,-6 6,-6zm-23 -1c4,0 8,3 8,7 0,4 -4,8 -8,8 -4,0 -7,-4 -7,-8 0,-4 3,-7 7,-7zm-29 -2c6,0 10,4 10,9 0,6 -4,10 -10,10 -5,0 -9,-4 -9,-10 0,-5 4,-9 9,-9z"/>
   <rect class="fil1" x="57" y="50" width="257" height="257" rx="43" ry="8"/>
   <path class="fil2" d="M101 50l170 0c24,0 43,19 43,43l0 57c-35,28 -80,45 -128,45 -49,0 -93,-17 -129,-45l0 -57c0,-24 20,-43 44,-43z"/>
   <path class="fil3" d="M273 83l-33 -22 0 -2c0,-3 0,-6 -2,-9 -3,-10 -13,-17 -21,-22l0 0c0,0 54,15 56,55z"/>
   <path class="fil4" d="M99 81c10,-11 20,-25 34,-31 10,0 22,0 39,0 0,0 3,0 7,0 1,0 3,0 4,0 10,0 24,1 25,6 0,0 12,17 -8,25 -20,9 -40,-3 -40,-3 0,0 14,23 39,21 24,-3 31,-12 31,-12 0,0 14,-21 8,-37 -5,-16 -31,-27 -31,-27 -41,-18 -121,31 -108,58z"/>
   <path class="fil5" d="M172 50c2,0 5,0 7,0 6,0 6,3 6,8 -1,12 -5,16 -5,16 0,0 13,7 22,-4 8,-10 7,-14 6,-14l0 0 0 0c-7,-14 -24,-16 -36,-6z"/>
   <g>
    <path class="fil6" d="M247 118c16,0 34,14 34,31 0,16 -18,28 -34,28 -16,0 -35,-8 -35,-25 0,-16 19,-34 35,-34z"/>
    <circle class="fil7" cx="247" cy="147" r="22"/>
    <circle class="fil8" cx="247" cy="147" r="11"/>
    <path class="fil6" style="mask:url(#id0)" d="M242 131c4,0 7,3 7,6 0,4 -3,7 -7,7 -3,0 -7,-3 -7,-7 0,-3 4,-6 7,-6z"/>
    <path class="fil6" d="M124 118c-16,0 -33,14 -33,31 0,16 17,28 33,28 17,0 35,-8 35,-25 0,-16 -18,-34 -35,-34z"/>
    <circle class="fil7" cx="125" cy="147" r="22"/>
    <circle class="fil8" cx="125" cy="147" r="11"/>
    <path class="fil6" style="mask:url(#id2)" d="M129 131c-4,0 -7,3 -7,6 0,4 3,7 7,7 4,0 7,-3 7,-7 0,-3 -3,-6 -7,-6z"/>
    <path class="fil9" d="M266 101c0,1 0,2 0,2 0,2 -1,3 -2,3 -1,0 -2,0 -2,-1 -13,-8 -19,-6 -30,1 0,0 -1,0 -2,0 -2,0 -3,-1 -3,-3 0,-7 24,-19 39,-2z"/>
    <path class="fil9" d="M106 101c-1,1 -1,2 -1,2 0,2 1,3 3,3 0,0 1,0 2,-1 13,-8 18,-6 29,1 1,0 1,0 2,0 2,0 4,-1 4,-3 0,-7 -25,-19 -39,-2z"/>
   </g>
   <g>
    <path class="fil10" d="M235 248c-4,23 -24,40 -49,40 -25,0 -46,-17 -49,-40 16,0 32,4 48,4 17,0 33,-4 50,-4z"/>
    <ellipse class="fil11" cx="186" cy="274" rx="27" ry="9"/>
    <ellipse class="fil12" cx="186" cy="219" rx="23" ry="15"/>
    <path class="fil9" style="mask:url(#id4)" d="M209 216c0,1 1,2 1,3 0,8 -11,15 -24,15 -13,0 -23,-7 -23,-15 0,-1 0,-2 0,-3 3,6 12,11 23,11 11,0 20,-5 23,-11z"/>
    <path class="fil6" style="mask:url(#id6)" d="M186 206c7,0 13,3 13,6 0,3 -6,5 -13,5 -7,0 -12,-2 -12,-5 0,-3 5,-6 12,-6z"/>
   </g>
  </g>
 </g>
</svg>
