<?xml version="1.0" encoding="UTF-8"?>
<!DOCTYPE svg PUBLIC "-//W3C//DTD SVG 1.1//EN" "http://www.w3.org/Graphics/SVG/1.1/DTD/svg11.dtd">
<!-- Creator: CorelDRAW X8 -->
<svg xmlns="http://www.w3.org/2000/svg" xml:space="preserve" width="29.3356mm" height="33.8834mm" version="1.1" style="shape-rendering:geometricPrecision; text-rendering:geometricPrecision; image-rendering:optimizeQuality; fill-rule:evenodd; clip-rule:evenodd"
viewBox="0 0 392 453"
 xmlns:xlink="http://www.w3.org/1999/xlink">
 <defs>
  <style type="text/css">
   <![CDATA[
    .fil0 {fill:#2C3D51}
    .fil5 {fill:#333333}
    .fil3 {fill:#3C0404}
    .fil4 {fill:#872C0C}
    .fil1 {fill:#FFBD2D}
    .fil2 {fill:white;fill-opacity:0.301961}
   ]]>
  </style>
 </defs>
 <g id="Layer_x0020_1">
  <metadata id="CorelCorpID_0Corel-Layer"/>
  <g id="_1262250460880">
   <path class="fil0" d="M21 240c-12,-5 -21,-16 -21,-30 0,-15 10,-27 24,-30 18,-78 88,-136 171,-136 84,0 153,57 172,135 14,3 25,16 25,31 0,14 -9,26 -22,30 -4,32 -16,61 -35,86l0 0c0,0 18,5 -1,127 0,0 -10,-50 -89,-65l0 0c-16,5 -33,7 -50,7 -90,0 -164,-68 -174,-155z"/>
   <circle class="fil1" cx="195" cy="219" r="156"/>
   <path class="fil2" d="M195 63c68,0 125,42 147,102 -39,44 -90,71 -147,71 -56,0 -107,-27 -146,-71 22,-60 79,-102 146,-102z"/>
   <path class="fil0" d="M48 50c12,0 23,10 23,23 0,12 -11,22 -23,22 -13,0 -23,-10 -23,-22 0,-13 10,-23 23,-23zm219 -28c2,0 3,1 3,3 0,1 -1,3 -3,3 -2,0 -3,-2 -3,-3 0,-2 1,-3 3,-3zm-18 -8c3,0 5,2 5,4 0,3 -2,5 -5,5 -2,0 -4,-2 -4,-5 0,-2 2,-4 4,-4zm-22 -8c4,0 7,3 7,7 0,4 -3,7 -7,7 -4,0 -7,-3 -7,-7 0,-4 3,-7 7,-7zm-25 -5c5,0 9,4 9,10 0,5 -4,9 -9,9 -6,0 -10,-4 -10,-9 0,-6 4,-10 10,-10zm-33 -1c7,0 13,6 13,13 0,7 -6,12 -13,12 -7,0 -13,-5 -13,-12 0,-7 6,-13 13,-13zm-39 4c9,0 17,8 17,17 0,9 -8,17 -17,17 -9,0 -17,-8 -17,-17 0,-9 8,-17 17,-17zm-40 16c11,0 20,8 20,19 0,11 -9,20 -20,20 -10,0 -19,-9 -19,-20 0,-11 9,-19 19,-19z"/>
   <g>
    <g>
     <path class="fil3" d="M142 156c-17,-15 -41,-14 -41,-14 30,-30 106,25 69,27 -17,1 -46,5 -64,19 -18,15 -19,16 -19,16 -5,5 -19,3 -11,-9 3,-4 9,-8 9,-8 20,-20 30,-21 56,-27 0,0 4,-1 1,-4z"/>
     <path class="fil3" d="M249 156c17,-15 41,-14 41,-14 -31,-30 -106,25 -70,27 17,1 47,5 65,19 18,15 18,16 18,16 6,5 19,3 11,-9 -3,-4 -8,-8 -8,-8 -21,-20 -31,-21 -56,-27 0,0 -4,-1 -1,-4z"/>
    </g>
    <g>
     <path class="fil4" d="M317 132c-24,9 -62,-6 -71,-29 0,0 -4,-8 1,-10 5,-2 9,1 9,1 0,0 12,26 61,38z"/>
     <path class="fil4" d="M74 132c23,9 62,-6 71,-29 0,0 4,-8 -1,-10 -6,-2 -10,1 -10,1 0,0 -11,26 -60,38z"/>
    </g>
   </g>
   <path class="fil5" d="M195 282c25,0 46,14 49,33l-14 0c-9,-8 -21,-12 -35,-12 -13,0 -26,4 -35,12l-14 0c3,-19 24,-33 49,-33z"/>
  </g>
 </g>
</svg>
