<?xml version="1.0" encoding="UTF-8"?>
<!DOCTYPE svg PUBLIC "-//W3C//DTD SVG 1.1//EN" "http://www.w3.org/Graphics/SVG/1.1/DTD/svg11.dtd">
<!-- Creator: CorelDRAW X8 -->
<svg xmlns="http://www.w3.org/2000/svg" xml:space="preserve" width="31.564mm" height="35.6728mm" version="1.1" style="shape-rendering:geometricPrecision; text-rendering:geometricPrecision; image-rendering:optimizeQuality; fill-rule:evenodd; clip-rule:evenodd"
viewBox="0 0 842 952"
 xmlns:xlink="http://www.w3.org/1999/xlink">
 <defs>
  <style type="text/css">
   <![CDATA[
    .fil0 {fill:#2C3D51}
    .fil5 {fill:#333333}
    .fil3 {fill:#3C0404}
    .fil4 {fill:#872C0C}
    .fil1 {fill:#FEC12B}
    .fil2 {fill:white;fill-opacity:0.301961}
   ]]>
  </style>
 </defs>
 <g id="Layer_x0020_1">
  <metadata id="CorelCorpID_0Corel-Layer"/>
  <g id="_1262243252880">
   <path class="fil0" d="M0 145l0 20c1,1 1,2 2,3 1,5 3,9 6,13 1,2 3,5 7,8l0 0 0 0c7,7 17,11 27,11l1 0 0 0 0 0c22,1 44,-16 45,-42 0,-25 -17,-41 -36,-44l-2 -1 0 0 0 0 -1 0 -1 0c0,0 0,0 -1,0l0 0 -1 0c-12,-1 -25,4 -33,13 -4,4 -7,8 -9,12l-3 6c0,-1 -1,1 -1,1zm90 215c-33,0 -60,27 -60,60 0,33 27,60 60,60 1,0 1,0 2,0l0 170c0,65 53,117 117,117l279 0c1,1 1,1 2,2 101,120 73,183 73,183 129,-145 108,-174 137,-189 6,-2 11,-4 17,-7l0 0 0 0c40,-19 67,-59 67,-106l0 -170c32,-1 58,-28 58,-60 0,-32 -26,-59 -58,-60l0 -170c0,-64 -52,-117 -117,-117l-458 0c-64,0 -117,53 -117,117l0 170c-1,0 -1,0 -2,0zm-24 -290c2,15 13,23 25,26 3,2 7,2 11,2 7,0 13,-2 19,-6 12,-6 21,-20 16,-39 -3,-14 -12,-22 -22,-26 -4,-1 -9,-2 -13,-2 -9,0 -17,3 -23,8 -10,7 -17,20 -13,37zm124 -70c16,0 29,13 29,29 0,16 -13,29 -29,29 -16,0 -29,-13 -29,-29 0,-16 13,-29 29,-29zm293 22c4,0 7,3 7,7 0,4 -3,7 -7,7 -3,0 -7,-3 -7,-7 0,-4 4,-7 7,-7zm-37 -3c6,0 10,5 10,10 0,6 -4,10 -10,10 -5,0 -10,-4 -10,-10 0,-5 5,-10 10,-10zm-49 -4c8,0 14,6 14,14 0,8 -6,14 -14,14 -8,0 -14,-6 -14,-14 0,-8 6,-14 14,-14zm-54 -3c9,0 17,8 17,17 0,10 -8,17 -17,17 -10,0 -18,-7 -18,-17 0,-9 8,-17 18,-17zm-69 -5c13,0 23,10 23,22 0,13 -10,23 -23,23 -12,0 -22,-10 -22,-23 0,-12 10,-22 22,-22z"/>
   <rect class="fil1" x="136" y="117" width="605" height="607" rx="102" ry="19"/>
   <path class="fil2" d="M238 117l400 0c57,0 103,46 103,102l0 135c-83,66 -188,106 -303,106 -114,0 -220,-40 -302,-106l0 -135c0,-56 46,-102 102,-102z"/>
   <g>
    <g>
     <path class="fil3" d="M331 335c-34,-31 -82,-28 -82,-28 61,-59 212,50 139,54 -34,2 -93,11 -129,39 -35,28 -36,30 -36,30 -11,11 -39,6 -23,-16 7,-9 17,-18 17,-18 41,-38 61,-40 113,-52 0,0 7,-3 1,-9z"/>
     <path class="fil3" d="M545 335c34,-31 82,-28 82,-28 -61,-59 -212,50 -139,54 34,2 93,11 129,39 36,28 36,30 36,30 11,11 39,6 23,-16 -7,-9 -17,-18 -17,-18 -41,-38 -61,-40 -112,-52 0,0 -8,-3 -2,-9z"/>
    </g>
    <g>
     <path class="fil4" d="M680 287c-46,18 -123,-12 -142,-57 0,0 -8,-16 3,-20 11,-5 19,2 19,2 0,0 23,51 120,75z"/>
     <path class="fil4" d="M196 287c46,18 123,-12 142,-57 0,0 8,-16 -3,-20 -11,-5 -19,2 -19,2 0,0 -23,51 -120,75z"/>
    </g>
   </g>
   <path class="fil5" d="M438 586c50,0 92,30 98,67l-28 0c-18,-15 -42,-25 -70,-25 -27,0 -52,10 -70,25l-28 0c7,-37 48,-67 98,-67z"/>
  </g>
 </g>
</svg>
