<?xml version="1.0" encoding="UTF-8"?>
<!DOCTYPE svg PUBLIC "-//W3C//DTD SVG 1.1//EN" "http://www.w3.org/Graphics/SVG/1.1/DTD/svg11.dtd">
<!-- Creator: CorelDRAW X8 -->
<svg xmlns="http://www.w3.org/2000/svg" xml:space="preserve" width="29.3356mm" height="33.8834mm" version="1.1" style="shape-rendering:geometricPrecision; text-rendering:geometricPrecision; image-rendering:optimizeQuality; fill-rule:evenodd; clip-rule:evenodd"
viewBox="0 0 4042 4668"
 xmlns:xlink="http://www.w3.org/1999/xlink">
 <defs>
  <style type="text/css">
   <![CDATA[
    .fil3 {fill:#1E203C}
    .fil0 {fill:#2C3D51}
    .fil6 {fill:#771E18}
    .fil5 {fill:#DF8E29}
    .fil1 {fill:#FFBD2D}
    .fil4 {fill:white}
    .fil2 {fill:white;fill-opacity:0.301961}
   ]]>
  </style>
      <mask id="id0">
  <radialGradient id="id1" gradientUnits="userSpaceOnUse" cx="1397.23" cy="1798.26" r="140.336" fx="1397.23" fy="1798.26">
   <stop offset="0" style="stop-opacity:0.45098; stop-color:white"/>
   <stop offset="1" style="stop-opacity:0; stop-color:white"/>
  </radialGradient>
       <rect style="fill:url(#id1)" x="1243" y="1644" width="191" height="191"/>
      </mask>
      <mask id="id2">
  <radialGradient id="id3" gradientUnits="userSpaceOnUse" cx="2784.13" cy="1798.26" r="140.336" fx="2784.13" fy="1798.26">
   <stop offset="0" style="stop-opacity:0.45098; stop-color:white"/>
   <stop offset="1" style="stop-opacity:0; stop-color:white"/>
  </radialGradient>
       <rect style="fill:url(#id3)" x="2630" y="1644" width="191" height="191"/>
      </mask>
 </defs>
 <g id="Layer_x0020_1">
  <metadata id="CorelCorpID_0Corel-Layer"/>
  <g id="_2537603754720">
   <path class="fil0" d="M212 2471c-124,-46 -212,-165 -212,-304 0,-153 105,-280 247,-315 186,-804 906,-1403 1767,-1403 859,0 1579,598 1766,1400 149,29 262,160 262,318 0,144 -96,267 -227,308 -38,330 -166,633 -357,884l0 0c0,0 178,52 -13,1309 0,0 -104,-508 -921,-665l0 0c-162,47 -333,73 -510,73 -931,0 -1698,-702 -1802,-1605z"/>
   <circle class="fil1" cx="2014" cy="2262" r="1613"/>
   <path class="fil2" d="M2014 649c693,0 1284,437 1512,1051 -400,453 -931,729 -1512,729 -581,0 -1112,-276 -1512,-729 228,-614 819,-1051 1512,-1051z"/>
   <path class="fil0" d="M491 513c130,0 236,105 236,236 0,130 -106,236 -236,236 -130,0 -236,-106 -236,-236 0,-131 106,-236 236,-236zm2261 -290c18,0 32,14 32,32 0,18 -14,32 -32,32 -18,0 -32,-14 -32,-32 0,-18 14,-32 32,-32zm-182 -83c26,0 47,21 47,47 0,26 -21,47 -47,47 -26,0 -47,-21 -47,-47 0,-26 21,-47 47,-47zm-228 -75c39,0 70,31 70,69 0,39 -31,70 -70,70 -38,0 -70,-31 -70,-70 0,-38 32,-69 70,-69zm-262 -56c55,0 100,45 100,100 0,56 -45,101 -100,101 -55,0 -100,-45 -100,-101 0,-55 45,-100 100,-100zm-337 -9c72,0 130,58 130,130 0,72 -58,130 -130,130 -72,0 -130,-58 -130,-130 0,-72 58,-130 130,-130zm-403 43c95,0 173,78 173,173 0,96 -78,174 -173,174 -96,0 -173,-78 -173,-174 0,-95 77,-173 173,-173zm-408 160c111,0 200,90 200,200 0,111 -89,201 -200,201 -111,0 -201,-90 -201,-201 0,-110 90,-200 201,-200z"/>
   <g>
    <g>
     <path class="fil3" d="M1636 1822c0,130 -106,236 -237,236 -130,0 -236,-106 -236,-236 0,-25 4,-48 11,-70l0 0c-31,-81 -168,2 -266,34 -207,8 154,-267 472,-251 168,8 256,117 256,287z"/>
     <path class="fil4" style="mask:url(#id0)" d="M1339 1658c45,0 82,37 82,82 0,45 -37,82 -82,82 -45,0 -82,-37 -82,-82 0,-45 37,-82 82,-82z"/>
    </g>
    <g>
     <path class="fil3" d="M3022 1822c0,130 -105,236 -236,236 -130,0 -236,-106 -236,-236 0,-25 4,-48 11,-70l0 0c-31,-81 -168,2 -266,34 -207,8 154,-267 472,-251 168,8 255,117 255,287z"/>
     <path class="fil4" style="mask:url(#id2)" d="M2726 1658c45,0 82,37 82,82 0,45 -37,82 -82,82 -46,0 -82,-37 -82,-82 0,-45 36,-82 82,-82z"/>
    </g>
    <path class="fil5" d="M907 1222c210,-109 586,-155 706,-29 56,60 42,141 -38,163 -47,13 -106,-8 -184,-30 -88,-25 -318,7 -449,29 -178,28 -190,-52 -35,-133z"/>
    <path class="fil5" d="M3023 1222c-209,-109 -585,-155 -705,-29 -57,60 -42,141 38,163 47,13 106,-8 184,-30 88,-25 318,7 449,29 178,28 190,-52 34,-133z"/>
   </g>
   <path class="fil6" d="M2014 3039c453,0 820,111 820,248 0,37 -26,71 -72,102l-1496 0c-46,-31 -72,-65 -72,-102 0,-137 367,-248 820,-248z"/>
  </g>
 </g>
</svg>
