<?xml version="1.0" encoding="UTF-8"?>
<!DOCTYPE svg PUBLIC "-//W3C//DTD SVG 1.1//EN" "http://www.w3.org/Graphics/SVG/1.1/DTD/svg11.dtd">
<!-- Creator: CorelDRAW X8 -->
<svg xmlns="http://www.w3.org/2000/svg" xml:space="preserve" width="31.564mm" height="35.6728mm" version="1.1" style="shape-rendering:geometricPrecision; text-rendering:geometricPrecision; image-rendering:optimizeQuality; fill-rule:evenodd; clip-rule:evenodd"
viewBox="0 0 1246 1409"
 xmlns:xlink="http://www.w3.org/1999/xlink">
 <defs>
  <style type="text/css">
   <![CDATA[
    .fil3 {fill:#1E203C}
    .fil0 {fill:#2C3D51}
    .fil6 {fill:#771E18}
    .fil5 {fill:#DF8E29}
    .fil1 {fill:#FEC12B}
    .fil4 {fill:white}
    .fil2 {fill:white;fill-opacity:0.301961}
   ]]>
  </style>
      <mask id="id0">
  <radialGradient id="id1" gradientUnits="userSpaceOnUse" cx="472.96" cy="488.806" r="40.2211" fx="472.96" fy="488.806">
   <stop offset="0" style="stop-opacity:0.45098; stop-color:white"/>
   <stop offset="1" style="stop-opacity:0; stop-color:white"/>
  </radialGradient>
       <rect style="fill:url(#id1)" x="429" y="445" width="57.769" height="57.769"/>
      </mask>
      <mask id="id2">
  <radialGradient id="id3" gradientUnits="userSpaceOnUse" cx="895.282" cy="488.806" r="40.2211" fx="895.282" fy="488.806">
   <stop offset="0" style="stop-opacity:0.45098; stop-color:white"/>
   <stop offset="1" style="stop-opacity:0; stop-color:white"/>
  </radialGradient>
       <rect style="fill:url(#id3)" x="851" y="445" width="57.773" height="57.769"/>
      </mask>
 </defs>
 <g id="Layer_x0020_1">
  <metadata id="CorelCorpID_0Corel-Layer"/>
  <g id="_2537817369696">
   <path class="fil0" d="M0 215l0 29c1,2 2,3 3,5 2,6 4,13 8,19 2,3 5,7 11,11l0 0 0 1c11,9 25,16 41,16l0 0 0 0 1 0c33,1 65,-24 66,-63 1,-36 -25,-60 -54,-65l-1 0 0 0 -1 0 -2 0 0 0c-1,0 -2,-1 -2,-1l-1 0 -1 0c-18,0 -36,6 -49,20 -5,5 -10,11 -13,18l-4 8c-1,-1 -1,1 -2,2zm133 318c-49,0 -88,40 -88,89 0,49 39,89 88,89 1,0 2,-1 3,-1l0 253c0,95 78,173 173,173l414 0c1,1 2,2 2,3 150,177 108,270 108,270 191,-214 161,-257 203,-280 8,-3 17,-6 25,-10l0 0 0 0c59,-28 100,-88 100,-156l0 -253c47,-1 85,-40 85,-88 0,-48 -38,-87 -85,-89l0 -252c0,-95 -78,-173 -173,-173l-679 0c-95,0 -173,78 -173,173l0 252c-1,0 -2,0 -3,0zm-36 -430c4,23 20,35 37,40 5,1 11,2 16,2 11,0 21,-3 29,-8 18,-10 31,-30 24,-59 -5,-20 -18,-32 -33,-37 -6,-3 -13,-4 -20,-4 -12,0 -24,4 -33,12 -15,10 -25,29 -20,54zm184 -103c24,0 43,19 43,43 0,24 -19,43 -43,43 -24,0 -43,-19 -43,-43 0,-24 19,-43 43,-43zm435 33c5,0 10,4 10,10 0,6 -5,10 -10,10 -6,0 -11,-4 -11,-10 0,-6 5,-10 11,-10zm-55 -4c8,0 14,6 14,14 0,8 -6,15 -14,15 -8,0 -15,-7 -15,-15 0,-8 7,-14 15,-14zm-73 -7c11,0 21,10 21,21 0,12 -10,21 -21,21 -12,0 -21,-9 -21,-21 0,-11 9,-21 21,-21zm-81 -5c15,0 26,12 26,26 0,14 -11,26 -26,26 -14,0 -25,-12 -25,-26 0,-14 11,-26 25,-26zm-101 -7c19,0 34,15 34,33 0,19 -15,34 -34,34 -18,0 -33,-15 -33,-34 0,-18 15,-33 33,-33z"/>
   <rect class="fil1" x="201" y="173" width="896" height="898" rx="151" ry="28"/>
   <path class="fil2" d="M352 173l593 0c83,0 151,68 151,151l0 199c-122,99 -278,158 -448,158 -169,0 -325,-59 -447,-158l0 -199c0,-83 68,-151 151,-151z"/>
   <g>
    <g>
     <path class="fil3" d="M548 498c0,40 -32,72 -72,72 -40,0 -72,-32 -72,-72 0,-7 1,-14 3,-21l0 0c-9,-24 -51,1 -80,10 -64,3 46,-81 143,-76 51,3 78,36 78,87z"/>
     <path class="fil4" style="mask:url(#id0)" d="M458 449c13,0 25,11 25,25 0,13 -12,24 -25,24 -14,0 -25,-11 -25,-24 0,-14 11,-25 25,-25z"/>
    </g>
    <g>
     <path class="fil3" d="M970 498c0,40 -32,72 -72,72 -39,0 -71,-32 -71,-72 0,-7 1,-14 3,-21l0 0c-10,-24 -51,1 -81,10 -63,3 47,-81 144,-76 51,3 77,36 77,87z"/>
     <path class="fil4" style="mask:url(#id2)" d="M880 449c14,0 25,11 25,25 0,13 -11,24 -25,24 -14,0 -25,-11 -25,-24 0,-14 11,-25 25,-25z"/>
    </g>
    <path class="fil5" d="M326 316c64,-33 179,-47 215,-9 17,18 13,43 -11,50 -15,4 -33,-3 -56,-9 -27,-8 -97,2 -137,8 -54,9 -58,-16 -11,-40z"/>
    <path class="fil5" d="M971 316c-64,-33 -179,-47 -215,-9 -17,18 -13,43 11,50 15,4 33,-3 56,-9 27,-8 97,2 137,8 54,9 58,-16 11,-40z"/>
   </g>
   <path class="fil6" d="M648 827c130,0 236,32 236,71 0,11 -8,21 -21,30l-429 0c-13,-9 -21,-19 -21,-30 0,-39 106,-71 235,-71z"/>
  </g>
 </g>
</svg>
