<?xml version="1.0" encoding="UTF-8"?>
<!DOCTYPE svg PUBLIC "-//W3C//DTD SVG 1.1//EN" "http://www.w3.org/Graphics/SVG/1.1/DTD/svg11.dtd">
<!-- Creator: CorelDRAW X8 -->
<svg xmlns="http://www.w3.org/2000/svg" xml:space="preserve" width="29.3356mm" height="33.8834mm" version="1.1" style="shape-rendering:geometricPrecision; text-rendering:geometricPrecision; image-rendering:optimizeQuality; fill-rule:evenodd; clip-rule:evenodd"
viewBox="0 0 6355 7340"
 xmlns:xlink="http://www.w3.org/1999/xlink">
 <defs>
  <style type="text/css">
   <![CDATA[
    .str0 {stroke:black;stroke-width:43.3234}
    .fil6 {fill:#00CCFF}
    .fil3 {fill:aqua}
    .fil0 {fill:#2C3D51}
    .fil8 {fill:#6F4104}
    .fil4 {fill:#714504}
    .fil1 {fill:#FFBD2D}
    .fil7 {fill:white}
    .fil2 {fill:white;fill-opacity:0.301961}
    .fil5 {fill:white;fill-opacity:0.490196}
   ]]>
  </style>
    <mask id="id0">
  <linearGradient id="id1" gradientUnits="userSpaceOnUse" x1="1873.71" y1="4783.94" x2="1871.55" y2="3374.36">
   <stop offset="0" style="stop-opacity:0; stop-color:white"/>
   <stop offset="1" style="stop-opacity:1; stop-color:white"/>
  </linearGradient>
     <rect style="fill:url(#id1)" x="1534" y="3003" width="554" height="2258"/>
    </mask>
    <mask id="id2">
  <linearGradient id="id3" gradientUnits="userSpaceOnUse" x1="4384.34" y1="4783.94" x2="4386.49" y2="3374.36">
   <stop offset="0" style="stop-opacity:0; stop-color:white"/>
   <stop offset="1" style="stop-opacity:1; stop-color:white"/>
  </linearGradient>
     <rect style="fill:url(#id3)" x="4170" y="3003" width="554" height="2258"/>
    </mask>
 </defs>
 <g id="Layer_x0020_1">
  <metadata id="CorelCorpID_0Corel-Layer"/>
  <g id="_2537602951632">
   <path class="fil0" d="M334 3884c-195,-71 -334,-258 -334,-478 0,-239 166,-440 388,-494 293,-1264 1426,-2206 2779,-2206 1351,0 2482,940 2776,2201 235,46 412,252 412,499 0,228 -150,421 -357,486 -60,518 -260,994 -561,1390l0 0c0,0 280,80 -21,2058 0,0 -164,-800 -1447,-1046l0 0c-255,74 -524,114 -802,114 -1464,0 -2671,-1103 -2833,-2524z"/>
   <circle class="fil1" cx="3167" cy="3557" r="2536"/>
   <path class="fil2" d="M3167 1021c1089,0 2018,687 2377,1651 -630,713 -1463,1147 -2377,1147 -915,0 -1748,-434 -2378,-1147 359,-964 1288,-1651 2378,-1651z"/>
   <path class="fil0" d="M772 806c205,0 371,166 371,371 0,205 -166,371 -371,371 -205,0 -371,-166 -371,-371 0,-205 166,-371 371,-371zm3555 -455c28,0 51,22 51,50 0,28 -23,51 -51,51 -28,0 -50,-23 -50,-51 0,-28 22,-50 50,-50zm-286 -132c41,0 74,34 74,75 0,41 -33,74 -74,74 -41,0 -75,-33 -75,-74 0,-41 34,-75 75,-75zm-359 -117c61,0 110,49 110,109 0,61 -49,110 -110,110 -60,0 -109,-49 -109,-110 0,-60 49,-109 109,-109zm-412 -88c88,0 158,71 158,158 0,87 -70,158 -158,158 -87,0 -157,-71 -157,-158 0,-87 70,-158 157,-158zm-530 -14c113,0 204,91 204,204 0,113 -91,204 -204,204 -112,0 -204,-91 -204,-204 0,-113 92,-204 204,-204zm-634 68c151,0 273,122 273,272 0,151 -122,273 -273,273 -150,0 -272,-122 -272,-273 0,-150 122,-272 272,-272zm-641 251c174,0 315,141 315,315 0,174 -141,315 -315,315 -174,0 -315,-141 -315,-315 0,-174 141,-315 315,-315z"/>
   <path class="fil3" d="M2138 6237c130,0 238,95 256,220 89,193 212,156 359,102 153,-56 622,-56 775,0 460,167 128,-159 563,-159 125,0 227,-11 256,100 73,-269 624,-324 735,28 252,9 500,119 500,191 0,113 -321,204 -699,166 -122,-12 -216,268 -1743,268 0,0 -603,0 -837,-66 -94,-26 -329,-57 -579,-85 -29,5 -60,7 -91,7 -77,0 -150,-14 -213,-39 -31,-3 -60,-6 -89,-9 -26,2 -53,3 -80,3 -120,0 -230,-15 -316,-39l0 0 0 0c-112,-32 -184,-80 -184,-134 0,-90 196,-163 448,-172 45,-142 222,-249 434,-249 95,0 183,22 255,58 30,-110 130,-191 250,-191z"/>
   <path class="fil4" d="M2410 3055c0,0 131,13 98,-78 -173,-485 -1548,185 -867,169 274,-6 769,-91 769,-91z"/>
   <path class="fil4" d="M3855 3055c0,0 -130,13 -98,-78 173,-485 1549,185 867,169 -273,-6 -769,-91 -769,-91z"/>
   <path class="fil5" d="M4297 6455c0,0 -463,23 -333,176 131,153 626,124 626,124 0,0 561,-3 395,-218 -167,-216 -688,-82 -688,-82zm-1174 222c170,0 307,25 307,55 0,31 -137,56 -307,56 -169,0 -306,-25 -306,-56 0,-30 137,-55 306,-55zm-1107 -222c0,0 463,23 332,176 -130,153 -626,124 -626,124 0,0 -560,-3 -394,-218 166,-216 688,-82 688,-82z"/>
   <path class="fil6" d="M2153 3148c90,-268 -198,-204 -198,-204 0,0 -454,26 -475,344 -22,317 -77,3181 -77,3181 0,0 -72,197 332,171 405,-27 525,17 535,-219 10,-237 -94,-359 -94,-359l-79 -2785c0,0 -42,-153 56,-129z"/>
   <path class="fil7 str0" style="mask:url(#id0)" d="M2009 3154c0,0 -23,-62 33,-81 55,-20 0,-48 0,-48 0,0 -381,33 -449,149 -69,116 -21,2065 -21,2065l91 -1584 111 1512 52 -1238 72 1284c0,0 27,-80 150,-85 -2,-304 -39,-1974 -39,-1974z"/>
   <path class="fil6" d="M4105 3149c-90,-269 198,-205 198,-205 0,0 454,26 475,344 22,319 77,3188 77,3188 0,0 72,197 -332,171 -405,-26 -525,17 -535,-219 -10,-237 95,-360 95,-360l78 -2790c0,0 42,-154 -56,-129z"/>
   <path class="fil7" style="mask:url(#id2)" d="M4249 3154c0,0 23,-62 -33,-81 -55,-20 0,-48 0,-48 0,0 381,33 449,149 69,116 21,2065 21,2065l-91 -1584 -111 1512 -52 -1238 -72 1284c0,0 -27,-80 -150,-85 2,-304 39,-1974 39,-1974z"/>
   <g>
    <path class="fil8" d="M4004 1852c35,0 66,21 80,52 282,418 466,435 899,561l0 0 0 0c20,0 36,16 36,36 0,20 -16,36 -36,36 -432,60 -940,-199 -1067,-597 -15,-46 39,-88 88,-88z"/>
    <path class="fil8" d="M2262 1852c-36,0 -67,21 -80,52 -282,418 -466,435 -900,561l0 0 0 0c-19,0 -36,16 -36,36 0,20 17,36 36,36 432,60 941,-199 1068,-597 15,-46 -39,-88 -88,-88z"/>
   </g>
   <path class="fil8" d="M3140 3927l2 0 3 0c501,0 829,394 823,869 0,36 -1,72 -5,108 0,73 -59,132 -132,132l-2 0 -1 0c-34,0 -65,-13 -88,-34 -149,-93 -361,-151 -598,-152 -236,1 -449,59 -597,152 -23,21 -54,34 -88,34l-1 0 -2 0c-73,0 -132,-59 -132,-132 -4,-36 -6,-72 -5,-108 -7,-475 322,-869 823,-869z"/>
  </g>
 </g>
</svg>
