<?xml version="1.0" encoding="UTF-8"?>
<!DOCTYPE svg PUBLIC "-//W3C//DTD SVG 1.1//EN" "http://www.w3.org/Graphics/SVG/1.1/DTD/svg11.dtd">
<!-- Creator: CorelDRAW X8 -->
<svg xmlns="http://www.w3.org/2000/svg" xml:space="preserve" width="31.564mm" height="35.6728mm" version="1.1" style="shape-rendering:geometricPrecision; text-rendering:geometricPrecision; image-rendering:optimizeQuality; fill-rule:evenodd; clip-rule:evenodd"
viewBox="0 0 1278 1444"
 xmlns:xlink="http://www.w3.org/1999/xlink">
 <defs>
  <style type="text/css">
   <![CDATA[
    .str0 {stroke:black;stroke-width:8.09624}
    .fil6 {fill:#00CCFF}
    .fil3 {fill:aqua}
    .fil0 {fill:#2C3D51}
    .fil8 {fill:#6F4104}
    .fil4 {fill:#714504}
    .fil1 {fill:#FEC12B}
    .fil7 {fill:white}
    .fil2 {fill:white;fill-opacity:0.301961}
    .fil5 {fill:white;fill-opacity:0.490196}
   ]]>
  </style>
    <mask id="id0">
  <linearGradient id="id1" gradientUnits="userSpaceOnUse" x1="387.75" y1="923.364" x2="387.288" y2="621.292">
   <stop offset="0" style="stop-opacity:0; stop-color:white"/>
   <stop offset="1" style="stop-opacity:1; stop-color:white"/>
  </linearGradient>
     <rect style="fill:url(#id1)" x="316" y="542" width="118" height="483"/>
    </mask>
    <mask id="id2">
  <linearGradient id="id3" gradientUnits="userSpaceOnUse" x1="925.776" y1="923.364" x2="926.238" y2="621.292">
   <stop offset="0" style="stop-opacity:0; stop-color:white"/>
   <stop offset="1" style="stop-opacity:1; stop-color:white"/>
  </linearGradient>
     <rect style="fill:url(#id3)" x="880" y="542" width="118" height="483"/>
    </mask>
 </defs>
 <g id="Layer_x0020_1">
  <metadata id="CorelCorpID_0Corel-Layer"/>
  <g id="_2537603011920">
   <path class="fil0" d="M0 220l0 30c1,2 2,3 3,5 2,7 5,13 9,19 2,4 5,8 10,12l0 1 0 0c11,10 26,16 42,17l1 0 0 0 0 0c34,0 67,-25 68,-65 1,-37 -25,-61 -55,-67l-1 0 -1 0 0 0 -2 0 0 0c-1,0 -2,0 -3,0l0 0 -2 0c-18,-1 -36,5 -50,20 -5,5 -9,11 -13,18l-4 8c-1,-1 -1,2 -2,2zm136 327c-50,0 -90,40 -90,91 0,50 40,90 90,90 2,0 3,0 4,0l0 259c0,97 79,177 177,177l424 0c1,1 2,2 3,3 153,182 110,277 110,277 196,-219 165,-263 208,-287 9,-2 18,-6 26,-10l0 0 0 0c60,-28 102,-90 102,-160l0 -259c49,-1 88,-41 88,-90 0,-50 -39,-90 -88,-91l0 -258c0,-98 -80,-178 -177,-178l-696 0c-98,0 -177,80 -177,178l0 258c-1,0 -2,0 -4,0zm-36 -441c4,23 20,36 38,40 5,2 10,3 16,3 11,0 21,-3 30,-9 18,-10 31,-31 24,-60 -5,-21 -18,-33 -34,-38 -6,-3 -13,-4 -20,-4 -13,0 -24,4 -34,12 -15,11 -25,30 -20,56zm188 -106c24,0 44,20 44,44 0,25 -20,44 -44,44 -24,0 -44,-19 -44,-44 0,-24 20,-44 44,-44zm446 34c5,0 10,4 10,10 0,6 -5,11 -10,11 -6,0 -11,-5 -11,-11 0,-6 5,-10 11,-10zm-57 -5c8,0 15,7 15,15 0,8 -7,15 -15,15 -8,0 -15,-7 -15,-15 0,-8 7,-15 15,-15zm-75 -6c12,0 22,9 22,21 0,12 -10,22 -22,22 -11,0 -21,-10 -21,-22 0,-12 10,-21 21,-21zm-82 -5c15,0 27,12 27,26 0,15 -12,27 -27,27 -14,0 -26,-12 -26,-27 0,-14 12,-26 26,-26zm-104 -8c19,0 35,15 35,34 0,19 -16,35 -35,35 -19,0 -34,-16 -34,-35 0,-19 15,-34 34,-34z"/>
   <rect class="fil1" x="206" y="177" width="918" height="921" rx="155" ry="29"/>
   <path class="fil2" d="M361 177l608 0c85,0 155,70 155,156l0 203c-126,102 -285,162 -459,162 -174,0 -334,-60 -459,-162l0 -203c0,-86 70,-156 155,-156z"/>
   <path class="fil3" d="M444 1151c28,0 51,21 55,47 19,42 46,34 77,22 33,-12 133,-12 166,0 99,36 28,-34 121,-34 27,0 48,-2 55,21 15,-57 134,-69 157,6 54,2 107,26 107,41 0,25 -68,44 -149,36 -27,-3 -47,57 -374,57 0,0 -129,0 -179,-14 -20,-5 -71,-12 -124,-18 -7,1 -13,2 -20,2 -16,0 -32,-3 -46,-9 -6,0 -12,-1 -19,-2 -5,1 -11,1 -17,1 -25,0 -49,-3 -67,-8l0 0 0 0c-24,-7 -40,-18 -40,-29 0,-19 42,-35 96,-37 10,-30 48,-53 93,-53 20,0 39,4 55,12 6,-24 28,-41 53,-41z"/>
   <path class="fil4" d="M503 553c0,0 28,3 21,-17 -37,-104 -332,40 -186,36 59,-1 165,-19 165,-19z"/>
   <path class="fil4" d="M812 553c0,0 -28,3 -21,-17 38,-104 332,40 186,36 -58,-1 -165,-19 -165,-19z"/>
   <path class="fil5" d="M907 1198c0,0 -99,5 -71,38 28,32 134,26 134,26 0,0 120,-1 84,-47 -35,-46 -147,-17 -147,-17zm-251 47c36,0 65,6 65,12 0,7 -29,12 -65,12 -37,0 -66,-5 -66,-12 0,-6 29,-12 66,-12zm-238 -47c0,0 99,5 71,38 -27,32 -134,26 -134,26 0,0 -120,-1 -84,-47 35,-46 147,-17 147,-17z"/>
   <path class="fil6" d="M448 568c19,-51 -43,-39 -43,-39 0,0 -97,5 -102,65 -4,61 -16,607 -16,607 0,0 -16,37 71,32 87,-5 113,4 115,-41 2,-46 -21,-69 -21,-69l-16 -531c0,0 -9,-29 12,-24z"/>
   <path class="fil7 str0" style="mask:url(#id0)" d="M417 574c0,0 -5,-13 7,-17 12,-5 0,-11 0,-11 0,0 -82,8 -96,32 -15,25 -5,443 -5,443l20 -340 23 325 12 -266 15 275c0,0 6,-17 32,-18 0,-65 -8,-423 -8,-423z"/>
   <path class="fil6" d="M866 568c-19,-51 42,-39 42,-39 0,0 98,5 102,66 5,60 17,608 17,608 0,0 15,38 -72,33 -86,-5 -112,3 -114,-42 -2,-46 20,-69 20,-69l17 -532c0,0 9,-30 -12,-25z"/>
   <path class="fil7" style="mask:url(#id2)" d="M897 574c0,0 5,-13 -7,-17 -12,-5 0,-11 0,-11 0,0 81,8 96,32 15,25 5,443 5,443l-20 -340 -24 325 -11 -266 -15 275c0,0 -6,-17 -32,-18 0,-65 8,-423 8,-423z"/>
   <g>
    <path class="fil8" d="M844 295c8,0 14,5 17,11 61,90 100,93 193,120l0 0 0 0c4,0 8,4 8,8 0,4 -4,8 -8,8 -92,13 -201,-43 -229,-128 -3,-10 9,-19 19,-19z"/>
    <path class="fil8" d="M471 295c-8,0 -14,5 -17,11 -61,90 -100,93 -193,120l0 0 0 0c-4,0 -8,4 -8,8 0,4 4,8 8,8 93,13 202,-43 229,-128 3,-10 -9,-19 -19,-19z"/>
   </g>
   <path class="fil8" d="M659 740l1 0 0 0c108,0 178,84 177,186 0,8 -1,15 -2,23 0,16 -12,28 -28,28l0 0 0 0c-8,0 -14,-2 -19,-7 -32,-20 -78,-32 -128,-32 -51,0 -97,12 -128,32 -5,5 -12,7 -19,7l-1 0 0 0c-16,0 -28,-12 -28,-28 -1,-8 -1,-15 -1,-23 -2,-102 69,-186 176,-186z"/>
  </g>
 </g>
</svg>
