<?xml version="1.0" encoding="UTF-8"?>
<!DOCTYPE svg PUBLIC "-//W3C//DTD SVG 1.1//EN" "http://www.w3.org/Graphics/SVG/1.1/DTD/svg11.dtd">
<!-- Creator: CorelDRAW X8 -->
<svg xmlns="http://www.w3.org/2000/svg" xml:space="preserve" width="31.564mm" height="35.6728mm" version="1.1" style="shape-rendering:geometricPrecision; text-rendering:geometricPrecision; image-rendering:optimizeQuality; fill-rule:evenodd; clip-rule:evenodd"
viewBox="0 0 833 942"
 xmlns:xlink="http://www.w3.org/1999/xlink">
 <defs>
  <style type="text/css">
   <![CDATA[
    .fil3 {fill:black}
    .fil0 {fill:#2C3D51}
    .fil4 {fill:#A12210}
    .fil1 {fill:#FEC12B}
    .fil5 {fill:#FFD94C}
    .fil6 {fill:white;fill-opacity:0.211765}
    .fil2 {fill:white;fill-opacity:0.301961}
   ]]>
  </style>
 </defs>
 <g id="Layer_x0020_1">
  <metadata id="CorelCorpID_0Corel-Layer"/>
  <g id="_2537600821760">
   <path class="fil0" d="M0 144l0 19c1,1 1,2 2,3 1,5 3,9 6,13 1,2 3,5 6,8l0 0 1 0c7,6 16,11 27,11l0 0 0 0 1 0c22,0 43,-16 44,-42 0,-25 -17,-40 -36,-44l-1 0 0 0 -1 0 -1 0 0 0c0,0 -1,0 -1,0l-1 0 -1 0c-12,-1 -24,3 -33,13 -3,3 -6,7 -8,12l-3 5c0,0 -1,1 -1,2zm89 213c-33,0 -59,26 -59,59 0,32 26,59 59,59 1,0 1,0 2,0l0 168c0,64 52,116 116,116l276 0c1,1 1,1 2,2 100,119 72,181 72,181 128,-143 107,-172 135,-187 6,-2 12,-4 18,-7l0 0 0 0c39,-19 66,-58 66,-105l0 -168c32,-1 57,-27 57,-59 0,-32 -25,-58 -57,-59l0 -169c0,-64 -52,-116 -116,-116l-453 0c-64,0 -116,52 -116,116l0 169c-1,0 -1,0 -2,0zm-24 -288c3,15 13,24 25,26 3,1 7,2 11,2 7,0 13,-2 19,-5 12,-7 20,-21 16,-40 -4,-13 -12,-21 -23,-25 -4,-1 -8,-2 -12,-2 -9,0 -17,3 -23,7 -10,8 -16,20 -13,37zm123 -69c16,0 29,13 29,29 0,16 -13,29 -29,29 -16,0 -29,-13 -29,-29 0,-16 13,-29 29,-29zm290 22c4,0 7,3 7,7 0,4 -3,7 -7,7 -3,0 -7,-3 -7,-7 0,-4 4,-7 7,-7zm-36 -3c5,0 9,4 9,10 0,5 -4,10 -9,10 -6,0 -10,-5 -10,-10 0,-6 4,-10 10,-10zm-49 -4c8,0 14,6 14,14 0,8 -6,14 -14,14 -8,0 -14,-6 -14,-14 0,-8 6,-14 14,-14zm-54 -3c10,0 17,7 17,17 0,9 -7,17 -17,17 -9,0 -17,-8 -17,-17 0,-10 8,-17 17,-17zm-68 -6c13,0 23,10 23,23 0,12 -10,22 -23,22 -12,0 -22,-10 -22,-22 0,-13 10,-23 22,-23z"/>
   <rect class="fil1" x="134" y="116" width="599" height="600" rx="101" ry="19"/>
   <path class="fil2" d="M235 116l397 0c55,0 101,45 101,101l0 133c-82,66 -186,105 -299,105 -114,0 -218,-39 -300,-105l0 -133c0,-56 46,-101 101,-101z"/>
   <g>
    <g>
     <path class="fil3" d="M349 202c8,0 14,6 14,14 0,2 -1,4 -1,6l0 0c-4,17 -20,50 -75,42 -55,-8 -80,28 -80,28 0,0 0,0 15,-30 15,-31 61,-26 84,-27 18,-2 26,-16 29,-22 2,-6 7,-11 14,-11z"/>
     <path class="fil3" d="M518 202c-8,0 -14,6 -14,14 0,2 1,4 1,6l0 0c4,17 20,50 75,42 55,-8 80,28 80,28 0,0 0,0 -15,-30 -15,-31 -61,-26 -84,-27 -18,-2 -26,-16 -29,-22 -2,-6 -7,-11 -14,-11z"/>
    </g>
    <g>
     <path class="fil3" d="M495 365c27,-77 130,-70 163,4 -57,-56 -124,-40 -163,-4z"/>
     <path class="fil3" d="M372 365c-27,-77 -130,-70 -163,4 57,-56 124,-40 163,-4z"/>
    </g>
   </g>
   <g>
    <ellipse class="fil4" cx="434" cy="589" rx="96" ry="106"/>
    <path class="fil3" d="M434 483c53,0 96,47 96,106 0,3 0,6 0,8 -4,-54 -46,-97 -96,-97 -51,0 -93,43 -97,97 0,-2 0,-5 0,-8 0,-59 43,-106 97,-106z"/>
   </g>
   <g>
    <path class="fil5" d="M338 645c3,-21 53,-46 87,-42 35,4 23,-21 23,-21 0,0 -5,-21 -65,-17 -60,4 -97,55 -97,55 0,0 -17,-39 50,-63 68,-25 57,-46 45,-62 -13,-16 -70,7 -93,23 -22,16 -73,74 -119,137 -46,62 -24,106 -24,106 0,0 33,73 86,65 54,-7 67,-10 67,-10l73 -62c0,0 13,-19 28,-18 3,0 57,11 42,-27 -4,-10 -19,-15 -36,-14 -35,3 -48,10 -48,10 37,-44 46,-29 70,-31 23,-3 45,-13 20,-35 -7,-5 -16,-9 -29,-7 -29,3 -80,13 -80,13z"/>
    <path class="fil6" d="M387 510c0,-6 -3,-11 -6,-15 -13,-16 -70,7 -93,23 -22,16 -73,74 -119,137 -16,22 -24,41 -27,57 11,8 22,11 27,5 18,-18 25,-42 25,-42 0,0 24,-60 38,-64 14,-4 37,-50 49,-51 13,-1 21,-36 40,-36 18,0 45,-6 45,-6l21 -8z"/>
    <path class="fil5" d="M185 633l2 -54c0,0 -6,-75 28,-55 34,19 23,44 23,44l-53 65z"/>
    <path class="fil6" d="M186 606l1 -27c0,0 -1,-22 2,-39 9,-2 20,-4 24,-1 8,6 8,13 -7,47 -6,13 -13,18 -20,20z"/>
    <path class="fil6" d="M328 675c0,0 -31,-2 -33,12 -2,14 7,19 7,19 0,0 29,5 34,-8 5,-13 -8,-23 -8,-23z"/>
    <path class="fil6" d="M272 651c0,0 26,20 29,7 4,-13 2,-30 2,-30 0,0 -19,-12 -23,1 -5,13 -8,22 -8,22z"/>
   </g>
  </g>
 </g>
</svg>
