<?xml version="1.0" encoding="UTF-8"?>
<!DOCTYPE svg PUBLIC "-//W3C//DTD SVG 1.1//EN" "http://www.w3.org/Graphics/SVG/1.1/DTD/svg11.dtd">
<!-- Creator: CorelDRAW X8 -->
<svg xmlns="http://www.w3.org/2000/svg" xml:space="preserve" width="29.3356mm" height="33.8834mm" version="1.1" style="shape-rendering:geometricPrecision; text-rendering:geometricPrecision; image-rendering:optimizeQuality; fill-rule:evenodd; clip-rule:evenodd"
viewBox="0 0 390 450"
 xmlns:xlink="http://www.w3.org/1999/xlink">
 <defs>
  <style type="text/css">
   <![CDATA[
    .fil4 {fill:black}
    .fil0 {fill:#2C3D51}
    .fil3 {fill:#A12210}
    .fil1 {fill:#FFBD2D}
    .fil5 {fill:#FFD94C}
    .fil6 {fill:white;fill-opacity:0.211765}
    .fil2 {fill:white;fill-opacity:0.301961}
   ]]>
  </style>
 </defs>
 <g id="Layer_x0020_1">
  <metadata id="CorelCorpID_0Corel-Layer"/>
  <g id="_2537600820000">
   <path class="fil0" d="M20 238c-11,-4 -20,-16 -20,-29 0,-15 10,-27 24,-30 18,-78 87,-136 170,-136 83,0 152,58 171,135 14,3 25,16 25,31 0,14 -9,26 -22,30 -4,32 -16,61 -35,85l0 0c0,0 18,5 -1,126 0,0 -10,-49 -89,-64l0 0c-15,5 -32,7 -49,7 -90,0 -164,-68 -174,-155z"/>
   <circle class="fil1" cx="194" cy="218" r="156"/>
   <path class="fil2" d="M194 63c67,0 124,42 146,101 -39,44 -90,70 -146,70 -56,0 -107,-26 -146,-70 22,-59 79,-101 146,-101z"/>
   <path class="fil0" d="M47 49c13,0 23,11 23,23 0,13 -10,23 -23,23 -12,0 -22,-10 -22,-23 0,-12 10,-23 22,-23zm218 -27c2,0 4,1 4,3 0,1 -2,3 -4,3 -1,0 -3,-2 -3,-3 0,-2 2,-3 3,-3zm-17 -9c2,0 4,2 4,5 0,3 -2,5 -4,5 -3,0 -5,-2 -5,-5 0,-3 2,-5 5,-5zm-22 -7c4,0 7,3 7,7 0,4 -3,7 -7,7 -4,0 -7,-3 -7,-7 0,-4 3,-7 7,-7zm-25 -5c5,0 9,4 9,10 0,5 -4,9 -9,9 -6,0 -10,-4 -10,-9 0,-6 4,-10 10,-10zm-33 -1c7,0 13,6 13,13 0,6 -6,12 -13,12 -7,0 -12,-6 -12,-12 0,-7 5,-13 12,-13zm-39 4c9,0 17,8 17,17 0,9 -8,17 -17,17 -9,0 -17,-8 -17,-17 0,-9 8,-17 17,-17zm-39 16c11,0 19,8 19,19 0,11 -8,19 -19,19 -11,0 -19,-8 -19,-19 0,-11 8,-19 19,-19z"/>
   <g>
    <ellipse class="fil3" cx="194" cy="303" rx="49" ry="53"/>
    <path class="fil4" d="M194 250c27,0 49,24 49,53 0,2 0,3 0,5 -2,-28 -23,-49 -49,-49 -25,0 -46,21 -48,49 0,-2 0,-3 0,-5 0,-29 21,-53 48,-53z"/>
   </g>
   <g>
    <path class="fil5" d="M162 336c2,-11 27,-23 44,-21 18,2 12,-11 12,-11 0,0 -3,-10 -33,-8 -30,2 -49,27 -49,27 0,0 -9,-19 25,-32 34,-12 29,-23 23,-31 -6,-8 -36,4 -47,12 -11,8 -37,37 -60,69 -23,31 -12,53 -12,53 0,0 16,37 44,33 27,-4 33,-5 33,-5l37 -31c0,0 7,-10 14,-9 1,0 29,5 21,-14 -2,-5 -10,-8 -18,-7 -18,2 -24,5 -24,5 18,-22 23,-14 35,-16 11,-1 23,-6 10,-17 -3,-3 -8,-5 -14,-4 -15,2 -41,7 -41,7z"/>
    <path class="fil6" d="M187 268c0,-3 -2,-6 -3,-8 -6,-8 -36,4 -47,12 -11,8 -37,37 -60,69 -8,11 -12,21 -14,29 6,3 12,5 14,2 9,-9 13,-21 13,-21 0,0 12,-30 19,-32 7,-2 18,-26 25,-26 6,-1 10,-18 19,-18 10,0 23,-3 23,-3l11 -4z"/>
    <path class="fil5" d="M85 330l1 -28c0,0 -3,-37 14,-27 17,9 12,22 12,22l-27 33z"/>
    <path class="fil6" d="M86 316l0 -14c0,0 -1,-10 1,-19 5,-1 10,-2 12,0 4,3 4,6 -3,23 -3,7 -7,9 -10,10z"/>
    <path class="fil6" d="M157 351c0,0 -15,-1 -16,6 -1,7 3,10 3,10 0,0 15,2 17,-5 3,-6 -4,-11 -4,-11z"/>
    <path class="fil6" d="M129 339c0,0 13,10 15,3 1,-6 1,-15 1,-15 0,0 -10,-6 -12,1 -2,6 -4,11 -4,11z"/>
   </g>
   <g>
    <g>
     <path class="fil4" d="M152 106c3,0 7,4 7,8 0,1 -1,1 -1,2l0 0c-2,9 -10,25 -38,21 -27,-4 -40,15 -40,15 0,0 0,0 8,-16 7,-15 30,-13 42,-13 9,-1 13,-8 15,-11 1,-3 3,-6 7,-6z"/>
     <path class="fil4" d="M237 106c-4,0 -7,4 -7,8 0,1 0,1 0,2l0 0c2,9 10,25 38,21 28,-4 40,15 40,15 0,0 0,0 -7,-16 -8,-15 -31,-13 -43,-13 -9,-1 -13,-8 -14,-11 -1,-3 -4,-6 -7,-6z"/>
    </g>
    <g>
     <path class="fil4" d="M225 188c14,-39 66,-35 82,2 -28,-28 -62,-19 -82,-2z"/>
     <path class="fil4" d="M163 188c-13,-39 -65,-35 -82,2 29,-28 63,-19 82,-2z"/>
    </g>
   </g>
  </g>
 </g>
</svg>
