<?xml version="1.0" encoding="UTF-8"?>
<!DOCTYPE svg PUBLIC "-//W3C//DTD SVG 1.1//EN" "http://www.w3.org/Graphics/SVG/1.1/DTD/svg11.dtd">
<!-- Creator: CorelDRAW X8 -->
<svg xmlns="http://www.w3.org/2000/svg" xml:space="preserve" width="41.5666mm" height="41.572mm" version="1.1" style="shape-rendering:geometricPrecision; text-rendering:geometricPrecision; image-rendering:optimizeQuality; fill-rule:evenodd; clip-rule:evenodd"
viewBox="0 0 1976 1976"
 xmlns:xlink="http://www.w3.org/1999/xlink">
 <defs>
  <style type="text/css">
   <![CDATA[
    .str0 {stroke:black;stroke-width:9.50539}
    .fil7 {fill:black}
    .fil12 {fill:#1A1A1A}
    .fil3 {fill:#2C3D51}
    .fil0 {fill:#4D4D4D}
    .fil5 {fill:gray}
    .fil6 {fill:#B3B3B3}
    .fil10 {fill:#E6E6E6}
    .fil4 {fill:red}
    .fil11 {fill:white}
    .fil8 {fill:white;fill-opacity:0.188235}
    .fil9 {fill:white;fill-opacity:0.211765}
    .fil1 {fill:black;fill-opacity:0.301961}
    .fil13 {fill:white;fill-opacity:0.301961}
    .fil2 {fill:red;fill-opacity:0.678431}
   ]]>
  </style>
 </defs>
 <g id="Layer_x0020_1">
  <metadata id="CorelCorpID_0Corel-Layer"/>
  <g id="_2537813930496">
   <path class="fil0" d="M33 1786c42,42 109,43 152,4 -39,44 -37,111 5,153 43,44 114,44 157,0 33,-33 41,-81 24,-122 -6,-40 -10,-99 16,-125 42,-41 1334,-1313 1334,-1313 0,0 16,-26 62,-15 45,11 180,2 192,-97 11,-98 -84,-132 -84,-132l-50 -5 -4 -50c0,0 -34,-94 -133,-83 -98,11 -107,146 -97,192 11,46 -14,62 -14,62 0,0 -1273,1291 -1314,1333 -25,27 -85,23 -125,17 -13,-6 -27,-9 -41,-9l0 0 0 0c-29,0 -58,11 -80,33 -44,43 -44,114 0,157z"/>
   <path class="fil1" d="M203 1955c44,31 105,27 144,-12 18,-18 28,-40 32,-63 -45,46 -111,67 -176,75zm1701 -1599c35,-14 66,-40 71,-85 4,-40 -9,-70 -26,-91 -8,60 -22,122 -45,176z"/>
   <path class="fil2" d="M1578 462l144 -144 0 0 0 0 0 0 0 0 0 0 1 0 0 0 1 1 0 0 1 0 0 0 1 0 0 0 2 0 0 0 1 1 1 0 1 0 1 0 1 1 2 0 1 0 1 0 2 1 0 0 3 0c3,1 6,2 10,2l1 1c43,7 117,15 145,-11l0 -1c1,0 1,-1 2,-1 8,-3 15,-8 22,-14 22,-22 22,-57 0,-79 -2,-2 -5,-4 -7,-6 -2,-2 -3,-4 -6,-7 -21,-21 -57,-21 -79,0 -6,7 -11,14 -14,22l0 0c0,0 -50,14 -75,5 -9,-25 4,-76 4,-76l0 0c8,-2 16,-7 22,-13 22,-22 22,-58 0,-80 -2,-2 -4,-4 -6,-5 -2,-3 -4,-5 -6,-7 -22,-22 -57,-22 -79,0 -7,6 -11,14 -14,22 0,0 -1,1 -2,2l0 0c-27,28 -18,102 -11,145l0 1c1,4 2,7 2,10l1 3 0 0 0 2 0 1 1 1 0 2 0 1 1 1 0 1 0 1 0 1 0 0 1 2 0 0 0 1 0 0 0 1 0 0 0 1 1 0 0 0 0 1 0 0 0 0 0 0 0 0 -144 144 -1234 1256c-46,1 -118,4 -138,-2 -4,-2 -9,-4 -13,-5l0 0 0 0c-20,-6 -42,-1 -58,15 -23,23 -23,61 0,84 20,20 50,23 72,9l0 0 0 0 1 0c1,-1 53,-30 77,-12 0,3 9,12 12,12 18,24 -12,78 -12,78l0 0c-13,23 -10,52 9,72 23,23 61,23 84,0 20,-19 23,-48 10,-71 -6,-20 -3,-79 -2,-124l1258 -1246z"/>
   <path class="fil0" d="M33 190c42,-42 109,-44 152,-5 -39,-43 -37,-110 5,-152 43,-44 114,-44 157,0 33,33 41,81 24,122 -6,40 -10,99 16,125 42,40 1334,1313 1334,1313 0,0 16,25 62,15 45,-11 180,-2 192,97 11,98 -84,132 -84,132l-50 5 -4 49c0,0 -34,95 -133,84 -98,-11 -107,-146 -97,-192 11,-46 -14,-62 -14,-62 0,0 -1273,-1291 -1314,-1333 -25,-27 -85,-23 -125,-17 -13,6 -27,9 -41,9l0 0 0 0c-29,0 -58,-11 -80,-33 -44,-43 -44,-114 0,-157z"/>
   <path class="fil1" d="M203 21c44,-31 105,-28 144,12 18,17 28,40 32,63 -45,-47 -111,-67 -176,-75zm1701 1599c35,14 66,40 71,85 4,40 -9,70 -26,90 -8,-59 -22,-121 -45,-175z"/>
   <path class="fil2" d="M1578 1514l144 144 0 0 0 0 0 0 0 0 0 0 1 -1 0 0 1 0 0 0 1 0 0 0 1 0 0 0 2 -1 0 0 1 0 1 0 1 0 1 -1 1 0 2 0 1 -1 1 0 2 0 0 0 3 -1c3,0 6,-1 10,-2l1 0c43,-7 117,-16 145,11l0 0c1,1 1,2 2,2 8,3 15,7 22,14 22,22 22,57 0,79 -2,2 -5,4 -7,6 -2,2 -3,4 -6,6 -21,22 -57,22 -79,0 -6,-6 -11,-14 -14,-22l0 0c0,0 -50,-13 -75,-4 -9,25 4,75 4,75l0 0c8,3 16,8 22,14 22,22 22,58 0,79 -2,3 -4,4 -6,6 -2,2 -4,5 -6,7 -22,22 -57,22 -79,0 -7,-7 -11,-14 -14,-22 0,-1 -1,-1 -2,-2l0 0c-27,-28 -18,-102 -11,-145l0 -1c1,-4 2,-7 2,-10l1 -3 0 0 0 -2 0 -1 1 -1 0 -2 0 -1 1 -1 0 -1 0 -1 0 -1 0 0 1 -2 0 0 0 -1 0 0 0 -1 0 0 0 -1 1 0 0 -1 0 0 0 0 0 0 0 0 0 -1 -144 -143 -1234 -1257c-46,-1 -118,-3 -138,3 -4,2 -9,4 -13,5l0 0 0 0c-20,5 -42,0 -58,-15 -23,-23 -23,-61 0,-84 20,-20 50,-23 72,-9l0 0 0 0 1 0c1,1 53,29 77,12 0,-3 9,-12 12,-13 18,-23 -12,-77 -12,-77l0 0c-13,-23 -10,-53 9,-72 23,-23 61,-23 84,0 20,19 23,48 10,71 -6,20 -3,79 -2,124l1258 1246z"/>
   <path class="fil3" d="M207 498l0 35c1,2 3,4 3,6 3,8 6,15 11,22 2,5 6,9 12,15l0 0 0 0c14,12 31,19 50,20l0 0 0 0 1 0c40,1 78,-29 79,-76 1,-44 -29,-72 -64,-78l-2 -1 0 0 -1 0 -2 0 0 0c-1,0 -2,0 -3,0l-1 0 -1 0c-22,-1 -44,6 -59,23 -6,6 -11,14 -15,22l-6 9c0,0 -1,2 -2,3zm160 383c-58,0 -106,48 -106,107 0,59 48,106 106,106 2,0 3,0 4,0l0 304c0,114 94,208 208,208l498 0c1,1 2,2 3,4 180,214 130,325 130,325 230,-257 193,-309 244,-337 10,-3 21,-7 31,-12l0 0 0 0c70,-33 119,-105 119,-188l0 -304c58,-2 103,-49 103,-106 0,-58 -45,-105 -103,-107l0 -303c0,-115 -93,-208 -208,-208l-817 0c-114,0 -208,93 -208,208l0 303c-1,0 -2,0 -4,0zm-43 -518c5,27 24,43 45,48 6,2 13,3 19,3 13,0 25,-4 35,-10 22,-12 37,-37 28,-71 -5,-24 -21,-39 -40,-45 -7,-3 -15,-4 -23,-4 -15,0 -29,5 -40,14 -18,13 -29,35 -24,65zm221 -124c29,0 52,24 52,52 0,29 -23,52 -52,52 -28,0 -52,-23 -52,-52 0,-28 24,-52 52,-52zm524 40c6,0 12,5 12,12 0,7 -6,13 -12,13 -7,0 -13,-6 -13,-13 0,-7 6,-12 13,-12zm-67 -5c10,0 18,8 18,17 0,10 -8,18 -18,18 -9,0 -17,-8 -17,-18 0,-9 8,-17 17,-17zm-87 -8c14,0 25,11 25,25 0,14 -11,25 -25,25 -14,0 -26,-11 -26,-25 0,-14 12,-25 26,-25zm-97 -6c17,0 31,14 31,31 0,17 -14,31 -31,31 -17,0 -31,-14 -31,-31 0,-17 14,-31 31,-31zm-122 -9c22,0 40,18 40,40 0,22 -18,41 -40,41 -22,0 -40,-19 -40,-41 0,-22 18,-40 40,-40z"/>
   <rect class="fil4" x="449" y="448" width="1078" height="1081" rx="182" ry="34"/>
   <path class="fil5" d="M1104 451c1,0 2,1 3,1 -1,0 -2,-1 -3,-1zm11 3c1,0 2,1 3,1 -1,0 -2,-1 -3,-1zm9 3c2,0 3,0 4,1 -1,-1 -2,-1 -4,-1zm11 3c1,0 2,1 3,1 -1,0 -2,-1 -3,-1zm9 3c1,1 3,1 4,1 -1,0 -3,0 -4,-1zm10 4c1,0 3,1 4,2 -1,-1 -3,-2 -4,-2zm9 3c2,1 3,2 4,2 -1,0 -2,-1 -4,-2zm9 4c2,1 4,2 6,3 -2,-1 -4,-2 -6,-3zm10 4c1,1 3,2 4,3 -1,-1 -3,-2 -4,-3zm8 4c2,1 5,3 7,4 -2,-1 -5,-3 -7,-4zm10 5c2,1 3,2 5,3 -2,-1 -3,-2 -5,-3zm7 4c3,1 6,3 9,5 -3,-2 -6,-4 -9,-5zm11 6c1,1 3,2 5,3 -2,-1 -4,-2 -5,-3zm6 3c3,2 6,4 10,6 -4,-2 -7,-4 -10,-6zm11 7c5,4 11,7 16,11 -5,-4 -11,-7 -16,-11zm16 11c103,72 168,184 168,310 0,72 -21,140 -59,198l0 -394 0 -2c-28,-43 -65,-81 -109,-112zm-641 499c-34,-56 -54,-120 -54,-189 0,-126 66,-239 169,-310 -47,32 -86,74 -115,120l0 379zm115 -499c5,-4 11,-8 16,-11 -5,3 -11,7 -16,11zm17 -12c6,-3 11,-6 17,-10 -6,4 -11,7 -17,10zm19 -11c5,-3 10,-5 15,-8 -5,3 -10,5 -15,8zm18 -10c2,0 3,-1 5,-2 -2,1 -3,2 -5,2zm9 -4c2,-1 4,-2 6,-3 -2,1 -4,2 -6,3zm10 -5c2,0 3,-1 4,-1 -1,0 -2,1 -4,1zm9 -3c2,-1 4,-2 6,-3 -2,1 -4,2 -6,3zm11 -5c1,0 2,-1 4,-1 -2,0 -3,1 -4,1zm9 -3c2,-1 3,-1 5,-2 -2,1 -3,1 -5,2zm11 -4c1,0 2,-1 3,-1 -1,0 -2,1 -3,1zm9 -3c1,0 2,-1 3,-1 -1,0 -2,1 -3,1zm11 -3c1,-1 2,-1 3,-1 -1,0 -2,0 -3,1zm10 -3c1,0 1,0 2,-1 -1,1 -1,1 -2,1zm11 -3c1,0 2,0 3,0 -1,0 -2,0 -3,0zm9 -2c1,0 2,0 3,0 -1,0 -2,0 -3,0zm12 -2c1,0 2,0 3,-1 -1,1 -2,1 -3,1zm10 -2c1,0 1,0 2,0 -1,0 -1,0 -2,0zm11 -2c1,0 2,0 3,0 -1,0 -2,0 -3,0zm32 -3c1,0 2,0 3,0 -1,0 -2,0 -3,0zm12 -1c1,0 1,0 1,0 0,0 0,0 -1,0z"/>
   <path class="fil6" d="M1251 1183l0 181c-120,69 -104,170 -266,162 -162,8 -146,-93 -266,-162l0 -181c38,11 72,27 76,84l0 0 0 -1c0,5 0,11 0,17l0 0 0 1 0 0 0 1 0 1 0 0 0 2 0 0 0 2 0 0 0 0 0 0 0 1 0 0c0,6 0,13 0,20l0 40c0,45 112,82 157,82l6 0 55 0 5 0c45,0 157,-37 157,-82l0 -40c0,-7 0,-14 1,-20l0 0 0 -1 0 0 0 0 0 0 0 -2 0 0 0 -2 0 0 0 -1 0 -1 0 0 0 -1 0 0c0,-6 -1,-12 -1,-17l0 1 0 0 0 0c4,-57 38,-73 76,-84zm-269 106l3 0 -3 0 0 0zm6 0l2 0 1 0 2 0 3 0 0 0 3 0 3 0 0 0 2 0 3 0 0 0 3 0 -3 0 -3 0 0 0 -2 0 -3 0 0 0 -3 0 -3 0 0 0 -3 0 -2 0 0 0zm184 -20c1,-1 2,-1 3,-1 -1,0 -2,0 -3,1z"/>
   <path class="fil6" d="M1360 630l0 2 0 491 0 3c-47,80 -176,24 -185,142 -63,18 -129,21 -187,21l-3 0 0 0 -3 0c-58,0 -124,-3 -187,-21 -9,-118 -138,-62 -185,-142l0 -3 0 -485c74,-120 215,-201 378,-201 158,0 297,77 372,193z"/>
   <path class="fil7" d="M847 850c66,0 94,62 94,128 0,65 -72,122 -138,122 -65,0 -137,-13 -137,-79 0,-29 5,-88 36,-121 39,-40 109,-50 145,-50zm277 0c-65,0 -93,62 -93,128 0,65 71,122 137,122 66,0 137,-13 137,-79 0,-29 -4,-88 -36,-121 -39,-40 -109,-50 -145,-50z"/>
   <path class="fil7" d="M987 1062c32,0 101,140 40,140 -7,0 -14,-3 -18,-9 0,0 0,0 0,0 0,0 -4,-11 -22,-12 -13,1 -18,6 -21,9 0,1 -1,2 -1,3l0 0 0 0c-4,6 -11,9 -18,9 -67,0 9,-140 40,-140z"/>
   <g>
    <path class="fil8" d="M809 950c45,0 81,26 81,57 0,32 -36,57 -81,57 -45,0 -81,-25 -81,-57 0,-31 36,-57 81,-57z"/>
    <path class="fil8" d="M1162 950c45,0 82,26 82,57 0,32 -37,57 -82,57 -45,0 -81,-25 -81,-57 0,-31 36,-57 81,-57z"/>
   </g>
   <path class="fil9" d="M988 1170c-83,23 -9,-74 0,-74 11,0 81,97 0,74z"/>
   <path class="fil7 str0" d="M795 1268c63,18 129,21 187,21l3 0 0 0 3 0c57,0 122,-3 184,-20l0 0 0 0 0 0 0 0 0 0 0 0 2 -1 0 0 0 0 1 0 0 0 0 0 0 0 0 0c0,0 0,0 0,0 0,4 1,9 1,15l0 0 0 0 0 0 0 0 0 1 0 0 0 1 0 1 0 0 0 2 0 0 0 2 0 0 0 0 0 0 0 1 0 0c-1,6 -1,13 -1,20l0 40c0,0 0,1 0,2l0 0c0,0 0,1 -1,2l0 0c0,0 0,1 0,2l0 0c0,1 0,1 0,2l-1 0c0,1 0,1 0,2 0,0 0,0 0,0 0,1 -1,1 -1,2 0,0 0,0 0,1l0 0c-18,39 -113,69 -154,69l-60 0c-44,0 -140,-27 -160,-69 0,-1 0,-1 0,-1 0,-1 0,-1 0,-2 -1,0 -1,0 -1,0 0,-1 0,-1 0,-2l0 0c-1,-1 -1,-1 -1,-2l0 0c0,-1 0,-2 0,-2l0 0c0,-1 0,-2 0,-2l0 0c-1,-1 -1,-2 -1,-2l0 -40c0,-7 0,-14 0,-20l0 0 0 -1 0 0 0 0 0 0 0 -2 0 0 0 -2 0 0 0 -1 0 -1 0 0 0 -1 0 0 0 0 0 0 0 0c0,-1 0,-12 0,-15 0,0 0,0 0,0z"/>
   <path class="fil10" d="M811 1319l14 0c2,0 4,-2 4,-4l0 -35c0,-1 -2,-3 -5,-5l0 0 0 0 0 0 -1 0 0 0 0 0 -2 0 0 0 0 -1 0 0 -1 0 0 0 0 0 0 0 -1 0 0 0 0 0 -1 0 0 0 0 0 -1 0 0 0 0 -1 0 0 -1 0 -1 0 0 0 0 0 0 0 -1 0 0 0 0 0 0 0 0 0 -1 0 0 0 0 -1 -1 0 0 0 0 0 -1 0 0 0 0 0 -1 0 0 0 0 0 -2 -1 0 0 -1 0c0,4 0,8 0,9l0 35c0,2 2,4 4,4zm8 -37c0,0 -6,-6 -6,0 0,6 -4,34 5,32 9,-2 6,-8 6,-8 0,0 1,-20 -5,-24zm338 0c0,0 6,-6 6,0 0,6 3,34 -6,32 -9,-2 -6,-8 -6,-8 0,0 -1,-20 6,-24zm-130 17c0,0 15,-3 14,19 -1,22 5,31 -9,32 -15,2 -31,5 -32,-5 -2,-10 -3,-36 27,-46zm46 -1c0,0 15,-2 15,11 -1,12 3,33 -8,32 -11,-1 -17,1 -17,-12 0,-14 -3,-33 10,-31zm50 -9c0,0 14,8 8,22 -7,14 -6,19 -6,19 0,0 -6,10 -11,2 -4,-8 -6,-49 9,-43zm-174 10c0,0 -16,-3 -15,19 1,22 -5,31 10,32 14,2 30,5 32,-5 1,-10 2,-36 -27,-46zm-47 -1c0,0 -15,-2 -14,11 0,12 -3,33 7,32 11,-1 17,1 18,-12 0,-14 2,-33 -11,-31zm-50 -9c0,0 -14,8 -7,22 6,14 5,19 5,19 0,0 7,10 11,2 5,-8 7,-49 -9,-43zm313 30l-14 0c-2,0 -4,-2 -4,-4l0 -35c0,-1 2,-3 5,-5 5,-1 11,-2 16,-4 1,4 1,8 1,9l0 35c0,2 -2,4 -4,4zm-128 -30l-1 0c-14,0 -28,0 -41,0 -4,22 -2,60 -2,64 0,5 4,10 10,10l34 0c5,0 9,-5 9,-10l0 -54c0,-6 -4,-8 -9,-10zm26 -2c-5,5 -8,8 -8,9l0 51c0,3 3,6 7,6l15 0c9,0 17,-7 17,-17l0 -40c0,-1 0,-6 -1,-11 -10,1 -20,2 -30,2zm48 -5c-3,3 -5,5 -5,6l0 47c0,3 2,5 5,5l1 0c14,0 25,-11 25,-24l0 -38c-9,2 -17,3 -26,4zm-172 7l1 0 0 0 1 0 0 0 1 0 1 0 0 0 0 0 1 0 1 0 0 0 1 0 0 0 1 0 0 0 2 0 0 0 0 0 1 0 1 0 0 0 1 0 0 0 0 0 1 0 1 0 0 0 1 0 0 0 1 0 0 0 1 0 0 0 1 0 0 0 1 0 1 0 0 0 0 0 1 0 1 0 0 0 1 0 0 0 0 0 1 0 1 0 0 0 1 0 0 0 1 0 0 0 1 0 1 0 0 0 0 0 1 0 0 0 1 0 0 0 1 0 0 0 1 0 1 0 0 0 0 0 1 0 1 0 0 0 1 0 0 0 0 0 1 0 1 0 0 0 1 0 0 0 1 0 0 0c4,22 2,60 2,64 0,5 -4,10 -10,10l-34 0c-5,0 -10,-5 -10,-10l0 -54c0,-6 5,-8 10,-10zm-26 -2c4,5 8,8 8,9l0 51c0,3 -3,6 -7,6l-15 0c-9,0 -17,-7 -17,-17l0 -40c0,-1 0,-6 0,-11l1 0 2 0 0 0 0 0 2 0 0 0 1 0 0 0 0 0 2 0 1 0 0 0 0 1 2 0 0 0 1 0 0 0 0 0 1 0 1 0 0 0 1 0 0 0 0 0 1 0 1 0 1 0 0 0 0 0 1 0 0 0 0 0 1 0 0 0 1 1 0 0 1 0 0 0 1 0 0 0 1 0 0 0 1 0 0 0 1 0 0 0 1 0 0 0 1 0 0 0 1 0 0 0 0 0 0 0 1 0 0 0 1 0zm-49 -5c4,3 6,5 6,6l0 47c0,3 -2,5 -5,5l-2 0c-13,0 -24,-11 -24,-24l0 -38 1 0 1 1 0 0 0 0 1 0 0 0 0 0 2 0 0 0 0 0 1 0 0 0 1 0 0 1 1 0 0 0 0 0 1 0 0 0 1 0 0 0 1 0 0 0 1 0 0 0 0 0 1 0 0 0 0 1 1 0 0 0 0 0 1 0 0 0 1 0 0 0 1 0 0 0 1 0 0 0 0 0 2 1 0 0 0 0 1 0 0 0 1 0 1 0 0 0 0 0 1 0 0 0 0 0 1 0 0 0z"/>
   <path class="fil11" d="M819 1282c0,0 -6,-6 -6,0 0,6 -4,34 5,32 9,-2 6,-8 6,-8 0,0 1,-20 -5,-24zm338 0c0,0 6,-6 6,0 0,6 3,34 -6,32 -9,-2 -6,-8 -6,-8 0,0 -1,-20 6,-24zm-130 17c0,0 15,-3 14,19 -1,22 5,31 -9,32 -15,2 -31,5 -32,-5 -2,-10 -3,-36 27,-46zm46 -1c0,0 15,-2 15,11 -1,12 3,33 -8,32 -11,-1 -17,1 -17,-12 0,-14 -3,-33 10,-31zm50 -9c0,0 14,8 8,22 -7,14 -6,19 -6,19 0,0 -6,10 -11,2 -4,-8 -6,-49 9,-43zm-174 10c0,0 -16,-3 -15,19 1,22 -5,31 10,32 14,2 30,5 32,-5 1,-10 2,-36 -27,-46zm-47 -1c0,0 -15,-2 -14,11 0,12 -3,33 7,32 11,-1 17,1 18,-12 0,-14 2,-33 -11,-31zm-50 -9c0,0 -14,8 -7,22 6,14 5,19 5,19 0,0 7,10 11,2 5,-8 7,-49 -9,-43z"/>
   <path class="fil10" d="M982 1372l-31 0c-3,0 -5,2 -5,5l0 51c0,3 2,5 5,5l31 0c2,0 5,-2 5,-5l0 -51c0,-3 -3,-5 -5,-5zm-160 -32l-15 0c-2,0 -4,2 -4,5l0 42c0,3 2,5 4,5l15 0c2,0 4,-2 4,-5l0 -42c0,-3 -2,-5 -4,-5zm30 13l-12 0c-4,0 -7,3 -7,6l0 46c0,4 3,7 7,7l12 0c3,0 6,-3 6,-7l0 -46c0,-3 -3,-6 -6,-6zm40 8l-20 0c-2,0 -3,2 -3,4l0 55c0,2 1,4 3,4l20 0c2,0 3,-2 3,-4l0 -55c0,-2 -1,-4 -3,-4zm44 6l-27 0c-2,0 -4,2 -4,4l0 51c0,3 2,4 4,5l28 10c2,1 3,-12 3,-15l0 -51c0,-2 -2,-4 -4,-4z"/>
   <path class="fil11" d="M982 1372l-26 0c0,0 -13,77 31,30l0 -25c0,-3 -3,-5 -5,-5zm-166 -32c2,8 5,18 10,22l0 -17c0,-3 -2,-5 -4,-5l-6 0zm32 13c-4,14 3,37 10,32l0 -26c0,-3 -3,-6 -6,-6l-4 0zm31 8c0,3 -3,49 16,35l0 -31c0,-2 -1,-4 -3,-4l-13 0zm32 6c0,0 0,68 28,41 1,-1 1,-1 1,-1l0 -36c0,-2 -2,-4 -4,-4l-25 0z"/>
   <path class="fil10" d="M1026 1372l5 0c3,0 5,2 5,5l0 51c0,2 0,3 -1,4 -7,1 -12,1 -17,1l-5 0 -13 0c-2,0 -5,-2 -5,-5l0 -26c44,47 31,-30 31,-30zm140 -32l9 0 0 0 0 11c0,11 -8,22 -19,32l0 -21c5,-4 8,-14 10,-22zm-32 13l8 0c4,0 7,3 7,6l0 30c-8,5 -16,10 -25,15l0 -19c7,5 14,-18 10,-32zm-31 8l7 0c2,0 3,2 3,4l0 44c-8,4 -17,7 -26,10l0 -23c19,14 16,-32 16,-35zm-32 6l2 0c2,0 4,2 4,4l0 51c0,0 0,0 0,1 -12,3 -24,6 -34,8 -1,-4 -1,-8 -1,-9l0 -15c0,0 0,0 1,1 28,27 28,-41 28,-41z"/>
   <path class="fil11" d="M1000 1372l26 0c0,0 13,77 -31,30l0 -25c0,-3 3,-5 5,-5zm166 -32c-2,8 -5,18 -10,22l0 -17c0,-3 2,-5 4,-5l6 0zm-32 13c4,14 -3,37 -10,32l0 -26c0,-3 3,-6 6,-6l4 0zm-31 8c0,3 3,49 -16,35l0 -31c0,-2 1,-4 3,-4l13 0zm-32 6c0,0 0,68 -28,41 -1,-1 -1,-1 -1,-1l0 -36c0,-2 2,-4 4,-4l25 0z"/>
   <path class="fil12" d="M1251 1183l0 132c-25,-30 -48,-50 -46,-24 4,57 2,61 -33,73 2,-5 3,-9 3,-13l0 -40c0,-7 0,-14 1,-20l0 0 0 -1 0 0 0 0 0 0 0 -2 0 0 0 -2 0 0 0 -1 0 -1 0 0 0 -1 0 0c0,-6 -1,-12 -1,-17l0 1 0 0 0 0c4,-57 38,-73 76,-84zm-532 132l0 -132c38,11 72,27 76,84l0 0 0 -1c0,5 0,11 0,17l0 0 0 1 0 0 0 1 0 1 0 0 0 2 0 0 0 2 0 0 0 0 0 0 0 1 0 0c0,6 0,13 0,20l0 40c0,4 2,8 3,13l0 0c-35,-12 -37,-16 -33,-73 2,-26 -21,-6 -46,24zm453 -46c1,-1 2,-1 3,-1 -1,0 -2,0 -3,1z"/>
   <path class="fil13" d="M631 448l714 0c100,0 182,81 182,182l0 239c-148,119 -335,190 -539,190 -204,0 -392,-71 -539,-190l0 -239c0,-101 82,-182 182,-182z"/>
  </g>
 </g>
</svg>
