<?xml version="1.0" encoding="UTF-8"?>
<!DOCTYPE svg PUBLIC "-//W3C//DTD SVG 1.1//EN" "http://www.w3.org/Graphics/SVG/1.1/DTD/svg11.dtd">
<!-- Creator: CorelDRAW X8 -->
<svg xmlns="http://www.w3.org/2000/svg" xml:space="preserve" width="34.8712mm" height="34.9007mm" version="1.1" style="shape-rendering:geometricPrecision; text-rendering:geometricPrecision; image-rendering:optimizeQuality; fill-rule:evenodd; clip-rule:evenodd"
viewBox="0 0 6668 6674"
 xmlns:xlink="http://www.w3.org/1999/xlink">
 <defs>
  <style type="text/css">
   <![CDATA[
    .str0 {stroke:black;stroke-width:38.2435}
    .fil7 {fill:black}
    .fil12 {fill:#1A1A1A}
    .fil3 {fill:#2C3D51}
    .fil0 {fill:#4D4D4D}
    .fil5 {fill:gray}
    .fil6 {fill:#B3B3B3}
    .fil10 {fill:#E6E6E6}
    .fil4 {fill:red}
    .fil11 {fill:white}
    .fil8 {fill:white;fill-opacity:0.188235}
    .fil9 {fill:white;fill-opacity:0.211765}
    .fil1 {fill:black;fill-opacity:0.301961}
    .fil13 {fill:white;fill-opacity:0.301961}
    .fil2 {fill:red;fill-opacity:0.678431}
   ]]>
  </style>
 </defs>
 <g id="Layer_x0020_1">
  <metadata id="CorelCorpID_0Corel-Layer"/>
  <g id="_2537608288560">
   <path class="fil0" d="M110 640c142,-141 368,-146 516,-14 -132,-148 -127,-374 14,-516 147,-147 385,-147 532,0 111,111 138,276 80,412 -21,137 -33,336 56,422 141,137 4500,4433 4500,4433 0,0 54,85 209,49 155,-36 610,-5 648,328 38,332 -282,446 -282,446l-168 16 -16 168c0,0 -113,320 -446,282 -333,-38 -364,-494 -328,-648 36,-155 -49,-209 -49,-209 0,0 -4295,-4359 -4433,-4501 -87,-89 -287,-76 -423,-55 -45,19 -92,28 -139,29l0 0 0 0c-98,1 -196,-36 -271,-110 -147,-147 -147,-385 0,-532z"/>
   <path class="fil1" d="M686 71c146,-106 353,-93 486,39 60,60 95,135 106,213 -152,-156 -374,-226 -592,-252zm5739 5395c121,49 223,138 240,288 15,136 -29,236 -88,306 -26,-200 -73,-410 -152,-594z"/>
   <path class="fil2" d="M5326 5111l485 485 0 -1 0 0 1 0 0 0 2 0 1 0 1 -1 2 0 1 -1 3 0 0 0 4 -1 1 0 4 -1 1 0 4 -2 2 0 4 -1 3 0 3 -1 7 -2 5 -1 2 0 7 -1 1 -1 8 -1c11,-2 22,-5 35,-7l4 -1c144,-25 395,-53 490,38l0 0c2,2 4,4 6,6 27,9 52,24 73,46 74,74 74,194 0,268 -7,7 -14,13 -22,19 -6,8 -12,15 -19,22 -74,74 -194,74 -268,0 -22,-22 -37,-47 -46,-74l0 0c0,0 -169,-45 -255,-15 -30,85 15,255 15,255l0 0c27,9 53,24 74,46 74,74 74,194 0,268 -7,7 -14,13 -22,19 -6,8 -12,15 -19,22 -74,74 -194,74 -268,0 -21,-21 -37,-46 -46,-73 -2,-2 -4,-4 -6,-6l0 0c-91,-96 -63,-346 -37,-491l0 -3c3,-13 5,-25 7,-35l2 -8 0 -1 1 -7 1 -2 1 -5 1 -7 1 -4 0 -2 1 -4 1 -2 1 -5 0 0 1 -5 0 0 1 -4 0 -1 1 -2 0 -2 0 -1 1 -2 0 -1 0 -1 0 0 1 -1 0 0 0 -1 -485 -485 -4165 -4241c-157,-3 -399,-11 -466,8 -14,9 -30,15 -46,19l0 0 0 0c-67,18 -141,0 -193,-52 -79,-78 -79,-205 0,-284 66,-66 167,-76 243,-31l0 0 1 0 0 0c6,4 182,101 260,41 3,-9 32,-39 41,-41 62,-81 -40,-261 -40,-261l0 -1c-45,-76 -35,-177 31,-243 79,-79 206,-79 284,0 65,65 76,163 33,240 -19,67 -11,266 -6,418l4245 4207z"/>
   <path class="fil0" d="M110 6028c142,142 368,147 516,15 -132,148 -127,374 14,516 147,147 385,147 532,0 111,-112 138,-276 80,-412 -21,-137 -33,-336 56,-422 141,-138 4500,-4433 4500,-4433 0,0 54,-85 209,-49 155,36 610,5 648,-328 38,-333 -282,-446 -282,-446l-168 -16 -16 -168c0,0 -113,-320 -446,-282 -333,38 -364,493 -328,648 36,155 -49,209 -49,209 0,0 -4295,4359 -4433,4500 -87,90 -287,77 -423,56 -45,-19 -92,-28 -139,-29l0 0 0 0c-98,-1 -196,36 -271,110 -147,147 -147,385 0,531z"/>
   <path class="fil1" d="M686 6597c146,107 353,94 486,-38 60,-60 95,-135 106,-213 -152,156 -374,226 -592,251zm5739 -5394c121,-49 223,-138 240,-288 15,-137 -29,-236 -88,-306 -26,200 -73,410 -152,594z"/>
   <path class="fil2" d="M5326 1558l485 -485 0 0 0 0 1 1 0 0 2 0 1 0 1 1 2 0 1 0 3 1 0 0 4 1 1 0 4 1 1 0 4 1 2 1 4 1 3 0 3 1 7 1 5 2 2 0 7 1 1 1 8 1c11,2 22,4 35,7l4 0c144,26 395,54 490,-37l0 0c2,-2 4,-4 6,-6 27,-9 52,-24 73,-46 74,-74 74,-194 0,-268 -7,-7 -14,-13 -22,-19 -6,-8 -12,-15 -19,-22 -74,-74 -194,-74 -268,0 -22,21 -37,47 -46,74l0 0c0,0 -169,45 -255,15 -30,-86 15,-255 15,-255l0 0c27,-9 53,-24 74,-46 74,-74 74,-194 0,-268 -7,-7 -14,-13 -22,-19 -6,-8 -12,-15 -19,-22 -74,-74 -194,-74 -268,0 -21,21 -37,46 -46,73 -2,2 -4,4 -6,6l0 0c-91,95 -63,346 -37,491l0 3c3,13 5,24 7,35l2 8 0 1 1 7 1 2 1 5 1 7 1 3 0 3 1 4 1 2 1 4 0 1 1 5 0 0 1 4 0 1 1 2 0 1 0 2 1 1 0 2 0 1 0 0 1 1 0 0 0 1 -485 484 -4165 4242c-157,3 -399,11 -466,-9 -14,-8 -30,-14 -46,-18l0 0 0 0c-67,-18 -141,0 -193,52 -79,78 -79,205 0,284 66,66 167,76 243,31l0 0 1 0 0 0c6,-4 182,-101 260,-41 3,9 32,39 41,41 62,80 -40,261 -40,261l0 0c-45,77 -35,178 31,244 79,78 206,78 284,0 65,-65 76,-163 33,-240 -19,-67 -11,-266 -6,-418l4245 -4207z"/>
   <path class="fil3" d="M834 3623c-172,-62 -295,-228 -295,-421 0,-212 146,-389 343,-437 258,-1116 1258,-1948 2452,-1948 1193,0 2192,830 2451,1944 207,40 363,222 363,441 0,201 -132,371 -314,428 -54,458 -230,878 -496,1227l1 0c0,0 246,71 -19,1817 0,0 -145,-706 -1278,-924l0 0c-225,66 -462,101 -708,101 -1292,0 -2357,-974 -2500,-2228z"/>
   <circle class="fil4" cx="3334" cy="3334" r="2239"/>
   <path class="fil3" d="M1220 906c181,0 328,147 328,328 0,180 -147,327 -328,327 -181,0 -327,-147 -327,-327 0,-181 146,-328 327,-328zm3139 -402c24,0 44,20 44,45 0,24 -20,44 -44,44 -25,0 -45,-20 -45,-44 0,-25 20,-45 45,-45zm-253 -116c36,0 65,30 65,66 0,36 -29,65 -65,65 -37,0 -66,-29 -66,-65 0,-36 29,-66 66,-66zm-317 -104c54,0 97,44 97,97 0,54 -43,97 -97,97 -53,0 -96,-43 -96,-97 0,-53 43,-97 96,-97zm-363 -77c77,0 139,62 139,139 0,77 -62,139 -139,139 -77,0 -139,-62 -139,-139 0,-77 62,-139 139,-139zm-468 -12c99,0 180,80 180,180 0,99 -81,180 -180,180 -100,0 -181,-81 -181,-180 0,-100 81,-180 181,-180zm-560 60c133,0 240,107 240,240 0,133 -107,240 -240,240 -133,0 -240,-107 -240,-240 0,-133 107,-240 240,-240zm-566 221c154,0 278,125 278,278 0,154 -124,278 -278,278 -154,0 -278,-124 -278,-278 0,-153 124,-278 278,-278z"/>
   <path class="fil5" d="M3813 1155c4,2 8,3 12,4 -4,-1 -8,-2 -12,-4zm43 12c4,1 8,2 12,3 -4,-1 -8,-2 -12,-3zm39 11c5,2 10,3 14,5 -4,-2 -9,-3 -14,-5zm42 13c5,2 10,4 15,6 -5,-2 -10,-4 -15,-6zm39 14c5,2 10,3 15,5 -5,-2 -10,-3 -15,-5zm39 14c7,2 13,5 20,8 -7,-3 -13,-6 -20,-8zm40 16c5,2 11,4 16,6 -5,-2 -11,-4 -16,-6zm35 14c9,4 17,8 26,12 -9,-4 -17,-8 -26,-12zm42 19c6,2 12,5 18,8 -6,-3 -12,-6 -18,-8zm32 15c10,4 20,9 30,15 -10,-6 -20,-11 -30,-15zm42 21c7,3 13,6 20,10 -7,-4 -13,-7 -20,-10zm29 15c12,6 23,13 35,19 -12,-6 -23,-13 -35,-19zm43 24c7,4 14,8 21,12 -7,-4 -14,-8 -21,-12zm25 14c14,8 27,17 41,25 -14,-8 -27,-17 -41,-25zm45 28c23,14 45,29 67,45 -22,-16 -44,-31 -67,-45zm68 45c420,294 691,754 691,1273 0,296 -89,574 -244,813l0 -1618 0 -9c-115,-177 -268,-334 -447,-459zm-2633 2051c-141,-231 -222,-496 -222,-778 0,-519 271,-980 692,-1274 -192,134 -352,303 -470,496l0 1556zm471 -2052c22,-16 45,-31 68,-45 -23,14 -46,29 -68,45zm73 -48c21,-14 43,-27 66,-40 -23,13 -45,26 -66,40zm74 -45c21,-11 43,-23 64,-34 -21,11 -43,23 -64,34zm76 -40c6,-3 13,-6 19,-9 -6,3 -13,6 -19,9zm35 -17c9,-4 19,-9 28,-13 -9,4 -19,9 -28,13zm43 -20c6,-3 12,-5 18,-8 -6,3 -12,5 -18,8zm37 -16c8,-3 16,-6 24,-10 -8,4 -16,7 -24,10zm44 -17c5,-2 10,-4 15,-6 -5,2 -10,4 -15,6zm39 -15c6,-2 12,-4 18,-7 -6,3 -12,5 -18,7zm43 -15c4,-2 9,-3 14,-5 -5,2 -10,3 -14,5zm39 -13c4,-1 8,-2 13,-4 -5,2 -9,3 -13,4zm44 -13c4,-1 9,-3 13,-4 -4,1 -9,3 -13,4zm40 -11c3,-1 7,-2 10,-3 -3,1 -7,2 -10,3zm45 -11c4,-1 8,-2 12,-3 -4,1 -8,2 -12,3zm40 -9c4,-1 7,-2 11,-2 -4,0 -7,1 -11,2zm47 -10c4,0 7,-1 11,-2 -4,1 -7,2 -11,2zm40 -7c4,0 7,-1 11,-1 -4,0 -7,1 -11,1zm48 -7c3,0 6,-1 9,-1 -3,0 -6,1 -9,1zm131 -14c3,0 7,0 10,-1 -3,1 -7,1 -10,1zm50 -3c1,0 3,0 5,0 -2,0 -4,0 -5,0z"/>
   <path class="fil6" d="M4415 4162l0 744c-493,282 -428,698 -1092,665 -664,33 -599,-383 -1092,-665l0 -744c157,43 293,109 313,345l0 0 0 -3c-2,18 -3,41 -3,69l0 0 0 3 0 0 0 3 0 5 0 0 0 9 0 0 0 6 0 0 0 3 0 0 0 3 0 1c0,24 1,51 3,81l0 162c0,187 458,340 644,340l22 0 226 0 22 0c187,0 644,-153 644,-340l0 -162c2,-30 3,-57 3,-81l0 -1 0 -3 0 0 0 -3 0 0 0 -6 0 0 0 -9 0 0 0 -5 0 -3 0 0 0 -3 0 0c0,-28 -1,-51 -2,-69l-1 3 0 -2 0 3c19,-237 156,-302 313,-346zm-1103 435l11 0 -11 0 0 0zm22 0l11 0 1 0 10 0 12 0 0 0 11 0 11 0 1 0 11 0 11 0 1 0 11 0 -12 0 -11 0 0 0 -12 0 -11 0 0 0 -11 0 -11 0 -1 0 -11 0 -11 0 0 0zm757 -84c3,-2 7,-3 11,-4 -4,1 -8,2 -11,4z"/>
   <path class="fil6" d="M4863 1889l0 9 0 2018 0 11c-192,327 -723,97 -761,582 -258,76 -530,88 -768,88l-11 0 0 0 -11 0c-239,0 -510,-12 -768,-88 -38,-485 -570,-255 -761,-582l0 -11 0 -1991c302,-494 883,-829 1551,-829 652,0 1221,319 1529,793z"/>
   <path class="fil7" d="M2757 2795c270,0 384,253 384,523 0,269 -294,502 -564,502 -270,0 -564,-53 -564,-322 0,-121 19,-365 149,-498 159,-164 446,-205 595,-205zm1137 0c-269,0 -384,253 -384,523 0,269 295,502 564,502 270,0 565,-53 565,-322 0,-121 -20,-365 -149,-498 -160,-164 -447,-205 -596,-205z"/>
   <path class="fil7" d="M3331 3665c130,0 416,575 164,575 -30,0 -57,-15 -72,-38 -2,0 -3,-1 -3,-1 0,0 -16,-46 -90,-47 -51,1 -74,22 -84,36 -2,4 -4,8 -6,11l0 0 0 0c-16,24 -43,39 -73,39 -275,0 38,-575 164,-575z"/>
   <g>
    <path class="fil8" d="M2600 3204c185,0 334,105 334,235 0,129 -149,234 -334,234 -184,0 -334,-105 -334,-234 0,-130 150,-235 334,-235z"/>
    <path class="fil8" d="M4051 3204c184,0 334,105 334,235 0,129 -150,234 -334,234 -184,0 -334,-105 -334,-234 0,-130 150,-235 334,-235z"/>
   </g>
   <path class="fil9" d="M3334 4105c-341,98 -36,-301 0,-301 44,0 334,397 0,301z"/>
   <path class="fil7 str0" d="M2544 4509c258,76 529,88 768,88l11 0 0 0 11 0c235,0 502,-12 757,-84l0 -1 0 0 0 0 0 0 0 0 1 0 8 -2 1 0 0 0 0 -1 0 0 0 0 1 0 0 0c0,0 1,0 1,0 1,17 2,37 2,61l0 0 0 2 0 1 0 0 0 3 0 0 0 3 0 5 0 0 0 9 0 0 0 6 0 0 0 3 0 0 0 3 0 1c0,24 -1,51 -3,81l0 162c0,3 0,6 0,8l0 1c0,3 -1,5 -1,8l0 1c-1,2 -1,5 -2,7l0 2c-1,2 -1,4 -2,6l-1 3c0,2 -1,4 -1,5 -1,2 -1,3 -2,4 0,1 -1,3 -1,4 -1,2 -2,3 -2,4l0 0c-74,162 -464,287 -632,287l-248 0c-178,0 -574,-113 -653,-286 -1,-2 -2,-3 -2,-5 -1,-1 -2,-3 -2,-4 -1,-1 -1,-2 -1,-4 -1,-1 -2,-3 -2,-5l-1 -3c-1,-2 -1,-4 -2,-6l0 -2c-1,-2 -1,-5 -2,-7l0 -1c0,-3 0,-5 -1,-8l0 0c0,-3 0,-6 0,-9l0 -162c-2,-30 -3,-57 -3,-81l0 -1 0 -3 0 0 0 -3 0 0 0 -6 0 0 0 -9 0 0 0 -5 0 -3 0 0 0 -3 0 0 0 -1 0 -2 0 0c0,-4 1,-46 2,-61 1,0 1,0 1,0z"/>
   <path class="fil10" d="M2607 4719l58 0c9,0 16,-7 16,-16l0 -144c0,-3 -8,-10 -19,-20l0 0 -1 0 -1 0 -1 0 -1 -1 -2 0 -5 -1 -1 0 -1 0 -1 -1 -1 0 -1 0 -1 0 -1 -1 -1 0 -3 0 -1 -1 -1 0 -1 0 -1 0 -2 -1 -1 0 -1 0 -1 -1 -3 0 -2 -1 -1 0 -1 0 -1 -1 -1 0 -1 0 -1 0 -1 -1 0 0 -3 0 0 0 -1 -1 -1 0 -1 0 -1 0 -4 -1 -1 0 -1 -1 -2 0 -1 -1 -1 0 -6 -1 -2 -1 -1 0c-1,16 -2,32 -2,36l0 144c0,9 7,16 16,16zm32 -151c0,0 -24,-26 -24,-1 0,26 -14,140 23,132 37,-8 25,-31 25,-31 0,0 4,-85 -24,-100zm1389 0c0,0 25,-26 25,-1 0,26 13,140 -23,132 -37,-8 -25,-31 -25,-31 0,0 -5,-85 23,-100zm-534 70c0,0 64,-11 60,79 -4,90 19,126 -40,132 -60,5 -125,18 -131,-24 -5,-42 -11,-148 111,-187zm190 -5c0,0 64,-7 61,44 -3,51 12,136 -32,133 -44,-3 -69,3 -71,-51 -1,-54 -11,-132 42,-126zm207 -38c0,0 56,35 30,92 -27,57 -22,78 -22,78 0,0 -27,41 -46,7 -19,-33 -27,-201 38,-177zm-718 43c0,0 -63,-11 -59,79 4,90 -20,126 40,132 60,5 125,18 130,-24 6,-42 11,-148 -111,-187zm-189 -5c0,0 -64,-7 -61,44 2,51 -13,136 32,133 44,-3 69,3 70,-51 2,-54 11,-132 -41,-126zm-207 -38c0,0 -57,35 -30,92 26,57 21,78 21,78 0,0 28,41 47,7 18,-33 27,-201 -38,-177zm1285 124l-58 0c-8,0 -16,-7 -16,-16l0 -144c0,-3 8,-10 19,-20 23,-5 46,-10 69,-16 1,16 2,32 2,36l0 144c0,9 -7,16 -16,16zm-527 -123l-4 -1c-58,2 -114,2 -169,2 -14,89 -8,246 -8,262 0,22 19,40 41,40l140 0c22,0 40,-18 40,-40l0 -223c0,-22 -20,-32 -40,-40zm108 -7c-19,18 -32,32 -32,37l0 207c0,15 12,27 27,27l61 0c38,0 70,-31 70,-69l0 -165c0,-5 0,-25 -1,-48 -42,5 -84,8 -125,11zm199 -20c-15,11 -24,20 -24,24l0 192c0,12 9,21 21,21l7 0c54,0 99,-44 99,-99l0 -155c-34,7 -69,12 -103,17zm-708 27l4 -1 1 0 2 0 2 0 3 0 3 0 2 0 0 0 3 0 3 0 2 0 3 0 1 0 2 0 3 0 5 1 2 0 1 0 2 0 3 0 3 0 2 0 0 0 3 0 3 0 2 0 3 0 1 0 2 0 2 0 3 0 3 0 1 0 1 0 3 0 3 1 2 0 3 0 0 0 3 0 2 0 3 0 3 0 0 0 2 0 3 0 2 0 3 0 2 0 1 0 2 0 3 0 3 0 2 0 0 0 3 0 2 0 3 0 3 0 1 0 1 0 3 0 3 0 2 0 2 0 1 0 2 0 3 0 2 0 3 0 0 0 3 0 2 0 3 0 2 0 2 0 1 0 3 0 2 0c14,89 8,246 8,262 0,22 -18,40 -40,40l-141 0c-22,0 -40,-18 -40,-40l0 -223c0,-22 20,-32 40,-40zm-108 -7c19,18 32,32 32,37l0 207c0,15 -12,27 -27,27l-61 0c-38,0 -69,-31 -69,-69l0 -165c0,-5 0,-25 0,-48l2 0 8 1 0 0 2 0 6 1 2 0 2 0 0 1 2 0 9 1 1 0 1 0 2 0 6 1 2 0 1 0 1 0 2 0 2 0 4 1 2 0 2 0 0 0 2 0 2 0 6 1 2 0 0 0 2 0 2 0 2 0 2 1 2 0 2 0 1 0 2 0 2 0 2 1 2 0 2 0 2 0 2 0 2 0 2 0 2 1 2 0 2 0 2 0 2 0 2 0 2 0 2 1 1 0 1 0 2 0 2 0 1 0zm-199 -20c15,11 24,20 24,24l0 192c0,12 -9,21 -21,21l-7 0c-54,0 -99,-44 -99,-99l0 -155 2 0 4 1 0 0 2 1 2 0 1 0 2 1 5 0 1 1 2 0 2 0 1 1 2 0 3 0 2 1 1 0 2 0 2 1 1 0 2 0 3 1 2 0 1 0 2 0 1 1 2 0 2 0 0 0 1 1 2 0 2 0 1 0 2 1 1 0 2 0 3 1 2 0 2 0 1 0 2 1 1 0 5 1 2 0 1 0 2 0 2 1 1 0 5 0 2 1 1 0 2 0 2 0 0 0 3 1 1 0z"/>
   <path class="fil11" d="M2639 4568c0,0 -24,-26 -24,-1 0,26 -14,140 23,132 37,-8 25,-31 25,-31 0,0 4,-85 -24,-100zm1389 0c0,0 25,-26 25,-1 0,26 13,140 -23,132 -37,-8 -25,-31 -25,-31 0,0 -5,-85 23,-100zm-534 70c0,0 64,-11 60,79 -4,90 19,126 -40,132 -60,5 -125,18 -131,-24 -5,-42 -11,-148 111,-187zm190 -5c0,0 64,-7 61,44 -3,51 12,136 -32,133 -44,-3 -69,3 -71,-51 -1,-54 -11,-132 42,-126zm207 -38c0,0 56,35 30,92 -27,57 -22,78 -22,78 0,0 -27,41 -46,7 -19,-33 -27,-201 38,-177zm-718 43c0,0 -63,-11 -59,79 4,90 -20,126 40,132 60,5 125,18 130,-24 6,-42 11,-148 -111,-187zm-189 -5c0,0 -64,-7 -61,44 2,51 -13,136 32,133 44,-3 69,3 70,-51 2,-54 11,-132 -41,-126zm-207 -38c0,0 -57,35 -30,92 26,57 21,78 21,78 0,0 28,41 47,7 18,-33 27,-201 -38,-177z"/>
   <path class="fil10" d="M3309 4936l-127 0c-12,0 -21,9 -21,21l0 211c0,11 9,21 21,21l127 0c11,0 21,-10 21,-21l0 -211c0,-12 -10,-21 -21,-21zm-657 -130l-59 0c-10,0 -18,8 -18,18l0 176c0,10 8,18 18,18l59 0c10,0 19,-8 19,-18l0 -176c0,-10 -9,-18 -19,-18zm124 53l-50 0c-14,0 -26,12 -26,26l0 188c0,15 12,27 26,27l50 0c14,0 26,-12 26,-27l0 -188c0,-14 -12,-26 -26,-26zm163 35l-80 0c-8,0 -14,7 -14,16l0 223c0,9 6,17 14,17l80 0c8,0 14,-8 14,-17l0 -223c0,-9 -6,-16 -14,-16zm182 22l-109 0c-9,0 -17,8 -17,18l0 209c0,10 8,15 17,19l114 43c9,3 13,-52 13,-62l0 -209c0,-10 -8,-18 -18,-18z"/>
   <path class="fil11" d="M3309 4936l-107 0c0,0 -51,317 128,126l0 -105c0,-12 -10,-21 -21,-21zm-681 -130c8,33 21,73 43,91l0 -73c0,-10 -9,-18 -19,-18l-24 0zm134 53c-20,59 8,154 40,132l0 -106c0,-14 -12,-26 -26,-26l-14 0zm125 35c-1,12 -13,200 66,140l0 -124c0,-9 -6,-16 -14,-16l-52 0zm133 22c0,0 0,280 115,168 1,-1 3,-2 4,-2l0 -148c0,-10 -8,-18 -18,-18l-101 0z"/>
   <path class="fil10" d="M3492 4936l21 0c11,0 21,9 21,21l0 211c0,6 -3,12 -8,16 -25,3 -48,5 -68,5l-22 0 -50 0c-12,0 -21,-10 -21,-21l0 -106c179,191 127,-126 127,-126zm574 -130l35 0 1 0 0 43c0,48 -30,94 -78,135l0 -87c21,-18 35,-58 42,-91zm-133 53l35 0c15,0 27,12 27,26l0 122c-30,22 -65,43 -103,62l0 -78c32,22 61,-73 41,-132zm-125 35l28 0c7,0 13,7 13,16l0 179c-35,16 -71,30 -108,42l0 -97c79,60 68,-128 67,-140zm-133 22l8 0c9,0 17,8 17,18l0 209c0,1 0,1 0,2 -49,14 -98,26 -141,33 -2,-14 -3,-30 -3,-35l0 -61c1,0 2,1 4,2 114,112 115,-168 115,-168z"/>
   <path class="fil11" d="M3386 4936l106 0c0,0 52,317 -127,126l0 -105c0,-12 9,-21 21,-21zm680 -130c-7,33 -21,73 -42,91l0 -73c0,-10 8,-18 18,-18l24 0zm-133 53c20,59 -9,154 -41,132l0 -106c0,-14 12,-26 27,-26l14 0zm-125 35c1,12 12,200 -67,140l0 -124c0,-9 7,-16 14,-16l53 0zm-133 22c0,0 -1,280 -115,168 -2,-1 -3,-2 -4,-2l0 -148c0,-10 8,-18 17,-18l102 0z"/>
   <path class="fil12" d="M4415 4162l0 541c-103,-121 -197,-204 -189,-97 17,232 9,250 -136,296 8,-17 12,-35 12,-53l0 -162c2,-30 3,-57 3,-81l0 -1 0 -3 0 0 0 -3 0 0 0 -6 0 0 0 -9 0 0 0 -5 0 -3 0 0 0 -3 0 0c0,-28 -1,-51 -2,-69l-1 3 0 -2 0 3c19,-237 156,-302 313,-346zm-2184 541l0 -541c157,43 293,109 313,345l0 0 0 -3c-2,18 -3,41 -3,69l0 0 0 3 0 0 0 3 0 5 0 0 0 9 0 0 0 6 0 0 0 3 0 0 0 3 0 1c0,24 1,51 3,81l0 162c0,18 4,36 13,54l-1 0c-146,-47 -153,-65 -136,-297 8,-107 -86,-24 -189,97zm1860 -190c3,-2 7,-3 11,-4 -4,1 -8,2 -11,4z"/>
   <path class="fil13" d="M3334 1096c962,0 1782,606 2099,1457 -556,630 -1292,1013 -2099,1013 -807,0 -1543,-383 -2099,-1013 317,-851 1137,-1457 2099,-1457z"/>
  </g>
 </g>
</svg>
