<?xml version="1.0" encoding="UTF-8"?>
<!DOCTYPE svg PUBLIC "-//W3C//DTD SVG 1.1//EN" "http://www.w3.org/Graphics/SVG/1.1/DTD/svg11.dtd">
<!-- Creator: CorelDRAW X8 -->
<svg xmlns="http://www.w3.org/2000/svg" xml:space="preserve" width="31.564mm" height="35.6728mm" version="1.1" style="shape-rendering:geometricPrecision; text-rendering:geometricPrecision; image-rendering:optimizeQuality; fill-rule:evenodd; clip-rule:evenodd"
viewBox="0 0 357 403"
 xmlns:xlink="http://www.w3.org/1999/xlink">
 <defs>
  <style type="text/css">
   <![CDATA[
    .fil3 {fill:#1A1626}
    .fil0 {fill:#2C3D51}
    .fil5 {fill:#E33443}
    .fil1 {fill:#FEC12B}
    .fil4 {fill:white}
    .fil6 {fill:#00CCFF;fill-rule:nonzero}
    .fil2 {fill:white;fill-opacity:0.301961}
   ]]>
  </style>
     <mask id="id0">
  <radialGradient id="id1" gradientUnits="userSpaceOnUse" cx="285.369" cy="131.709" r="0" fx="285.369" fy="131.709">
   <stop offset="0" style="stop-opacity:1; stop-color:white"/>
   <stop offset="1" style="stop-opacity:0; stop-color:white"/>
  </radialGradient>
      <rect style="fill:url(#id1)" x="284" y="131" width="16.2432" height="36.8219"/>
     </mask>
 </defs>
 <g id="Layer_x0020_1">
  <metadata id="CorelCorpID_0Corel-Layer"/>
  <g id="_2537737281136">
   <path class="fil0" d="M0 62l0 8c0,0 1,1 1,1 0,2 1,4 2,6 1,1 2,2 3,3l0 0 0 0c3,3 7,5 12,5l0 0 0 0 0 0c10,0 19,-7 19,-18 0,-11 -7,-17 -15,-19l-1 0 0 0 0 0 0 0 0 0c-1,0 -1,0 -1,0l0 0 -1 0c-5,0 -10,1 -14,6 -1,1 -2,3 -3,5l-2 2c0,0 0,0 0,1zm38 91c-14,0 -25,11 -25,25 0,14 11,26 25,26 0,0 1,0 1,0l0 72c0,27 22,49 50,49l118 0c0,1 1,1 1,1 43,51 31,77 31,77 54,-61 46,-73 58,-80 2,0 5,-1 7,-2l0 0 0 0c17,-8 28,-26 28,-45l0 -72c14,-1 25,-12 25,-26 0,-14 -11,-25 -25,-25l0 -72c0,-28 -22,-50 -49,-50l-194 0c-28,0 -50,22 -50,50l0 72c0,0 -1,0 -1,0zm-10 -123c1,6 5,10 11,11 1,0 2,1 4,1 3,0 6,-1 8,-3 6,-3 9,-8 7,-17 -1,-5 -5,-9 -9,-10 -2,-1 -4,-1 -6,-1 -4,0 -7,1 -9,3 -5,3 -8,8 -6,16zm52 -30c7,0 13,6 13,12 0,7 -6,13 -13,13 -6,0 -12,-6 -12,-13 0,-6 6,-12 12,-12zm125 9c2,0 3,2 3,3 0,2 -1,3 -3,3 -2,0 -3,-1 -3,-3 0,-1 1,-3 3,-3zm-16 -1c3,0 4,2 4,4 0,3 -1,5 -4,5 -2,0 -4,-2 -4,-5 0,-2 2,-4 4,-4zm-21 -2c4,0 6,3 6,6 0,4 -2,6 -6,6 -3,0 -6,-2 -6,-6 0,-3 3,-6 6,-6zm-23 -1c4,0 8,3 8,7 0,4 -4,8 -8,8 -4,0 -7,-4 -7,-8 0,-4 3,-7 7,-7zm-29 -2c6,0 10,4 10,9 0,6 -4,10 -10,10 -5,0 -9,-4 -9,-10 0,-5 4,-9 9,-9z"/>
   <rect class="fil1" x="57" y="50" width="257" height="257" rx="43" ry="8"/>
   <path class="fil2" d="M101 50l170 0c24,0 43,19 43,43l0 57c-35,28 -80,45 -128,45 -49,0 -93,-17 -129,-45l0 -57c0,-24 20,-43 44,-43z"/>
   <path class="fil3" d="M264 155c3,0 5,-2 5,-5 0,0 0,-1 0,-1 -1,-2 -1,-3 -1,-4 -5,-23 -20,-40 -38,-40 -18,0 -34,19 -38,44 -1,0 -1,1 -1,1 0,3 2,5 5,5 3,0 5,-5 5,-5 7,-13 17,-21 29,-21 12,0 22,8 29,21 0,0 2,5 5,5z"/>
   <path class="fil3" d="M95 155c-3,0 -5,-2 -5,-5 0,0 0,-1 1,-1 0,-2 0,-3 0,-4 6,-23 21,-40 38,-40 19,0 34,19 39,44 0,0 0,1 0,1 0,3 -2,5 -5,5 -3,0 -5,-5 -5,-5 -7,-13 -17,-21 -29,-21 -12,0 -22,8 -29,21 0,0 -2,5 -5,5z"/>
   <path class="fil3" d="M279 215c2,5 3,11 3,16 0,39 -43,71 -96,71 -53,0 -96,-32 -96,-71 0,-5 1,-11 2,-16 1,-13 62,-14 94,-14l0 0 0 0c31,0 93,1 93,14z"/>
   <path class="fil4" d="M274 231l0 0c0,4 -3,7 -7,7l0 0 -162 0 0 0c-4,0 -7,-3 -7,-7l0 0c-2,-25 82,-22 88,-22 5,0 89,-3 88,22z"/>
   <ellipse class="fil5" cx="186" cy="281" rx="44" ry="12"/>
   <g>
    <path class="fil6" d="M302 85c8,35 32,52 32,69 0,18 -8,35 -32,35 -24,0 -32,-17 -32,-35 0,-17 24,-34 32,-69z"/>
    <path class="fil4" style="mask:url(#id0)" d="M297 132c3,1 3,9 1,18 -3,10 -7,17 -10,16 -3,-1 -3,-9 -1,-18 3,-10 7,-17 10,-16z"/>
   </g>
  </g>
 </g>
</svg>
