<?xml version="1.0" encoding="UTF-8"?>
<!DOCTYPE svg PUBLIC "-//W3C//DTD SVG 1.1//EN" "http://www.w3.org/Graphics/SVG/1.1/DTD/svg11.dtd">
<!-- Creator: CorelDRAW X8 -->
<svg xmlns="http://www.w3.org/2000/svg" xml:space="preserve" width="29.3356mm" height="33.8834mm" version="1.1" style="shape-rendering:geometricPrecision; text-rendering:geometricPrecision; image-rendering:optimizeQuality; fill-rule:evenodd; clip-rule:evenodd"
viewBox="0 0 389 450"
 xmlns:xlink="http://www.w3.org/1999/xlink">
 <defs>
  <style type="text/css">
   <![CDATA[
    .str2 {stroke:black;stroke-width:2.65332;stroke-opacity:0.721569}
    .str0 {stroke:black;stroke-width:2.65332}
    .str1 {stroke:black;stroke-width:1.01091}
    .fil9 {fill:black}
    .fil0 {fill:#2C3D51}
    .fil7 {fill:#333333}
    .fil6 {fill:#DF8E29}
    .fil3 {fill:#F65D72}
    .fil5 {fill:#FEC12B}
    .fil4 {fill:#FEFEFE}
    .fil1 {fill:#FFBD2D}
    .fil2 {fill:white;fill-opacity:0.301961}
    .fil10 {fill:url(#id0);fill-opacity:0.721569}
    .fil8 {fill:url(#id1);fill-opacity:0.721569}
   ]]>
  </style>
  <linearGradient id="id0" gradientUnits="userSpaceOnUse" x1="286.805" y1="130.786" x2="270.639" y2="232.969">
   <stop offset="0" style="stop-opacity:1; stop-color:lime"/>
   <stop offset="1" style="stop-opacity:1; stop-color:#FFD900"/>
  </linearGradient>
  <linearGradient id="id1" gradientUnits="userSpaceOnUse" xlink:href="#id0" x1="101.064" y1="130.786" x2="117.23" y2="232.969">
  </linearGradient>
 </defs>
 <g id="Layer_x0020_1">
  <metadata id="CorelCorpID_0Corel-Layer"/>
  <g id="_2537817355712">
   <path class="fil0" d="M20 238c-11,-4 -20,-16 -20,-29 0,-13 8,-24 19,-29 2,-1 3,-1 5,-2 18,-77 87,-135 170,-135 83,0 152,58 170,135 14,3 25,15 25,31 0,14 -9,25 -22,29 -3,32 -16,61 -34,85l0 0c0,0 17,5 -1,127 0,0 -10,-49 -89,-65l0 0c-16,5 -32,7 -49,7 -90,0 -164,-67 -174,-154z"/>
   <circle class="fil1" cx="194" cy="218" r="155"/>
   <path class="fil2" d="M194 63c67,0 124,42 146,101 -39,43 -90,70 -146,70 -56,0 -107,-27 -146,-70 22,-59 79,-101 146,-101z"/>
   <path class="fil0" d="M47 49c13,0 23,11 23,23 0,13 -10,23 -23,23 -12,0 -22,-10 -22,-23 0,-12 10,-23 22,-23zm218 -28c2,0 3,2 3,4 0,1 -1,3 -3,3 -2,0 -3,-2 -3,-3 0,-2 1,-4 3,-4zm-18 -8c3,0 5,2 5,5 0,3 -2,5 -5,5 -2,0 -4,-2 -4,-5 0,-3 2,-5 4,-5zm-21 -7c3,0 6,3 6,7 0,4 -3,7 -6,7 -4,0 -7,-3 -7,-7 0,-4 3,-7 7,-7zm-26 -5c6,0 10,4 10,10 0,5 -4,9 -10,9 -5,0 -9,-4 -9,-9 0,-6 4,-10 9,-10zm-32 -1c7,0 12,6 12,13 0,6 -5,12 -12,12 -7,0 -13,-6 -13,-12 0,-7 6,-13 13,-13zm-39 4c9,0 17,8 17,17 0,9 -8,17 -17,17 -9,0 -17,-8 -17,-17 0,-9 8,-17 17,-17zm-39 16c10,0 19,8 19,19 0,10 -9,19 -19,19 -11,0 -20,-9 -20,-19 0,-11 9,-19 20,-19z"/>
   <g>
    <path class="fil0 str0" d="M279 294c0,0 0,0 0,0 0,1 0,1 0,2 -1,34 -39,61 -85,61l0 0 0 0 0 0 0 0c-46,0 -84,-27 -85,-61 0,-1 0,-1 0,-2 0,0 0,0 0,0 -1,-28 49,-28 85,-28l0 0 0 0c36,0 86,0 85,28z"/>
    <ellipse class="fil3" cx="194" cy="333" rx="40" ry="11"/>
    <path class="fil4" d="M123 307l143 0 1 0 0 0 0 0 0 0 0 0 0 0 0 0 0 0 1 0 0 0 0 0 0 0 0 0 0 0 0 0 0 -1 1 0 0 0 0 0 0 0 0 0 0 0c0,0 0,0 0,0 1,0 1,0 1,0l0 0 0 -1 0 0 0 0 0 0 1 0 0 0 0 0 0 -1 0 0 0 0 0 0 0 0 0 -1c0,0 0,0 0,0l1 0 0 0 0 0 0 -1 0 0 0 0c0,0 0,0 0,0l0 0 0 0 0 -11c0,-14 -47,-15 -77,-15l0 0c-31,0 -78,1 -78,15l0 11 0 0 0 0c0,0 0,0 0,0l0 0 0 0 0 1 0 0 1 0 0 0c0,0 0,0 0,0l0 1 0 0 0 0 0 0 0 0 0 1 0 0 0 0 1 0 0 0 0 0 0 0 0 1 0 0c0,0 0,0 1,0 0,0 0,0 0,0l0 0 0 0 0 0 0 0 0 0 1 0 0 1 0 0 0 0 0 0 0 0 0 0 0 0 1 0 0 0 0 0 0 0 0 0 0 0 0 0 1 0 0 0z"/>
    <polygon class="fil5" points="271,289 268,289 120,289 118,289 118,289 118,290 117,290 117,291 117,291 117,294 272,294 272,291 272,291 272,290 272,290 271,289 "/>
    <path class="fil6 str1" d="M134 285l15 0c1,0 2,1 2,2l0 8c0,1 -1,2 -2,2l-15 0c-1,0 -1,-1 -1,-2l0 -8c0,-1 0,-2 1,-2zm106 0l15 0c1,0 1,1 1,2l0 8c0,1 0,2 -1,2l-15 0c-1,0 -2,-1 -2,-2l0 -8c0,-1 1,-2 2,-2zm-35 0l14 0c1,0 2,1 2,2l0 8c0,1 -1,2 -2,2l-14 0c-1,0 -2,-1 -2,-2l0 -8c0,-1 1,-2 2,-2zm-35 0l14 0c1,0 2,1 2,2l0 8c0,1 -1,2 -2,2l-14 0c-1,0 -2,-1 -2,-2l0 -8c0,-1 1,-2 2,-2z"/>
   </g>
   <ellipse class="fil7" cx="125" cy="180" rx="22" ry="29"/>
   <ellipse class="fil7" cx="263" cy="180" rx="22" ry="29"/>
   <path class="fil8 str2" d="M109 131c20,0 43,2 55,10 10,7 10,18 10,28 0,21 -21,64 -70,64 -11,0 -20,1 -27,-2 -27,-12 -33,-45 -33,-62 0,-9 0,-20 9,-27 12,-9 36,-11 56,-11z"/>
   <path class="fil9 str0" d="M366 136l-18 0c0,0 -16,-14 -61,-14 -45,0 -69,14 -69,14l-24 25 24 -25 -48 0c0,0 -24,-14 -69,-14 -45,0 -62,14 -62,14l-17 0 0 12 0 13c12,0 18,25 18,25 0,0 5,16 12,31 9,23 34,27 55,27 42,0 60,-23 71,-59 6,-24 16,-24 16,-24l0 0 0 0 0 0c0,0 10,0 16,24 11,36 29,59 71,59 21,0 46,-4 55,-27 6,-15 12,-31 12,-31 0,0 6,-25 18,-25l0 -13 0 -12zm-257 -5c20,0 43,2 55,10 10,7 10,18 10,28 0,21 -21,64 -70,64 -11,0 -20,1 -27,-2 -27,-12 -33,-45 -33,-62 0,-9 0,-20 9,-27 12,-9 36,-11 56,-11zm170 0c-20,0 -43,2 -55,10 -10,7 -10,18 -10,28 0,21 21,64 70,64 11,0 20,1 27,-2 27,-12 33,-45 33,-62 0,-9 0,-20 -9,-27 -12,-9 -36,-11 -56,-11z"/>
   <path class="fil10 str2" d="M279 131c-20,0 -43,2 -55,10 -10,7 -10,18 -10,28 0,21 21,64 70,64 11,0 20,1 27,-2 27,-12 33,-45 33,-62 0,-9 0,-20 -9,-27 -12,-9 -36,-11 -56,-11z"/>
   <polygon class="fil9" points="33,144 20,134 16,181 24,178 28,164 "/>
   <polygon class="fil9" points="354,144 367,134 371,180 364,178 359,164 "/>
  </g>
 </g>
</svg>
