<?xml version="1.0" encoding="UTF-8"?>
<!DOCTYPE svg PUBLIC "-//W3C//DTD SVG 1.1//EN" "http://www.w3.org/Graphics/SVG/1.1/DTD/svg11.dtd">
<!-- Creator: CorelDRAW X8 -->
<svg xmlns="http://www.w3.org/2000/svg" xml:space="preserve" width="31.564mm" height="35.6728mm" version="1.1" style="shape-rendering:geometricPrecision; text-rendering:geometricPrecision; image-rendering:optimizeQuality; fill-rule:evenodd; clip-rule:evenodd"
viewBox="0 0 831 939"
 xmlns:xlink="http://www.w3.org/1999/xlink">
 <defs>
  <style type="text/css">
   <![CDATA[
    .str0 {stroke:black;stroke-width:5.26525;stroke-opacity:0.721569}
    .str1 {stroke:black;stroke-width:5.26525}
    .str2 {stroke:black;stroke-width:2.00606}
    .fil5 {fill:black}
    .fil0 {fill:#2C3D51}
    .fil3 {fill:#333333}
    .fil10 {fill:#DF8E29}
    .fil7 {fill:#F65D72}
    .fil1 {fill:#FEC12B}
    .fil9 {fill:#FEC12B}
    .fil8 {fill:#FEFEFE}
    .fil2 {fill:white;fill-opacity:0.301961}
    .fil6 {fill:url(#id0);fill-opacity:0.721569}
    .fil4 {fill:url(#id1);fill-opacity:0.721569}
   ]]>
  </style>
  <linearGradient id="id0" gradientUnits="userSpaceOnUse" x1="616.64" y1="267.29" x2="584.56" y2="470.063">
   <stop offset="0" style="stop-opacity:1; stop-color:lime"/>
   <stop offset="1" style="stop-opacity:1; stop-color:#FFD900"/>
  </linearGradient>
  <linearGradient id="id1" gradientUnits="userSpaceOnUse" xlink:href="#id0" x1="248.054" y1="267.29" x2="280.134" y2="470.063">
  </linearGradient>
 </defs>
 <g id="Layer_x0020_1">
  <metadata id="CorelCorpID_0Corel-Layer"/>
  <g id="_2537817371968">
   <path class="fil0" d="M0 143l0 20c1,1 1,2 2,3 1,4 3,9 6,12 1,3 3,5 6,8l0 0 0 0c8,7 17,11 28,11l0 0 0 0 0 0c23,1 44,-15 44,-41 1,-25 -16,-40 -35,-44l-1 0 0 0 -1 0 -1 0 0 0c-1,0 -1,0 -2,0l0 0 -1 0c-12,-1 -24,3 -33,13 -3,3 -6,7 -8,12l-3 5c0,-1 -1,1 -1,1zm89 213c-5,0 -10,0 -14,1 -26,7 -45,30 -45,58 0,32 26,59 59,59 0,0 1,0 2,0l0 168c0,63 52,115 115,115l276 0c1,1 1,1 2,2 99,119 72,180 72,180 127,-142 107,-171 134,-186 6,-2 12,-4 18,-7l0 0 0 0c39,-18 66,-58 66,-104l0 -168c32,-1 57,-27 57,-59 0,-32 -25,-58 -57,-59l0 -168c0,-64 -52,-116 -116,-116l-452 0c-63,0 -115,52 -115,116l0 168c-1,0 -2,0 -2,0zm-24 -287c2,15 13,23 25,26 3,1 7,2 10,2 7,0 14,-2 19,-6 13,-7 21,-20 16,-39 -3,-13 -12,-21 -22,-25 -4,-1 -8,-2 -13,-2 -8,0 -16,3 -22,7 -10,8 -16,20 -13,37zm122 -69c16,0 29,13 29,29 0,16 -13,29 -29,29 -16,0 -29,-13 -29,-29 0,-16 13,-29 29,-29zm290 22c4,0 7,3 7,7 0,4 -3,7 -7,7 -4,0 -7,-3 -7,-7 0,-4 3,-7 7,-7zm-37 -3c6,0 10,4 10,10 0,5 -4,9 -10,9 -5,0 -9,-4 -9,-9 0,-6 4,-10 9,-10zm-48 -4c8,0 14,6 14,14 0,8 -6,14 -14,14 -8,0 -14,-6 -14,-14 0,-8 6,-14 14,-14zm-54 -3c10,0 17,7 17,17 0,9 -7,17 -17,17 -9,0 -17,-8 -17,-17 0,-10 8,-17 17,-17zm-67 -6c12,0 22,10 22,23 0,12 -10,22 -22,22 -13,0 -23,-10 -23,-22 0,-13 10,-23 23,-23z"/>
   <rect class="fil1" x="134" y="115" width="597" height="599" rx="101" ry="19"/>
   <path class="fil2" d="M235 115l395 0c55,0 101,46 101,101l0 133c-82,66 -186,105 -299,105 -113,0 -217,-39 -298,-105l0 -133c0,-55 45,-101 101,-101z"/>
   <ellipse class="fil3" cx="295" cy="365" rx="44" ry="57"/>
   <ellipse class="fil3" cx="569" cy="365" rx="44" ry="57"/>
   <path class="fil4 str0" d="M264 267c39,0 85,5 108,22 20,13 21,35 21,54 0,43 -41,127 -140,127 -20,0 -38,2 -53,-4 -54,-24 -65,-89 -65,-123 0,-18 0,-40 18,-54 24,-17 71,-22 111,-22z"/>
   <path class="fil5" d="M774 277l-35 0c0,0 -32,-28 -122,-28 -90,0 -137,28 -137,28l-48 49 48 -49 -96 0c0,0 -47,-28 -136,-28 -90,0 -122,28 -122,28l-35 0 0 25 0 24c25,0 36,51 36,51 0,0 11,31 23,62 19,45 67,53 110,53 83,0 119,-45 140,-117 13,-47 32,-49 32,-49l0 0 0 0 0 0c1,0 19,2 33,49 21,72 57,117 139,117 43,0 92,-8 110,-53 13,-31 24,-62 24,-62 0,0 11,-51 36,-51l0 -24 0 -25zm-510 -10c39,0 85,5 108,22 20,13 21,35 21,54 0,43 -41,127 -140,127 -20,0 -38,2 -53,-4 -54,-24 -65,-89 -65,-123 0,-18 0,-40 18,-54 24,-17 71,-22 111,-22zm337 0c-39,0 -85,5 -109,22 -19,13 -20,35 -20,54 0,43 41,127 140,127 20,0 38,2 52,-4 54,-24 65,-89 65,-123 0,-18 1,-40 -18,-54 -23,-17 -70,-22 -110,-22z"/>
   <path class="fil6 str0" d="M601 267c-39,0 -85,5 -109,22 -19,13 -20,35 -20,54 0,43 41,127 140,127 20,0 38,2 52,-4 54,-24 65,-89 65,-123 0,-18 1,-40 -18,-54 -23,-17 -70,-22 -110,-22z"/>
   <path class="fil0 str1" d="M601 565c0,0 0,0 0,1 0,1 0,1 -1,2 -1,68 -76,123 -168,123l0 0 0 0 0 0 0 0c-92,0 -167,-55 -169,-123 0,-1 0,-1 0,-2 0,-1 0,-1 0,-1 -1,-57 98,-55 169,-55l0 0 0 0c71,0 170,-2 169,55z"/>
   <ellipse class="fil7" cx="432" cy="642" rx="80" ry="22"/>
   <path class="fil8" d="M290 590l286 0 0 0 0 0 0 0 1 0 0 0 0 0 0 0 1 0 0 0 0 0 0 0 1 0 0 0 0 0 0 0 1 0 0 -1 0 0 0 0 1 0 0 0 0 0c0,0 1,0 1,-1 0,0 0,0 1,0l0 0 0 -1 0 0 0 0 1 0 0 -1 0 0 0 0 1 -1 0 0 0 0 0 -1 0 0 1 0c0,-1 0,-1 0,-1l0 0 0 -1 0 0 0 -1 0 0 0 0c0,0 0,0 0,-1l0 0 0 0 0 -21c0,-28 -93,-30 -153,-30l0 0c-60,0 -153,2 -153,30l0 21 0 0 0 0c0,1 0,1 0,1l0 0 0 0 0 1 0 0 0 1 0 0c0,0 0,0 1,1l0 0 0 0 0 1 0 0 0 0 1 1 0 0 0 0 0 1 1 0 0 0 0 0 0 1 1 0c0,0 0,0 0,0 1,1 1,1 1,1l0 0 0 0 1 0 0 0 0 0 0 1 1 0 0 0 0 0 0 0 1 0 0 0 0 0 0 0 1 0 0 0 0 0 0 0 1 0 0 0 0 0 0 0z"/>
   <polygon class="fil9" points="585,555 578,555 285,555 281,555 280,556 280,557 280,558 280,558 280,559 280,564 586,564 586,559 586,558 586,558 586,557 586,556 "/>
   <path class="fil10 str2" d="M314 548l29 0c2,0 4,1 4,3l0 17c0,2 -2,3 -4,3l-29 0c-2,0 -4,-1 -4,-3l0 -17c0,-2 2,-3 4,-3zm209 0l29 0c2,0 4,1 4,3l0 17c0,2 -2,3 -4,3l-29 0c-2,0 -3,-1 -3,-3l0 -17c0,-2 1,-3 3,-3zm-70 0l29 0c3,0 4,1 4,3l0 17c0,2 -1,3 -4,3l-29 0c-2,0 -3,-1 -3,-3l0 -17c0,-2 1,-3 3,-3zm-69 0l29 0c2,0 3,1 3,3l0 17c0,2 -1,3 -3,3l-29 0c-2,0 -4,-1 -4,-3l0 -17c0,-2 2,-3 4,-3z"/>
   <polygon class="fil5" points="115,296 91,277 66,360 91,356 94,327 "/>
   <polygon class="fil5" points="750,296 774,277 799,362 774,356 769,327 "/>
  </g>
 </g>
</svg>
