<?xml version="1.0" encoding="UTF-8"?>
<!DOCTYPE svg PUBLIC "-//W3C//DTD SVG 1.1//EN" "http://www.w3.org/Graphics/SVG/1.1/DTD/svg11.dtd">
<!-- Creator: CorelDRAW X8 -->
<svg xmlns="http://www.w3.org/2000/svg" xml:space="preserve" width="45.8546mm" height="50.6572mm" version="1.1" style="shape-rendering:geometricPrecision; text-rendering:geometricPrecision; image-rendering:optimizeQuality; fill-rule:evenodd; clip-rule:evenodd"
viewBox="0 0 2210 2442"
 xmlns:xlink="http://www.w3.org/1999/xlink">
 <defs>
  <style type="text/css">
   <![CDATA[
    .str0 {stroke:black;stroke-width:9.64067}
    .fil7 {fill:black}
    .fil3 {fill:#21302B}
    .fil0 {fill:#2C3D51}
    .fil8 {fill:#5D5D5D}
    .fil5 {fill:#5DA478}
    .fil10 {fill:#6F57B3}
    .fil9 {fill:#9A83CF}
    .fil6 {fill:#9A83CF}
    .fil4 {fill:#E6E6E6}
    .fil1 {fill:#FEC12B}
    .fil2 {fill:white;fill-opacity:0.301961}
   ]]>
  </style>
   <mask id="id0">
  <linearGradient id="id1" gradientUnits="userSpaceOnUse" x1="992.999" y1="989.133" x2="868.665" y2="989.133">
   <stop offset="0" style="stop-opacity:0; stop-color:white"/>
   <stop offset="1" style="stop-opacity:1; stop-color:white"/>
  </linearGradient>
    <rect style="fill:url(#id1)" x="864" y="-5" width="134" height="1988"/>
   </mask>
   <mask id="id2">
  <linearGradient id="id3" gradientUnits="userSpaceOnUse" x1="845.908" y1="2324.95" x2="1005.75" y2="1612.73">
   <stop offset="0" style="stop-opacity:0; stop-color:white"/>
   <stop offset="0.25098" style="stop-opacity:0.854902; stop-color:white"/>
   <stop offset="1" style="stop-opacity:0.290196; stop-color:white"/>
  </linearGradient>
    <rect style="fill:url(#id3)" x="888" y="1973" width="463" height="361"/>
   </mask>
 </defs>
 <g id="Layer_x0020_1">
  <metadata id="CorelCorpID_0Corel-Layer"/>
  <g id="_1280991636736">
   <path class="fil0" d="M928 1215l0 30c1,2 2,3 3,5 2,7 5,13 9,19 2,4 5,8 10,12l1 1 0 0c11,10 26,16 42,17l0 0 0 0 1 0c34,0 67,-25 68,-65 1,-38 -26,-62 -55,-67l-2 0 0 0 -1 0 -2 0 0 0c-1,-1 -1,-1 -2,-1l-1 0 -1 0c-18,-1 -37,6 -51,20 -5,6 -9,12 -12,19l-5 8c0,-1 -1,1 -2,2zm138 333c-50,0 -91,41 -91,91 0,50 41,91 91,91l2 0 0 253c0,98 80,178 178,178l425 0c1,1 2,2 3,3 153,183 111,278 111,278 196,-220 165,-264 208,-288 9,-2 18,-6 26,-10l0 0 0 0c60,-28 102,-90 102,-161l0 -253c50,-1 89,-42 89,-91 0,-50 -39,-90 -89,-91l0 -264c0,-98 -80,-178 -178,-178l-697 0c-98,0 -178,80 -178,178l0 264 -2 0zm-38 -448c4,23 20,37 39,41 5,2 10,2 16,2 11,0 21,-3 29,-8 19,-10 32,-31 25,-61 -5,-20 -19,-33 -34,-38 -6,-2 -13,-4 -20,-4 -13,0 -25,5 -34,12 -16,11 -26,30 -21,56zm189 -106c24,0 44,20 44,45 0,24 -20,44 -44,44 -25,0 -44,-20 -44,-44 0,-25 19,-45 44,-45zm447 34c6,0 10,5 10,11 0,5 -4,10 -10,10 -6,0 -11,-5 -11,-10 0,-6 5,-11 11,-11zm-57 -4c8,0 15,6 15,15 0,8 -7,15 -15,15 -8,0 -15,-7 -15,-15 0,-9 7,-15 15,-15zm-75 -7c12,0 22,10 22,22 0,12 -10,21 -22,21 -12,0 -21,-9 -21,-21 0,-12 9,-22 21,-22zm-82 -5c14,0 26,12 26,27 0,14 -12,26 -26,26 -15,0 -27,-12 -27,-26 0,-15 12,-27 27,-27zm-104 -8c19,0 34,16 34,35 0,19 -15,34 -34,34 -19,0 -35,-15 -35,-34 0,-19 16,-35 35,-35z"/>
   <rect class="fil1" x="1135" y="1172" width="920" height="923" rx="155" ry="29"/>
   <path class="fil2" d="M1290 1172l609 0c86,0 156,70 156,156l0 204c-126,102 -286,162 -460,162 -175,0 -335,-60 -460,-162l0 -204c0,-86 70,-156 155,-156z"/>
   <circle class="fil3" cx="1371" cy="1437" r="100"/>
   <circle class="fil3" cx="1817" cy="1437" r="100"/>
   <path class="fil4" d="M1356 1822c189,40 289,40 478,0 0,4 0,8 -1,12l0 0c-7,119 -123,178 -238,178 -116,0 -232,-59 -239,-178l0 0c0,-4 0,-8 0,-12l0 0zm478 0l0 0z"/>
   <path class="fil5" d="M1834 1822l0 0 0 0 0 0c-189,39 -289,39 -478,0l0 0 0 0 0 0 0 1 0 1c-16,0 -12,11 -2,17 141,74 348,74 482,-1 10,-5 13,-17 -2,-17l0 -1z"/>
   <path class="fil3" d="M1330 1797c220,53 319,50 530,0 0,321 -530,321 -530,0l0 0zm26 25c189,54 289,53 478,0 0,253 -478,253 -478,0l0 0zm478 0l0 0zm26 -25l0 0z"/>
  </g>
  <path class="fil6" d="M931 0c-20,0 -37,15 -39,34l0 0 0 0c-1,2 -1,4 -1,6 0,1 0,2 1,4l-23 1934 124 0 -23 -1934c0,-2 0,-3 0,-4 0,-2 0,-4 0,-6l0 0 0 0c-3,-19 -19,-34 -39,-34z"/>
  <path class="fil7" style="mask:url(#id0)" d="M931 0c-20,0 -37,15 -39,34l0 0 0 0c-1,2 -1,4 -1,6 0,1 0,2 1,4l-23 1934 124 0 -23 -1934c0,-2 0,-3 0,-4 0,-2 0,-4 0,-6l0 0 0 0c-3,-19 -19,-34 -39,-34z"/>
  <path class="fil8" d="M1019 228l-177 0c-13,0 -23,11 -23,24l0 12c37,-5 74,-7 112,-7 0,0 46,15 106,71 -5,4 -11,7 -18,7l-177 0c-7,0 -13,-3 -17,-7 60,-56 106,-71 106,-71 38,0 75,2 112,7l0 -12c0,-13 -11,-24 -24,-24z"/>
  <path class="fil9" d="M931 257c-8,0 -16,0 -24,0 8,0 16,0 24,0 0,0 376,124 373,957 -1,-19 -21,-138 -393,-132 -282,5 -342,68 -353,106 4,-809 373,-931 373,-931zm-24 0c-7,1 -15,1 -23,1 8,0 16,0 23,-1zm-24 1c-7,1 -14,1 -21,2 7,-1 14,-1 21,-2zm-23 2c-7,0 -14,1 -21,2 7,-1 14,-2 21,-2zm-24 2c-6,1 -13,1 -19,2 6,-1 13,-1 19,-2zm-23 3c-6,0 -12,1 -18,2 6,-1 12,-2 18,-2zm-24 3c-5,1 -10,2 -16,3 6,-1 11,-2 16,-3zm-23 4c-5,1 -9,2 -14,3 5,-1 9,-2 14,-3zm-23 5c-4,0 -9,1 -13,2 4,-1 9,-2 13,-2zm-23 5c-4,1 -7,1 -11,2 4,-1 7,-1 11,-2zm-24 6c-2,0 -5,1 -7,2 2,-1 5,-2 7,-2z"/>
  <path class="fil10" d="M1839 1233c1,-21 2,-43 2,-66 0,-502 -407,-910 -910,-910 0,0 -378,124 -373,959 -150,-270 -536,-81 -535,17 -2,-21 -2,-43 -2,-66 0,-502 407,-910 910,-910 0,0 377,124 373,959 150,-270 536,-81 535,17z"/>
  <path class="fil7" d="M1293 2046c-30,0 -54,24 -54,53l-11 65c-15,48 -60,82 -113,82 -54,0 -99,-34 -114,-82l-8 -186 -124 0c0,223 4,403 255,398 244,-4 222,-277 222,-277 0,-29 -24,-53 -53,-53z"/>
  <path class="fil6 str0" style="mask:url(#id2)" d="M1293 2046c-30,0 -54,24 -54,53l-11 65c-15,48 -60,82 -113,82 -54,0 -99,-34 -114,-82l-8 -186 -100 0c2,201 23,356 256,352 89,-2 143,-39 175,-87 28,-71 22,-144 22,-144 0,-29 -24,-53 -53,-53z"/>
  <path class="fil7" d="M1839 1173l0 0c-12,0 -22,10 -22,22l0 51c0,12 10,22 22,22l0 0c13,0 23,-10 23,-22l0 -51c0,-12 -10,-22 -23,-22zm-1817 1l0 0c-12,0 -22,10 -22,22l0 51c0,13 10,23 22,23l0 0c12,0 22,-10 22,-23l0 -51c0,-12 -10,-22 -22,-22zm536 -6l0 0c-12,0 -22,10 -22,23l0 51c0,12 10,22 22,22l0 0c12,0 22,-10 22,-22l0 -51c0,-13 -10,-23 -22,-23zm746 -2l0 0c-12,0 -22,10 -22,22l0 51c0,12 10,22 22,22l0 0c12,0 22,-10 22,-22l0 -51c0,-12 -10,-22 -22,-22z"/>
 </g>
</svg>
