<?xml version="1.0" encoding="UTF-8"?>
<!DOCTYPE svg PUBLIC "-//W3C//DTD SVG 1.1//EN" "http://www.w3.org/Graphics/SVG/1.1/DTD/svg11.dtd">
<!-- Creator: CorelDRAW X8 -->
<svg xmlns="http://www.w3.org/2000/svg" xml:space="preserve" width="44.8412mm" height="48.5611mm" version="1.1" style="shape-rendering:geometricPrecision; text-rendering:geometricPrecision; image-rendering:optimizeQuality; fill-rule:evenodd; clip-rule:evenodd"
viewBox="0 0 45163 48909"
 xmlns:xlink="http://www.w3.org/1999/xlink">
 <defs>
  <style type="text/css">
   <![CDATA[
    .str0 {stroke:black;stroke-width:201.434}
    .fil6 {fill:black}
    .fil3 {fill:#21302B}
    .fil0 {fill:#2C3D51}
    .fil7 {fill:#5D5D5D}
    .fil9 {fill:#6F57B3}
    .fil8 {fill:#9A83CF}
    .fil5 {fill:#9A83CF}
    .fil4 {fill:#E6E6E6}
    .fil1 {fill:#FFBD2D}
    .fil2 {fill:white;fill-opacity:0.301961}
   ]]>
  </style>
   <mask id="id0">
  <linearGradient id="id1" gradientUnits="userSpaceOnUse" x1="19221.8" y1="19147" x2="16815.1" y2="19147">
   <stop offset="0" style="stop-opacity:0; stop-color:white"/>
   <stop offset="1" style="stop-opacity:1; stop-color:white"/>
  </linearGradient>
    <rect style="fill:url(#id1)" x="16714" y="-101" width="2608" height="38495"/>
   </mask>
   <mask id="id2">
  <linearGradient id="id3" gradientUnits="userSpaceOnUse" x1="16374.5" y1="45004.9" x2="19468.6" y2="31218.2">
   <stop offset="0" style="stop-opacity:0; stop-color:white"/>
   <stop offset="0.25098" style="stop-opacity:0.854902; stop-color:white"/>
   <stop offset="1" style="stop-opacity:0.290196; stop-color:white"/>
  </linearGradient>
    <rect style="fill:url(#id3)" x="17190" y="38193" width="8975" height="7008"/>
   </mask>
 </defs>
 <g id="Layer_x0020_1">
  <metadata id="CorelCorpID_0Corel-Layer"/>
  <g id="_1280991653120">
   <path class="fil0" d="M20345 34666c-803,-294 -1377,-1065 -1377,-1970 0,-988 682,-1815 1601,-2038 1205,-5211 5875,-9096 11452,-9096 5570,0 10235,3875 11447,9076 966,187 1695,1037 1695,2058 0,939 -618,1733 -1468,2000 -251,2138 -1075,4101 -2314,5730l1 0c0,0 1153,332 -88,8483 0,0 -675,-3296 -5965,-4311l-2 0c-1048,307 -2158,472 -3306,472 -6035,0 -11007,-4549 -11676,-10404z"/>
   <circle class="fil1" cx="32021" cy="33316" r="10454"/>
   <path class="fil2" d="M32021 22862c4491,0 8320,2832 9800,6807 -2595,2939 -6031,4727 -9800,4727 -3768,0 -7204,-1788 -9800,-4727 1480,-3975 5309,-6807 9800,-6807z"/>
   <circle class="fil3" cx="26558" cy="30924" r="1801"/>
   <circle class="fil3" cx="37573" cy="30924" r="1801"/>
   <path class="fil0" d="M22151 21976c845,0 1529,685 1529,1529 0,845 -684,1530 -1529,1530 -845,0 -1529,-685 -1529,-1530 0,-844 684,-1529 1529,-1529zm14655 -1877c115,0 208,93 208,208 0,115 -93,209 -208,209 -116,0 -209,-94 -209,-209 0,-115 93,-208 209,-208zm-1182 -541c169,0 306,137 306,307 0,169 -137,306 -306,306 -169,0 -306,-137 -306,-306 0,-170 137,-307 306,-307zm-1476 -485c249,0 452,202 452,452 0,250 -203,452 -452,452 -250,0 -453,-202 -453,-452 0,-250 203,-452 453,-452zm-1699 -360c359,0 650,291 650,649 0,359 -291,650 -650,650 -358,0 -649,-291 -649,-650 0,-358 291,-649 649,-649zm-2185 -59c465,0 842,376 842,841 0,465 -377,842 -842,842 -465,0 -842,-377 -842,-842 0,-465 377,-841 842,-841zm-2613 280c619,0 1122,503 1122,1122 0,620 -503,1123 -1122,1123 -620,0 -1123,-503 -1123,-1123 0,-619 503,-1122 1123,-1122zm-2644 1034c718,0 1300,582 1300,1299 0,718 -582,1300 -1300,1300 -717,0 -1299,-582 -1299,-1300 0,-717 582,-1299 1299,-1299z"/>
   <path class="fil4" d="M26763 36824c4159,872 6358,872 10516,0 0,86 -3,171 -7,255l0 3c-157,2618 -2704,3915 -5251,3909 -2546,6 -5094,-1291 -5250,-3909l0 -3c-5,-84 -8,-169 -8,-255l0 0zm10516 0l0 0z"/>
   <path class="fil0" d="M37279 36824l0 0 0 -15 0 0c-4158,872 -6357,872 -10516,0l0 0 0 15 0 0 0 15 0 15c-342,0 -263,257 -39,375 3102,1636 7656,1639 10594,-15 221,-124 303,-375 -39,-375l0 -15z"/>
   <path class="fil3" d="M26193 36269c4850,1157 7032,1103 11657,0 0,7052 -11657,7052 -11657,0l0 0zm570 555c4168,1168 6368,1166 10516,0 0,5562 -10516,5562 -10516,0l0 0zm10516 0l0 0zm571 -555l0 0z"/>
  </g>
  <path class="fil5" d="M18019 0c-386,0 -705,286 -758,657l0 0 0 1c-5,35 -7,71 -7,107 0,28 1,56 4,83l-443 37446 2407 0 -443 -37445c3,-28 4,-56 4,-84 0,-37 -2,-72 -7,-107l0 -1 0 0c-53,-371 -372,-657 -757,-657z"/>
  <path class="fil6" style="mask:url(#id0)" d="M18019 0c-386,0 -705,286 -758,657l0 0 0 1c-5,35 -7,71 -7,107 0,28 1,56 4,83l-443 37446 2407 0 -443 -37445c3,-28 4,-56 4,-84 0,-37 -2,-72 -7,-107l0 -1 0 0c-53,-371 -372,-657 -757,-657z"/>
  <path class="fil7" d="M19732 4420l-3428 0c-248,0 -451,203 -451,451l0 238c710,-87 1432,-133 2165,-133 0,0 891,295 2047,1365 -83,90 -201,146 -333,146l-3428 0c-131,0 -250,-57 -333,-147 1156,-1070 2047,-1364 2047,-1364 733,0 1456,46 2166,133l0 -238c0,-248 -203,-451 -452,-451z"/>
  <path class="fil8" d="M18018 4976c-152,0 -303,2 -454,6 151,-4 302,-6 454,-6 0,0 7291,2403 7220,18517 -17,-365 -406,-2666 -7607,-2547 -5450,90 -6622,1314 -6832,2049 80,-15665 7219,-18019 7219,-18019zm-457 6c-147,4 -293,9 -439,17 146,-8 292,-13 439,-17zm-462 18c-141,7 -281,16 -421,26 140,-10 280,-19 421,-26zm-453 29c-134,10 -268,22 -401,36 133,-14 267,-26 401,-36zm-455 41c-127,13 -253,27 -379,43 126,-16 252,-30 379,-43zm-459 53c-116,16 -231,32 -346,49 115,-17 230,-33 346,-49zm-453 65c-104,17 -208,34 -312,52 104,-18 208,-35 312,-52zm-450 77c-93,17 -185,34 -277,53 92,-19 184,-36 277,-53zm-452 89c-80,16 -160,34 -240,52 80,-18 160,-36 240,-52zm-445 99c-67,16 -133,32 -200,49 67,-17 133,-33 200,-49zm-453 114c-49,13 -98,27 -146,40 48,-13 97,-27 146,-40z"/>
  <path class="fil9" d="M35592 23875c30,-422 46,-848 46,-1278 0,-9732 -7889,-17621 -17620,-17621 0,0 -7306,2407 -7220,18566 -2901,-5231 -10381,-1574 -10354,333 -31,-422 -47,-848 -47,-1278 0,-9732 7889,-17621 17621,-17621 0,0 7306,2407 7220,18566 2900,-5231 10381,-1574 10354,333z"/>
  <path class="fil6" d="M25023 39605c-570,0 -1032,462 -1032,1031l-212 1247c-305,926 -1177,1595 -2205,1595 -1028,0 -1900,-669 -2204,-1595l-148 -3589 -2407 0c0,4305 90,7794 4945,7708 4727,-84 4294,-5366 4294,-5366 0,-569 -462,-1031 -1031,-1031z"/>
  <path class="fil5 str0" style="mask:url(#id2)" d="M25023 39605c-570,0 -1032,462 -1032,1031l-212 1247c-305,926 -1177,1595 -2205,1595 -1028,0 -1900,-669 -2204,-1595l-148 -3589 -1931 0c34,3879 431,6885 4942,6805 1734,-30 2773,-761 3394,-1673 543,-1376 427,-2790 427,-2790 0,-569 -462,-1031 -1031,-1031z"/>
  <path class="fil6" d="M35608 22705l0 0c-236,0 -429,193 -429,429l0 990c0,236 193,429 429,429l0 0c236,0 429,-193 429,-429l0 -990c0,-236 -193,-429 -429,-429zm-35179 21l0 0c-236,0 -429,193 -429,429l0 990c0,236 193,429 429,429l0 0c236,0 429,-193 429,-429l0 -990c0,-236 -193,-429 -429,-429zm10369 -108l0 0c-236,0 -429,193 -429,429l0 990c0,236 193,429 429,429l0 0c236,0 429,-193 429,-429l0 -990c0,-236 -193,-429 -429,-429zm14440 -49l0 0c-236,0 -429,193 -429,429l0 990c0,236 193,429 429,429l0 0c236,0 429,-193 429,-429l0 -990c0,-236 -193,-429 -429,-429z"/>
 </g>
</svg>
