<?xml version="1.0" encoding="UTF-8"?>
<!DOCTYPE svg PUBLIC "-//W3C//DTD SVG 1.1//EN" "http://www.w3.org/Graphics/SVG/1.1/DTD/svg11.dtd">
<!-- Creator: CorelDRAW -->
<svg xmlns="http://www.w3.org/2000/svg" xml:space="preserve" width="1.8946in" height="2.54326in" version="1.1" style="shape-rendering:geometricPrecision; text-rendering:geometricPrecision; image-rendering:optimizeQuality; fill-rule:evenodd; clip-rule:evenodd"
viewBox="0 0 4934.53 6624"
 xmlns:xlink="http://www.w3.org/1999/xlink"
 xmlns:xodm="http://www.corel.com/coreldraw/odm/2003">
 <defs>
  <style type="text/css">
   <![CDATA[
    .str0 {stroke:#373435;stroke-width:18.09;stroke-miterlimit:2.61313}
    .fil0 {fill:none}
    .fil1 {fill:#FEFEFE}
    .fil3 {fill:#ED3237}
    .fil2 {fill:black}
    .fil4 {fill:#EC3237}
   ]]>
  </style>
 </defs>
 <g id="Layer_x0020_1">
  <metadata id="CorelCorpID_0Corel-Layer"/>
  <g id="_3124038018448">
   <rect class="fil0 str0" x="1884.99" y="3992.81" width="1174.92" height="954.92"/>
   <path class="fil1" d="M1602.11 4960.35c26.31,60.65 147.85,211.43 191.94,232.6l-26.41 -194.93c26.36,26.49 42.48,70.05 62.3,105.13 48.91,86.52 157.86,249.22 229.27,294.81l-32.69 -189.62c41.59,40.22 47.82,56.1 93.73,96.21 49.84,-22.29 -1.38,-12.22 41.33,-38.7l300.54 315.22c29.3,-22.84 125.94,-148.35 194.38,-205.18 65.49,-54.43 175.04,-174.01 221.54,-185.63l-57.2 240.29c131.54,-57.96 261.46,-350.34 339.33,-451.64l-36.69 221.43c50.34,-18.76 155.81,-164.77 191.7,-212.67 3.36,48.27 -85.51,482.86 -102.53,532.51 -41.89,122.21 -199.29,316.67 -287.15,361.88l46.14 -193.53c-82.75,48.25 -235.46,428.29 -499.22,676.41 -79.7,-62.84 -288.15,-342.22 -352.88,-438.7 -26.52,-39.55 -80.05,-143.88 -100.39,-166.12 -20.71,35.35 10.08,109.67 5.76,158.24 -110.27,-62.76 -233.76,-249.01 -298.28,-392.46 -47.27,-105.07 -56.98,-147.49 -75.81,-274.07 -11.37,-76.42 -51.42,-223.56 -48.71,-291.49zm1189.65 -120.33c-37.95,-7.19 -68.48,-21.64 -112.27,-29.77 -41.82,-7.75 -95.27,-7.2 -135.94,-15.83 -1.18,-2.65 -2.36,-9.65 -2.7,-8.3 -0.35,1.37 -2.04,-6.25 -2.45,-8.49 -0.43,-2.29 -1.55,-5.98 -1.98,-8.88l-0.65 -339.44c1.79,-120.04 4.02,-248.05 12.03,-367.85 40.6,18.32 55.62,44.52 101.5,67.37 80.82,40.27 56.35,4.36 80,99.53 7.09,-8.13 5.35,-6.5 14.71,-20.34 12.13,-17.89 3.4,-8.79 16.84,-26.02l184.61 33.45c-5.91,77.14 -124.5,579.73 -153.72,624.58zm-812.86 -625.65c201.31,-24.91 258.29,-97.31 411.14,-156.15l11.51 732.34c-96.13,2.46 -183.29,19.69 -258.78,47.07 -31.82,-41.85 -136.59,-526.22 -163.86,-623.26zm799.04 -945.25c-11.06,5.47 -290.84,85.12 -296.86,85.47 -30.97,1.79 -242.27,-62.96 -311.67,-73.91 65.65,-113.9 477.34,-85.16 608.54,-11.56zm-376.2 449.79c-7.6,194.31 -217.47,300.82 -405.75,337.93 -106.02,20.91 -236.12,23.12 -319.76,-25.78 -60.74,-35.51 -157.79,-127.32 -162.8,-219.44 33.52,-18.51 89.26,-32.21 131.37,-26.96 45.37,5.66 114.57,44.39 127.24,-16.02 22.96,-109.37 -203.36,-61.26 -268.47,-59.03 0.95,-55.03 2.68,-91.26 31.4,-131.92 179.65,-19.59 246.2,115.55 247.18,-48.4 -72.77,-22.44 -118.95,-35.53 -205.82,-47.29 54.16,-112.74 216.14,-236.35 345.22,-303.34 139.99,-72.65 341.01,-121.82 530.26,-123.16 204.79,-1.46 376.08,43.99 536.92,115.87 134.38,60.05 293.97,181.73 348.46,302.56l-193.38 46.04 20.56 81.11c69.34,13.11 194.72,-83.57 234.12,-5.13 14.32,28.54 15.73,68.52 19.16,99.96 -68.73,17 -291.71,-32.91 -272.87,72.51 15.43,86.43 131.18,-11.15 271.33,46.2 -38.8,106.67 -63.05,159.41 -154.98,208.4 -87.07,46.37 -216.09,46.19 -323.1,23.97 -104.69,-21.73 -187.16,-55.89 -267.63,-103.63 -91.86,-54.48 -131.28,-96.85 -136.68,-234.57 77.95,-24.63 162.66,-96.21 210.4,-140.64 43.31,-40.3 151.36,-126.7 167.33,-193.16 49.21,-204.89 -278.03,-251.8 -449.41,-249.81 -175.89,2.04 -492.71,67.77 -437.19,258.51 17.12,58.84 122.85,151.08 161.04,189.01 130.28,129.39 133.88,91.23 215.85,146.18zm825.32 -844.74c11.67,-37.75 55.48,-68.22 77,-75.99l15.19 -3.93c45.56,-5.79 8.56,-2.12 25,2.25 29.22,107.78 -60.66,155.47 -117.18,77.67zm201.96 -143.59l72.61 -32.77c42.15,67.26 110.43,100.31 100.03,228.3 -15.47,190.29 -247.16,307.28 -380.05,229.11 -72.85,-42.86 -156.2,-72.11 -182.21,-146.93 72.84,-14.65 67.73,26.24 148.79,56.64 66.99,25.12 136.71,17 188.86,-17.61 41.16,-27.32 85.63,-77.43 97,-139.65 14.01,-76.73 -20.7,-126.31 -45.03,-177.09zm-1577.1 260.43l23.41 26.18c-26.96,56.8 -231.51,262.94 -436.68,97.57 -196.59,-158.46 -117.87,-368.5 8.24,-429.11 7.77,11.79 8.23,14.12 21.73,27.83 1.56,1.58 3.86,3.58 5.49,5.16l24.06 21.61c-67.52,109.73 -60.81,211.12 46.5,299.31 116.36,95.62 236.89,8.78 307.25,-48.53zm402.18 -1126.33c119.22,18.2 284.03,49.56 377.54,99.29l13.19 53.17c103.82,5.21 211.53,-37.46 350.94,-26.86l-30.98 41.13c181.11,-10.13 342.6,5.4 471.19,85.99 -62.35,29.83 -333.3,79.64 -395.97,266.09 51.41,-23.38 98.08,-64.24 149.04,-91.05 47.77,-25.13 107.78,-65.33 156.21,-80.27 140.05,-43.2 286.27,-16.47 382.27,55.98 316.01,238.45 300.78,313.19 475.55,469.86 217.7,-49.1 256.72,-460.11 -23.29,-499.45 -99.04,-13.92 -167.5,26.16 -234.24,61.59l-81.37 -52.06c78.98,-189.34 504.93,-302.24 630.15,5.23 86.7,212.87 -66.1,402.97 -218.34,498.42 -89.49,56.09 -112.63,22.87 -209.1,9.32 76.34,191.54 398.63,387.45 509.32,606.38l-209.54 -61.85c27.45,55.26 67.66,70.55 114.57,114.5 101.81,95.41 244.38,302.58 257.57,452.34 -123.5,-44.1 -361.28,-136.14 -511.97,-143.58 60.55,121.86 164.01,216.61 213.85,360.53 54.92,158.62 68.92,321.29 69.71,504.97 -109.31,-49.75 -210.39,-215.09 -441.59,-261.1 20.43,109.45 105.98,271.51 10.71,372.15 -41.08,-65.14 -186.9,-365.18 -241.97,-435.62 -105.22,-134.64 -61.05,-123.6 -106.74,-127.08 84.5,250.66 67.48,510.98 -95.11,729.49 -5.09,6.84 -7.88,11.69 -14.02,17.07 -15.91,13.9 -5.07,8.23 -26.38,14.56 -85.17,-204.51 34.77,-158.39 -267.71,-536.34 -39.25,-49.03 -112.34,-73.15 -129.35,-133.49 48.96,-68.95 120.11,-41.8 222.83,-153.46 26.59,-28.91 54.56,-65.52 76.69,-108.42 21.84,-42.32 30.91,-98.06 56.34,-141.86 214.64,2.7 374.66,144.27 567.17,198.27 -44.49,-91.6 -276.11,-231.17 -381.08,-269.29 -58.62,-21.29 -123.1,-25.66 -180.12,-46.25l-23.08 -145.74 531.71 22.42c54.9,3.07 111.27,15.79 164.55,14.18 -242.26,-145.63 -701.73,-130.84 -730.65,-142.96 -30.81,-28.87 -38.66,-58.79 -63.07,-91.32 -27.08,-36.09 -47.01,-44.11 -70.76,-82.88 69.29,-1.22 190.76,6.63 252.83,-5.8l166.29 -59.81c2.78,-1.52 10.96,-6.6 13.26,-8.07l12.37 -9.17c-52.65,-34.32 -140.91,-19.68 -210.24,-18.55 18.44,-26.96 24.43,-25.65 47.74,-49.46 51.04,-52.13 80.72,-110.72 94.9,-192.9 29.39,-170.47 -23.43,-205.27 -92.76,-295.39 7.66,-5.2 -1.47,-2.31 21.64,-12.6 14.52,-6.46 14.53,-6.57 31.48,-10.67 64.04,-15.48 137.78,-13.46 203.41,-13.75 -4.43,-50.32 -106.77,-95.36 -171.76,-105.38 -115.08,-17.74 -162.59,17.95 -253.42,28.67l37.42 -77.74c-186.09,62.53 -390.63,294.82 -574.93,408.55 -88.18,54.4 -318.26,118.66 -322.85,-52.02 -3.88,-144.13 105.88,-257.18 153.08,-345.84l-159.16 99.79c-47.71,37.63 -109.45,99.06 -155.93,122.21 -99.25,-54.3 -187.62,-174.72 -298.92,-216.65 39.63,90.73 163.53,241.96 135.3,370.37 -46.23,210.23 -423.24,-39.51 -506.2,-122.53 -93.73,-93.78 -340.44,-283.58 -467.68,-309.84 31.15,56.76 75.52,68.86 110.85,124.5 -84.93,-13.77 -148.19,-46.57 -246.99,-27.23 -68.59,13.43 -158.76,55.92 -176.4,106.01l254.82 39.71 -29.63 36.26c-65.4,60.42 -71.68,153.94 -57.88,242.88 19.72,127.12 86.37,185.01 147.06,248.31 -66.39,3.45 -143.93,-2.38 -196.72,23.28 16.85,33.26 29.66,35.39 74.38,53.17 33.36,13.26 68.47,24.76 104.88,29.34 89.37,11.21 159.38,1.58 245.24,1.32 -28.77,56.3 -76.56,114.33 -103.18,171.89 -271.68,12.75 -566.81,31.46 -777.95,141.75l719.17 -36.14 -29.48 144.13c-66.92,40.03 -216.02,58.23 -322.58,122.78 -58.09,35.19 -215.79,151.54 -244.73,194.51 80.64,-15.21 190.73,-84.26 271.07,-116.47 83.99,-33.66 209.1,-78.95 308.66,-89.53 25.73,107.79 63.9,197.32 124.13,263.67 53.62,59.08 191.46,113.99 230.08,160.03 -95.42,125.38 -203.92,125.91 -343.07,459.26 -24.1,57.76 -30.72,168.78 -57.4,206.83 -122.93,-79.4 -234.54,-471.3 -183.99,-633.96 13.92,-44.78 38.67,-51.67 19.16,-80.96 -107.61,92.32 -215.71,377.04 -327.91,500.23 -23.07,-53.15 -26.98,-118.5 -16.61,-188.17 12.67,-85.14 28.82,-103.45 49.33,-170.4 -231.39,57.66 -294.43,168.46 -448.96,235.16 -8.31,-147.8 42.66,-367.05 87.56,-490.25 28.72,-78.87 60.09,-133.31 100.43,-187.86 41.25,-55.8 96.94,-98.73 122.35,-163.76 -83.24,9.91 -196.22,39.82 -277.06,60.57 -87.78,22.55 -186.08,69.03 -258.45,83.7 30.78,-170.03 145.56,-341.04 260.44,-452.65 28.14,-27.34 98.08,-76.96 118.74,-121.09l-222.55 69.84c48.37,-110.72 180.06,-214.5 261.67,-305.59 47.96,-53.54 78.42,-89.64 134.24,-143.96 48.39,-47.11 86.27,-91.32 125.43,-157.76 -74.41,2.29 -125.5,39.7 -204.74,-0.76 -360.97,-184.24 -349.02,-697 32.32,-703.34 151.02,-2.5 278.75,91.47 349.15,165.77l-62.41 70.08c-77.56,-19.75 -121.83,-70.23 -244.75,-50.75 -308.56,48.9 -214.71,438.35 -17.58,526.66 131.21,-194.12 286.11,-377.51 467.93,-507.49 313.52,-224.14 577.89,87.07 696.04,128.68 -30.56,-147.83 -243.96,-225.36 -387.89,-276.48 53.7,-86.74 313.99,-91.56 398.2,-104.25 99.3,-14.96 93.48,-28.65 217.14,-17.3 70.75,6.5 165.45,30.38 218.9,31.68l-80.95 -161.31zm-1160.5 -163.89c337,-137.38 963.36,-220.5 1379.22,-213.29 271.45,4.7 1167.66,85.28 1362.45,233.43l-26.15 110.22c-210.97,-63.77 -376.59,-111.85 -616.69,-150.97 -521.33,-84.93 -1241.76,-60.58 -1760.54,50.55 -49.23,10.53 -105.99,26.56 -154.17,41.6 -47.97,14.96 -86.47,39.09 -138.43,52.11l-45.7 -123.65zm863.73 -833.65c51.16,-35.87 87.51,-104.87 130.79,-159.56l377.64 -477.26c69.43,61.01 444.41,595.8 501.14,640.81 91.03,-51.31 555.69,-458.08 638.71,-469.16 35.86,77.96 156.22,496.29 175.13,524.4 104.61,-42.73 385.47,-232.15 470.51,-245.47 -88.92,255.32 -308.48,678.58 -367.48,867.15 -58.4,-8.12 -104.52,-32.64 -159.44,-49.46 -57.75,-17.67 -104.68,-30.86 -163.43,-42.33 -60.26,-11.77 -109.75,-24.24 -168.34,-38.13 -60.11,-14.27 -122.93,-13.95 -182.81,-22.16 -257.19,-35.27 -477.46,-68.75 -747.62,-68.73 -256.07,0.02 -509.82,17.1 -756.67,59.46 -121.03,20.77 -224.4,44.62 -342.18,69.27 -111.24,23.29 -221.1,74.26 -314,90.27 -92.28,-279.61 -282.1,-570.15 -376.51,-856.18 38.54,11.74 77.43,40.99 112.75,59.9l349.54 170.67 193.86 -509.48c49.1,21.9 260.25,184.15 319.32,227.6l309.09 228.41zm-10.31 -207.84c-198.98,-133.23 -542.82,-404.98 -731.42,-504.78 -1.59,71.43 -126.59,477.46 -154.53,535.68 -156.5,-36.45 -571.22,-265.52 -669.61,-288.45 30.11,129.23 254.92,630.25 309.19,751.89 114.18,255.9 257.4,505.78 257.4,803.67 -73.55,-17.13 -147.13,-51.51 -236.93,-51.51 -164.73,0 -312.61,105.22 -359.08,156.01 -201.17,220.01 -108.76,560.18 98.32,733.15 46.89,39.17 72.08,60.53 126.83,89.5 -47.14,70.4 -132.69,136.95 -188.51,202.96 -23.92,28.28 -37.26,41.26 -61.97,71.95l-170.06 231.7c-22.43,33.74 -32.73,46.58 -32.73,101.2l51.51 0c-30.09,44.92 -57.34,56.13 -89.52,116.52 -22.35,41.97 -42.82,102.63 -55.12,150.91 -18.73,73.51 -29.71,348.17 -40.8,371.28 108.9,-9.06 246.34,-153.62 381.16,-164.83 -7.44,31.95 -8.78,26.05 -22.46,49.66 -14.25,24.63 -14.8,27.14 -26.28,56.14 -50.52,127.52 -74.88,262.8 -74.88,409.3 0,104.35 19.45,304.04 51.5,370.86l319.36 -247.25c14.91,179.05 190.65,552.53 319.36,638.7 0,-133.62 -14.15,-143.34 0.58,-298.16 3.86,-40.53 12.93,-93.63 40.61,-113.91 18.65,224.12 156.53,532.76 289.9,709.37 24.84,32.87 47.08,62.38 70.65,94.18 25.85,34.9 44.25,69.45 92.74,82.4 -15.44,-66.27 -31.68,-322.25 20.6,-360.57 9.04,108.77 126.08,282.14 183.3,372.99 142.9,226.93 329.18,426.32 530.01,603.17 53.79,47.37 84.44,88.04 143.26,134.89 52.76,42.01 100.9,96.56 132.39,156.06 110.32,-73.88 185.79,-192.44 285.94,-280.64 168.83,-148.67 282.78,-272.77 422.52,-442.83 88.35,-107.53 166.58,-222.93 229.11,-347.78l65.09 -151.25c17.07,-45.95 -5.99,-20.06 27.51,-44.62 0,82.17 20.6,159.77 20.6,257.55 0,51.77 -9.26,46.12 -10.31,92.72 39.68,-10.6 60.57,-43.62 82.45,-72.1 24.49,-31.88 47.94,-56.02 73.7,-91.12 121.64,-165.72 276.53,-493.6 276.53,-712.44l20.61 0c11.73,141 51.5,162.44 51.5,412.07 45.91,-12.25 80.26,-87.02 102.46,-124.19 89.12,-149.24 181.4,-335.5 196.29,-514.52l254.65 178.02c36.23,30.34 41.66,57.19 75.02,79.52 9.5,-114.24 41.19,-178.52 41.19,-329.66 0,-177.15 0.31,-312.51 -72.28,-473.7 -12.72,-28.25 -27.38,-64.45 -41.03,-92.9 146.92,12.23 246.76,133.53 381.16,164.83 0,-191.97 -20.88,-358.98 -102.71,-515.39 -25.21,-48.16 -56.87,-74.46 -82.72,-123.32l61.81 0c-11.55,-138.7 -293.8,-414.15 -398.72,-538.74l-64.86 -79.37c157.81,-83.52 329.65,-262.28 329.65,-463.58 0,-161.54 -40.13,-267.04 -143.71,-371.38 -89.16,-89.84 -226.75,-133.41 -371.37,-133.41 -85.39,0 -115.6,36.26 -175.14,41.21 0,-95.38 -2.5,-161.5 13.02,-244.54 29.82,-159.6 302.36,-758.2 381.97,-936.65 28.26,-63.35 48.78,-117.89 76.03,-181.51 19.26,-44.93 71.26,-148.21 74.98,-192.88 -51.32,27.16 -109.58,48.3 -164.56,72.4l-494.76 226.35c-3.86,-46.36 -28,-88.24 -42.59,-132.54 -44.05,-133.84 -111.27,-267.57 -142.85,-403.14 -30,8.01 -60.38,37.47 -86.81,57.4l-522.35 373.9c-31.44,23.53 -59.63,41.93 -91.35,63.18 -36.26,-54.14 -93.77,-101.04 -135.34,-153.11 -22.84,-28.58 -38.9,-52.44 -62.75,-81.48 -23.36,-28.43 -41.2,-50.06 -63.96,-80.25 -44.48,-58.99 -81.05,-104.64 -125.01,-163.45 -44.69,-59.79 -88.72,-112.04 -128.02,-170.72 -46.5,31.13 -100.07,109.69 -134.1,154.34l-324.98 416.73c-30.71,39.31 -43.32,44.79 -66.3,88.23z"/>
   <path class="fil2" d="M2254.11 1864.69l80.95 161.31c-53.45,-1.3 -148.15,-25.18 -218.9,-31.68 -123.66,-11.35 -117.84,2.34 -217.14,17.3 -84.21,12.69 -344.49,17.51 -398.2,104.25 143.93,51.12 357.33,128.65 387.89,276.48 -118.16,-41.61 -382.53,-352.82 -696.04,-128.68 -181.82,129.98 -336.72,313.37 -467.93,507.49 -197.13,-88.31 -290.99,-477.76 17.58,-526.66 122.93,-19.48 167.19,31 244.75,50.75l62.41 -70.08c-70.4,-74.3 -198.13,-168.27 -349.15,-165.77 -381.34,6.34 -393.29,519.09 -32.32,703.34 79.24,40.46 130.33,3.05 204.74,0.76 -39.16,66.44 -77.04,110.65 -125.43,157.76 -55.81,54.32 -86.28,90.42 -134.24,143.96 -81.61,91.09 -213.3,194.87 -261.67,305.59l222.55 -69.84c-20.66,44.13 -90.6,93.75 -118.74,121.09 -114.89,111.62 -229.66,282.62 -260.44,452.65 72.37,-14.67 170.67,-61.16 258.45,-83.7 80.84,-20.75 193.82,-50.67 277.06,-60.57 -25.41,65.03 -81.1,107.95 -122.35,163.76 -40.34,54.55 -71.71,108.99 -100.43,187.86 -44.9,123.19 -95.87,342.44 -87.56,490.25 154.53,-66.69 217.57,-177.5 448.96,-235.16 -20.51,66.95 -36.66,85.26 -49.33,170.4 -10.37,69.68 -6.46,135.03 16.61,188.17 112.2,-123.19 220.31,-407.92 327.91,-500.23 19.5,29.29 -5.24,36.18 -19.16,80.96 -50.55,162.66 61.06,554.56 183.99,633.96 26.68,-38.05 33.31,-149.07 57.4,-206.83 139.15,-333.35 247.65,-333.88 343.07,-459.26 -38.62,-46.04 -176.46,-100.95 -230.08,-160.03 -60.22,-66.35 -98.4,-155.88 -124.13,-263.67 -99.56,10.58 -224.67,55.86 -308.66,89.53 -80.34,32.21 -190.43,101.26 -271.07,116.47 28.95,-42.96 186.64,-159.32 244.73,-194.51 106.56,-64.55 255.66,-82.75 322.58,-122.78l29.48 -144.13 -719.17 36.14c211.14,-110.29 506.27,-129.01 777.95,-141.75 26.62,-57.56 74.4,-115.58 103.18,-171.89 -85.86,0.26 -155.86,9.88 -245.24,-1.32 -36.41,-4.57 -71.52,-16.08 -104.88,-29.34 -44.72,-17.78 -57.54,-19.9 -74.38,-53.17 52.8,-25.66 130.33,-19.83 196.72,-23.28 -60.69,-63.3 -127.34,-121.19 -147.06,-248.31 -13.79,-88.93 -7.52,-182.46 57.88,-242.88l29.63 -36.26 -254.82 -39.71c17.64,-50.09 107.81,-92.57 176.4,-106.01 98.8,-19.34 162.05,13.46 246.99,27.23 -35.33,-55.65 -79.69,-67.75 -110.85,-124.5 127.23,26.26 373.94,216.05 467.68,309.84 82.97,83.02 459.98,332.75 506.2,122.53 28.23,-128.4 -95.67,-279.64 -135.3,-370.37 111.3,41.93 199.67,162.35 298.92,216.65 46.48,-23.14 108.22,-84.58 155.93,-122.21l159.16 -99.79c-47.2,88.66 -156.96,201.71 -153.08,345.84 4.58,170.68 234.66,106.42 322.85,52.02 184.31,-113.73 388.84,-346.02 574.93,-408.55l-37.42 77.74c90.83,-10.72 138.34,-46.41 253.42,-28.67 64.99,10.02 167.33,55.06 171.76,105.38 -65.63,0.29 -139.37,-1.73 -203.41,13.75 -16.95,4.1 -16.96,4.21 -31.48,10.67 -23.1,10.3 -13.98,7.4 -21.64,12.6 69.33,90.12 122.15,124.91 92.76,295.39 -14.18,82.18 -43.86,140.77 -94.9,192.9 -23.32,23.81 -29.31,22.5 -47.74,49.46 69.33,-1.13 157.58,-15.77 210.24,18.55l-12.37 9.17c-2.3,1.47 -10.48,6.55 -13.26,8.07l-166.29 59.81c-62.08,12.44 -183.55,4.58 -252.83,5.8 23.75,38.77 43.68,46.79 70.76,82.88 24.41,32.54 32.26,62.46 63.07,91.32 28.93,12.12 488.39,-2.67 730.65,142.96 -53.28,1.61 -109.65,-11.12 -164.55,-14.18l-531.71 -22.42 23.08 145.74c57.02,20.59 121.5,24.96 180.12,46.25 104.97,38.12 336.59,177.69 381.08,269.29 -192.51,-54 -352.53,-195.58 -567.17,-198.27 -25.43,43.81 -34.49,99.55 -56.34,141.86 -22.13,42.89 -50.1,79.51 -76.69,108.42 -102.72,111.67 -173.87,84.51 -222.83,153.46 17.01,60.33 90.1,84.45 129.35,133.49 302.48,377.94 182.54,331.83 267.71,536.34 21.32,-6.33 10.47,-0.66 26.38,-14.56 6.14,-5.38 8.93,-10.23 14.02,-17.07 162.59,-218.51 179.61,-478.83 95.11,-729.49 45.69,3.48 1.53,-7.56 106.74,127.08 55.07,70.45 200.9,370.48 241.97,435.62 95.27,-100.64 9.72,-262.7 -10.71,-372.15 231.2,46.01 332.28,211.35 441.59,261.1 -0.79,-183.68 -14.79,-346.35 -69.71,-504.97 -49.83,-143.93 -153.3,-238.67 -213.85,-360.53 150.69,7.43 388.47,99.47 511.97,143.58 -13.19,-149.76 -155.76,-356.92 -257.57,-452.34 -46.91,-43.95 -87.12,-59.24 -114.57,-114.5l209.54 61.85c-110.69,-218.93 -432.98,-414.85 -509.32,-606.38 96.47,13.55 119.61,46.77 209.1,-9.32 152.24,-95.44 305.04,-285.54 218.34,-498.42 -125.22,-307.47 -551.18,-194.57 -630.15,-5.23l81.37 52.06c66.74,-35.43 135.2,-75.51 234.24,-61.59 280.01,39.34 240.99,450.36 23.29,499.45 -174.77,-156.67 -159.54,-231.41 -475.55,-469.86 -96,-72.44 -242.22,-99.18 -382.27,-55.98 -48.43,14.94 -108.44,55.14 -156.21,80.27 -50.96,26.8 -97.63,67.67 -149.04,91.05 62.67,-186.45 333.62,-236.26 395.97,-266.09 -128.6,-80.59 -290.09,-96.12 -471.19,-85.99l30.98 -41.13c-139.41,-10.6 -247.12,32.06 -350.94,26.86l-13.19 -53.17c-93.52,-49.73 -258.32,-81.09 -377.54,-99.29z"/>
   <path class="fil2" d="M3433.64 904.71c182.65,-41.77 301.14,220.17 97.74,288.47 -99.74,33.49 -166.28,-14.12 -193.87,-90.4 -37.94,-104.86 6.62,-177.59 96.13,-198.07zm-2042.62 -0.59c86.21,-27.47 177.09,8.19 194.88,86.59 17.38,76.64 -27.16,190.61 -93.82,202.52 -237.13,42.29 -266.71,-236.31 -101.05,-289.1zm1038.01 -155.58c92.04,-31.58 199.18,52.95 210.34,127.66 14.56,97.47 -65.27,194.84 -140.39,211.68 -159.86,35.87 -334.68,-248.51 -69.95,-339.35zm-471.7 118.61l-309.09 -228.41c-59.07,-43.45 -270.22,-205.7 -319.32,-227.6l-193.86 509.48 -349.54 -170.67c-35.33,-18.92 -74.21,-48.16 -112.75,-59.9 94.41,286.04 284.23,576.57 376.51,856.18 92.9,-16.01 202.76,-66.98 314,-90.27 117.78,-24.65 221.15,-48.49 342.18,-69.27 246.85,-42.36 500.59,-59.44 756.67,-59.46 270.16,-0.02 490.43,33.46 747.62,68.73 59.88,8.21 122.7,7.89 182.81,22.16 58.59,13.89 108.08,26.36 168.34,38.13 58.75,11.46 105.68,24.66 163.43,42.33 54.92,16.82 101.04,41.33 159.44,49.46 59,-188.57 278.56,-611.84 367.48,-867.15 -85.04,13.32 -365.9,202.74 -470.51,245.47 -18.91,-28.12 -139.27,-446.44 -175.13,-524.4 -83.03,11.08 -547.69,417.85 -638.71,469.16 -56.73,-45 -431.71,-579.79 -501.14,-640.81l-377.64 477.26c-43.28,54.7 -79.63,123.69 -130.79,159.56z"/>
   <path class="fil2" d="M1794.05 5192.95c-44.08,-21.17 -165.62,-171.95 -191.94,-232.6 -2.72,67.93 37.33,215.07 48.71,291.49 18.83,126.58 28.54,169 75.81,274.07 64.52,143.45 188.01,329.7 298.28,392.46 4.32,-48.57 -26.48,-122.89 -5.76,-158.24 20.33,22.23 73.87,126.57 100.39,166.12 64.73,96.48 273.18,375.86 352.88,438.7 263.75,-248.12 416.47,-628.16 499.22,-676.41l-46.14 193.53c87.87,-45.21 245.27,-239.67 287.15,-361.88 17.02,-49.65 105.89,-484.25 102.53,-532.51 -35.89,47.9 -141.36,193.9 -191.7,212.67l36.69 -221.43c-77.87,101.3 -207.79,393.68 -339.33,451.64l57.2 -240.29c-46.5,11.62 -156.05,131.2 -221.54,185.63 -68.44,56.84 -165.08,182.35 -194.38,205.18l-300.54 -315.22c-42.72,26.48 8.51,16.41 -41.33,38.7 -45.91,-40.11 -52.14,-56 -93.73,-96.21l32.69 189.62c-71.41,-45.59 -180.36,-208.29 -229.27,-294.81 -19.82,-35.09 -35.94,-78.65 -62.3,-105.13l26.41 194.93z"/>
   <path class="fil2" d="M2401.74 3718.92c-81.97,-54.95 -85.57,-16.8 -215.85,-146.18 -38.19,-37.93 -143.92,-130.18 -161.04,-189.01 -55.52,-190.75 261.3,-256.47 437.19,-258.51 171.39,-1.99 498.62,44.92 449.41,249.81 -15.97,66.46 -124.01,152.86 -167.33,193.16 -47.74,44.43 -132.45,116.01 -210.4,140.64 5.39,137.72 44.82,180.09 136.68,234.57 80.47,47.73 162.94,81.9 267.63,103.63 107.01,22.22 236.04,22.39 323.1,-23.97 91.93,-48.99 116.18,-101.73 154.98,-208.4 -140.15,-57.35 -255.9,40.23 -271.33,-46.2 -18.84,-105.41 204.14,-55.51 272.87,-72.51 -3.44,-31.44 -4.84,-71.42 -19.16,-99.96 -39.4,-78.44 -164.78,18.24 -234.12,5.13l-20.56 -81.11 193.38 -46.04c-54.49,-120.82 -214.08,-242.51 -348.46,-302.56 -160.84,-71.88 -332.13,-117.33 -536.92,-115.87 -189.25,1.34 -390.27,50.51 -530.26,123.16 -129.08,66.99 -291.06,190.59 -345.22,303.34 86.87,11.76 133.05,24.86 205.82,47.29 -0.98,163.95 -67.53,28.81 -247.18,48.4 -28.72,40.66 -30.44,76.88 -31.4,131.92 65.11,-2.23 291.43,-50.34 268.47,59.03 -12.67,60.41 -81.87,21.68 -127.24,16.02 -42.11,-5.25 -97.85,8.45 -131.37,26.96 5.01,92.11 102.06,183.93 162.8,219.44 83.64,48.9 213.75,46.69 319.76,25.78 188.28,-37.11 398.15,-143.62 405.75,-337.93z"/>
   <path class="fil2" d="M1093.6 1700.8l45.7 123.65c51.96,-13.02 90.46,-37.15 138.43,-52.11 48.18,-15.04 104.94,-31.07 154.17,-41.6 518.77,-111.13 1239.21,-135.49 1760.54,-50.55 240.1,39.12 405.72,87.2 616.69,150.97l26.15 -110.22c-194.8,-148.15 -1091.01,-228.74 -1362.45,-233.43 -415.86,-7.21 -1042.22,75.91 -1379.22,213.29z"/>
   <path class="fil3" d="M1978.91 4214.37c27.27,97.04 132.04,581.41 163.86,623.26 75.49,-27.38 162.65,-44.61 258.78,-47.07l-11.51 -732.34c-152.85,58.84 -209.83,131.24 -411.14,156.15z"/>
   <path class="fil3" d="M2791.77 4840.02c29.21,-44.85 147.81,-547.44 153.72,-624.58l-184.61 -33.45c-13.43,17.24 -4.71,8.13 -16.84,26.02 -9.36,13.84 -7.63,12.21 -14.71,20.34 -23.66,-95.17 0.82,-59.26 -80,-99.53 -45.89,-22.85 -60.91,-49.05 -101.5,-67.37 -8.01,119.81 -10.23,247.81 -12.03,367.85l0.65 339.44c0.43,2.9 1.55,6.59 1.98,8.88 0.41,2.24 2.1,9.86 2.45,8.49 0.34,-1.35 1.52,5.65 2.7,8.3 40.67,8.63 94.12,8.08 135.94,15.83 43.8,8.13 74.32,22.58 112.27,29.77z"/>
   <path class="fil3" d="M2429.03 748.53c-264.73,90.84 -89.91,375.22 69.95,339.35 75.12,-16.85 154.95,-114.21 140.39,-211.68 -11.16,-74.71 -118.3,-159.25 -210.34,-127.66z"/>
   <path class="fil4" d="M3039.4 3008.29c26.01,74.82 109.36,104.07 182.21,146.93 132.88,78.18 364.57,-38.81 380.05,-229.11 10.4,-127.99 -57.87,-161.04 -100.03,-228.3l-72.61 32.77c24.32,50.78 59.03,100.36 45.03,177.09 -11.37,62.22 -55.84,112.33 -97,139.65 -52.15,34.61 -121.87,42.73 -188.86,17.61 -81.06,-30.4 -75.94,-71.3 -148.79,-56.64zm-1345.15 -98.74c-56.51,77.8 -146.41,30.1 -117.18,-77.68 16.44,-4.36 -20.56,-8.04 25.01,-2.25l15.19 3.93c21.51,7.77 65.33,38.26 76.99,76zm157.67 81.47c-70.36,57.31 -190.89,144.15 -307.25,48.53 -107.31,-88.18 -114.02,-189.58 -46.5,-299.31l-24.06 -21.61c-1.63,-1.58 -3.93,-3.58 -5.49,-5.16 -13.49,-13.71 -13.96,-16.04 -21.73,-27.83 -126.11,60.61 -204.83,270.66 -8.24,429.11 205.17,165.38 409.72,-40.77 436.68,-97.57l-23.41 -26.18zm1375.14 -116.84c56.52,77.8 146.41,30.11 117.18,-77.67 -16.44,-4.37 20.56,-8.04 -25,-2.25l-15.19 3.93c-21.51,7.77 -65.33,38.25 -77,75.99z"/>
   <path class="fil3" d="M3433.64 904.71c-89.51,20.48 -134.07,93.21 -96.13,198.07 27.59,76.28 94.13,123.89 193.87,90.4 203.4,-68.29 84.9,-330.24 -97.74,-288.47z"/>
   <path class="fil3" d="M1391.02 904.12c-165.65,52.79 -136.08,331.39 101.05,289.1 66.66,-11.9 111.21,-125.88 93.82,-202.52 -17.79,-78.39 -108.67,-114.06 -194.88,-86.59z"/>
   <path class="fil2" d="M2777.94 3269.12c-131.2,-73.6 -542.89,-102.35 -608.54,11.56 69.4,10.95 280.7,75.71 311.67,73.91 6.03,-0.35 285.8,-80 296.86,-85.47z"/>
  </g>
 </g>
</svg>
