<?xml version="1.0" encoding="UTF-8"?>
<!DOCTYPE svg PUBLIC "-//W3C//DTD SVG 1.1//EN" "http://www.w3.org/Graphics/SVG/1.1/DTD/svg11.dtd">
<!-- Creator: CorelDRAW X8 -->
<svg xmlns="http://www.w3.org/2000/svg" xml:space="preserve" width="297mm" height="210mm" version="1.1" style="shape-rendering:geometricPrecision; text-rendering:geometricPrecision; image-rendering:optimizeQuality; fill-rule:evenodd; clip-rule:evenodd"
viewBox="0 0 29700 21000"
 xmlns:xlink="http://www.w3.org/1999/xlink">
 <defs>
  <style type="text/css">
   <![CDATA[
    .str0 {stroke:black;stroke-width:20}
    .fil0 {fill:none}
    .fil16 {fill:black}
    .fil34 {fill:#00CCFF}
    .fil19 {fill:aqua}
    .fil30 {fill:#181B32}
    .fil36 {fill:#181B32}
    .fil37 {fill:#1A1626}
    .fil13 {fill:#21302B}
    .fil9 {fill:#21302B}
    .fil4 {fill:#2A1304}
    .fil6 {fill:#2A1304}
    .fil1 {fill:#2C3D51}
    .fil8 {fill:#2C3D51}
    .fil17 {fill:#3C0404}
    .fil28 {fill:#422B0D}
    .fil29 {fill:#422B0D}
    .fil31 {fill:#5F1516}
    .fil26 {fill:#611204}
    .fil22 {fill:#672604}
    .fil15 {fill:#6F4104}
    .fil18 {fill:#A12210}
    .fil32 {fill:#D83644}
    .fil23 {fill:#E6E6E6}
    .fil24 {fill:#F65D72}
    .fil27 {fill:#F65D72}
    .fil38 {fill:#FCFDFE}
    .fil39 {fill:#FD7383}
    .fil2 {fill:#FEC12B}
    .fil10 {fill:red}
    .fil7 {fill:#FFBD2D}
    .fil14 {fill:#FFBD2D}
    .fil5 {fill:white}
    .fil35 {fill:white}
    .fil25 {fill:white}
    .fil3 {fill:white;fill-opacity:0.301961}
    .fil11 {fill:white;fill-opacity:0.301961}
    .fil20 {fill:white;fill-opacity:0.450980}
    .fil21 {fill:white;fill-opacity:0.470588}
    .fil12 {fill:white;fill-opacity:0.501961}
    .fil33 {fill:white}
   ]]>
  </style>
     <mask id="id0">
  <radialGradient id="id1" gradientUnits="userSpaceOnUse" cx="11399.7" cy="2313.95" r="0" fx="11399.7" fy="2313.95">
   <stop offset="0" style="stop-opacity:0.588235; stop-color:white"/>
   <stop offset="1" style="stop-opacity:0; stop-color:white"/>
  </radialGradient>
      <rect style="fill:url(#id1)" x="11390" y="2304" width="439" height="439"/>
     </mask>
     <mask id="id2">
  <radialGradient id="id3" gradientUnits="userSpaceOnUse" cx="12931.8" cy="2313.95" r="0" fx="12931.8" fy="2313.95">
   <stop offset="0" style="stop-opacity:0.588235; stop-color:white"/>
   <stop offset="1" style="stop-opacity:0; stop-color:white"/>
  </radialGradient>
      <rect style="fill:url(#id3)" x="12922" y="2304" width="439" height="439"/>
     </mask>
     <mask id="id4">
  <radialGradient id="id5" gradientUnits="userSpaceOnUse" cx="16349.7" cy="2488.7" r="0" fx="16349.7" fy="2488.7">
   <stop offset="0" style="stop-opacity:0.588235; stop-color:white"/>
   <stop offset="1" style="stop-opacity:0; stop-color:white"/>
  </radialGradient>
      <rect style="fill:url(#id5)" x="16340" y="2479" width="439" height="439"/>
     </mask>
     <mask id="id6">
  <radialGradient id="id7" gradientUnits="userSpaceOnUse" cx="17881.8" cy="2488.7" r="0" fx="17881.8" fy="2488.7">
   <stop offset="0" style="stop-opacity:0.588235; stop-color:white"/>
   <stop offset="1" style="stop-opacity:0; stop-color:white"/>
  </radialGradient>
      <rect style="fill:url(#id7)" x="17872" y="2479" width="439" height="439"/>
     </mask>
    <mask id="id8">
  <radialGradient id="id9" gradientUnits="userSpaceOnUse" cx="21817.6" cy="12347.8" r="0" fx="21817.6" fy="12347.8">
   <stop offset="0" style="stop-opacity:1; stop-color:white"/>
   <stop offset="1" style="stop-opacity:0; stop-color:white"/>
  </radialGradient>
     <rect style="fill:url(#id9)" x="21808" y="12338" width="140" height="140"/>
    </mask>
    <mask id="id10">
  <radialGradient id="id11" gradientUnits="userSpaceOnUse" cx="22984.5" cy="12347.8" r="0" fx="22984.5" fy="12347.8">
   <stop offset="0" style="stop-opacity:1; stop-color:white"/>
   <stop offset="1" style="stop-opacity:0; stop-color:white"/>
  </radialGradient>
     <rect style="fill:url(#id11)" x="22974" y="12338" width="140" height="140"/>
    </mask>
     <mask id="id12">
  <radialGradient id="id13" gradientUnits="userSpaceOnUse" cx="26698.6" cy="12349" r="0" fx="26698.6" fy="12349">
   <stop offset="0" style="stop-opacity:1; stop-color:white"/>
   <stop offset="1" style="stop-opacity:0; stop-color:white"/>
  </radialGradient>
      <rect style="fill:url(#id13)" x="26689" y="12339" width="140" height="140"/>
     </mask>
     <mask id="id14">
  <radialGradient id="id15" gradientUnits="userSpaceOnUse" cx="27865.5" cy="12349" r="0" fx="27865.5" fy="12349">
   <stop offset="0" style="stop-opacity:1; stop-color:white"/>
   <stop offset="1" style="stop-opacity:0; stop-color:white"/>
  </radialGradient>
      <rect style="fill:url(#id15)" x="27855" y="12339" width="140" height="140"/>
     </mask>
    <mask id="id16">
  <radialGradient id="id17" gradientUnits="userSpaceOnUse" cx="2411.25" cy="13731.5" r="0" fx="2411.25" fy="13731.5">
   <stop offset="0" style="stop-opacity:0.54902; stop-color:white"/>
   <stop offset="1" style="stop-opacity:0; stop-color:white"/>
  </radialGradient>
     <rect style="fill:url(#id17)" x="2401" y="13722" width="375" height="112"/>
    </mask>
      <mask id="id18">
  <radialGradient id="id19" gradientUnits="userSpaceOnUse" cx="3182.44" cy="12095" r="695.39" fx="3182.44" fy="12095">
   <stop offset="0" style="stop-opacity:0.54902; stop-color:white"/>
   <stop offset="1" style="stop-opacity:0; stop-color:white"/>
  </radialGradient>
       <rect style="fill:url(#id19)" x="3429" y="12577" width="250" height="328"/>
      </mask>
      <mask id="id20">
  <radialGradient id="id21" gradientUnits="userSpaceOnUse" cx="1251.4" cy="12095" r="695.39" fx="1251.4" fy="12095">
   <stop offset="0" style="stop-opacity:0.54902; stop-color:white"/>
   <stop offset="1" style="stop-opacity:0; stop-color:white"/>
  </radialGradient>
       <rect style="fill:url(#id21)" x="1498" y="12577" width="250" height="328"/>
      </mask>
      <mask id="id22">
  <radialGradient id="id23" gradientUnits="userSpaceOnUse" cx="8057.96" cy="12275" r="695.39" fx="8057.96" fy="12275">
   <stop offset="0" style="stop-opacity:0.54902; stop-color:white"/>
   <stop offset="1" style="stop-opacity:0; stop-color:white"/>
  </radialGradient>
       <rect style="fill:url(#id23)" x="8305" y="12757" width="250" height="328"/>
      </mask>
      <mask id="id24">
  <radialGradient id="id25" gradientUnits="userSpaceOnUse" cx="6126.92" cy="12275" r="695.39" fx="6126.92" fy="12275">
   <stop offset="0" style="stop-opacity:0.54902; stop-color:white"/>
   <stop offset="1" style="stop-opacity:0; stop-color:white"/>
  </radialGradient>
       <rect style="fill:url(#id25)" x="6374" y="12757" width="250" height="328"/>
      </mask>
    <mask id="id26">
  <radialGradient id="id27" gradientUnits="userSpaceOnUse" cx="7286.77" cy="13871.5" r="0" fx="7286.77" fy="13871.5">
   <stop offset="0" style="stop-opacity:0.54902; stop-color:white"/>
   <stop offset="1" style="stop-opacity:0; stop-color:white"/>
  </radialGradient>
     <rect style="fill:url(#id27)" x="7277" y="13862" width="375" height="112"/>
    </mask>
     <mask id="id28">
  <radialGradient id="id29" gradientUnits="userSpaceOnUse" cx="7025.8" cy="19114.1" r="0" fx="7025.8" fy="19114.1">
   <stop offset="0" style="stop-opacity:1; stop-color:white"/>
   <stop offset="1" style="stop-opacity:0.568627; stop-color:white"/>
  </radialGradient>
      <rect style="fill:url(#id29)" x="7016" y="19104" width="846" height="258"/>
     </mask>
     <mask id="id30">
  <radialGradient id="id31" gradientUnits="userSpaceOnUse" cx="2150.28" cy="18987.7" r="0" fx="2150.28" fy="18987.7">
   <stop offset="0" style="stop-opacity:1; stop-color:white"/>
   <stop offset="1" style="stop-opacity:0.568627; stop-color:white"/>
  </radialGradient>
      <rect style="fill:url(#id31)" x="2140" y="18978" width="846" height="258"/>
     </mask>
    <mask id="id32">
  <radialGradient id="id33" gradientUnits="userSpaceOnUse" cx="11975.5" cy="17680.3" r="0" fx="11975.5" fy="17680.3">
   <stop offset="0" style="stop-opacity:1; stop-color:white"/>
   <stop offset="1" style="stop-opacity:0; stop-color:white"/>
  </radialGradient>
     <rect style="fill:url(#id33)" x="11965" y="17670" width="140" height="140"/>
    </mask>
    <mask id="id34">
  <radialGradient id="id35" gradientUnits="userSpaceOnUse" cx="13142.3" cy="17680.3" r="0" fx="13142.3" fy="17680.3">
   <stop offset="0" style="stop-opacity:1; stop-color:white"/>
   <stop offset="1" style="stop-opacity:0; stop-color:white"/>
  </radialGradient>
     <rect style="fill:url(#id35)" x="13132" y="17670" width="140" height="140"/>
    </mask>
     <mask id="id36">
  <radialGradient id="id37" gradientUnits="userSpaceOnUse" cx="16856.5" cy="17681.5" r="0" fx="16856.5" fy="17681.5">
   <stop offset="0" style="stop-opacity:1; stop-color:white"/>
   <stop offset="1" style="stop-opacity:0; stop-color:white"/>
  </radialGradient>
      <rect style="fill:url(#id37)" x="16846" y="17672" width="140" height="140"/>
     </mask>
     <mask id="id38">
  <radialGradient id="id39" gradientUnits="userSpaceOnUse" cx="18023.3" cy="17681.5" r="0" fx="18023.3" fy="17681.5">
   <stop offset="0" style="stop-opacity:1; stop-color:white"/>
   <stop offset="1" style="stop-opacity:0; stop-color:white"/>
  </radialGradient>
      <rect style="fill:url(#id39)" x="18013" y="17672" width="140" height="140"/>
     </mask>
    <mask id="id40">
  <radialGradient id="id41" gradientUnits="userSpaceOnUse" cx="22064.1" cy="18984.5" r="0" fx="22064.1" fy="18984.5">
   <stop offset="0" style="stop-opacity:1; stop-color:white"/>
   <stop offset="1" style="stop-opacity:0.568627; stop-color:white"/>
  </radialGradient>
     <rect style="fill:url(#id41)" x="22054" y="18975" width="814" height="249"/>
    </mask>
    <mask id="id42">
  <radialGradient id="id43" gradientUnits="userSpaceOnUse" cx="26945.1" cy="19150.9" r="0" fx="26945.1" fy="19150.9">
   <stop offset="0" style="stop-opacity:1; stop-color:white"/>
   <stop offset="1" style="stop-opacity:0.568627; stop-color:white"/>
  </radialGradient>
     <rect style="fill:url(#id43)" x="26935" y="19141" width="814" height="249"/>
    </mask>
 </defs>
 <g id="Layer_x0020_1">
  <metadata id="CorelCorpID_0Corel-Layer"/>
  <g id="_2537605050768">
   <rect class="fil0 str0" transform="matrix(1.58289E-14 -0.896498 0.974409 3.87102E-14 24750 10500)" width="5856" height="5080"/>
   <rect class="fil0 str0" transform="matrix(-1.58289E-14 -0.896498 -0.974409 3.87102E-14 24750 10500)" width="5856" height="5080"/>
   <rect class="fil0 str0" transform="matrix(1.58289E-14 -0.896498 0.974409 3.87102E-14 24750 5250)" width="5856" height="5080"/>
   <rect class="fil0 str0" transform="matrix(-1.58289E-14 -0.896498 -0.974409 3.87102E-14 24750 5250)" width="5856" height="5080"/>
   <rect class="fil0 str0" transform="matrix(1.58289E-14 -0.896498 0.974409 3.87102E-14 24750 21000)" width="5856" height="5080"/>
   <rect class="fil0 str0" transform="matrix(1.58289E-14 -0.896498 0.974409 3.87102E-14 24750 15750)" width="5856" height="5080"/>
   <rect class="fil0 str0" transform="matrix(1.58289E-14 -0.896498 0.974409 3.87102E-14 19800 21000)" width="5856" height="5080"/>
   <rect class="fil0 str0" transform="matrix(1.58289E-14 -0.896498 0.974409 3.87102E-14 19800 15750)" width="5856" height="5080"/>
   <rect class="fil0 str0" transform="matrix(1.58289E-14 -0.896498 0.974409 3.87102E-14 14850 10500)" width="5856" height="5080"/>
   <rect class="fil0 str0" transform="matrix(-1.58289E-14 -0.896498 -0.974409 3.87102E-14 14850 10500)" width="5856" height="5080"/>
   <rect class="fil0 str0" transform="matrix(1.58289E-14 -0.896498 0.974409 3.87102E-14 14850 5250)" width="5856" height="5080"/>
   <rect class="fil0 str0" transform="matrix(-1.58289E-14 -0.896498 -0.974409 3.87102E-14 14850 5250)" width="5856" height="5080"/>
   <rect class="fil0 str0" transform="matrix(1.58289E-14 -0.896498 0.974409 3.87102E-14 14850 21000)" width="5856" height="5080"/>
   <rect class="fil0 str0" transform="matrix(1.58289E-14 -0.896498 0.974409 3.87102E-14 14850 15750)" width="5856" height="5080"/>
   <rect class="fil0 str0" transform="matrix(1.58289E-14 -0.896498 0.974409 3.87102E-14 9900 21000)" width="5856" height="5080"/>
   <rect class="fil0 str0" transform="matrix(1.58289E-14 -0.896498 0.974409 3.87102E-14 9900 15750)" width="5856" height="5080"/>
   <rect class="fil0 str0" transform="matrix(1.58289E-14 -0.896498 0.974409 3.87102E-14 4950 10500)" width="5856" height="5080"/>
   <rect class="fil0 str0" transform="matrix(-1.58289E-14 -0.896498 -0.974409 3.87102E-14 4950 10500)" width="5856" height="5080"/>
   <rect class="fil0 str0" transform="matrix(1.58289E-14 -0.896498 0.974409 3.87102E-14 4950 5250)" width="5856" height="5080"/>
   <rect class="fil0 str0" transform="matrix(-1.58289E-14 -0.896498 -0.974409 3.87102E-14 4950 5250)" width="5856" height="5080"/>
   <rect class="fil0 str0" transform="matrix(1.58289E-14 -0.896498 0.974409 3.87102E-14 4950 21000)" width="5856" height="5080"/>
   <rect class="fil0 str0" transform="matrix(1.58289E-14 -0.896498 0.974409 3.87102E-14 4950 15750)" width="5856" height="5080"/>
   <rect class="fil0 str0" transform="matrix(1.58289E-14 -0.896498 0.974409 3.87102E-14 -0.000815193 21000)" width="5856" height="5080"/>
   <rect class="fil0 str0" transform="matrix(1.58289E-14 -0.896498 0.974409 3.87102E-14 -0.000815193 15750)" width="5856" height="5080"/>
  </g>
  <g id="_2537605045456">
   <path class="fil1" d="M897 1386l0 73c2,5 5,8 7,12 4,17 12,34 22,48 5,9 12,19 25,30l1 0 0 0c27,25 64,41 104,42l0 0 1 0 1 0c84,2 165,-60 167,-158 3,-94 -62,-153 -135,-166l-4 0 0 0 -2 0 -5 -1 0 0c-2,0 -4,-1 -6,-1l-2 0 -3 0c-45,-2 -91,14 -124,50 -13,13 -24,28 -31,45l-12 20c-1,-1 -3,4 -4,6zm337 806c-124,0 -224,100 -224,224 0,124 100,225 224,225 3,0 5,0 8,0l0 638c0,241 197,438 438,438l1048 0c2,3 4,5 6,8 378,450 273,684 273,684 483,-541 407,-651 512,-709 23,-6 45,-15 66,-25l0 0 0 0c148,-70 251,-222 251,-396l0 -638c121,-4 217,-103 217,-225 0,-121 -96,-220 -217,-224l0 -638c0,-241 -197,-438 -438,-438l-1718 0c-241,0 -438,197 -438,438l0 638c-3,0 -5,0 -8,0zm-91 -1089c10,56 49,89 94,100 13,4 27,6 41,6 26,0 51,-8 72,-21 47,-26 78,-77 60,-150 -12,-50 -45,-80 -84,-94 -15,-5 -31,-9 -48,-9 -32,0 -61,11 -84,29 -39,28 -63,75 -51,139zm465 -262c60,0 109,49 109,110 0,60 -49,109 -109,109 -60,0 -109,-49 -109,-109 0,-61 49,-110 109,-110zm1101 84c14,0 26,11 26,26 0,14 -12,26 -26,26 -14,0 -26,-12 -26,-26 0,-15 12,-26 26,-26zm-139 -11c20,0 36,16 36,37 0,20 -16,36 -36,36 -21,0 -37,-16 -37,-36 0,-21 16,-37 37,-37zm-185 -17c30,0 53,24 53,54 0,29 -23,53 -53,53 -29,0 -53,-24 -53,-53 0,-30 24,-54 53,-54zm-203 -11c36,0 65,29 65,65 0,36 -29,65 -65,65 -36,0 -65,-29 -65,-65 0,-36 29,-65 65,-65zm-257 -20c47,0 85,38 85,85 0,46 -38,84 -85,84 -47,0 -85,-38 -85,-84 0,-47 38,-85 85,-85z"/>
   <rect class="fil2" x="1405" y="1280" width="2268" height="2274" rx="383" ry="72"/>
   <path class="fil3" d="M1788 1280l1502 0c211,0 383,172 383,383l0 504c-310,250 -704,400 -1134,400 -429,0 -824,-150 -1134,-400l0 -504c0,-211 172,-383 383,-383z"/>
   <g>
    <circle class="fil4" cx="1978" cy="2009" r="247"/>
    <circle class="fil5" cx="2062" cy="1911" r="71"/>
    <circle class="fil4" cx="3100" cy="2009" r="247"/>
    <circle class="fil5" cx="3184" cy="1911" r="71"/>
    <path class="fil6" d="M1928 3272c0,0 13,-36 40,-86 73,-115 246,-328 547,-336 302,8 475,221 548,336 27,50 40,86 40,86 -7,-95 -66,-252 -118,-326 -83,-122 -225,-232 -466,-232l-4 1 -3 -1c-241,0 -383,110 -466,232 -52,74 -111,232 -118,326z"/>
   </g>
  </g>
  <g id="_2537605078480">
   <path class="fil1" d="M6112 2724c-90,-33 -154,-119 -154,-221 0,-110 77,-203 180,-228 134,-583 657,-1018 1282,-1018 624,0 1146,433 1282,1016 108,21 190,116 190,230 0,106 -69,195 -165,224 -28,240 -120,460 -259,642l0 0c0,0 129,37 -9,950 0,0 -76,-369 -669,-483l0 0c-117,35 -241,53 -370,53 -676,0 -1233,-509 -1308,-1165z"/>
   <circle class="fil7" cx="7420" cy="2573" r="1171"/>
   <path class="fil3" d="M7420 1402c503,0 932,317 1098,762 -291,330 -676,530 -1098,530 -422,0 -807,-200 -1097,-530 165,-445 594,-762 1097,-762z"/>
   <path class="fil1" d="M6315 1303c94,0 171,77 171,171 0,95 -77,171 -171,171 -95,0 -172,-76 -172,-171 0,-94 77,-171 172,-171zm1641 -210c13,0 23,10 23,23 0,13 -10,23 -23,23 -13,0 -23,-10 -23,-23 0,-13 10,-23 23,-23zm-132 -61c18,0 34,15 34,34 0,19 -16,35 -34,35 -19,0 -35,-16 -35,-35 0,-19 16,-34 35,-34zm-166 -54c28,0 51,22 51,50 0,28 -23,51 -51,51 -28,0 -50,-23 -50,-51 0,-28 22,-50 50,-50zm-190 -41c40,0 73,33 73,73 0,40 -33,73 -73,73 -40,0 -73,-33 -73,-73 0,-40 33,-73 73,-73zm-245 -6c52,0 95,42 95,94 0,52 -43,94 -95,94 -52,0 -94,-42 -94,-94 0,-52 42,-94 94,-94zm-292 31c69,0 125,57 125,126 0,69 -56,126 -125,126 -70,0 -126,-57 -126,-126 0,-69 56,-126 126,-126zm-296 116c80,0 145,65 145,146 0,80 -65,145 -145,145 -81,0 -146,-65 -146,-145 0,-81 65,-146 146,-146z"/>
   <circle class="fil4" cx="6845" cy="2178" r="247"/>
   <circle class="fil5" cx="6929" cy="2081" r="71"/>
   <circle class="fil4" cx="7967" cy="2178" r="247"/>
   <circle class="fil5" cx="8051" cy="2081" r="71"/>
   <path class="fil6" d="M6795 3441c0,0 12,-35 40,-86 72,-115 246,-328 547,-336 301,8 475,221 547,336 28,51 40,86 40,86 -7,-94 -65,-251 -117,-326 -84,-122 -226,-231 -466,-231l-4 0 -3 0c-241,0 -383,109 -466,231 -52,74 -111,232 -118,326z"/>
  </g>
  <g id="_2537605075248">
   <path class="fil8" d="M11557 1118l1718 0c241,0 438,198 438,439l0 649c12,-2 24,-3 37,-3 124,0 224,101 224,225 0,124 -100,224 -224,224 -13,0 -25,-1 -37,-3l0 633c0,174 -103,326 -252,396l0 0 0 0c-21,10 -42,18 -65,25 -106,58 -29,168 -512,708 0,0 104,-233 -274,-683 -2,-3 -4,-5 -6,-8l-1047 0c-241,0 -439,-197 -439,-438l0 -633c-106,-17 -188,-110 -188,-221 0,-112 82,-204 188,-222l0 -649c0,-241 198,-439 439,-439z"/>
   <rect class="fil2" x="11282" y="1282" width="2268" height="2274" rx="383" ry="72"/>
   <path class="fil9" d="M13119 2758c8,0 16,6 19,15 1,1 1,3 1,7 1,11 2,21 2,32 0,318 -323,576 -722,576l-3 0 -4 0c-398,0 -721,-258 -721,-576 0,-11 0,-21 1,-32 0,-4 1,-6 1,-7 3,-9 11,-15 20,-15 6,0 12,3 16,9 1,1 2,2 2,4l0 0c106,241 372,413 685,418 313,-5 579,-177 684,-418l0 0c1,-2 2,-3 2,-4 4,-6 10,-9 17,-9z"/>
   <g>
    <path class="fil10" style="mask:url(#id0)" d="M11609 2314c115,0 209,94 209,209 0,116 -94,209 -209,209 -116,0 -209,-93 -209,-209 0,-115 93,-209 209,-209z"/>
    <path class="fil10" style="mask:url(#id2)" d="M13141 2314c116,0 209,94 209,209 0,116 -93,209 -209,209 -115,0 -209,-93 -209,-209 0,-115 94,-209 209,-209z"/>
   </g>
   <path class="fil11" d="M11665 1282l1502 0c210,0 383,173 383,383l0 504c-310,250 -705,400 -1134,400 -430,0 -824,-150 -1134,-400l0 -504c0,-210 172,-383 383,-383z"/>
   <path class="fil9" d="M13234 2030c0,5 -4,9 -9,9 -63,0 -325,-207 -550,-4 -1,0 -1,1 -2,1 -2,2 -4,3 -7,3 -5,0 -9,-4 -10,-9l0 0 0 0c25,-369 578,-329 578,0z"/>
   <path class="fil12" d="M12951 1790c69,0 125,16 125,37 0,20 -56,36 -125,36 -69,0 -124,-16 -124,-36 0,-21 55,-37 124,-37z"/>
   <path class="fil9" d="M11597 2030c0,5 4,9 9,9 64,0 325,-207 550,-4 1,0 2,1 2,1 2,2 5,3 8,3 5,0 9,-4 9,-9l0 0 0 0c-25,-369 -578,-329 -578,0z"/>
   <path class="fil12" d="M11880 1790c-69,0 -124,16 -124,37 0,20 55,36 124,36 69,0 125,-16 125,-36 0,-21 -56,-37 -125,-37z"/>
   <path class="fil8" d="M10776 1383l0 74c3,4 5,8 7,11 4,18 12,34 22,48 5,10 13,19 26,30l0 0 0 1c28,25 64,40 104,42l0 0 1 0 1 0c84,2 165,-61 167,-159 3,-94 -62,-153 -135,-165l-4 -1 0 0 -2 0 -5 -1 0 0c-2,0 -4,0 -6,0l-2 0 -3 -1c-45,-2 -91,14 -124,50 -13,13 -23,28 -31,45l-12 20c-1,-1 -3,4 -4,6zm246 -283c10,57 49,89 95,100 12,4 26,6 40,6 26,0 51,-7 72,-21 47,-25 78,-77 61,-149 -13,-51 -46,-81 -84,-94 -16,-6 -32,-9 -49,-9 -32,0 -61,11 -84,29 -39,27 -63,74 -51,138zm465 -261c61,0 110,49 110,109 0,60 -49,109 -110,109 -60,0 -109,-49 -109,-109 0,-60 49,-109 109,-109zm1101 83c15,0 26,12 26,26 0,14 -11,26 -26,26 -14,0 -26,-12 -26,-26 0,-14 12,-26 26,-26zm-139 -11c20,0 37,17 37,37 0,20 -17,37 -37,37 -21,0 -37,-17 -37,-37 0,-20 16,-37 37,-37zm-185 -16c30,0 54,24 54,53 0,29 -24,53 -54,53 -29,0 -53,-24 -53,-53 0,-29 24,-53 53,-53zm-203 -12c36,0 65,29 65,65 0,36 -29,65 -65,65 -36,0 -65,-29 -65,-65 0,-36 29,-65 65,-65zm-257 -20c47,0 85,38 85,85 0,47 -38,85 -85,85 -46,0 -84,-38 -84,-85 0,-47 38,-85 84,-85z"/>
   <g>
    <path class="fil13" d="M12146 1686c0,17 -14,31 -31,31 -192,-56 -277,-70 -553,62 150,-222 542,-202 584,-93z"/>
    <path class="fil13" d="M12686 1686c0,17 14,31 31,31 191,-56 276,-70 553,62 -151,-222 -543,-202 -584,-93z"/>
   </g>
  </g>
  <g id="_2537605068208">
   <path class="fil8" d="M16012 2724c-90,-33 -154,-119 -154,-221 0,-110 77,-203 180,-228 134,-583 657,-1018 1282,-1018 624,0 1146,433 1282,1016 108,21 190,116 190,230 0,106 -69,195 -165,224 -28,240 -120,460 -259,642l0 0c0,0 129,37 -9,950 0,0 -76,-369 -669,-483l0 0c-117,35 -241,53 -370,53 -676,0 -1233,-509 -1308,-1165z"/>
   <circle class="fil14" cx="17320" cy="2573" r="1171"/>
   <path class="fil9" d="M18023 2893c9,0 16,6 19,15 1,1 2,3 2,7 1,10 1,21 1,32 0,318 -323,575 -721,575l-4 0 -4 0c-398,0 -721,-257 -721,-575 0,-11 1,-22 1,-32 1,-4 1,-6 2,-7 3,-9 10,-15 19,-15 7,0 12,3 16,8 1,1 2,3 3,5l0 0c105,241 371,413 684,418 313,-5 579,-177 684,-418l0 0c1,-2 2,-4 3,-5 4,-5 9,-8 16,-8z"/>
   <path class="fil8" d="M16215 1303c94,0 171,77 171,171 0,95 -77,171 -171,171 -95,0 -172,-76 -172,-171 0,-94 77,-171 172,-171zm1641 -210c13,0 23,10 23,23 0,13 -10,23 -23,23 -13,0 -23,-10 -23,-23 0,-13 10,-23 23,-23zm-132 -61c18,0 34,15 34,34 0,19 -16,35 -34,35 -19,0 -35,-16 -35,-35 0,-19 16,-34 35,-34zm-166 -54c28,0 51,22 51,50 0,28 -23,51 -51,51 -28,0 -50,-23 -50,-51 0,-28 22,-50 50,-50zm-190 -41c40,0 73,33 73,73 0,40 -33,73 -73,73 -40,0 -73,-33 -73,-73 0,-40 33,-73 73,-73zm-245 -6c52,0 95,42 95,94 0,52 -43,94 -95,94 -52,0 -94,-42 -94,-94 0,-52 42,-94 94,-94zm-292 31c69,0 125,57 125,126 0,69 -56,126 -125,126 -70,0 -126,-57 -126,-126 0,-69 56,-126 126,-126zm-296 116c80,0 145,65 145,146 0,80 -65,145 -145,145 -81,0 -146,-65 -146,-145 0,-81 65,-146 146,-146z"/>
   <g>
    <path class="fil10" style="mask:url(#id4)" d="M16559 2489c115,0 209,93 209,209 0,116 -94,209 -209,209 -116,0 -209,-93 -209,-209 0,-116 93,-209 209,-209z"/>
    <path class="fil10" style="mask:url(#id6)" d="M18091 2489c116,0 209,93 209,209 0,116 -93,209 -209,209 -115,0 -209,-93 -209,-209 0,-116 94,-209 209,-209z"/>
   </g>
   <path class="fil11" d="M17320 1402c503,0 932,317 1098,762 -291,330 -676,530 -1098,530 -422,0 -807,-200 -1097,-530 165,-445 594,-762 1097,-762z"/>
   <path class="fil9" d="M18139 2245c-1,5 -5,9 -10,9 -63,0 -325,-207 -550,-5 0,1 -1,2 -2,2 -1,2 -4,3 -7,3 -5,0 -9,-4 -9,-9l0 0 0 0c25,-369 578,-329 578,0z"/>
   <path class="fil12" d="M17856 2005c68,0 124,16 124,36 0,20 -56,37 -124,37 -69,0 -125,-17 -125,-37 0,-20 56,-36 125,-36z"/>
   <path class="fil9" d="M16501 2245c1,5 5,9 10,9 63,0 325,-207 550,-5 1,1 1,2 2,2 1,2 4,3 7,3 5,0 9,-4 9,-9l0 0 0 0c-25,-369 -578,-329 -578,0z"/>
   <path class="fil12" d="M16784 2005c-68,0 -124,16 -124,36 0,20 56,37 124,37 69,0 125,-17 125,-37 0,-20 -56,-36 -125,-36z"/>
   <g>
    <path class="fil15" d="M17050 1901c0,17 -14,31 -31,31 -191,-57 -276,-70 -553,62 150,-222 543,-202 584,-93z"/>
    <path class="fil15" d="M17590 1901c0,17 14,31 31,31 191,-57 276,-70 553,62 -150,-222 -543,-202 -584,-93z"/>
   </g>
  </g>
  <g id="_2537605064400">
   <path class="fil8" d="M25912 2724c-90,-33 -154,-119 -154,-221 0,-110 77,-203 180,-228 134,-583 657,-1018 1282,-1018 624,0 1146,433 1282,1016 108,21 190,116 190,230 0,106 -69,195 -165,224 -28,240 -120,460 -259,642l0 0c0,0 129,37 -9,950 0,0 -76,-369 -669,-483l0 0c-117,35 -241,53 -370,53 -676,0 -1233,-509 -1308,-1165z"/>
   <circle class="fil14" cx="27220" cy="2573" r="1171"/>
   <path class="fil11" d="M27220 1402c503,0 932,317 1098,762 -291,330 -676,530 -1098,530 -422,0 -807,-200 -1097,-530 165,-445 594,-762 1097,-762z"/>
   <path class="fil8" d="M26115 1303c94,0 171,77 171,171 0,95 -77,171 -171,171 -95,0 -172,-76 -172,-171 0,-94 77,-171 172,-171zm1641 -210c13,0 23,10 23,23 0,13 -10,23 -23,23 -13,0 -23,-10 -23,-23 0,-13 10,-23 23,-23zm-132 -61c18,0 34,15 34,34 0,19 -16,35 -34,35 -19,0 -35,-16 -35,-35 0,-19 16,-34 35,-34zm-166 -54c28,0 51,22 51,50 0,28 -23,51 -51,51 -28,0 -50,-23 -50,-51 0,-28 22,-50 50,-50zm-190 -41c40,0 73,33 73,73 0,40 -33,73 -73,73 -40,0 -73,-33 -73,-73 0,-40 33,-73 73,-73zm-245 -6c52,0 95,42 95,94 0,52 -43,94 -95,94 -52,0 -94,-42 -94,-94 0,-52 42,-94 94,-94zm-292 31c69,0 125,57 125,126 0,69 -56,126 -125,126 -70,0 -126,-57 -126,-126 0,-69 56,-126 126,-126zm-296 116c80,0 145,65 145,146 0,80 -65,145 -145,145 -81,0 -146,-65 -146,-145 0,-81 65,-146 146,-146z"/>
   <g>
    <path class="fil16" d="M26948 2323c18,0 32,14 32,32 0,6 -2,11 -4,16 0,0 -37,139 -242,139 -205,0 -265,-98 -265,-98 -5,-6 -9,-14 -9,-23 0,-18 14,-33 32,-33 8,0 16,3 22,8l0 0c4,4 7,9 9,14 21,27 82,86 205,73 133,-14 178,-83 189,-105 0,-3 1,-5 3,-7l0 0c5,-10 16,-16 28,-16z"/>
    <path class="fil16" d="M27492 2323c-17,0 -32,14 -32,32 0,6 2,11 4,16 0,0 37,139 242,139 205,0 265,-98 265,-98 6,-6 9,-14 9,-23 0,-18 -14,-33 -32,-33 -8,0 -16,3 -22,8l0 0c-4,4 -7,9 -9,14 -21,27 -82,86 -205,73 -133,-14 -178,-83 -189,-105 0,-3 -1,-5 -3,-7l0 0c-5,-10 -16,-16 -28,-16z"/>
   </g>
   <g>
    <path class="fil17" d="M27220 2781c194,0 351,102 351,227 0,55 0,92 0,141 0,32 -26,58 -58,58 -39,0 -69,-131 -293,-131 -224,0 -254,131 -293,131 -32,0 -58,-26 -58,-58 0,-49 0,-86 0,-141 0,-125 157,-227 351,-227z"/>
    <path class="fil18" d="M27571 3110l0 39c0,32 -26,58 -58,58 -39,0 -69,-131 -293,-131 -224,0 -254,131 -293,131 -32,0 -58,-26 -58,-58l0 -48c158,-102 406,-182 702,9z"/>
   </g>
   <path class="fil19 str0" d="M28150 2846c2,4 4,9 6,13l0 1 0 0c13,29 20,60 20,94 0,129 -105,235 -235,235 -109,0 -201,-75 -227,-176l0 0 0 0 0 0 0 -1 0 0 -1 0 -43 -167c-44,-167 -328,-105 -328,-105 0,0 559,-412 808,106z"/>
   <path class="fil20" d="M27418 2692c142,-80 454,-212 658,36 -149,33 -411,5 -658,-36z"/>
   <path class="fil21" d="M28072 2848c21,0 38,30 38,67 0,36 -17,66 -38,66 -21,0 -38,-30 -38,-66 0,-37 17,-67 38,-67z"/>
  </g>
  <g id="_2537603011952">
   <path class="fil8" d="M21457 1118l1718 0c241,0 438,198 438,439l0 649c12,-2 24,-3 37,-3 124,0 224,101 224,225 0,124 -100,224 -224,224 -13,0 -25,-1 -37,-3l0 633c0,174 -103,326 -252,396l0 0 0 0c-21,10 -42,18 -65,25 -106,58 -29,168 -512,708 0,0 104,-233 -274,-683 -2,-3 -4,-5 -6,-8l-1047 0c-241,0 -439,-197 -439,-438l0 -633c-106,-17 -188,-110 -188,-221 0,-112 82,-204 188,-222l0 -649c0,-241 198,-439 439,-439z"/>
   <rect class="fil2" x="21182" y="1282" width="2268" height="2274" rx="383" ry="72"/>
   <path class="fil11" d="M21565 1282l1502 0c210,0 383,173 383,383l0 504c-310,250 -705,400 -1134,400 -430,0 -824,-150 -1134,-400l0 -504c0,-210 172,-383 383,-383z"/>
   <path class="fil8" d="M20676 1383l0 74c3,4 5,8 7,11 4,18 12,34 22,48 5,10 13,19 26,30l0 0 0 1c28,25 64,40 104,42l0 0 1 0 1 0c84,2 165,-61 167,-159 3,-94 -62,-153 -135,-165l-4 -1 0 0 -2 0 -5 -1 0 0c-2,0 -4,0 -6,0l-2 0 -3 -1c-45,-2 -91,14 -124,50 -13,13 -23,28 -31,45l-12 20c-1,-1 -3,4 -4,6zm246 -283c10,57 49,89 95,100 12,4 26,6 40,6 26,0 51,-7 72,-21 47,-25 78,-77 61,-149 -13,-51 -46,-81 -84,-94 -16,-6 -32,-9 -49,-9 -32,0 -61,11 -84,29 -39,27 -63,74 -51,138zm465 -261c61,0 110,49 110,109 0,60 -49,109 -110,109 -60,0 -109,-49 -109,-109 0,-60 49,-109 109,-109zm1101 83c15,0 26,12 26,26 0,14 -11,26 -26,26 -14,0 -26,-12 -26,-26 0,-14 12,-26 26,-26zm-139 -11c20,0 37,17 37,37 0,20 -17,37 -37,37 -21,0 -37,-17 -37,-37 0,-20 16,-37 37,-37zm-185 -16c30,0 54,24 54,53 0,29 -24,53 -54,53 -29,0 -53,-24 -53,-53 0,-29 24,-53 53,-53zm-203 -12c36,0 65,29 65,65 0,36 -29,65 -65,65 -36,0 -65,-29 -65,-65 0,-36 29,-65 65,-65zm-257 -20c47,0 85,38 85,85 0,47 -38,85 -85,85 -46,0 -84,-38 -84,-85 0,-47 38,-85 84,-85z"/>
   <g>
    <path class="fil17" d="M22316 2781c193,0 351,102 351,227 0,55 0,92 0,141 0,32 -27,58 -59,58 -39,0 -68,-131 -292,-131 -224,0 -254,131 -293,131 -32,0 -58,-26 -58,-58 0,-49 0,-86 0,-141 0,-125 157,-227 351,-227z"/>
    <path class="fil18" d="M22667 3110l0 39c0,32 -27,58 -59,58 -39,0 -68,-131 -292,-131 -224,0 -254,131 -293,131 -32,0 -58,-26 -58,-58l0 -48c158,-102 406,-182 702,9z"/>
   </g>
   <path class="fil19 str0" d="M23229 2846c2,4 4,9 6,13l1 1 0 0c12,29 19,60 19,94 0,129 -105,235 -235,235 -109,0 -201,-75 -227,-176l0 0 0 0 0 0 0 -1 0 0 0 0 -44 -167c-43,-167 -328,-105 -328,-105 0,0 559,-412 808,106z"/>
   <path class="fil20" d="M22497 2692c143,-80 455,-212 658,36 -149,33 -411,5 -658,-36z"/>
   <path class="fil21" d="M23151 2848c21,0 38,30 38,67 0,36 -17,66 -38,66 -20,0 -37,-30 -37,-66 0,-37 17,-67 37,-67z"/>
   <g>
    <path class="fil16" d="M22043 2203c18,0 33,14 33,32 0,6 -2,11 -5,16 0,0 -37,139 -241,139 -205,0 -265,-98 -265,-98 -6,-6 -9,-14 -9,-23 0,-18 14,-33 32,-33 8,0 16,3 21,8l0 0c4,4 8,9 9,14 22,27 82,86 206,73 133,-14 177,-83 188,-105 1,-3 2,-5 3,-7l0 0c6,-10 16,-16 28,-16z"/>
    <path class="fil16" d="M22588 2203c-18,0 -32,14 -32,32 0,6 1,11 4,16 0,0 37,139 242,139 205,0 264,-98 264,-98 6,-6 10,-14 10,-23 0,-18 -15,-33 -32,-33 -9,0 -16,3 -22,8l0 0c-4,4 -7,9 -9,14 -21,27 -82,86 -205,73 -134,-14 -178,-83 -189,-105 -1,-3 -2,-5 -3,-7l0 0c-6,-10 -16,-16 -28,-16z"/>
   </g>
  </g>
  <g id="_2537603003056">
   <path class="fil1" d="M897 6636l0 73c2,5 5,8 7,12 4,17 12,34 22,48 5,9 12,19 25,30l1 0 0 0c27,25 64,41 104,42l0 0 1 0 1 0c84,2 165,-60 167,-158 3,-94 -62,-153 -135,-166l-4 0 0 0 -2 0 -5 -1 0 0c-2,0 -4,-1 -6,-1l-2 0 -3 0c-45,-2 -91,14 -124,50 -13,13 -24,28 -31,45l-12 20c-1,-1 -3,4 -4,6zm337 806c-124,0 -224,100 -224,224 0,124 100,225 224,225 3,0 5,0 8,0l0 638c0,241 197,438 438,438l1048 0c2,3 4,5 6,8 378,450 273,684 273,684 483,-541 407,-651 512,-709 23,-6 45,-15 66,-25l0 0 0 0c148,-70 251,-222 251,-396l0 -638c121,-4 217,-103 217,-225 0,-121 -96,-220 -217,-224l0 -638c0,-241 -197,-438 -438,-438l-1718 0c-241,0 -438,197 -438,438l0 638c-3,0 -5,0 -8,0zm-91 -1089c10,56 49,89 94,100 13,4 27,6 41,6 26,0 51,-8 72,-21 47,-26 78,-77 60,-150 -12,-50 -45,-80 -84,-94 -15,-5 -31,-9 -48,-9 -32,0 -61,11 -84,29 -39,28 -63,75 -51,139zm465 -262c60,0 109,49 109,110 0,60 -49,109 -109,109 -60,0 -109,-49 -109,-109 0,-61 49,-110 109,-110zm1101 84c14,0 26,11 26,26 0,14 -12,26 -26,26 -14,0 -26,-12 -26,-26 0,-15 12,-26 26,-26zm-139 -11c20,0 36,16 36,37 0,20 -16,36 -36,36 -21,0 -37,-16 -37,-36 0,-21 16,-37 37,-37zm-185 -17c30,0 53,24 53,54 0,29 -23,53 -53,53 -29,0 -53,-24 -53,-53 0,-30 24,-54 53,-54zm-203 -11c36,0 65,29 65,65 0,36 -29,65 -65,65 -36,0 -65,-29 -65,-65 0,-36 29,-65 65,-65zm-257 -20c47,0 85,38 85,85 0,46 -38,84 -85,84 -47,0 -85,-38 -85,-84 0,-47 38,-85 85,-85z"/>
   <rect class="fil2" x="1405" y="6530" width="2268" height="2274" rx="383" ry="72"/>
   <path class="fil3" d="M1788 6530l1502 0c211,0 383,172 383,383l0 504c-310,250 -704,400 -1134,400 -429,0 -824,-150 -1134,-400l0 -504c0,-211 172,-383 383,-383z"/>
   <g>
    <g>
     <path class="fil6" d="M2635 6704c0,0 189,257 396,257l206 0 0 0 0 0 0 0 0 0 0 0 0 0c15,0 27,-12 27,-27 0,-16 -12,-28 -27,-28 -3,0 -6,1 -9,2 -51,7 -322,32 -593,-204z"/>
     <path class="fil6" d="M2443 6704c0,0 -189,257 -396,257l-206 0 0 0 0 0 0 0 0 0 0 0 0 0c-15,0 -27,-12 -27,-27 0,-16 12,-28 27,-28 3,0 6,1 9,2 51,7 322,32 593,-204z"/>
    </g>
    <g>
     <path class="fil6" d="M2802 7286c0,-117 454,-279 528,-223 0,0 -321,160 -348,203 9,10 9,29 0,39 127,-7 359,149 359,149 -129,27 -400,-51 -539,-168z"/>
     <path class="fil6" d="M2276 7286c0,-117 -453,-279 -528,-223 0,0 321,160 348,203 -8,10 -8,29 0,39 -127,-7 -359,149 -359,149 129,27 400,-51 539,-168z"/>
    </g>
   </g>
   <g>
    <path class="fil22 str0" d="M1932 8744l-2 0c-262,0 -201,-856 605,-846l2 0 1 0c826,-10 858,846 606,846l-2 0 -1 0c-24,0 -47,-6 -66,-17 -1,1 -2,1 -3,2 -142,-113 -329,-182 -535,-183 -206,1 -393,70 -535,183 -1,-1 -2,-1 -3,-2 -19,11 -42,17 -66,17l-1 0z"/>
    <path class="fil23" d="M1897 8195c110,-165 314,-301 638,-297 64,1 127,5 188,14 223,37 369,148 456,278l2 2c-32,19 -97,44 -186,14 -493,-169 -397,-177 -917,0 -84,29 -148,7 -181,-11z"/>
    <path class="fil24" d="M3101 8738c-9,-3 -18,-7 -26,-11 -1,1 -2,1 -3,2 -142,-113 -329,-182 -535,-183 -206,1 -393,70 -535,183 -1,-1 -2,-1 -3,-2 -8,4 -17,8 -26,11 1,-199 253,-360 564,-360 311,0 563,161 564,360z"/>
   </g>
  </g>
  <g id="_2537602992848">
   <path class="fil1" d="M6112 7974c-90,-33 -154,-119 -154,-221 0,-110 77,-203 180,-228 134,-583 657,-1018 1282,-1018 624,0 1146,433 1282,1016 108,21 190,116 190,230 0,106 -69,195 -165,224 -28,240 -120,460 -259,642l0 0c0,0 129,37 -9,950 0,0 -76,-369 -669,-483l0 0c-117,35 -241,53 -370,53 -676,0 -1233,-509 -1308,-1165z"/>
   <circle class="fil7" cx="7420" cy="7823" r="1171"/>
   <path class="fil3" d="M7420 6652c503,0 932,317 1098,762 -291,330 -676,530 -1098,530 -422,0 -807,-200 -1097,-530 165,-445 594,-762 1097,-762z"/>
   <path class="fil1" d="M6315 6553c94,0 171,77 171,171 0,95 -77,171 -171,171 -95,0 -172,-76 -172,-171 0,-94 77,-171 172,-171zm1641 -210c13,0 23,10 23,23 0,13 -10,23 -23,23 -13,0 -23,-10 -23,-23 0,-13 10,-23 23,-23zm-132 -61c18,0 34,15 34,34 0,19 -16,35 -34,35 -19,0 -35,-16 -35,-35 0,-19 16,-34 35,-34zm-166 -54c28,0 51,22 51,50 0,28 -23,51 -51,51 -28,0 -50,-23 -50,-51 0,-28 22,-50 50,-50zm-190 -41c40,0 73,33 73,73 0,40 -33,73 -73,73 -40,0 -73,-33 -73,-73 0,-40 33,-73 73,-73zm-245 -6c52,0 95,42 95,94 0,52 -43,94 -95,94 -52,0 -94,-42 -94,-94 0,-52 42,-94 94,-94zm-292 31c69,0 125,57 125,126 0,69 -56,126 -125,126 -70,0 -126,-57 -126,-126 0,-69 56,-126 126,-126zm-296 116c80,0 145,65 145,146 0,80 -65,145 -145,145 -81,0 -146,-65 -146,-145 0,-81 65,-146 146,-146z"/>
   <g>
    <g>
     <path class="fil6" d="M7516 6873c0,0 189,257 396,257l206 0 0 0 0 0 0 0 0 0 0 0 0 0c15,0 27,-12 27,-27 0,-15 -12,-28 -27,-28 -3,0 -6,1 -9,2 -51,7 -322,32 -593,-204z"/>
     <path class="fil6" d="M7324 6873c0,0 -189,257 -396,257l-206 0 0 0 0 0 0 0 0 0 0 0 0 0c-15,0 -27,-12 -27,-27 0,-15 12,-28 27,-28 3,0 6,1 9,2 51,7 322,32 593,-204z"/>
    </g>
    <g>
     <path class="fil6" d="M7683 7455c0,-117 454,-278 528,-223 0,0 -321,160 -348,204 9,10 9,28 0,38 127,-7 359,149 359,149 -129,27 -400,-51 -539,-168z"/>
     <path class="fil6" d="M7157 7455c0,-117 -453,-278 -528,-223 0,0 321,160 348,204 -8,10 -8,28 0,38 -127,-7 -359,149 -359,149 129,27 400,-51 539,-168z"/>
    </g>
   </g>
   <g>
    <path class="fil22 str0" d="M6911 8757l-2 0c-220,0 -169,-721 510,-713l1 0 1 0c696,-9 722,713 510,713l-2 0 -1 0c-20,0 -39,-6 -55,-15 -1,1 -2,1 -2,2 -120,-96 -278,-154 -451,-154 -173,0 -331,58 -451,154 0,-1 -1,-1 -2,-2 -16,9 -35,15 -55,15l-1 0z"/>
    <path class="fil23" d="M6881 8294c93,-138 265,-253 538,-250 53,1 107,4 158,12 187,31 311,125 384,234l1 2c-27,16 -82,37 -156,12 -416,-143 -335,-150 -772,0 -71,24 -125,5 -153,-10z"/>
    <path class="fil24" d="M7895 8752c-8,-3 -15,-6 -22,-10 -1,1 -2,1 -2,2 -120,-96 -278,-154 -451,-154 -173,0 -331,58 -451,154 0,-1 -1,-1 -2,-2 -7,4 -14,7 -22,10 1,-168 213,-304 475,-304 262,0 474,136 475,304z"/>
   </g>
  </g>
  <g id="_2537602989776">
   <path class="fil8" d="M10802 6636l0 73c3,5 5,8 7,12 5,17 12,34 22,48 5,9 13,19 26,30l0 0 0 0c28,25 64,41 104,42l1 0 0 0 2 0c84,2 164,-60 167,-158 2,-94 -63,-153 -136,-166l-4 0 0 0 -1 0 -5 -1 -1 0c-2,0 -4,-1 -5,-1l-2 0 -4 0c-45,-2 -90,14 -124,50 -12,13 -23,28 -31,45l-12 20c0,-1 -2,4 -4,6zm326 804c-123,0 -224,101 -224,225 0,124 101,224 224,224 7,0 13,0 19,-1l0 641c0,241 197,438 438,438l1048 0c2,3 4,5 6,8 378,450 274,684 274,684 483,-541 406,-651 512,-709 22,-6 44,-15 65,-25l0 0 0 0c149,-70 252,-222 252,-396l0 -641c115,-9 206,-106 206,-223 0,-118 -91,-214 -206,-224l0 -637c0,-241 -197,-438 -438,-438l-1719 0c-241,0 -438,197 -438,438l0 637c-6,0 -12,-1 -19,-1zm-80 -1087c11,56 50,89 95,100 13,4 26,6 40,6 27,0 52,-8 73,-21 46,-26 77,-77 60,-150 -12,-50 -45,-80 -84,-94 -15,-5 -32,-9 -49,-9 -32,0 -61,11 -84,29 -38,28 -63,75 -51,139zm466 -262c60,0 109,49 109,110 0,60 -49,109 -109,109 -61,0 -110,-49 -110,-109 0,-61 49,-110 110,-110zm1100 84c15,0 27,11 27,26 0,14 -12,26 -27,26 -14,0 -26,-12 -26,-26 0,-15 12,-26 26,-26zm-139 -11c20,0 37,16 37,37 0,20 -17,36 -37,36 -20,0 -37,-16 -37,-36 0,-21 17,-37 37,-37zm-184 -17c29,0 53,24 53,54 0,29 -24,53 -53,53 -30,0 -54,-24 -54,-53 0,-30 24,-54 54,-54zm-204 -11c36,0 65,29 65,65 0,36 -29,65 -65,65 -36,0 -65,-29 -65,-65 0,-36 29,-65 65,-65zm-256 -20c47,0 85,38 85,85 0,46 -38,84 -85,84 -47,0 -85,-38 -85,-84 0,-47 38,-85 85,-85z"/>
   <rect class="fil2" x="11311" y="6530" width="2268" height="2274" rx="383" ry="72"/>
   <path class="fil11" d="M11694 6530l1501 0c211,0 384,172 384,383l0 504c-311,250 -705,400 -1134,400 -430,0 -824,-150 -1134,-400l0 -504c0,-211 172,-383 383,-383z"/>
   <rect class="fil4" x="11661" y="7939" width="1564" height="655" rx="782" ry="150"/>
   <path class="fil25" d="M11948 8075l87 0 0 162 -276 0c14,-91 94,-162 189,-162zm149 0l200 0 0 162 -200 0 0 -162zm263 0l200 0 0 162 -200 0 0 -162zm263 0l200 0 0 162 -200 0 0 -162zm263 0l51 0c96,0 175,71 190,162l-241 0 0 -162zm237 241c-22,82 -97,143 -186,143l-51 0 0 -143 237 0zm-300 143l-200 0 0 -143 200 0 0 143zm-263 0l-200 0 0 -143 200 0 0 143zm-263 0l-200 0 0 -143 200 0 0 143zm-262 0l-87 0c-88,0 -163,-61 -185,-143l272 0 0 143z"/>
   <g>
    <circle class="fil4" cx="11883" cy="7173" r="247"/>
    <circle class="fil5" cx="11883" cy="7173" r="71"/>
    <circle class="fil4" cx="13006" cy="7173" r="247"/>
    <circle class="fil5" cx="13006" cy="7173" r="71"/>
   </g>
  </g>
  <g id="_2537602978288">
   <path class="fil8" d="M16012 7974c-90,-33 -154,-119 -154,-221 0,-110 77,-203 180,-228 134,-583 657,-1018 1282,-1018 624,0 1146,433 1282,1016 108,21 190,116 190,230 0,106 -69,195 -165,224 -28,240 -120,460 -259,642l0 0c0,0 129,37 -9,950 0,0 -76,-369 -669,-483l0 0c-117,35 -241,53 -370,53 -676,0 -1233,-509 -1308,-1165z"/>
   <circle class="fil14" cx="17320" cy="7823" r="1171"/>
   <path class="fil11" d="M17320 6652c503,0 932,317 1098,762 -291,330 -676,530 -1098,530 -422,0 -807,-200 -1097,-530 165,-445 594,-762 1097,-762z"/>
   <path class="fil8" d="M16215 6553c94,0 171,77 171,171 0,95 -77,171 -171,171 -95,0 -172,-76 -172,-171 0,-94 77,-171 172,-171zm1641 -210c13,0 23,10 23,23 0,13 -10,23 -23,23 -13,0 -23,-10 -23,-23 0,-13 10,-23 23,-23zm-132 -61c18,0 34,15 34,34 0,19 -16,35 -34,35 -19,0 -35,-16 -35,-35 0,-19 16,-34 35,-34zm-166 -54c28,0 51,22 51,50 0,28 -23,51 -51,51 -28,0 -50,-23 -50,-51 0,-28 22,-50 50,-50zm-190 -41c40,0 73,33 73,73 0,40 -33,73 -73,73 -40,0 -73,-33 -73,-73 0,-40 33,-73 73,-73zm-245 -6c52,0 95,42 95,94 0,52 -43,94 -95,94 -52,0 -94,-42 -94,-94 0,-52 42,-94 94,-94zm-292 31c69,0 125,57 125,126 0,69 -56,126 -125,126 -70,0 -126,-57 -126,-126 0,-69 56,-126 126,-126zm-296 116c80,0 145,65 145,146 0,80 -65,145 -145,145 -81,0 -146,-65 -146,-145 0,-81 65,-146 146,-146z"/>
   <rect class="fil4" x="16536" y="8096" width="1564" height="655" rx="782" ry="150"/>
   <path class="fil25" d="M16824 8231l86 0 0 162 -276 0c15,-91 95,-162 190,-162zm149 0l200 0 0 162 -200 0 0 -162zm263 0l200 0 0 162 -200 0 0 -162zm263 0l199 0 0 162 -199 0 0 -162zm262 0l52 0c95,0 175,71 189,162l-241 0 0 -162zm237 242c-22,81 -97,142 -185,142l-52 0 0 -142 237 0zm-300 142l-199 0 0 -142 199 0 0 142zm-262 0l-200 0 0 -142 200 0 0 142zm-263 0l-200 0 0 -142 200 0 0 142zm-263 0l-86 0c-88,0 -163,-61 -185,-142l271 0 0 142z"/>
   <g>
    <circle class="fil4" cx="16759" cy="7298" r="247"/>
    <circle class="fil5" cx="16759" cy="7298" r="71"/>
    <circle class="fil4" cx="17881" cy="7298" r="247"/>
    <circle class="fil5" cx="17881" cy="7298" r="71"/>
   </g>
  </g>
  <g id="_2537602975376">
   <path class="fil1" d="M20697 6636l0 73c2,5 5,8 7,12 4,17 12,34 22,48 5,9 12,19 25,30l1 0 0 0c27,25 64,41 104,42l0 0 1 0 1 0c84,2 165,-60 167,-158 3,-94 -62,-153 -135,-166l-4 0 0 0 -2 0 -5 -1 0 0c-2,0 -4,-1 -6,-1l-2 0 -3 0c-45,-2 -91,14 -124,50 -13,13 -24,28 -31,45l-12 20c-1,-1 -3,4 -4,6zm337 806c-124,0 -224,100 -224,224 0,124 100,225 224,225 3,0 5,0 8,0l0 638c0,241 197,438 438,438l1048 0c2,3 4,5 6,8 378,450 273,684 273,684 483,-541 407,-651 512,-709 23,-6 45,-15 66,-25l0 0 0 0c148,-70 251,-222 251,-396l0 -638c121,-4 217,-103 217,-225 0,-121 -96,-220 -217,-224l0 -638c0,-241 -197,-438 -438,-438l-1718 0c-241,0 -438,197 -438,438l0 638c-3,0 -5,0 -8,0zm-91 -1089c10,56 49,89 94,100 13,4 27,6 41,6 26,0 51,-8 72,-21 47,-26 78,-77 60,-150 -12,-50 -45,-80 -84,-94 -15,-5 -31,-9 -48,-9 -32,0 -61,11 -84,29 -39,28 -63,75 -51,139zm465 -262c60,0 109,49 109,110 0,60 -49,109 -109,109 -60,0 -109,-49 -109,-109 0,-61 49,-110 109,-110zm1101 84c14,0 26,11 26,26 0,14 -12,26 -26,26 -14,0 -26,-12 -26,-26 0,-15 12,-26 26,-26zm-139 -11c20,0 36,16 36,37 0,20 -16,36 -36,36 -21,0 -37,-16 -37,-36 0,-21 16,-37 37,-37zm-185 -17c30,0 53,24 53,54 0,29 -23,53 -53,53 -29,0 -53,-24 -53,-53 0,-30 24,-54 53,-54zm-203 -11c36,0 65,29 65,65 0,36 -29,65 -65,65 -36,0 -65,-29 -65,-65 0,-36 29,-65 65,-65zm-257 -20c47,0 85,38 85,85 0,46 -38,84 -85,84 -47,0 -85,-38 -85,-84 0,-47 38,-85 85,-85z"/>
   <rect class="fil2" x="21205" y="6530" width="2268" height="2274" rx="383" ry="72"/>
   <path class="fil3" d="M21588 6530l1502 0c211,0 383,172 383,383l0 504c-310,250 -704,400 -1134,400 -429,0 -824,-150 -1134,-400l0 -504c0,-211 172,-383 383,-383z"/>
   <g>
    <circle class="fil4" cx="21778" cy="7173" r="247"/>
    <circle class="fil5" cx="21778" cy="7113" r="108"/>
    <circle class="fil4" cx="22900" cy="7173" r="247"/>
    <circle class="fil5" cx="22900" cy="7113" r="108"/>
   </g>
   <ellipse class="fil4" cx="22339" cy="8266" rx="342" ry="339"/>
  </g>
  <g id="_2537602971888">
   <path class="fil1" d="M25912 7974c-90,-33 -154,-119 -154,-221 0,-110 77,-203 180,-228 134,-583 657,-1018 1282,-1018 624,0 1146,433 1282,1016 108,21 190,116 190,230 0,106 -69,195 -165,224 -28,240 -120,460 -259,642l0 0c0,0 129,37 -9,950 0,0 -76,-369 -669,-483l0 0c-117,35 -241,53 -370,53 -676,0 -1233,-509 -1308,-1165z"/>
   <circle class="fil7" cx="27220" cy="7823" r="1171"/>
   <path class="fil3" d="M27220 6652c503,0 932,317 1098,762 -291,330 -676,530 -1098,530 -422,0 -807,-200 -1097,-530 165,-445 594,-762 1097,-762z"/>
   <path class="fil1" d="M26115 6553c94,0 171,77 171,171 0,95 -77,171 -171,171 -95,0 -172,-76 -172,-171 0,-94 77,-171 172,-171zm1641 -210c13,0 23,10 23,23 0,13 -10,23 -23,23 -13,0 -23,-10 -23,-23 0,-13 10,-23 23,-23zm-132 -61c18,0 34,15 34,34 0,19 -16,35 -34,35 -19,0 -35,-16 -35,-35 0,-19 16,-34 35,-34zm-166 -54c28,0 51,22 51,50 0,28 -23,51 -51,51 -28,0 -50,-23 -50,-51 0,-28 22,-50 50,-50zm-190 -41c40,0 73,33 73,73 0,40 -33,73 -73,73 -40,0 -73,-33 -73,-73 0,-40 33,-73 73,-73zm-245 -6c52,0 95,42 95,94 0,52 -43,94 -95,94 -52,0 -94,-42 -94,-94 0,-52 42,-94 94,-94zm-292 31c69,0 125,57 125,126 0,69 -56,126 -125,126 -70,0 -126,-57 -126,-126 0,-69 56,-126 126,-126zm-296 116c80,0 145,65 145,146 0,80 -65,145 -145,145 -81,0 -146,-65 -146,-145 0,-81 65,-146 146,-146z"/>
   <g>
    <circle class="fil4" cx="26659" cy="7298" r="247"/>
    <circle class="fil5" cx="26659" cy="7238" r="108"/>
    <circle class="fil4" cx="27781" cy="7298" r="247"/>
    <circle class="fil5" cx="27781" cy="7238" r="108"/>
   </g>
   <ellipse class="fil4" cx="27220" cy="8486" rx="342" ry="339"/>
  </g>
  <g id="_2537602967024">
   <path class="fil1" d="M20727 11850l0 73c2,4 4,8 6,12 5,17 13,33 22,48 6,9 13,19 26,30l0 0 1 0c27,25 64,41 103,42l1 0 1 0 1 0c84,2 165,-60 167,-159 2,-93 -62,-152 -135,-165l-4 0 -1 0 -1 -1 -5 0 -1 0c-1,0 -3,-1 -5,-1l-2 0 -3 0c-45,-2 -91,14 -124,49 -13,14 -24,29 -32,46l-11 20c-1,-1 -3,4 -4,6zm337 806c-124,0 -225,100 -225,224 0,124 101,225 225,225 2,0 5,0 7,-1l0 639c0,241 198,438 439,438l1048 0c2,3 3,5 6,8 378,450 273,684 273,684 483,-541 407,-651 512,-709 23,-6 45,-15 65,-25l1 0 0 0c148,-70 251,-222 251,-396l0 -639c121,-4 217,-102 217,-224 0,-121 -96,-220 -217,-224l0 -638c0,-241 -197,-438 -438,-438l-1718 0c-241,0 -439,197 -439,438l0 638c-2,0 -5,0 -7,0zm-91 -1090c10,57 49,90 94,101 13,4 26,6 40,6 27,0 52,-8 73,-21 47,-26 78,-77 60,-150 -12,-50 -45,-81 -84,-94 -15,-5 -31,-9 -49,-9 -31,0 -60,11 -84,29 -38,28 -62,75 -50,138zm465 -261c60,0 109,49 109,110 0,60 -49,109 -109,109 -60,0 -109,-49 -109,-109 0,-61 49,-110 109,-110zm1101 83c14,0 26,12 26,27 0,14 -12,26 -26,26 -15,0 -26,-12 -26,-26 0,-15 11,-27 26,-27zm-140 -10c21,0 37,16 37,37 0,20 -16,36 -37,36 -20,0 -36,-16 -36,-36 0,-21 16,-37 36,-37zm-184 -17c29,0 53,24 53,54 0,29 -24,53 -53,53 -29,0 -53,-24 -53,-53 0,-30 24,-54 53,-54zm-203 -11c36,0 65,29 65,65 0,35 -29,65 -65,65 -36,0 -65,-30 -65,-65 0,-36 29,-65 65,-65zm-257 -20c47,0 85,38 85,85 0,46 -38,84 -85,84 -47,0 -85,-38 -85,-84 0,-47 38,-85 85,-85z"/>
   <rect class="fil2" x="21235" y="11743" width="2268" height="2274" rx="383" ry="72"/>
   <path class="fil3" d="M21618 11743l1502 0c210,0 383,173 383,384l0 504c-310,250 -705,399 -1134,399 -430,0 -824,-149 -1134,-399l0 -504c0,-211 172,-384 383,-384z"/>
   <circle class="fil6" cx="21785" cy="12511" r="233"/>
   <path class="fil5" style="mask:url(#id8)" d="M21878 12348c33,0 60,27 60,60 0,33 -27,60 -60,60 -33,0 -60,-27 -60,-60 0,-33 27,-60 60,-60z"/>
   <circle class="fil6" cx="22952" cy="12511" r="233"/>
   <path class="fil5" style="mask:url(#id10)" d="M23045 12348c33,0 60,27 60,60 0,33 -27,60 -60,60 -34,0 -61,-27 -61,-60 0,-33 27,-60 61,-60z"/>
   <path class="fil26" d="M23146 13102c1,16 1,31 1,47 0,384 -346,695 -773,695 -427,0 -773,-311 -773,-695 0,-16 0,-31 2,-47 613,75 1115,65 1543,0z"/>
   <path class="fil27" d="M22888 13668c-136,109 -316,176 -514,176 -197,0 -378,-67 -514,-176 58,-62 175,-105 310,-105 76,0 147,14 204,36 57,-22 128,-36 204,-36 135,0 252,43 310,105z"/>
   <path class="fil5" d="M23146 13102c0,8 1,16 1,23l0 46c-1,31 -4,60 -10,90 -22,61 -81,105 -150,105l-1226 0c-68,0 -127,-43 -150,-103 -7,-37 -10,-75 -10,-114l0 -1 0 -1c0,-15 0,-30 2,-45 613,75 1115,65 1543,0z"/>
  </g>
  <g id="_2537602959440">
   <path class="fil1" d="M25942 13188c-90,-33 -154,-119 -154,-221 0,-110 76,-203 179,-228 135,-583 658,-1019 1283,-1019 624,0 1146,434 1282,1017 108,21 190,116 190,230 0,105 -70,194 -165,224 -28,240 -120,460 -259,642l0 0c0,0 129,37 -10,950 0,0 -75,-369 -668,-483l0 0c-117,35 -242,53 -370,53 -676,0 -1233,-509 -1308,-1165z"/>
   <circle class="fil7" cx="27250" cy="13037" r="1171"/>
   <path class="fil3" d="M27250 11866c503,0 932,317 1097,762 -290,329 -675,530 -1097,530 -422,0 -807,-201 -1098,-530 166,-445 595,-762 1098,-762z"/>
   <path class="fil1" d="M26144 11767c95,0 172,76 172,171 0,95 -77,171 -172,171 -94,0 -171,-76 -171,-171 0,-95 77,-171 171,-171zm1642 -210c13,0 23,10 23,23 0,13 -10,23 -23,23 -13,0 -24,-10 -24,-23 0,-13 11,-23 24,-23zm-133 -61c19,0 35,15 35,34 0,19 -16,35 -35,35 -19,0 -34,-16 -34,-35 0,-19 15,-34 34,-34zm-165 -54c28,0 51,22 51,50 0,28 -23,51 -51,51 -28,0 -51,-23 -51,-51 0,-28 23,-50 51,-50zm-190 -41c40,0 73,33 73,73 0,40 -33,73 -73,73 -40,0 -73,-33 -73,-73 0,-40 33,-73 73,-73zm-245 -6c52,0 94,42 94,94 0,52 -42,94 -94,94 -52,0 -94,-42 -94,-94 0,-52 42,-94 94,-94zm-293 31c70,0 126,56 126,126 0,69 -56,126 -126,126 -69,0 -125,-57 -125,-126 0,-70 56,-126 125,-126zm-296 116c81,0 146,65 146,145 0,81 -65,146 -146,146 -80,0 -145,-65 -145,-146 0,-80 65,-145 145,-145z"/>
   <path class="fil26" d="M28021 13302c1,16 2,31 2,47 0,384 -346,695 -773,695 -427,0 -773,-311 -773,-695 0,-16 0,-31 1,-47 614,75 1116,65 1543,0z"/>
   <path class="fil27" d="M27764 13868c-136,109 -317,176 -514,176 -198,0 -378,-67 -515,-176 58,-62 176,-105 311,-105 76,0 146,14 204,36 57,-22 128,-36 204,-36 135,0 252,43 310,105z"/>
   <path class="fil5" d="M28022 13302c0,8 1,16 1,23l0 46c-1,31 -4,60 -10,90 -22,61 -81,105 -150,105l-1226 0c-68,0 -127,-43 -150,-103 -7,-37 -10,-75 -10,-114l0 -1 0 -1c0,-15 0,-30 2,-45 613,75 1115,65 1543,0z"/>
   <g>
    <circle class="fil6" cx="26666" cy="12512" r="233"/>
    <path class="fil5" style="mask:url(#id12)" d="M26759 12349c33,0 60,27 60,60 0,33 -27,60 -60,60 -33,0 -60,-27 -60,-60 0,-33 27,-60 60,-60z"/>
    <circle class="fil6" cx="27833" cy="12512" r="233"/>
    <path class="fil5" style="mask:url(#id14)" d="M27926 12349c33,0 60,27 60,60 0,33 -27,60 -60,60 -34,0 -61,-27 -61,-60 0,-33 27,-60 61,-60z"/>
   </g>
  </g>
  <path class="fil8" d="M10802 11905l0 73c3,4 5,8 7,12 5,17 12,33 22,48 5,9 13,19 26,30l0 0 0 0c28,25 64,41 104,42l1 0 0 0 2 0c84,2 164,-60 167,-159 2,-93 -63,-152 -136,-165l-4 0 0 0 -1 -1 -5 0 -1 0c-2,-1 -4,-1 -5,-1l-2 0 -4 0c-45,-2 -90,13 -124,49 -12,14 -23,29 -31,46l-12 20c0,-2 -2,4 -4,6zm326 804c-123,0 -224,101 -224,225 0,124 101,224 224,224 7,0 13,0 19,-1l0 641c0,241 197,438 438,438l1048 0c2,3 4,5 6,8 378,450 274,683 274,683 483,-540 406,-650 512,-708 22,-6 44,-15 65,-25l0 0 0 0c149,-70 252,-222 252,-396l0 -641c115,-9 206,-106 206,-223 0,-118 -91,-214 -206,-224l0 -637c0,-241 -197,-438 -438,-438l-1719 0c-241,0 -438,197 -438,438l0 637c-6,0 -12,-1 -19,-1zm-80 -1088c11,57 50,90 95,101 13,4 26,6 40,6 27,0 52,-8 73,-21 46,-26 77,-77 60,-150 -12,-50 -45,-81 -84,-94 -15,-6 -32,-9 -49,-9 -32,0 -61,11 -84,29 -38,27 -63,75 -51,138zm466 -261c60,0 109,49 109,109 0,61 -49,110 -109,110 -61,0 -110,-49 -110,-110 0,-60 49,-109 110,-109zm1100 83c15,0 27,12 27,26 0,15 -12,27 -27,27 -14,0 -26,-12 -26,-27 0,-14 12,-26 26,-26zm-139 -10c20,0 37,16 37,36 0,21 -17,37 -37,37 -20,0 -37,-16 -37,-37 0,-20 17,-36 37,-36zm-184 -17c29,0 53,24 53,53 0,30 -24,54 -53,54 -30,0 -54,-24 -54,-54 0,-29 24,-53 54,-53zm-204 -12c36,0 65,30 65,65 0,36 -29,65 -65,65 -36,0 -65,-29 -65,-65 0,-35 29,-65 65,-65zm-256 -19c47,0 85,38 85,84 0,47 -38,85 -85,85 -47,0 -85,-38 -85,-85 0,-46 38,-84 85,-84z"/>
  <rect class="fil2" x="11311" y="11798" width="2268" height="2274" rx="383" ry="72"/>
  <path class="fil11" d="M11694 11798l1501 0c211,0 384,173 384,384l0 503c-311,251 -705,400 -1134,400 -430,0 -824,-149 -1134,-400l0 -503c0,-211 172,-384 383,-384z"/>
  <path class="fil8" d="M16012 13243c-90,-33 -154,-119 -154,-221 0,-110 77,-203 180,-228 134,-584 657,-1019 1282,-1019 624,0 1146,434 1282,1017 108,21 190,116 190,230 0,105 -69,194 -165,224 -28,240 -120,459 -259,642l0 0c0,0 129,37 -9,950 0,0 -76,-369 -669,-483l0 0c-117,35 -241,53 -370,53 -676,0 -1233,-509 -1308,-1165z"/>
  <circle class="fil14" cx="17320" cy="13092" r="1171"/>
  <path class="fil11" d="M17320 11921c503,0 932,317 1098,762 -291,329 -676,530 -1098,530 -422,0 -807,-201 -1097,-530 165,-445 594,-762 1097,-762z"/>
  <path class="fil8" d="M16215 11822c94,0 171,76 171,171 0,95 -77,171 -171,171 -95,0 -172,-76 -172,-171 0,-95 77,-171 172,-171zm1641 -210c13,0 23,10 23,23 0,13 -10,23 -23,23 -13,0 -23,-10 -23,-23 0,-13 10,-23 23,-23zm-132 -61c18,0 34,15 34,34 0,19 -16,35 -34,35 -19,0 -35,-16 -35,-35 0,-19 16,-34 35,-34zm-166 -54c28,0 51,22 51,50 0,28 -23,51 -51,51 -28,0 -50,-23 -50,-51 0,-28 22,-50 50,-50zm-190 -41c40,0 73,33 73,73 0,40 -33,73 -73,73 -40,0 -73,-33 -73,-73 0,-40 33,-73 73,-73zm-245 -6c52,0 95,42 95,94 0,52 -43,94 -95,94 -52,0 -94,-42 -94,-94 0,-52 42,-94 94,-94zm-292 31c69,0 125,56 125,126 0,69 -56,125 -125,125 -70,0 -126,-56 -126,-125 0,-70 56,-126 126,-126zm-296 116c80,0 145,65 145,145 0,81 -65,146 -145,146 -81,0 -146,-65 -146,-146 0,-80 65,-145 146,-145z"/>
  <g id="_2537602954192">
   <path class="fil28" d="M12147 12532c41,0 74,33 74,74 0,11 -2,21 -6,30 -139,296 -654,158 -654,-30 0,-41 33,-74 74,-74 23,0 43,11 57,28l0 0c140,139 236,105 388,17 11,-26 37,-45 67,-45z"/>
   <path class="fil28" d="M12742 12532c-41,0 -74,33 -74,74 0,11 2,21 6,30 139,296 654,158 654,-30 0,-41 -33,-74 -73,-74 -24,0 -44,11 -58,28l0 0c-140,139 -236,105 -388,17 -11,-26 -37,-45 -67,-45z"/>
  </g>
  <path class="fil29" d="M12090 13405l1 0 0 0 1 0 0 0 1 0 0 0 0 0 1 0 0 0 0 0 1 0 0 0 1 0 0 0 1 0 0 0 0 0 1 0 0 0 1 1 0 0 0 0 1 0 0 0 1 0 0 0 0 0 1 0 0 0 1 0 1 1 0 0 0 0 0 0 1 0 0 0 1 0 0 0 1 0 0 0 0 1 1 0 0 0 0 0 1 0 0 0 1 0 0 1 0 0 1 0 0 0 1 0 0 0 1 1 1 0 0 0 1 0 0 1 0 0 0 0 1 0 0 0 1 1 0 0 1 0 0 0 1 1 0 0 0 0 1 0 0 1 0 0 1 0 0 0 1 1 0 0 0 0 1 0 0 1 0 0 1 0 0 0 0 0 0 1 1 0 0 0 1 0 0 1 0 0 0 0 1 1 0 0 0 0 0 0 1 1 0 0 1 0 0 0 0 1 0 0 1 0 0 0 0 1 0 0 1 0 0 1 0 0 1 0 0 1 0 0 1 0 0 1 0 0 0 0 1 0 0 1 0 0c6,3 12,7 19,10 98,45 195,70 292,71 96,-1 193,-26 292,-71 6,-3 12,-7 18,-10l0 0 0 -1 1 0 0 0 0 0 1 -1 0 0 0 0 0 -1 1 0 0 0 0 -1 1 0 0 0 0 -1 0 0 1 0 0 0 0 -1 0 0 1 0 0 0 1 -1 0 0 0 0 0 0 1 -1 0 0 0 0 1 -1 0 0 0 0 1 0 0 -1 0 0 0 0 1 0 0 0 0 -1 1 0 0 0 0 0 1 -1 0 0 1 0 0 0 1 -1 0 0 0 0 0 0 1 -1 0 0 1 0 0 0 1 -1 0 0 1 0 0 0 0 0 1 -1 0 0 0 0 1 0 1 -1 1 0 0 0 0 0 1 0 0 0 0 -1 1 0 0 0 1 0 0 0 0 0 1 0 0 -1 0 0 1 0 0 0 1 0 0 0 1 0 0 0 0 0 0 0 1 -1 1 0 0 0 1 0 0 0 1 0 0 0 0 0 1 0 0 0 0 0 1 -1 0 0 1 0 0 0 0 0 1 0 0 0 1 0 0 0 1 0 0 0 1 0 0 0 0 0 1 0 0 0 0 0 1 0 0 0 1 0c31,0 56,25 56,56l0 1 0 0 0 1 0 0 0 0 0 1 0 0 0 1 0 0 0 0 0 1 0 0 0 0 0 1 0 0 0 0 0 1 0 0 0 0 0 1 0 0 0 1 0 0 0 0 0 1 0 0 -1 1 0 0 0 0 0 1 0 0 0 0 0 1 0 0 0 0 0 1 0 0 0 0 -1 1 0 0 0 1 0 0 0 0 0 1 0 0 0 0 0 1 0 0 -1 0 0 1 0 0 0 0 0 1 0 0 0 0 0 1 -1 0 0 0 0 1 0 0 0 0 0 1 0 0 -1 0 0 1 0 0 0 1 0 0 -1 0 0 0 0 1 0 0 0 1 0 0 -1 1 0 0 0 0 0 0 0 0 -1 1 0 0 0 1 0 0 0 1 -1 0 0 0 0 0 -1 1 0 1 -1 1 0 0 -1 1 0 0 0 1 -1 0 0 1 0 0c-37,175 -218,262 -397,260 -180,2 -361,-85 -397,-260l-1 0 0 -1 -1 0 0 -1 0 0 -1 -1 0 0 -1 -1 0 -1 -1 -1 0 0 0 0 0 0 -1 -1 0 0 0 -1 0 0 -1 -1 0 0 0 0 0 0 0 0 -1 -1 0 0 0 -1 0 0 0 -1 0 0 -1 0 0 0 0 -1 0 0 0 -1 0 0 -1 0 0 -1 0 0 0 0 0 -1 0 0 0 0 -1 -1 0 0 0 0 0 -1 0 0 0 0 0 -1 0 0 -1 0 0 -1 0 0 0 0 0 -1 0 0 0 0 0 -1 0 0 -1 -1 0 0 0 0 0 -1 0 0 0 0 0 -1 0 0 0 0 0 -1 0 0 0 0 0 -1 0 0 -1 -1 0 0 0 0 0 -1 0 0 0 -1 0 0 0 0 0 -1 0 0 0 0 0 -1 0 0 0 0 0 -1 0 0 0 0 0 -1 0 0 0 -1 0 0 0 0 0 -1 0 0 0 -1c0,-31 25,-56 56,-56z"/>
  <g id="_2537602951664">
   <path class="fil29" d="M12905 12219c-18,0 -32,-14 -32,-32 0,-17 14,-32 32,-32 0,0 287,-38 447,199 5,5 8,13 8,21 0,17 -15,32 -32,32 -10,0 -19,-5 -25,-12l0 0c-1,-1 -1,-1 -2,-2 -130,-174 -396,-174 -396,-174z"/>
   <path class="fil29" d="M11984 12219c18,0 32,-14 32,-32 0,-17 -14,-32 -32,-32 0,0 -287,-38 -447,199 -5,5 -8,13 -8,21 0,17 15,32 32,32 10,0 19,-5 25,-12l0 0c1,-1 1,-1 2,-2 130,-174 396,-174 396,-174z"/>
  </g>
  <g id="_2537602953008">
   <path class="fil28" d="M17023 12652c41,0 74,33 74,74 0,11 -3,21 -6,30 -139,296 -655,158 -655,-30 0,-41 33,-74 74,-74 23,0 44,11 57,28l0 0c141,139 237,105 388,17 12,-26 38,-45 68,-45z"/>
   <path class="fil28" d="M17617 12652c-41,0 -74,33 -74,74 0,11 3,21 7,30 138,296 654,158 654,-30 0,-41 -33,-74 -74,-74 -23,0 -44,11 -57,28l0 0c-141,139 -237,105 -388,17 -12,-26 -38,-45 -68,-45z"/>
  </g>
  <path class="fil29" d="M16966 13565l0 0 0 0 1 0 0 0 1 0 0 0 1 0 0 0 1 0 0 0 0 0 1 0 0 0 1 0 0 0 0 0 1 0 0 0 1 0 0 1 0 0 1 0 0 0 1 0 0 0 1 0 0 0 0 0 1 0 0 0 1 1 0 0 1 0 0 0 1 0 0 0 0 0 1 0 0 0 0 0 1 1 0 0 1 0 0 0 0 0 1 0 0 0 0 1 1 0 0 0 1 0 0 0 0 0 2 1 0 0 1 0 0 0 0 1 1 0 0 0 1 0 0 0 1 1 0 0 1 0 0 0 0 1 0 0 1 0 0 0 1 1 0 0 0 0 1 0 0 1 1 0 0 0 0 0 0 1 1 0 0 0 0 0 1 0 0 1 0 0 1 0 0 0 0 1 1 0 0 0 0 1 0 0 1 0 0 0 1 1 0 0 0 0 0 0 1 1 0 0 0 0 0 0 1 1 0 0 0 0 1 1 0 0 0 0 1 1 0 0 0 0 0 1 1 0 0 0 0 0 0 1 0 0c7,3 13,7 19,10 98,45 196,70 292,71 96,-1 194,-26 292,-71 6,-3 13,-7 19,-10l0 0 0 -1 0 0 1 0 0 0 0 -1 0 0 1 0 0 -1 0 0 0 0 1 -1 0 0 0 0 1 -1 0 0 0 0 0 0 1 -1 0 0 1 0 0 0 0 -1 0 0 1 0 0 0 0 -1 0 0 1 0 0 -1 0 0 1 0 0 0 0 -1 1 0 0 0 0 0 1 0 0 -1 0 0 1 0 0 0 0 -1 1 0 0 0 0 0 1 -1 0 0 1 0 0 0 0 -1 0 0 1 0 0 0 2 -1 0 0 0 0 0 0 1 0 0 -1 1 0 0 0 0 0 2 -1 0 0 0 0 1 0 0 0 1 0 0 -1 0 0 1 0 0 0 0 0 1 0 0 0 1 -1 0 0 1 0 0 0 0 0 0 0 1 0 0 0 1 0 0 0 1 -1 0 0 1 0 0 0 0 0 1 0 0 0 1 0 0 0 1 0 0 0 0 -1 1 0 0 0 1 0 0 0 0 0 1 0 0 0 1 0 0 0 0 0 1 0 0 0 1 0 0 0 1 0 0 0 1 0 0 0 1 0c31,0 56,25 56,56l0 1 0 0 0 1 0 0 0 0 0 1 0 0 0 1 0 0 0 0 0 1 0 0 0 0 0 1 0 0 0 0 0 1 -1 0 0 0 0 1 0 0 0 1 0 0 0 0 0 1 0 0 0 1 0 0 0 0 0 1 0 0 0 0 0 1 -1 0 0 0 0 1 0 0 0 0 0 1 0 0 0 1 0 0 0 0 -1 1 0 0 0 0 0 1 0 0 0 0 0 1 0 0 0 0 -1 1 0 0 0 0 0 1 0 0 0 0 0 1 0 0 -1 0 0 1 0 0 0 0 0 1 -1 0 0 1 0 0 0 0 0 0 0 1 0 0 -1 1 0 0 0 1 0 0 0 0 -1 0 0 0 0 1 0 0 0 1 -1 0 0 1 0 0 0 0 0 0 -1 1 0 1 -1 1 0 0 -1 1 0 0 -1 1 0 0 0 1 -1 0c-37,175 -217,262 -397,260 -180,2 -360,-85 -397,-260l0 0 -1 -1 0 0 -1 -1 0 0 -1 -1 0 0 -1 -1 0 -1 0 -1 0 0 -1 0 0 0 0 -1 0 0 -1 -1 0 0 0 -1 0 0 -1 0 0 0 0 0 0 -1 0 0 0 -1 -1 0 0 -1 0 0 0 0 0 0 0 -1 -1 0 0 -1 0 0 0 0 0 -1 0 0 -1 0 0 -1 0 0 0 0 0 -1 0 0 0 0 -1 -1 0 0 0 0 0 -1 0 0 0 0 0 -1 0 0 0 0 0 -1 -1 0 0 0 0 -1 0 0 0 -1 0 0 0 0 0 -1 0 0 0 0 0 -1 -1 0 0 0 0 -1 0 0 0 0 0 -1 0 0 0 -1 0 0 0 0 0 -1 0 0 0 -1 0 0 0 0 0 -1 0 0 -1 0 0 -1 0 0 0 0 0 -1 0 0 0 0 0 -1 0 0 0 -1 0 0 0 0 0 -1 0 0 0 -1c0,-31 25,-56 57,-56z"/>
  <g id="_2537602950896">
   <path class="fil29" d="M17781 12319c-18,0 -32,-14 -32,-32 0,-17 14,-32 32,-32 0,0 286,-38 446,199 5,5 8,13 8,21 0,17 -14,32 -32,32 -10,0 -19,-5 -25,-12l0 0c0,-1 -1,-1 -1,-2 -130,-174 -396,-174 -396,-174z"/>
   <path class="fil29" d="M16860 12319c17,0 32,-14 32,-32 0,-17 -15,-32 -32,-32 0,0 -287,-38 -447,199 -5,5 -8,13 -8,21 0,17 14,32 32,32 10,0 19,-5 25,-12l0 0c0,-1 1,-1 1,-2 130,-174 397,-174 397,-174z"/>
  </g>
  <path class="fil8" d="M6157 13116c-90,-33 -155,-119 -155,-221 0,-110 77,-203 180,-228 135,-584 658,-1019 1282,-1019 624,0 1146,434 1282,1017 108,21 190,116 190,230 0,105 -69,194 -164,224 -28,240 -121,459 -260,642l1 0c0,0 129,37 -10,950 0,0 -76,-369 -668,-483l0 0c-118,35 -242,53 -371,53 -676,0 -1232,-509 -1307,-1165z"/>
  <circle class="fil14" cx="7464" cy="12965" r="1171"/>
  <path class="fil11" d="M7464 11794c503,0 932,317 1098,762 -291,329 -676,530 -1098,530 -422,0 -807,-201 -1097,-530 165,-445 594,-762 1097,-762z"/>
  <path class="fil8" d="M6359 11695c94,0 171,76 171,171 0,95 -77,171 -171,171 -95,0 -171,-76 -171,-171 0,-95 76,-171 171,-171zm1641 -210c13,0 23,10 23,23 0,13 -10,23 -23,23 -13,0 -23,-10 -23,-23 0,-13 10,-23 23,-23zm-132 -61c19,0 34,15 34,34 0,19 -15,35 -34,35 -19,0 -35,-16 -35,-35 0,-19 16,-34 35,-34zm-166 -54c28,0 51,22 51,50 0,28 -23,51 -51,51 -28,0 -50,-23 -50,-51 0,-28 22,-50 50,-50zm-190 -41c40,0 73,33 73,73 0,40 -33,73 -73,73 -40,0 -73,-33 -73,-73 0,-40 33,-73 73,-73zm-245 -6c53,0 95,42 95,94 0,52 -42,94 -95,94 -52,0 -94,-42 -94,-94 0,-52 42,-94 94,-94zm-292 31c69,0 125,56 125,126 0,69 -56,125 -125,125 -70,0 -126,-56 -126,-125 0,-70 56,-126 126,-126zm-296 116c80,0 145,65 145,145 0,81 -65,146 -145,146 -81,0 -146,-65 -146,-146 0,-80 65,-145 146,-145z"/>
  <g id="_2537611390928">
   <path class="fil8" d="M946 11778l0 73c3,4 5,8 7,12 5,17 12,33 22,48 6,9 13,19 26,30l0 0 0 0c28,25 64,41 104,42l1 0 1 0 1 0c84,2 164,-60 167,-159 2,-93 -62,-152 -135,-165l-4 0 -1 0 -1 -1 -5 0 -1 0c-2,-1 -3,-1 -5,-1l-2 0 -3 0c-45,-2 -91,13 -124,49 -13,14 -24,29 -32,46l-12 20c0,-2 -2,4 -4,6zm327 804c-124,0 -225,101 -225,225 0,124 101,224 225,224 6,0 12,0 18,-1l0 641c0,241 198,438 439,438l1047 0c2,3 4,5 6,8 378,450 274,683 274,683 483,-540 406,-650 512,-708 23,-6 44,-15 65,-25l1 0 -1 0c149,-70 252,-222 252,-396l0 -641c115,-9 206,-106 206,-223 0,-118 -91,-214 -206,-224l0 -637c0,-241 -197,-438 -438,-438l-1718 0c-241,0 -439,197 -439,438l0 637c-6,0 -12,-1 -18,-1zm-81 -1088c11,57 50,90 95,101 13,4 26,6 40,6 27,0 52,-8 73,-21 47,-26 78,-77 60,-150 -12,-50 -45,-81 -84,-94 -15,-6 -32,-9 -49,-9 -31,0 -61,11 -84,29 -38,27 -62,75 -51,138zm466 -261c60,0 109,49 109,109 0,61 -49,110 -109,110 -61,0 -109,-49 -109,-110 0,-60 48,-109 109,-109zm1101 83c14,0 26,12 26,26 0,15 -12,27 -26,27 -15,0 -26,-12 -26,-27 0,-14 11,-26 26,-26zm-140 -10c21,0 37,16 37,36 0,21 -16,37 -37,37 -20,0 -37,-16 -37,-37 0,-20 17,-36 37,-36zm-184 -17c29,0 53,24 53,53 0,30 -24,54 -53,54 -30,0 -53,-24 -53,-54 0,-29 23,-53 53,-53zm-203 -12c35,0 65,30 65,65 0,36 -30,65 -65,65 -36,0 -65,-29 -65,-65 0,-35 29,-65 65,-65zm-257 -19c47,0 85,38 85,84 0,47 -38,85 -85,85 -47,0 -85,-38 -85,-85 0,-46 38,-84 85,-84z"/>
   <rect class="fil2" x="1455" y="11671" width="2268" height="2274" rx="383" ry="72"/>
   <path class="fil11" d="M1838 11671l1502 0c210,0 383,173 383,384l0 503c-310,251 -705,400 -1134,400 -430,0 -824,-149 -1134,-400l0 -503c0,-211 172,-384 383,-384z"/>
   <g>
    <path class="fil30" d="M3368 12343c11,7 19,20 19,35 0,23 -18,41 -41,41 -10,0 -20,-4 -27,-11 -58,-36 -211,-141 -229,-144 -19,-3 -114,55 -172,91 -12,11 -26,20 -42,25l0 0 0 0c-8,2 -17,4 -27,4 -52,0 -94,-43 -94,-95 0,-36 21,-68 51,-84l0 0c0,0 148,-109 250,-99 129,13 222,148 312,237z"/>
    <path class="fil30" d="M1810 12343c-12,7 -20,20 -20,35 0,23 19,41 41,41 11,0 20,-4 28,-11 57,-36 211,-141 229,-144 19,-3 114,55 172,91 11,11 25,20 41,25l0 0 0 0c9,2 18,4 27,4 52,0 95,-43 95,-95 0,-36 -21,-68 -51,-84l0 0c0,0 -149,-109 -251,-99 -128,13 -222,148 -311,237z"/>
   </g>
   <path class="fil31" d="M2589 13003c249,0 443,30 536,74 40,18 63,38 63,60 0,12 -1,24 -2,38 19,317 -142,545 -339,656 -73,50 -159,80 -258,76 -99,4 -185,-26 -259,-76 -197,-111 -358,-339 -338,-656 -2,-14 -2,-26 -2,-38 0,-22 22,-42 63,-60 92,-44 287,-74 535,-74l1 0z"/>
   <path class="fil32" d="M2983 13729c-42,41 -88,75 -136,102 -73,50 -159,80 -258,76 -99,4 -185,-26 -259,-76 -48,-27 -94,-61 -135,-102 83,-82 228,-137 394,-137 165,0 310,55 394,137z"/>
   <path class="fil33" d="M2589 13003c249,0 443,30 536,74 8,4 15,7 22,11 0,40 -1,79 -3,99 -11,114 -167,154 -211,92 -41,-58 -646,-60 -688,0 -44,62 -201,22 -212,-92 -2,-20 -2,-59 -2,-99 6,-4 14,-7 22,-11 133,-63 391,-74 536,-74z"/>
   <path class="fil5 str0" style="mask:url(#id16)" d="M2589 13732c98,0 177,20 177,46 0,25 -79,46 -177,46 -98,0 -178,-21 -178,-46 0,-26 80,-46 178,-46z"/>
   <g>
    <g>
     <path class="fil34" d="M3370 12484c1218,418 -181,1317 0,0z"/>
     <path class="fil35" style="mask:url(#id18)" d="M3447 12587c539,185 -81,590 0,0z"/>
    </g>
    <g>
     <path class="fil34" d="M1808 12484c-1218,418 180,1317 0,0z"/>
     <path class="fil35" style="mask:url(#id20)" d="M1731 12587c-539,185 81,590 0,0z"/>
    </g>
   </g>
  </g>
  <g id="_2537611384144">
   <g>
    <path class="fil30" d="M8243 12523c12,7 20,20 20,35 0,23 -19,41 -41,41 -11,0 -20,-4 -28,-11 -57,-36 -211,-141 -229,-144 -19,-3 -114,55 -172,91 -11,11 -25,20 -41,25l0 0 0 0c-9,2 -18,4 -27,4 -52,0 -95,-43 -95,-95 0,-36 21,-68 51,-84l0 0c0,0 149,-109 251,-99 128,13 222,148 311,237z"/>
    <path class="fil30" d="M6685 12523c-11,7 -19,20 -19,35 0,23 18,41 41,41 10,0 20,-4 27,-11 58,-36 211,-141 229,-144 19,-3 114,55 172,91 12,11 26,20 42,25l0 0 0 0c8,2 17,4 27,4 52,0 94,-43 94,-95 0,-36 -21,-68 -51,-84l0 0c0,0 -148,-109 -250,-99 -129,13 -222,148 -312,237z"/>
   </g>
   <g>
    <g>
     <path class="fil34" d="M8245 12664c1218,418 -180,1317 0,0z"/>
     <path class="fil35" style="mask:url(#id22)" d="M8322 12767c539,185 -81,590 0,0z"/>
    </g>
    <g>
     <path class="fil34" d="M6683 12664c-1218,418 181,1317 0,0z"/>
     <path class="fil35" style="mask:url(#id24)" d="M6606 12767c-539,185 81,590 0,0z"/>
    </g>
   </g>
  </g>
  <g id="_2537611380944">
   <path class="fil31" d="M7465 13143c248,0 443,30 535,74 41,18 63,38 63,60 0,12 0,24 -1,38 19,317 -142,545 -339,656 -74,50 -160,80 -259,76 -99,4 -185,-26 -258,-76 -197,-111 -358,-339 -339,-656 -1,-14 -2,-26 -2,-38 0,-22 23,-42 63,-60 93,-44 287,-74 536,-74l1 0z"/>
   <path class="fil32" d="M7858 13869c-41,41 -87,75 -135,102 -74,50 -160,80 -259,76 -99,4 -185,-26 -258,-76 -48,-27 -94,-61 -136,-102 84,-82 229,-137 394,-137 166,0 311,55 394,137z"/>
   <path class="fil33" d="M7465 13143c248,0 443,30 535,74 8,4 16,7 22,11 0,40 0,79 -2,99 -11,114 -168,154 -212,92 -40,-58 -646,-60 -688,0 -44,62 -200,22 -211,-92 -2,-20 -3,-59 -3,-99 7,-4 14,-7 22,-11 133,-63 391,-74 537,-74z"/>
   <path class="fil5 str0" style="mask:url(#id26)" d="M7464 13872c98,0 178,20 178,46 0,25 -80,46 -178,46 -98,0 -177,-21 -177,-46 0,-26 79,-46 177,-46z"/>
  </g>
  <g id="_2537611376624">
   <path class="fil8" d="M6131 18501c-90,-33 -154,-119 -154,-220 0,-111 77,-204 179,-229 135,-583 658,-1018 1283,-1018 624,0 1146,434 1282,1016 108,21 190,116 190,231 0,105 -69,194 -165,224 -28,239 -120,459 -259,641l0 0c0,0 129,38 -10,950 0,0 -75,-369 -668,-482l0 0c-117,34 -242,52 -370,52 -676,0 -1233,-509 -1308,-1165z"/>
   <circle class="fil14" cx="7439" cy="18350" r="1171"/>
   <path class="fil11" d="M7439 17179c503,0 932,318 1097,763 -290,329 -675,529 -1097,529 -422,0 -807,-200 -1098,-529 166,-445 595,-763 1098,-763z"/>
   <path class="fil8" d="M6334 17080c94,0 171,77 171,171 0,95 -77,172 -171,172 -95,0 -172,-77 -172,-172 0,-94 77,-171 172,-171zm1641 -210c13,0 23,10 23,23 0,13 -10,24 -23,24 -13,0 -24,-11 -24,-24 0,-13 11,-23 24,-23zm-133 -61c19,0 35,16 35,35 0,19 -16,34 -35,34 -19,0 -34,-15 -34,-34 0,-19 15,-35 34,-35zm-165 -54c28,0 51,23 51,51 0,28 -23,50 -51,50 -28,0 -51,-22 -51,-50 0,-28 23,-51 51,-51zm-190 -40c40,0 73,32 73,72 0,41 -33,73 -73,73 -40,0 -73,-32 -73,-73 0,-40 33,-72 73,-72zm-245 -7c52,0 94,42 94,94 0,52 -42,95 -94,95 -52,0 -94,-43 -94,-95 0,-52 42,-94 94,-94zm-293 32c70,0 126,56 126,125 0,70 -56,126 -126,126 -69,0 -125,-56 -125,-126 0,-69 56,-125 125,-125zm-296 115c81,0 146,65 146,146 0,80 -65,145 -146,145 -80,0 -145,-65 -145,-145 0,-81 65,-146 145,-146z"/>
   <g>
    <ellipse class="fil36" cx="6948" cy="17915" rx="191" ry="339"/>
    <ellipse class="fil36" cx="7919" cy="17915" rx="191" ry="339"/>
    <path class="fil37" d="M7477 19424l-2 0c-6,0 -12,0 -17,0l0 0c-7,0 -13,1 -19,1l0 0c-6,0 -13,-1 -19,-1l0 0c-6,0 -11,0 -17,0l-2 0c-396,-16 -840,-281 -843,-662 -1,-11 -1,-21 0,-31 -28,-220 571,-212 851,-211l0 0 13 0 4 0 9 0 8 0 9 0 4 0 13 0 0 0c280,-1 879,-9 850,211 2,10 2,20 1,31 -3,381 -447,646 -843,662z"/>
    <path class="fil38" d="M6715 18853l10 0 1427 0 11 0c28,0 50,-18 61,-43 7,-8 9,-16 6,-21 1,-1 1,-3 1,-4 26,-199 -787,-186 -787,-186l-5 3 -5 -3c0,0 -813,-13 -787,186 0,1 0,3 1,4 -4,5 -1,13 6,21 11,25 33,43 61,43z"/>
    <path class="fil39" style="mask:url(#id28)" d="M7439 19114c228,0 413,53 413,119 0,66 -185,119 -413,119 -228,0 -413,-53 -413,-119 0,-66 185,-119 413,-119z"/>
   </g>
  </g>
  <g id="_2537611370448">
   <path class="fil8" d="M921 17163l0 74c3,4 5,8 7,11 5,18 12,34 22,48 5,10 13,19 26,30l0 0 0 1c28,25 64,40 104,41l0 1 1 0 1 0c85,2 165,-61 168,-159 2,-94 -63,-153 -136,-165l-4 -1 0 0 -2 0 -5 -1 0 0c-2,0 -4,0 -6,0l-1 -1 -4 0c-45,-2 -90,14 -124,50 -13,13 -23,28 -31,45l-12 20c-1,-1 -2,4 -4,6zm326 805c-124,0 -224,100 -224,224 0,124 100,224 224,224 7,0 13,0 19,0l0 640c0,241 197,439 438,439l1048 0c2,2 4,5 6,7 378,450 273,684 273,684 483,-541 407,-650 513,-708 22,-7 44,-15 65,-25l0 0 0 0c149,-71 252,-222 252,-397l0 -640c115,-10 206,-106 206,-224 0,-118 -91,-214 -206,-224l0 -637c0,-241 -197,-438 -439,-438l-1718 0c-241,0 -438,197 -438,438l0 637c-6,0 -12,0 -19,0zm-80 -1088c10,57 49,89 95,100 12,4 26,6 40,6 27,0 51,-7 73,-21 46,-25 77,-77 60,-149 -13,-51 -45,-81 -84,-94 -15,-6 -32,-9 -49,-9 -32,0 -61,10 -84,29 -38,27 -63,74 -51,138zm465 -261c61,0 110,49 110,109 0,60 -49,109 -110,109 -60,0 -109,-49 -109,-109 0,-60 49,-109 109,-109zm1101 83c15,0 26,11 26,26 0,14 -11,26 -26,26 -14,0 -26,-12 -26,-26 0,-15 12,-26 26,-26zm-139 -11c20,0 37,17 37,37 0,20 -17,37 -37,37 -20,0 -37,-17 -37,-37 0,-20 17,-37 37,-37zm-185 -16c30,0 54,23 54,53 0,29 -24,53 -54,53 -29,0 -53,-24 -53,-53 0,-30 24,-53 53,-53zm-203 -12c36,0 65,29 65,65 0,36 -29,65 -65,65 -36,0 -65,-29 -65,-65 0,-36 29,-65 65,-65zm-256 -20c46,0 84,38 84,85 0,47 -38,85 -84,85 -47,0 -85,-38 -85,-85 0,-47 38,-85 85,-85z"/>
   <rect class="fil2" x="1429" y="17057" width="2268" height="2274" rx="383" ry="72"/>
   <path class="fil11" d="M1813 17057l1501 0c211,0 383,172 383,383l0 504c-310,250 -704,400 -1134,400 -429,0 -823,-150 -1134,-400l0 -504c0,-211 173,-383 384,-383z"/>
   <g>
    <ellipse class="fil36" cx="2072" cy="17789" rx="191" ry="339"/>
    <ellipse class="fil36" cx="3044" cy="17789" rx="191" ry="339"/>
    <path class="fil37" d="M2601 19297l-2 0c-5,1 -11,1 -17,1l0 0c-6,0 -12,0 -18,0l-1 0c-6,0 -12,0 -18,0l-1 0c-5,0 -11,0 -17,-1l-1 0c-396,-16 -840,-280 -844,-662 0,-10 0,-21 1,-30 -29,-220 571,-212 850,-212l1 0 12 0 5 0 8 0 9 0 8 0 4 0 13 0 1 0c279,0 878,-8 850,212 1,9 1,20 0,30 -3,382 -447,646 -843,662z"/>
    <path class="fil38" d="M1840 18727l10 0 1427 0 10 0c29,0 51,-18 61,-43 7,-9 10,-16 7,-21 0,-2 0,-3 0,-4 27,-199 -787,-186 -787,-186l-5 2 -5 -2c0,0 -813,-13 -787,186 1,1 1,2 1,4 -3,5 0,12 6,21 11,25 33,43 62,43z"/>
    <path class="fil39" style="mask:url(#id30)" d="M2563 18988c229,0 413,53 413,119 0,66 -184,119 -413,119 -228,0 -413,-53 -413,-119 0,-66 185,-119 413,-119z"/>
   </g>
  </g>
  <g id="_2537611351472">
   <path class="fil1" d="M10884 17182l0 74c3,4 5,8 7,12 5,17 12,33 22,47 6,10 13,19 26,30l0 1 0 0c28,25 64,40 104,42l1 0 1 0 1 0c84,2 164,-61 167,-159 2,-93 -62,-152 -135,-165l-4 -1 -1 0 -1 0 -5 -1 -1 0c-2,0 -3,0 -5,0l-2 0 -3 -1c-45,-2 -91,14 -124,50 -13,13 -24,29 -32,45l-12 20c0,-1 -2,4 -4,6zm338 806c-124,0 -225,101 -225,225 0,124 101,224 225,224 2,0 5,0 7,0l0 638c0,242 198,439 439,439l1047 0c2,2 4,5 6,7 378,450 274,684 274,684 483,-541 406,-650 512,-708 23,-7 44,-15 65,-25l0 0 0 0c149,-71 252,-222 252,-397l0 -638c120,-4 217,-103 217,-224 0,-122 -97,-220 -217,-225l0 -637c0,-242 -197,-439 -438,-439l-1718 0c-241,0 -439,197 -439,439l0 637c-2,0 -5,0 -7,0zm-92 -1089c11,57 50,89 95,100 13,4 26,6 40,6 27,0 52,-7 73,-20 46,-26 78,-77 60,-150 -12,-51 -45,-81 -84,-94 -15,-6 -32,-9 -49,-9 -31,0 -61,11 -84,29 -38,27 -62,74 -51,138zm466 -261c60,0 109,49 109,109 0,60 -49,109 -109,109 -61,0 -110,-49 -110,-109 0,-60 49,-109 110,-109zm1101 83c14,0 26,12 26,26 0,14 -12,26 -26,26 -15,0 -26,-12 -26,-26 0,-14 11,-26 26,-26zm-140 -11c21,0 37,17 37,37 0,20 -16,37 -37,37 -20,0 -37,-17 -37,-37 0,-20 17,-37 37,-37zm-184 -16c29,0 53,24 53,53 0,29 -24,53 -53,53 -30,0 -53,-24 -53,-53 0,-29 23,-53 53,-53zm-204 -12c36,0 65,29 65,65 0,36 -29,65 -65,65 -35,0 -65,-29 -65,-65 0,-36 30,-65 65,-65zm-256 -20c47,0 85,38 85,85 0,47 -38,85 -85,85 -47,0 -85,-38 -85,-85 0,-47 38,-85 85,-85z"/>
   <rect class="fil2" x="11393" y="17076" width="2268" height="2274" rx="383" ry="72"/>
   <path class="fil3" d="M11776 17076l1502 0c210,0 383,172 383,383l0 504c-310,250 -705,400 -1134,400 -430,0 -824,-150 -1134,-400l0 -504c0,-211 172,-383 383,-383z"/>
   <circle class="fil6" cx="11943" cy="17843" r="233"/>
   <path class="fil5" style="mask:url(#id32)" d="M12036 17680c33,0 60,27 60,60 0,34 -27,60 -60,60 -34,0 -61,-26 -61,-60 0,-33 27,-60 61,-60z"/>
   <circle class="fil6" cx="13110" cy="17843" r="233"/>
   <path class="fil5" style="mask:url(#id34)" d="M13202 17680c34,0 60,27 60,60 0,34 -26,60 -60,60 -33,0 -60,-26 -60,-60 0,-33 27,-60 60,-60z"/>
   <path class="fil26" d="M13303 18435c2,15 2,31 2,46 0,384 -346,695 -773,695 -427,0 -773,-311 -773,-695 0,-15 0,-31 1,-46 614,74 1116,65 1543,0z"/>
   <path class="fil27" d="M13046 19000c-136,110 -317,176 -514,176 -198,0 -378,-66 -514,-176 58,-62 175,-104 310,-104 76,0 147,13 204,36 57,-23 128,-36 204,-36 135,0 252,42 310,104z"/>
   <path class="fil5" d="M13303 18435c1,8 1,15 2,23l0 46c-1,30 -5,60 -10,89 -22,62 -81,106 -151,106l-1225 0c-68,0 -127,-43 -150,-103 -7,-38 -10,-76 -10,-115l0 0 0 -1c0,-15 0,-30 1,-45 614,74 1116,65 1543,0z"/>
  </g>
  <g id="_2537611334992">
   <path class="fil1" d="M16100 18520c-90,-32 -154,-119 -154,-220 0,-111 76,-203 179,-228 135,-584 658,-1019 1283,-1019 623,0 1146,434 1282,1016 108,21 189,117 189,231 0,105 -69,194 -164,224 -28,239 -120,459 -259,641l0 0c0,0 129,38 -10,951 0,0 -75,-370 -668,-483l0 0c-118,34 -242,53 -370,53 -676,0 -1233,-510 -1308,-1166z"/>
   <circle class="fil7" cx="17408" cy="18369" r="1171"/>
   <path class="fil3" d="M17408 17199c503,0 931,317 1097,762 -290,329 -675,529 -1097,529 -422,0 -807,-200 -1098,-529 166,-445 595,-762 1098,-762z"/>
   <path class="fil1" d="M16302 17099c95,0 172,77 172,172 0,94 -77,171 -172,171 -94,0 -171,-77 -171,-171 0,-95 77,-172 171,-172zm1641 -210c13,0 24,11 24,23 0,13 -11,24 -24,24 -12,0 -23,-11 -23,-24 0,-12 11,-23 23,-23zm-132 -60c19,0 34,15 34,34 0,19 -15,34 -34,34 -19,0 -34,-15 -34,-34 0,-19 15,-34 34,-34zm-165 -55c28,0 50,23 50,51 0,28 -22,50 -50,50 -28,0 -51,-22 -51,-50 0,-28 23,-51 51,-51zm-190 -40c40,0 72,32 72,73 0,40 -32,72 -72,72 -41,0 -73,-32 -73,-72 0,-41 32,-73 73,-73zm-245 -7c52,0 94,42 94,94 0,53 -42,95 -94,95 -52,0 -94,-42 -94,-95 0,-52 42,-94 94,-94zm-293 32c70,0 126,56 126,125 0,70 -56,126 -126,126 -69,0 -125,-56 -125,-126 0,-69 56,-125 125,-125zm-296 115c81,0 146,66 146,146 0,80 -65,145 -146,145 -80,0 -145,-65 -145,-145 0,-80 65,-146 145,-146z"/>
   <path class="fil26" d="M18179 18635c1,15 2,31 2,46 0,384 -346,695 -773,695 -427,0 -774,-311 -774,-695 0,-15 1,-31 2,-46 614,74 1115,65 1543,0z"/>
   <path class="fil27" d="M17922 19200c-137,110 -317,176 -514,176 -198,0 -378,-66 -515,-176 58,-62 176,-104 311,-104 76,0 146,13 204,36 57,-23 127,-36 204,-36 135,0 252,42 310,104z"/>
   <path class="fil5" d="M18179 18635c1,8 1,15 2,23l0 46c-1,30 -5,60 -10,89 -22,62 -81,106 -151,106l-1225 0c-68,0 -127,-43 -150,-103 -7,-38 -10,-76 -10,-115l0 0 0 -1c0,-15 0,-30 1,-45 614,74 1116,65 1543,0z"/>
   <g>
    <circle class="fil6" cx="16824" cy="17844" r="233"/>
    <path class="fil5" style="mask:url(#id36)" d="M16917 17682c33,0 60,26 60,60 0,33 -27,60 -60,60 -34,0 -61,-27 -61,-60 0,-34 27,-60 61,-60z"/>
    <circle class="fil6" cx="17991" cy="17844" r="233"/>
    <path class="fil5" style="mask:url(#id38)" d="M18083 17682c34,0 60,26 60,60 0,33 -26,60 -60,60 -33,0 -60,-27 -60,-60 0,-34 27,-60 60,-60z"/>
   </g>
  </g>
  <path class="fil1" d="M20819 17166l0 73c2,5 5,8 7,12 4,17 12,33 21,48 6,9 13,19 26,30l1 0 0 0c27,25 64,41 104,42l0 0 1 0 1 0c84,2 165,-60 167,-158 3,-94 -62,-153 -135,-166l-4 0 0 0 -2 -1 -5 0 0 0c-2,0 -4,-1 -6,-1l-2 0 -3 0c-45,-2 -91,14 -124,49 -13,14 -24,29 -31,46l-12 20c-1,-1 -3,4 -4,6zm337 806c-124,0 -224,100 -224,224 0,124 100,225 224,225 3,0 5,0 8,0l0 638c0,241 197,438 438,438l1048 0c2,3 4,5 6,8 378,450 273,684 273,684 483,-541 407,-651 512,-709 23,-6 45,-15 66,-25l0 0 0 0c148,-70 251,-222 251,-396l0 -638c121,-5 217,-103 217,-225 0,-121 -96,-220 -217,-224l0 -638c0,-241 -197,-438 -438,-438l-1718 0c-241,0 -438,197 -438,438l0 638c-3,0 -5,0 -8,0zm-91 -1089c10,56 49,89 94,100 13,4 27,6 41,6 26,0 51,-8 72,-21 47,-26 78,-77 60,-150 -12,-50 -45,-81 -84,-94 -15,-5 -31,-9 -48,-9 -32,0 -61,11 -84,29 -39,28 -63,75 -51,139zm465 -262c60,0 109,49 109,110 0,60 -49,109 -109,109 -60,0 -109,-49 -109,-109 0,-61 49,-110 109,-110zm1101 84c14,0 26,11 26,26 0,14 -12,26 -26,26 -14,0 -26,-12 -26,-26 0,-15 12,-26 26,-26zm-139 -11c20,0 36,16 36,37 0,20 -16,36 -36,36 -21,0 -37,-16 -37,-36 0,-21 16,-37 37,-37zm-185 -17c30,0 53,24 53,54 0,29 -23,53 -53,53 -29,0 -53,-24 -53,-53 0,-30 24,-54 53,-54zm-203 -11c36,0 65,29 65,65 0,35 -29,65 -65,65 -36,0 -65,-30 -65,-65 0,-36 29,-65 65,-65zm-257 -20c47,0 85,38 85,85 0,46 -38,84 -85,84 -47,0 -85,-38 -85,-84 0,-47 38,-85 85,-85z"/>
  <rect class="fil2" x="21327" y="17059" width="2268" height="2274" rx="383" ry="72"/>
  <path class="fil3" d="M21710 17059l1502 0c211,0 383,173 383,384l0 504c-310,250 -704,400 -1134,400 -429,0 -824,-150 -1134,-400l0 -504c0,-211 172,-384 383,-384z"/>
  <path class="fil1" d="M26034 18504c-90,-33 -154,-119 -154,-221 0,-110 77,-203 180,-228 134,-583 657,-1018 1282,-1018 624,0 1146,433 1282,1016 108,21 190,116 190,230 0,106 -69,195 -165,224 -28,240 -120,460 -259,642l0 0c0,0 129,37 -9,950 0,0 -76,-369 -669,-483l0 0c-117,35 -241,53 -370,53 -676,0 -1233,-509 -1308,-1165z"/>
  <circle class="fil7" cx="27342" cy="18353" r="1171"/>
  <path class="fil3" d="M27342 17182c503,0 932,317 1098,762 -291,329 -676,530 -1098,530 -422,0 -807,-201 -1097,-530 165,-445 594,-762 1097,-762z"/>
  <path class="fil1" d="M26237 17083c94,0 171,77 171,171 0,95 -77,171 -171,171 -95,0 -172,-76 -172,-171 0,-94 77,-171 172,-171zm1641 -210c13,0 23,10 23,23 0,13 -10,23 -23,23 -13,0 -23,-10 -23,-23 0,-13 10,-23 23,-23zm-132 -61c18,0 34,15 34,34 0,19 -16,35 -34,35 -19,0 -35,-16 -35,-35 0,-19 16,-34 35,-34zm-166 -54c28,0 51,22 51,50 0,28 -23,51 -51,51 -28,0 -50,-23 -50,-51 0,-28 22,-50 50,-50zm-190 -41c40,0 73,33 73,73 0,40 -33,73 -73,73 -40,0 -73,-33 -73,-73 0,-40 33,-73 73,-73zm-245 -6c52,0 95,42 95,94 0,52 -43,94 -95,94 -52,0 -94,-42 -94,-94 0,-52 42,-94 94,-94zm-292 31c69,0 125,56 125,126 0,69 -56,126 -125,126 -70,0 -126,-57 -126,-126 0,-70 56,-126 126,-126zm-296 116c80,0 145,65 145,145 0,81 -65,146 -145,146 -81,0 -146,-65 -146,-146 0,-80 65,-145 146,-145z"/>
  <g id="_2537611399760">
   <path class="fil37" d="M22497 19282l-1 0c-6,0 -11,1 -17,1l0 0c-6,0 -12,0 -18,0l0 0c-6,0 -12,0 -18,0l0 0c-6,0 -11,-1 -17,-1l-1 0c-381,-15 -807,-269 -810,-636 -1,-10 -1,-20 0,-30 -27,-211 548,-203 817,-203l1 0 12 0 4 0 8 0 8 0 8 0 4 0 13 0 0 0c269,0 844,-8 817,203 1,10 1,20 0,30 -3,367 -429,621 -810,636z"/>
   <path class="fil38" d="M21766 18734l9 0 1372 0 10 0c27,0 48,-17 58,-42 7,-8 10,-15 6,-20 1,-1 1,-2 1,-4 25,-190 -756,-178 -756,-178l-5 2 -5 -2c0,0 -781,-12 -756,178 0,2 0,3 1,4 -3,5 -1,12 6,20 10,25 31,42 59,42z"/>
   <path class="fil39" style="mask:url(#id40)" d="M22461 18985c219,0 397,51 397,114 0,63 -178,115 -397,115 -219,0 -397,-52 -397,-115 0,-63 178,-114 397,-114z"/>
   <g>
    <path class="fil37" d="M22310 17933c6,7 9,15 9,25 0,21 -26,55 -37,38 -175,-285 -426,-287 -604,0 -11,17 -37,-17 -37,-38 0,-5 1,-10 3,-14l0 0c0,0 141,-378 340,-374 198,4 326,363 326,363l0 0z"/>
    <path class="fil37" d="M22632 17933c-6,7 -9,15 -9,25 0,21 26,55 37,38 175,-285 426,-287 604,0 11,17 37,-17 37,-38 0,-5 -1,-10 -3,-14l0 0c0,0 -141,-378 -340,-374 -198,4 -326,363 -326,363l0 0z"/>
   </g>
  </g>
  <g id="_2537611398352">
   <path class="fil37" d="M27378 19448l-1 1c-6,0 -11,0 -17,0l0 0c-6,0 -12,0 -18,0l0 0c-6,0 -12,0 -18,0l0 0c-6,0 -11,0 -17,0l-1 -1c-381,-15 -807,-269 -810,-636 -1,-10 -1,-20 0,-29 -27,-212 548,-204 817,-203l1 0 12 0 4 0 8 0 8 0 8 0 4 0 13 0 0 0c269,-1 844,-9 817,203 1,9 1,19 0,29 -3,367 -429,621 -810,636z"/>
   <path class="fil38" d="M26647 18900l9 0 1372 0 10 0c27,0 48,-17 58,-41 7,-8 10,-16 6,-20 1,-2 1,-3 1,-4 25,-191 -756,-179 -756,-179l-5 2 -5 -2c0,0 -781,-12 -756,179 0,1 0,2 1,4 -3,4 -1,12 6,20 10,24 31,41 59,41z"/>
   <path class="fil39" style="mask:url(#id42)" d="M27342 19151c219,0 397,51 397,114 0,64 -178,115 -397,115 -219,0 -397,-51 -397,-115 0,-63 178,-114 397,-114z"/>
   <g>
    <path class="fil37" d="M27191 18099c6,7 9,16 9,25 0,21 -26,56 -37,38 -175,-284 -426,-286 -604,0 -11,17 -37,-17 -37,-38 0,-5 1,-9 3,-14l0 0c0,0 141,-377 340,-374 198,4 326,363 326,363l0 0z"/>
    <path class="fil37" d="M27513 18099c-6,7 -9,16 -9,25 0,21 26,56 37,38 175,-284 426,-286 604,0 11,17 37,-17 37,-38 0,-5 -1,-9 -3,-14l0 0c0,0 -141,-377 -340,-374 -198,4 -326,363 -326,363l0 0z"/>
   </g>
  </g>
 </g>
</svg>
