<?xml version="1.0" encoding="UTF-8"?>
<!DOCTYPE svg PUBLIC "-//W3C//DTD SVG 1.1//EN" "http://www.w3.org/Graphics/SVG/1.1/DTD/svg11.dtd">
<!-- Creator: CorelDRAW X8 -->
<svg xmlns="http://www.w3.org/2000/svg" xml:space="preserve" width="31.564mm" height="35.6728mm" version="1.1" style="shape-rendering:geometricPrecision; text-rendering:geometricPrecision; image-rendering:optimizeQuality; fill-rule:evenodd; clip-rule:evenodd"
viewBox="0 0 1258 1422"
 xmlns:xlink="http://www.w3.org/1999/xlink">
 <defs>
  <style type="text/css">
   <![CDATA[
    .fil4 {fill:#2A1304}
    .fil0 {fill:#2C3D51}
    .fil5 {fill:#6F4104}
    .fil1 {fill:#FEC12B}
    .fil3 {fill:#00CCFF;fill-rule:nonzero}
    .fil2 {fill:white;fill-opacity:0.301961}
   ]]>
  </style>
 </defs>
 <g id="Layer_x0020_1">
  <metadata id="CorelCorpID_0Corel-Layer"/>
  <g id="_2537538355008">
   <path class="fil0" d="M0 217l0 29c1,2 2,4 3,5 2,7 5,13 8,19 3,4 6,8 11,12l0 0 0 0c11,10 25,16 41,17l1 0 0 0 0 0c34,1 66,-24 67,-63 1,-38 -25,-61 -54,-66l-2 0 0 0 0 -1 -2 0 -1 0c0,0 -1,0 -2,0l0 0 -2 0c-18,-1 -36,5 -49,20 -5,5 -10,11 -13,18l-4 8c-1,-1 -1,1 -2,2zm134 321c-49,0 -89,40 -89,90 0,49 40,89 89,89 1,0 2,0 3,0l0 254c0,97 79,175 175,175l418 0c1,1 1,2 2,3 151,180 109,273 109,273 193,-216 162,-260 204,-283 9,-2 18,-6 26,-10l0 0 0 0c59,-28 101,-88 101,-158l0 -254c48,-2 86,-41 86,-89 0,-49 -38,-88 -86,-90l0 -254c0,-96 -79,-175 -175,-175l-685 0c-96,0 -175,79 -175,175l0 254c-1,0 -2,0 -3,0zm-36 -434c4,23 20,36 38,40 5,2 10,3 16,3 10,0 20,-4 29,-9 18,-10 31,-30 24,-59 -5,-21 -18,-33 -34,-38 -6,-2 -12,-3 -19,-3 -13,0 -24,4 -34,11 -15,11 -25,30 -20,55zm185 -104c25,0 44,19 44,44 0,24 -19,43 -44,43 -24,0 -43,-19 -43,-43 0,-25 19,-44 43,-44zm439 33c6,0 11,5 11,11 0,5 -5,10 -11,10 -5,0 -10,-5 -10,-10 0,-6 5,-11 10,-11zm-55 -4c8,0 14,6 14,15 0,8 -6,14 -14,14 -8,0 -15,-6 -15,-14 0,-9 7,-15 15,-15zm-74 -7c12,0 21,10 21,22 0,11 -9,21 -21,21 -12,0 -21,-10 -21,-21 0,-12 9,-22 21,-22zm-81 -4c14,0 26,11 26,26 0,14 -12,25 -26,25 -14,0 -26,-11 -26,-25 0,-15 12,-26 26,-26zm-102 -8c19,0 34,15 34,34 0,18 -15,33 -34,33 -19,0 -34,-15 -34,-33 0,-19 15,-34 34,-34z"/>
   <rect class="fil1" x="203" y="175" width="904" height="906" rx="153" ry="29"/>
   <path class="fil2" d="M355 175l599 0c84,0 152,68 152,152l0 201c-123,100 -280,160 -451,160 -172,0 -329,-60 -452,-160l0 -201c0,-84 68,-152 152,-152z"/>
   <path class="fil3" d="M300 427c23,87 90,130 90,174 0,43 -22,87 -90,87 -68,0 -90,-44 -90,-87 0,-44 68,-87 90,-174z"/>
   <g>
    <g>
     <path class="fil4" d="M537 400c12,0 23,9 21,21 -15,93 -183,71 -191,0 -1,-12 9,-21 21,-21 6,0 13,3 17,9 26,33 88,52 112,6 3,-9 11,-15 20,-15z"/>
     <path class="fil4" d="M921 400c12,0 23,9 21,21 -15,93 -183,71 -191,0 -1,-12 9,-21 21,-21 6,0 13,3 17,9 26,33 88,52 112,6 3,-9 11,-15 20,-15z"/>
    </g>
    <rect class="fil5" x="401" y="797" width="506.534" height="58.4758" rx="138" ry="29"/>
   </g>
  </g>
 </g>
</svg>
