<?xml version="1.0" encoding="UTF-8"?>
<!DOCTYPE svg PUBLIC "-//W3C//DTD SVG 1.1//EN" "http://www.w3.org/Graphics/SVG/1.1/DTD/svg11.dtd">
<!-- Creator: CorelDRAW X8 -->
<svg xmlns="http://www.w3.org/2000/svg" xml:space="preserve" width="31.564mm" height="35.6728mm" version="1.1" style="shape-rendering:geometricPrecision; text-rendering:geometricPrecision; image-rendering:optimizeQuality; fill-rule:evenodd; clip-rule:evenodd"
viewBox="0 0 1288 1455"
 xmlns:xlink="http://www.w3.org/1999/xlink">
 <defs>
  <style type="text/css">
   <![CDATA[
    .str0 {stroke:#291203;stroke-width:8.15966}
    .fil3 {fill:#291203}
    .fil0 {fill:#2C3D51}
    .fil6 {fill:#E33443}
    .fil1 {fill:#FEC12B}
    .fil4 {fill:white}
    .fil2 {fill:white;fill-opacity:0.301961}
    .fil5 {fill:url(#id0)}
   ]]>
  </style>
  <linearGradient id="id0" gradientUnits="userSpaceOnUse" x1="664.139" y1="887.33" x2="675.893" y2="1016.61">
   <stop offset="0" style="stop-opacity:1; stop-color:#291203"/>
   <stop offset="0.788235" style="stop-opacity:1; stop-color:#371B09"/>
   <stop offset="1" style="stop-opacity:1; stop-color:#452510"/>
  </linearGradient>
 </defs>
 <g id="Layer_x0020_1">
  <metadata id="CorelCorpID_0Corel-Layer"/>
  <g id="_2537542483712">
   <path class="fil0" d="M0 222l0 30c1,2 2,3 3,5 2,7 5,14 9,19 2,4 5,8 10,13l0 0 0 0c12,10 27,16 43,17l0 0 0 0 1 0c34,1 67,-25 68,-65 1,-38 -25,-62 -55,-67l-2 0 0 0 -1 -1 -2 0 0 0c-1,0 -1,0 -2,0l-1 0 -1 0c-19,-1 -37,5 -51,20 -5,5 -9,12 -13,19l-4 8c-1,-1 -1,1 -2,2zm138 329c-51,0 -92,41 -92,92 0,50 41,91 92,91 1,0 2,0 3,0l0 261c0,98 80,178 179,178l427 0c1,1 2,2 2,3 155,184 112,279 112,279 197,-220 166,-265 209,-289 9,-2 18,-6 27,-10l0 0 0 0c60,-29 102,-90 102,-161l0 -261c49,-2 89,-42 89,-91 0,-50 -40,-90 -89,-92l0 -260c0,-99 -80,-179 -179,-179l-700 0c-99,0 -179,80 -179,179l0 260c-1,0 -2,0 -3,0zm-38 -444c5,23 20,36 39,41 5,1 11,2 16,2 11,0 21,-3 30,-9 19,-10 32,-31 25,-61 -5,-20 -19,-33 -35,-38 -6,-2 -13,-4 -20,-4 -13,0 -24,5 -34,12 -16,11 -25,31 -21,57zm190 -107c25,0 45,20 45,45 0,24 -20,44 -45,44 -24,0 -44,-20 -44,-44 0,-25 20,-45 44,-45zm449 34c6,0 11,5 11,11 0,5 -5,10 -11,10 -6,0 -10,-5 -10,-10 0,-6 4,-11 10,-11zm-57 -4c9,0 16,6 16,15 0,8 -7,15 -16,15 -8,0 -15,-7 -15,-15 0,-9 7,-15 15,-15zm-75 -7c12,0 22,10 22,22 0,12 -10,21 -22,21 -12,0 -21,-9 -21,-21 0,-12 9,-22 21,-22zm-83 -5c15,0 27,12 27,27 0,14 -12,26 -27,26 -14,0 -26,-12 -26,-26 0,-15 12,-27 26,-27zm-104 -8c19,0 34,15 34,35 0,19 -15,34 -34,34 -20,0 -35,-15 -35,-34 0,-20 15,-35 35,-35z"/>
   <rect class="fil1" x="207" y="179" width="925" height="928" rx="156" ry="29"/>
   <path class="fil2" d="M364 179l612 0c86,0 157,70 157,156l0 206c-127,102 -288,163 -463,163 -175,0 -336,-61 -463,-163l0 -206c0,-86 71,-156 157,-156z"/>
   <g>
    <circle class="fil3" cx="474" cy="483" r="85"/>
    <circle class="fil4" cx="502" cy="446" r="26"/>
    <path class="fil3 str0" d="M445 314c28,0 54,9 75,25 -15,-5 -31,-8 -47,-8 -77,0 -138,62 -138,139 0,5 0,10 0,15 -7,-15 -11,-32 -11,-50 0,-67 55,-121 121,-121z"/>
    <path class="fil3 str0" d="M867 443c49,0 92,30 113,73 9,20 -21,13 -28,1 -19,-29 -50,-48 -85,-48 -29,0 -55,13 -74,33 -11,13 -44,17 -27,-7 23,-32 60,-52 101,-52z"/>
    <path class="fil3" d="M1015 499c-13,-83 -131,-106 -131,-106 0,0 145,-25 131,106z"/>
   </g>
   <g>
    <path class="fil5" d="M883 890c-2,69 -96,124 -213,124 -117,0 -211,-55 -213,-124 56,16 131,26 213,26 82,0 157,-10 213,-26z"/>
    <ellipse class="fil6" cx="674" cy="979" rx="121" ry="17"/>
   </g>
  </g>
 </g>
</svg>
