<?xml version="1.0" encoding="UTF-8"?>
<!DOCTYPE svg PUBLIC "-//W3C//DTD SVG 1.1//EN" "http://www.w3.org/Graphics/SVG/1.1/DTD/svg11.dtd">
<!-- Creator: CorelDRAW X8 -->
<svg xmlns="http://www.w3.org/2000/svg" xml:space="preserve" width="29.3356mm" height="33.8834mm" version="1.1" style="shape-rendering:geometricPrecision; text-rendering:geometricPrecision; image-rendering:optimizeQuality; fill-rule:evenodd; clip-rule:evenodd"
viewBox="0 0 493 569"
 xmlns:xlink="http://www.w3.org/1999/xlink">
 <defs>
  <style type="text/css">
   <![CDATA[
    .fil3 {fill:black}
    .fil7 {fill:black}
    .fil0 {fill:#2C3D51}
    .fil4 {fill:#424A56}
    .fil5 {fill:#60A33D}
    .fil8 {fill:#642A8B}
    .fil1 {fill:#68328A}
    .fil2 {fill:white;fill-opacity:0.301961}
    .fil6 {fill:white;fill-opacity:0.529412}
   ]]>
  </style>
 </defs>
 <g id="Layer_x0020_1">
  <metadata id="CorelCorpID_0Corel-Layer"/>
  <g id="_2537608291184">
   <path class="fil0" d="M26 301c-15,-5 -26,-20 -26,-37 0,-18 13,-34 30,-38 23,-98 111,-171 216,-171 105,0 192,73 215,171 18,3 32,19 32,38 0,18 -12,33 -28,38 -4,40 -20,77 -43,108l0 0c0,0 22,6 -2,159 0,0 -12,-62 -112,-81l0 0c-20,6 -41,9 -62,9 -114,0 -207,-85 -220,-196z"/>
   <circle class="fil1" cx="246" cy="276" r="197"/>
   <path class="fil2" d="M246 79c84,0 156,54 184,128 -49,56 -113,89 -184,89 -71,0 -136,-33 -185,-89 28,-74 100,-128 185,-128z"/>
   <path class="fil0" d="M60 63c16,0 29,12 29,28 0,16 -13,29 -29,29 -16,0 -29,-13 -29,-29 0,-16 13,-28 29,-28zm276 -36c2,0 4,2 4,4 0,2 -2,4 -4,4 -2,0 -4,-2 -4,-4 0,-2 2,-4 4,-4zm-22 -10c3,0 5,3 5,6 0,3 -2,6 -5,6 -4,0 -6,-3 -6,-6 0,-3 2,-6 6,-6zm-28 -9c4,0 8,4 8,8 0,5 -4,9 -8,9 -5,0 -9,-4 -9,-9 0,-4 4,-8 9,-8zm-32 -7c7,0 12,6 12,12 0,7 -5,13 -12,13 -7,0 -12,-6 -12,-13 0,-6 5,-12 12,-12zm-41 -1c8,0 15,7 15,16 0,9 -7,16 -15,16 -9,0 -16,-7 -16,-16 0,-9 7,-16 16,-16zm-50 5c12,0 22,10 22,21 0,12 -10,22 -22,22 -11,0 -21,-10 -21,-22 0,-11 10,-21 21,-21zm-49 20c13,0 24,11 24,24 0,14 -11,25 -24,25 -14,0 -25,-11 -25,-25 0,-13 11,-24 25,-24z"/>
   <g>
    <path class="fil3" d="M396 56c0,0 -30,34 -48,37 -18,3 -18,3 -18,3 0,0 -12,1 -8,18 3,17 14,29 14,29 0,0 12,17 26,16 13,-1 26,-21 26,-21 0,0 33,-39 8,-82z"/>
    <path class="fil4" d="M391 72c-7,56 -48,53 -48,53 36,47 64,-35 48,-53z"/>
    <path class="fil3" d="M95 56c0,0 31,34 48,37 18,3 18,3 18,3 0,0 13,1 9,18 -4,17 -14,29 -14,29 0,0 -13,17 -26,16 -13,-1 -27,-21 -27,-21 0,0 -33,-39 -8,-82z"/>
    <path class="fil4" d="M101 72c6,56 48,53 48,53 -36,47 -65,-35 -48,-53z"/>
    <path class="fil3" d="M223 248c-9,12 -24,20 -41,20 -29,0 -53,-24 -53,-54 0,-6 1,-13 3,-18 54,35 103,33 91,52z"/>
    <path class="fil5" d="M154 209c19,9 35,14 48,19 -1,14 -13,25 -27,25 -15,0 -27,-12 -27,-27 0,-7 2,-13 6,-17z"/>
    <path class="fil6" d="M160 211c11,5 21,9 30,13 -1,14 -7,24 -16,24 -8,0 -15,-12 -15,-27 0,-3 0,-7 1,-10z"/>
    <path class="fil7" d="M169 216c4,1 7,2 10,4 0,1 0,2 0,3 0,12 -2,21 -5,21 -3,0 -5,-9 -5,-21 0,-2 0,-5 0,-7z"/>
    <path class="fil3" d="M270 248c10,12 25,20 42,20 29,0 53,-24 53,-54 0,-6 -1,-13 -4,-18 -53,35 -103,33 -91,52z"/>
    <path class="fil5" d="M339 209c-18,9 -35,14 -47,19 1,14 12,25 27,25 15,0 27,-12 27,-27 0,-7 -3,-13 -7,-17z"/>
    <path class="fil6" d="M334 211c-11,5 -22,9 -31,13 1,14 8,24 16,24 9,0 16,-12 16,-27 0,-3 -1,-7 -1,-10z"/>
    <path class="fil7" d="M324 216c-3,1 -7,2 -10,4 0,1 0,2 0,3 0,12 3,21 5,21 3,0 5,-9 5,-21 0,-2 0,-5 0,-7z"/>
    <path class="fil8" d="M388 159c-9,18 -28,21 -46,14 -28,20 -60,48 -96,47 -37,1 -68,-27 -96,-47 -18,7 -38,4 -47,-14 0,0 1,-11 3,-18 9,41 63,22 75,-35 10,25 -1,47 -18,59 14,10 51,33 71,33 5,0 9,1 12,3 2,-2 6,-3 11,-3 21,0 57,-23 72,-33 -17,-12 -28,-34 -19,-59 12,57 66,76 76,35 2,7 2,18 2,18z"/>
   </g>
   <path class="fil3" d="M142 362c5,0 9,2 10,6 0,0 45,31 100,31 50,0 84,-29 89,-34 0,0 1,0 1,-1l0 0c2,-1 4,-2 7,-2 6,0 11,5 11,11 0,2 -1,5 -2,7l0 0c0,0 -31,56 -112,56 -80,0 -112,-56 -112,-56l0 0c-2,-2 -3,-5 -3,-7 0,-6 5,-11 11,-11z"/>
  </g>
 </g>
</svg>
