<?xml version="1.0" encoding="UTF-8"?>
<!DOCTYPE svg PUBLIC "-//W3C//DTD SVG 1.1//EN" "http://www.w3.org/Graphics/SVG/1.1/DTD/svg11.dtd">
<!-- Creator: CorelDRAW X8 -->
<svg xmlns="http://www.w3.org/2000/svg" xml:space="preserve" width="31.564mm" height="35.6728mm" version="1.1" style="shape-rendering:geometricPrecision; text-rendering:geometricPrecision; image-rendering:optimizeQuality; fill-rule:evenodd; clip-rule:evenodd"
viewBox="0 0 361 408"
 xmlns:xlink="http://www.w3.org/1999/xlink">
 <defs>
  <style type="text/css">
   <![CDATA[
    .fil3 {fill:black}
    .fil7 {fill:black}
    .fil0 {fill:#2C3D51}
    .fil4 {fill:#424A56}
    .fil5 {fill:#60A33D}
    .fil8 {fill:#642A8B}
    .fil1 {fill:#68328A}
    .fil2 {fill:white;fill-opacity:0.301961}
    .fil6 {fill:white;fill-opacity:0.529412}
   ]]>
  </style>
 </defs>
 <g id="Layer_x0020_1">
  <metadata id="CorelCorpID_0Corel-Layer"/>
  <g id="_2537608290128">
   <path class="fil0" d="M0 62l0 9c0,0 1,1 1,1 0,2 1,4 2,6 1,1 2,2 3,3l0 0 0 0c3,3 8,5 12,5l0 0 0 0 0 0c10,0 19,-7 20,-18 0,-11 -8,-18 -16,-19l0 0 0 0 -1 0 0 0 0 0c0,0 -1,0 -1,0l0 0 0 -1c-6,0 -11,2 -15,6 -1,2 -2,3 -3,5l-2 3c0,-1 0,0 0,0zm39 93c-15,0 -26,11 -26,25 0,14 11,26 26,26 0,0 0,0 0,0l0 73c0,28 23,50 51,50l120 0c0,0 0,1 0,1 44,52 32,78 32,78 55,-62 46,-74 58,-81 3,-1 5,-1 8,-3l0 0 0 0c17,-8 28,-25 28,-45l0 -73c14,-1 25,-12 25,-26 0,-14 -11,-25 -25,-25l0 -73c0,-28 -22,-51 -50,-51l-196 0c-28,0 -51,23 -51,51l0 73c0,0 0,0 0,0zm-11 -125c1,6 6,10 11,11 1,1 3,1 5,1 3,0 5,-1 8,-2 5,-3 9,-9 7,-17 -2,-6 -5,-10 -10,-11 -2,-1 -3,-1 -5,-1 -4,0 -7,1 -10,3 -4,3 -7,9 -6,16zm53 -30c7,0 13,6 13,13 0,6 -6,12 -13,12 -6,0 -12,-6 -12,-12 0,-7 6,-13 12,-13zm126 10c2,0 3,1 3,3 0,1 -1,2 -3,2 -1,0 -3,-1 -3,-2 0,-2 2,-3 3,-3zm-16 -2c3,0 5,2 5,5 0,2 -2,4 -5,4 -2,0 -4,-2 -4,-4 0,-3 2,-5 4,-5zm-21 -2c4,0 6,3 6,7 0,3 -2,6 -6,6 -3,0 -6,-3 -6,-6 0,-4 3,-7 6,-7zm-23 -1c4,0 8,3 8,8 0,4 -4,7 -8,7 -4,0 -7,-3 -7,-7 0,-5 3,-8 7,-8zm-29 -2c5,0 9,4 9,10 0,5 -4,9 -9,9 -6,0 -10,-4 -10,-9 0,-6 4,-10 10,-10z"/>
   <rect class="fil1" x="58" y="50" width="260" height="260" rx="44" ry="8"/>
   <path class="fil2" d="M102 50l172 0c24,0 44,20 44,44l0 58c-36,28 -81,45 -130,45 -49,0 -94,-17 -130,-45l0 -58c0,-24 20,-44 44,-44z"/>
   <path class="fil3" d="M317 9c0,0 -26,29 -42,32 -15,2 -15,2 -15,2 0,0 -11,1 -7,15 3,15 12,26 12,26 0,0 11,14 22,13 11,0 23,-17 23,-17 0,0 28,-34 7,-71z"/>
   <path class="fil4" d="M312 23c-5,48 -41,45 -41,45 31,41 55,-30 41,-45z"/>
   <path class="fil3" d="M58 9c0,0 26,29 41,32 16,2 16,2 16,2 0,0 10,1 7,15 -3,15 -12,26 -12,26 0,0 -11,14 -22,13 -12,0 -23,-17 -23,-17 0,0 -29,-34 -7,-71z"/>
   <path class="fil4" d="M62 23c6,48 42,45 42,45 -31,41 -56,-30 -42,-45z"/>
   <path class="fil3" d="M168 163c-8,11 -21,18 -36,18 -25,0 -45,-21 -45,-46 0,-6 1,-11 3,-16 46,30 89,29 78,44z"/>
   <path class="fil5" d="M109 130c15,8 30,13 41,16 -1,13 -11,22 -24,22 -13,0 -23,-10 -23,-23 0,-6 2,-11 6,-15z"/>
   <path class="fil6" d="M113 132c10,5 19,8 26,11 0,12 -6,21 -13,21 -8,0 -14,-10 -14,-23 0,-3 1,-6 1,-9z"/>
   <path class="fil7" d="M122 136c3,1 5,2 8,3 0,1 0,2 0,3 0,10 -2,18 -4,18 -3,0 -5,-8 -5,-18 0,-2 0,-4 1,-6z"/>
   <path class="fil3" d="M208 163c9,11 22,18 36,18 25,0 46,-21 46,-46 0,-6 -1,-11 -3,-16 -46,30 -89,29 -79,44z"/>
   <path class="fil5" d="M268 130c-16,8 -30,13 -41,16 1,13 11,22 23,22 13,0 23,-10 23,-23 0,-6 -2,-11 -5,-15z"/>
   <path class="fil6" d="M263 132c-9,5 -18,8 -26,11 1,12 6,21 14,21 7,0 13,-10 13,-23 0,-3 0,-6 -1,-9z"/>
   <path class="fil7" d="M255 136c-3,1 -6,2 -9,3 0,1 0,2 0,3 0,10 2,18 5,18 2,0 4,-8 4,-18 0,-2 0,-4 0,-6z"/>
   <path class="fil8" d="M310 97c-8,16 -25,18 -40,12 -24,18 -51,42 -83,41 -31,1 -58,-23 -82,-41 -16,6 -33,4 -40,-12 0,0 0,-9 2,-15 8,35 54,19 65,-30 8,21 -1,40 -16,51 12,8 44,28 61,28 5,0 8,1 10,2 3,-1 6,-2 10,-2 18,0 49,-20 62,-28 -15,-11 -24,-30 -16,-51 10,49 57,65 65,30 2,6 2,15 2,15z"/>
   <path class="fil3" d="M117 234c4,0 6,1 7,4 0,0 31,21 68,21 34,0 57,-20 61,-23 0,0 0,0 0,-1l0 0c2,-1 4,-1 5,-1 5,0 8,3 8,7 0,2 -1,4 -2,5l0 0c0,0 -21,38 -76,38 -55,0 -76,-38 -76,-38l0 0c-1,-1 -2,-3 -2,-5 0,-4 3,-7 7,-7z"/>
  </g>
 </g>
</svg>
