<?xml version="1.0" encoding="UTF-8"?>
<!DOCTYPE svg PUBLIC "-//W3C//DTD SVG 1.1//EN" "http://www.w3.org/Graphics/SVG/1.1/DTD/svg11.dtd">
<!-- Creator: CorelDRAW X8 -->
<svg xmlns="http://www.w3.org/2000/svg" xml:space="preserve" width="29.3356mm" height="33.8834mm" version="1.1" style="shape-rendering:geometricPrecision; text-rendering:geometricPrecision; image-rendering:optimizeQuality; fill-rule:evenodd; clip-rule:evenodd"
viewBox="0 0 486 562"
 xmlns:xlink="http://www.w3.org/1999/xlink">
 <defs>
  <style type="text/css">
   <![CDATA[
    .str0 {stroke:black;stroke-width:3.31567}
    .fil4 {fill:#00CCFF}
    .fil3 {fill:#181B32}
    .fil0 {fill:#2C3D51}
    .fil6 {fill:#5F1516}
    .fil7 {fill:#D83644}
    .fil1 {fill:#FFBD2D}
    .fil9 {fill:white}
    .fil5 {fill:white}
    .fil2 {fill:white;fill-opacity:0.301961}
    .fil8 {fill:white}
   ]]>
  </style>
      <mask id="id0">
  <radialGradient id="id1" gradientUnits="userSpaceOnUse" cx="340.773" cy="157.88" r="115.284" fx="340.773" fy="157.88">
   <stop offset="0" style="stop-opacity:0.54902; stop-color:white"/>
   <stop offset="1" style="stop-opacity:0; stop-color:white"/>
  </radialGradient>
       <rect style="fill:url(#id1)" x="382" y="238" width="41.4442" height="54.3952"/>
      </mask>
      <mask id="id2">
  <radialGradient id="id3" gradientUnits="userSpaceOnUse" cx="20.6384" cy="157.88" r="115.284" fx="20.6384" fy="157.88">
   <stop offset="0" style="stop-opacity:0.54902; stop-color:white"/>
   <stop offset="1" style="stop-opacity:0; stop-color:white"/>
  </radialGradient>
       <rect style="fill:url(#id3)" x="62" y="238" width="41.4442" height="54.3952"/>
      </mask>
    <mask id="id4">
  <radialGradient id="id5" gradientUnits="userSpaceOnUse" cx="212.922" cy="422.559" r="0" fx="212.922" fy="422.559">
   <stop offset="0" style="stop-opacity:0.54902; stop-color:white"/>
   <stop offset="1" style="stop-opacity:0; stop-color:white"/>
  </radialGradient>
     <rect style="fill:url(#id5)" x="211" y="421" width="62.1671" height="18.6324"/>
    </mask>
 </defs>
 <g id="Layer_x0020_1">
  <metadata id="CorelCorpID_0Corel-Layer"/>
  <path class="fil0" d="M26 297c-15,-5 -26,-19 -26,-36 0,-19 13,-34 30,-38 22,-97 109,-169 212,-169 104,0 190,72 213,168 18,4 31,20 31,39 0,17 -11,32 -27,37 -5,40 -20,76 -43,106l0 0c0,0 22,6 -1,158 0,0 -13,-61 -111,-80l0 0c-20,5 -40,8 -62,8 -112,0 -204,-84 -216,-193z"/>
  <circle class="fil1" cx="242" cy="272" r="194"/>
  <path class="fil2" d="M242 78c84,0 155,53 182,127 -48,54 -112,87 -182,87 -70,0 -133,-33 -182,-87 28,-74 99,-127 182,-127z"/>
  <path class="fil0" d="M59 62c16,0 28,12 28,28 0,16 -12,28 -28,28 -16,0 -28,-12 -28,-28 0,-16 12,-28 28,-28zm272 -35c2,0 4,2 4,4 0,2 -2,4 -4,4 -2,0 -4,-2 -4,-4 0,-2 2,-4 4,-4zm-22 -10c3,0 6,2 6,5 0,4 -3,6 -6,6 -3,0 -5,-2 -5,-6 0,-3 2,-5 5,-5zm-27 -9c4,0 8,4 8,8 0,5 -4,9 -8,9 -5,0 -9,-4 -9,-9 0,-4 4,-8 9,-8zm-32 -7c7,0 12,5 12,12 0,7 -5,12 -12,12 -6,0 -12,-5 -12,-12 0,-7 6,-12 12,-12zm-40 -1c8,0 15,7 15,16 0,8 -7,15 -15,15 -9,0 -16,-7 -16,-15 0,-9 7,-16 16,-16zm-49 5c12,0 21,10 21,21 0,12 -9,21 -21,21 -11,0 -21,-9 -21,-21 0,-11 10,-21 21,-21zm-49 19c13,0 24,11 24,25 0,13 -11,24 -24,24 -13,0 -24,-11 -24,-24 0,-14 11,-25 24,-25z"/>
  <g id="_2537602961552">
   <g>
    <path class="fil3" d="M371 199c2,1 4,3 4,6 0,4 -3,7 -7,7 -2,0 -3,-1 -5,-2 -9,-6 -35,-24 -38,-24 -3,-1 -18,9 -28,15 -2,2 -4,3 -7,4l0 0 0 0c-1,1 -3,1 -4,1 -9,0 -16,-7 -16,-16 0,-6 3,-11 8,-14l0 0c0,0 25,-18 42,-16 21,2 37,24 51,39z"/>
    <path class="fil3" d="M113 199c-2,1 -3,3 -3,6 0,4 3,7 7,7 2,0 3,-1 4,-2 10,-6 35,-24 38,-24 3,-1 19,9 29,15 2,2 4,3 7,4l0 0 0 0c1,1 3,1 4,1 9,0 16,-7 16,-16 0,-6 -4,-11 -9,-14l0 0c0,0 -24,-18 -41,-16 -21,2 -37,24 -52,39z"/>
   </g>
   <g>
    <g>
     <path class="fil4" d="M372 222c202,70 -30,219 0,0z"/>
     <path class="fil5" style="mask:url(#id0)" d="M385 239c89,31 -14,98 0,0z"/>
    </g>
    <g>
     <path class="fil4" d="M113 222c-202,70 30,219 0,0z"/>
     <path class="fil5" style="mask:url(#id2)" d="M100 239c-89,31 14,98 0,0z"/>
    </g>
   </g>
  </g>
  <g id="_2537602969648">
   <path class="fil6" d="M242 302c42,0 74,5 89,12 7,3 11,6 11,10 0,2 0,4 -1,6 4,53 -23,91 -56,109 -12,8 -26,13 -43,13 -16,0 -30,-5 -42,-13 -33,-18 -60,-56 -57,-109 0,-2 0,-4 0,-6 0,-4 4,-7 10,-10 16,-7 48,-12 89,-12l0 0z"/>
   <path class="fil7" d="M308 422c-7,7 -15,13 -23,17 -12,8 -26,13 -43,13 -16,0 -30,-5 -42,-13 -8,-4 -16,-10 -23,-17 14,-13 38,-23 65,-23 28,0 52,10 66,23z"/>
   <path class="fil8" d="M242 302c42,0 74,5 89,12 2,1 3,1 4,2 0,6 0,13 -1,16 -1,19 -27,26 -35,16 -6,-10 -107,-10 -114,0 -7,10 -33,3 -35,-16 0,-3 0,-10 0,-16 1,-1 2,-1 3,-2 22,-10 65,-12 89,-12z"/>
   <path class="fil9 str0" style="mask:url(#id4)" d="M242 423c17,0 30,3 30,7 0,4 -13,8 -30,8 -16,0 -29,-4 -29,-8 0,-4 13,-7 29,-7z"/>
  </g>
 </g>
</svg>
