<?xml version="1.0" encoding="UTF-8"?>
<!DOCTYPE svg PUBLIC "-//W3C//DTD SVG 1.1//EN" "http://www.w3.org/Graphics/SVG/1.1/DTD/svg11.dtd">
<!-- Creator: CorelDRAW X8 -->
<svg xmlns="http://www.w3.org/2000/svg" xml:space="preserve" width="31.4547mm" height="35.6728mm" version="1.1" style="shape-rendering:geometricPrecision; text-rendering:geometricPrecision; image-rendering:optimizeQuality; fill-rule:evenodd; clip-rule:evenodd"
viewBox="0 0 356 404"
 xmlns:xlink="http://www.w3.org/1999/xlink">
 <defs>
  <style type="text/css">
   <![CDATA[
    .str0 {stroke:black;stroke-width:2.26235}
    .fil8 {fill:#00CCFF}
    .fil3 {fill:#181B32}
    .fil0 {fill:#2C3D51}
    .fil4 {fill:#5F1516}
    .fil5 {fill:#D83644}
    .fil1 {fill:#FEC12B}
    .fil7 {fill:white}
    .fil9 {fill:white}
    .fil2 {fill:white;fill-opacity:0.301961}
    .fil6 {fill:white}
   ]]>
  </style>
    <mask id="id0">
  <radialGradient id="id1" gradientUnits="userSpaceOnUse" cx="165.693" cy="282.605" r="0" fx="165.693" fy="282.605">
   <stop offset="0" style="stop-opacity:0.54902; stop-color:white"/>
   <stop offset="1" style="stop-opacity:0; stop-color:white"/>
  </radialGradient>
     <rect style="fill:url(#id1)" x="165" y="281" width="42.418" height="12.7133"/>
    </mask>
      <mask id="id2">
  <radialGradient id="id3" gradientUnits="userSpaceOnUse" cx="252.928" cy="97.4848" r="78.6609" fx="252.928" fy="97.4848">
   <stop offset="0" style="stop-opacity:0.54902; stop-color:white"/>
   <stop offset="1" style="stop-opacity:0; stop-color:white"/>
  </radialGradient>
       <rect style="fill:url(#id3)" x="281" y="152" width="28.2783" height="37.115"/>
      </mask>
      <mask id="id4">
  <radialGradient id="id5" gradientUnits="userSpaceOnUse" cx="34.493" cy="97.4848" r="78.6609" fx="34.493" fy="97.4848">
   <stop offset="0" style="stop-opacity:0.54902; stop-color:white"/>
   <stop offset="1" style="stop-opacity:0; stop-color:white"/>
  </radialGradient>
       <rect style="fill:url(#id5)" x="62" y="152" width="28.2783" height="37.115"/>
      </mask>
 </defs>
 <g id="Layer_x0020_1">
  <metadata id="CorelCorpID_0Corel-Layer"/>
  <g id="_2537602953040">
   <path class="fil0" d="M0 62l0 8c0,0 1,1 1,1 0,2 1,4 2,6 1,1 2,2 3,3l0 0 0 0c3,3 7,5 12,5l0 0 0 0 0 0c10,0 19,-7 19,-18 0,-11 -7,-17 -15,-19l-1 0 0 0 0 0 0 0 0 0c-1,0 -1,0 -1,0l0 0 -1 0c-5,0 -10,1 -14,6 -1,1 -2,3 -3,5l-2 2c0,0 0,0 0,1zm37 91c-14,0 -25,11 -25,25 0,14 11,25 25,25 1,0 1,0 2,0l0 73c0,27 22,49 50,49l118 0c0,1 1,1 1,1 43,51 31,78 31,78 54,-62 46,-74 58,-81 2,0 5,-1 7,-2l0 0 0 0c17,-8 29,-26 29,-45l0 -73c13,-1 23,-12 23,-25 0,-13 -10,-24 -23,-25l0 -72c0,-28 -23,-50 -50,-50l-194 0c-28,0 -50,22 -50,50l0 72c-1,0 -1,0 -2,0zm-9 -123c1,6 5,10 11,11 1,0 2,1 4,1 3,0 6,-1 8,-3 6,-3 9,-8 7,-17 -1,-5 -5,-9 -9,-10 -2,-1 -4,-1 -6,-1 -4,0 -7,1 -9,3 -5,3 -8,8 -6,16zm52 -30c7,0 13,6 13,12 0,7 -6,13 -13,13 -6,0 -12,-6 -12,-13 0,-6 6,-12 12,-12zm125 9c2,0 3,2 3,3 0,2 -1,3 -3,3 -2,0 -3,-1 -3,-3 0,-1 1,-3 3,-3zm-16 -1c3,0 4,2 4,4 0,3 -1,5 -4,5 -2,0 -4,-2 -4,-5 0,-2 2,-4 4,-4zm-21 -2c4,0 6,3 6,6 0,4 -2,6 -6,6 -3,0 -6,-2 -6,-6 0,-3 3,-6 6,-6zm-23 -1c4,0 8,3 8,7 0,4 -4,8 -8,8 -4,0 -7,-4 -7,-8 0,-4 3,-7 7,-7zm-29 -2c6,0 10,4 10,9 0,6 -4,10 -10,10 -5,0 -9,-4 -9,-10 0,-5 4,-9 9,-9z"/>
   <rect class="fil1" x="57" y="50" width="257" height="257" rx="43" ry="8"/>
   <path class="fil2" d="M101 50l170 0c24,0 43,19 43,43l0 57c-35,28 -80,45 -128,45 -49,0 -93,-17 -129,-45l0 -57c0,-24 20,-43 44,-43z"/>
   <g>
    <path class="fil3" d="M274 126c1,0 2,2 2,4 0,2 -2,4 -5,4 -1,0 -2,0 -3,-1 -6,-4 -24,-16 -26,-16 -2,-1 -12,6 -19,10 -1,1 -3,2 -5,3l0 0 0 0c-1,0 -2,0 -3,0 -6,0 -10,-5 -10,-11 0,-4 2,-7 5,-9l0 0c0,0 17,-12 29,-11 14,1 25,16 35,27z"/>
    <path class="fil3" d="M98 126c-2,0 -3,2 -3,4 0,2 3,4 5,4 1,0 2,0 3,-1 7,-4 24,-16 26,-16 2,-1 13,6 20,10 1,1 2,2 4,3l0 0 0 0c1,0 2,0 3,0 6,0 11,-5 11,-11 0,-4 -2,-7 -6,-9l0 0c0,0 -17,-12 -28,-11 -15,1 -25,16 -35,27z"/>
   </g>
   <path class="fil4" d="M186 200c28,0 50,4 60,9 5,2 8,4 8,6 0,2 -1,3 -1,5 2,35 -16,61 -38,74 -8,6 -18,9 -29,8 -11,1 -21,-2 -29,-8 -23,-13 -41,-39 -39,-74 0,-2 0,-3 0,-5 0,-2 3,-4 7,-6 11,-5 33,-9 61,-9l0 0z"/>
   <path class="fil5" d="M230 282c-4,5 -10,9 -15,12 -8,6 -18,9 -29,8 -11,1 -21,-2 -29,-8 -6,-3 -11,-7 -16,-12 10,-9 26,-15 45,-15 18,0 35,6 44,15z"/>
   <path class="fil6" d="M186 200c28,0 50,4 60,9 1,0 2,0 3,1 0,4 0,9 0,11 -2,13 -19,17 -24,10 -5,-6 -73,-6 -78,0 -5,7 -23,3 -24,-10 0,-2 0,-7 0,-11 0,-1 1,-1 2,-1 15,-8 44,-9 61,-9z"/>
   <path class="fil7 str0" style="mask:url(#id0)" d="M186 283c11,0 20,2 20,5 0,3 -9,5 -20,5 -11,0 -20,-2 -20,-5 0,-3 9,-5 20,-5z"/>
   <g>
    <g>
     <path class="fil8" d="M274 142c138,47 -20,148 0,0z"/>
     <path class="fil9" style="mask:url(#id2)" d="M283 153c61,21 -9,67 0,0z"/>
    </g>
    <g>
     <path class="fil8" d="M97 142c-137,47 21,148 0,0z"/>
     <path class="fil9" style="mask:url(#id4)" d="M89 153c-61,21 9,67 0,0z"/>
    </g>
   </g>
  </g>
 </g>
</svg>
