<?xml version="1.0" encoding="UTF-8"?>
<!DOCTYPE svg PUBLIC "-//W3C//DTD SVG 1.1//EN" "http://www.w3.org/Graphics/SVG/1.1/DTD/svg11.dtd">
<!-- Creator: CorelDRAW X8 -->
<svg xmlns="http://www.w3.org/2000/svg" xml:space="preserve" width="31.564mm" height="35.6728mm" version="1.1" style="shape-rendering:geometricPrecision; text-rendering:geometricPrecision; image-rendering:optimizeQuality; fill-rule:evenodd; clip-rule:evenodd"
viewBox="0 0 1246 1408"
 xmlns:xlink="http://www.w3.org/1999/xlink">
 <defs>
  <style type="text/css">
   <![CDATA[
    .str0 {stroke:black;stroke-width:7.89266}
    .fil8 {fill:#261C15}
    .fil0 {fill:#2C3D51}
    .fil7 {fill:#3C0404}
    .fil3 {fill:#6AC3FC}
    .fil6 {fill:#6F4104}
    .fil9 {fill:#E6E6E6}
    .fil4 {fill:#F65D72}
    .fil1 {fill:#FEC12B}
    .fil5 {fill:#FF50FC}
    .fil2 {fill:white;fill-opacity:0.301961}
   ]]>
  </style>
     <mask id="id0">
  <radialGradient id="id1" gradientUnits="userSpaceOnUse" cx="636.669" cy="798.034" r="87.6677" fx="636.669" fy="798.034">
   <stop offset="0" style="stop-opacity:1; stop-color:white"/>
   <stop offset="0.760784" style="stop-opacity:-127.502; stop-color:white"/>
   <stop offset="1" style="stop-opacity:0; stop-color:white"/>
  </radialGradient>
      <rect style="fill:url(#id1)" x="554" y="715" width="195" height="195"/>
     </mask>
    <mask id="id2">
  <radialGradient id="id3" gradientUnits="userSpaceOnUse" cx="996.641" cy="710.832" r="99.1949" fx="996.641" fy="710.832">
   <stop offset="0" style="stop-opacity:1; stop-color:white"/>
   <stop offset="0.388235" style="stop-opacity:-127.502; stop-color:white"/>
   <stop offset="1" style="stop-opacity:0; stop-color:white"/>
  </radialGradient>
     <rect style="fill:url(#id3)" x="233" y="608" width="206" height="206"/>
    </mask>
     <mask id="id4">
  <radialGradient id="id5" gradientUnits="userSpaceOnUse" cx="954.885" cy="710.832" r="99.1949" fx="954.885" fy="710.832">
   <stop offset="0" style="stop-opacity:1; stop-color:white"/>
   <stop offset="0.388235" style="stop-opacity:-127.502; stop-color:white"/>
   <stop offset="1" style="stop-opacity:0; stop-color:white"/>
  </radialGradient>
      <rect style="fill:url(#id5)" x="852" y="608" width="206" height="206"/>
     </mask>
     <mask id="id6">
  <radialGradient id="id7" gradientUnits="userSpaceOnUse" cx="341.302" cy="710.832" r="99.1949" fx="341.302" fy="710.832">
   <stop offset="0" style="stop-opacity:1; stop-color:white"/>
   <stop offset="0.388235" style="stop-opacity:-127.502; stop-color:white"/>
   <stop offset="1" style="stop-opacity:0; stop-color:white"/>
  </radialGradient>
      <rect style="fill:url(#id7)" x="238" y="608" width="206" height="206"/>
     </mask>
 </defs>
 <g id="Layer_x0020_1">
  <metadata id="CorelCorpID_0Corel-Layer"/>
  <g id="_2537544286160">
   <path class="fil0" d="M0 215l0 29c1,2 2,3 3,5 2,6 4,13 8,18 2,4 5,8 11,12l0 0 0 0c11,10 25,16 41,17l0 0 0 0 1 0c33,1 65,-24 66,-63 1,-37 -25,-60 -54,-65l-1 0 -1 0 0 0 -2 0 0 0c-1,-1 -2,-1 -2,-1l-1 0 -1 0c-18,-1 -36,6 -49,20 -5,5 -10,11 -13,18l-4 8c-1,-1 -1,1 -2,2zm133 318c-49,0 -89,40 -89,89 0,48 40,88 89,88 1,0 2,0 3,0l0 252c0,95 78,173 173,173l414 0c0,1 1,2 2,3 149,178 108,270 108,270 190,-214 160,-257 202,-280 9,-2 17,-6 26,-10l0 0 0 0c58,-27 99,-87 99,-156l0 -252c48,-2 86,-41 86,-88 0,-48 -38,-87 -86,-89l0 -252c0,-95 -78,-173 -173,-173l-678 0c-95,0 -173,78 -173,173l0 252c-1,0 -2,0 -3,0zm-36 -430c4,22 20,35 37,40 5,1 11,2 16,2 11,0 21,-3 29,-8 18,-10 31,-31 24,-59 -5,-20 -18,-32 -33,-37 -6,-3 -13,-4 -20,-4 -12,0 -24,4 -33,12 -15,10 -25,29 -20,54zm184 -103c24,0 43,19 43,43 0,24 -19,43 -43,43 -24,0 -43,-19 -43,-43 0,-24 19,-43 43,-43zm434 33c6,0 10,4 10,10 0,6 -4,10 -10,10 -6,0 -10,-4 -10,-10 0,-6 4,-10 10,-10zm-55 -4c8,0 15,6 15,14 0,8 -7,15 -15,15 -8,0 -14,-7 -14,-15 0,-8 6,-14 14,-14zm-73 -7c12,0 21,10 21,21 0,12 -9,21 -21,21 -11,0 -21,-9 -21,-21 0,-11 10,-21 21,-21zm-80 -5c14,0 26,12 26,26 0,14 -12,26 -26,26 -14,0 -26,-12 -26,-26 0,-14 12,-26 26,-26zm-101 -7c18,0 33,15 33,33 0,19 -15,34 -33,34 -19,0 -34,-15 -34,-34 0,-18 15,-33 34,-33z"/>
   <rect class="fil1" x="201" y="173" width="895" height="897" rx="151" ry="28"/>
   <path class="fil2" d="M352 173l592 0c84,0 152,68 152,151l0 199c-123,99 -278,158 -448,158 -169,0 -325,-59 -447,-158l0 -199c0,-83 68,-151 151,-151z"/>
   <g>
    <path class="fil3" d="M648 922c88,0 179,-123 179,-199 0,-35 -29,-64 -65,-64 -26,0 -48,15 -58,36l-56 0 -55 0c-11,-21 -33,-36 -59,-36 -35,0 -64,29 -64,64 0,77 86,199 178,199z"/>
    <path class="fil4" style="mask:url(#id0)" d="M651 719c52,0 94,42 94,94 0,51 -42,93 -94,93 -51,0 -93,-42 -93,-93 0,-52 42,-94 93,-94z"/>
    <circle class="fil5" cx="648" cy="813" r="79"/>
    <path class="fil6" d="M648 790c67,0 121,54 121,121 0,67 -54,121 -121,121 -67,0 -121,-54 -121,-121 0,-67 54,-121 121,-121zm0 34c49,0 88,39 88,87 0,49 -39,88 -88,88 -48,0 -88,-39 -88,-88 0,-48 40,-87 88,-87z"/>
    <rect class="fil5 str0" x="616" y="776" width="64.7395" height="74.1357" rx="15" ry="15"/>
   </g>
   <path class="fil4 str0" style="mask:url(#id2)" d="M336 612c54,0 99,44 99,99 0,55 -45,99 -99,99 -55,0 -99,-44 -99,-99 0,-55 44,-99 99,-99z"/>
   <path class="fil7" d="M508 173c0,0 109,0 162,0 23,0 20,28 21,55 8,120 -131,82 -196,52 0,0 19,102 132,113 104,9 176,-71 174,-159 -4,-226 -301,-140 -293,-61z"/>
   <g>
    <path class="fil4 str0" style="mask:url(#id4)" d="M955 612c55,0 99,44 99,99 0,55 -44,99 -99,99 -55,0 -99,-44 -99,-99 0,-55 44,-99 99,-99z"/>
    <path class="fil4 str0" style="mask:url(#id6)" d="M341 612c55,0 99,44 99,99 0,55 -44,99 -99,99 -54,0 -99,-44 -99,-99 0,-55 45,-99 99,-99z"/>
   </g>
   <g>
    <ellipse class="fil8" cx="437" cy="511" rx="65" ry="74"/>
    <ellipse class="fil8" cx="884" cy="511" rx="65" ry="74"/>
   </g>
   <g>
    <ellipse class="fil9" cx="438" cy="484" rx="20" ry="26"/>
    <ellipse class="fil9" cx="883" cy="484" rx="20" ry="26"/>
   </g>
  </g>
 </g>
</svg>
