<?xml version="1.0" encoding="UTF-8"?>
<!DOCTYPE svg PUBLIC "-//W3C//DTD SVG 1.1//EN" "http://www.w3.org/Graphics/SVG/1.1/DTD/svg11.dtd">
<!-- Creator: CorelDRAW X8 -->
<svg xmlns="http://www.w3.org/2000/svg" xml:space="preserve" width="31.564mm" height="35.6728mm" version="1.1" style="shape-rendering:geometricPrecision; text-rendering:geometricPrecision; image-rendering:optimizeQuality; fill-rule:evenodd; clip-rule:evenodd"
viewBox="0 0 818 925"
 xmlns:xlink="http://www.w3.org/1999/xlink">
 <defs>
  <style type="text/css">
   <![CDATA[
    .fil0 {fill:#2C3D51}
    .fil3 {fill:#3C0404}
    .fil4 {fill:#872C0C}
    .fil1 {fill:#FEC12B}
    .fil2 {fill:white;fill-opacity:0.301961}
   ]]>
  </style>
 </defs>
 <g id="Layer_x0020_1">
  <metadata id="CorelCorpID_0Corel-Layer"/>
  <g id="_1524682275696">
   <path class="fil0" d="M0 141l0 19c1,1 1,2 2,3 1,5 3,9 5,13 2,2 4,5 7,7l0 0 0 0c7,7 17,11 27,11l0 0 0 0 1 0c22,1 42,-15 43,-41 1,-24 -16,-39 -35,-43l-1 0 0 0 0 0 -2 0 0 0c0,0 -1,0 -1,0l-1 0 -1 0c-11,-1 -23,3 -32,13 -3,3 -6,7 -8,11l-3 6c0,-1 -1,1 -1,1zm87 209c-32,0 -58,26 -58,58 0,32 26,58 58,58 1,0 2,0 2,0l0 166c0,62 52,113 114,113l272 0c0,1 1,2 1,2 98,117 71,178 71,178 125,-141 105,-169 133,-184 6,-2 11,-4 17,-6l0 0 0 0c38,-19 65,-58 65,-103l0 -166c31,-1 56,-26 56,-58 0,-31 -25,-57 -56,-58l0 -165c0,-63 -51,-114 -114,-114l-445 0c-62,0 -114,51 -114,114l0 165c0,0 -1,0 -2,0zm-23 -282c2,14 13,23 24,26 4,1 7,1 11,1 7,0 13,-2 19,-5 12,-7 20,-20 15,-39 -3,-13 -12,-21 -22,-24 -4,-2 -8,-3 -12,-3 -9,0 -16,3 -22,8 -10,7 -16,19 -13,36zm120 -68c16,0 29,13 29,28 0,16 -13,29 -29,29 -15,0 -28,-13 -28,-29 0,-15 13,-28 28,-28zm286 22c3,0 6,3 6,6 0,4 -3,7 -6,7 -4,0 -7,-3 -7,-7 0,-3 3,-6 7,-6zm-36 -3c5,0 9,4 9,9 0,6 -4,10 -9,10 -6,0 -10,-4 -10,-10 0,-5 4,-9 10,-9zm-48 -4c7,0 14,6 14,13 0,8 -7,14 -14,14 -8,0 -14,-6 -14,-14 0,-7 6,-13 14,-13zm-53 -4c9,0 17,8 17,17 0,10 -8,17 -17,17 -9,0 -17,-7 -17,-17 0,-9 8,-17 17,-17zm-66 -5c12,0 22,10 22,22 0,12 -10,22 -22,22 -13,0 -22,-10 -22,-22 0,-12 9,-22 22,-22z"/>
   <rect class="fil1" x="132" y="114" width="588" height="589" rx="99" ry="19"/>
   <path class="fil2" d="M231 114l389 0c55,0 100,44 100,99l0 131c-81,64 -183,103 -294,103 -112,0 -214,-39 -294,-104l0 -130c0,-55 44,-99 99,-99z"/>
   <g>
    <path class="fil3" d="M296 315c-34,-30 -80,-27 -80,-27 60,-58 206,48 135,51 -33,2 -90,11 -125,39 -35,27 -36,29 -36,29 -10,10 -37,6 -21,-16 6,-9 16,-17 16,-17 40,-37 59,-40 109,-51 0,0 8,-2 2,-8z"/>
    <path class="fil3" d="M555 315c34,-30 80,-27 80,-27 -59,-58 -206,48 -135,51 33,2 91,11 125,39 35,27 36,29 36,29 10,10 37,6 22,-16 -7,-9 -17,-17 -17,-17 -40,-37 -59,-40 -109,-51 0,0 -7,-2 -2,-8z"/>
   </g>
   <g>
    <path class="fil4" d="M687 267c-45,18 -120,-11 -138,-55 0,0 -8,-15 3,-19 10,-5 18,2 18,2 0,0 23,50 117,72z"/>
    <path class="fil4" d="M165 267c45,18 119,-11 137,-55 0,0 8,-15 -2,-19 -11,-5 -19,2 -19,2 0,0 -23,50 -116,72z"/>
   </g>
   <path class="fil3" d="M617 519l-38 82c0,0 -16,26 -33,0 -17,-26 -30,-48 -30,-48 0,0 -9,-18 -21,0 -12,17 -40,59 -40,59 0,0 -20,30 -38,0 -18,-29 -40,-62 -40,-62 0,0 -13,-19 -24,0 -12,18 -34,56 -34,56 0,0 -18,26 -36,0 -18,-26 -49,-71 -49,-71l50 43c0,0 14,21 25,0 11,-22 38,-74 38,-74 0,0 15,-25 33,0 18,26 39,62 39,62 0,0 13,36 36,0 22,-36 34,-53 34,-53 0,0 14,-34 34,0 20,33 30,52 30,52 0,0 12,24 26,0 14,-25 38,-46 38,-46z"/>
  </g>
 </g>
</svg>
