<?xml version="1.0" encoding="UTF-8"?>
<!DOCTYPE svg PUBLIC "-//W3C//DTD SVG 1.1//EN" "http://www.w3.org/Graphics/SVG/1.1/DTD/svg11.dtd">
<!-- Creator: CorelDRAW X8 -->
<svg xmlns="http://www.w3.org/2000/svg" xml:space="preserve" width="29.3356mm" height="33.8834mm" version="1.1" style="shape-rendering:geometricPrecision; text-rendering:geometricPrecision; image-rendering:optimizeQuality; fill-rule:evenodd; clip-rule:evenodd"
viewBox="0 0 387 448"
 xmlns:xlink="http://www.w3.org/1999/xlink">
 <defs>
  <style type="text/css">
   <![CDATA[
    .fil4 {fill:black}
    .fil0 {fill:#2C3D51}
    .fil7 {fill:#333333}
    .fil5 {fill:#FEC12B}
    .fil1 {fill:#FFBD2D}
    .fil3 {fill:white}
    .fil6 {fill:#00CCFF;fill-rule:nonzero}
    .fil2 {fill:white;fill-opacity:0.301961}
   ]]>
  </style>
     <mask id="id0">
  <radialGradient id="id1" gradientUnits="userSpaceOnUse" cx="97.5313" cy="269.691" r="0" fx="97.5313" fy="269.691">
   <stop offset="0" style="stop-opacity:1; stop-color:white"/>
   <stop offset="1" style="stop-opacity:0; stop-color:white"/>
  </radialGradient>
      <rect style="fill:url(#id1)" x="96" y="268" width="16.5562" height="27.1973"/>
     </mask>
 </defs>
 <g id="Layer_x0020_1">
  <metadata id="CorelCorpID_0Corel-Layer"/>
  <g id="_2537817368960">
   <path class="fil0" d="M20 237c-12,-4 -20,-16 -20,-29 0,-15 10,-27 24,-30 18,-78 87,-135 169,-135 82,0 151,57 169,134 15,3 25,16 25,31 0,14 -9,25 -21,29 -4,32 -16,61 -34,85l0 0c0,0 17,5 -2,126 0,0 -10,-49 -88,-64l0 0c-16,4 -32,7 -49,7 -89,0 -163,-68 -173,-154z"/>
   <circle class="fil1" cx="193" cy="217" r="155"/>
   <path class="fil2" d="M193 62c67,0 123,42 145,101 -38,43 -89,70 -145,70 -56,0 -106,-27 -145,-70 22,-59 79,-101 145,-101z"/>
   <path class="fil0" d="M47 49c13,0 23,10 23,23 0,12 -10,22 -23,22 -12,0 -23,-10 -23,-22 0,-13 11,-23 23,-23zm217 -28c2,0 3,2 3,3 0,2 -1,4 -3,4 -2,0 -3,-2 -3,-4 0,-1 1,-3 3,-3zm-18 -8c3,0 5,2 5,5 0,2 -2,4 -5,4 -2,0 -4,-2 -4,-4 0,-3 2,-5 4,-5zm-21 -7c3,0 6,3 6,7 0,4 -3,7 -6,7 -4,0 -7,-3 -7,-7 0,-4 3,-7 7,-7zm-26 -5c6,0 10,4 10,9 0,6 -4,10 -10,10 -5,0 -9,-4 -9,-10 0,-5 4,-9 9,-9zm-32 -1c7,0 13,6 13,12 0,7 -6,13 -13,13 -7,0 -12,-6 -12,-13 0,-6 5,-12 12,-12zm-39 4c10,0 17,8 17,17 0,9 -7,16 -17,16 -9,0 -16,-7 -16,-16 0,-9 7,-17 16,-17zm-39 15c11,0 20,9 20,20 0,10 -9,19 -20,19 -10,0 -19,-9 -19,-19 0,-11 9,-20 19,-20z"/>
   <g>
    <g>
     <g>
      <circle class="fil3" cx="135" cy="176" r="36"/>
      <path class="fil4" d="M136 151c14,0 26,11 26,26 0,7 -4,14 -9,19 0,-1 0,-2 0,-2 0,-7 -5,-12 -11,-12 -6,0 -11,5 -11,12 0,3 1,6 4,8 -14,0 -25,-12 -25,-25 0,-15 12,-26 26,-26z"/>
      <circle class="fil3" cx="125" cy="175" r="8"/>
     </g>
     <g>
      <circle class="fil3" cx="251" cy="176" r="36"/>
      <path class="fil4" d="M251 151c14,0 26,11 26,26 0,7 -3,14 -8,19 0,-1 0,-2 0,-2 0,-7 -5,-12 -12,-12 -6,0 -11,5 -11,12 0,3 2,6 4,8 -14,0 -24,-12 -24,-25 0,-15 11,-26 25,-26z"/>
      <circle class="fil3" cx="240" cy="175" r="8"/>
     </g>
    </g>
    <g>
     <path class="fil5" d="M136 107c1,2 1,3 1,5 0,15 -46,34 -61,33 -6,-11 48,-61 60,-38z"/>
     <path class="fil5" d="M250 107c-1,2 -1,3 -1,5 0,15 46,34 61,33 6,-11 -47,-61 -60,-38z"/>
    </g>
   </g>
   <g>
    <path class="fil6" d="M116 228c7,31 28,47 28,63 0,15 -7,31 -28,31 -21,0 -28,-16 -28,-31 0,-16 21,-32 28,-63z"/>
    <path class="fil3" style="mask:url(#id0)" d="M104 270c4,0 7,5 7,12 0,7 -3,12 -7,12 -3,0 -6,-5 -6,-12 0,-7 3,-12 6,-12z"/>
   </g>
   <path class="fil7" d="M193 284c25,0 45,15 49,33l-14 0c-9,-7 -21,-12 -35,-12 -14,0 -26,5 -35,12l-13 0c3,-18 23,-33 48,-33z"/>
  </g>
 </g>
</svg>
