<?xml version="1.0" encoding="UTF-8"?>
<!DOCTYPE svg PUBLIC "-//W3C//DTD SVG 1.1//EN" "http://www.w3.org/Graphics/SVG/1.1/DTD/svg11.dtd">
<!-- Creator: CorelDRAW X8 -->
<svg xmlns="http://www.w3.org/2000/svg" xml:space="preserve" width="31.564mm" height="35.6728mm" version="1.1" style="shape-rendering:geometricPrecision; text-rendering:geometricPrecision; image-rendering:optimizeQuality; fill-rule:evenodd; clip-rule:evenodd"
viewBox="0 0 824 932"
 xmlns:xlink="http://www.w3.org/1999/xlink">
 <defs>
  <style type="text/css">
   <![CDATA[
    .fil4 {fill:black}
    .fil0 {fill:#2C3D51}
    .fil7 {fill:#333333}
    .fil1 {fill:#FEC12B}
    .fil5 {fill:#FEC12B}
    .fil3 {fill:white}
    .fil6 {fill:#00CCFF;fill-rule:nonzero}
    .fil2 {fill:white;fill-opacity:0.301961}
   ]]>
  </style>
      <mask id="id0">
  <radialGradient id="id1" gradientUnits="userSpaceOnUse" cx="239.956" cy="526.206" r="0" fx="239.956" fy="526.206">
   <stop offset="0" style="stop-opacity:1; stop-color:white"/>
   <stop offset="1" style="stop-opacity:0; stop-color:white"/>
  </radialGradient>
       <rect style="fill:url(#id1)" x="237" y="524" width="32.7341" height="53.7734"/>
      </mask>
 </defs>
 <g id="Layer_x0020_1">
  <metadata id="CorelCorpID_0Corel-Layer"/>
  <g id="_2537696235728">
   <path class="fil0" d="M0 142l0 19c1,1 1,3 2,3 1,5 3,9 5,13 2,2 4,5 7,8l0 0 0 0c8,6 17,11 27,11l1 0 0 0 0 0c22,0 43,-16 44,-42 0,-24 -17,-39 -36,-43l-1 0 0 0 0 0 -1 0 -1 0c0,0 0,0 -1,0l0 0 -1 0c-12,-1 -24,3 -33,13 -3,3 -6,7 -8,11l-3 6c0,-1 -1,1 -1,1zm88 211c-32,0 -59,26 -59,58 0,33 27,59 59,59 1,0 1,0 2,0l0 167c0,63 52,114 115,114l273 0c1,1 1,1 2,2 98,118 71,179 71,179 126,-142 106,-170 134,-185 6,-2 11,-4 17,-7l0 0 0 0c39,-18 66,-58 66,-103l0 -167c31,-1 56,-27 56,-59 0,-31 -25,-57 -56,-58l0 -167c0,-63 -52,-114 -115,-114l-448 0c-63,0 -115,51 -115,114l0 167c-1,0 -1,0 -2,0zm-24 -285c3,15 13,24 25,26 3,1 7,2 10,2 7,0 14,-2 19,-5 13,-7 21,-21 16,-40 -3,-13 -12,-21 -22,-24 -4,-2 -8,-2 -13,-2 -8,0 -15,2 -22,7 -9,7 -16,20 -13,36zm122 -68c16,0 28,13 28,29 0,15 -12,28 -28,28 -16,0 -29,-13 -29,-28 0,-16 13,-29 29,-29zm287 22c4,0 7,3 7,7 0,3 -3,6 -7,6 -3,0 -7,-3 -7,-6 0,-4 4,-7 7,-7zm-36 -3c5,0 10,4 10,10 0,5 -5,9 -10,9 -5,0 -10,-4 -10,-9 0,-6 5,-10 10,-10zm-48 -4c7,0 14,6 14,14 0,7 -7,13 -14,13 -8,0 -14,-6 -14,-13 0,-8 6,-14 14,-14zm-53 -3c9,0 17,7 17,17 0,9 -8,17 -17,17 -10,0 -17,-8 -17,-17 0,-10 7,-17 17,-17zm-67 -6c12,0 22,10 22,23 0,12 -10,22 -22,22 -13,0 -23,-10 -23,-22 0,-13 10,-23 23,-23z"/>
   <rect class="fil1" x="133" y="114" width="592" height="594" rx="100" ry="19"/>
   <path class="fil2" d="M233 114l392 0c55,0 100,45 100,101l0 131c-81,65 -184,105 -296,105 -112,0 -215,-40 -296,-105l0 -131c0,-56 45,-101 100,-101z"/>
   <g>
    <g>
     <g>
      <g>
       <circle class="fil3" cx="315" cy="341" r="72"/>
       <path class="fil4" d="M316 291c28,0 51,23 51,51 0,15 -7,28 -17,38 0,-2 1,-3 1,-4 0,-13 -11,-23 -23,-23 -12,0 -22,10 -22,23 0,7 3,13 7,17 -26,-1 -48,-24 -48,-51 0,-28 23,-51 51,-51z"/>
       <circle class="fil3" cx="295" cy="340" r="16"/>
      </g>
      <g>
       <circle class="fil3" cx="543" cy="341" r="72"/>
       <path class="fil4" d="M544 291c28,0 51,23 51,51 0,15 -7,28 -17,38 0,-2 1,-3 1,-4 0,-13 -11,-23 -23,-23 -12,0 -22,10 -22,23 0,7 3,13 7,17 -26,-1 -48,-24 -48,-51 0,-28 23,-51 51,-51z"/>
       <circle class="fil3" cx="523" cy="340" r="16"/>
      </g>
     </g>
     <g>
      <path class="fil5" d="M316 205c2,3 2,6 2,9 0,29 -91,67 -121,66 -11,-22 94,-120 119,-75z"/>
      <path class="fil5" d="M542 205c-2,3 -3,6 -3,9 0,29 92,67 121,66 11,-22 -94,-120 -118,-75z"/>
     </g>
    </g>
    <g>
     <path class="fil6" d="M277 444c14,62 55,93 55,124 0,31 -14,61 -55,61 -41,0 -55,-30 -55,-61 0,-31 41,-62 55,-124z"/>
     <path class="fil3" style="mask:url(#id0)" d="M254 526c7,0 13,11 13,24 0,14 -6,25 -13,25 -8,0 -14,-11 -14,-25 0,-13 6,-24 14,-24z"/>
    </g>
    <path class="fil7" d="M429 555c49,0 89,28 96,65l-28 0c-17,-15 -41,-25 -68,-25 -27,0 -51,10 -69,25l-27 0c6,-37 47,-65 96,-65z"/>
   </g>
  </g>
 </g>
</svg>
