<?xml version="1.0" encoding="UTF-8"?>
<!DOCTYPE svg PUBLIC "-//W3C//DTD SVG 1.1//EN" "http://www.w3.org/Graphics/SVG/1.1/DTD/svg11.dtd">
<!-- Creator: CorelDRAW X8 -->
<svg xmlns="http://www.w3.org/2000/svg" xml:space="preserve" width="29.3356mm" height="33.8834mm" version="1.1" style="shape-rendering:geometricPrecision; text-rendering:geometricPrecision; image-rendering:optimizeQuality; fill-rule:evenodd; clip-rule:evenodd"
viewBox="0 0 387 447"
 xmlns:xlink="http://www.w3.org/1999/xlink">
 <defs>
  <style type="text/css">
   <![CDATA[
    .fil3 {fill:#1A1626}
    .fil0 {fill:#2C3D51}
    .fil5 {fill:#E33443}
    .fil1 {fill:#FFBD2D}
    .fil4 {fill:white}
    .fil6 {fill:red;fill-rule:nonzero}
    .fil2 {fill:white;fill-opacity:0.301961}
   ]]>
  </style>
     <mask id="id0">
  <linearGradient id="id1" gradientUnits="userSpaceOnUse" x1="262.382" y1="164.596" x2="335.257" y2="192.84">
   <stop offset="0" style="stop-opacity:0; stop-color:white"/>
   <stop offset="1" style="stop-opacity:1; stop-color:white"/>
  </linearGradient>
      <rect style="fill:url(#id1)" x="265" y="138" width="44.1294" height="85.6231"/>
     </mask>
     <mask id="id2">
  <linearGradient id="id3" gradientUnits="userSpaceOnUse" x1="122.91" y1="164.596" x2="50.0347" y2="192.84">
   <stop offset="0" style="stop-opacity:0; stop-color:white"/>
   <stop offset="1" style="stop-opacity:1; stop-color:white"/>
  </linearGradient>
      <rect style="fill:url(#id3)" x="77" y="138" width="44.1294" height="85.6231"/>
     </mask>
 </defs>
 <g id="Layer_x0020_1">
  <metadata id="CorelCorpID_0Corel-Layer"/>
  <g id="_2537737276336">
   <path class="fil0" d="M20 236c-12,-4 -20,-15 -20,-29 0,-14 10,-27 24,-30 17,-77 86,-134 169,-134 82,0 151,57 169,134 14,3 25,15 25,30 0,14 -10,26 -22,30 -4,31 -16,60 -34,84l0 0c0,0 17,5 -1,126 0,0 -10,-49 -89,-64l0 0c-15,4 -31,7 -48,7 -89,0 -163,-67 -173,-154z"/>
   <circle class="fil1" cx="193" cy="216" r="154"/>
   <path class="fil2" d="M193 62c66,0 122,42 144,101 -38,43 -89,69 -144,69 -56,0 -107,-26 -145,-69 22,-59 78,-101 145,-101z"/>
   <path class="fil0" d="M47 49c12,0 23,10 23,23 0,12 -11,22 -23,22 -12,0 -23,-10 -23,-22 0,-13 11,-23 23,-23zm216 -28c2,0 3,2 3,3 0,2 -1,3 -3,3 -1,0 -3,-1 -3,-3 0,-1 2,-3 3,-3zm-17 -8c2,0 4,2 4,5 0,2 -2,4 -4,4 -3,0 -5,-2 -5,-4 0,-3 2,-5 5,-5zm-22 -7c4,0 7,3 7,7 0,4 -3,7 -7,7 -4,0 -7,-3 -7,-7 0,-4 3,-7 7,-7zm-25 -5c5,0 10,4 10,9 0,6 -5,10 -10,10 -5,0 -10,-4 -10,-10 0,-5 5,-9 10,-9zm-32 -1c7,0 12,6 12,12 0,7 -5,13 -12,13 -7,0 -13,-6 -13,-13 0,-6 6,-12 13,-12zm-39 4c9,0 17,8 17,17 0,9 -8,16 -17,16 -9,0 -16,-7 -16,-16 0,-9 7,-17 16,-17zm-39 15c11,0 19,9 19,20 0,10 -8,19 -19,19 -10,0 -19,-9 -19,-19 0,-11 9,-20 19,-20z"/>
   <path class="fil3" d="M301 261c2,6 3,12 3,19 0,45 -50,82 -112,82 -62,0 -112,-37 -112,-82 0,-7 1,-13 3,-19 0,-15 73,-17 109,-17l0 0 0 0c36,0 109,2 109,17z"/>
   <path class="fil4" d="M295 279l0 1c0,4 -4,8 -8,8l-1 0 -188 0 -1 0c-4,0 -8,-4 -8,-8l0 -1c-1,-29 97,-26 103,-25 6,-1 104,-4 103,25z"/>
   <ellipse class="fil5" cx="192" cy="337" rx="51" ry="14"/>
   <g>
    <path class="fil6" d="M266 146c7,-14 14,-21 28,-21 15,0 28,13 28,28 0,28 -28,56 -56,84 -28,-28 -56,-56 -56,-84 0,-15 13,-28 28,-28 14,0 21,7 28,21z"/>
    <path class="fil4" style="mask:url(#id0)" d="M281 140c2,0 3,-1 6,-1 11,0 20,10 20,21 0,21 -20,42 -41,62 21,-30 25,-63 15,-82z"/>
   </g>
   <g>
    <path class="fil6" d="M119 146c-7,-14 -14,-21 -27,-21 -16,0 -28,13 -28,28 0,28 28,56 55,84 28,-28 56,-56 56,-84 0,-15 -12,-28 -28,-28 -14,0 -21,7 -28,21z"/>
    <path class="fil4" style="mask:url(#id2)" d="M104 140c-1,0 -3,-1 -5,-1 -12,0 -21,10 -21,21 0,21 21,42 41,62 -21,-30 -24,-63 -15,-82z"/>
   </g>
  </g>
 </g>
</svg>
