<?xml version="1.0" encoding="UTF-8"?>
<!DOCTYPE svg PUBLIC "-//W3C//DTD SVG 1.1//EN" "http://www.w3.org/Graphics/SVG/1.1/DTD/svg11.dtd">
<!-- Creator: CorelDRAW X8 -->
<svg xmlns="http://www.w3.org/2000/svg" xml:space="preserve" width="31.564mm" height="35.6728mm" version="1.1" style="shape-rendering:geometricPrecision; text-rendering:geometricPrecision; image-rendering:optimizeQuality; fill-rule:evenodd; clip-rule:evenodd"
viewBox="0 0 821 928"
 xmlns:xlink="http://www.w3.org/1999/xlink">
 <defs>
  <style type="text/css">
   <![CDATA[
    .fil3 {fill:#1A1626}
    .fil0 {fill:#2C3D51}
    .fil5 {fill:#E33443}
    .fil1 {fill:#FEC12B}
    .fil4 {fill:white}
    .fil6 {fill:red;fill-rule:nonzero}
    .fil2 {fill:white;fill-opacity:0.301961}
   ]]>
  </style>
     <mask id="id0">
  <linearGradient id="id1" gradientUnits="userSpaceOnUse" x1="270.216" y1="306.462" x2="414.024" y2="362.197">
   <stop offset="0" style="stop-opacity:0; stop-color:white"/>
   <stop offset="1" style="stop-opacity:1; stop-color:white"/>
  </linearGradient>
      <rect style="fill:url(#id1)" x="274" y="254" width="87.0821" height="168.963"/>
     </mask>
     <mask id="id2">
  <linearGradient id="id3" gradientUnits="userSpaceOnUse" x1="572.964" y1="306.462" x2="429.156" y2="362.197">
   <stop offset="0" style="stop-opacity:0; stop-color:white"/>
   <stop offset="1" style="stop-opacity:1; stop-color:white"/>
  </linearGradient>
      <rect style="fill:url(#id3)" x="482" y="254" width="87.0821" height="168.963"/>
     </mask>
 </defs>
 <g id="Layer_x0020_1">
  <metadata id="CorelCorpID_0Corel-Layer"/>
  <g id="_2537544298864">
   <path class="fil0" d="M0 142l0 19c1,1 1,2 2,3 1,4 3,8 5,12 2,3 4,5 7,8l0 0 0 0c7,7 17,11 27,11l0 0 1 0 0 0c22,1 43,-16 43,-41 1,-25 -16,-40 -35,-43l-1 0 0 0 0 0 -2 -1 0 0c0,0 -1,0 -1,0l-1 0 0 0c-12,0 -24,4 -33,13 -3,3 -6,7 -8,12l-3 5c0,0 -1,1 -1,2zm88 209c-33,0 -59,26 -59,59 0,32 26,58 59,58 0,0 1,0 2,0l0 166c0,63 51,114 114,114l272 0c1,1 1,1 2,2 98,117 71,178 71,178 125,-141 106,-169 133,-185 6,-1 12,-3 17,-6l0 0 0 0c39,-18 65,-58 65,-103l0 -166c32,-1 57,-27 57,-58 0,-32 -25,-58 -57,-59l0 -166c0,-62 -51,-114 -114,-114l-446 0c-63,0 -114,52 -114,114l0 166c-1,0 -2,0 -2,0zm-24 -283c3,15 13,23 25,26 3,1 6,2 10,2 7,0 13,-2 19,-6 12,-7 20,-20 16,-39 -4,-13 -12,-21 -22,-24 -4,-2 -9,-3 -13,-3 -8,0 -16,3 -22,8 -10,7 -16,19 -13,36zm121 -68c16,0 28,13 28,28 0,16 -12,29 -28,29 -16,0 -28,-13 -28,-29 0,-15 12,-28 28,-28zm286 22c4,0 7,3 7,6 0,4 -3,7 -7,7 -3,0 -6,-3 -6,-7 0,-3 3,-6 6,-6zm-36 -3c5,0 10,4 10,9 0,6 -5,10 -10,10 -5,0 -10,-4 -10,-10 0,-5 5,-9 10,-9zm-48 -4c8,0 14,6 14,13 0,8 -6,14 -14,14 -8,0 -14,-6 -14,-14 0,-7 6,-13 14,-13zm-53 -3c10,0 17,7 17,16 0,10 -7,17 -17,17 -9,0 -17,-7 -17,-17 0,-9 8,-16 17,-16zm-67 -6c13,0 23,10 23,22 0,13 -10,22 -23,22 -12,0 -22,-9 -22,-22 0,-12 10,-22 22,-22z"/>
   <rect class="fil1" x="132" y="114" width="590" height="591" rx="100" ry="19"/>
   <path class="fil2" d="M232 114l390 0c55,0 100,45 100,100l0 131c-81,65 -183,104 -295,104 -112,0 -214,-39 -295,-104l0 -131c0,-55 45,-100 100,-100z"/>
   <path class="fil3" d="M642 495c4,11 6,24 6,37 0,89 -99,162 -221,162 -122,0 -220,-73 -220,-162 0,-13 2,-26 5,-37 1,-30 143,-33 215,-33l0 0 1 0c71,0 213,3 214,33z"/>
   <path class="fil4" d="M630 532l0 0c0,8 -8,16 -16,16l0 0 -373 0 0 0c-9,0 -16,-8 -16,-16l0 0c-4,-59 190,-52 202,-51 12,-1 206,-8 203,51z"/>
   <ellipse class="fil5" cx="427" cy="645" rx="101" ry="28"/>
   <g>
    <path class="fil6" d="M277 270c14,-28 28,-41 55,-41 31,0 55,24 55,55 0,55 -55,110 -110,165 -55,-55 -110,-110 -110,-165 0,-31 25,-55 55,-55 28,0 41,13 55,41z"/>
    <path class="fil4" style="mask:url(#id0)" d="M307 258c3,-1 7,-1 11,-1 23,0 41,18 41,41 0,41 -41,82 -82,123 42,-60 49,-126 30,-163z"/>
   </g>
   <g>
    <path class="fil6" d="M566 270c-14,-28 -27,-41 -55,-41 -30,0 -55,24 -55,55 0,55 55,110 110,165 55,-55 110,-110 110,-165 0,-31 -24,-55 -55,-55 -27,0 -41,13 -55,41z"/>
    <path class="fil4" style="mask:url(#id2)" d="M537 258c-4,-1 -8,-1 -12,-1 -22,0 -41,18 -41,41 0,41 41,82 82,123 -42,-60 -49,-126 -29,-163z"/>
   </g>
  </g>
 </g>
</svg>
