<?xml version="1.0" encoding="UTF-8"?>
<!DOCTYPE svg PUBLIC "-//W3C//DTD SVG 1.1//EN" "http://www.w3.org/Graphics/SVG/1.1/DTD/svg11.dtd">
<!-- Creator: CorelDRAW X8 -->
<svg xmlns="http://www.w3.org/2000/svg" xml:space="preserve" width="29.3356mm" height="33.8834mm" version="1.1" style="shape-rendering:geometricPrecision; text-rendering:geometricPrecision; image-rendering:optimizeQuality; fill-rule:evenodd; clip-rule:evenodd"
viewBox="0 0 3912 4518"
 xmlns:xlink="http://www.w3.org/1999/xlink">
 <defs>
  <style type="text/css">
   <![CDATA[
    .fil4 {fill:black}
    .fil3 {fill:black}
    .fil0 {fill:#2C3D51}
    .fil1 {fill:#FFBD2D}
    .fil2 {fill:white;fill-opacity:0.301961}
    .fil5 {fill:url(#id0)}
   ]]>
  </style>
  <linearGradient id="id0" gradientUnits="userSpaceOnUse" x1="1951.04" y1="1431.71" x2="1947.88" y2="2326.34">
   <stop offset="0" style="stop-opacity:1; stop-color:#424857"/>
   <stop offset="1" style="stop-opacity:1; stop-color:#504282"/>
  </linearGradient>
 </defs>
 <g id="Layer_x0020_1">
  <metadata id="CorelCorpID_0Corel-Layer"/>
  <g id="_2537603761536">
   <path class="fil0" d="M206 2391c-120,-44 -206,-159 -206,-294 0,-148 102,-271 239,-304 180,-779 877,-1359 1710,-1359 832,0 1529,579 1710,1356 144,28 253,155 253,307 0,140 -93,259 -220,299 -37,319 -160,612 -345,855l0 0c0,0 172,50 -13,1267 0,0 -101,-492 -891,-644l0 0c-157,46 -322,71 -494,71 -901,0 -1643,-680 -1743,-1554z"/>
   <circle class="fil1" cx="1949" cy="2190" r="1561"/>
   <path class="fil2" d="M1949 628c671,0 1243,423 1464,1017 -388,439 -901,706 -1464,706 -563,0 -1076,-267 -1463,-706 221,-594 793,-1017 1463,-1017z"/>
   <path class="fil0" d="M475 496c126,0 229,102 229,229 0,126 -103,228 -229,228 -126,0 -228,-102 -228,-228 0,-127 102,-229 228,-229zm2189 -280c17,0 31,14 31,31 0,17 -14,31 -31,31 -18,0 -31,-14 -31,-31 0,-17 13,-31 31,-31zm-177 -81c26,0 46,21 46,46 0,25 -20,46 -46,46 -25,0 -45,-21 -45,-46 0,-25 20,-46 45,-46zm-220 -72c37,0 67,30 67,67 0,37 -30,68 -67,68 -38,0 -68,-31 -68,-68 0,-37 30,-67 68,-67zm-254 -54c54,0 97,43 97,97 0,53 -43,97 -97,97 -53,0 -97,-44 -97,-97 0,-54 44,-97 97,-97zm-326 -9c69,0 126,56 126,126 0,69 -57,125 -126,125 -70,0 -126,-56 -126,-125 0,-70 56,-126 126,-126zm-390 42c92,0 167,75 167,167 0,93 -75,168 -167,168 -93,0 -168,-75 -168,-168 0,-92 75,-167 168,-167zm-395 154c107,0 194,87 194,194 0,107 -87,194 -194,194 -107,0 -194,-87 -194,-194 0,-107 87,-194 194,-194z"/>
   <path class="fil3" d="M1555 3154c38,0 72,16 95,43l422 0c346,0 695,-284 695,-284 0,0 -35,140 -267,318 -232,179 -551,168 -551,168l-376 0c-6,1 -12,2 -18,2 -7,0 -13,-1 -19,-2l0 0 0 0c-60,-8 -107,-60 -107,-122 0,-68 56,-123 126,-123z"/>
   <path class="fil4" d="M965 2461c-570,-46 -497,-494 -567,-723 -33,-111 -84,-212 -159,-212 0,0 -30,-128 -30,-128 58,-62 444,-90 444,-90 387,0 729,-83 1142,201l154 0 155 0c413,-284 755,-201 1142,-201 0,0 386,28 444,90 0,0 -30,128 -30,128 -75,0 -126,101 -159,212 -70,229 3,677 -567,723l-218 0c-549,0 -549,-528 -649,-745 -32,-71 -75,-102 -118,-103 -42,1 -85,32 -117,103 -100,217 -100,745 -649,745l-218 0zm2414 -840c0,-93 -72,-168 -164,-176 0,-31 -670,-4 -773,36 -243,95 -248,146 -195,405 48,237 211,407 499,436 442,45 675,-285 633,-701zm-2859 0c0,-93 72,-168 164,-176 0,-31 670,-4 773,36 243,95 248,146 195,405 -48,237 -211,407 -499,436 -442,45 -675,-285 -633,-701z"/>
   <path class="fil5" d="M520 1621c0,-93 72,-168 164,-176 0,-31 670,-4 773,36 243,95 248,146 195,405 -48,237 -211,407 -499,436 -442,45 -675,-285 -633,-701zm2859 0c0,-93 -72,-168 -164,-176 0,-31 -670,-4 -773,36 -243,95 -248,146 -195,405 48,237 211,407 499,436 442,45 675,-285 633,-701z"/>
   <polygon class="fil4" points="3530,1394 3690,1398 3765,1831 3659,1790 3588,1561 "/>
   <polygon class="fil4" points="369,1394 209,1398 133,1841 239,1793 311,1561 "/>
  </g>
 </g>
</svg>
