<?xml version="1.0" encoding="UTF-8"?>
<!DOCTYPE svg PUBLIC "-//W3C//DTD SVG 1.1//EN" "http://www.w3.org/Graphics/SVG/1.1/DTD/svg11.dtd">
<!-- Creator: CorelDRAW X8 -->
<svg xmlns="http://www.w3.org/2000/svg" xml:space="preserve" width="31.564mm" height="35.6728mm" version="1.1" style="shape-rendering:geometricPrecision; text-rendering:geometricPrecision; image-rendering:optimizeQuality; fill-rule:evenodd; clip-rule:evenodd"
viewBox="0 0 1257 1421"
 xmlns:xlink="http://www.w3.org/1999/xlink">
 <defs>
  <style type="text/css">
   <![CDATA[
    .fil4 {fill:black}
    .fil3 {fill:black}
    .fil0 {fill:#2C3D51}
    .fil1 {fill:#FEC12B}
    .fil2 {fill:white;fill-opacity:0.301961}
    .fil5 {fill:url(#id0)}
   ]]>
  </style>
  <linearGradient id="id0" gradientUnits="userSpaceOnUse" x1="660.638" y1="470.125" x2="659.693" y2="737.42">
   <stop offset="0" style="stop-opacity:1; stop-color:#424857"/>
   <stop offset="1" style="stop-opacity:1; stop-color:#504282"/>
  </linearGradient>
 </defs>
 <g id="Layer_x0020_1">
  <metadata id="CorelCorpID_0Corel-Layer"/>
  <g id="_2537545757200">
   <path class="fil0" d="M0 217l0 29c1,2 2,3 3,5 2,7 5,13 8,19 3,4 6,7 11,12l0 0 0 0c11,10 25,16 41,17l0 0 1 0 0 0c34,1 66,-24 67,-63 1,-38 -25,-61 -54,-66l-2 -1 0 0 0 0 -2 0 -1 0c0,0 -1,0 -2,0l0 0 -2 0c-18,-1 -36,5 -49,20 -5,5 -10,11 -13,18l-4 8c-1,-1 -1,1 -2,2zm134 321c-49,0 -89,40 -89,89 0,50 40,90 89,90 1,0 2,0 3,0l0 254c0,96 79,175 175,175l417 0c1,1 2,2 3,3 150,179 109,272 109,272 192,-215 162,-259 204,-282 9,-3 17,-6 26,-10l0 0 0 0c59,-28 100,-88 100,-158l0 -254c48,-2 86,-41 86,-90 0,-48 -38,-87 -86,-89l0 -254c0,-96 -78,-175 -174,-175l-685 0c-96,0 -175,79 -175,175l0 254c-1,0 -2,0 -3,0zm-36 -434c4,23 20,36 38,40 5,2 10,2 16,2 10,0 20,-3 29,-8 18,-10 31,-31 24,-59 -5,-21 -18,-33 -34,-38 -6,-2 -12,-4 -19,-4 -13,0 -25,5 -34,12 -15,11 -25,30 -20,55zm185 -104c24,0 44,19 44,44 0,24 -20,43 -44,43 -24,0 -43,-19 -43,-43 0,-25 19,-44 43,-44zm439 33c6,0 10,5 10,11 0,5 -4,10 -10,10 -6,0 -10,-5 -10,-10 0,-6 4,-11 10,-11zm-56 -4c9,0 15,6 15,15 0,8 -6,14 -15,14 -8,0 -14,-6 -14,-14 0,-9 6,-15 14,-15zm-73 -7c12,0 21,10 21,22 0,11 -9,21 -21,21 -12,0 -21,-10 -21,-21 0,-12 9,-22 21,-22zm-81 -4c14,0 26,11 26,26 0,14 -12,25 -26,25 -14,0 -26,-11 -26,-25 0,-15 12,-26 26,-26zm-102 -8c18,0 34,15 34,34 0,18 -16,33 -34,33 -19,0 -34,-15 -34,-33 0,-19 15,-34 34,-34z"/>
   <rect class="fil1" x="202" y="175" width="904" height="906" rx="153" ry="29"/>
   <path class="fil2" d="M355 175l598 0c84,0 153,68 153,152l0 201c-124,100 -281,159 -452,159 -171,0 -328,-59 -452,-159l0 -201c0,-84 69,-152 153,-152z"/>
   <path class="fil3" d="M542 945c12,0 22,5 29,13l126 0c103,0 207,-85 207,-85 0,0 -10,42 -79,95 -70,53 -165,50 -165,50l-112 0c-2,0 -4,1 -6,1 -2,0 -3,-1 -5,-1l0 0 0 0c-18,-2 -32,-18 -32,-36 0,-21 17,-37 37,-37z"/>
   <path class="fil4" d="M366 778c-170,-14 -149,-148 -169,-216 -10,-33 -26,-64 -48,-64 0,0 -9,-38 -9,-38 18,-18 133,-27 133,-27 116,0 218,-25 341,60l46 0 46 0c124,-85 226,-60 342,-60 0,0 115,9 132,27 0,0 -9,38 -9,38 -22,0 -37,31 -47,64 -21,68 1,202 -170,216l-65 0c-164,0 -164,-158 -194,-223 -9,-21 -22,-30 -35,-31 -13,1 -25,10 -35,31 -30,65 -30,223 -194,223l-65 0zm721 -251c0,-28 -21,-51 -49,-53 0,-9 -200,-1 -231,11 -72,28 -74,44 -58,121 14,71 63,122 149,130 132,14 202,-85 189,-209zm-854 0c0,-28 22,-51 49,-53 0,-9 200,-1 231,11 73,28 74,44 58,121 -14,71 -63,122 -149,130 -132,14 -202,-85 -189,-209z"/>
   <path class="fil5" d="M233 527c0,-28 22,-51 49,-53 0,-9 200,-1 231,11 73,28 74,44 58,121 -14,71 -63,122 -149,130 -132,14 -202,-85 -189,-209zm854 0c0,-28 -21,-51 -49,-53 0,-9 -200,-1 -231,11 -72,28 -74,44 -58,121 14,71 63,122 149,130 132,14 202,-85 189,-209z"/>
   <polygon class="fil4" points="188,459 140,460 108,542 137,538 155,499 "/>
   <polygon class="fil4" points="1132,459 1180,460 1199,544 1171,538 1165,499 "/>
  </g>
 </g>
</svg>
