<?xml version="1.0" encoding="UTF-8"?>
<!DOCTYPE svg PUBLIC "-//W3C//DTD SVG 1.1//EN" "http://www.w3.org/Graphics/SVG/1.1/DTD/svg11.dtd">
<!-- Creator: CorelDRAW X8 -->
<svg xmlns="http://www.w3.org/2000/svg" xml:space="preserve" width="29.3356mm" height="33.8834mm" version="1.1" style="shape-rendering:geometricPrecision; text-rendering:geometricPrecision; image-rendering:optimizeQuality; fill-rule:evenodd; clip-rule:evenodd"
viewBox="0 0 4268 4929"
 xmlns:xlink="http://www.w3.org/1999/xlink">
 <defs>
  <style type="text/css">
   <![CDATA[
    .fil2 {fill:#21302B}
    .fil0 {fill:#2C3D51}
    .fil6 {fill:#6F4104}
    .fil3 {fill:red}
    .fil1 {fill:#FFBD2D}
    .fil4 {fill:white;fill-opacity:0.301961}
    .fil5 {fill:white;fill-opacity:0.501961}
   ]]>
  </style>
     <mask id="id0">
  <radialGradient id="id1" gradientUnits="userSpaceOnUse" cx="714.957" cy="2266.42" r="0" fx="714.957" fy="2266.42">
   <stop offset="0" style="stop-opacity:0.588235; stop-color:white"/>
   <stop offset="1" style="stop-opacity:0; stop-color:white"/>
  </radialGradient>
      <rect style="fill:url(#id1)" x="700" y="2252" width="638" height="638"/>
     </mask>
     <mask id="id2">
  <radialGradient id="id3" gradientUnits="userSpaceOnUse" cx="2944.01" cy="2266.42" r="0" fx="2944.01" fy="2266.42">
   <stop offset="0" style="stop-opacity:0.588235; stop-color:white"/>
   <stop offset="1" style="stop-opacity:0; stop-color:white"/>
  </radialGradient>
      <rect style="fill:url(#id3)" x="2929" y="2252" width="638" height="638"/>
     </mask>
 </defs>
 <g id="Layer_x0020_1">
  <metadata id="CorelCorpID_0Corel-Layer"/>
  <g id="_2537611388688">
   <path class="fil0" d="M224 2609c-131,-48 -224,-174 -224,-321 0,-161 111,-296 261,-332 196,-849 957,-1482 1866,-1482 907,0 1667,631 1865,1479 157,30 276,169 276,335 0,153 -101,282 -239,326 -41,348 -175,668 -377,933l0 0c0,0 188,54 -14,1382 0,0 -110,-537 -972,-702l-1 0c-171,50 -351,77 -538,77 -984,0 -1794,-741 -1903,-1695z"/>
   <circle class="fil1" cx="2127" cy="2389" r="1703"/>
   <path class="fil2" d="M3149 2855c13,0 24,8 29,21 0,1 1,5 2,10 1,16 1,31 1,47 0,462 -470,837 -1049,837l-5 0 -6 0c-579,0 -1049,-375 -1049,-837 0,-16 1,-31 2,-47 0,-5 1,-9 2,-10 4,-13 15,-21 28,-21 10,0 18,4 24,12 1,1 2,3 3,6l0 0c154,351 540,601 996,608 455,-7 842,-257 995,-608l0 0c1,-3 3,-5 4,-6 5,-8 14,-12 23,-12z"/>
   <path class="fil0" d="M519 541c137,0 249,112 249,249 0,138 -112,250 -249,250 -138,0 -250,-112 -250,-250 0,-137 112,-249 250,-249zm2387 -306c19,0 34,16 34,34 0,19 -15,34 -34,34 -19,0 -34,-15 -34,-34 0,-18 15,-34 34,-34zm-192 -88c27,0 50,23 50,50 0,28 -23,50 -50,50 -28,0 -50,-22 -50,-50 0,-27 22,-50 50,-50zm-241 -79c41,0 74,33 74,74 0,41 -33,74 -74,74 -41,0 -74,-33 -74,-74 0,-41 33,-74 74,-74zm-277 -58c59,0 106,47 106,105 0,59 -47,106 -106,106 -58,0 -105,-47 -105,-106 0,-58 47,-105 105,-105zm-356 -10c76,0 138,61 138,137 0,76 -62,137 -138,137 -75,0 -137,-61 -137,-137 0,-76 62,-137 137,-137zm-425 46c101,0 182,82 182,183 0,101 -81,182 -182,182 -101,0 -183,-81 -183,-182 0,-101 82,-183 183,-183zm-431 168c117,0 212,95 212,212 0,117 -95,212 -212,212 -117,0 -212,-95 -212,-212 0,-117 95,-212 212,-212z"/>
   <g>
    <path class="fil3" style="mask:url(#id0)" d="M1019 2266c169,0 305,137 305,305 0,168 -136,304 -305,304 -168,0 -304,-136 -304,-304 0,-168 136,-305 304,-305z"/>
    <path class="fil3" style="mask:url(#id2)" d="M3248 2266c169,0 305,137 305,305 0,168 -136,304 -305,304 -168,0 -304,-136 -304,-304 0,-168 136,-305 304,-305z"/>
   </g>
   <path class="fil4" d="M2127 686c731,0 1355,461 1596,1109 -423,478 -982,770 -1596,770 -614,0 -1174,-292 -1597,-770 241,-648 865,-1109 1597,-1109z"/>
   <path class="fil2" d="M3318 1912c-1,7 -7,13 -14,13 -92,0 -473,-301 -800,-7 -1,1 -2,2 -3,2 -2,3 -6,5 -10,5 -8,0 -14,-6 -14,-13l0 0 0 0c36,-537 841,-479 841,0z"/>
   <path class="fil5" d="M2906 1563c100,0 181,23 181,53 0,29 -81,53 -181,53 -100,0 -181,-24 -181,-53 0,-30 81,-53 181,-53z"/>
   <path class="fil2" d="M936 1912c0,7 6,13 13,13 92,0 473,-301 800,-7 2,1 3,2 3,2 3,3 7,5 11,5 7,0 13,-6 13,-13l0 0 0 0c-36,-537 -840,-479 -840,0z"/>
   <path class="fil5" d="M1347 1563c-100,0 -181,23 -181,53 0,29 81,53 181,53 101,0 182,-24 182,-53 0,-30 -81,-53 -182,-53z"/>
   <g>
    <path class="fil6" d="M1734 1411c0,25 -20,45 -45,45 -278,-82 -402,-101 -804,90 218,-322 789,-294 849,-135z"/>
    <path class="fil6" d="M2519 1411c0,25 21,45 46,45 278,-82 402,-101 804,90 -219,-322 -789,-294 -850,-135z"/>
   </g>
  </g>
 </g>
</svg>
