<?xml version="1.0" encoding="UTF-8"?>
<!DOCTYPE svg PUBLIC "-//W3C//DTD SVG 1.1//EN" "http://www.w3.org/Graphics/SVG/1.1/DTD/svg11.dtd">
<!-- Creator: CorelDRAW X8 -->
<svg xmlns="http://www.w3.org/2000/svg" xml:space="preserve" width="29.3356mm" height="33.8834mm" version="1.1" style="shape-rendering:geometricPrecision; text-rendering:geometricPrecision; image-rendering:optimizeQuality; fill-rule:evenodd; clip-rule:evenodd"
viewBox="0 0 487 562"
 xmlns:xlink="http://www.w3.org/1999/xlink">
 <defs>
  <style type="text/css">
   <![CDATA[
    .fil4 {fill:#2B3B47}
    .fil0 {fill:#2C3D51}
    .fil3 {fill:#F2A74E}
    .fil1 {fill:#FFBD2D}
    .fil2 {fill:white;fill-opacity:0.301961}
   ]]>
  </style>
 </defs>
 <g id="Layer_x0020_1">
  <metadata id="CorelCorpID_0Corel-Layer"/>
  <g id="_1488333164800">
   <path class="fil0" d="M26 297c-15,-5 -26,-19 -26,-36 0,-18 13,-34 30,-38 22,-97 109,-169 212,-169 104,0 191,72 213,169 18,3 32,19 32,38 0,17 -12,32 -28,37 -4,40 -20,76 -43,106l0 0c0,0 22,7 -1,158 0,0 -13,-61 -111,-80l0 0c-20,6 -40,9 -62,9 -112,0 -204,-85 -216,-194z"/>
   <circle class="fil1" cx="242" cy="272" r="194"/>
   <path class="fil2" d="M242 78c84,0 155,53 183,127 -49,54 -113,87 -183,87 -70,0 -133,-33 -182,-87 28,-74 99,-127 182,-127z"/>
   <path class="fil0" d="M59 62c16,0 29,12 29,28 0,16 -13,29 -29,29 -16,0 -28,-13 -28,-29 0,-16 12,-28 28,-28zm272 -35c3,0 4,2 4,4 0,2 -1,4 -4,4 -2,0 -4,-2 -4,-4 0,-2 2,-4 4,-4zm-22 -10c4,0 6,2 6,5 0,4 -2,6 -6,6 -3,0 -5,-2 -5,-6 0,-3 2,-5 5,-5zm-27 -9c5,0 8,4 8,8 0,5 -3,9 -8,9 -5,0 -8,-4 -8,-9 0,-4 3,-8 8,-8zm-32 -7c7,0 13,6 13,12 0,7 -6,12 -13,12 -6,0 -12,-5 -12,-12 0,-6 6,-12 12,-12zm-40 -1c8,0 15,7 15,16 0,8 -7,15 -15,15 -9,0 -16,-7 -16,-15 0,-9 7,-16 16,-16zm-49 5c12,0 21,10 21,21 0,12 -9,21 -21,21 -11,0 -21,-9 -21,-21 0,-11 10,-21 21,-21zm-49 19c14,0 24,11 24,25 0,13 -10,24 -24,24 -13,0 -24,-11 -24,-24 0,-14 11,-25 24,-25z"/>
   <g>
    <g>
     <path class="fil3" d="M140 167c0,9 8,5 11,3 6,-6 14,-9 23,-9 8,0 16,3 23,9 2,2 10,6 10,-3 0,-13 -17,-18 -33,-17 -17,-1 -34,4 -34,17z"/>
     <path class="fil4" d="M172 188c-18,0 -32,15 -32,33l0 0 15 0c4,-4 11,-7 17,-7 7,0 13,3 18,7l15 0 0 0c0,-18 -15,-33 -33,-33z"/>
    </g>
    <g>
     <path class="fil3" d="M279 167c0,9 8,5 10,3 7,-6 15,-9 23,-9 9,0 17,3 23,9 3,2 10,6 10,-3 0,-13 -16,-18 -33,-17 -16,-1 -33,4 -33,17z"/>
     <path class="fil4" d="M311 188c-18,0 -33,15 -33,33l0 0 15 0c5,-4 11,-7 18,-7 7,0 13,3 18,7l15 0 0 0c0,-18 -15,-33 -33,-33z"/>
    </g>
   </g>
   <path class="fil4" d="M146 361l0 0 0 0 0 0 0 0 0 0 0 0 0 0 0 0 0 0 0 0 -1 0 0 0 0 0 0 0c-1,0 -1,0 -2,-1l-1 0 0 0 0 0 0 0 0 0 0 0 0 0 0 0 0 0 0 0 0 0 0 0 -1 0 0 0 0 0 0 0c-5,0 -10,5 -10,10l0 0 0 1 0 0 0 0 0 0 0 0 0 1 0 0c0,0 0,0 0,0l0 1c1,0 1,1 1,2l0 0 0 0 0 0 1 1 0 0c0,0 1,1 1,1l0 1 0 0c0,0 29,41 102,41 2,0 4,0 6,0 3,0 5,0 7,0 73,0 102,-41 102,-41l0 0 0 -1c0,0 1,-1 1,-1l0 0 1 -1 0 0 0 0 0 0c0,-1 0,-2 1,-2l0 -1c0,0 0,0 0,0l0 0 0 -1 0 0 0 0 0 0 0 0 0 -1 0 0c0,-5 -5,-10 -10,-10l0 0 0 0 0 0 -1 0 0 0 0 0 0 0 0 0 0 0 0 0 0 0 0 0 0 0 0 0 -1 0 0 0c-1,1 -1,1 -2,1l0 0 0 0 0 0 -1 0 0 0 0 0 0 0 0 0 0 0 0 0 0 0 0 0 0 0 0 0 0 1c-5,2 -45,21 -90,23 -2,0 -4,0 -7,0 -2,0 -4,0 -6,0 -45,-2 -85,-21 -90,-23l0 -1z"/>
  </g>
 </g>
</svg>
