<?xml version="1.0" encoding="UTF-8"?>
<!DOCTYPE svg PUBLIC "-//W3C//DTD SVG 1.1//EN" "http://www.w3.org/Graphics/SVG/1.1/DTD/svg11.dtd">
<!-- Creator: CorelDRAW X8 -->
<svg xmlns="http://www.w3.org/2000/svg" xml:space="preserve" width="29.3356mm" height="33.8834mm" version="1.1" style="shape-rendering:geometricPrecision; text-rendering:geometricPrecision; image-rendering:optimizeQuality; fill-rule:evenodd; clip-rule:evenodd"
viewBox="0 0 485 560"
 xmlns:xlink="http://www.w3.org/1999/xlink">
 <defs>
  <style type="text/css">
   <![CDATA[
    .fil3 {fill:#181B32}
    .fil4 {fill:#1A1626}
    .fil0 {fill:#2C3D51}
    .fil5 {fill:#FCFDFE}
    .fil6 {fill:#FD7383}
    .fil1 {fill:#FFBD2D}
    .fil2 {fill:white;fill-opacity:0.301961}
   ]]>
  </style>
     <mask id="id0">
  <radialGradient id="id1" gradientUnits="userSpaceOnUse" cx="173.365" cy="397.731" r="0" fx="173.365" fy="397.731">
   <stop offset="0" style="stop-opacity:1; stop-color:white"/>
   <stop offset="1" style="stop-opacity:0.568627; stop-color:white"/>
  </radialGradient>
      <rect style="fill:url(#id1)" x="172" y="396" width="139.885" height="42.7044"/>
     </mask>
 </defs>
 <g id="Layer_x0020_1">
  <metadata id="CorelCorpID_0Corel-Layer"/>
  <g id="_2537611345616">
   <path class="fil0" d="M25 296c-14,-5 -25,-19 -25,-36 0,-18 13,-34 30,-38 22,-96 108,-168 212,-168 103,0 189,72 212,168 17,3 31,19 31,38 0,17 -11,32 -27,37 -5,40 -20,76 -43,106l0 0c0,0 21,6 -2,157 0,0 -12,-61 -110,-80l0 0c-20,6 -40,9 -61,9 -112,0 -204,-84 -217,-193z"/>
   <circle class="fil1" cx="242" cy="271" r="194"/>
   <path class="fil2" d="M242 78c83,0 154,52 181,126 -48,54 -112,87 -181,87 -70,0 -134,-33 -182,-87 28,-74 99,-126 182,-126z"/>
   <path class="fil0" d="M59 62c16,0 28,12 28,28 0,15 -12,28 -28,28 -16,0 -28,-13 -28,-28 0,-16 12,-28 28,-28zm271 -35c2,0 4,1 4,4 0,2 -2,3 -4,3 -2,0 -4,-1 -4,-3 0,-3 2,-4 4,-4zm-22 -10c3,0 6,2 6,5 0,4 -3,6 -6,6 -3,0 -5,-2 -5,-6 0,-3 2,-5 5,-5zm-27 -9c5,0 8,4 8,8 0,5 -3,8 -8,8 -5,0 -8,-3 -8,-8 0,-4 3,-8 8,-8zm-31 -7c6,0 12,5 12,12 0,7 -6,12 -12,12 -7,0 -12,-5 -12,-12 0,-7 5,-12 12,-12zm-41 -1c9,0 16,7 16,16 0,8 -7,15 -16,15 -8,0 -15,-7 -15,-15 0,-9 7,-16 15,-16zm-48 5c11,0 21,9 21,21 0,11 -10,21 -21,21 -12,0 -21,-10 -21,-21 0,-12 9,-21 21,-21zm-49 19c13,0 24,11 24,24 0,14 -11,24 -24,24 -13,0 -24,-10 -24,-24 0,-13 11,-24 24,-24z"/>
   <g>
    <ellipse class="fil3" cx="160" cy="200" rx="32" ry="56"/>
    <ellipse class="fil3" cx="321" cy="200" rx="32" ry="56"/>
    <path class="fil4" d="M248 449l0 0c-1,0 -2,0 -3,0l0 0c-1,0 -2,0 -3,0l0 0c-1,0 -2,0 -3,0l0 0c-1,0 -2,0 -3,0l-1 0c-65,-3 -138,-46 -139,-109 0,-2 0,-4 0,-6 -5,-36 94,-35 141,-35l0 0 2 0 1 0 1 0 1 0 2 0 0 0 3 0 0 0c46,0 145,-1 140,35 0,2 0,4 0,6 0,63 -74,106 -139,109z"/>
    <path class="fil5" d="M122 355l2 0 236 0 1 0c5,0 9,-3 10,-8 2,-1 2,-2 1,-3 1,0 1,0 1,-1 4,-32 -131,-30 -131,-30l0 0 -1 0c0,0 -135,-2 -130,30 0,1 0,1 0,1 -1,1 0,2 1,3 2,5 5,8 10,8z"/>
    <path class="fil6" style="mask:url(#id0)" d="M242 398c37,0 68,9 68,19 0,11 -31,20 -68,20 -38,0 -69,-9 -69,-20 0,-10 31,-19 69,-19z"/>
   </g>
  </g>
 </g>
</svg>
