<?xml version="1.0" encoding="UTF-8"?>
<!DOCTYPE svg PUBLIC "-//W3C//DTD SVG 1.1//EN" "http://www.w3.org/Graphics/SVG/1.1/DTD/svg11.dtd">
<!-- Creator: CorelDRAW X8 -->
<svg xmlns="http://www.w3.org/2000/svg" xml:space="preserve" width="31.4547mm" height="35.6728mm" version="1.1" style="shape-rendering:geometricPrecision; text-rendering:geometricPrecision; image-rendering:optimizeQuality; fill-rule:evenodd; clip-rule:evenodd"
viewBox="0 0 355 403"
 xmlns:xlink="http://www.w3.org/1999/xlink">
 <defs>
  <style type="text/css">
   <![CDATA[
    .fil3 {fill:#181B32}
    .fil4 {fill:#1A1626}
    .fil0 {fill:#2C3D51}
    .fil5 {fill:#FCFDFE}
    .fil6 {fill:#FD7383}
    .fil1 {fill:#FEC12B}
    .fil2 {fill:white;fill-opacity:0.301961}
   ]]>
  </style>
     <mask id="id0">
  <radialGradient id="id1" gradientUnits="userSpaceOnUse" cx="138.788" cy="267.5" r="0" fx="138.788" fy="267.5">
   <stop offset="0" style="stop-opacity:1; stop-color:white"/>
   <stop offset="1" style="stop-opacity:0.568627; stop-color:white"/>
  </radialGradient>
      <rect style="fill:url(#id1)" x="138" y="266" width="95.5459" height="29.1685"/>
     </mask>
 </defs>
 <g id="Layer_x0020_1">
  <metadata id="CorelCorpID_0Corel-Layer"/>
  <g id="_2537611348112">
   <path class="fil0" d="M0 61l0 9c0,0 1,1 1,1 0,2 1,4 2,6 1,1 2,2 3,3l0 0 0 0c3,3 7,5 12,5l0 0 0 0 0 0c10,0 19,-7 19,-18 0,-11 -7,-17 -15,-19l-1 0 0 0 0 0 0 0 0 0c-1,0 -1,0 -1,0l0 0 -1 0c-5,0 -10,1 -14,5 -1,2 -2,4 -3,6l-2 2c0,0 0,0 0,0zm37 91c-14,0 -26,12 -26,26 0,14 12,25 26,25 1,0 1,0 2,0l0 72c0,27 22,50 49,50l119 0c0,0 0,0 0,1 43,50 31,77 31,77 55,-61 46,-74 58,-80 3,-1 5,-2 7,-3l1 0 0 0c16,-8 28,-25 28,-45l0 -72c13,-1 23,-12 23,-25 0,-14 -10,-25 -23,-26l0 -72c0,-27 -22,-49 -50,-49l-194 0c-27,0 -49,22 -49,49l0 72c-1,0 -1,0 -2,0zm-9 -123c1,7 5,11 10,12 2,0 3,1 5,1 3,0 6,-1 8,-3 5,-3 9,-9 7,-17 -1,-5 -5,-9 -9,-10 -2,-1 -4,-1 -6,-1 -4,0 -7,1 -9,3 -5,3 -8,8 -6,15zm52 -29c7,0 13,6 13,12 0,7 -6,13 -13,13 -7,0 -12,-6 -12,-13 0,-6 5,-12 12,-12zm125 9c1,0 3,2 3,3 0,2 -2,3 -3,3 -2,0 -3,-1 -3,-3 0,-1 1,-3 3,-3zm-16 -1c2,0 4,2 4,4 0,3 -2,4 -4,4 -2,0 -4,-1 -4,-4 0,-2 2,-4 4,-4zm-21 -2c3,0 6,3 6,6 0,4 -3,6 -6,6 -3,0 -6,-2 -6,-6 0,-3 3,-6 6,-6zm-23 -1c4,0 7,3 7,7 0,4 -3,8 -7,8 -4,0 -7,-4 -7,-8 0,-4 3,-7 7,-7zm-29 -2c5,0 10,4 10,9 0,6 -5,10 -10,10 -5,0 -9,-4 -9,-10 0,-5 4,-9 9,-9z"/>
   <rect class="fil1" x="57" y="49" width="256" height="257" rx="43" ry="8"/>
   <path class="fil2" d="M101 49l169 0c24,0 43,20 43,44l0 57c-35,28 -79,45 -128,45 -48,0 -93,-17 -128,-45l0 -57c0,-24 20,-44 44,-44z"/>
   <g>
    <ellipse class="fil3" cx="130" cy="132" rx="22" ry="38"/>
    <ellipse class="fil3" cx="240" cy="132" rx="22" ry="38"/>
    <path class="fil4" d="M190 302l-1 0c0,1 -1,1 -1,1l0 0c-1,0 -2,0 -3,0l0 0c0,0 -1,0 -2,0l0 0c0,0 -1,0 -2,-1l0 0c-45,-1 -95,-31 -95,-74 0,-1 0,-3 0,-4 -3,-25 64,-24 96,-24l0 0 2 0 0 0 1 0 1 0 1 0 0 0 2 0 0 0c31,0 99,-1 96,24 0,1 0,3 0,4 0,43 -51,73 -95,74z"/>
    <path class="fil5" d="M104 238l1 0 161 0 1 0c3,0 6,-2 7,-5 1,-1 1,-2 1,-2 0,0 0,-1 0,-1 3,-22 -89,-21 -89,-21l-1 1 0 -1c0,0 -92,-1 -89,21 0,0 0,1 0,1 0,0 0,1 1,2 1,3 3,5 7,5z"/>
    <path class="fil6" style="mask:url(#id0)" d="M185 268c26,0 47,6 47,13 0,7 -21,13 -47,13 -25,0 -46,-6 -46,-13 0,-7 21,-13 46,-13z"/>
   </g>
  </g>
 </g>
</svg>
