<?xml version="1.0" encoding="UTF-8"?>
<!DOCTYPE svg PUBLIC "-//W3C//DTD SVG 1.1//EN" "http://www.w3.org/Graphics/SVG/1.1/DTD/svg11.dtd">
<!-- Creator: CorelDRAW X8 -->
<svg xmlns="http://www.w3.org/2000/svg" xml:space="preserve" width="29.3356mm" height="33.8834mm" version="1.1" style="shape-rendering:geometricPrecision; text-rendering:geometricPrecision; image-rendering:optimizeQuality; fill-rule:evenodd; clip-rule:evenodd"
viewBox="0 0 390 451"
 xmlns:xlink="http://www.w3.org/1999/xlink">
 <defs>
  <style type="text/css">
   <![CDATA[
    .str0 {stroke:black;stroke-width:2.65917}
    .fil3 {fill:black}
    .fil6 {fill:aqua}
    .fil0 {fill:#2C3D51}
    .fil4 {fill:#3C0404}
    .fil5 {fill:#A12210}
    .fil1 {fill:#FFBD2D}
    .fil2 {fill:white;fill-opacity:0.301961}
    .fil7 {fill:white;fill-opacity:0.450980}
    .fil8 {fill:white;fill-opacity:0.470588}
   ]]>
  </style>
 </defs>
 <g id="Layer_x0020_1">
  <metadata id="CorelCorpID_0Corel-Layer"/>
  <path class="fil0" d="M21 238c-12,-4 -21,-15 -21,-29 0,-15 10,-27 24,-30 18,-78 87,-136 170,-136 83,0 153,58 171,135 14,3 25,16 25,31 0,14 -9,26 -22,30 -4,32 -16,61 -34,85l0 0c0,0 17,5 -2,127 0,0 -10,-50 -88,-65l0 0c-16,5 -33,7 -50,7 -89,0 -164,-67 -173,-155z"/>
  <circle class="fil1" cx="194" cy="218" r="156"/>
  <path class="fil2" d="M194 63c67,0 124,42 146,101 -38,44 -90,70 -146,70 -56,0 -107,-26 -146,-70 22,-59 79,-101 146,-101z"/>
  <path class="fil0" d="M47 49c13,0 23,11 23,23 0,13 -10,23 -23,23 -12,0 -22,-10 -22,-23 0,-12 10,-23 22,-23zm219 -27c1,0 3,1 3,3 0,1 -2,3 -3,3 -2,0 -3,-2 -3,-3 0,-2 1,-3 3,-3zm-18 -9c3,0 5,3 5,5 0,3 -2,5 -5,5 -3,0 -5,-2 -5,-5 0,-2 2,-5 5,-5zm-22 -7c4,0 7,3 7,7 0,4 -3,7 -7,7 -4,0 -7,-3 -7,-7 0,-4 3,-7 7,-7zm-25 -5c5,0 9,4 9,10 0,5 -4,9 -9,9 -6,0 -10,-4 -10,-9 0,-6 4,-10 10,-10zm-33 -1c7,0 13,6 13,13 0,6 -6,12 -13,12 -7,0 -12,-6 -12,-12 0,-7 5,-13 12,-13zm-39 4c10,0 17,8 17,17 0,9 -7,17 -17,17 -9,0 -16,-8 -16,-17 0,-9 7,-17 16,-17zm-39 16c11,0 19,8 19,19 0,11 -8,19 -19,19 -11,0 -19,-8 -19,-19 0,-11 8,-19 19,-19z"/>
  <g id="_2537544327632">
   <path class="fil3" d="M158 185c3,0 4,2 4,4 0,1 0,2 0,2 0,0 -5,19 -32,19 -27,0 -35,-13 -35,-13 -1,-1 -2,-2 -2,-3 0,-3 2,-4 5,-4 1,0 2,0 2,1l0 0c1,0 1,1 2,1 2,4 11,12 27,10 18,-2 24,-11 25,-14 0,0 0,-1 0,-1l0 0c1,-1 3,-2 4,-2z"/>
   <path class="fil3" d="M231 185c-3,0 -5,2 -5,4 0,1 0,2 1,2 0,0 5,19 32,19 27,0 35,-13 35,-13 1,-1 1,-2 1,-3 0,-3 -1,-4 -4,-4 -1,0 -2,0 -3,1l0 0c0,0 -1,1 -1,1 -3,4 -11,12 -27,10 -18,-2 -24,-11 -25,-14 0,0 -1,-1 -1,-1l0 0c0,-1 -2,-2 -3,-2z"/>
  </g>
  <g id="_2537544331216">
   <path class="fil4" d="M194 246c26,0 47,14 47,30 0,8 0,12 0,19 0,4 -3,8 -8,8 -5,0 -9,-18 -39,-18 -29,0 -33,18 -39,18 -4,0 -7,-4 -7,-8 0,-7 0,-11 0,-19 0,-16 21,-30 46,-30z"/>
   <path class="fil5" d="M241 290l0 5c0,4 -3,8 -8,8 -5,0 -9,-18 -39,-18 -29,0 -33,18 -39,18 -4,0 -7,-4 -7,-8l0 -6c21,-14 54,-25 93,1z"/>
  </g>
  <path class="fil6 str0" d="M318 255c0,0 1,1 1,1l0 0 0 0c2,4 2,9 2,13 0,17 -14,31 -31,31 -14,0 -27,-10 -30,-23l0 0 0 0 0 0 0 0 0 0 0 0 -6 -22c-6,-23 -43,-14 -43,-14 0,0 74,-55 107,14z"/>
  <path class="fil7" d="M221 234c19,-11 60,-28 87,5 -20,4 -55,1 -87,-5z"/>
  <path class="fil8" d="M308 255c2,0 5,4 5,9 0,5 -3,9 -5,9 -3,0 -5,-4 -5,-9 0,-5 2,-9 5,-9z"/>
 </g>
</svg>
