<?xml version="1.0" encoding="UTF-8"?>
<!DOCTYPE svg PUBLIC "-//W3C//DTD SVG 1.1//EN" "http://www.w3.org/Graphics/SVG/1.1/DTD/svg11.dtd">
<!-- Creator: CorelDRAW X8 -->
<svg xmlns="http://www.w3.org/2000/svg" xml:space="preserve" width="31.9807mm" height="35.7272mm" version="1.1" style="shape-rendering:geometricPrecision; text-rendering:geometricPrecision; image-rendering:optimizeQuality; fill-rule:evenodd; clip-rule:evenodd"
viewBox="0 0 860 960"
 xmlns:xlink="http://www.w3.org/1999/xlink">
 <defs>
  <style type="text/css">
   <![CDATA[
    .str0 {stroke:black;stroke-width:5.37527}
    .fil8 {fill:black}
    .fil5 {fill:aqua}
    .fil0 {fill:#2C3D51}
    .fil3 {fill:#3C0404}
    .fil4 {fill:#A12210}
    .fil1 {fill:#FEC12B}
    .fil2 {fill:white;fill-opacity:0.301961}
    .fil6 {fill:white;fill-opacity:0.450980}
    .fil7 {fill:white;fill-opacity:0.470588}
   ]]>
  </style>
 </defs>
 <g id="Layer_x0020_1">
  <metadata id="CorelCorpID_0Corel-Layer"/>
  <path class="fil0" d="M210 75l462 0c64,0 117,53 117,118l0 175c4,-1 7,-1 10,-1 34,0 61,27 61,60 0,33 -27,60 -61,60 -3,0 -6,0 -10,0l0 170c0,46 -27,87 -67,106l0 0 0 0c-6,3 -12,5 -18,7 -28,15 -8,45 -138,190 0,0 29,-63 -73,-184 -1,0 -1,-1 -2,-2l-281 0c-65,0 -118,-53 -118,-117l0 -170c-29,-5 -50,-30 -50,-60 0,-30 21,-55 50,-59l0 -175c0,-65 53,-118 118,-118z"/>
  <rect class="fil1" x="136" y="119" width="610" height="611" rx="103" ry="19"/>
  <path class="fil2" d="M239 119l403 0c57,0 103,47 103,103l0 136c-83,67 -189,107 -304,107 -116,0 -222,-40 -305,-107l0 -136c0,-56 46,-103 103,-103z"/>
  <path class="fil0" d="M0 146l0 20c1,1 1,2 2,3 1,5 3,9 6,13 1,3 3,5 7,8l0 0 0 0c7,7 17,11 28,12l0 0 0 0 0 0c23,0 45,-17 45,-43 1,-25 -16,-41 -36,-44l-1 -1 0 0 -1 0 -1 0 0 0c-1,0 -1,0 -2,0l0 0 -1 0c-12,-1 -24,4 -33,13 -4,4 -7,8 -9,12l-3 6c0,-1 -1,1 -1,1zm66 -76c3,15 13,24 26,27 3,1 7,2 10,2 8,0 14,-2 20,-6 12,-7 21,-20 16,-40 -3,-14 -12,-22 -23,-25 -4,-2 -8,-3 -13,-3 -8,0 -16,3 -22,8 -11,7 -17,20 -14,37zm125 -70c16,0 30,13 30,29 0,17 -14,30 -30,30 -16,0 -29,-13 -29,-30 0,-16 13,-29 29,-29zm296 22c4,0 7,4 7,7 0,4 -3,7 -7,7 -4,0 -7,-3 -7,-7 0,-3 3,-7 7,-7zm-37 -3c5,0 10,5 10,10 0,6 -5,10 -10,10 -6,0 -10,-4 -10,-10 0,-5 4,-10 10,-10zm-50 -4c8,0 14,6 14,14 0,8 -6,15 -14,15 -8,0 -14,-7 -14,-15 0,-8 6,-14 14,-14zm-55 -3c10,0 18,8 18,17 0,10 -8,18 -18,18 -9,0 -17,-8 -17,-18 0,-9 8,-17 17,-17zm-69 -5c13,0 23,10 23,22 0,13 -10,23 -23,23 -12,0 -22,-10 -22,-23 0,-12 10,-22 22,-22z"/>
  <g id="_2537691793232">
   <path class="fil3" d="M441 522c52,0 94,27 94,61 0,15 0,25 0,38 0,9 -7,16 -16,16 -10,0 -18,-36 -78,-36 -61,0 -68,36 -79,36 -9,0 -16,-7 -16,-16 0,-13 0,-23 0,-38 0,-34 43,-61 95,-61z"/>
   <path class="fil4" d="M535 610l0 11c0,9 -7,16 -16,16 -10,0 -18,-36 -78,-36 -61,0 -68,36 -79,36 -9,0 -16,-7 -16,-16l0 -13c43,-27 110,-49 189,2z"/>
  </g>
  <path class="fil5 str0" d="M686 540c1,1 1,2 2,3l0 0 0 0c3,8 5,16 5,25 0,35 -28,64 -63,64 -29,0 -54,-20 -61,-48l0 0 0 0 0 0 0 0 0 0 0 0 -12 -45c-11,-45 -88,-28 -88,-28 0,0 150,-111 217,29z"/>
  <path class="fil6" d="M489 498c39,-21 123,-57 177,10 -40,9 -110,1 -177,-10z"/>
  <path class="fil7" d="M665 540c6,0 10,8 10,18 0,10 -4,18 -10,18 -5,0 -10,-8 -10,-18 0,-10 5,-18 10,-18z"/>
  <g id="_2537691794160">
   <path class="fil8" d="M368 367c4,0 8,3 8,8 0,2 0,3 -1,5 0,0 -10,37 -65,37 -55,0 -71,-26 -71,-26 -2,-2 -3,-4 -3,-7 0,-4 4,-8 9,-8 2,0 4,0 6,2l0 0c1,1 2,2 2,3 6,8 22,24 55,20 36,-4 48,-22 51,-28 0,-1 1,-2 1,-2l0 0c1,-3 4,-4 8,-4z"/>
   <path class="fil8" d="M514 367c-5,0 -9,3 -9,8 0,2 1,3 1,5 0,0 10,37 65,37 55,0 71,-26 71,-26 2,-2 3,-4 3,-7 0,-4 -4,-8 -9,-8 -2,0 -4,0 -5,2l0 0c-2,1 -2,2 -3,3 -6,8 -22,24 -55,20 -36,-4 -48,-22 -51,-28 0,-1 0,-2 -1,-2l0 0c-1,-3 -4,-4 -7,-4z"/>
  </g>
 </g>
</svg>
