<?xml version="1.0" encoding="UTF-8"?>
<!DOCTYPE svg PUBLIC "-//W3C//DTD SVG 1.1//EN" "http://www.w3.org/Graphics/SVG/1.1/DTD/svg11.dtd">
<!-- Creator: CorelDRAW X8 -->
<svg xmlns="http://www.w3.org/2000/svg" xml:space="preserve" width="31.6375mm" height="35.6728mm" version="1.1" style="shape-rendering:geometricPrecision; text-rendering:geometricPrecision; image-rendering:optimizeQuality; fill-rule:evenodd; clip-rule:evenodd"
viewBox="0 0 840 947"
 xmlns:xlink="http://www.w3.org/1999/xlink">
 <defs>
  <style type="text/css">
   <![CDATA[
    .fil3 {fill:#2B3B47}
    .fil0 {fill:#2C3D51}
    .fil4 {fill:#F2A74E}
    .fil1 {fill:#FEC12B}
    .fil5 {fill:#FF473E}
    .fil7 {fill:#FF473E;fill-rule:nonzero}
    .fil6 {fill:#FF7DDA;fill-rule:nonzero}
    .fil2 {fill:white;fill-opacity:0.301961}
   ]]>
  </style>
 </defs>
 <g id="Layer_x0020_1">
  <metadata id="CorelCorpID_0Corel-Layer"/>
  <g id="_2537545753808">
   <path class="fil0" d="M0 145l0 19c1,1 1,2 2,3 1,5 3,9 6,13 1,2 3,5 6,8l1 0 0 0c7,7 17,11 27,11l0 0 0 0 1 0c22,1 44,-16 44,-42 1,-25 -16,-41 -36,-44l-1 0 0 0 0 0 -2 0 0 0c0,0 -1,0 -1,0l-1 0 -1 -1c-12,0 -24,4 -33,14 -3,3 -6,7 -8,12l-3 5c0,0 -1,1 -1,2zm89 213c-32,0 -59,27 -59,60 0,33 27,60 59,60 1,0 2,0 3,0l0 169c0,64 52,116 116,116l278 0c1,1 1,2 2,2 100,120 72,182 72,182 128,-144 108,-173 136,-188 6,-2 12,-4 17,-7l1 0 0 0c39,-18 66,-59 66,-105l0 -169c32,-1 58,-28 58,-60 0,-32 -26,-58 -58,-59l0 -170c0,-64 -52,-116 -116,-116l-456 0c-64,0 -116,52 -116,116l0 170c-1,0 -2,-1 -3,-1zm-24 -289c3,15 13,24 25,27 4,1 7,2 11,2 7,0 14,-2 19,-6 13,-7 21,-20 16,-40 -3,-13 -12,-21 -22,-25 -4,-1 -8,-2 -13,-2 -8,0 -16,3 -22,8 -10,7 -17,19 -14,36zm124 -69c16,0 29,13 29,29 0,16 -13,29 -29,29 -16,0 -29,-13 -29,-29 0,-16 13,-29 29,-29zm292 22c4,0 7,3 7,7 0,4 -3,7 -7,7 -4,0 -7,-3 -7,-7 0,-4 3,-7 7,-7zm-37 -3c5,0 10,5 10,10 0,5 -5,10 -10,10 -5,0 -10,-5 -10,-10 0,-5 5,-10 10,-10zm-49 -4c8,0 14,6 14,14 0,8 -6,14 -14,14 -8,0 -14,-6 -14,-14 0,-8 6,-14 14,-14zm-54 -3c10,0 17,7 17,17 0,10 -7,17 -17,17 -9,0 -17,-7 -17,-17 0,-10 8,-17 17,-17zm-68 -6c12,0 23,11 23,23 0,12 -11,23 -23,23 -12,0 -23,-11 -23,-23 0,-12 11,-23 23,-23z"/>
   <rect class="fil1" x="135" y="116" width="602" height="604" rx="102" ry="19"/>
   <path class="fil2" d="M237 116l398 0c56,0 102,46 102,102l0 134c-82,66 -187,106 -301,106 -114,0 -219,-40 -301,-106l0 -134c0,-56 46,-102 102,-102z"/>
   <path class="fil3" d="M336 367l-74 0 0 -80c0,-20 17,-37 37,-37l0 0c21,0 37,17 37,37l0 80z"/>
   <path class="fil4" d="M246 203c0,15 12,8 17,4 10,-9 23,-14 36,-14 14,0 27,5 37,14 5,4 16,11 16,-4 0,-20 -26,-29 -53,-28 -26,-1 -53,8 -53,28z"/>
   <path class="fil4" d="M519 257c0,14 12,7 17,3 10,-9 23,-14 36,-14 14,0 27,5 37,14 5,4 16,11 16,-3 0,-21 -26,-29 -53,-28 -26,-1 -53,7 -53,28z"/>
   <path class="fil3" d="M570 290c-29,0 -52,24 -52,53l0 0 24 0c8,-7 18,-11 28,-11 11,0 21,4 29,11l24 0 0 0c0,-29 -24,-53 -53,-53z"/>
   <g>
    <path class="fil5" d="M436 574c1,-1 3,-5 7,-8 40,-48 118,55 118,55 -35,98 -215,98 -250,0 0,0 78,-103 118,-55 4,3 6,7 7,8z"/>
    <path class="fil3" d="M436 639c23,0 41,-9 41,-21l0 0c-23,0 -27,5 -41,5 -14,0 -18,-5 -41,-5l0 0c0,12 18,21 41,21z"/>
   </g>
   <path class="fil6" d="M694 490c13,-22 26,-32 51,-32 28,0 50,19 50,43 0,44 -50,87 -101,131 -50,-44 -101,-87 -101,-131 0,-24 23,-43 51,-43 25,0 38,10 50,32z"/>
   <path class="fil7" d="M755 689c11,-16 21,-24 43,-24 23,0 42,14 42,31 0,32 -42,63 -85,94 -42,-31 -84,-62 -84,-94 0,-17 19,-31 42,-31 21,0 32,8 42,24z"/>
  </g>
 </g>
</svg>
