<?xml version="1.0" encoding="UTF-8"?>
<!DOCTYPE svg PUBLIC "-//W3C//DTD SVG 1.1//EN" "http://www.w3.org/Graphics/SVG/1.1/DTD/svg11.dtd">
<!-- Creator: CorelDRAW X8 -->
<svg xmlns="http://www.w3.org/2000/svg" xml:space="preserve" width="29.3356mm" height="33.8834mm" version="1.1" style="shape-rendering:geometricPrecision; text-rendering:geometricPrecision; image-rendering:optimizeQuality; fill-rule:evenodd; clip-rule:evenodd"
viewBox="0 0 390 451"
 xmlns:xlink="http://www.w3.org/1999/xlink">
 <defs>
  <style type="text/css">
   <![CDATA[
    .fil3 {fill:#2B3B47}
    .fil0 {fill:#2C3D51}
    .fil4 {fill:#F2A74E}
    .fil5 {fill:#FF473E}
    .fil1 {fill:#FFBD2D}
    .fil7 {fill:#FF473E;fill-rule:nonzero}
    .fil6 {fill:#FF7DDA;fill-rule:nonzero}
    .fil2 {fill:white;fill-opacity:0.301961}
   ]]>
  </style>
 </defs>
 <g id="Layer_x0020_1">
  <metadata id="CorelCorpID_0Corel-Layer"/>
  <g id="_2537701159536">
   <path class="fil0" d="M21 239c-12,-5 -21,-16 -21,-30 0,-14 10,-27 24,-30 18,-78 87,-136 171,-136 83,0 152,58 170,136 15,2 25,15 25,30 0,14 -9,26 -21,30 -4,32 -16,61 -35,86l0 0c0,0 17,4 -1,126 0,0 -10,-49 -89,-64l0 0c-16,4 -32,7 -49,7 -90,0 -164,-68 -174,-155z"/>
   <circle class="fil1" cx="195" cy="219" r="156"/>
   <path class="fil2" d="M195 63c66,0 124,42 146,101 -39,44 -90,71 -146,71 -57,0 -108,-27 -147,-71 23,-59 80,-101 147,-101z"/>
   <path class="fil0" d="M47 50c13,0 23,10 23,22 0,13 -10,23 -23,23 -12,0 -22,-10 -22,-23 0,-12 10,-22 22,-22zm219 -28c2,0 3,1 3,3 0,1 -1,3 -3,3 -2,0 -3,-2 -3,-3 0,-2 1,-3 3,-3zm-18 -9c3,0 5,3 5,5 0,3 -2,5 -5,5 -2,0 -4,-2 -4,-5 0,-2 2,-5 4,-5zm-22 -7c4,0 7,3 7,7 0,4 -3,7 -7,7 -3,0 -6,-3 -6,-7 0,-4 3,-7 6,-7zm-25 -5c5,0 10,4 10,10 0,5 -5,9 -10,9 -5,0 -10,-4 -10,-9 0,-6 5,-10 10,-10zm-33 -1c7,0 13,6 13,13 0,6 -6,12 -13,12 -7,0 -12,-6 -12,-12 0,-7 5,-13 12,-13zm-39 4c10,0 17,8 17,17 0,9 -7,17 -17,17 -9,0 -16,-8 -16,-17 0,-9 7,-17 16,-17zm-39 16c11,0 19,8 19,19 0,11 -8,19 -19,19 -11,0 -19,-8 -19,-19 0,-11 8,-19 19,-19z"/>
   <path class="fil3" d="M245 189l37 0 0 -40c0,-11 -9,-19 -19,-19l0 0c-10,0 -18,8 -18,19l0 40z"/>
   <path class="fil4" d="M290 107c0,7 -6,4 -9,2 -5,-5 -11,-7 -18,-8 -7,1 -13,3 -18,8 -3,2 -9,5 -9,-2 0,-11 14,-15 27,-14 13,-1 27,3 27,14z"/>
   <path class="fil4" d="M153 133c0,8 -6,4 -8,2 -6,-4 -12,-7 -19,-7 -6,0 -13,3 -18,7 -3,2 -8,6 -8,-2 0,-10 13,-14 26,-14 13,0 27,4 27,14z"/>
   <path class="fil3" d="M127 150c15,0 26,12 26,26l0 0 -12 0c-3,-3 -8,-5 -14,-5 -5,0 -10,2 -14,5l-12 0 0 0c0,-14 12,-26 26,-26z"/>
   <g>
    <path class="fil5" d="M196 288c0,-1 1,-2 3,-4 20,-24 59,27 59,27 -17,49 -107,49 -125,0 0,0 39,-51 60,-27 1,2 2,3 3,4z"/>
    <path class="fil3" d="M196 320c11,0 20,-4 20,-10l0 0c-11,0 -13,2 -20,2 -7,0 -9,-2 -21,-2l0 0c0,6 10,10 21,10z"/>
   </g>
   <path class="fil6" d="M314 242c5,-8 10,-13 21,-13 11,0 20,8 20,18 0,17 -20,35 -41,52 -20,-17 -40,-35 -40,-52 0,-10 9,-18 20,-18 10,0 15,5 20,13z"/>
   <path class="fil7" d="M339 322c4,-6 8,-10 17,-10 9,0 16,6 16,13 0,12 -16,25 -33,37 -17,-12 -34,-25 -34,-37 0,-7 8,-13 17,-13 8,0 13,4 17,10z"/>
  </g>
 </g>
</svg>
