<?xml version="1.0" encoding="UTF-8"?>
<!DOCTYPE svg PUBLIC "-//W3C//DTD SVG 1.1//EN" "http://www.w3.org/Graphics/SVG/1.1/DTD/svg11.dtd">
<!-- Creator: CorelDRAW X8 -->
<svg xmlns="http://www.w3.org/2000/svg" xml:space="preserve" width="29.3356mm" height="33.8834mm" version="1.1" style="shape-rendering:geometricPrecision; text-rendering:geometricPrecision; image-rendering:optimizeQuality; fill-rule:evenodd; clip-rule:evenodd"
viewBox="0 0 3778 4363"
 xmlns:xlink="http://www.w3.org/1999/xlink">
 <defs>
  <style type="text/css">
   <![CDATA[
    .fil0 {fill:#2C3D51}
    .fil1 {fill:#FFBD2D}
    .fil2 {fill:white;fill-opacity:0.301961}
   ]]>
  </style>
 </defs>
 <g id="Layer_x0020_1">
  <metadata id="CorelCorpID_0Corel-Layer"/>
  <g id="_2537813971296">
   <path class="fil0" d="M199 2309c-116,-42 -199,-153 -199,-284 0,-142 98,-262 231,-294 174,-751 847,-1312 1651,-1312 804,0 1476,559 1651,1309 139,27 245,150 245,297 0,135 -89,250 -212,289 -36,308 -155,591 -334,826l0 0c0,0 167,48 -12,1223 0,0 -98,-475 -861,-622l0 0c-151,45 -311,69 -477,69 -870,0 -1587,-656 -1683,-1501z"/>
   <circle class="fil1" cx="1882" cy="2114" r="1508"/>
   <path class="fil2" d="M1882 607c648,0 1200,408 1414,982 -375,423 -870,681 -1414,681 -543,0 -1039,-258 -1413,-681 214,-574 766,-982 1413,-982z"/>
   <path class="fil0" d="M459 479c122,0 221,99 221,221 0,121 -99,220 -221,220 -122,0 -221,-99 -221,-220 0,-122 99,-221 221,-221zm2113 -271c17,0 30,14 30,30 0,17 -13,31 -30,31 -16,0 -30,-14 -30,-31 0,-16 14,-30 30,-30zm-170 -78c24,0 44,20 44,45 0,24 -20,44 -44,44 -24,0 -44,-20 -44,-44 0,-25 20,-45 44,-45zm-213 -70c36,0 65,30 65,66 0,36 -29,65 -65,65 -36,0 -65,-29 -65,-65 0,-36 29,-66 65,-66zm-245 -51c52,0 94,41 94,93 0,52 -42,94 -94,94 -52,0 -94,-42 -94,-94 0,-52 42,-93 94,-93zm-315 -9c67,0 121,54 121,121 0,67 -54,122 -121,122 -67,0 -121,-55 -121,-122 0,-67 54,-121 121,-121zm-377 40c89,0 162,73 162,162 0,90 -73,162 -162,162 -89,0 -162,-72 -162,-162 0,-89 73,-162 162,-162zm-381 150c103,0 187,83 187,187 0,103 -84,187 -187,187 -104,0 -187,-84 -187,-187 0,-104 83,-187 187,-187z"/>
   <g>
    <path class="fil0" d="M1882 2706c206,0 372,99 372,221 0,39 -18,77 -48,109 -78,-19 -194,-31 -324,-31 -129,0 -246,12 -323,31 -31,-32 -48,-70 -48,-109 0,-122 166,-221 371,-221z"/>
    <g>
     <path class="fil0" d="M2310 1546c0,65 40,252 332,252 67,-1 179,-43 182,-107 7,-118 -126,-71 -241,-120 -132,-56 -239,-162 -273,-25z"/>
     <path class="fil0" d="M1455 1546c0,65 -41,252 -332,252 -67,-1 -179,-43 -182,-107 -7,-118 126,-71 241,-120 132,-56 239,-162 273,-25z"/>
    </g>
   </g>
  </g>
 </g>
</svg>
