<?xml version="1.0" encoding="UTF-8"?>
<!DOCTYPE svg PUBLIC "-//W3C//DTD SVG 1.1//EN" "http://www.w3.org/Graphics/SVG/1.1/DTD/svg11.dtd">
<!-- Creator: CorelDRAW X8 -->
<svg xmlns="http://www.w3.org/2000/svg" xml:space="preserve" width="31.564mm" height="35.6728mm" version="1.1" style="shape-rendering:geometricPrecision; text-rendering:geometricPrecision; image-rendering:optimizeQuality; fill-rule:evenodd; clip-rule:evenodd"
viewBox="0 0 1270 1435"
 xmlns:xlink="http://www.w3.org/1999/xlink">
 <defs>
  <style type="text/css">
   <![CDATA[
    .fil0 {fill:#2C3D51}
    .fil1 {fill:#FEC12B}
    .fil2 {fill:white;fill-opacity:0.301961}
   ]]>
  </style>
 </defs>
 <g id="Layer_x0020_1">
  <metadata id="CorelCorpID_0Corel-Layer"/>
  <g id="_2537696242064">
   <path class="fil0" d="M0 219l0 30c1,1 2,3 3,4 2,7 5,14 9,20 2,3 5,7 10,12l0 0 0 0c11,10 26,16 42,17l0 0 0 0 1 0c34,1 66,-25 67,-64 1,-38 -25,-61 -54,-67l-2 0 0 0 -1 0 -2 0 0 0c-1,0 -1,0 -2,0l-1 0 -1 -1c-18,0 -37,6 -50,20 -5,6 -9,12 -13,19l-4 8c-1,-1 -1,1 -2,2zm136 324c-50,0 -91,41 -91,91 0,50 41,90 91,90 1,0 2,0 3,0l0 257c0,97 79,176 176,176l422 0c1,1 1,2 2,3 152,181 110,275 110,275 194,-217 164,-261 206,-285 9,-2 18,-6 26,-10l1 0 0 0c59,-28 101,-89 101,-159l0 -257c48,-2 87,-41 87,-90 0,-49 -39,-89 -87,-91l0 -256c0,-97 -80,-177 -177,-177l-691 0c-97,0 -176,80 -176,177l0 256c-1,0 -2,0 -3,0zm-37 -438c4,23 20,36 38,41 5,1 11,2 16,2 11,0 21,-3 29,-8 19,-11 32,-31 25,-61 -5,-20 -19,-32 -34,-38 -6,-2 -13,-3 -20,-3 -13,0 -24,4 -34,11 -15,11 -25,30 -20,56zm187 -105c24,0 44,20 44,44 0,24 -20,44 -44,44 -24,0 -44,-20 -44,-44 0,-24 20,-44 44,-44zm443 33c6,0 11,5 11,11 0,6 -5,10 -11,10 -6,0 -10,-4 -10,-10 0,-6 4,-11 10,-11zm-56 -4c8,0 15,7 15,15 0,8 -7,15 -15,15 -8,0 -15,-7 -15,-15 0,-8 7,-15 15,-15zm-74 -6c12,0 21,9 21,21 0,12 -9,21 -21,21 -12,0 -22,-9 -22,-21 0,-12 10,-21 22,-21zm-82 -5c14,0 26,12 26,26 0,14 -12,26 -26,26 -14,0 -26,-12 -26,-26 0,-14 12,-26 26,-26zm-103 -8c19,0 34,15 34,34 0,19 -15,34 -34,34 -19,0 -34,-15 -34,-34 0,-19 15,-34 34,-34z"/>
   <rect class="fil1" x="205" y="176" width="913" height="915" rx="154" ry="29"/>
   <path class="fil2" d="M359 176l604 0c85,0 154,70 154,154l0 203c-125,101 -283,161 -456,161 -173,0 -332,-60 -457,-161l0 -203c0,-84 70,-154 155,-154z"/>
   <path class="fil0" d="M661 841c64,0 116,31 116,69 0,13 -6,24 -15,34 -24,-5 -61,-9 -101,-9 -41,0 -77,4 -101,9 -10,-10 -15,-21 -15,-34 0,-38 52,-69 116,-69z"/>
   <g>
    <path class="fil0" d="M794 479c0,20 13,78 104,78 21,0 56,-13 57,-33 2,-37 -39,-22 -75,-37 -42,-18 -75,-51 -86,-8z"/>
    <path class="fil0" d="M527 479c0,20 -12,78 -104,78 -20,0 -55,-13 -57,-33 -2,-37 40,-22 76,-37 41,-18 75,-51 85,-8z"/>
   </g>
  </g>
 </g>
</svg>
