<?xml version="1.0" encoding="UTF-8"?>
<!DOCTYPE svg PUBLIC "-//W3C//DTD SVG 1.1//EN" "http://www.w3.org/Graphics/SVG/1.1/DTD/svg11.dtd">
<!-- Creator: CorelDRAW X8 -->
<svg xmlns="http://www.w3.org/2000/svg" xml:space="preserve" width="29.3356mm" height="33.8834mm" version="1.1" style="shape-rendering:geometricPrecision; text-rendering:geometricPrecision; image-rendering:optimizeQuality; fill-rule:evenodd; clip-rule:evenodd"
viewBox="0 0 496 573"
 xmlns:xlink="http://www.w3.org/1999/xlink">
 <defs>
  <style type="text/css">
   <![CDATA[
    .fil0 {fill:#2C3D51}
    .fil3 {fill:#3C0404}
    .fil4 {fill:#F32D2D}
    .fil1 {fill:#FFBD2D}
    .fil5 {fill:white;fill-opacity:0.168627}
    .fil6 {fill:white;fill-opacity:0.231373}
    .fil2 {fill:white;fill-opacity:0.301961}
    .fil7 {fill:#FEC12B;fill-opacity:0.431373}
   ]]>
  </style>
 </defs>
 <g id="Layer_x0020_1">
  <metadata id="CorelCorpID_0Corel-Layer"/>
  <g id="_2537608337872">
   <path class="fil0" d="M26 303c-15,-6 -26,-20 -26,-37 0,-19 13,-35 30,-39 23,-98 111,-172 217,-172 105,0 194,73 217,172 18,3 32,19 32,39 0,17 -12,33 -28,38 -5,40 -20,77 -44,108l0 0c0,0 22,6 -2,161 0,0 -12,-63 -112,-82l0 0c-20,6 -41,9 -63,9 -114,0 -208,-86 -221,-197z"/>
   <circle class="fil1" cx="247" cy="277" r="198"/>
   <path class="fil2" d="M247 80c85,0 157,53 185,128 -49,56 -114,90 -185,90 -71,0 -136,-34 -185,-90 28,-75 100,-128 185,-128z"/>
   <path class="fil0" d="M60 63c16,0 29,13 29,29 0,16 -13,29 -29,29 -16,0 -29,-13 -29,-29 0,-16 13,-29 29,-29zm278 -36c2,0 3,2 3,4 0,2 -1,4 -3,4 -3,0 -4,-2 -4,-4 0,-2 1,-4 4,-4zm-23 -10c3,0 6,3 6,6 0,3 -3,6 -6,6 -3,0 -6,-3 -6,-6 0,-3 3,-6 6,-6zm-28 -9c5,0 9,4 9,8 0,5 -4,9 -9,9 -4,0 -8,-4 -8,-9 0,-4 4,-8 8,-8zm-32 -7c7,0 12,6 12,12 0,7 -5,13 -12,13 -7,0 -12,-6 -12,-13 0,-6 5,-12 12,-12zm-41 -1c9,0 16,7 16,16 0,9 -7,16 -16,16 -9,0 -16,-7 -16,-16 0,-9 7,-16 16,-16zm-50 5c12,0 22,10 22,22 0,11 -10,21 -22,21 -11,0 -21,-10 -21,-21 0,-12 10,-22 21,-22zm-50 20c14,0 25,11 25,24 0,14 -11,25 -25,25 -13,0 -24,-11 -24,-25 0,-13 11,-24 24,-24z"/>
   <g>
    <ellipse class="fil3" cx="340" cy="189" rx="29" ry="36"/>
    <ellipse class="fil3" cx="154" cy="189" rx="29" ry="36"/>
   </g>
   <path class="fil3" d="M247 358c23,-2 72,-5 95,-13 31,-10 29,-9 29,-9 0,0 17,-5 15,11 1,3 0,8 -2,13 -26,69 -66,98 -137,98l0 0 0 0c-71,0 -111,-29 -137,-98 -2,-5 -3,-10 -2,-13 -2,-16 15,-11 15,-11 0,0 -2,-1 29,9 23,8 72,11 95,13z"/>
   <path class="fil4" d="M169 406c0,0 -22,10 -10,17 12,8 13,8 13,8 0,0 36,12 47,36 11,25 20,33 20,33 0,0 26,20 57,20 32,0 51,-33 51,-33 0,0 12,-19 0,-39 -12,-20 -31,-37 -31,-37 0,0 -28,-26 -53,-24 -26,1 -55,0 -55,0 0,0 -14,-1 -39,19z"/>
   <path class="fil5" d="M308 519c24,-7 39,-32 39,-32 0,0 12,-19 0,-39 -12,-20 -31,-37 -31,-37 0,0 -28,-26 -53,-24 -6,0 -12,0 -18,0 0,0 39,27 30,42 -13,-28 -40,-42 -40,-42l0 0c-15,0 -27,0 -27,0 0,0 -3,-1 -9,1 -6,7 -11,13 -10,18 2,11 7,13 7,13 0,0 38,22 42,46 5,25 33,42 33,42 0,0 18,7 37,12z"/>
   <path class="fil6" d="M318 456c9,15 9,26 9,26 0,0 9,10 13,0 5,-10 1,-23 1,-23 0,0 -9,-37 -27,-34 -13,2 0,25 4,31z"/>
   <path class="fil7" d="M288 128c-49,-49 -82,0 -82,0 0,0 41,-11 82,0z"/>
  </g>
 </g>
</svg>
