<?xml version="1.0" encoding="UTF-8"?>
<!DOCTYPE svg PUBLIC "-//W3C//DTD SVG 1.1//EN" "http://www.w3.org/Graphics/SVG/1.1/DTD/svg11.dtd">
<!-- Creator: CorelDRAW X8 -->
<svg xmlns="http://www.w3.org/2000/svg" xml:space="preserve" width="31.564mm" height="35.6728mm" version="1.1" style="shape-rendering:geometricPrecision; text-rendering:geometricPrecision; image-rendering:optimizeQuality; fill-rule:evenodd; clip-rule:evenodd"
viewBox="0 0 362 410"
 xmlns:xlink="http://www.w3.org/1999/xlink">
 <defs>
  <style type="text/css">
   <![CDATA[
    .fil0 {fill:#2C3D51}
    .fil3 {fill:#3C0404}
    .fil4 {fill:#F32D2D}
    .fil1 {fill:#FEC12B}
    .fil5 {fill:white;fill-opacity:0.168627}
    .fil6 {fill:white;fill-opacity:0.231373}
    .fil2 {fill:white;fill-opacity:0.301961}
    .fil7 {fill:#FEC12B;fill-opacity:0.431373}
   ]]>
  </style>
 </defs>
 <g id="Layer_x0020_1">
  <metadata id="CorelCorpID_0Corel-Layer"/>
  <g id="_2537609613280">
   <path class="fil0" d="M0 63l0 8c0,0 1,1 1,1 0,2 1,4 2,6 1,1 2,2 3,3l0 0 0 0c3,3 8,5 12,5l0 0 0 0 1 0c9,0 18,-7 19,-18 0,-11 -7,-18 -16,-19l0 0 0 0 0 0 -1 0 0 0c0,0 -1,0 -1,0l0 0 0 0c-6,-1 -11,1 -15,5 -1,2 -2,4 -3,6l-2 2c0,0 0,0 0,1zm39 92c-15,0 -26,12 -26,26 0,14 11,26 26,26 0,0 0,0 1,0l0 73c0,28 22,50 50,50l120 0c1,1 1,1 1,1 43,52 31,79 31,79 56,-62 47,-75 59,-82 3,0 5,-1 8,-3l0 0 0 0c17,-8 29,-25 29,-45l0 -73c13,-1 24,-12 24,-26 0,-14 -11,-25 -24,-26l0 -73c0,-28 -23,-50 -51,-50l-197 0c-28,0 -50,22 -50,50l0 73c-1,0 -1,0 -1,0zm-11 -125c1,7 6,10 11,12 2,0 3,0 5,0 3,0 6,-1 8,-2 5,-3 9,-9 7,-17 -1,-6 -5,-10 -10,-11 -1,-1 -3,-1 -5,-1 -4,0 -7,1 -10,3 -4,3 -7,9 -6,16zm54 -30c7,0 12,6 12,13 0,6 -5,12 -12,12 -7,0 -13,-6 -13,-12 0,-7 6,-13 13,-13zm126 10c2,0 3,1 3,3 0,1 -1,3 -3,3 -2,0 -3,-2 -3,-3 0,-2 1,-3 3,-3zm-16 -2c2,0 4,2 4,5 0,2 -2,4 -4,4 -2,0 -4,-2 -4,-4 0,-3 2,-5 4,-5zm-21 -2c3,0 6,3 6,7 0,3 -3,6 -6,6 -3,0 -6,-3 -6,-6 0,-4 3,-7 6,-7zm-23 -1c4,0 7,3 7,8 0,4 -3,7 -7,7 -5,0 -8,-3 -8,-7 0,-5 3,-8 8,-8zm-30 -2c5,0 10,4 10,10 0,5 -5,9 -10,9 -5,0 -10,-4 -10,-9 0,-6 5,-10 10,-10z"/>
   <rect class="fil1" x="58" y="50" width="260" height="261" rx="44" ry="8"/>
   <path class="fil2" d="M102 50l173 0c24,0 44,20 44,44l0 58c-36,29 -81,46 -130,46 -50,0 -95,-17 -131,-46l0 -58c0,-24 20,-44 44,-44z"/>
   <g>
    <ellipse class="fil3" cx="252" cy="124" rx="19" ry="25"/>
    <ellipse class="fil3" cx="126" cy="124" rx="19" ry="25"/>
   </g>
   <path class="fil3" d="M189 241c15,-1 49,-4 64,-9 21,-6 20,-6 20,-6 0,0 11,-4 10,7 1,3 0,6 -1,10 -18,46 -45,66 -93,66l0 0 -1 0c-48,0 -75,-20 -92,-66 -2,-4 -2,-7 -2,-10 -1,-11 11,-7 11,-7 0,0 -2,0 19,6 15,5 49,8 65,9z"/>
   <path class="fil4" d="M136 274c0,0 -15,6 -7,11 8,6 9,6 9,6 0,0 24,7 32,24 7,17 13,23 13,23 0,0 18,13 39,13 21,0 35,-23 35,-23 0,0 8,-12 0,-26 -9,-13 -22,-25 -22,-25 0,0 -18,-18 -36,-17 -17,1 -37,0 -37,0 0,0 -9,0 -26,14z"/>
   <path class="fil5" d="M230 350c17,-4 27,-22 27,-22 0,0 8,-12 0,-26 -9,-13 -22,-25 -22,-25 0,0 -18,-18 -36,-17 -4,1 -8,1 -12,1 0,0 27,18 20,28 -8,-19 -26,-28 -26,-28l0 0c-11,0 -19,-1 -19,-1 0,0 -2,0 -6,2 -4,4 -8,8 -7,11 2,8 5,9 5,9 0,0 26,15 29,32 3,17 22,29 22,29 0,0 12,4 25,7z"/>
   <path class="fil6" d="M237 308c6,9 6,17 6,17 0,0 6,7 9,0 3,-7 1,-15 1,-15 0,0 -7,-25 -19,-23 -9,1 0,17 3,21z"/>
   <path class="fil7" d="M217 83c-34,-33 -57,0 -57,0 0,0 29,-7 57,0z"/>
  </g>
 </g>
</svg>
