<?xml version="1.0" encoding="UTF-8"?>
<!DOCTYPE svg PUBLIC "-//W3C//DTD SVG 1.1//EN" "http://www.w3.org/Graphics/SVG/1.1/DTD/svg11.dtd">
<!-- Creator: CorelDRAW -->
<svg xmlns="http://www.w3.org/2000/svg" xml:space="preserve" width="8.53557in" height="8.90649in" version="1.1" style="shape-rendering:geometricPrecision; text-rendering:geometricPrecision; image-rendering:optimizeQuality; fill-rule:evenodd; clip-rule:evenodd"
viewBox="0 0 8529.96 8900.64"
 xmlns:xlink="http://www.w3.org/1999/xlink"
 xmlns:xodm="http://www.corel.com/coreldraw/odm/2003">
 <defs>
  <style type="text/css">
   <![CDATA[
    .fil0 {fill:#FEFEFE}
    .fil6 {fill:#FEFEFE}
    .fil9 {fill:#373435}
    .fil2 {fill:#00A859}
    .fil10 {fill:#00A859}
    .fil1 {fill:#213244}
    .fil4 {fill:#668095}
    .fil3 {fill:#FEFEFE;fill-rule:nonzero}
    .fil5 {fill:#373435;fill-rule:nonzero}
    .fil7 {fill:#213244;fill-rule:nonzero}
    .fil8 {fill:#668095;fill-rule:nonzero}
   ]]>
  </style>
 </defs>
 <g id="Layer_x0020_1">
  <metadata id="CorelCorpID_0Corel-Layer"/>
  <path class="fil0" d="M8406.39 3616.15c-143.95,-2019.76 -1928.55,-3616.15 -4109.26,-3616.15 -2272.97,0 -4115.87,1734.26 -4118.85,3874.63l225.73 -70.67c42.91,-1990.78 1769.38,-3592.22 3893.12,-3592.22 2023.7,0 3686.65,1454.13 3875.97,3313.62l78.39 19.88 154.89 70.91z"/>
  <path class="fil0" d="M4275.82 839.85c1183.62,0 2192.17,615.18 2576.93,1477.21l-206.84 -245.26 -406.09 546.15 -636.58 -537.67 -417.6 645.58 -164.14 -268.47c82.99,-144.07 130.13,-309.13 130.13,-484.56 0,-561.94 -483.61,-1017.48 -1080.18,-1017.48 -596.57,0 -1080.18,455.54 -1080.18,1017.48 0,223.92 76.85,430.89 206.97,598.93l-114.33 147.03 -199.73 -335.79 -279.12 391.26 -385.16 -932.48 -403.01 575.98 -109.92 -118.1c390.53,-852.86 1393.26,-1459.8 2568.87,-1459.8zm476.65 1228.87c15.18,24.7 14.18,21.49 38.63,38.6 32.51,-13.24 33.12,-13.13 43.73,-51.35l-41.72 -28.52c-29.6,18.69 -22.43,16.58 -40.63,41.28zm44.91 -484.37c2.37,-106.42 -111.92,-180.09 -201.35,-207.93 3.41,107.09 98.68,192.87 201.35,207.93zm-1027.23 -72.42c10.16,-13.06 12.5,4.03 10.7,-21.01 -2.23,-30.96 -2.64,-9.77 -9.91,-19.91 -59.66,8.6 -33.65,47.54 -0.79,40.91z"/>
  <path class="fil1" d="M5146.33 3364.94c-49.61,-20.18 -215.76,-142.56 -251.07,-178.43 -25.36,-25.75 -42.02,-39.66 -67.44,-64.26 -24.26,-23.48 -50.66,-43.87 -72.31,-68.72l-128.07 -144.1c-24.5,-27.92 -37.05,-43.75 -56.49,-75.72 31.15,17.23 52.45,39.97 76.68,66.21 89.52,96.97 254.86,239.58 354.38,332.97 29.34,27.53 129.27,105.71 144.33,132.05zm-621.6 -878.99c24.47,26.67 114.25,134.76 128.67,163.15 -49.79,-32.7 -306.25,-243.25 -268.57,-323.27 49.07,44.69 90.7,106.49 139.9,160.12zm-711.15 170.67c35.48,-23.65 74.79,-72.2 105.25,-104.34 0.7,-0.74 13.09,-15.77 18.43,-21.73l75.49 -80.09c0.87,-0.98 3.18,-3.19 4.06,-4.16l13.79 -16.02c1.14,-1.55 3.55,-5.93 4.62,-7.33l75.7 -92.65c51.25,-71.05 149.95,-218.44 214.16,-261.49 -7.66,69.84 -57.61,108.83 -91.29,161.5 -5.09,7.96 -14,25.75 -14.34,26.47 -0.53,1.12 -1.54,3.9 -2.07,4.98l-10.82 17.55c-0.65,0.73 -2.82,2.65 -3.52,3.33 -0.68,0.67 -3.03,2.36 -3.75,3.02l-65.63 95.04c-1.26,1.77 -3.02,4.14 -4.31,5.89l-104.57 138.42 256.02 -251.21c6.17,-6.74 12.32,-13.81 19.13,-20.98 14.96,-15.74 3.95,-5.39 20.24,-19.96l26.23 -21.59c-4.97,67.99 -27.77,93.17 -63.54,142.76 -6.15,8.53 -5.17,6.86 -12.72,17.88l-122.84 173.68c17.67,-14.48 34.01,-29.19 52.46,-44.04l30.01 -21.68c53.31,-36.26 23.29,-27.66 92.04,-79.27l37.47 -34.3c27.22,141.23 -81.9,221.45 -167,314.92 -77.25,84.85 -163.49,172.45 -229.97,258.57 76.98,-46.03 152.75,-124.06 214.69,-174.72 71.88,-58.78 126.94,-140.42 195.23,-203.52 -11.22,149.24 -195.58,302.21 -244.95,436.25l218.82 -222.66c15.66,-10.14 28.33,-22.28 37.79,-31.1 -0.41,53 -15.93,68.97 -35.79,102.46l-37.49 63.37c-34.15,52.87 -92.96,145.97 -112.22,208.51 74.53,-49.74 133.02,-149.22 196.32,-214.34 2.85,103.33 -85.74,224.61 -102.76,336.22 31.58,-22.39 92.91,-139.02 120.49,-171.49 8.69,149.36 -45.81,250.12 -51.06,375.73 1.34,-18.54 27.42,-37.98 43.71,-61.11 19.39,-27.55 34.52,-58.42 46.98,-83.73 38.43,32.83 97.48,139.24 118.23,180.83l210.49 5.61c-28.48,-51.4 -87.08,-76.67 -113.67,-136.94 158.97,76.69 162.56,176.73 390.52,147.87 -126.78,-120.65 -610.53,-509.85 -615.82,-628.71 209,251.53 319.55,341.76 577.1,525.56 30.76,21.95 134.31,98.86 163.85,109.57 30.19,10.95 217.27,20.57 264.44,24.28 167.48,13.18 356.82,32.31 518.01,59.16 -39.43,-54.63 -261.88,-170.64 -339.57,-225.72 -115.49,-81.87 -226.68,-158.38 -323.03,-242.12 101.16,49.35 259.14,176 353.18,216.43 -50.18,-69.25 -207.9,-167.76 -281.77,-227.27 -93.41,-75.26 -190.9,-162.82 -289.73,-227.05l27.53 -8.39c-83.3,-162.81 -288.27,-432.09 -336.32,-545.68l76.03 368.39c-46.01,-49.25 -93.24,-127.38 -133.68,-185.3 -40.19,-57.57 -84.15,-130.31 -123.76,-197.18 -83.64,-141.17 -166.87,-260.76 -251.91,-388.89l-258.74 370.49c-85.85,125.67 -193.52,234.95 -269.91,362.01z"/>
  <path class="fil1" d="M5481.7 2545.65c78.02,-72.8 140.62,-167.74 183.83,-203.42 42.48,92.27 -106.93,199.71 -151.51,301.91l145.53 -129.94c23.21,-22.39 23.87,-31.85 47.3,-53.78 10.57,22.34 19.17,36.62 18.77,69.16l-75.65 102.85c-32.04,46.09 -61.2,82.1 -85.53,123.23 55.68,-40.82 148.2,-122.21 189.98,-173.2 35.36,108.35 -17.75,114.11 -74.34,186.67 31.87,-10.89 78.09,-56.63 104.01,-77.92 13.25,20.27 350.19,325.63 423.21,414.06 -120.31,-64.71 -301.73,-240.99 -400.96,-345.69 -22.17,35.44 -27.46,54.5 -51.58,79.89 -67.29,70.8 -163.06,167.84 -211.51,238.66 70.4,-47.4 210.39,-161.84 247.66,-224.78 64.02,83.13 -93.53,164.65 -135.2,289.45l87.92 -68.86c25.02,-18.92 65.56,-59.01 95.67,-73.51 -4.84,122.5 -93.95,157.97 -131.96,251.89 25.68,-14.75 43.52,-30.32 68.2,-50.49 29.99,-24.52 38.31,-38.6 68.51,-56.73 11.06,149 -162.5,188.8 -112.37,252.62 42.79,-34.01 59.36,-61.99 113.3,-92.82l-16.97 146.06c77.25,72.61 177.78,143.67 287.35,155.6 44.81,4.88 88.13,13.48 127.88,16.76 -60.76,-35.61 -245.81,-221.2 -281.54,-274.4 19.43,32.38 294.48,218.93 362.34,266.68 61.42,43.23 86.1,40.63 177.5,50.88l-190.38 -147.18c-65.48,-51.97 -257.67,-221.27 -282.36,-276.39l132.3 104.38c116.98,94.71 286.51,210.71 412.85,297.68 81.87,56.36 45.05,45.38 169.05,66.76 69.14,11.92 133.92,22.34 201.67,35.31 118.11,22.6 295.97,66.24 410.15,76.09 -31.77,-24.65 -85.4,-44.7 -129.57,-66.15l-772.01 -449.28c-19.66,-18.58 -334.24,-522.9 -500.74,-705.05l-297.36 -307.25c-35.52,31.8 -139.75,198.75 -173.42,250.25z"/>
  <path class="fil1" d="M2670.01 3106.69c37.53,-19.07 93.22,-59.62 122.62,-85.26l-40.51 -137.46c-34.01,41.69 -80.86,157.64 -82.11,222.72zm145.53 -382.57c20.79,-21.6 57.95,-66.95 78.85,-85.97 -0.68,71.3 -64.1,303.95 -89.47,371.47 26.63,-9.1 151.12,-117.13 186.83,-143.74 -5.84,-47.48 -81.51,-238 -105.64,-277.95l-70.56 136.2z"/>
  <path class="fil1" d="M2075.48 3714.48c94.76,-7.06 130.01,-30.99 193.07,-70.25 48.96,-30.49 118.04,-87.43 169,-108.15 -16.19,25.93 -101.66,125.76 -128.16,134.89 90.77,7.38 214.6,-149.02 316.15,-217.31 -25.77,49.66 -106.92,152.09 -149.07,180.14 20.62,12.54 -19.83,8.57 33.3,9.39 49.81,0.77 134.94,-101.54 182.99,-148.41 57.89,-56.47 137.91,-125.84 181.34,-192.96 -51.67,25.35 -92.91,72.02 -144.05,98.47 41.88,-54.4 298.84,-285.28 359.1,-336.33 53.19,-45.06 113.73,-116.6 167.39,-175.7l128.47 -133.76c24.98,-22.71 24.2,-20.09 41.87,-50.73 39.29,54.38 -45.95,151.37 -99.84,225.29 48.81,-20.49 66.22,-67.1 140.81,-87.78 -35.35,151.96 -131.42,177.43 -178.39,275.93 44.33,-19.97 118.55,-95.35 170.97,-131.47 -29.47,138.07 -272.95,378.42 -352.33,490.7l182.44 -173.56c33.04,-33.83 49.65,-56.17 87.05,-94.93 28.73,-29.78 66.83,-51.88 89.05,-86.64 43.8,48.59 294.43,322.31 340.71,354.67 50.32,35.17 153.85,11.37 226.35,13.42 -40.6,-54.89 -107.47,-93 -155.12,-139.47 -54.59,-53.23 -96.14,-100.89 -146.72,-152.26l230.66 161.4c180.7,126.7 147.59,119.1 278.92,120.01 -28.87,-42.37 -244.22,-212.19 -328.68,-298.71 -31.72,-32.49 -73.66,-72.55 -103.47,-108.16l-392.27 -443.01c-51.65,43.3 -278.31,315.96 -455.09,452.18 -316.76,244.09 -559.19,362.24 -886.44,633.07zm1202.81 -269.16c30.61,-15.11 -27.13,15.95 12.74,-8.07l101.77 -68.62c1.66,-1.23 4.12,-2.95 5.76,-4.18 27.66,-20.76 15.77,-18.38 48.89,-33.42 -3.45,82.89 -90.27,158.59 -129.9,212.51 21.86,-13.89 45.71,-3.97 85.02,-27.4 26.47,-15.78 45.98,-33.99 65.66,-57.91l21.66 66.92 260.43 -23.46c-51.56,-93.18 -192.34,-141.2 -290.53,-346.33 -31.62,69.48 -43.73,93.22 -86.75,154.94 -20.34,29.19 -71.1,117.55 -94.73,135.01z"/>
  <path class="fil1" d="M6482.46 2612.44l234.5 -270.86c38.94,105.38 -21.57,102.2 -51.8,190.99 37.38,-24.31 61.51,-54.52 91.97,-81.43l37.54 62.68c-41.32,49.13 -210.86,245.18 -234.7,299.65 43.06,-23.56 122.63,-103.93 142.32,-133.93 -53.67,109.35 -118.13,222.51 -178.86,317.48 46.36,-57.64 82.97,-73.73 145.49,-179.32 43.07,-72.74 86.49,-127.96 117.9,-213.26l415.88 840.42c48.45,110.16 258.23,207.27 370.54,268.61 104.61,57.14 338.71,156.53 452.97,184.63l-441.02 -254.69c-263.01,-185.04 -253.91,-337.8 -294.81,-398.86l-216.15 -240.02 208.37 178.86c28.9,22.41 38.89,37.82 69.31,61.2l42.38 -26.67 -198.19 -178.5c-49.73,-52.26 -127.78,-145.84 -167.02,-214.54 71.32,60.92 328.17,351.45 424.46,358.56l19.88 -27.27c-10.86,-32.35 -79.6,-91.29 -107.3,-113.08 36.76,9.12 23.59,18.64 66.44,27.45 -32.25,-69.4 -131.38,-115.79 -163.63,-192.21 39.98,25.61 57.3,51.03 105.14,69.41 -33.15,-100.6 -92.4,-219.05 -126.89,-328.91 -13.89,-44.27 -15.29,-67.5 -37.23,-106.5 -0.98,-1.74 -2.88,-4.81 -4.53,-7.09 -23.62,127.56 -45.58,161.19 -41.22,309.91 -90.44,-89.13 -250.43,-301.1 -348.44,-408.08 -37.62,-41.06 -75.17,-101.76 -119.66,-142.72 -45.53,63.78 -163.75,284.3 -213.64,348.08zm253.11 452.17c32.25,-20.07 27.73,-18.72 46.32,-42.9 9.73,-12.65 5.68,-11.41 17.23,-22.85 16.52,-16.36 7.03,-12.75 31.05,-19.64 36.92,112.09 -60.6,177.15 -94.31,259.79 40.66,-19.25 44.95,-33.79 76.5,-51.94l-21.14 154.21 35.37 -52.63c49.43,77.19 216.94,199.9 308.48,239.76 -46.59,-115.61 -172.82,-209.76 -209.19,-310.62 34.82,30.74 68.49,72.02 99.63,95.38 -26.19,-81.35 -91.63,-198.79 -133.52,-281.63 -49.97,-98.8 -85.67,-203.2 -122.73,-306.4l-33.69 339.47z"/>
  <path class="fil1" d="M1146.33 2480.82c62.46,-39.53 179.76,-199.2 261.37,-263.09 -9.11,72.5 -83.68,166.04 -112.13,219.67l133.91 -115.7c-11.21,137.46 -161.09,268.3 -256.7,391.83 50.69,-21.7 152.42,-123.62 193.86,-153.47 -54.39,122.42 -202.56,269.13 -205.6,320.95 32.46,-15.62 56.72,-47.93 82.23,-75.01 14.11,-14.98 24.89,-25.93 38.49,-41.9l27.6 -34.05c10.05,-11.07 7.9,-9.1 17.57,-17.35 17.35,98.13 74.3,152.02 112.04,227.49 24.28,-17.25 62.29,-63.47 82.09,-88.77 39.03,-49.9 15.25,-63.68 -10.09,-115.27 -21.98,-44.74 -100.74,-209.25 -72.58,-255.01 24.02,45.3 45.91,99.93 67.06,152.49 17.85,44.36 38.19,119.16 58.61,155.56 17.41,-15.09 83.65,-101.12 97.69,-122.33 3.59,-18.33 -208.32,-481.36 -247.56,-636.65 -103.76,253.51 -192.76,302.31 -267.86,450.62zm-53.26 794.57c0.03,0.04 10.55,50.69 69.4,-6.17 70.06,-67.69 97.75,-142.54 84.75,-246.85 -18.1,56.05 -44.19,84.05 -64.17,140.31 -12.05,33.93 -20.21,44.81 -40.5,67.99 -41.43,47.35 -46.72,31.3 -49.47,44.71zm54.93 -214.39c39.38,-13.12 60.92,-45.68 85.04,-78.39l44.77 -75.52c9.94,-18.91 6.4,-13.39 15.6,-26.13 34.42,39.02 59.37,104.62 110.04,106.28 4.65,-48.34 -73.09,-113.8 -98.42,-175.27 -2.01,1.77 -5.11,1.88 -5.98,5.36 -0.86,3.4 -4.64,4.11 -5.8,5.31 -38.78,40.42 -139.94,201.49 -145.24,238.36z"/>
  <path class="fil2" d="M438.59 3686.44c63.62,-19.21 101.14,-50.14 148.7,-86.38l131.53 -112.25c1.15,55.54 5.67,140.86 33.28,179.57 47.94,-33.12 71.85,-47.64 85.22,-105.99 13.34,-58.23 6.93,-123.47 9.1,-184.87 46.58,35.48 93.38,113.27 138.59,139.54 17.07,9.92 3.57,6.34 26,10.86l24.73 -16.54c-24.18,-89.43 -171.14,-176.37 -210.94,-287.83 -39.14,61.24 -56.82,115.12 -104.99,178.73 -36.33,47.98 -97.14,117.27 -147.19,137.32 37.83,-106.01 166.73,-234.07 165.85,-349.81 -41.37,79.18 -66.59,45.81 -158.69,237.71 -36.28,75.58 -121.48,199.6 -141.19,259.93zm59.07 -321.28c73.73,0.41 110.2,-46.48 126.2,-107.19 -44.42,19.72 -106.73,64.91 -126.2,107.19zm381.3 -734.77c85.7,-56.73 28.02,-169.24 -10.77,-229.19l10.77 229.19zm97.85 728.02c-5.17,-34 -24.59,-84.35 -35.31,-114.75 -17.93,-50.84 -39.89,-66.22 -88.19,-84.88 14,80.59 72.41,143.78 123.5,199.62zm35.54 24.92c48.87,-5.13 54.96,-17.12 70.24,-49.69 -25.77,-45.36 -59.23,-107.35 -110.39,-125.36l40.15 175.05zm-381.2 -582.3c68.53,-7.42 61.56,-35.96 100.13,-72.63 87.65,57.26 72.06,82.15 132.82,73.01 -8.05,-45.32 -97.59,-113.94 -132.82,-135.81 -29.57,35.11 -85.68,97.46 -100.13,135.43zm-60.16 224.23c47.37,-0.16 47.12,-40.6 100.88,-68.29 -22.23,91.07 -109.48,106.26 -128.97,178.23 32.4,-9.78 244.61,-169.77 176.55,-308.23 -30.98,24.12 -52.52,65.39 -78.61,98.41 -20.92,26.48 -64.34,70.96 -69.85,99.87zm378.94 -142.95l10.54 -38.31c1.19,-16.17 -1.35,-44.06 -1.16,-62.44 9.22,7.95 7.19,4.86 16.45,17.19 7.53,10.02 10.34,15.81 15.44,25.63 9.8,18.83 15.3,31.85 27.41,52.15 22.11,37.05 36.68,73.78 81.49,68.14 2.02,-18.33 -112.61,-287.85 -132.78,-323.67 -71.87,154.48 -60.64,110.7 -17.39,261.33 -56.58,-74.9 -17.5,-42.69 -103.86,-57.23 17.84,90.05 230.69,421.12 313.61,263.43 -42.23,-22.02 -146.82,-25.8 -209.75,-206.19zm-64.88 167.87c-52.57,-23.75 -50.7,-45.93 -91.31,-77.19 -35.87,32.42 -15.92,31.23 -64.78,63.63 -36.99,24.53 -194.18,170.8 -204.08,207.89 87.18,-14.2 196.65,-109.56 237.63,-193.97 1.76,1.48 4.36,1.76 5.11,4.61 4.55,17.33 174.12,110.44 235.18,129.12 -14.79,-31.13 -67.4,-96.68 -112.28,-186.63 -46.43,-93.07 -39.14,-117.97 -112.36,-179.04 22.49,98.9 73.92,149.48 106.88,231.57z"/>
  <path class="fil1" d="M1274.59 3349.42l147.05 -140.84c151.67,-157.02 368.95,-446.19 516.13,-630.94l218.03 -264.47c-20.55,169.93 -344.93,555.73 -432.51,683.96 64.61,-34.91 323.02,-431.15 391.81,-474.33 -14.55,56.53 -191.98,347.52 -240.66,435.39 -76.61,138.3 -165.3,315.42 -221.85,478.85 10.6,-23.29 59.99,-88.95 80.52,-120.26 42.76,-65.24 216.29,-337.27 258.33,-378.48 -7.44,88.43 -61.11,180.83 -92.01,238.78 -34.26,64.26 -78.86,147.58 -115.14,214.56l192.61 -174.22c6.32,103.2 -146.41,243.73 -156.87,248.84 41.82,-24.42 122.41,-80.99 155.91,-109.28 -4.42,86.61 -304.48,314.52 -391.88,377.6 -34.55,24.93 -37.16,28.49 -72.24,59.65 -26.17,23.25 -48.1,29.67 -70.67,56.54 173.58,-23.65 198.59,-48.02 320.6,-144.76 69.67,-55.24 191.04,-167.9 223.26,-241.1l45.59 68 43.12 -31.7c-16.4,-62.34 -61.81,-115.04 -58.48,-185.24 42.55,49.2 85.83,106.66 131.78,146.06 35.24,-16.05 71.46,-44.16 90.52,-68.36 -43.14,-55.82 -101.66,-121.85 -131.37,-195.97 52.8,42.91 126.31,114.66 172.43,166.19l236.25 -144.56c29.05,-18.45 50.22,-36.92 79.67,-51 -18.61,-50.24 -190.08,-216.38 -236.38,-263.17l89.87 254.59c-126.27,-143.24 -228.44,-361.65 -249.52,-541.74 33.43,28.33 161.8,211.77 284.32,284.79 -18.59,-96.66 -113.74,-266.21 -153.32,-368.59 -49.35,-127.65 -94.02,-252.1 -141.91,-376.87l-433.64 619.26c-64.8,93.07 -163.44,191.87 -240.88,283.29l-238.45 289.51zm-1274.59 866.04c132.48,-2.19 297.73,-54.85 417.92,-88.9 126.13,-35.73 261.97,-73.42 389.78,-102.52 134.42,-30.61 272.37,-68.93 400.09,-104.34 84.87,-23.53 212.97,-150.32 269.99,-211.76 -40.28,16.45 -76.47,44.2 -127.73,70.94 -86.52,45.13 -336.89,146.43 -416.23,158.06 46.88,-8.13 215.33,-113.79 244.32,-142.87 -83.18,27.12 -185.97,84.59 -279.92,118.93 -228.26,83.45 -786.26,223.24 -898.23,302.47zm171.11 -208.87c181.77,5.1 457.75,-81.83 594.2,-151 102.67,-52.04 167.34,-102.99 231.68,-142.39l16.53 -13.6c1.47,-1.14 3.92,-3.19 5.51,-4.39l153.61 -111.14c-71.28,33.15 -153.7,81.2 -233.12,122.62 -73.69,38.43 -156.44,76.24 -243.21,113.8 -155.43,67.29 -355.98,140.53 -525.2,186.09z"/>
  <path class="fil0" d="M7794.79 7148.96c-753.51,1059.26 -2000.05,1751.68 -3410.52,1751.68 -1410.47,0 -2657.01,-692.43 -3410.52,-1751.68l131.71 0c762.44,959.92 1947.54,1576.86 3278.81,1576.86 1331.27,0 2516.37,-616.93 3278.81,-1576.86l131.71 0z"/>
  <path class="fil3" d="M1739.11 7542.07l-126.15 -127.09 17.17 -310.56 -231.96 -233.7 -115.18 211.81 -123.86 -124.78 519.37 -916.87 123.72 124.65 -63.12 1376.55zm-97.12 -669.08l28.74 -504.05 -187.2 344.41 158.45 159.64zm161 723.8l236.64 -1194.78 118.48 91.67 90.19 993.18 158.59 -800.69 113.13 87.53 -236.64 1194.78 -122.28 -94.61 -89.43 -974.93 -155.55 785.39 -113.13 -87.53zm1174.24 768.01l-136.26 -76.08 -13.77 -311.22 -250.55 -139.9 -92.09 252.11 -133.79 -74.7 419.03 -1099.31 133.64 74.61 73.79 1374.48zm-161.22 -618.86l-21.5 -505.46 -149.65 409.9 171.15 95.56zm312.88 666.45l96.25 -1049.12 -189.12 -67.78 19.57 -213.35 506.71 181.6 -19.57 213.35 -188.23 -67.46 -96.25 1049.12 -129.36 -46.36zm382.89 -485.86c5.02,-130.44 19.18,-238.54 42.34,-324.31 17.13,-63.02 39.58,-118.65 67.03,-166.63 27.46,-47.99 56.81,-82.21 88.07,-102.97 41.68,-27.58 88.89,-37.55 141.62,-29.61 95.53,14.37 169.51,84.51 222.4,210.18 52.74,125.94 75.09,293.15 67.05,501.91 -7.97,206.97 -42.69,364.69 -103.99,472.89 -61.31,108.5 -139.65,155.41 -234.72,141.11 -96.28,-14.49 -170.74,-84.1 -223.05,-209.08 -52.33,-124.69 -74.64,-289.19 -66.77,-493.48zm135.03 11.63c-5.59,145.03 7.21,257.48 38.22,337.63 31.03,79.85 72.67,123.86 124.8,131.7 52.28,7.86 96.51,-22.93 132.96,-92.02 36.32,-69.42 57.33,-178.28 63.06,-326.88 5.65,-146.82 -6.4,-258.86 -36.32,-335.85 -29.76,-77.26 -71.61,-119.8 -125.7,-127.94 -53.94,-8.12 -98.9,21.97 -134.7,89.96 -35.82,68.29 -56.64,175.98 -62.31,323.4zm815.88 750.36l-37.03 -1280.97 445.34 -50.29 6.26 216.48 -314.09 35.47 8.79 304.14 271.55 -30.67 6.26 216.48 -271.55 30.66 15.72 543.88 -131.25 14.82zm1133.59 -207.21l-140.47 35 -74.1 -275.94 -258.31 64.36 -35.04 303.14 -137.93 34.36 168.88 -1335.29 137.78 -34.33 339.2 1208.7zm-270.58 -445.54l-119.55 -448.85 -56.91 492.81 176.45 -43.96zm192.54 -833.05l252.46 -119.58c50.11,-23.74 87.78,-37.28 113.31,-40.77 25.71,-3.27 49.68,3.5 72.21,20.16 22.57,16.95 42.92,43.86 61.1,81.01 18.18,37.15 30.56,82.88 37.07,136.61 7.04,58.09 5.63,115.58 -4.37,171.6 -9.95,56.31 -27.15,102.85 -51.38,140.12 41.07,4.2 75.03,28.04 102.23,71.66 27.05,43.7 44.95,101.56 53.72,173.88 6.9,56.93 6.98,115.24 0.12,175.31 -6.86,60.07 -19.87,111.68 -39.18,154.92 -19.2,42.88 -45.3,76.13 -78.33,99.76 -20.64,14.38 -71.57,41.58 -152.69,81.23l-214.98 101.83 -151.29 -1247.73zm152.99 146.82l34.86 287.54 83.46 -39.53c49.52,-23.46 80.2,-39.53 91.9,-48.14 21.15,-15.24 36.55,-38.2 46.04,-68.8 9.49,-30.6 11.76,-65.76 6.9,-105.84 -4.69,-38.63 -13.89,-67.13 -27.54,-86.16 -13.65,-19.02 -31.43,-25.96 -53.19,-20.88 -12.99,3.08 -49.46,18.82 -109.27,47.15l-73.18 34.66zm60 494.91l40.57 334.59 118.14 -55.96c45.85,-21.72 74.77,-38.18 86.52,-48.97 18.11,-15.95 31.53,-39.81 40.23,-71.88 8.66,-32.36 10.43,-70.36 5.04,-114.79 -4.58,-37.76 -12.97,-67.26 -25.4,-89.01 -12.28,-21.82 -27.98,-34.66 -46.76,-38.35 -18.78,-3.69 -57.29,8.09 -115.33,35.58l-103.01 48.79zm569.32 277.12l-196.1 -1223.12 125.32 -78.49 196.1 1223.12 -125.32 78.5zm789.57 -578.92l-131.7 102.74 -106.4 -231.02 -242.18 188.93 4.08 310.84 -129.31 100.87 -3.88 -1376.35 129.17 -100.77 480.22 1004.76zm-318.02 -299.04l-172.12 -376.25 6.68 505.31 165.43 -129.06zm380.52 244.69l-301.76 -1136 112.65 -116.9 438.77 515.84 -202.23 -761.3 107.57 -111.63 301.77 1136 -116.26 120.65 -431.29 -505.04 198.37 746.76 -107.57 111.62z"/>
  <g id="_2506707666416">
   <path class="fil4" d="M3091.69 5725.22l0 -255.64 0 -93.33 15.86 -4.51 0 -23.38 -15.86 2.86 0 -71.51 15.86 -1.13 0 -22.41 63.44 -29.69 174.44 -25.45 166.52 0 91.18 21.21 0 28.1 15.86 0.76 0 75.09 -15.86 0 0 26.05 15.86 2.55 0 1136.84c-1.99,2.82 -3.86,5.73 -5.57,8.72l-27.39 47.72c0,0 -28.3,50.82 -20.31,189.97 0,0 0.94,26.01 3.26,63.43 -4.79,3.89 -7.84,9.64 -7.84,16.03l0 33.75c-164.11,-50.24 -321.21,-115.11 -469.46,-193.13l0 -186.5 0 -49.05 0 -132.34 0 -23.38 0 -14.2 0 -4.08 0 -149.33 0 -3.71 0 -139.24 0 -3.96 0 -47.63 0 -23.38 0 -90.87 0 -65.24z"/>
   <path class="fil4" d="M4311.37 5993.93l0 -1194.97 17.02 0 0 -25.5 34.04 0 0 -80.43 13.5 0 0 -20.22 32.45 0 0 -33.65 78.29 0 0 33.65 13.62 0 0 -23.45 78.29 0 0 23.45 161.8 0 0 20.22 13.5 0 0 80.43 34.04 0 0 25.5 17.02 0 0 1220.61c-142.73,-28.36 -405.89,-26.46 -405.89,-26.46 0,0 -35.59,-0.25 -87.67,0.83z"/>
   <path class="fil4" d="M5073.16 6381.25l0 -639.15 81.23 -21.45 0 -75.06 135.38 -46.47 0 -128.68 146.98 -82.21 73.5 17.87 0 135.83 58.02 14.3 0 64.34 50.29 10.72 0 71.49 50.28 10.73 0 936.38c-135.73,72.65 -278.95,134.31 -428.31,183.71l0 -15.33c0,-6.39 -3.05,-12.14 -7.84,-16.03 2.32,-37.43 3.27,-63.43 3.27,-63.43 7.99,-139.15 -20.31,-189.97 -20.31,-189.97l-27.39 -47.72c-5.43,-9.47 -12.3,-18.15 -20.38,-25.75l-91.62 -86.31 -3.09 -7.79z"/>
   <path class="fil4" d="M6201.03 5649.16l0 -58.42 445.55 -176.35 0 321.84c-173.24,278.23 -402.25,521.87 -672.46,717.52l0 -774.83 226.91 -29.76z"/>
  </g>
  <path class="fil5" d="M2691.68 6411.76l0 -128.33 -110.62 -44.09 -90.87 0c64,60.61 131.18,118.23 201.49,172.41z"/>
  <g id="_2506707669152">
   <path class="fil5" d="M6163.65 6308.02l0 -160.85 -80.84 -32.06 -72.33 0 0 -16.04 -119.14 0 0 20.04 -114.88 0 0 469.92c138.26,-82.45 267.87,-176.56 387.19,-281.01z"/>
   <path class="fil5" d="M5633.07 6671.53l0 -309.21c0,-13.69 -13.17,-24.79 -29.41,-24.79l-0.37 1.79 0 -53.95c0,-6.82 -6.57,-12.35 -14.66,-12.35 -96.52,-4.81 -193.28,-4.81 -289.79,0 -8.1,0 -14.66,5.54 -14.66,12.35l0 53.95 -0.37 -1.79c-16.24,0 -29.41,11.1 -29.41,24.79l0 221.7 -21.71 0c6.74,29.45 13.14,79.02 8.8,154.78 0,0 -0.94,26.01 -3.27,63.43 4.8,3.89 7.84,9.64 7.84,16.03l0 15.32c134.29,-44.4 263.63,-98.72 387.01,-162.06z"/>
   <path class="fil5" d="M5076.24 6389.05c-4.2,-0.76 -8.4,-1.49 -12.59,-2.23 4.19,0.74 8.39,1.47 12.59,2.23zm106.66 103.66l0 -313.47 -106.37 -56.1 -59.57 0 0 -56.11 -115.54 0c63.3,63.63 124.53,198.4 154.94,271.81 0,0 19.88,50.22 19.88,50.22l91.62 86.31c5.62,5.3 10.66,11.11 15.04,17.35z"/>
   <path class="fil5" d="M3627.19 6466.1l-18.59 0 -195.72 0 0 28.86 -38.29 0 0 44.59 -46.8 0 0 233.49c71.35,28.69 144.31,54.48 218.71,77.26l0 -33.75c0,-6.39 3.05,-12.14 7.84,-16.03 -2.32,-37.43 -3.26,-63.43 -3.26,-63.43 -7.99,-139.15 20.31,-189.97 20.31,-189.97l27.39 -47.72c5.43,-9.47 12.3,-18.15 20.38,-25.75l8.02 -7.55z"/>
   <path class="fil5" d="M3255.45 6742.1l0 -921.93 12.77 0 0 -24.05 -29.79 0 0 -48.09 -302.09 0 0 48.09 -29.79 0 0 24.05 16.86 0 0 82.59 -83.01 0 -76.1 57.88 0 502.62c151.7,108.83 316.23,202.58 491.15,278.83z"/>
  </g>
  <path class="fil0" d="M4369.43 7269.38c1157.08,0 2164.56,-602.71 2688.38,-1492.92l1432.3 269.83 5.72 -2.8 34.13 10.31 -39.86 -7.51 -1053.64 -322.7 -299.61 -90.48 0.57 -1.12 -123.31 -37.76c-478.81,920.47 -1483.1,1554.32 -2644.68,1554.32 -1091.99,0 -2045.1,-560.11 -2553.18,-1391.97l5.25 -0.99 -28.49 -38.13c-23.31,-39.64 -45.6,-79.87 -66.88,-120.66l-123.21 37.85 3.33 6.5 -1367.68 412.66 1445.47 -272.31c524.64,887.45 1530.5,1487.9 2685.4,1487.9z"/>
  <path class="fil0" d="M1656.86 5339.76l21.9 -93.02 280.2 -69.36c-72.83,122.27 -19.16,98.58 -302.1,162.37zm-706.98 315.6c67.91,-82.34 333.11,-841.27 415.82,-966.57l3.8 356.09 196.81 -117.95 116.93 58.2 -2.05 -1012.55 -378.93 94.5c-40.82,59.88 -62.68,153.35 -88.91,220.65l-215.35 552.72c-7.55,18.62 -12.81,33.37 -22.35,56.93 -2.88,7.12 -7.07,17.82 -12.42,26.75 -8.64,14.42 -7.86,11.6 -13.36,16.49 -57.39,-114.04 -103.07,-239.59 -155.31,-352.34 -53.98,-116.49 -104.44,-240.1 -156.74,-353.48 -79.59,13.84 -320.47,73.42 -384.08,100.77l2.22 965.72c47.63,-28.55 100.1,-55.65 150.29,-86.96 153.99,-96.04 73.94,-52.08 142.49,-50.86 2.29,-76.57 -16.28,-268.14 15.97,-320.16 66.64,70.99 318.28,762.05 385.16,812.05zm-406.62 110.05c9.19,-74.85 14.2,-466.67 -3.67,-525.49 -47.6,-5.32 -112.84,50.71 -152.21,73.84 -32.09,18.85 -109.14,62.2 -134.89,88.86l4.31 449.04 286.45 -86.25zm2565.86 -621.62c99.56,-57.51 308.28,-141.84 442.08,-183.61 158.99,-49.63 345.13,-90.92 507.81,-121.79 -69.88,39.23 -110.93,68.16 -204.33,103.81 -72.99,27.86 -163.86,53.78 -240.24,77.47 -127.98,39.69 -377.02,113.86 -505.32,124.12zm269.69 -1158.8c497.79,-28.51 480.64,-147.93 476.9,378.22 -3.31,465.52 24.11,353.81 -480.73,432.48l3.83 -810.7zm-1014.25 299.19c33.43,34.24 133.92,337.02 138.35,364.43l-283.1 47.14 144.76 -411.56zm365.39 966.37c321.25,-46.15 616.11,-96.4 947.13,-132.34 78.77,-8.55 155.64,-16.09 225.76,-42.41 204.39,-76.72 268.23,-295.88 268.71,-506.66 0.39,-169.96 -0.36,-339.92 -0.48,-509.89 -0.13,-185.62 -17.39,-297.2 -158.45,-364.4 -157.67,-75.1 -766.37,18.66 -962.61,49.84l1.31 1156.98 -93.75 11.24c-16.23,-70.83 -398.27,-1061.12 -425.4,-1099.97l-314.16 58.29c-42.82,15.36 -99.59,232.34 -120.13,288.52 -35.68,97.57 -66.86,187.06 -102.52,286.52l-198.94 588.06 290.38 -90.46c60.08,-31.02 -2.16,-27.9 76.76,-44.98 115.18,-24.92 311.37,-62.53 423.26,-73.41l31.46 116.79c-303.07,34.3 -644.05,122.21 -932.81,190.82 0.98,-72.23 8.03,-72.99 -49.86,-102.52 -94.59,-48.27 -77.02,-4.06 -269.54,107.43l2.25 395.37 601.71 -138.46c39.6,-50.81 78.22,-190.41 91.76,-260.5l584.33 -102.03 16.56 61.98c122.53,-37.06 224.95,-85.82 352.91,-118.93 112.29,-29.06 283.88,-58.01 389.8,-70.18 -188.01,88.12 -503.38,179.67 -706.93,254.12 0.85,24.89 -0.44,25.09 7.94,49.26 3.96,11.42 5.37,12.92 9.88,21.35 14.7,27.47 4.22,8.17 13.66,20.6z"/>
  <path class="fil0" d="M5942.24 4035.88c55.92,-4.96 187.07,19.07 250.13,28.77 88.08,13.55 164.66,19.46 176.38,104.25 41.79,302.38 -112.11,191.17 -327.04,191.95 0.37,76.8 -16.98,216.48 6.92,281.36l124.57 19.46 218.73 610.86 681.22 153.74 -4.88 -1483.66 -305.91 -53.12 -4.03 1423.46c-56.9,-42.67 -234.57,-557.72 -258.79,-665.37l27.18 -12.85c172.67,-66.74 153.46,-152.12 155.66,-340.15 2.42,-206.48 13.84,-303.25 -127.77,-406 -103.87,-75.38 -291.06,-91 -440.71,-115.57 -118.99,-19.53 -380.9,-59.95 -496.46,-55.75l1.37 1434.97 320.55 36.39 2.87 -1152.73zm1284.04 1425.55c38.27,16.25 255.54,68.83 299.27,69.69l1.13 -471.66c-65.45,20.51 -242.51,151.73 -304.51,196.08l4.12 205.9zm1109.73 -1205.61c79.43,152.29 87.82,157.29 86.75,362.33 -0.98,186.28 26.24,383.21 -211.17,457.08 -305.22,94.97 -379.14,10.84 -599.01,3.63 -2.63,85.81 -0.08,178.18 -0.3,264.91 -0.43,172.95 -26.46,217.77 41.52,228.67 5.92,-9.23 5.02,-5.46 9.21,-23.84 2.23,-9.79 2.62,-17.68 3.15,-27.73 0.7,-13.51 -0.41,-35.17 -0.54,-49.58l-0.66 -318.7c177.99,12.55 268.23,40.65 451.01,10.19 162.52,-27.09 264.14,-39.64 321.88,-159.04 85.67,-177.16 60.52,-670.66 -101.85,-747.91zm-1110.51 861.28c41.01,-13.46 146.51,-78.05 183.96,-101.6 129.49,-81.41 120.27,-63.12 118.22,-151.81 -3.45,-149.41 -14.46,-395.69 4.97,-537.02 94.58,17.93 193.46,34.91 289.38,55.4 96.53,20.62 194.36,36.74 205.98,128.52 36.53,288.45 -45.19,316.2 -359.74,232.62 -1.07,-71.46 19.09,-307.46 -14.45,-349.38l-31.24 -0.5c-24.89,45.67 -11.34,498.35 -9.41,588.74 174.11,59.22 470.65,91.55 626.19,-8.29 91.77,-58.91 95.81,-141.17 95.54,-267.36 -0.74,-347.04 35.41,-466.12 -492.06,-599.13 -192.64,-48.57 -416.46,-110.48 -620.47,-132.07l3.13 1141.89zm-2658.1 -1196.11l336.98 15.57c13.86,168.72 4.54,1065.28 4.52,1151.13l319.85 20.04 -0.47 -1146.8c87.8,0.65 281.88,30.65 349.46,17.03l-2.39 -265.32c-128.36,-33.28 -876.14,-80.23 -1008.65,-61.84l-0.61 124.08 1.31 146.11z"/>
  <path class="fil6" d="M4572.5 4205.45c4.17,-2.85 43.79,-17.92 22.1,-40.65 -21.73,-22.76 -35.72,-7.04 -52.58,1.79 4.94,36.37 -2.46,25.93 30.48,38.85z"/>
  <path class="fil7" d="M3879.8 7076.41l-8.93 0 -30.08 0 -30.08 0 -30.08 0 -30.08 0 -30.08 0 -8.94 0c-10.08,0 -18.33,-7.77 -18.33,-17.26l0 -303.83c0,-5.21 2.49,-9.91 6.4,-13.08l198.53 0 0 218.27 0 49.32 0 49.33c0,9.49 -8.25,17.26 -18.33,17.26zm990.6 -334.18l198.53 0c3.91,3.18 6.4,7.87 6.4,13.08l0 303.83c0,9.49 -8.25,17.26 -18.33,17.26l-8.93 0 -30.08 0 -30.08 0 -30.08 0 -30.08 0 -30.08 0 -8.93 0c-10.08,0 -18.33,-7.77 -18.33,-17.26l0 -49.33 0 -49.32 0 -218.27z"/>
  <path class="fil8" d="M3699.6 6742.23c-1.89,-30.53 -2.66,-51.75 -2.66,-51.75 -6.52,-113.53 16.57,-154.99 16.57,-154.99l22.35 -38.94c4.43,-7.73 10.04,-14.81 16.63,-21.02l74.75 -70.41 -17.4 -28.62c0,13.54 -11.75,24.46 -26.12,24.3l-85.07 -1.03c-13.71,-0.16 -24.72,-10.68 -24.72,-23.59 0,-10.3 7.1,-19.41 17.53,-22.5l84.49 -25.03c16.8,-4.98 33.89,6.83 33.89,23.42l33.62 12.08c29.8,-71.94 95.88,-216.12 157.58,-245.18 82.93,-39.06 383.22,-36.89 383.22,-36.89 0,0 300.29,-2.17 383.22,36.89 61.7,29.06 127.78,173.24 157.58,245.18l33.62 -12.08c0,-16.59 17.1,-28.4 33.9,-23.42l84.49 25.03c10.44,3.09 17.53,12.2 17.53,22.5 0,12.91 -11.02,23.43 -24.72,23.59l-85.07 1.03c-14.37,0.17 -26.12,-10.75 -26.12,-24.3l-17.4 28.62 74.75 70.41c6.59,6.21 12.19,13.29 16.63,21.02l22.35 38.94c0,0 23.09,41.46 16.57,154.99 0,0 -0.77,21.22 -2.66,51.75 0,0 35.12,218.27 -198.53,218.27l-486.13 0 -486.13 0c-233.65,0 -198.53,-218.27 -198.53,-218.27zm137.91 -338.93c-3.42,0.6 -6.85,1.2 -10.28,1.82 3.43,-0.62 6.85,-1.23 10.28,-1.82zm1103.77 1.82c-3.43,-0.62 -6.85,-1.22 -10.28,-1.82 3.42,0.59 6.85,1.2 10.28,1.82z"/>
  <path class="fil3" d="M4689.4 6894.84l-305.13 0 -305.14 0c-11.63,0 -21.14,8.96 -21.14,19.92 0,10.95 9.51,19.91 21.14,19.91l305.14 0 305.13 0c11.63,0 21.14,-8.96 21.14,-19.91 0,-10.95 -9.51,-19.92 -21.14,-19.92zm-305.13 -535.74c0,0 -247.27,-5.67 -524.22,40.36l89.52 -174.08c19.62,-36.05 56.85,-60.6 99.51,-65.71 72.65,-8.7 204.7,-20.48 335.19,-21.1 130.49,0.63 262.53,12.41 335.18,21.1 42.67,5.11 79.9,29.66 99.51,65.71l89.52 174.08c-276.94,-46.03 -524.21,-40.36 -524.21,-40.36zm-368.08 476.82l-0.63 -1.05c-7.77,-12.92 -21.8,-21.41 -37.5,-22.7l-167.4 -13.71c-16.21,-1.33 -29.28,12.28 -26.26,27.34l8.82 43.98c3.89,19.39 21.87,33.43 42.82,33.43l138.51 0c8.08,0 16.03,-1.93 23.11,-5.6 23.33,-12.12 31.66,-39.85 18.54,-61.68zm736.17 0l0.63 -1.05c7.77,-12.92 21.79,-21.41 37.5,-22.7l167.39 -13.71c16.21,-1.33 29.28,12.28 26.26,27.34l-8.82 43.98c-3.89,19.39 -21.87,33.43 -42.82,33.43l-138.51 0c-8.08,0 -16.03,-1.93 -23.11,-5.6 -23.33,-12.12 -31.66,-39.85 -18.54,-61.68zm-39.08 -248.76c0,0 273.63,-79.77 299.68,-30.68 26.06,49.09 22.8,116.6 -16.28,116.6 -39.09,0 -114.02,18.41 -172.65,12.27 -58.63,-6.13 -182.42,-71.79 -110.75,-98.19zm-658.01 0c0,0 -273.62,-79.77 -299.68,-30.68 -26.06,49.09 -22.8,116.6 16.29,116.6 39.09,0 114.01,18.41 172.65,12.27 58.63,-6.13 182.42,-71.79 110.75,-98.19zm617.03 78.59l-39.51 -42.76c-19.22,-20.81 -47.07,-32.75 -76.36,-32.75l-172.15 0 -172.16 0c-29.28,0 -57.13,11.94 -76.36,32.75l-39.51 42.76c-11.89,12.87 -15.44,30.81 -9.26,46.85l45.89 119.2c10.12,26.29 36.64,43.8 66.32,43.8l185.08 0 185.08 0c29.69,0 56.2,-17.51 66.32,-43.8l45.89 -119.2c6.18,-16.04 2.63,-33.97 -9.26,-46.85z"/>
  <g id="_2506707679856">
   <polygon class="fil0" points="2158.59,5996.16 2640.63,5825.12 2125.52,5825.12 2125.52,5819.97 2642.95,5819.97 2171.39,5619.35 2173.64,5614.66 2644.26,5814.88 2291.07,5460.03 2295.06,5456.5 2648.25,5811.35 2466.21,5356.16 2471.33,5354.34 2652.91,5808.4 2652.91,5323.2 2658.38,5323.2 2658.38,5810.58 2871.36,5366.4 2876.35,5368.52 2663.79,5811.83 3040.51,5479.13 3044.25,5482.89 2667.54,5815.58 3150.78,5644.11 3152.71,5648.93 2670.66,5819.97 3185.77,5819.97 3185.77,5825.12 2668.34,5825.12 3139.9,6025.74 3137.65,6030.44 2667.03,5830.21 3020.23,6185.07 3016.24,6188.59 2663.05,5833.75 2845.08,6288.93 2839.97,6290.75 2658.38,5836.69 2658.38,6321.9 2652.91,6321.9 2652.91,5834.5 2439.93,6278.69 2434.95,6276.57 2647.51,5833.27 2270.79,6165.96 2267.04,6162.2 2643.76,5829.52 2160.52,6000.99 "/>
   <ellipse class="fil0" cx="2655.65" cy="5822.55" rx="52.55" ry="49.5"/>
   <path class="fil0" d="M2655.65 6234.04c241.27,0 436.85,-184.23 436.85,-411.49 0,-227.26 -195.59,-411.5 -436.85,-411.5 -241.27,0 -436.85,184.23 -436.85,411.5 0,227.26 195.59,411.49 436.85,411.49zm0 -14.24c232.92,0 421.74,-177.86 421.74,-397.25 0,-219.4 -188.82,-397.26 -421.74,-397.26 -232.92,0 -421.74,177.86 -421.74,397.26 0,219.4 188.82,397.25 421.74,397.25z"/>
   <path class="fil0" d="M2655.65 6109.89c168.47,0 305.05,-128.65 305.05,-287.34 0,-158.69 -136.58,-287.34 -305.05,-287.34 -168.47,0 -305.05,128.65 -305.05,287.34 0,158.69 136.58,287.34 305.05,287.34zm0 -10.13c162.53,0 294.29,-124.11 294.29,-277.21 0,-153.1 -131.76,-277.21 -294.29,-277.21 -162.53,0 -294.29,124.11 -294.29,277.21 0,153.1 131.76,277.21 294.29,277.21z"/>
   <ellipse class="fil0" cx="2655.65" cy="5323.2" rx="35.42" ry="33.37"/>
   <ellipse class="fil0" cx="2468.77" cy="5355.25" rx="35.42" ry="33.37"/>
   <ellipse class="fil0" cx="2293.06" cy="5458.26" rx="35.42" ry="33.37"/>
   <ellipse class="fil0" cx="2172.52" cy="5617" rx="35.42" ry="33.37"/>
   <ellipse class="fil0" cx="2125.52" cy="5822.55" rx="35.42" ry="33.37"/>
   <ellipse class="fil0" cx="2159.56" cy="5998.57" rx="35.42" ry="33.37"/>
   <ellipse class="fil0" cx="2268.91" cy="6164.08" rx="35.42" ry="33.37"/>
   <ellipse class="fil0" cx="2437.44" cy="6277.63" rx="35.42" ry="33.37"/>
   <ellipse class="fil0" cx="2655.65" cy="6321.9" rx="35.42" ry="33.37"/>
   <ellipse class="fil0" cx="2842.52" cy="6289.84" rx="35.42" ry="33.37"/>
   <ellipse class="fil0" cx="3018.23" cy="6186.83" rx="35.42" ry="33.37"/>
   <ellipse class="fil0" cx="3138.78" cy="6028.09" rx="35.42" ry="33.37"/>
   <ellipse class="fil0" cx="3185.77" cy="5822.55" rx="35.42" ry="33.37"/>
   <ellipse class="fil0" cx="3151.74" cy="5646.52" rx="35.42" ry="33.37"/>
   <ellipse class="fil0" cx="3042.38" cy="5481.01" rx="35.42" ry="33.37"/>
   <ellipse class="fil0" cx="2873.85" cy="5367.46" rx="35.42" ry="33.37"/>
   <polygon class="fil9" points="2184.76,6502.49 2205.7,6502.49 2650.51,5822.55 2660.78,5822.55 2252.42,6502.49 3126.53,6502.49 3126.53,6546.67 2233.19,6546.67 2184.76,6546.67 2184.76,6534.51 "/>
   <path class="fil9" d="M2670.77 5837.82l455.76 696.69 0 12.17 -48.43 0 0 -12.17 -415.65 -692.08c-2.14,0.65 -4.43,1 -6.81,1 -12.25,0 -22.17,-9.34 -22.17,-20.88 0,-11.54 9.92,-20.88 22.17,-20.88 12.25,0 22.17,9.34 22.17,20.88 0,6.03 -2.71,11.46 -7.04,15.27z"/>
  </g>
  <path class="fil10" d="M7277.93 3688.62c63.62,-19.21 101.14,-50.14 148.7,-86.38l131.53 -112.25c1.15,55.54 5.67,140.86 33.28,179.57 47.94,-33.12 71.85,-47.65 85.22,-105.99 13.34,-58.23 6.93,-123.47 9.1,-184.87 46.58,35.48 93.38,113.27 138.59,139.53 17.07,9.92 3.57,6.34 26,10.86l24.73 -16.54c-24.18,-89.43 -171.14,-176.37 -210.94,-287.83 -39.14,61.24 -56.82,115.12 -104.99,178.73 -36.33,47.98 -97.14,117.27 -147.19,137.32 37.83,-106.01 166.73,-234.07 165.85,-349.81 -41.37,79.18 -66.59,45.81 -158.69,237.71 -36.28,75.58 -121.48,199.6 -141.19,259.93zm59.07 -321.28c73.73,0.41 110.2,-46.48 126.2,-107.19 -44.42,19.72 -106.73,64.91 -126.2,107.19zm381.3 -734.77c85.7,-56.73 28.02,-169.24 -10.77,-229.19l10.77 229.19zm97.85 728.02c-5.17,-34 -24.59,-84.35 -35.31,-114.75 -17.93,-50.84 -39.89,-66.22 -88.19,-84.88 14,80.59 72.41,143.77 123.5,199.62zm35.54 24.92c48.87,-5.13 54.96,-17.12 70.24,-49.69 -25.77,-45.36 -59.23,-107.35 -110.39,-125.36l40.15 175.05zm-381.2 -582.3c68.53,-7.42 61.56,-35.96 100.13,-72.63 87.65,57.26 72.06,82.15 132.82,73.01 -8.05,-45.32 -97.59,-113.94 -132.82,-135.81 -29.57,35.11 -85.68,97.46 -100.13,135.43zm-60.16 224.23c47.37,-0.16 47.12,-40.6 100.88,-68.29 -22.23,91.07 -109.48,106.26 -128.97,178.23 32.4,-9.78 244.61,-169.77 176.55,-308.23 -30.98,24.12 -52.52,65.38 -78.61,98.41 -20.92,26.48 -64.34,70.96 -69.85,99.87zm378.94 -142.95l10.54 -38.31c1.19,-16.18 -1.35,-44.06 -1.16,-62.44 9.22,7.95 7.19,4.86 16.45,17.19 7.53,10.02 10.34,15.81 15.44,25.63 9.8,18.83 15.3,31.85 27.41,52.15 22.11,37.05 36.68,73.78 81.49,68.13 2.02,-18.33 -112.61,-287.84 -132.78,-323.67 -71.87,154.48 -60.64,110.7 -17.39,261.33 -56.58,-74.9 -17.5,-42.69 -103.86,-57.23 17.84,90.05 230.69,421.12 313.61,263.43 -42.23,-22.02 -146.82,-25.8 -209.75,-206.19zm-64.88 167.87c-52.57,-23.75 -50.7,-45.93 -91.31,-77.19 -35.87,32.43 -15.92,31.24 -64.78,63.64 -36.99,24.53 -194.18,170.8 -204.08,207.89 87.18,-14.2 196.65,-109.56 237.63,-193.97 1.76,1.48 4.36,1.76 5.11,4.61 4.55,17.34 174.12,110.45 235.18,129.12 -14.79,-31.13 -67.4,-96.68 -112.28,-186.63 -46.43,-93.07 -39.14,-117.97 -112.36,-179.04 22.49,98.9 73.92,149.48 106.88,231.56z"/>
 </g>
</svg>
