<?xml version="1.0" encoding="UTF-8"?>
<!DOCTYPE svg PUBLIC "-//W3C//DTD SVG 1.1//EN" "http://www.w3.org/Graphics/SVG/1.1/DTD/svg11.dtd">
<!-- Creator: CorelDRAW X8 -->
<svg xmlns="http://www.w3.org/2000/svg" xml:space="preserve" width="31.1419mm" height="33.8834mm" version="1.1" style="shape-rendering:geometricPrecision; text-rendering:geometricPrecision; image-rendering:optimizeQuality; fill-rule:evenodd; clip-rule:evenodd"
viewBox="0 0 4326 4707"
 xmlns:xlink="http://www.w3.org/1999/xlink">
 <defs>
  <style type="text/css">
   <![CDATA[
    .fil0 {fill:#2C3D51}
    .fil3 {fill:#3C0404}
    .fil1 {fill:#FFBD2D}
    .fil4 {fill:red;fill-rule:nonzero}
    .fil2 {fill:white;fill-opacity:0.301961}
   ]]>
  </style>
 </defs>
 <g id="Layer_x0020_1">
  <metadata id="CorelCorpID_0Corel-Layer"/>
  <g id="_2537743656240">
   <path class="fil0" d="M214 2491c-125,-45 -214,-165 -214,-306 0,-154 106,-283 249,-317 188,-811 914,-1415 1782,-1415 866,0 1592,602 1781,1412 150,29 263,161 263,320 0,146 -96,269 -228,311 -39,333 -167,638 -360,891l0 0c0,0 180,52 -13,1320 0,0 -105,-512 -929,-670l0 -1c-163,48 -336,74 -514,74 -939,0 -1713,-708 -1817,-1619z"/>
   <circle class="fil1" cx="2031" cy="2281" r="1627"/>
   <path class="fil2" d="M2031 655c699,0 1294,440 1525,1059 -404,457 -939,735 -1525,735 -586,0 -1121,-278 -1525,-735 230,-619 826,-1059 1525,-1059z"/>
   <path class="fil0" d="M495 517c132,0 238,106 238,238 0,131 -106,238 -238,238 -131,0 -238,-107 -238,-238 0,-132 107,-238 238,-238zm2280 -292c18,0 33,14 33,32 0,18 -15,33 -33,33 -18,0 -32,-15 -32,-33 0,-18 14,-32 32,-32zm-184 -84c27,0 48,21 48,47 0,27 -21,48 -48,48 -26,0 -47,-21 -47,-48 0,-26 21,-47 47,-47zm-229 -76c39,0 70,32 70,71 0,38 -31,70 -70,70 -39,0 -71,-32 -71,-70 0,-39 32,-71 71,-71zm-264 -56c55,0 101,45 101,101 0,56 -46,101 -101,101 -56,0 -102,-45 -102,-101 0,-56 46,-101 102,-101zm-341 -9c73,0 131,59 131,131 0,72 -58,131 -131,131 -72,0 -130,-59 -130,-131 0,-72 58,-131 130,-131zm-406 44c96,0 174,78 174,174 0,97 -78,175 -174,175 -97,0 -175,-78 -175,-175 0,-96 78,-174 175,-174zm-411 160c111,0 202,91 202,203 0,111 -91,202 -202,202 -112,0 -203,-91 -203,-202 0,-112 91,-203 203,-203z"/>
   <g>
    <path class="fil3" d="M1403 2772c555,263 701,263 1256,0 -163,507 -1107,460 -1256,0z"/>
    <g>
     <path class="fil3" d="M1717 1616c4,5 6,10 6,17 0,15 -12,27 -28,27 -9,0 -17,-4 -22,-11 -274,-227 -387,-120 -618,106 -9,14 -25,22 -42,22 -28,0 -50,-22 -50,-50 0,-7 1,-14 4,-21l0 0c1,-2 3,-5 5,-8 171,-299 519,-383 745,-82z"/>
     <path class="fil3" d="M2344 1616c-3,5 -5,10 -5,17 0,15 12,27 27,27 9,0 18,-4 23,-11 274,-227 387,-120 618,106 9,14 24,22 42,22 27,0 50,-22 50,-50 0,-7 -2,-14 -4,-21l0 0c-2,-2 -3,-5 -5,-8 -171,-299 -519,-383 -746,-82z"/>
    </g>
   </g>
   <path class="fil4" d="M3839 1815c-61,-91 -122,-137 -244,-137 -134,0 -243,82 -243,182 0,183 243,365 487,548 244,-183 487,-365 487,-548 0,-100 -109,-182 -243,-182 -122,0 -183,46 -244,137z"/>
   <path class="fil4" d="M1117 3450c-88,-144 -175,-216 -351,-216 -193,0 -350,129 -350,288 0,288 350,576 701,864 350,-288 700,-576 700,-864 0,-159 -156,-288 -350,-288 -175,0 -263,72 -350,216z"/>
   <path class="fil4" d="M804 602c-62,-104 -125,-156 -250,-156 -139,0 -251,93 -251,209 0,209 251,417 501,626 251,-209 502,-417 502,-626 0,-116 -113,-209 -251,-209 -125,0 -188,52 -251,156z"/>
  </g>
 </g>
</svg>
