<?xml version="1.0" encoding="UTF-8"?>
<!DOCTYPE svg PUBLIC "-//W3C//DTD SVG 1.1//EN" "http://www.w3.org/Graphics/SVG/1.1/DTD/svg11.dtd">
<!-- Creator: CorelDRAW X8 -->
<svg xmlns="http://www.w3.org/2000/svg" xml:space="preserve" width="31.564mm" height="35.6728mm" version="1.1" style="shape-rendering:geometricPrecision; text-rendering:geometricPrecision; image-rendering:optimizeQuality; fill-rule:evenodd; clip-rule:evenodd"
viewBox="0 0 1264 1429"
 xmlns:xlink="http://www.w3.org/1999/xlink">
 <defs>
  <style type="text/css">
   <![CDATA[
    .fil0 {fill:#2C3D51}
    .fil3 {fill:#3C0404}
    .fil1 {fill:#FEC12B}
    .fil4 {fill:red;fill-rule:nonzero}
    .fil2 {fill:white;fill-opacity:0.301961}
   ]]>
  </style>
 </defs>
 <g id="Layer_x0020_1">
  <metadata id="CorelCorpID_0Corel-Layer"/>
  <g id="_2537699139888">
   <path class="fil0" d="M0 218l0 30c1,1 2,3 3,4 2,7 5,14 8,19 3,4 6,8 11,12l0 0 0 1c11,10 26,16 42,16l0 0 0 0 1 0c33,1 66,-24 67,-63 1,-38 -25,-61 -55,-66l-1 -1 0 0 -1 0 -2 0 0 0c-1,0 -2,0 -2,0l-1 0 -1 0c-18,-1 -37,5 -50,20 -5,5 -10,11 -13,18l-4 8c-1,-1 -1,1 -2,2zm135 323c-50,0 -90,40 -90,90 0,49 40,90 90,90 1,0 2,0 3,0l0 255c0,97 79,176 176,176l419 0c1,1 2,2 3,3 151,180 109,274 109,274 194,-217 163,-261 205,-284 9,-3 18,-6 26,-10l1 0 0 0c59,-28 100,-89 100,-159l0 -255c49,-2 87,-42 87,-90 0,-49 -38,-88 -87,-90l0 -256c0,-96 -79,-175 -175,-175l-688 0c-97,0 -176,79 -176,175l0 256c-1,0 -2,0 -3,0zm-37 -436c5,22 20,35 38,40 5,1 11,2 16,2 11,0 21,-3 30,-8 18,-10 31,-31 24,-60 -5,-20 -18,-32 -34,-38 -6,-2 -13,-3 -20,-3 -12,0 -24,4 -33,11 -15,11 -25,30 -21,56zm187 -105c24,0 44,20 44,44 0,24 -20,44 -44,44 -24,0 -44,-20 -44,-44 0,-24 20,-44 44,-44zm441 33c6,0 10,5 10,11 0,6 -4,10 -10,10 -6,0 -11,-4 -11,-10 0,-6 5,-11 11,-11zm-56 -4c8,0 15,7 15,15 0,8 -7,15 -15,15 -8,0 -15,-7 -15,-15 0,-8 7,-15 15,-15zm-74 -7c12,0 21,10 21,22 0,12 -9,21 -21,21 -12,0 -21,-9 -21,-21 0,-12 9,-22 21,-22zm-81 -4c14,0 26,11 26,26 0,14 -12,26 -26,26 -15,0 -26,-12 -26,-26 0,-15 11,-26 26,-26zm-103 -8c19,0 34,15 34,34 0,19 -15,34 -34,34 -19,0 -34,-15 -34,-34 0,-19 15,-34 34,-34z"/>
   <rect class="fil1" x="204" y="175" width="908" height="911" rx="153" ry="29"/>
   <path class="fil2" d="M357 175l601 0c85,0 154,70 154,154l0 202c-124,100 -282,160 -454,160 -172,0 -330,-60 -454,-160l0 -202c0,-84 69,-154 153,-154z"/>
   <path class="fil3" d="M477 836c160,76 202,76 362,0 -47,146 -319,133 -362,0z"/>
   <g>
    <path class="fil3" d="M567 503c1,1 2,3 2,5 0,4 -4,8 -8,8 -3,0 -5,-2 -6,-4 -79,-65 -112,-34 -179,31 -2,4 -7,6 -12,6 -8,0 -14,-6 -14,-14 0,-2 0,-4 1,-6l0 0c0,-1 1,-2 1,-2 50,-87 150,-111 215,-24z"/>
    <path class="fil3" d="M748 503c-1,1 -2,3 -2,5 0,4 4,8 8,8 3,0 5,-2 7,-4 79,-65 111,-34 178,31 3,4 7,6 12,6 8,0 15,-6 15,-14 0,-2 -1,-4 -2,-6l0 0c0,-1 0,-2 -1,-2 -49,-87 -150,-111 -215,-24z"/>
   </g>
   <path class="fil4" d="M162 559c18,-26 36,-39 71,-39 38,0 70,23 70,52 0,53 -70,105 -141,158 -70,-53 -140,-105 -140,-158 0,-29 31,-52 70,-52 35,0 53,13 70,39z"/>
   <path class="fil4" d="M947 1030c25,-41 51,-62 101,-62 56,0 101,37 101,83 0,83 -101,166 -202,249 -101,-83 -202,-166 -202,-249 0,-46 45,-83 101,-83 51,0 76,21 101,62z"/>
   <path class="fil4" d="M1037 210c18,-31 36,-46 73,-46 39,0 72,27 72,61 0,60 -72,120 -145,180 -72,-60 -144,-120 -144,-180 0,-34 32,-61 72,-61 36,0 54,15 72,46z"/>
  </g>
 </g>
</svg>
