<?xml version="1.0" encoding="UTF-8"?>
<!DOCTYPE svg PUBLIC "-//W3C//DTD SVG 1.1//EN" "http://www.w3.org/Graphics/SVG/1.1/DTD/svg11.dtd">
<!-- Creator: CorelDRAW X8 -->
<svg xmlns="http://www.w3.org/2000/svg" xml:space="preserve" width="31.564mm" height="35.6728mm" version="1.1" style="shape-rendering:geometricPrecision; text-rendering:geometricPrecision; image-rendering:optimizeQuality; fill-rule:evenodd; clip-rule:evenodd"
viewBox="0 0 356 403"
 xmlns:xlink="http://www.w3.org/1999/xlink">
 <defs>
  <style type="text/css">
   <![CDATA[
    .fil0 {fill:#2C3D51}
    .fil5 {fill:#3C0404}
    .fil4 {fill:#872C0C}
    .fil6 {fill:#F32D2D}
    .fil1 {fill:#FEC12B}
    .fil3 {fill:white}
    .fil7 {fill:white;fill-opacity:0.168627}
    .fil8 {fill:white;fill-opacity:0.231373}
    .fil2 {fill:white;fill-opacity:0.301961}
   ]]>
  </style>
 </defs>
 <g id="Layer_x0020_1">
  <metadata id="CorelCorpID_0Corel-Layer"/>
  <g id="_2537600847168">
   <path class="fil0" d="M0 61l0 9c0,0 1,1 1,1 0,2 1,4 2,5 1,2 2,3 3,4l0 0 0 0c3,3 7,4 12,5l0 0 0 0 0 0c10,0 19,-7 19,-18 0,-11 -7,-17 -15,-19l-1 0 0 0 0 0 0 0 0 0c-1,0 -1,0 -1,0l0 0 -1 0c-5,0 -10,1 -14,5 -1,2 -2,4 -3,6l-2 2c0,0 0,0 0,0zm38 91c-14,0 -25,12 -25,26 0,14 11,25 25,25 0,0 1,0 1,0l0 72c0,27 22,50 49,50l119 0c0,0 0,0 0,0 43,51 31,78 31,78 55,-61 46,-74 58,-80 3,-1 5,-2 7,-3l0 0 0 0c17,-8 29,-25 29,-45l0 -72c13,0 24,-12 24,-25 0,-14 -11,-25 -24,-26l0 -72c0,-27 -22,-49 -50,-49l-194 0c-27,0 -49,22 -49,49l0 72c0,0 -1,0 -1,0zm-10 -123c1,7 5,11 10,12 2,0 3,0 5,0 3,0 6,0 8,-2 5,-3 9,-9 7,-17 -1,-5 -5,-9 -10,-10 -1,-1 -3,-1 -5,-1 -4,0 -7,1 -10,3 -4,3 -7,8 -5,15zm52 -29c7,0 13,6 13,12 0,7 -6,13 -13,13 -7,0 -12,-6 -12,-13 0,-6 5,-12 12,-12zm125 9c1,0 2,2 2,3 0,2 -1,3 -2,3 -2,0 -3,-1 -3,-3 0,-1 1,-3 3,-3zm-16 -1c2,0 4,2 4,4 0,3 -2,4 -4,4 -3,0 -4,-1 -4,-4 0,-2 1,-4 4,-4zm-21 -2c3,0 6,3 6,6 0,4 -3,6 -6,6 -3,0 -6,-2 -6,-6 0,-3 3,-6 6,-6zm-23 -1c4,0 7,3 7,7 0,4 -3,8 -7,8 -4,0 -7,-4 -7,-8 0,-4 3,-7 7,-7zm-29 -2c5,0 10,4 10,9 0,6 -5,10 -10,10 -5,0 -10,-4 -10,-10 0,-5 5,-9 10,-9z"/>
   <rect class="fil1" x="57" y="49" width="256" height="257" rx="43" ry="8"/>
   <path class="fil2" d="M101 49l169 0c24,0 43,20 43,44l0 57c-35,28 -79,45 -128,45 -48,0 -93,-17 -128,-45l0 -57c0,-24 20,-44 44,-44z"/>
   <g>
    <ellipse class="fil3" cx="239" cy="122" rx="36" ry="40"/>
    <path class="fil4" d="M242 105c0,0 0,0 0,0 0,1 0,2 0,3 0,7 5,13 12,13 1,0 2,0 3,-1 0,0 0,0 0,0 0,9 -7,16 -15,16 -9,0 -16,-7 -16,-16 0,-8 7,-15 16,-15z"/>
    <path class="fil4" d="M103 146c-1,1 -2,1 -3,1 -2,0 -4,-2 -4,-4 0,-1 1,-3 2,-3 0,0 17,-20 41,-19 21,1 29,11 31,14 1,1 1,1 1,2 0,2 -2,3 -3,3 -1,0 -2,0 -2,-1 0,0 -13,-3 -31,-1 -17,2 -32,8 -32,8l0 0z"/>
   </g>
   <g>
    <path class="fil5" d="M185 230c-15,-1 -48,-4 -63,-9 -21,-6 -19,-6 -19,-6 0,0 -12,-4 -11,7 0,2 0,5 2,9 17,46 44,66 91,66l0 0 0 0c48,0 74,-20 92,-66 1,-4 2,-7 1,-9 2,-11 -10,-7 -10,-7 0,0 1,0 -19,6 -15,5 -49,8 -64,9z"/>
    <path class="fil6" d="M237 262c0,0 15,6 7,11 -8,6 -9,6 -9,6 0,0 -24,7 -31,24 -7,16 -14,22 -14,22 0,0 -17,13 -38,13 -20,0 -34,-22 -34,-22 0,0 -7,-13 1,-26 8,-13 20,-25 20,-25 0,0 19,-17 36,-16 17,1 36,0 36,0 0,0 10,-1 26,13z"/>
    <path class="fil7" d="M145 337c-17,-4 -27,-21 -27,-21 0,0 -7,-13 1,-26 8,-13 20,-25 20,-25 0,0 19,-17 36,-16 4,0 8,0 12,0 0,0 -26,18 -20,28 8,-19 26,-28 26,-28l0 0c10,0 18,0 18,0 0,0 2,0 6,1 5,4 8,9 7,12 -1,7 -4,8 -4,8 0,0 -26,15 -29,31 -3,17 -22,28 -22,28 0,0 -12,5 -24,8z"/>
    <path class="fil8" d="M138 295c-6,10 -6,17 -6,17 0,0 -6,8 -9,1 -3,-7 -1,-16 -1,-16 0,0 7,-24 18,-22 9,1 0,16 -2,20z"/>
   </g>
  </g>
 </g>
</svg>
