<?xml version="1.0" encoding="UTF-8"?>
<!DOCTYPE svg PUBLIC "-//W3C//DTD SVG 1.1//EN" "http://www.w3.org/Graphics/SVG/1.1/DTD/svg11.dtd">
<!-- Creator: CorelDRAW X8 -->
<svg xmlns="http://www.w3.org/2000/svg" xml:space="preserve" width="29.3356mm" height="33.8834mm" version="1.1" style="shape-rendering:geometricPrecision; text-rendering:geometricPrecision; image-rendering:optimizeQuality; fill-rule:evenodd; clip-rule:evenodd"
viewBox="0 0 482 557"
 xmlns:xlink="http://www.w3.org/1999/xlink">
 <defs>
  <style type="text/css">
   <![CDATA[
    .fil0 {fill:#2C3D51}
    .fil5 {fill:#3C0404}
    .fil4 {fill:#872C0C}
    .fil6 {fill:#F32D2D}
    .fil1 {fill:#FFBD2D}
    .fil3 {fill:white}
    .fil7 {fill:white;fill-opacity:0.168627}
    .fil8 {fill:white;fill-opacity:0.231373}
    .fil2 {fill:white;fill-opacity:0.301961}
   ]]>
  </style>
 </defs>
 <g id="Layer_x0020_1">
  <metadata id="CorelCorpID_0Corel-Layer"/>
  <g id="_2537542452736">
   <path class="fil0" d="M25 295c-14,-6 -25,-20 -25,-36 0,-19 13,-34 29,-38 23,-96 109,-167 211,-167 103,0 189,71 211,167 18,3 31,19 31,38 0,17 -11,31 -27,36 -4,40 -20,76 -42,106l0 0c0,0 21,6 -2,156 0,0 -12,-61 -110,-79l0 0c-19,5 -40,8 -61,8 -111,0 -202,-83 -215,-191z"/>
   <circle class="fil1" cx="240" cy="270" r="192"/>
   <path class="fil2" d="M240 77c83,0 153,53 181,126 -48,54 -111,87 -181,87 -69,0 -132,-33 -180,-87 27,-73 98,-126 180,-126z"/>
   <path class="fil0" d="M59 61c15,0 28,13 28,28 0,16 -13,28 -28,28 -16,0 -29,-12 -29,-28 0,-15 13,-28 29,-28zm269 -34c3,0 4,1 4,3 0,3 -1,4 -4,4 -2,0 -3,-1 -3,-4 0,-2 1,-3 3,-3zm-21 -10c3,0 5,2 5,5 0,3 -2,6 -5,6 -3,0 -6,-3 -6,-6 0,-3 3,-5 6,-5zm-28 -9c5,0 9,3 9,8 0,5 -4,8 -9,8 -4,0 -8,-3 -8,-8 0,-5 4,-8 8,-8zm-31 -7c7,0 12,5 12,12 0,7 -5,12 -12,12 -6,0 -12,-5 -12,-12 0,-7 6,-12 12,-12zm-40 -1c9,0 15,7 15,15 0,9 -6,16 -15,16 -9,0 -16,-7 -16,-16 0,-8 7,-15 16,-15zm-48 5c11,0 21,9 21,21 0,11 -10,20 -21,20 -12,0 -21,-9 -21,-20 0,-12 9,-21 21,-21zm-49 19c13,0 24,11 24,24 0,13 -11,24 -24,24 -13,0 -24,-11 -24,-24 0,-13 11,-24 24,-24z"/>
   <g>
    <ellipse class="fil3" cx="162" cy="184" rx="52" ry="58"/>
    <path class="fil4" d="M158 158c0,0 0,0 -1,0 0,2 1,3 1,5 0,10 -8,19 -17,19 -2,0 -4,-1 -6,-1 0,0 0,0 0,0 0,13 10,23 23,23 13,0 23,-10 23,-23 0,-12 -10,-23 -23,-23z"/>
    <path class="fil4" d="M360 219c1,1 3,1 5,1 3,0 6,-2 6,-6 0,-2 -2,-4 -3,-5 0,0 -25,-28 -60,-27 -31,2 -43,17 -46,21 0,0 -1,1 -1,2 0,3 2,5 5,5 1,0 2,0 3,-1 0,0 18,-6 44,-3 26,3 47,13 47,13l0 0z"/>
   </g>
   <g>
    <path class="fil5" d="M240 339c22,-1 71,-5 93,-12 30,-9 28,-9 28,-9 0,0 17,-5 15,11 0,3 0,7 -3,13 -25,67 -63,95 -133,95l0 0 0 0c-69,0 -108,-28 -133,-95 -2,-6 -3,-10 -2,-13 -2,-16 15,-11 15,-11 0,0 -2,0 27,9 23,7 71,11 93,12z"/>
    <path class="fil6" d="M164 387c0,0 -21,9 -9,16 12,8 12,8 12,8 0,0 36,11 46,35 10,24 20,32 20,32 0,0 25,20 55,20 31,0 50,-33 50,-33 0,0 11,-18 0,-38 -12,-19 -31,-36 -31,-36 0,0 -27,-25 -51,-23 -25,1 -54,0 -54,0 0,0 -13,-1 -38,19z"/>
    <path class="fil7" d="M300 496c23,-7 38,-31 38,-31 0,0 11,-18 0,-38 -12,-19 -31,-36 -31,-36 0,0 -27,-25 -51,-23 -6,0 -12,0 -18,0 0,0 38,26 29,41 -12,-28 -38,-41 -38,-41l0 0c-15,0 -27,0 -27,0 0,0 -3,-1 -8,1 -6,6 -11,13 -10,17 2,11 7,13 7,13 0,0 37,21 41,45 4,24 32,41 32,41 0,0 17,6 36,11z"/>
    <path class="fil8" d="M309 435c9,14 9,25 9,25 0,0 9,10 13,0 4,-10 1,-22 1,-22 0,0 -9,-36 -26,-33 -13,2 0,24 3,30z"/>
   </g>
  </g>
 </g>
</svg>
