<?xml version="1.0" encoding="UTF-8"?>
<!DOCTYPE svg PUBLIC "-//W3C//DTD SVG 1.1//EN" "http://www.w3.org/Graphics/SVG/1.1/DTD/svg11.dtd">
<!-- Creator: CorelDRAW X8 -->
<svg xmlns="http://www.w3.org/2000/svg" xml:space="preserve" width="31.564mm" height="35.6728mm" version="1.1" style="shape-rendering:geometricPrecision; text-rendering:geometricPrecision; image-rendering:optimizeQuality; fill-rule:evenodd; clip-rule:evenodd"
viewBox="0 0 1203 1360"
 xmlns:xlink="http://www.w3.org/1999/xlink">
 <defs>
  <style type="text/css">
   <![CDATA[
    .fil3 {fill:black}
    .fil4 {fill:#2A1304}
    .fil0 {fill:#2C3D51}
    .fil6 {fill:#EE6473}
    .fil1 {fill:#FEC12B}
    .fil5 {fill:white}
    .fil2 {fill:white;fill-opacity:0.301961}
   ]]>
  </style>
 </defs>
 <g id="Layer_x0020_1">
  <metadata id="CorelCorpID_0Corel-Layer"/>
  <g id="_2537813933536">
   <path class="fil0" d="M0 208l0 28c1,1 2,3 3,4 1,7 4,13 8,18 2,4 5,7 10,12l0 0 0 0c11,9 24,15 40,16l0 0 0 0 0 0c33,1 63,-23 64,-61 1,-35 -24,-58 -51,-63l-2 0 0 0 -1 0 -1 0 -1 0c0,0 -1,0 -2,0l0 0 -2 0c-17,-1 -34,5 -47,18 -5,5 -9,11 -12,18l-4 7c-1,0 -1,2 -2,3zm129 307c-48,0 -86,38 -86,85 0,48 38,86 86,86 0,0 1,0 2,0l0 243c0,92 76,167 168,167l399 0c1,1 1,2 2,3 144,172 104,261 104,261 185,-206 155,-248 196,-270 8,-3 17,-6 25,-10l0 0 0 0c56,-27 96,-84 96,-151l0 -243c45,-2 82,-39 82,-86 0,-46 -37,-84 -82,-85l0 -243c0,-92 -76,-167 -168,-167l-654 0c-92,0 -168,75 -168,167l0 243c-1,0 -2,0 -2,0zm-35 -415c4,21 19,34 36,38 5,1 10,2 15,2 10,0 20,-3 28,-8 18,-10 29,-29 23,-57 -5,-19 -17,-31 -32,-36 -6,-2 -12,-3 -19,-3 -12,0 -23,4 -32,11 -14,10 -24,28 -19,53zm177 -100c23,0 42,19 42,42 0,23 -19,41 -42,41 -23,0 -42,-18 -42,-41 0,-23 19,-42 42,-42zm420 32c5,0 10,4 10,10 0,5 -5,10 -10,10 -6,0 -10,-5 -10,-10 0,-6 4,-10 10,-10zm-53 -4c7,0 14,6 14,14 0,7 -7,14 -14,14 -8,0 -14,-7 -14,-14 0,-8 6,-14 14,-14zm-71 -7c12,0 21,9 21,21 0,11 -9,20 -21,20 -11,0 -20,-9 -20,-20 0,-12 9,-21 20,-21zm-77 -4c14,0 25,11 25,25 0,13 -11,24 -25,24 -14,0 -25,-11 -25,-24 0,-14 11,-25 25,-25zm-98 -8c18,0 32,15 32,33 0,18 -14,32 -32,32 -18,0 -32,-14 -32,-32 0,-18 14,-33 32,-33z"/>
   <rect class="fil1" x="194" y="167" width="865" height="867" rx="146" ry="27"/>
   <path class="fil2" d="M340 167l572 0c81,0 146,66 146,146l0 192c-118,96 -268,153 -432,153 -164,0 -314,-57 -432,-153l0 -192c0,-80 65,-146 146,-146z"/>
   <g>
    <g>
     <g>
      <path class="fil3" d="M797 324c65,104 190,69 190,69 0,0 -107,-3 -190,-69z"/>
      <path class="fil3" d="M455 324c-65,104 -190,69 -190,69 0,0 107,-3 190,-69z"/>
     </g>
     <g>
      <g>
       <circle class="fil4" cx="831" cy="527" r="83"/>
       <circle class="fil5" cx="860" cy="489" r="24"/>
      </g>
      <g>
       <circle class="fil4" cx="421" cy="527" r="83"/>
       <circle class="fil5" cx="451" cy="489" r="24"/>
      </g>
     </g>
    </g>
    <g>
     <path class="fil4" d="M626 763c96,0 174,62 174,137 0,11 -1,21 -4,30 -46,-18 -105,-29 -170,-29 -65,0 -124,11 -170,29 -3,-9 -4,-19 -4,-30 0,-75 78,-137 174,-137z"/>
     <path class="fil6" d="M764 919c-40,-11 -87,-18 -138,-18 -51,0 -98,7 -138,18 18,-42 73,-74 138,-74 65,0 120,32 138,74z"/>
     <path class="fil5" d="M626 763c63,0 118,27 149,66 -44,-15 -95,-24 -149,-24 -54,0 -105,9 -149,24 31,-39 86,-66 149,-66z"/>
    </g>
   </g>
  </g>
 </g>
</svg>
