<?xml version="1.0" encoding="UTF-8"?>
<!DOCTYPE svg PUBLIC "-//W3C//DTD SVG 1.1//EN" "http://www.w3.org/Graphics/SVG/1.1/DTD/svg11.dtd">
<!-- Creator: CorelDRAW X8 -->
<svg xmlns="http://www.w3.org/2000/svg" xml:space="preserve" width="29.3356mm" height="33.8834mm" version="1.1" style="shape-rendering:geometricPrecision; text-rendering:geometricPrecision; image-rendering:optimizeQuality; fill-rule:evenodd; clip-rule:evenodd"
viewBox="0 0 4671 5395"
 xmlns:xlink="http://www.w3.org/1999/xlink">
 <defs>
  <style type="text/css">
   <![CDATA[
    .fil3 {fill:black}
    .fil4 {fill:#2A1304}
    .fil0 {fill:#2C3D51}
    .fil6 {fill:#EE6473}
    .fil1 {fill:#FFBD2D}
    .fil5 {fill:white}
    .fil2 {fill:white;fill-opacity:0.301961}
   ]]>
  </style>
 </defs>
 <g id="Layer_x0020_1">
  <metadata id="CorelCorpID_0Corel-Layer"/>
  <g id="_2537607701600">
   <path class="fil0" d="M246 2855c-144,-52 -246,-189 -246,-351 0,-176 122,-324 286,-363 214,-930 1047,-1622 2042,-1622 993,0 1825,691 2041,1618 172,34 302,185 302,367 0,168 -110,309 -261,357 -45,381 -192,731 -413,1022l0 0c0,0 206,59 -16,1512 0,0 -120,-587 -1063,-768l-1 0c-187,54 -384,84 -589,84 -1076,0 -1963,-811 -2082,-1856z"/>
   <circle class="fil1" cx="2328" cy="2615" r="1864"/>
   <path class="fil2" d="M2328 750c801,0 1483,505 1747,1214 -462,524 -1075,843 -1747,843 -672,0 -1285,-319 -1748,-843 264,-709 947,-1214 1748,-1214z"/>
   <path class="fil0" d="M568 592c150,0 272,123 272,273 0,151 -122,273 -272,273 -151,0 -273,-122 -273,-273 0,-150 122,-273 273,-273zm2613 -334c20,0 37,16 37,37 0,20 -17,37 -37,37 -21,0 -37,-17 -37,-37 0,-21 16,-37 37,-37zm-211 -97c30,0 55,25 55,55 0,30 -25,55 -55,55 -30,0 -54,-25 -54,-55 0,-30 24,-55 54,-55zm-263 -86c45,0 81,36 81,80 0,45 -36,81 -81,81 -45,0 -81,-36 -81,-81 0,-44 36,-80 81,-80zm-303 -64c64,0 116,51 116,115 0,64 -52,116 -116,116 -64,0 -116,-52 -116,-116 0,-64 52,-115 116,-115zm-390 -11c83,0 151,67 151,150 0,83 -68,150 -151,150 -82,0 -150,-67 -150,-150 0,-83 68,-150 150,-150zm-466 50c111,0 200,90 200,200 0,111 -89,200 -200,200 -110,0 -200,-89 -200,-200 0,-110 90,-200 200,-200zm-471 184c128,0 232,104 232,232 0,128 -104,232 -232,232 -128,0 -232,-104 -232,-232 0,-128 104,-232 232,-232z"/>
   <g>
    <g>
     <g>
      <path class="fil3" d="M3044 1347c269,437 792,291 792,291 0,0 -446,-14 -792,-291z"/>
      <path class="fil3" d="M1612 1347c-270,437 -793,291 -793,291 0,0 447,-14 793,-291z"/>
     </g>
     <g>
      <g>
       <circle class="fil4" cx="3183" cy="2198" r="347"/>
       <circle class="fil5" cx="3306" cy="2037" r="99"/>
      </g>
      <g>
       <circle class="fil4" cx="1473" cy="2198" r="347"/>
       <circle class="fil5" cx="1597" cy="2037" r="99"/>
      </g>
     </g>
    </g>
    <g>
     <path class="fil4" d="M2328 3183c401,0 727,256 727,573 0,43 -6,85 -18,126 -192,-77 -439,-123 -709,-123 -270,0 -518,46 -709,123 -12,-41 -18,-83 -18,-126 0,-317 325,-573 727,-573z"/>
     <path class="fil6" d="M2904 3836c-168,-49 -365,-77 -576,-77 -211,0 -408,28 -576,77 73,-179 303,-309 576,-309 272,0 502,130 576,309z"/>
     <path class="fil5" d="M2328 3183c264,0 495,111 622,276 -183,-65 -395,-103 -622,-103 -227,0 -440,38 -623,103 128,-165 359,-276 623,-276z"/>
    </g>
   </g>
  </g>
 </g>
</svg>
