<?xml version="1.0" encoding="UTF-8"?>
<!DOCTYPE svg PUBLIC "-//W3C//DTD SVG 1.1//EN" "http://www.w3.org/Graphics/SVG/1.1/DTD/svg11.dtd">
<!-- Creator: CorelDRAW X8 -->
<svg xmlns="http://www.w3.org/2000/svg" xml:space="preserve" width="29.3356mm" height="33.8834mm" version="1.1" style="shape-rendering:geometricPrecision; text-rendering:geometricPrecision; image-rendering:optimizeQuality; fill-rule:evenodd; clip-rule:evenodd"
viewBox="0 0 470 543"
 xmlns:xlink="http://www.w3.org/1999/xlink">
 <defs>
  <style type="text/css">
   <![CDATA[
    .fil3 {fill:#2A1304}
    .fil5 {fill:#2A1304}
    .fil0 {fill:#2C3D51}
    .fil1 {fill:#FFBD2D}
    .fil4 {fill:white}
    .fil2 {fill:white;fill-opacity:0.301961}
   ]]>
  </style>
 </defs>
 <g id="Layer_x0020_1">
  <metadata id="CorelCorpID_0Corel-Layer"/>
  <path class="fil0" d="M25 287c-15,-5 -25,-19 -25,-35 0,-18 12,-33 29,-37 21,-93 105,-163 205,-163 100,0 184,70 205,163 18,3 31,19 31,37 0,17 -11,31 -27,36 -4,38 -19,73 -41,102l0 0c0,0 21,6 -2,153 0,0 -12,-59 -107,-78l0 0c-18,6 -38,9 -59,9 -108,0 -197,-82 -209,-187z"/>
  <circle class="fil1" cx="234" cy="263" r="188"/>
  <path class="fil2" d="M234 75c81,0 149,51 176,123 -47,52 -108,84 -176,84 -67,0 -129,-32 -176,-84 27,-72 96,-123 176,-123z"/>
  <path class="fil0" d="M57 60c15,0 28,12 28,27 0,15 -13,27 -28,27 -15,0 -27,-12 -27,-27 0,-15 12,-27 27,-27zm263 -34c2,0 4,2 4,4 0,2 -2,3 -4,3 -2,0 -4,-1 -4,-3 0,-2 2,-4 4,-4zm-21 -10c3,0 5,3 5,6 0,3 -2,5 -5,5 -3,0 -6,-2 -6,-5 0,-3 3,-6 6,-6zm-27 -8c5,0 8,3 8,8 0,4 -3,8 -8,8 -4,0 -8,-4 -8,-8 0,-5 4,-8 8,-8zm-30 -7c6,0 11,5 11,12 0,6 -5,11 -11,11 -7,0 -12,-5 -12,-11 0,-7 5,-12 12,-12zm-39 -1c8,0 15,7 15,15 0,8 -7,15 -15,15 -9,0 -15,-7 -15,-15 0,-8 6,-15 15,-15zm-47 5c11,0 20,9 20,20 0,11 -9,20 -20,20 -11,0 -20,-9 -20,-20 0,-11 9,-20 20,-20zm-48 19c13,0 24,10 24,23 0,13 -11,23 -24,23 -13,0 -23,-10 -23,-23 0,-13 10,-23 23,-23z"/>
  <g id="_2537608338384">
   <circle class="fil3" cx="142" cy="200" r="40"/>
   <circle class="fil4" cx="155" cy="184" r="11"/>
   <circle class="fil3" cx="322" cy="200" r="40"/>
   <circle class="fil4" cx="335" cy="184" r="11"/>
   <path class="fil5" d="M134 402c0,0 2,-6 6,-14 12,-18 40,-52 88,-54 48,2 76,36 88,54 4,8 6,14 6,14 -1,-15 -10,-40 -19,-52 -13,-20 -36,-37 -74,-37l-1 0 0 0c-39,0 -62,17 -75,37 -8,12 -18,37 -19,52z"/>
  </g>
 </g>
</svg>
