<?xml version="1.0" encoding="UTF-8"?>
<!DOCTYPE svg PUBLIC "-//W3C//DTD SVG 1.1//EN" "http://www.w3.org/Graphics/SVG/1.1/DTD/svg11.dtd">
<!-- Creator: CorelDRAW X8 -->
<svg xmlns="http://www.w3.org/2000/svg" xml:space="preserve" width="29.3356mm" height="33.8834mm" version="1.1" style="shape-rendering:geometricPrecision; text-rendering:geometricPrecision; image-rendering:optimizeQuality; fill-rule:evenodd; clip-rule:evenodd"
viewBox="0 0 392 453"
 xmlns:xlink="http://www.w3.org/1999/xlink">
 <defs>
  <style type="text/css">
   <![CDATA[
    .fil2 {fill:aqua}
    .fil0 {fill:#2C3D51}
    .fil4 {fill:#3C0404}
    .fil1 {fill:#FFBD2D}
    .fil3 {fill:white}
   ]]>
  </style>
 </defs>
 <g id="Layer_x0020_1">
  <metadata id="CorelCorpID_0Corel-Layer"/>
  <g id="_1394312310160">
   <path class="fil0" d="M21 240c-12,-4 -21,-16 -21,-30 0,-14 10,-27 24,-30 18,-78 88,-136 172,-136 83,0 153,58 171,136 15,2 25,15 25,30 0,14 -9,26 -22,30 -3,32 -16,62 -34,86l0 0c0,0 17,5 -1,127 0,0 -11,-49 -90,-64l0 0c-16,4 -32,7 -49,7 -91,0 -165,-68 -175,-156z"/>
   <circle class="fil1" cx="196" cy="220" r="157"/>
   <path class="fil2" d="M196 63c67,0 124,42 146,102 -38,44 -90,71 -146,71 -57,0 -108,-27 -147,-71 22,-60 79,-102 147,-102z"/>
   <path class="fil0" d="M48 50c12,0 23,10 23,23 0,12 -11,23 -23,23 -13,0 -23,-11 -23,-23 0,-13 10,-23 23,-23zm219 -28c2,0 3,1 3,3 0,2 -1,3 -3,3 -1,0 -3,-1 -3,-3 0,-2 2,-3 3,-3zm-17 -8c2,0 4,2 4,4 0,3 -2,5 -4,5 -3,0 -5,-2 -5,-5 0,-2 2,-4 5,-4zm-23 -8c4,0 7,3 7,7 0,4 -3,7 -7,7 -3,0 -6,-3 -6,-7 0,-4 3,-7 6,-7zm-25 -5c5,0 10,4 10,10 0,5 -5,9 -10,9 -5,0 -10,-4 -10,-9 0,-6 5,-10 10,-10zm-33 -1c7,0 13,6 13,13 0,7 -6,12 -13,12 -7,0 -12,-5 -12,-12 0,-7 5,-13 12,-13zm-39 4c9,0 17,8 17,17 0,9 -8,17 -17,17 -9,0 -17,-8 -17,-17 0,-9 8,-17 17,-17zm-40 16c11,0 20,8 20,19 0,11 -9,20 -20,20 -10,0 -19,-9 -19,-20 0,-11 9,-19 19,-19z"/>
   <g>
    <circle class="fil3" cx="141" cy="174" r="41"/>
    <circle class="fil3" cx="251" cy="174" r="41"/>
    <circle class="fil4" cx="251" cy="172" r="19"/>
    <circle class="fil4" cx="141" cy="172" r="19"/>
    <circle class="fil3" cx="251" cy="165" r="9"/>
    <circle class="fil3" cx="141" cy="165" r="9"/>
   </g>
   <path class="fil4" d="M196 273c41,0 75,30 75,65 0,25 -33,-6 -74,-6 -42,0 -76,29 -76,6 0,-35 33,-65 75,-65z"/>
   <g>
    <path class="fil4" d="M241 118c-1,0 -2,0 -3,0 -5,0 -9,-4 -9,-9 0,-4 3,-7 6,-8 15,-14 68,13 84,32 1,1 1,2 1,4 0,2 -2,4 -4,4 -1,0 -2,0 -3,-1 0,0 -55,-23 -72,-22z"/>
    <path class="fil4" d="M150 118c1,0 2,0 3,0 5,0 9,-4 9,-9 0,-4 -2,-7 -6,-8 -14,-14 -68,13 -83,32 -2,1 -2,2 -2,4 0,2 2,4 4,4 1,0 2,0 3,-1 0,0 55,-23 72,-22z"/>
   </g>
  </g>
 </g>
</svg>
