<?xml version="1.0" encoding="UTF-8"?>
<!DOCTYPE svg PUBLIC "-//W3C//DTD SVG 1.1//EN" "http://www.w3.org/Graphics/SVG/1.1/DTD/svg11.dtd">
<!-- Creator: CorelDRAW X8 -->
<svg xmlns="http://www.w3.org/2000/svg" xml:space="preserve" width="31.564mm" height="35.6728mm" version="1.1" style="shape-rendering:geometricPrecision; text-rendering:geometricPrecision; image-rendering:optimizeQuality; fill-rule:evenodd; clip-rule:evenodd"
viewBox="0 0 844 954"
 xmlns:xlink="http://www.w3.org/1999/xlink">
 <defs>
  <style type="text/css">
   <![CDATA[
    .fil2 {fill:aqua}
    .fil0 {fill:#2C3D51}
    .fil4 {fill:#3C0404}
    .fil1 {fill:#FEC12B}
    .fil3 {fill:white}
   ]]>
  </style>
 </defs>
 <g id="Layer_x0020_1">
  <metadata id="CorelCorpID_0Corel-Layer"/>
  <g id="_1394310968928">
   <path class="fil0" d="M0 146l0 19c1,1 1,2 2,3 1,5 3,9 6,13 1,3 3,5 7,8l0 0 0 0c7,7 17,11 27,12l1 0 0 0 0 0c23,0 44,-17 45,-43 0,-25 -17,-41 -36,-44l-1 0 -1 0 0 0 -1 0 0 0c-1,-1 -1,-1 -2,-1l0 0 -1 0c-12,0 -24,4 -33,14 -4,3 -7,7 -9,12l-3 5c0,0 -1,1 -1,2zm90 215c-33,0 -60,27 -60,60 0,33 27,60 60,60 1,0 2,0 2,0l0 171c0,64 53,117 117,117l281 0c0,1 1,1 1,2 101,120 73,183 73,183 130,-145 109,-174 137,-189 6,-2 12,-4 18,-7l0 0 0 0c40,-19 67,-59 67,-106l0 -171c32,-1 58,-27 58,-60 0,-32 -26,-59 -58,-60l0 -170c0,-65 -53,-118 -117,-118l-460 0c-64,0 -117,53 -117,118l0 170c0,0 -1,0 -2,0zm-24 -291c3,15 13,24 25,27 3,1 7,1 11,1 7,0 14,-2 19,-5 13,-7 21,-21 16,-40 -3,-14 -12,-22 -22,-25 -4,-2 -9,-3 -13,-3 -9,0 -16,3 -23,8 -10,7 -16,20 -13,37zm124 -70c16,0 29,13 29,29 0,16 -13,29 -29,29 -16,0 -29,-13 -29,-29 0,-16 13,-29 29,-29zm295 22c3,0 7,3 7,7 0,4 -4,7 -7,7 -4,0 -7,-3 -7,-7 0,-4 3,-7 7,-7zm-38 -3c6,0 10,5 10,10 0,6 -4,10 -10,10 -5,0 -10,-4 -10,-10 0,-5 5,-10 10,-10zm-49 -4c8,0 14,6 14,14 0,8 -6,14 -14,14 -8,0 -14,-6 -14,-14 0,-8 6,-14 14,-14zm-54 -3c9,0 17,8 17,17 0,10 -8,18 -17,18 -10,0 -18,-8 -18,-18 0,-9 8,-17 18,-17zm-69 -5c13,0 23,10 23,22 0,13 -10,23 -23,23 -12,0 -23,-10 -23,-23 0,-12 11,-22 23,-22z"/>
   <rect class="fil1" x="136" y="117" width="607" height="608" rx="102" ry="19"/>
   <path class="fil2" d="M238 117l402 0c56,0 102,46 102,103l0 134c-83,67 -188,107 -303,107 -115,0 -220,-40 -303,-107l0 -134c0,-57 46,-103 102,-103z"/>
   <g>
    <circle class="fil3" cx="309" cy="327" r="98"/>
    <circle class="fil3" cx="570" cy="327" r="98"/>
    <circle class="fil4" cx="570" cy="324" r="44"/>
    <circle class="fil4" cx="309" cy="324" r="44"/>
    <circle class="fil3" cx="570" cy="306" r="21"/>
    <circle class="fil3" cx="309" cy="306" r="21"/>
   </g>
   <path class="fil4" d="M439 533c83,0 150,58 150,130 0,49 -65,-14 -147,-14 -83,0 -153,60 -153,14 0,-72 67,-130 150,-130z"/>
   <g>
    <path class="fil4" d="M538 205c-2,1 -4,1 -6,1 -10,0 -19,-9 -19,-19 0,-9 5,-16 13,-19 31,-30 149,30 183,71 2,2 3,5 3,8 0,5 -4,10 -10,10 -2,0 -4,-1 -6,-2 0,0 -120,-52 -158,-50z"/>
    <path class="fil4" d="M340 205c2,1 4,1 6,1 11,0 20,-9 20,-19 0,-9 -6,-16 -13,-19 -32,-30 -150,30 -183,71 -3,2 -4,5 -4,8 0,5 4,10 10,10 2,0 4,-1 6,-2 0,0 120,-52 158,-50z"/>
   </g>
  </g>
 </g>
</svg>
