<?xml version="1.0" encoding="UTF-8"?>
<!DOCTYPE svg PUBLIC "-//W3C//DTD SVG 1.1//EN" "http://www.w3.org/Graphics/SVG/1.1/DTD/svg11.dtd">
<!-- Creator: CorelDRAW X8 -->
<svg xmlns="http://www.w3.org/2000/svg" xml:space="preserve" width="29.3356mm" height="33.8834mm" version="1.1" style="shape-rendering:geometricPrecision; text-rendering:geometricPrecision; image-rendering:optimizeQuality; fill-rule:evenodd; clip-rule:evenodd"
viewBox="0 0 3389 3915"
 xmlns:xlink="http://www.w3.org/1999/xlink">
 <defs>
  <style type="text/css">
   <![CDATA[
    .fil3 {fill:#1B1F37}
    .fil0 {fill:#2C3D51}
    .fil4 {fill:#3C0404}
    .fil1 {fill:#FFBD2D}
    .fil2 {fill:white;fill-opacity:0.301961}
    .fil5 {fill:url(#id0)}
   ]]>
  </style>
  <linearGradient id="id0" gradientUnits="userSpaceOnUse" x1="2288.52" y1="2019.66" x2="2012.66" y2="2828.85">
   <stop offset="0" style="stop-opacity:1; stop-color:#E15261"/>
   <stop offset="1" style="stop-opacity:1; stop-color:#420909"/>
  </linearGradient>
 </defs>
 <g id="Layer_x0020_1">
  <metadata id="CorelCorpID_0Corel-Layer"/>
  <path class="fil0" d="M178 2072c-104,-38 -178,-138 -178,-255 0,-128 88,-235 207,-264 156,-674 760,-1177 1482,-1177 721,0 1324,502 1481,1175 125,24 219,134 219,266 0,121 -79,224 -190,259 -32,276 -139,530 -299,741l0 0c0,0 149,43 -11,1098 0,0 -87,-427 -772,-558l0 0c-136,40 -279,61 -428,61 -781,0 -1424,-588 -1511,-1346z"/>
  <circle class="fil1" cx="1689" cy="1897" r="1353"/>
  <path class="fil2" d="M1689 545c581,0 1077,366 1268,880 -336,381 -780,612 -1268,612 -488,0 -932,-231 -1268,-612 191,-514 687,-880 1268,-880z"/>
  <path class="fil0" d="M412 430c109,0 198,88 198,198 0,109 -89,198 -198,198 -109,0 -198,-89 -198,-198 0,-110 89,-198 198,-198zm1896 -243c15,0 27,12 27,27 0,15 -12,27 -27,27 -15,0 -27,-12 -27,-27 0,-15 12,-27 27,-27zm-153 -70c22,0 40,18 40,40 0,22 -18,39 -40,39 -22,0 -39,-17 -39,-39 0,-22 17,-40 39,-40zm-191 -63c32,0 59,26 59,59 0,32 -27,58 -59,58 -32,0 -58,-26 -58,-58 0,-33 26,-59 58,-59zm-220 -46c47,0 84,37 84,84 0,46 -37,84 -84,84 -46,0 -84,-38 -84,-84 0,-47 38,-84 84,-84zm-282 -8c60,0 109,49 109,109 0,60 -49,109 -109,109 -61,0 -109,-49 -109,-109 0,-60 48,-109 109,-109zm-339 36c81,0 146,65 146,146 0,80 -65,145 -146,145 -80,0 -145,-65 -145,-145 0,-81 65,-146 145,-146zm-342 134c93,0 169,75 169,168 0,93 -76,168 -169,168 -92,0 -168,-75 -168,-168 0,-93 76,-168 168,-168z"/>
  <g id="_1488335139520">
   <g>
    <path class="fil3" d="M1311 1344c0,0 64,96 135,43 71,-54 57,-128 57,-128 0,0 -6,-217 -322,-203 -316,14 -382,267 -382,267 0,0 -25,113 78,57 103,-57 256,-198 434,-36z"/>
    <path class="fil3" d="M2067 1344c0,0 -64,96 -135,43 -71,-54 -57,-128 -57,-128 0,0 6,-217 322,-203 316,14 382,267 382,267 0,0 25,113 -78,57 -103,-57 -256,-198 -434,-36z"/>
   </g>
   <g>
    <path class="fil4" d="M2447 2402c-22,0 -41,10 -54,25 -205,162 -462,241 -720,241 -258,0 -516,-80 -720,-241 -13,-15 -32,-25 -54,-25 -38,0 -70,31 -70,69 0,17 6,33 16,45 151,272 477,411 807,416 343,6 691,-133 849,-416 10,-12 15,-28 15,-45 0,-38 -31,-69 -69,-69z"/>
    <path class="fil5" d="M2240 1994c170,0 309,138 309,308 0,35 -6,69 -17,101l0 0 0 0c-14,41 -37,78 -66,109 -86,124 -257,313 -511,337 -341,34 -148,-85 -148,-85 94,-55 129,-223 141,-363 -11,-31 -17,-64 -17,-99 0,-39 8,-77 21,-111l0 -1 0 1c45,-116 157,-197 288,-197z"/>
   </g>
  </g>
 </g>
</svg>
