<?xml version="1.0" encoding="UTF-8"?>
<!DOCTYPE svg PUBLIC "-//W3C//DTD SVG 1.1//EN" "http://www.w3.org/Graphics/SVG/1.1/DTD/svg11.dtd">
<!-- Creator: CorelDRAW X8 -->
<svg xmlns="http://www.w3.org/2000/svg" xml:space="preserve" width="31.564mm" height="35.6728mm" version="1.1" style="shape-rendering:geometricPrecision; text-rendering:geometricPrecision; image-rendering:optimizeQuality; fill-rule:evenodd; clip-rule:evenodd"
viewBox="0 0 1314 1485"
 xmlns:xlink="http://www.w3.org/1999/xlink">
 <defs>
  <style type="text/css">
   <![CDATA[
    .fil3 {fill:#1B1F37}
    .fil0 {fill:#2C3D51}
    .fil4 {fill:#3C0404}
    .fil1 {fill:#FEC12B}
    .fil2 {fill:white;fill-opacity:0.301961}
    .fil5 {fill:url(#id0)}
   ]]>
  </style>
  <linearGradient id="id0" gradientUnits="userSpaceOnUse" x1="899.476" y1="764.765" x2="800.104" y2="1056.25">
   <stop offset="0" style="stop-opacity:1; stop-color:#E15261"/>
   <stop offset="1" style="stop-opacity:1; stop-color:#420909"/>
  </linearGradient>
 </defs>
 <g id="Layer_x0020_1">
  <metadata id="CorelCorpID_0Corel-Layer"/>
  <g id="_1490169980544">
   <path class="fil0" d="M0 227l0 30c1,2 2,4 3,5 2,7 5,14 9,20 2,4 5,8 11,12l0 1 0 0c11,10 27,17 43,17l0 0 1 0 0 0c35,1 69,-25 70,-66 1,-39 -26,-63 -57,-69l-1 0 0 0 -1 0 -2 0 0 0c-1,0 -2,0 -3,-1l0 0 -2 0c-18,0 -38,6 -51,21 -6,5 -10,12 -13,19l-5 8c-1,0 -1,2 -2,3zm140 335c-51,0 -93,42 -93,94 0,51 42,93 93,93 1,0 2,0 4,0l0 266c0,100 82,182 182,182l436 0c1,1 2,2 3,3 157,187 113,285 113,285 201,-225 170,-271 213,-295 10,-3 19,-6 28,-10l0 0 0 0c62,-30 105,-93 105,-165l0 -266c50,-2 90,-43 90,-93 0,-51 -40,-92 -90,-94l0 -265c0,-101 -83,-183 -183,-183l-715 0c-100,0 -182,82 -182,183l0 265c-2,0 -3,0 -4,0zm-38 -453c5,23 21,37 40,42 5,1 11,2 16,2 12,0 22,-3 31,-9 19,-10 32,-32 25,-62 -5,-21 -19,-34 -35,-39 -7,-3 -13,-4 -21,-4 -13,0 -25,5 -34,12 -16,12 -27,31 -22,58zm194 -109c25,0 46,20 46,45 0,26 -21,46 -46,46 -25,0 -45,-20 -45,-46 0,-25 20,-45 45,-45zm458 35c6,0 11,4 11,10 0,6 -5,11 -11,11 -6,0 -11,-5 -11,-11 0,-6 5,-10 11,-10zm-58 -5c9,0 16,7 16,15 0,9 -7,16 -16,16 -8,0 -15,-7 -15,-16 0,-8 7,-15 15,-15zm-77 -7c13,0 23,10 23,22 0,13 -10,23 -23,23 -12,0 -22,-10 -22,-23 0,-12 10,-22 22,-22zm-84 -5c15,0 27,13 27,27 0,15 -12,28 -27,28 -15,0 -27,-13 -27,-28 0,-14 12,-27 27,-27zm-107 -8c20,0 35,16 35,35 0,20 -15,36 -35,36 -19,0 -35,-16 -35,-36 0,-19 16,-35 35,-35z"/>
   <rect class="fil1" x="212" y="182" width="944" height="946" rx="159" ry="30"/>
   <path class="fil2" d="M371 182l625 0c88,0 159,72 159,160l0 210c-129,104 -293,166 -471,166 -179,0 -343,-62 -472,-166l0 -210c0,-88 71,-160 159,-160z"/>
   <g>
    <g>
     <path class="fil3" d="M547 521c0,0 23,35 49,16 26,-19 20,-46 20,-46 0,0 -2,-78 -115,-73 -114,5 -138,96 -138,96 0,0 -9,41 28,20 37,-20 92,-71 156,-13z"/>
     <path class="fil3" d="M820 521c0,0 -23,35 -49,16 -25,-19 -20,-46 -20,-46 0,0 2,-78 116,-73 113,5 137,96 137,96 0,0 9,41 -28,20 -37,-20 -92,-71 -156,-13z"/>
    </g>
    <g>
     <path class="fil4" d="M956 902c-7,0 -14,4 -19,10 -74,58 -166,86 -259,86 -93,0 -186,-28 -260,-86 -4,-6 -11,-10 -19,-10 -14,0 -25,12 -25,25 0,7 2,12 6,16 54,98 171,148 290,150 124,3 249,-47 306,-150 3,-4 6,-9 6,-16 0,-13 -12,-25 -26,-25z"/>
     <path class="fil5" d="M882 755c61,0 111,50 111,112 0,12 -2,24 -6,36l0 0 0 0c-5,15 -13,28 -23,39 -32,45 -93,113 -185,122 -123,12 -53,-31 -53,-31 34,-20 46,-80 51,-131 -4,-11 -6,-23 -6,-35 0,-15 2,-28 7,-41l0 0 0 0c16,-41 57,-71 104,-71z"/>
    </g>
   </g>
  </g>
 </g>
</svg>
