<?xml version="1.0" encoding="UTF-8"?>
<!DOCTYPE svg PUBLIC "-//W3C//DTD SVG 1.1//EN" "http://www.w3.org/Graphics/SVG/1.1/DTD/svg11.dtd">
<!-- Creator: CorelDRAW X8 -->
<svg xmlns="http://www.w3.org/2000/svg" xml:space="preserve" width="29.3356mm" height="33.8834mm" version="1.1" style="shape-rendering:geometricPrecision; text-rendering:geometricPrecision; image-rendering:optimizeQuality; fill-rule:evenodd; clip-rule:evenodd"
viewBox="0 0 393 454"
 xmlns:xlink="http://www.w3.org/1999/xlink">
 <defs>
  <style type="text/css">
   <![CDATA[
    .fil6 {fill:#2A1304}
    .fil0 {fill:#2C3D51}
    .fil3 {fill:#611204}
    .fil4 {fill:#F65D72}
    .fil1 {fill:#FFBD2D}
    .fil5 {fill:white}
    .fil2 {fill:white;fill-opacity:0.301961}
   ]]>
  </style>
     <mask id="id0">
  <radialGradient id="id1" gradientUnits="userSpaceOnUse" cx="122.112" cy="127.974" r="0" fx="122.112" fy="127.974">
   <stop offset="0" style="stop-opacity:1; stop-color:white"/>
   <stop offset="1" style="stop-opacity:0; stop-color:white"/>
  </radialGradient>
      <rect style="fill:url(#id1)" x="121" y="127" width="18.7967" height="18.7967"/>
     </mask>
     <mask id="id2">
  <radialGradient id="id3" gradientUnits="userSpaceOnUse" cx="278.586" cy="127.974" r="0" fx="278.586" fy="127.974">
   <stop offset="0" style="stop-opacity:1; stop-color:white"/>
   <stop offset="1" style="stop-opacity:0; stop-color:white"/>
  </radialGradient>
      <rect style="fill:url(#id3)" x="277" y="127" width="18.7967" height="18.7967"/>
     </mask>
 </defs>
 <g id="Layer_x0020_1">
  <metadata id="CorelCorpID_0Corel-Layer"/>
  <g id="_2537691828048">
   <path class="fil0" d="M21 240c-12,-4 -21,-16 -21,-29 0,-15 10,-27 24,-31 18,-78 88,-136 172,-136 84,0 154,58 172,136 14,3 25,16 25,31 0,14 -9,26 -22,30 -3,32 -16,62 -34,86l0 0c0,0 17,5 -2,127 0,0 -10,-49 -89,-64l0 0c-16,4 -33,7 -50,7 -91,0 -165,-69 -175,-157z"/>
   <circle class="fil1" cx="196" cy="220" r="157"/>
   <path class="fil2" d="M196 63c67,0 125,43 147,102 -39,45 -90,71 -147,71 -57,0 -108,-26 -147,-71 22,-59 80,-102 147,-102z"/>
   <path class="fil0" d="M48 50c12,0 23,10 23,23 0,13 -11,23 -23,23 -13,0 -23,-10 -23,-23 0,-13 10,-23 23,-23zm220 -28c2,0 3,1 3,3 0,2 -1,3 -3,3 -2,0 -3,-1 -3,-3 0,-2 1,-3 3,-3zm-18 -8c3,0 5,2 5,4 0,3 -2,5 -5,5 -2,0 -4,-2 -4,-5 0,-2 2,-4 4,-4zm-22 -8c4,0 7,3 7,7 0,4 -3,7 -7,7 -4,0 -7,-3 -7,-7 0,-4 3,-7 7,-7zm-26 -5c6,0 10,4 10,10 0,5 -4,9 -10,9 -5,0 -9,-4 -9,-9 0,-6 4,-10 9,-10zm-32 -1c7,0 12,6 12,13 0,7 -5,12 -12,12 -7,0 -13,-5 -13,-12 0,-7 6,-13 13,-13zm-40 4c10,0 17,8 17,17 0,9 -7,17 -17,17 -9,0 -16,-8 -16,-17 0,-9 7,-17 16,-17zm-39 16c10,0 19,8 19,19 0,11 -9,20 -19,20 -11,0 -20,-9 -20,-20 0,-11 9,-19 20,-19z"/>
   <path class="fil3" d="M299 256c1,2 1,4 1,6 0,51 -47,93 -104,93 -57,0 -104,-42 -104,-93 0,-2 0,-4 1,-6 82,10 149,9 206,0z"/>
   <path class="fil4" d="M265 332c-18,14 -42,23 -69,23 -26,0 -51,-9 -69,-23 8,-9 24,-14 42,-14 10,0 19,1 27,4 8,-3 17,-4 27,-4 19,0 34,5 42,14z"/>
   <path class="fil5" d="M300 256c0,1 0,2 0,3l0 6c0,4 -1,8 -2,12 -3,8 -11,14 -20,14l-164 0c-9,0 -17,-6 -20,-14 -1,-5 -2,-10 -2,-15l0 0 0 0c0,-2 0,-4 1,-6 82,10 149,9 207,0z"/>
   <g>
    <circle class="fil6" cx="118" cy="150" r="31"/>
    <path class="fil5" style="mask:url(#id0)" d="M130 128c5,0 8,4 8,8 0,4 -3,8 -8,8 -4,0 -8,-4 -8,-8 0,-4 4,-8 8,-8z"/>
    <circle class="fil6" cx="274" cy="150" r="31"/>
    <path class="fil5" style="mask:url(#id2)" d="M287 128c4,0 8,4 8,8 0,4 -4,8 -8,8 -5,0 -8,-4 -8,-8 0,-4 3,-8 8,-8z"/>
   </g>
  </g>
 </g>
</svg>
