<?xml version="1.0" encoding="UTF-8"?>
<!DOCTYPE svg PUBLIC "-//W3C//DTD SVG 1.1//EN" "http://www.w3.org/Graphics/SVG/1.1/DTD/svg11.dtd">
<!-- Creator: CorelDRAW X8 -->
<svg xmlns="http://www.w3.org/2000/svg" xml:space="preserve" width="29.3356mm" height="33.8834mm" version="1.1" style="shape-rendering:geometricPrecision; text-rendering:geometricPrecision; image-rendering:optimizeQuality; fill-rule:evenodd; clip-rule:evenodd"
viewBox="0 0 496 573"
 xmlns:xlink="http://www.w3.org/1999/xlink">
 <defs>
  <style type="text/css">
   <![CDATA[
    .str0 {stroke:black;stroke-width:3.37939;stroke-opacity:0.188235}
    .fil4 {fill:black}
    .fil0 {fill:#2C3D51}
    .fil3 {fill:#422B0D}
    .fil1 {fill:#FFBD2D}
    .fil6 {fill:white}
    .fil5 {fill:white;fill-opacity:0.188235}
    .fil2 {fill:white;fill-opacity:0.301961}
   ]]>
  </style>
 </defs>
 <g id="Layer_x0020_1">
  <metadata id="CorelCorpID_0Corel-Layer"/>
  <g id="_2537540779936">
   <path class="fil0" d="M26 303c-15,-6 -26,-20 -26,-37 0,-19 13,-35 30,-39 23,-98 111,-172 217,-172 105,0 194,73 217,172 18,3 32,19 32,39 0,17 -12,33 -28,38 -5,40 -20,77 -44,108l0 0c0,0 22,6 -2,161 0,0 -12,-63 -112,-82l0 0c-20,6 -41,9 -63,9 -114,0 -208,-86 -221,-197z"/>
   <circle class="fil1" cx="247" cy="277" r="198"/>
   <path class="fil2" d="M247 80c85,0 157,53 185,128 -49,56 -114,90 -185,90 -71,0 -136,-34 -185,-90 28,-75 100,-128 185,-128z"/>
   <path class="fil0" d="M60 63c16,0 29,13 29,29 0,16 -13,29 -29,29 -16,0 -29,-13 -29,-29 0,-16 13,-29 29,-29zm278 -36c2,0 3,2 3,4 0,2 -1,4 -3,4 -3,0 -4,-2 -4,-4 0,-2 1,-4 4,-4zm-23 -10c3,0 6,3 6,6 0,3 -3,6 -6,6 -3,0 -6,-3 -6,-6 0,-3 3,-6 6,-6zm-28 -9c5,0 9,4 9,8 0,5 -4,9 -9,9 -4,0 -8,-4 -8,-9 0,-4 4,-8 8,-8zm-32 -7c7,0 12,6 12,12 0,7 -5,13 -12,13 -7,0 -12,-6 -12,-13 0,-6 5,-12 12,-12zm-41 -1c9,0 16,7 16,16 0,9 -7,16 -16,16 -9,0 -16,-7 -16,-16 0,-9 7,-16 16,-16zm-50 5c12,0 22,10 22,22 0,11 -10,21 -22,21 -11,0 -21,-10 -21,-21 0,-12 10,-22 21,-22zm-50 20c14,0 25,11 25,24 0,14 -11,25 -25,25 -13,0 -24,-11 -24,-25 0,-13 11,-24 24,-24z"/>
   <g>
    <ellipse class="fil3" cx="331" cy="223" rx="30" ry="35"/>
    <ellipse class="fil3" cx="163" cy="231" rx="30" ry="35"/>
   </g>
   <g>
    <path class="fil3" d="M391 165c0,5 -3,8 -7,8 -3,0 -6,-2 -7,-4l0 0 0 0c-1,-1 -1,-2 -1,-3 -2,-6 -10,-23 -26,-18 -18,5 -40,14 -44,16 0,0 0,0 -1,0l0 0c0,1 -1,1 -2,1 -4,0 -7,-3 -7,-7 0,-2 1,-4 3,-6 28,-33 87,-34 92,13z"/>
    <path class="fil3" d="M193 173c4,0 6,3 6,7 0,21 -46,0 -59,4 -19,7 -26,27 -31,27 -3,0 -6,-3 -6,-6 0,0 -7,-31 23,-40 29,-10 41,12 65,9 1,0 1,-1 2,-1z"/>
   </g>
   <path class="fil3" d="M297 391c0,1 1,1 2,2l0 0 0 0c1,2 2,4 2,7 0,6 -4,10 -10,10 -1,0 -2,0 -3,0l0 0 0 0c-1,-1 -2,-1 -3,-1 -6,-3 -26,-11 -43,-7 -20,4 -37,7 -37,7 0,0 -1,0 -2,0 -6,0 -10,-4 -10,-10 0,-4 1,-7 4,-8 0,0 24,-21 52,-20 23,1 42,15 48,20z"/>
   <path class="fil4" d="M308 151c41,0 74,30 81,68l25 0c9,0 16,7 16,16l0 0c0,9 -7,16 -16,16l-26 0c-8,36 -41,63 -80,63 -45,0 -81,-36 -81,-81 0,-45 36,-82 81,-82zm105 72c7,0 13,5 13,12 0,7 -6,12 -13,12 -6,0 -12,-5 -12,-12 0,-7 6,-12 12,-12zm-105 -64c41,0 73,33 73,74 0,40 -32,73 -73,73 -40,0 -73,-33 -73,-73 0,-41 33,-74 73,-74z"/>
   <path class="fil5 str0" d="M308 159c41,0 73,33 73,74 0,40 -32,73 -73,73 -40,0 -73,-33 -73,-73 0,-41 33,-74 73,-74z"/>
   <path class="fil6" d="M308 169c35,0 63,29 63,64 0,3 0,6 0,9l0 0c0,-34 -28,-62 -62,-62 -35,0 -62,28 -62,62 0,2 0,4 0,5 -1,-4 -2,-9 -2,-14 0,-35 28,-64 63,-64z"/>
   <path class="fil4" d="M415 258c7,0 13,6 13,13 0,7 -6,13 -13,13 -7,0 -13,-6 -13,-13 0,-7 6,-13 13,-13zm0 4c5,0 9,4 9,9 0,5 -4,9 -9,9 -5,0 -9,-4 -9,-9 0,-5 4,-9 9,-9z"/>
   <path class="fil4" d="M415 289c7,0 13,6 13,14 0,7 -6,13 -13,13 -7,0 -13,-6 -13,-13 0,-8 6,-14 13,-14zm0 5c5,0 9,4 9,9 0,5 -4,9 -9,9 -5,0 -9,-4 -9,-9 0,-5 4,-9 9,-9z"/>
   <path class="fil4" d="M415 321c7,0 13,6 13,14 0,7 -6,13 -13,13 -7,0 -13,-6 -13,-13 0,-8 6,-14 13,-14zm0 4c5,0 9,4 9,10 0,5 -4,9 -9,9 -5,0 -9,-4 -9,-9 0,-6 4,-10 9,-10z"/>
   <path class="fil4" d="M415 353c7,0 13,6 13,13 0,8 -6,14 -13,14 -7,0 -13,-6 -13,-14 0,-7 6,-13 13,-13zm0 4c5,0 9,4 9,9 0,5 -4,9 -9,9 -5,0 -9,-4 -9,-9 0,-5 4,-9 9,-9z"/>
   <path class="fil4" d="M415 385c7,0 13,6 13,13 0,7 -6,13 -13,13 -7,0 -13,-6 -13,-13 0,-7 6,-13 13,-13zm0 4c5,0 9,4 9,9 0,5 -4,9 -9,9 -5,0 -9,-4 -9,-9 0,-5 4,-9 9,-9z"/>
   <path class="fil4" d="M415 417c7,0 13,5 13,13 0,7 -6,13 -13,13 -7,0 -13,-6 -13,-13 0,-8 6,-13 13,-13zm0 4c5,0 9,4 9,9 0,5 -4,9 -9,9 -5,0 -9,-4 -9,-9 0,-5 4,-9 9,-9z"/>
   <path class="fil4" d="M415 448c7,0 13,6 13,14 0,7 -6,13 -13,13 -7,0 -13,-6 -13,-13 0,-8 6,-14 13,-14zm0 4c5,0 9,5 9,10 0,5 -4,9 -9,9 -5,0 -9,-4 -9,-9 0,-5 4,-10 9,-10z"/>
   <rect class="fil4" x="412" y="244" width="6.47791" height="21.8795" rx="3" ry="2"/>
   <rect class="fil4" x="412" y="275" width="6.47791" height="21.8795" rx="3" ry="2"/>
   <rect class="fil4" x="412" y="307" width="6.47791" height="21.8795" rx="3" ry="2"/>
   <rect class="fil4" x="412" y="339" width="6.47791" height="21.8795" rx="3" ry="2"/>
   <rect class="fil4" x="412" y="372" width="6.47791" height="21.8795" rx="3" ry="2"/>
   <rect class="fil4" x="412" y="403" width="6.47791" height="21.8795" rx="3" ry="2"/>
   <rect class="fil4" x="412" y="435" width="6.47791" height="21.8795" rx="3" ry="2"/>
  </g>
 </g>
</svg>
