<?xml version="1.0" encoding="UTF-8"?>
<!DOCTYPE svg PUBLIC "-//W3C//DTD SVG 1.1//EN" "http://www.w3.org/Graphics/SVG/1.1/DTD/svg11.dtd">
<!-- Creator: CorelDRAW X8 -->
<svg xmlns="http://www.w3.org/2000/svg" xml:space="preserve" width="31.564mm" height="35.6728mm" version="1.1" style="shape-rendering:geometricPrecision; text-rendering:geometricPrecision; image-rendering:optimizeQuality; fill-rule:evenodd; clip-rule:evenodd"
viewBox="0 0 362 410"
 xmlns:xlink="http://www.w3.org/1999/xlink">
 <defs>
  <style type="text/css">
   <![CDATA[
    .str0 {stroke:black;stroke-width:2.29687;stroke-opacity:0.188235}
    .fil4 {fill:black}
    .fil0 {fill:#2C3D51}
    .fil3 {fill:#422B0D}
    .fil1 {fill:#FEC12B}
    .fil6 {fill:white}
    .fil5 {fill:white;fill-opacity:0.188235}
    .fil2 {fill:white;fill-opacity:0.301961}
   ]]>
  </style>
 </defs>
 <g id="Layer_x0020_1">
  <metadata id="CorelCorpID_0Corel-Layer"/>
  <g id="_2537603765376">
   <path class="fil0" d="M0 63l0 8c0,0 1,1 1,1 0,2 1,4 2,6 1,1 2,2 3,3l0 0 0 0c3,3 8,5 12,5l0 0 0 0 1 0c9,0 18,-7 19,-18 0,-11 -7,-18 -16,-19l0 0 0 0 0 0 -1 0 0 0c0,0 -1,0 -1,0l0 0 0 0c-6,-1 -11,1 -15,5 -1,2 -2,4 -3,6l-2 2c0,0 0,0 0,1zm39 92c-15,0 -26,12 -26,26 0,14 11,26 26,26 0,0 0,0 1,0l0 73c0,28 22,50 50,50l120 0c1,1 1,1 1,1 43,52 31,79 31,79 56,-62 47,-75 59,-82 3,0 5,-1 8,-3l0 0 0 0c17,-8 29,-25 29,-45l0 -73c13,-1 24,-12 24,-26 0,-14 -11,-25 -24,-26l0 -73c0,-28 -23,-50 -51,-50l-197 0c-28,0 -50,22 -50,50l0 73c-1,0 -1,0 -1,0zm-11 -125c1,7 6,10 11,12 2,0 3,0 5,0 3,0 6,-1 8,-2 5,-3 9,-9 7,-17 -1,-6 -5,-10 -10,-11 -1,-1 -3,-1 -5,-1 -4,0 -7,1 -10,3 -4,3 -7,9 -6,16zm54 -30c7,0 12,6 12,13 0,6 -5,12 -12,12 -7,0 -13,-6 -13,-12 0,-7 6,-13 13,-13zm126 10c2,0 3,1 3,3 0,1 -1,3 -3,3 -2,0 -3,-2 -3,-3 0,-2 1,-3 3,-3zm-16 -2c2,0 4,2 4,5 0,2 -2,4 -4,4 -2,0 -4,-2 -4,-4 0,-3 2,-5 4,-5zm-21 -2c3,0 6,3 6,7 0,3 -3,6 -6,6 -3,0 -6,-3 -6,-6 0,-4 3,-7 6,-7zm-23 -1c4,0 7,3 7,8 0,4 -3,7 -7,7 -5,0 -8,-3 -8,-7 0,-5 3,-8 8,-8zm-30 -2c5,0 10,4 10,10 0,5 -5,9 -10,9 -5,0 -10,-4 -10,-9 0,-6 5,-10 10,-10z"/>
   <rect class="fil1" x="58" y="50" width="260" height="261" rx="44" ry="8"/>
   <path class="fil2" d="M102 50l173 0c24,0 44,20 44,44l0 58c-36,29 -81,46 -130,46 -50,0 -95,-17 -131,-46l0 -58c0,-24 20,-44 44,-44z"/>
   <g>
    <ellipse class="fil3" cx="246" cy="148" rx="20" ry="24"/>
    <ellipse class="fil3" cx="131" cy="153" rx="20" ry="24"/>
   </g>
   <g>
    <path class="fil3" d="M287 100c0,3 -3,5 -5,5 -3,0 -4,-1 -5,-3l0 0 0 0c0,0 -1,-1 -1,-2 -1,-4 -6,-15 -17,-12 -13,3 -28,10 -30,11 0,0 -1,0 -1,0l0 0c0,0 -1,0 -1,0 -3,0 -5,-2 -5,-4 0,-2 1,-3 2,-4 19,-23 59,-23 63,9z"/>
    <path class="fil3" d="M152 105c2,0 4,2 4,5 0,14 -31,0 -40,3 -13,4 -17,17 -21,17 -2,0 -4,-1 -4,-3 0,0 -5,-21 15,-28 20,-7 28,8 45,6 0,0 0,0 1,0z"/>
   </g>
   <path class="fil3" d="M222 276c1,1 1,1 2,1l0 0 0 0c1,2 1,3 1,5 0,4 -3,7 -7,7 0,0 -1,0 -2,0l0 0 0 0c0,0 -1,-1 -1,-1 -5,-2 -18,-7 -30,-5 -13,3 -25,5 -25,5 0,0 -1,0 -1,0 -4,0 -7,-3 -7,-7 0,-2 1,-4 3,-5 0,0 16,-14 35,-14 16,1 29,11 32,14z"/>
   <g>
    <path class="fil4" d="M246 101c27,0 50,20 54,47l18 0c6,0 11,5 11,10l0 0c0,6 -5,11 -11,11l-18 0c-6,25 -28,43 -54,43 -31,0 -56,-25 -56,-55 0,-31 25,-56 56,-56zm71 49c5,0 8,4 8,8 0,5 -3,9 -8,9 -4,0 -8,-4 -8,-9 0,-4 4,-8 8,-8zm-71 -43c27,0 49,22 49,50 0,27 -22,50 -49,50 -28,0 -50,-23 -50,-50 0,-28 22,-50 50,-50z"/>
    <path class="fil5 str0" d="M246 107c27,0 49,22 49,50 0,27 -22,50 -49,50 -28,0 -50,-23 -50,-50 0,-28 22,-50 50,-50z"/>
    <path class="fil6" d="M246 114c23,0 43,19 43,43 0,2 -1,4 -1,7l0 -1c0,-23 -19,-42 -42,-42 -23,0 -42,19 -42,42 0,1 0,3 0,4 -1,-3 -1,-7 -1,-10 0,-24 19,-43 43,-43z"/>
    <path class="fil4" d="M318 174c5,0 9,4 9,9 0,5 -4,9 -9,9 -5,0 -9,-4 -9,-9 0,-5 4,-9 9,-9zm0 3c4,0 6,3 6,6 0,3 -2,6 -6,6 -3,0 -6,-3 -6,-6 0,-3 3,-6 6,-6z"/>
    <path class="fil4" d="M318 196c5,0 9,4 9,9 0,5 -4,9 -9,9 -5,0 -9,-4 -9,-9 0,-5 4,-9 9,-9zm0 2c4,0 6,3 6,7 0,3 -2,6 -6,6 -3,0 -6,-3 -6,-6 0,-4 3,-7 6,-7z"/>
    <path class="fil4" d="M318 217c5,0 9,4 9,9 0,5 -4,9 -9,9 -5,0 -9,-4 -9,-9 0,-5 4,-9 9,-9zm0 3c4,0 6,3 6,6 0,4 -2,6 -6,6 -3,0 -6,-2 -6,-6 0,-3 3,-6 6,-6z"/>
    <path class="fil4" d="M318 239c5,0 9,4 9,9 0,5 -4,9 -9,9 -5,0 -9,-4 -9,-9 0,-5 4,-9 9,-9zm0 3c4,0 6,2 6,6 0,3 -2,6 -6,6 -3,0 -6,-3 -6,-6 0,-4 3,-6 6,-6z"/>
    <path class="fil4" d="M318 260c5,0 9,4 9,9 0,5 -4,9 -9,9 -5,0 -9,-4 -9,-9 0,-5 4,-9 9,-9zm0 3c4,0 6,3 6,6 0,4 -2,7 -6,7 -3,0 -6,-3 -6,-7 0,-3 3,-6 6,-6z"/>
    <path class="fil4" d="M318 282c5,0 9,4 9,9 0,5 -4,9 -9,9 -5,0 -9,-4 -9,-9 0,-5 4,-9 9,-9zm0 3c4,0 6,2 6,6 0,3 -2,6 -6,6 -3,0 -6,-3 -6,-6 0,-4 3,-6 6,-6z"/>
    <path class="fil4" d="M318 303c5,0 9,5 9,10 0,4 -4,9 -9,9 -5,0 -9,-5 -9,-9 0,-5 4,-10 9,-10zm0 3c4,0 6,3 6,7 0,3 -2,6 -6,6 -3,0 -6,-3 -6,-6 0,-4 3,-7 6,-7z"/>
    <rect class="fil4" x="316" y="165" width="4.40285" height="14.8709" rx="2" ry="2"/>
    <rect class="fil4" x="316" y="186" width="4.40285" height="14.8709" rx="2" ry="2"/>
    <rect class="fil4" x="316" y="208" width="4.40285" height="14.8709" rx="2" ry="2"/>
    <rect class="fil4" x="316" y="229" width="4.40285" height="14.8709" rx="2" ry="2"/>
    <rect class="fil4" x="316" y="251" width="4.40285" height="14.8709" rx="2" ry="2"/>
    <rect class="fil4" x="316" y="273" width="4.40285" height="14.8709" rx="2" ry="2"/>
    <rect class="fil4" x="316" y="294" width="4.40285" height="14.8709" rx="2" ry="2"/>
   </g>
  </g>
 </g>
</svg>
