<?xml version="1.0" encoding="UTF-8"?>
<!DOCTYPE svg PUBLIC "-//W3C//DTD SVG 1.1//EN" "http://www.w3.org/Graphics/SVG/1.1/DTD/svg11.dtd">
<!-- Creator: CorelDRAW X8 -->
<svg xmlns="http://www.w3.org/2000/svg" xml:space="preserve" width="29.3356mm" height="33.8834mm" version="1.1" style="shape-rendering:geometricPrecision; text-rendering:geometricPrecision; image-rendering:optimizeQuality; fill-rule:evenodd; clip-rule:evenodd"
viewBox="0 0 467 540"
 xmlns:xlink="http://www.w3.org/1999/xlink">
 <defs>
  <style type="text/css">
   <![CDATA[
    .str0 {stroke:black;stroke-width:3.18694}
    .fil3 {fill:#2A1304}
    .fil0 {fill:#2C3D51}
    .fil4 {fill:#672604}
    .fil5 {fill:#E6E6E6}
    .fil6 {fill:#F65D72}
    .fil1 {fill:#FFBD2D}
    .fil2 {fill:white;fill-opacity:0.301961}
   ]]>
  </style>
 </defs>
 <g id="Layer_x0020_1">
  <metadata id="CorelCorpID_0Corel-Layer"/>
  <path class="fil0" d="M25 286c-15,-6 -25,-19 -25,-35 0,-18 12,-33 29,-37 21,-93 104,-162 204,-162 99,0 183,69 204,162 17,3 30,18 30,37 0,16 -11,31 -26,35 -4,38 -19,73 -41,103l0 0c0,0 21,5 -2,151 0,0 -12,-59 -106,-77l0 0c-19,5 -39,8 -59,8 -108,0 -196,-81 -208,-185z"/>
  <circle class="fil1" cx="233" cy="262" r="187"/>
  <path class="fil2" d="M233 75c80,0 148,51 175,122 -46,52 -108,84 -175,84 -67,0 -129,-32 -175,-84 26,-71 95,-122 175,-122z"/>
  <path class="fil0" d="M57 59c15,0 27,13 27,28 0,15 -12,27 -27,27 -15,0 -27,-12 -27,-27 0,-15 12,-28 27,-28zm261 -33c2,0 4,1 4,4 0,2 -2,3 -4,3 -2,0 -3,-1 -3,-3 0,-3 1,-4 3,-4zm-21 -10c3,0 6,3 6,6 0,3 -3,5 -6,5 -3,0 -5,-2 -5,-5 0,-3 2,-6 5,-6zm-26 -9c4,0 8,4 8,9 0,4 -4,8 -8,8 -5,0 -8,-4 -8,-8 0,-5 3,-9 8,-9zm-30 -6c6,0 11,5 11,12 0,6 -5,11 -11,11 -7,0 -12,-5 -12,-11 0,-7 5,-12 12,-12zm-39 -1c8,0 15,7 15,15 0,8 -7,15 -15,15 -9,0 -15,-7 -15,-15 0,-8 6,-15 15,-15zm-47 5c11,0 20,9 20,20 0,11 -9,20 -20,20 -11,0 -20,-9 -20,-20 0,-11 9,-20 20,-20zm-47 18c13,0 23,11 23,24 0,12 -10,23 -23,23 -13,0 -23,-11 -23,-23 0,-13 10,-24 23,-24z"/>
  <g id="_2537687998240">
   <g>
    <path class="fil3" d="M248 110c0,0 30,41 63,41l33 0 0 0 0 0 0 0 0 0 0 0 0 0c3,0 5,-2 5,-4 0,-2 -2,-4 -5,-4 0,0 -1,0 -1,0 -8,1 -52,5 -95,-33z"/>
    <path class="fil3" d="M218 110c0,0 -31,41 -63,41l-33 0 0 0 0 0 0 0 0 0 0 0 0 0c-3,0 -5,-2 -5,-4 0,-2 2,-4 5,-4 0,0 1,0 1,0 8,1 51,5 95,-33z"/>
   </g>
   <g>
    <path class="fil3" d="M275 203c0,-19 72,-44 84,-35 0,0 -51,25 -56,32 2,2 2,5 0,6 21,-1 58,24 58,24 -21,4 -64,-8 -86,-27z"/>
    <path class="fil3" d="M191 203c0,-19 -72,-44 -84,-35 0,0 51,25 55,32 -1,2 -1,5 0,6 -20,-1 -57,24 -57,24 21,4 64,-8 86,-27z"/>
   </g>
  </g>
  <g id="_2537687997952">
   <path class="fil4 str0" d="M152 410l0 0c-36,0 -27,-114 81,-113l0 0 0 0c111,-1 115,113 81,113l0 0 0 0c-3,0 -6,0 -9,-2 0,0 0,0 0,0 -19,-15 -44,-24 -72,-24 -28,0 -53,9 -72,24 0,0 0,0 0,0 -3,2 -6,2 -9,2l0 0z"/>
   <path class="fil5" d="M147 337c15,-22 42,-41 86,-40 8,0 17,1 25,2 30,5 49,20 61,37l0 0c-4,3 -13,6 -25,2 -66,-22 -53,-24 -123,0 -11,4 -19,1 -24,-1z"/>
   <path class="fil6" d="M309 410c-2,-1 -3,-1 -4,-2 0,0 0,0 0,0 -19,-15 -44,-24 -72,-24 -28,0 -53,9 -72,24 0,0 0,0 0,0 -1,1 -3,1 -4,2 0,-27 34,-49 76,-49 42,0 75,22 76,49z"/>
  </g>
 </g>
</svg>
