<?xml version="1.0" encoding="UTF-8"?>
<!DOCTYPE svg PUBLIC "-//W3C//DTD SVG 1.1//EN" "http://www.w3.org/Graphics/SVG/1.1/DTD/svg11.dtd">
<!-- Creator: CorelDRAW X8 -->
<svg xmlns="http://www.w3.org/2000/svg" xml:space="preserve" width="31.564mm" height="35.6728mm" version="1.1" style="shape-rendering:geometricPrecision; text-rendering:geometricPrecision; image-rendering:optimizeQuality; fill-rule:evenodd; clip-rule:evenodd"
viewBox="0 0 361 409"
 xmlns:xlink="http://www.w3.org/1999/xlink">
 <defs>
  <style type="text/css">
   <![CDATA[
    .str0 {stroke:black;stroke-width:2.29046}
    .fil3 {fill:#2A1304}
    .fil0 {fill:#2C3D51}
    .fil4 {fill:#672604}
    .fil5 {fill:#E6E6E6}
    .fil6 {fill:#F65D72}
    .fil1 {fill:#FEC12B}
    .fil2 {fill:white;fill-opacity:0.301961}
   ]]>
  </style>
 </defs>
 <g id="Layer_x0020_1">
  <metadata id="CorelCorpID_0Corel-Layer"/>
  <path class="fil0" d="M0 62l0 9c0,0 1,1 1,1 0,2 1,4 2,6 1,1 2,2 3,3l0 0 0 0c3,3 8,5 12,5l0 0 0 0 0 0c10,0 19,-7 20,-18 0,-11 -8,-18 -16,-19l0 0 0 0 -1 0 0 0 0 0c0,0 -1,0 -1,0l0 0 0 0c-6,-1 -11,1 -15,5 -1,2 -2,3 -3,5l-2 3c0,0 0,0 0,0zm39 93c-15,0 -26,11 -26,25 0,15 11,26 26,26 0,0 0,0 0,0l0 73c0,28 23,50 51,50l120 0c0,1 0,1 0,1 44,52 32,79 32,79 55,-62 46,-75 58,-82 3,0 5,-1 8,-2l0 0 0 0c17,-9 29,-26 29,-46l0 -73c13,0 24,-12 24,-26 0,-14 -11,-25 -24,-25l0 -73c0,-28 -23,-51 -51,-51l-196 0c-28,0 -51,23 -51,51l0 73c0,0 0,0 0,0zm-11 -125c1,6 6,10 11,11 1,1 3,1 5,1 3,0 6,-1 8,-2 5,-3 9,-9 7,-17 -2,-6 -5,-10 -10,-11 -2,-1 -3,-1 -5,-1 -4,0 -7,1 -10,3 -4,3 -7,9 -6,16zm53 -30c7,0 13,6 13,13 0,6 -6,12 -13,12 -6,0 -12,-6 -12,-12 0,-7 6,-13 12,-13zm127 10c1,0 3,1 3,3 0,1 -2,2 -3,2 -2,0 -3,-1 -3,-2 0,-2 1,-3 3,-3zm-16 -2c2,0 4,2 4,5 0,2 -2,4 -4,4 -3,0 -5,-2 -5,-4 0,-3 2,-5 5,-5zm-22 -2c4,0 7,3 7,7 0,3 -3,6 -7,6 -3,0 -6,-3 -6,-6 0,-4 3,-7 6,-7zm-23 -1c4,0 8,3 8,8 0,4 -4,7 -8,7 -4,0 -7,-3 -7,-7 0,-5 3,-8 7,-8zm-29 -2c5,0 9,4 9,10 0,5 -4,9 -9,9 -6,0 -10,-4 -10,-9 0,-6 4,-10 10,-10z"/>
  <rect class="fil1" x="58" y="50" width="260" height="260" rx="44" ry="8"/>
  <path class="fil2" d="M102 50l172 0c24,0 44,20 44,44l0 58c-36,28 -81,46 -130,46 -49,0 -94,-18 -130,-46l0 -58c0,-24 20,-44 44,-44z"/>
  <g id="_2537688046112">
   <g>
    <path class="fil3" d="M199 70c0,0 22,30 45,30l24 0 0 0 0 0 0 0 0 0 0 0 0 0c2,0 3,-2 3,-4 0,-1 -1,-3 -3,-3 0,0 -1,0 -1,0 -6,1 -37,4 -68,-23z"/>
    <path class="fil3" d="M177 70c0,0 -22,30 -45,30l-24 0 0 0 0 0 0 0 0 0 0 0 0 0c-2,0 -3,-2 -3,-4 0,-1 1,-3 3,-3 0,0 1,0 1,0 6,1 37,4 68,-23z"/>
   </g>
   <g>
    <path class="fil3" d="M218 137c0,-14 52,-32 61,-26 0,0 -37,19 -40,24 1,1 1,3 0,4 14,-1 41,17 41,17 -15,3 -46,-6 -62,-19z"/>
    <path class="fil3" d="M158 137c0,-14 -52,-32 -61,-26 0,0 37,19 40,24 -1,1 -1,3 0,4 -14,-1 -41,17 -41,17 15,3 46,-6 62,-19z"/>
   </g>
  </g>
  <g id="_2537688047904">
   <path class="fil4 str0" d="M119 304l-1 0c-30,0 -23,-98 70,-97l0 0 0 0c95,-1 98,97 69,97l0 0 0 0c-3,0 -5,-1 -8,-2 0,0 0,0 0,0 -16,-13 -38,-21 -61,-21 -24,0 -45,8 -61,21 -1,0 -1,0 -1,0 -2,1 -5,2 -7,2l0 0z"/>
   <path class="fil5" d="M114 241c13,-19 36,-35 74,-34 7,0 14,0 21,1 26,5 42,17 52,32l1 1c-4,2 -12,5 -22,1 -56,-19 -45,-20 -105,0 -9,4 -17,1 -21,-1z"/>
   <path class="fil6" d="M252 303c-1,0 -2,-1 -3,-1 0,0 0,0 0,0 -16,-13 -38,-21 -61,-21 -24,0 -45,8 -61,21 -1,0 -1,0 -1,0 -1,0 -2,1 -3,1 0,-23 29,-41 65,-41 35,0 64,18 64,41z"/>
  </g>
 </g>
</svg>
