<?xml version="1.0" encoding="UTF-8"?>
<!DOCTYPE svg PUBLIC "-//W3C//DTD SVG 1.1//EN" "http://www.w3.org/Graphics/SVG/1.1/DTD/svg11.dtd">
<!-- Creator: CorelDRAW X8 -->
<svg xmlns="http://www.w3.org/2000/svg" xml:space="preserve" width="31.564mm" height="35.6728mm" version="1.1" style="shape-rendering:geometricPrecision; text-rendering:geometricPrecision; image-rendering:optimizeQuality; fill-rule:evenodd; clip-rule:evenodd"
viewBox="0 0 852 963"
 xmlns:xlink="http://www.w3.org/1999/xlink">
 <defs>
  <style type="text/css">
   <![CDATA[
    .fil3 {fill:#2A1304}
    .fil0 {fill:#2C3D51}
    .fil1 {fill:#FEC12B}
    .fil4 {fill:white}
    .fil2 {fill:white;fill-opacity:0.301961}
   ]]>
  </style>
 </defs>
 <g id="Layer_x0020_1">
  <metadata id="CorelCorpID_0Corel-Layer"/>
  <g id="_2537602950064">
   <path class="fil0" d="M0 147l0 20c1,1 1,2 2,3 1,5 3,9 6,13 1,2 3,5 7,8l0 0 0 0c7,7 17,11 28,11l0 0 0 0 1 0c22,1 44,-16 45,-42 0,-26 -17,-42 -37,-45l-1 0 0 0 0 0 -2 0 0 0c0,0 -1,-1 -1,-1l-1 0 -1 0c-12,0 -24,4 -33,14 -4,3 -7,7 -9,12l-3 5c0,0 -1,1 -1,2zm91 218c-33,0 -61,27 -61,60 0,34 28,61 61,61 1,0 1,0 2,0l0 172c0,65 53,118 118,118l283 0c1,1 1,2 2,2 102,122 74,185 74,185 130,-146 109,-176 138,-191 6,-2 12,-4 18,-7l0 0 0 0c40,-19 67,-60 67,-107l0 -172c33,-1 59,-28 59,-61 0,-33 -26,-59 -59,-60l0 -173c0,-65 -53,-118 -118,-118l-464 0c-65,0 -118,53 -118,118l0 173c-1,0 -1,0 -2,0zm-25 -294c3,15 14,24 26,27 3,1 7,1 11,1 7,0 14,-2 19,-5 13,-7 21,-21 17,-41 -4,-13 -13,-22 -23,-25 -4,-2 -9,-3 -13,-3 -9,0 -17,3 -23,8 -10,8 -17,20 -14,38zm126 -71c16,0 29,13 29,29 0,17 -13,30 -29,30 -16,0 -29,-13 -29,-30 0,-16 13,-29 29,-29zm297 22c4,0 7,4 7,7 0,4 -3,8 -7,8 -4,0 -7,-4 -7,-8 0,-3 3,-7 7,-7zm-37 -2c5,0 9,4 9,9 0,6 -4,10 -9,10 -6,0 -10,-4 -10,-10 0,-5 4,-9 10,-9zm-50 -5c8,0 14,7 14,14 0,8 -6,15 -14,15 -8,0 -15,-7 -15,-15 0,-7 7,-14 15,-14zm-55 -3c10,0 17,8 17,17 0,10 -7,18 -17,18 -10,0 -18,-8 -18,-18 0,-9 8,-17 18,-17zm-69 -5c12,0 23,10 23,22 0,13 -11,23 -23,23 -13,0 -23,-10 -23,-23 0,-12 10,-22 23,-22z"/>
   <rect class="fil1" x="137" y="118" width="612" height="614" rx="103" ry="19"/>
   <path class="fil2" d="M241 118l405 0c57,0 103,47 103,104l0 136c-83,67 -190,108 -306,108 -116,0 -222,-41 -306,-108l0 -136c0,-57 47,-104 104,-104z"/>
   <g>
    <circle class="fil3" cx="292" cy="292" r="67"/>
    <circle class="fil4" cx="292" cy="276" r="29"/>
    <circle class="fil3" cx="595" cy="292" r="67"/>
    <circle class="fil4" cx="595" cy="276" r="29"/>
   </g>
   <ellipse class="fil3" cx="443" cy="587" rx="92" ry="91"/>
  </g>
 </g>
</svg>
