<?xml version="1.0" encoding="UTF-8"?>
<!DOCTYPE svg PUBLIC "-//W3C//DTD SVG 1.1//EN" "http://www.w3.org/Graphics/SVG/1.1/DTD/svg11.dtd">
<!-- Creator: CorelDRAW X8 -->
<svg xmlns="http://www.w3.org/2000/svg" xml:space="preserve" width="31.564mm" height="35.6728mm" version="1.1" style="shape-rendering:geometricPrecision; text-rendering:geometricPrecision; image-rendering:optimizeQuality; fill-rule:evenodd; clip-rule:evenodd"
viewBox="0 0 818 924"
 xmlns:xlink="http://www.w3.org/1999/xlink">
 <defs>
  <style type="text/css">
   <![CDATA[
    .fil3 {fill:#000066}
    .fil4 {fill:#003399}
    .fil0 {fill:#2C3D51}
    .fil6 {fill:#3C0404}
    .fil1 {fill:#FEC12B}
    .fil5 {fill:white}
    .fil2 {fill:white;fill-opacity:0.301961}
   ]]>
  </style>
    <mask id="id0">
  <radialGradient id="id1" gradientUnits="userSpaceOnUse" cx="590.805" cy="386.574" r="97.8526" fx="590.805" fy="386.574">
   <stop offset="0" style="stop-opacity:1; stop-color:white"/>
   <stop offset="1" style="stop-opacity:0; stop-color:white"/>
  </radialGradient>
     <rect style="fill:url(#id1)" x="512" y="293" width="80.5378" height="95.898"/>
    </mask>
    <mask id="id2">
  <radialGradient id="id3" gradientUnits="userSpaceOnUse" cx="544.636" cy="314.484" r="24.8516" fx="544.636" fy="314.484">
   <stop offset="0" style="stop-opacity:1; stop-color:white"/>
   <stop offset="0.721569" style="stop-opacity:-127.502; stop-color:white"/>
   <stop offset="1" style="stop-opacity:0; stop-color:white"/>
  </radialGradient>
     <rect style="fill:url(#id3)" x="517" y="287" width="39.7273" height="39.7273"/>
    </mask>
    <mask id="id4">
  <radialGradient id="id5" gradientUnits="userSpaceOnUse" cx="336.835" cy="386.574" r="97.8526" fx="336.835" fy="386.574">
   <stop offset="0" style="stop-opacity:1; stop-color:white"/>
   <stop offset="1" style="stop-opacity:0; stop-color:white"/>
  </radialGradient>
     <rect style="fill:url(#id5)" x="258" y="293" width="80.5378" height="95.898"/>
    </mask>
    <mask id="id6">
  <radialGradient id="id7" gradientUnits="userSpaceOnUse" cx="320.977" cy="314.484" r="24.8516" fx="320.977" fy="314.484">
   <stop offset="0" style="stop-opacity:1; stop-color:white"/>
   <stop offset="0.721569" style="stop-opacity:-127.502; stop-color:white"/>
   <stop offset="1" style="stop-opacity:0; stop-color:white"/>
  </radialGradient>
     <rect style="fill:url(#id7)" x="294" y="287" width="39.7273" height="39.7273"/>
    </mask>
 </defs>
 <g id="Layer_x0020_1">
  <metadata id="CorelCorpID_0Corel-Layer"/>
  <g id="_1262197039056">
   <path class="fil0" d="M0 141l0 19c1,1 1,2 2,3 1,5 3,9 5,13 2,2 4,4 7,7l0 0 0 0c7,7 17,11 27,11l0 0 0 0 1 0c22,1 42,-15 43,-41 1,-24 -16,-39 -35,-43l-1 0 0 0 0 0 -2 0 0 0c0,0 -1,0 -1,0l-1 0 -1 0c-11,-1 -23,3 -32,13 -3,3 -6,7 -8,11l-3 6c0,-1 -1,1 -1,1zm87 209c-32,0 -58,26 -58,58 0,32 26,58 58,58 1,0 2,0 2,0l0 166c0,62 51,113 114,113l271 0c1,1 1,1 2,2 98,117 71,177 71,177 125,-140 105,-168 133,-183 5,-2 11,-4 16,-7l1 0 0 0c38,-18 65,-57 65,-102l0 -166c31,-1 56,-26 56,-58 0,-31 -25,-57 -56,-58l0 -165c0,-63 -51,-114 -114,-114l-445 0c-63,0 -114,51 -114,114l0 165c0,0 -1,0 -2,0zm-23 -282c2,14 13,23 24,26 4,1 7,1 11,1 7,0 13,-2 18,-5 13,-7 21,-20 16,-39 -3,-13 -12,-21 -22,-24 -4,-2 -8,-3 -12,-3 -9,0 -16,3 -22,8 -10,7 -16,19 -13,36zm120 -68c16,0 29,13 29,28 0,16 -13,29 -29,29 -15,0 -28,-13 -28,-29 0,-15 13,-28 28,-28zm286 22c3,0 6,3 6,6 0,4 -3,7 -6,7 -4,0 -7,-3 -7,-7 0,-3 3,-6 7,-6zm-37 -3c6,0 10,4 10,9 0,6 -4,10 -10,10 -5,0 -9,-4 -9,-10 0,-5 4,-9 9,-9zm-47 -4c7,0 13,6 13,13 0,8 -6,14 -13,14 -8,0 -14,-6 -14,-14 0,-7 6,-13 14,-13zm-53 -4c9,0 17,8 17,17 0,10 -8,17 -17,17 -9,0 -17,-7 -17,-17 0,-9 8,-17 17,-17zm-67 -5c13,0 22,10 22,22 0,12 -9,22 -22,22 -12,0 -21,-10 -21,-22 0,-12 9,-22 21,-22z"/>
   <rect class="fil1" x="132" y="114" width="588" height="589" rx="99" ry="19"/>
   <path class="fil2" d="M231 114l389 0c55,0 99,44 99,99l0 130c-80,65 -182,104 -293,104 -112,0 -214,-39 -294,-104l0 -130c0,-55 44,-99 99,-99z"/>
   <ellipse class="fil3" cx="553" cy="341" rx="54" ry="65"/>
   <path class="fil4" style="mask:url(#id0)" d="M553 295c20,0 38,20 38,46 0,25 -18,45 -38,45 -21,0 -38,-20 -38,-45 0,-26 17,-46 38,-46z"/>
   <path class="fil5" style="mask:url(#id2)" d="M537 290c10,0 18,8 18,17 0,10 -8,18 -18,18 -9,0 -17,-8 -17,-18 0,-9 8,-17 17,-17z"/>
   <path class="fil6" d="M470 211c11,0 20,9 20,20l0 32c0,0 126,-5 158,-23l0 0c2,-1 4,-2 6,-2 7,0 12,5 12,12 0,32 -185,56 -215,60l0 -79c0,-11 9,-20 19,-20z"/>
   <ellipse class="fil3" cx="299" cy="341" rx="54" ry="65"/>
   <path class="fil4" style="mask:url(#id4)" d="M299 295c-21,0 -38,20 -38,46 0,25 17,45 38,45 21,0 38,-20 38,-45 0,-26 -17,-46 -38,-46z"/>
   <path class="fil5" style="mask:url(#id6)" d="M314 290c-10,0 -18,8 -18,17 0,10 8,18 18,18 9,0 17,-8 17,-18 0,-9 -8,-17 -17,-17z"/>
   <path class="fil6" d="M381 211c-11,0 -20,9 -20,20l0 32c0,0 -126,-5 -158,-23l0 0c-2,-1 -4,-2 -6,-2 -7,0 -12,5 -12,12 0,32 185,56 215,60l0 -79c0,-11 -8,-20 -19,-20z"/>
   <path class="fil6" d="M299 612c-3,4 -8,6 -14,6 -11,0 -20,-8 -20,-19 0,-9 7,-16 15,-19l0 0c0,0 61,-51 134,-52 3,0 5,0 7,0 3,0 5,0 7,0 74,1 135,52 135,52l0 0c8,3 14,10 14,19 0,11 -8,19 -19,19 -6,0 -11,-2 -14,-6 -38,-31 -207,-31 -245,0z"/>
  </g>
 </g>
</svg>
