<?xml version="1.0" encoding="UTF-8"?>
<!DOCTYPE svg PUBLIC "-//W3C//DTD SVG 1.1//EN" "http://www.w3.org/Graphics/SVG/1.1/DTD/svg11.dtd">
<!-- Creator: CorelDRAW X8 -->
<svg xmlns="http://www.w3.org/2000/svg" xml:space="preserve" width="29.3356mm" height="33.8834mm" version="1.1" style="shape-rendering:geometricPrecision; text-rendering:geometricPrecision; image-rendering:optimizeQuality; fill-rule:evenodd; clip-rule:evenodd"
viewBox="0 0 386 446"
 xmlns:xlink="http://www.w3.org/1999/xlink">
 <defs>
  <style type="text/css">
   <![CDATA[
    .fil3 {fill:#000066}
    .fil4 {fill:#003399}
    .fil0 {fill:#2C3D51}
    .fil6 {fill:#3C0404}
    .fil1 {fill:#FFBD2D}
    .fil5 {fill:white}
    .fil2 {fill:white;fill-opacity:0.301961}
   ]]>
  </style>
     <mask id="id0">
  <radialGradient id="id1" gradientUnits="userSpaceOnUse" cx="276.157" cy="201.724" r="49.6692" fx="276.157" fy="201.724">
   <stop offset="0" style="stop-opacity:1; stop-color:white"/>
   <stop offset="1" style="stop-opacity:0; stop-color:white"/>
  </radialGradient>
      <rect style="fill:url(#id1)" x="236" y="154" width="40.8803" height="48.6771"/>
     </mask>
     <mask id="id2">
  <radialGradient id="id3" gradientUnits="userSpaceOnUse" cx="252.722" cy="165.131" r="12.6145" fx="252.722" fy="165.131">
   <stop offset="0" style="stop-opacity:1; stop-color:white"/>
   <stop offset="0.721569" style="stop-opacity:-127.502; stop-color:white"/>
   <stop offset="1" style="stop-opacity:0; stop-color:white"/>
  </radialGradient>
      <rect style="fill:url(#id3)" x="239" y="151" width="20.1653" height="20.1653"/>
     </mask>
     <mask id="id4">
  <radialGradient id="id5" gradientUnits="userSpaceOnUse" cx="147.244" cy="201.724" r="49.6692" fx="147.244" fy="201.724">
   <stop offset="0" style="stop-opacity:1; stop-color:white"/>
   <stop offset="1" style="stop-opacity:0; stop-color:white"/>
  </radialGradient>
      <rect style="fill:url(#id5)" x="107" y="154" width="40.8803" height="48.6771"/>
     </mask>
     <mask id="id6">
  <radialGradient id="id7" gradientUnits="userSpaceOnUse" cx="139.195" cy="165.131" r="12.6145" fx="139.195" fy="165.131">
   <stop offset="0" style="stop-opacity:1; stop-color:white"/>
   <stop offset="0.721569" style="stop-opacity:-127.502; stop-color:white"/>
   <stop offset="1" style="stop-opacity:0; stop-color:white"/>
  </radialGradient>
      <rect style="fill:url(#id7)" x="125" y="151" width="20.1653" height="20.1653"/>
     </mask>
 </defs>
 <g id="Layer_x0020_1">
  <metadata id="CorelCorpID_0Corel-Layer"/>
  <g id="_1262233490864">
   <path class="fil0" d="M20 236c-12,-4 -20,-16 -20,-29 0,-15 10,-27 24,-30 17,-77 86,-134 168,-134 82,0 151,57 169,134 14,2 25,15 25,30 0,14 -9,25 -22,29 -3,32 -16,61 -34,85l0 0c0,0 17,5 -1,125 0,0 -10,-49 -88,-64l0 0c-15,5 -32,7 -49,7 -89,0 -162,-67 -172,-153z"/>
   <circle class="fil1" cx="192" cy="216" r="154"/>
   <path class="fil2" d="M192 62c66,0 123,42 145,100 -39,44 -89,70 -145,70 -55,0 -106,-26 -144,-70 22,-58 78,-100 144,-100z"/>
   <path class="fil0" d="M47 49c12,0 22,10 22,22 0,13 -10,23 -22,23 -13,0 -23,-10 -23,-23 0,-12 10,-22 23,-22zm216 -28c1,0 3,2 3,3 0,2 -2,3 -3,3 -2,0 -3,-1 -3,-3 0,-1 1,-3 3,-3zm-18 -8c3,0 5,2 5,5 0,2 -2,4 -5,4 -2,0 -4,-2 -4,-4 0,-3 2,-5 4,-5zm-21 -7c3,0 6,3 6,7 0,4 -3,6 -6,6 -4,0 -7,-2 -7,-6 0,-4 3,-7 7,-7zm-25 -5c5,0 9,4 9,9 0,6 -4,10 -9,10 -6,0 -10,-4 -10,-10 0,-5 4,-9 10,-9zm-33 -1c7,0 13,6 13,12 0,7 -6,13 -13,13 -6,0 -12,-6 -12,-13 0,-6 6,-12 12,-12zm-38 4c9,0 16,8 16,17 0,9 -7,16 -16,16 -9,0 -17,-7 -17,-16 0,-9 8,-17 17,-17zm-39 15c11,0 19,9 19,19 0,11 -8,20 -19,20 -11,0 -19,-9 -19,-20 0,-10 8,-19 19,-19z"/>
   <g>
    <ellipse class="fil3" cx="257" cy="178" rx="27" ry="33"/>
    <path class="fil4" style="mask:url(#id0)" d="M257 155c10,0 19,11 19,23 0,13 -9,24 -19,24 -11,0 -20,-11 -20,-24 0,-12 9,-23 20,-23z"/>
    <path class="fil5" style="mask:url(#id2)" d="M249 153c5,0 9,4 9,8 0,5 -4,9 -9,9 -5,0 -9,-4 -9,-9 0,-4 4,-8 9,-8z"/>
    <path class="fil6" d="M215 113c6,0 10,4 10,10l0 16c0,0 64,-2 80,-12l0 0c1,0 2,-1 3,-1 4,0 6,3 6,6 0,17 -94,29 -109,31l0 -40c0,-6 5,-10 10,-10z"/>
    <ellipse class="fil3" cx="128" cy="178" rx="27" ry="33"/>
    <path class="fil4" style="mask:url(#id4)" d="M128 155c-11,0 -19,11 -19,23 0,13 8,24 19,24 10,0 19,-11 19,-24 0,-12 -9,-23 -19,-23z"/>
    <path class="fil5" style="mask:url(#id6)" d="M136 153c-5,0 -9,4 -9,8 0,5 4,9 9,9 4,0 8,-4 8,-9 0,-4 -4,-8 -8,-8z"/>
    <path class="fil6" d="M170 113c-6,0 -10,4 -10,10l0 16c0,0 -65,-2 -81,-12l0 0c-1,0 -2,-1 -3,-1 -3,0 -6,3 -6,6 0,17 94,29 109,31l0 -40c0,-6 -4,-10 -9,-10z"/>
    <path class="fil6" d="M128 316c-2,2 -4,3 -7,3 -6,0 -10,-4 -10,-9 0,-5 3,-9 7,-10l0 0c0,0 31,-26 69,-26 1,0 2,0 3,0 1,0 2,0 4,0 37,0 68,26 68,26l0 0c4,1 7,5 7,10 0,5 -4,9 -10,9 -2,0 -5,-1 -7,-3 -19,-16 -105,-16 -124,0z"/>
   </g>
  </g>
 </g>
</svg>
