<?xml version="1.0" encoding="UTF-8"?>
<!DOCTYPE svg PUBLIC "-//W3C//DTD SVG 1.1//EN" "http://www.w3.org/Graphics/SVG/1.1/DTD/svg11.dtd">
<!-- Creator: CorelDRAW X8 -->
<svg xmlns="http://www.w3.org/2000/svg" xml:space="preserve" width="29.3356mm" height="33.8834mm" version="1.1" style="shape-rendering:geometricPrecision; text-rendering:geometricPrecision; image-rendering:optimizeQuality; fill-rule:evenodd; clip-rule:evenodd"
viewBox="0 0 490 565"
 xmlns:xlink="http://www.w3.org/1999/xlink">
 <defs>
  <style type="text/css">
   <![CDATA[
    .fil3 {fill:black}
    .fil0 {fill:#2C3D51}
    .fil1 {fill:red}
    .fil2 {fill:white;fill-opacity:0.301961}
   ]]>
  </style>
 </defs>
 <g id="Layer_x0020_1">
  <metadata id="CorelCorpID_0Corel-Layer"/>
  <g id="_2537545741968">
   <path class="fil0" d="M26 299c-15,-5 -26,-20 -26,-37 0,-18 13,-33 30,-38 22,-97 110,-170 214,-170 104,0 191,73 214,170 18,3 32,19 32,38 0,18 -12,33 -28,38 -5,40 -20,76 -43,107l0 0c0,0 21,6 -2,158 0,0 -12,-61 -111,-80l0 0c-20,6 -41,9 -62,9 -113,0 -206,-85 -218,-195z"/>
   <circle class="fil1" cx="244" cy="274" r="195"/>
   <path class="fil2" d="M244 79c84,0 155,53 183,127 -48,55 -113,88 -183,88 -70,0 -135,-33 -183,-88 27,-74 99,-127 183,-127z"/>
   <path class="fil0" d="M59 62c16,0 29,13 29,29 0,15 -13,28 -29,28 -15,0 -28,-13 -28,-28 0,-16 13,-29 28,-29zm274 -35c3,0 4,2 4,4 0,2 -1,4 -4,4 -2,0 -4,-2 -4,-4 0,-2 2,-4 4,-4zm-22 -10c3,0 6,2 6,6 0,3 -3,5 -6,5 -3,0 -5,-2 -5,-5 0,-4 2,-6 5,-6zm-27 -9c4,0 8,4 8,8 0,5 -4,9 -8,9 -5,0 -9,-4 -9,-9 0,-4 4,-8 9,-8zm-32 -7c7,0 12,6 12,12 0,7 -5,12 -12,12 -7,0 -12,-5 -12,-12 0,-6 5,-12 12,-12zm-41 -1c9,0 16,7 16,16 0,8 -7,15 -16,15 -9,0 -16,-7 -16,-15 0,-9 7,-16 16,-16zm-49 5c12,0 21,10 21,21 0,12 -9,21 -21,21 -11,0 -21,-9 -21,-21 0,-11 10,-21 21,-21zm-49 20c13,0 24,10 24,24 0,13 -11,24 -24,24 -14,0 -24,-11 -24,-24 0,-14 10,-24 24,-24z"/>
   <g>
    <path class="fil3" d="M199 168c2,0 4,2 4,4l0 36c0,0 -5,0 -14,-1 0,5 -1,10 -1,15 0,23 -10,41 -23,41 -13,0 -23,-18 -23,-41 0,-8 -1,-19 0,-28l0 0c-1,-1 -2,-1 -4,-2 -36,-17 -50,-29 -50,-29 0,0 59,23 80,28 20,6 27,5 27,5l0 -23c0,0 0,-1 0,-1 0,-2 2,-4 4,-4z"/>
    <path class="fil3" d="M289 168c-2,0 -4,2 -4,4l0 36c0,0 5,0 14,-1 0,5 1,10 1,15 0,23 10,41 23,41 13,0 23,-18 23,-41 0,-8 0,-19 0,-28l-1 0c2,-1 3,-1 4,-2 36,-17 51,-29 51,-29 0,0 -59,23 -80,28 -20,6 -27,5 -27,5l0 -23c0,0 0,-1 0,-1 0,-2 -2,-4 -4,-4z"/>
   </g>
   <path class="fil3" d="M150 402c29,-65 159,-66 188,0 -45,-39 -143,-39 -188,0z"/>
  </g>
 </g>
</svg>
