<?xml version="1.0" encoding="UTF-8"?>
<!DOCTYPE svg PUBLIC "-//W3C//DTD SVG 1.1//EN" "http://www.w3.org/Graphics/SVG/1.1/DTD/svg11.dtd">
<!-- Creator: CorelDRAW X8 -->
<svg xmlns="http://www.w3.org/2000/svg" xml:space="preserve" width="31.564mm" height="35.6728mm" version="1.1" style="shape-rendering:geometricPrecision; text-rendering:geometricPrecision; image-rendering:optimizeQuality; fill-rule:evenodd; clip-rule:evenodd"
viewBox="0 0 360 406"
 xmlns:xlink="http://www.w3.org/1999/xlink">
 <defs>
  <style type="text/css">
   <![CDATA[
    .fil3 {fill:black}
    .fil0 {fill:#2C3D51}
    .fil1 {fill:red}
    .fil2 {fill:white;fill-opacity:0.301961}
   ]]>
  </style>
 </defs>
 <g id="Layer_x0020_1">
  <metadata id="CorelCorpID_0Corel-Layer"/>
  <g id="_2537608282160">
   <path class="fil0" d="M0 62l0 8c0,1 1,1 1,2 0,2 1,4 2,5 1,1 2,2 3,4l0 0 0 0c3,3 8,4 12,4l0 0 0 0 0 0c10,1 19,-6 19,-18 1,-10 -7,-17 -15,-18l0 -1 0 0 -1 0 0 0 0 0c0,0 -1,0 -1,0l0 0 -1 0c-5,0 -10,2 -14,6 -1,1 -2,3 -3,5l-2 2c0,0 0,1 0,1zm38 92c-14,0 -25,11 -25,25 0,15 11,26 25,26 1,0 1,0 1,0l0 73c0,27 23,50 50,50l120 0c0,0 0,0 0,1 43,51 31,77 31,77 55,-61 47,-74 59,-80 2,-1 5,-2 7,-3l0 0 0 0c17,-8 29,-25 29,-45l0 -73c14,0 25,-12 25,-26 0,-13 -11,-25 -25,-25l0 -73c0,-27 -23,-50 -50,-50l-196 0c-27,0 -50,23 -50,50l0 73c0,0 0,0 -1,0zm-10 -124c1,6 6,10 11,11 1,1 3,1 4,1 3,0 6,-1 9,-2 5,-3 9,-9 7,-18 -2,-5 -6,-9 -10,-10 -2,-1 -4,-1 -6,-1 -3,0 -7,1 -9,3 -5,3 -7,8 -6,16zm53 -30c7,0 12,6 12,12 0,7 -5,13 -12,13 -7,0 -12,-6 -12,-13 0,-6 5,-12 12,-12zm125 9c2,0 3,2 3,3 0,2 -1,3 -3,3 -1,0 -2,-1 -2,-3 0,-1 1,-3 2,-3zm-15 -1c2,0 4,2 4,4 0,3 -2,5 -4,5 -3,0 -5,-2 -5,-5 0,-2 2,-4 5,-4zm-21 -2c3,0 6,3 6,6 0,4 -3,7 -6,7 -4,0 -6,-3 -6,-7 0,-3 2,-6 6,-6zm-24 -1c5,0 8,3 8,7 0,5 -3,8 -8,8 -4,0 -7,-3 -7,-8 0,-4 3,-7 7,-7zm-29 -2c6,0 10,4 10,9 0,6 -4,10 -10,10 -5,0 -9,-4 -9,-10 0,-5 4,-9 9,-9z"/>
   <rect class="fil1" x="58" y="50" width="258" height="259" rx="44" ry="8"/>
   <path class="fil2" d="M102 50l171 0c24,0 43,20 43,44l0 57c-35,28 -80,46 -129,46 -49,0 -94,-18 -129,-46l0 -57c0,-24 20,-44 44,-44z"/>
   <g>
    <path class="fil3" d="M156 113c2,0 3,2 3,3l0 25c0,0 -3,0 -9,-1 0,3 -1,7 -1,10 0,16 -7,28 -16,28 -8,0 -16,-12 -16,-28 0,-5 0,-13 1,-19l0 0c-1,0 -2,-1 -3,-1 -24,-12 -34,-20 -34,-20 0,0 40,16 54,19 14,4 19,3 19,3l0 -15c0,0 0,-1 0,-1 0,-1 1,-3 2,-3z"/>
    <path class="fil3" d="M218 113c-2,0 -3,2 -3,3l0 25c0,0 4,0 10,-1 0,3 0,7 0,10 0,16 7,28 16,28 9,0 16,-12 16,-28 0,-5 0,-13 0,-19l-1 0c1,0 2,-1 3,-1 25,-12 35,-20 35,-20 0,0 -41,16 -55,19 -14,4 -18,3 -18,3l0 -15c0,0 0,-1 0,-1 0,-1 -2,-3 -3,-3z"/>
   </g>
   <path class="fil3" d="M123 285c20,-45 108,-45 128,0 -31,-27 -97,-27 -128,0z"/>
  </g>
 </g>
</svg>
