<?xml version="1.0" encoding="UTF-8"?>
<!DOCTYPE svg PUBLIC "-//W3C//DTD SVG 1.1//EN" "http://www.w3.org/Graphics/SVG/1.1/DTD/svg11.dtd">
<!-- Creator: CorelDRAW X8 -->
<svg xmlns="http://www.w3.org/2000/svg" xml:space="preserve" width="31.564mm" height="35.6728mm" version="1.1" style="shape-rendering:geometricPrecision; text-rendering:geometricPrecision; image-rendering:optimizeQuality; fill-rule:evenodd; clip-rule:evenodd"
viewBox="0 0 359 405"
 xmlns:xlink="http://www.w3.org/1999/xlink">
 <defs>
  <style type="text/css">
   <![CDATA[
    .fil3 {fill:#1C1F39}
    .fil0 {fill:#2C3D51}
    .fil6 {fill:#3C0404}
    .fil1 {fill:#FEC12B}
    .fil4 {fill:white;fill-opacity:0.019608}
    .fil2 {fill:white;fill-opacity:0.301961}
    .fil5 {fill:white;fill-opacity:0.309804}
   ]]>
  </style>
 </defs>
 <g id="Layer_x0020_1">
  <metadata id="CorelCorpID_0Corel-Layer"/>
  <g id="_2537537081152">
   <path class="fil0" d="M0 62l0 8c0,1 1,1 1,2 0,2 1,3 2,5 1,1 2,2 3,3l0 0 0 0c3,3 8,5 12,5l0 0 0 0 0 0c10,0 19,-7 19,-18 1,-10 -7,-17 -15,-19l-1 0 0 0 0 0 0 0 0 0c-1,0 -1,0 -1,0l0 0 -1 0c-5,0 -10,2 -14,6 -1,1 -2,3 -3,5l-2 2c0,0 0,1 0,1zm38 92c-14,0 -25,11 -25,25 0,14 11,26 25,26 1,0 1,0 1,-1l0 73c0,27 23,50 50,50l119 0c0,0 1,0 1,1 43,51 31,77 31,77 55,-61 46,-73 58,-80 3,-1 5,-2 7,-3l1 0 0 0c16,-8 28,-25 28,-45l0 -73c14,0 25,-11 25,-25 0,-14 -11,-25 -25,-25l0 -73c0,-27 -22,-50 -50,-50l-195 0c-27,0 -50,23 -50,50l0 73c0,0 0,0 -1,0zm-10 -124c1,6 6,10 11,11 1,1 3,1 4,1 3,0 6,-1 9,-3 5,-3 8,-8 6,-17 -1,-5 -5,-9 -9,-10 -2,-1 -4,-1 -6,-1 -3,0 -7,1 -9,3 -5,3 -7,8 -6,16zm53 -30c7,0 12,6 12,12 0,7 -5,13 -12,13 -7,0 -13,-6 -13,-13 0,-6 6,-12 13,-12zm125 9c2,0 3,2 3,3 0,2 -1,3 -3,3 -2,0 -3,-1 -3,-3 0,-1 1,-3 3,-3zm-16 -1c2,0 4,2 4,4 0,3 -2,5 -4,5 -2,0 -4,-2 -4,-5 0,-2 2,-4 4,-4zm-21 -2c4,0 6,3 6,6 0,4 -2,6 -6,6 -3,0 -6,-2 -6,-6 0,-3 3,-6 6,-6zm-23 -1c4,0 7,3 7,7 0,4 -3,8 -7,8 -4,0 -7,-4 -7,-8 0,-4 3,-7 7,-7zm-29 -2c5,0 10,4 10,9 0,6 -5,10 -10,10 -5,0 -10,-4 -10,-10 0,-5 5,-9 10,-9z"/>
   <rect class="fil1" x="58" y="50" width="258" height="258" rx="44" ry="8"/>
   <path class="fil2" d="M101 50l171 0c24,0 44,19 44,43l0 58c-36,28 -81,45 -129,45 -49,0 -94,-17 -129,-45l0 -58c0,-24 19,-43 43,-43z"/>
   <g>
    <g>
     <g>
      <ellipse class="fil3" cx="126" cy="136" rx="24" ry="29"/>
      <path class="fil4" d="M149 143c-3,12 -12,21 -23,21 -11,0 -20,-8 -23,-20 5,-9 14,-14 23,-14 10,0 18,5 23,13z"/>
      <path class="fil5" d="M121 117c4,0 8,4 8,9 0,4 -4,8 -8,8 -5,0 -9,-4 -9,-8 0,-5 4,-9 9,-9z"/>
     </g>
     <g>
      <ellipse class="fil3" cx="247" cy="136" rx="24" ry="29"/>
      <path class="fil4" d="M270 143c-3,12 -12,21 -23,21 -10,0 -19,-8 -22,-20 5,-9 13,-14 23,-14 9,0 17,5 22,13z"/>
      <path class="fil5" d="M242 117c5,0 8,4 8,9 0,4 -3,8 -8,8 -4,0 -8,-4 -8,-8 0,-5 4,-9 8,-9z"/>
     </g>
    </g>
    <path class="fil6" d="M126 270c-2,1 -3,1 -5,1 -3,0 -7,-3 -7,-7 0,-1 1,-3 1,-4 1,-1 2,-2 3,-2 36,-30 97,-36 138,-19l0 0c3,1 5,4 5,7 0,4 -4,7 -8,7 -1,0 -1,0 -2,0 -10,-2 -46,-7 -69,-3 -27,6 -56,20 -56,20z"/>
   </g>
  </g>
 </g>
</svg>
