<?xml version="1.0" encoding="UTF-8"?>
<!DOCTYPE svg PUBLIC "-//W3C//DTD SVG 1.1//EN" "http://www.w3.org/Graphics/SVG/1.1/DTD/svg11.dtd">
<!-- Creator: CorelDRAW 2021 (64-Bit) -->
<svg xmlns="http://www.w3.org/2000/svg" xml:space="preserve" width="164.706mm" height="116.257mm" version="1.1" style="shape-rendering:geometricPrecision; text-rendering:geometricPrecision; image-rendering:optimizeQuality; fill-rule:evenodd; clip-rule:evenodd"
viewBox="0 0 16465.24 11621.97"
 xmlns:xlink="http://www.w3.org/1999/xlink"
 xmlns:xodm="http://www.corel.com/coreldraw/odm/2003">
 <defs>
  <style type="text/css">
   <![CDATA[
    .str0 {stroke:#373435;stroke-width:19.99;stroke-miterlimit:22.9256}
    .fil1 {fill:black}
    .fil0 {fill:#14233B}
    .fil2 {fill:#14233B;fill-rule:nonzero}
   ]]>
  </style>
 </defs>
 <g id="Слой_x0020_1">
  <metadata id="CorelCorpID_0Corel-Layer"/>
  <path class="fil0 str0" d="M4531.97 3818.11c70.45,33.81 309.52,122.8 387.92,141.06 196.18,-842.04 1114.02,-1952.39 1828.35,-2474.15 1551.5,-1133.25 3446.04,-1426.68 5326.23,-660.07 523.39,213.4 1190.29,629.96 1565.2,1009.25 229.12,231.82 410.3,390.55 610.73,658.86 201.71,270 350.71,481.94 520.16,784.69 81.21,145.08 134.98,290.5 199.37,435.44 170.62,384.16 318.43,1164.06 353.55,1586.1 462.15,-38.46 433.15,39.87 250.17,-884.96 -85.28,-431.05 -165.85,-720.7 -332.25,-1078.4 -150.57,-323.67 -333.56,-605.56 -524.06,-886.59 -554.99,-818.77 -1461.1,-1512.21 -2367.79,-1934.71 -2475.12,-1153.35 -5460.82,-241.07 -6991.39,1802.1 -168.84,225.37 -325.84,448.28 -461.96,701.83 -203.17,378.47 -219.51,497.93 -364.23,799.55z"/>
  <path class="fil0 str0" d="M4673.03 8120.6c77.95,334.61 570.67,1065.59 802.94,1348.31 992.31,1207.8 2561.77,2143.07 4345.95,2143.07 1365.77,0 2507.83,-309.36 3567.43,-1087.73 609.93,-448.05 1151.92,-1012.09 1544.6,-1664.63 89.58,-148.86 338.82,-553.52 354.26,-739.01 -120.39,-63.7 -201.58,-105.87 -352.67,-141.06 -40.29,172.95 -236.17,498.43 -332.24,655.21 -133.64,218.06 -262.3,391.56 -408.05,579.42 -80.1,103.25 -137.83,151.93 -226.78,266.94 -408.33,527.96 -1525.64,1212.8 -2113.96,1412.68 -1759.81,597.91 -3515.55,402.26 -5009.93,-677.51 -225.63,-163.03 -347.82,-253.66 -540.5,-446.97 -749.95,-752.41 -795.07,-876.36 -1278.4,-1789.78 -101.3,23.6 -268.34,96.45 -352.66,141.06z"/>
  <path class="fil1 str0" d="M14512.35 7062.61c0,128.66 31.64,84.03 35.27,246.87 -502.5,117.06 -409.17,60.23 -493.73,423.19 109.85,0 198.8,6.16 304.15,-13.28 97.33,-17.96 171.35,-57.91 248.3,-73.16 217.77,-43.15 151.35,121.7 505.54,121.7 216.85,0 406.06,-115.42 529.96,-210.64 334.97,-257.43 810.17,-1074.52 810.17,-1411.61 0,-401.36 61.8,-634.8 -352.67,-634.8 -369.05,0 -459.61,646.12 -105.8,740.59 -73.63,884.68 -1469.85,1889.2 -669.67,106.2 75.75,-168.78 302.04,-525.86 317.01,-705.72 -776.82,-818.94 -1128.53,1331.58 -1128.53,1410.66zm-12625.37 493.73c-489.35,425.35 -1598.81,153.14 -1424.19,-187.51 126.51,-246.8 1093.56,180.14 1424.19,187.51zm2327.59 -1234.32l-19.4 75.83 19.4 -75.83zm4267.22 846.39c-358.23,-29.81 -149.88,-121.18 -670.05,0 58.73,-110.99 90.39,-217.22 152.39,-341.33 144.08,-288.44 388.72,-752.38 698.05,-857.15 311.62,-105.55 436.66,356 60.27,910.15 -89.09,131.17 -164.51,174.62 -240.66,288.34zm-458.46 -987.45l10.53 10.51c-0.7,-0.68 -14.03,-7.01 -10.53,-10.51zm5607.36 -423.2c-61.9,265.69 -90.17,457.84 176.33,529 0,562.29 -369.64,1091.58 -635.88,1088.82 -128.34,-1.33 -195.87,-43.91 -227.77,-190.46 -18.69,-85.86 0.39,-148.78 20.39,-258.69 34.95,-192.14 67.01,-288.92 149.21,-452.05 131.78,-261.49 294.92,-567.43 517.71,-716.62zm35.27 -35.26l-35.27 35.26 35.27 -35.26zm35.26 -35.27l-35.26 35.27 35.26 -35.27zm0 0c29.42,-126.28 53.71,-211.32 -134.56,-209.5 -59.1,0.58 -274.29,65.64 -335.64,91.97 -185.69,79.69 -372.48,248.29 -487.96,393.69 -244.81,308.21 -441.58,787.44 -311.43,1346.1 -713.21,166.16 -792.51,201.95 -430.71,-1206.58 111.29,-433.31 107.29,-499.11 325.02,-803.5 294.17,-411.26 631.87,-1285.59 4.62,-1199.49 -307.84,42.26 -512.43,658.19 -589.43,932.08 -191.4,680.87 -333.48,1113.99 -442.47,1814.57 -38.87,249.89 -32.5,300.08 -312.46,463.4 -87.49,51.04 -135.7,70.97 -282.56,74.19 -421.24,9.25 -347.27,-133.93 -163.53,-696.61 63.3,-193.86 115.39,-367.76 188.4,-552.19 83.97,-212.11 151.4,-339.96 151.4,-624.46 -173.59,-14.45 -226.8,-56.34 -409.18,13.56 -306.27,117.37 -275.25,548.6 -441.19,1040.46 -332.46,985.51 -617.86,824.93 -1159.82,779.83 61.41,-91.7 171.76,-200.11 258.06,-306.2 107.18,-131.78 143.75,-178.1 224.82,-339.45 485.84,-967.06 -307.87,-1668.33 -1023.24,-882.18l-270.76 328.77c74.35,-319.1 246.87,-632.47 246.87,-987.46 -679.98,-158.41 -634.51,531.57 -789.77,1149.9 -100.99,402.18 -333.76,1326.68 -938.29,1036.62 -166.43,-166.42 458.46,-1443.16 458.46,-1798.58 -263.99,-126.67 -559.5,-33.07 -655.91,225.76 -45.39,121.83 -63.62,291.16 -98.34,430.65 -133.93,538.07 -342.2,1255.61 -936.56,1177.24 -371.23,-48.94 -57.56,-495.58 143.6,-1053.27 72.17,-200.08 264.69,-651.94 -6.84,-778.53 -274.43,-127.95 -620.25,81.68 -765.34,217.95l-501.93 556.06 584.44 -1531.54c69.9,-174.16 156.15,-330.29 156.15,-549.18 -562.66,-269.97 -687.4,242.02 -771.72,533.14 -110.46,381.43 -231.07,766.34 -352.31,1128.89 -115.97,346.8 -219.33,757.6 -374.74,1071.17 -139.03,280.52 -389.5,502.3 -683.47,398.08 -244.69,-86.75 478.6,-653.63 -136.42,-1341.63 -313.53,-350.73 -634.71,-399.34 -858.24,-622.94 -452.2,-452.3 141.05,-1094.69 872.21,-872.23 220.72,67.16 278.71,191.71 329.76,410.85 465.29,0 367.8,-409.02 277.4,-559.45 -323.82,-538.89 -1671.65,-430.84 -2065.66,287.63 -108.78,198.37 -173.77,566.31 -78.33,833.57 176.22,493.5 879.78,650.71 1098.25,947.19 63.63,86.33 114.21,234.18 96.71,390.54 -18.9,168.88 -104,240.5 -139.48,392.82l-754.5 -197.7c-310.37,-77.3 -1344.29,-387.27 -1397.54,232.41 -34.83,405.32 57.27,549.28 288.52,700.28 477.37,311.71 1377.15,283.13 1899.7,-99.29 125.96,-92.18 125.47,-185.17 304.16,-170.29 404.25,33.68 520.17,90.33 823.44,-112.75 0.88,39.42 -60.38,235.6 266.97,165.73 328.32,-70.09 305.82,-324.03 555.47,-824.47 104.36,-209.18 224.44,-377.72 365.42,-551.5 28.89,-35.6 510.77,-614.17 451.84,-225.44 -29.34,193.57 -580.83,1057.98 -327.34,1392.82 141.48,186.88 412.63,184.75 734.48,185.42 406.28,0.85 441.77,-131.68 668.66,-283.62 103.37,443.68 915.54,279.95 1057.99,211.59 -19.87,238.84 -274.61,804.5 -335.8,1047.7 -55.45,220.41 62.19,197.17 265.51,191.03 175.4,-5.3 252.76,-20.53 304.03,-158.6 38.21,-102.91 62.72,-255.44 90.76,-367.69l204.49 -747.7c186.99,43.56 347.97,111.82 627.23,62.78 348.91,-61.28 31.69,-151.02 503.69,5.13 155.36,51.4 452.73,64.19 660.14,30.35 263.74,-43.03 297.31,-161.65 465.99,-274.59 146.13,276.17 261.59,282.89 670.69,283.24 411.84,0.34 464.04,-86.82 704.7,-247.98 157.85,105.71 114.7,246.24 527.33,248.57 376.52,2.12 433.44,2.72 718.7,-101.02 262.01,-95.28 69.67,93.19 558.17,131.77 626.94,49.5 1030.75,-706.31 1159.63,-1230.06 40.62,-165.06 64.15,-554.33 5.84,-714.06 -35.75,-97.94 -107.21,-173.36 -192.99,-197.09 -173.13,-47.87 -261.17,8.31 -343.3,63.31z"/>
  <path class="fil1 str0" d="M10527.25 4452.9c0,311.39 41.28,352.66 352.67,352.66 432.33,0 448.81,-830.2 -49.99,-722.3 -160.96,34.82 -302.67,200.01 -302.67,369.64z"/>
  <path class="fil1 str0" d="M6683.22 4417.64c0,279.58 -8.34,387.92 317.4,387.92 469.96,0 482,-832.69 -14.28,-722.16 -159.31,35.49 -303.12,155.77 -303.12,334.23z"/>
  <path class="fil2" d="M1342.55 2616.41l982.31 0 24.04 458.02 -57.04 0c-37.19,-269.56 -134.22,-404.34 -291.37,-404.34 -31.59,0 -53.4,5.6 -65.15,16.5 -11.75,10.91 -17.61,28.8 -17.61,53.96l0 967.77c0,19.57 5.87,34.12 17.33,43.35 11.47,9.23 30.2,13.98 56.48,13.98l122.48 0 0 62.08 -563.72 0 0 -62.08 138.97 0c18.74,0 32.72,-4.75 42.51,-13.98 9.79,-9.23 14.83,-21.53 14.83,-36.91l0 -981.75c0,-20.69 -6.16,-36.35 -18.74,-46.97 -12.3,-10.63 -32.43,-15.94 -60.11,-15.94 -78.57,0 -144.28,37.48 -196.86,112.41 -43.35,61.79 -74.38,159.1 -93.39,291.93l-62.08 0 27.12 -458.02zm1078.5 0l290.25 -13.43 0 590.84c40.55,-52.28 84.17,-91.43 130.87,-117.44 46.69,-26 95.91,-38.87 148.2,-38.87 49.21,0 93.67,11.75 133.38,35.24 30.76,18.45 56.76,50.89 78.57,97.31 21.53,46.42 32.43,101.22 32.43,164.42l0 364.06c0,23.49 5.88,40.55 17.9,51.17 12.02,10.63 30.75,15.93 56.2,15.93l65.15 0 0 62.08 -414.4 0 0 -62.08 46.14 0c35.23,0 59.56,-5.59 72.99,-16.77 13.42,-11.19 20.12,-27.96 20.12,-50.33l0 -364.06c0,-64.04 -15.65,-113.8 -46.69,-149.32 -31.04,-35.79 -70.74,-53.68 -119.11,-53.68 -37.76,0 -72.99,10.07 -105.43,30.2 -32.43,20.13 -60.11,50.88 -82.48,91.99 -22.65,41.39 -33.84,84.72 -33.84,130.59l0 306.18c0,27.12 5.88,46.69 17.34,58.16 11.46,11.47 30.2,17.05 56.48,17.05l65.43 0 0 62.08 -407.69 0 0 -62.08 46.69 0c31.6,0 54.25,-6.15 67.39,-18.45 13.43,-12.3 20.13,-31.03 20.13,-56.76l0 -914.65c0,-32.71 -8.67,-57.04 -25.72,-73.26 -17.05,-15.93 -41.95,-24.04 -74.66,-24.04l-55.65 0 0 -62.08zm1763.01 832.15l-548.61 0c2.8,116.88 24.6,199.66 65.43,247.75 46.97,53.96 106.54,81.08 179.24,81.08 106.82,0 192.66,-60.96 257.53,-182.87l53.13 22.93c-79.69,154.63 -194.9,232.09 -345.34,232.09 -102.62,0 -189.02,-37.19 -259.21,-111.29 -70.19,-74.1 -105.14,-168.89 -105.14,-284.37 0,-124.44 34.39,-224.82 103.46,-301.43 69.07,-76.62 154.07,-114.93 255.02,-114.93 74.1,0 138.14,19.02 192.38,57.33 53.96,38.03 94.51,92.83 121.91,164.14 19.01,50.04 29.08,113.24 30.2,189.58zm-548.61 -58.72l332.19 0c19.57,0 34.95,-6.71 45.86,-20.13 10.91,-13.14 16.21,-35.79 16.21,-67.95 0,-59.84 -18.73,-110.72 -55.92,-152.67 -37.47,-41.95 -81.37,-62.92 -132.26,-62.92 -56.77,0 -104.87,25.17 -144.29,75.79 -39.42,50.6 -60.11,126.67 -61.79,227.89z"/>
  <path class="fil2" d="M7614.56 9195.78l0 -1293 1215.52 0 0 174.24 -683.37 0 0 376.22 651.38 0 0 174.25 -651.38 0 0 568.29 -532.15 0zm1199.04 0l328.11 -698.97c32.47,-69.64 69.31,-118.15 110.5,-145.54 41.2,-27.06 96.92,-40.59 166.72,-40.59 65.43,0 116.8,11.88 153.64,35.97 36.83,23.76 71.25,69.31 102.27,136.63l339.73 712.51 -430.86 0 -69.29 -156.43 -419.23 0 -66.89 156.43 -214.7 0zm333.92 -275.23l314.06 0 -150.73 -372.26 -163.33 372.26zm1093.89 275.23l0 -740.56c0,-48.5 20.35,-84.81 61.06,-108.57 40.71,-24.09 101.79,-35.97 183.2,-35.97 64.46,0 115.84,9.9 153.64,29.7 37.81,19.47 72.22,54.78 102.26,104.95l169.16 277.87 163.33 -277.87c29.56,-51.48 62.51,-87.12 99.35,-105.94 36.83,-19.14 89.67,-28.71 158.96,-28.71 83.36,0 145.4,11.88 187.09,35.97 41.68,23.76 62.52,60.07 62.52,108.57l0 740.56 -404.21 0 0 -632.98 -363.49 632.98 -14.05 0 -355.26 -607.89 0 607.89 -203.55 0zm1715.19 0l0 -857.38 410.02 0 0 857.38 -410.02 0zm-8.72 -1209.51c0,-40.6 20.83,-75.25 63,-103.96 42.17,-28.71 92.56,-42.91 151.7,-42.91 60.58,0 111.47,14.2 153.15,42.58 41.68,28.38 62.51,63.03 62.51,104.29 0,40.92 -20.83,75.25 -63,103.63 -42.16,28.38 -93.06,42.57 -152.66,42.57 -59.14,0 -109.53,-14.19 -151.7,-42.9 -42.17,-28.71 -63,-63.04 -63,-103.3zm1215.51 944.51c0,52.8 13.1,88.77 38.77,107.92 26.18,18.81 76.1,28.38 149.76,28.38l102.27 0 0 128.71 -348.95 0c-129.4,0 -220.53,-19.14 -273.35,-57.09 -52.33,-37.96 -78.51,-105.94 -78.51,-203.95l0 -1123.05 410.02 0 0 1119.09zm273.84 -592.38l453.14 0 253 407.9 245.72 -407.9 214.21 0 -771.08 1219.75 -228.76 0 316.97 -498.66 -483.2 -721.09z"/>
 </g>
</svg>
