<?xml version="1.0" encoding="UTF-8"?>
<!DOCTYPE svg PUBLIC "-//W3C//DTD SVG 1.1//EN" "http://www.w3.org/Graphics/SVG/1.1/DTD/svg11.dtd">
<!-- Creator: CorelDRAW X8 -->
<svg xmlns="http://www.w3.org/2000/svg" xml:space="preserve" width="31.564mm" height="35.6728mm" version="1.1" style="shape-rendering:geometricPrecision; text-rendering:geometricPrecision; image-rendering:optimizeQuality; fill-rule:evenodd; clip-rule:evenodd"
viewBox="0 0 361 408"
 xmlns:xlink="http://www.w3.org/1999/xlink">
 <defs>
  <style type="text/css">
   <![CDATA[
    .fil0 {fill:#2C3D51}
    .fil3 {fill:#3C0404}
    .fil7 {fill:#E99718}
    .fil4 {fill:#F32D2D}
    .fil1 {fill:#FEC12B}
    .fil5 {fill:white;fill-opacity:0.168627}
    .fil6 {fill:white;fill-opacity:0.231373}
    .fil2 {fill:white;fill-opacity:0.301961}
   ]]>
  </style>
 </defs>
 <g id="Layer_x0020_1">
  <metadata id="CorelCorpID_0Corel-Layer"/>
  <g id="_1262233525936">
   <path class="fil0" d="M0 62l0 9c0,0 1,1 1,1 0,2 1,4 2,6 1,1 2,2 3,3l0 0 0 0c3,3 8,5 12,5l0 0 0 0 0 0c10,0 19,-7 20,-18 0,-11 -8,-18 -16,-19l0 0 0 0 -1 0 0 0 0 0c0,0 -1,0 -1,0l0 0 0 0c-6,-1 -11,1 -15,5 -1,2 -2,3 -3,5l-2 3c0,-1 0,0 0,0zm39 93c-15,0 -26,11 -26,25 0,14 11,26 26,26 0,0 0,0 0,0l0 73c0,28 23,50 51,50l120 0c0,1 0,1 0,1 44,52 32,78 32,78 55,-62 46,-74 58,-81 3,0 5,-1 8,-3l0 0 0 0c17,-8 29,-25 29,-45l0 -73c13,-1 24,-12 24,-26 0,-14 -11,-25 -24,-25l0 -73c0,-28 -23,-51 -51,-51l-196 0c-28,0 -51,23 -51,51l0 73c0,0 0,0 0,0zm-11 -125c1,6 6,10 11,11 1,1 3,1 5,1 3,0 5,-1 8,-2 5,-3 9,-9 7,-17 -2,-6 -5,-10 -10,-11 -2,-1 -3,-1 -5,-1 -4,0 -7,1 -10,3 -4,3 -7,9 -6,16zm53 -30c7,0 13,6 13,13 0,6 -6,12 -13,12 -6,0 -12,-6 -12,-12 0,-7 6,-13 12,-13zm126 10c2,0 3,1 3,3 0,1 -1,2 -3,2 -1,0 -3,-1 -3,-2 0,-2 2,-3 3,-3zm-16 -2c3,0 5,2 5,5 0,2 -2,4 -5,4 -2,0 -4,-2 -4,-4 0,-3 2,-5 4,-5zm-21 -2c4,0 6,3 6,7 0,3 -2,6 -6,6 -3,0 -6,-3 -6,-6 0,-4 3,-7 6,-7zm-23 -1c4,0 8,3 8,8 0,4 -4,7 -8,7 -4,0 -7,-3 -7,-7 0,-5 3,-8 7,-8zm-29 -2c5,0 9,4 9,10 0,5 -4,9 -9,9 -6,0 -10,-4 -10,-9 0,-6 4,-10 10,-10z"/>
   <rect class="fil1" x="58" y="50" width="260" height="260" rx="44" ry="8"/>
   <path class="fil2" d="M102 50l172 0c24,0 44,20 44,44l0 58c-36,28 -81,45 -130,45 -49,0 -94,-17 -130,-45l0 -58c0,-24 20,-44 44,-44z"/>
   <path class="fil3" d="M191 250c16,-1 49,-4 65,-9 21,-6 19,-6 19,-6 0,0 12,-3 11,8 0,2 0,5 -2,9 -17,46 -44,66 -93,66l0 0 0 0c-48,0 -75,-20 -92,-66 -2,-4 -2,-7 -2,-9 -1,-11 11,-8 11,-8 0,0 -2,0 19,6 15,5 49,8 64,9z"/>
   <path class="fil4" d="M149 283c0,0 -15,6 -7,11 8,6 9,6 9,6 0,0 24,7 32,24 7,17 13,23 13,23 0,0 18,13 39,13 21,0 35,-23 35,-23 0,0 7,-12 -1,-26 -8,-13 -21,-25 -21,-25 0,0 -18,-17 -36,-16 -17,1 -37,0 -37,0 0,0 -9,-1 -26,13z"/>
   <path class="fil5" d="M243 359c16,-4 27,-22 27,-22 0,0 7,-12 -1,-26 -8,-13 -21,-25 -21,-25 0,0 -18,-17 -36,-16 -4,0 -8,0 -12,0 0,0 26,18 20,28 -8,-19 -26,-28 -26,-28l0 0c-11,0 -19,0 -19,0 0,0 -2,-1 -6,1 -4,4 -7,9 -7,12 2,7 5,8 5,8 0,0 26,15 29,32 3,16 22,28 22,28 0,0 12,5 25,8z"/>
   <path class="fil6" d="M250 317c6,9 6,17 6,17 0,0 6,7 9,0 3,-7 0,-15 0,-15 0,0 -6,-25 -18,-23 -9,1 0,17 3,21z"/>
   <g>
    <g>
     <ellipse class="fil7" cx="242" cy="125" rx="20" ry="26"/>
     <ellipse class="fil3" cx="249" cy="122" rx="20" ry="26"/>
    </g>
    <g>
     <ellipse class="fil7" cx="127" cy="125" rx="20" ry="26"/>
     <ellipse class="fil3" cx="134" cy="122" rx="20" ry="26"/>
    </g>
   </g>
  </g>
 </g>
</svg>
