<?xml version="1.0" encoding="UTF-8"?>
<!DOCTYPE svg PUBLIC "-//W3C//DTD SVG 1.1//EN" "http://www.w3.org/Graphics/SVG/1.1/DTD/svg11.dtd">
<!-- Creator: CorelDRAW X8 -->
<svg xmlns="http://www.w3.org/2000/svg" xml:space="preserve" width="29.3356mm" height="33.8834mm" version="1.1" style="shape-rendering:geometricPrecision; text-rendering:geometricPrecision; image-rendering:optimizeQuality; fill-rule:evenodd; clip-rule:evenodd"
viewBox="0 0 493 570"
 xmlns:xlink="http://www.w3.org/1999/xlink">
 <defs>
  <style type="text/css">
   <![CDATA[
    .fil0 {fill:#2C3D51}
    .fil3 {fill:#3C0404}
    .fil7 {fill:#E99718}
    .fil4 {fill:#F32D2D}
    .fil1 {fill:#FFBD2D}
    .fil5 {fill:white;fill-opacity:0.168627}
    .fil6 {fill:white;fill-opacity:0.231373}
    .fil2 {fill:white;fill-opacity:0.301961}
   ]]>
  </style>
 </defs>
 <g id="Layer_x0020_1">
  <metadata id="CorelCorpID_0Corel-Layer"/>
  <g id="_1227655106480">
   <path class="fil0" d="M26 301c-15,-5 -26,-20 -26,-37 0,-18 13,-34 30,-38 23,-98 111,-171 216,-171 105,0 192,73 215,171 18,3 32,19 32,38 0,18 -11,33 -27,38 -5,40 -21,77 -44,108l0 0c0,0 22,6 -2,160 0,0 -12,-62 -112,-82l0 0c-20,6 -41,9 -62,9 -114,0 -207,-85 -220,-196z"/>
   <circle class="fil1" cx="246" cy="276" r="197"/>
   <path class="fil2" d="M246 79c84,0 156,54 184,128 -49,56 -113,89 -184,89 -71,0 -136,-33 -185,-89 28,-74 100,-128 185,-128z"/>
   <path class="fil0" d="M60 63c16,0 29,12 29,28 0,16 -13,29 -29,29 -16,0 -29,-13 -29,-29 0,-16 13,-28 29,-28zm276 -36c2,0 4,2 4,4 0,2 -2,4 -4,4 -2,0 -4,-2 -4,-4 0,-2 2,-4 4,-4zm-22 -10c3,0 5,3 5,6 0,3 -2,6 -5,6 -4,0 -6,-3 -6,-6 0,-3 2,-6 6,-6zm-28 -9c4,0 8,4 8,8 0,5 -4,9 -8,9 -5,0 -9,-4 -9,-9 0,-4 4,-8 9,-8zm-32 -7c7,0 12,6 12,12 0,7 -5,13 -12,13 -7,0 -12,-6 -12,-13 0,-6 5,-12 12,-12zm-41 -1c8,0 16,7 16,16 0,9 -8,16 -16,16 -9,0 -16,-7 -16,-16 0,-9 7,-16 16,-16zm-50 5c12,0 22,10 22,21 0,12 -10,22 -22,22 -11,0 -21,-10 -21,-22 0,-11 10,-21 21,-21zm-49 20c13,0 24,11 24,24 0,14 -11,25 -24,25 -14,0 -25,-11 -25,-25 0,-13 11,-24 25,-24z"/>
   <path class="fil3" d="M248 352c22,-1 72,-5 95,-12 30,-10 28,-10 28,-10 0,0 17,-5 16,11 0,3 -1,8 -3,14 -26,68 -65,97 -136,97l0 0 0 0c-71,0 -111,-29 -136,-97 -2,-6 -3,-11 -3,-14 -1,-16 16,-11 16,-11 0,0 -2,0 28,10 23,7 72,11 95,12z"/>
   <path class="fil4" d="M192 400c0,0 -22,10 -10,17 12,8 13,8 13,8 0,0 36,11 47,36 10,25 20,33 20,33 0,0 26,20 57,20 31,0 50,-34 50,-34 0,0 12,-18 0,-38 -12,-20 -31,-37 -31,-37 0,0 -27,-26 -53,-24 -25,1 -54,0 -54,0 0,0 -14,-1 -39,19z"/>
   <path class="fil5" d="M330 512c25,-6 39,-32 39,-32 0,0 12,-18 0,-38 -12,-20 -31,-37 -31,-37 0,0 -27,-26 -53,-24 -6,0 -12,0 -18,0 0,0 39,27 30,42 -13,-28 -39,-42 -39,-42l0 0c-15,0 -27,0 -27,0 0,0 -3,0 -9,2 -6,6 -11,12 -10,17 2,11 7,13 7,13 0,0 38,22 42,46 5,24 33,42 33,42 0,0 18,6 36,11z"/>
   <path class="fil6" d="M340 450c9,14 10,25 10,25 0,0 8,11 13,1 4,-10 0,-23 0,-23 0,0 -9,-37 -26,-34 -13,2 0,25 3,31z"/>
   <g>
    <g>
     <ellipse class="fil7" cx="325" cy="190" rx="30" ry="38"/>
     <ellipse class="fil3" cx="336" cy="186" rx="30" ry="38"/>
    </g>
    <g>
     <ellipse class="fil7" cx="156" cy="190" rx="30" ry="38"/>
     <ellipse class="fil3" cx="167" cy="186" rx="30" ry="38"/>
    </g>
   </g>
  </g>
 </g>
</svg>
