<?xml version="1.0" encoding="UTF-8"?>
<!DOCTYPE svg PUBLIC "-//W3C//DTD SVG 1.1//EN" "http://www.w3.org/Graphics/SVG/1.1/DTD/svg11.dtd">
<!-- Creator: CorelDRAW X8 -->
<svg xmlns="http://www.w3.org/2000/svg" xml:space="preserve" width="29.3356mm" height="33.8834mm" version="1.1" style="shape-rendering:geometricPrecision; text-rendering:geometricPrecision; image-rendering:optimizeQuality; fill-rule:evenodd; clip-rule:evenodd"
viewBox="0 0 4726 5459"
 xmlns:xlink="http://www.w3.org/1999/xlink">
 <defs>
  <style type="text/css">
   <![CDATA[
    .fil3 {fill:#2A1304}
    .fil0 {fill:#2C3D51}
    .fil1 {fill:#FFBD2D}
    .fil5 {fill:white}
    .fil4 {fill:white}
    .fil2 {fill:white;fill-opacity:0.301961}
   ]]>
  </style>
 </defs>
 <g id="Layer_x0020_1">
  <metadata id="CorelCorpID_0Corel-Layer"/>
  <g id="_2537603752864">
   <path class="fil0" d="M248 2889c-145,-53 -248,-192 -248,-355 0,-179 123,-328 289,-368 217,-940 1060,-1641 2066,-1641 1005,0 1847,699 2065,1637 175,34 306,187 306,372 0,169 -111,312 -265,361 -45,385 -194,739 -417,1033l0 0c0,0 208,60 -16,1531 0,0 -122,-595 -1076,-778l0 0c-190,55 -390,85 -597,85 -1089,0 -1986,-820 -2107,-1877z"/>
   <circle class="fil1" cx="2355" cy="2645" r="1886"/>
   <path class="fil2" d="M2355 759c810,0 1501,511 1768,1228 -468,531 -1088,853 -1768,853 -680,0 -1300,-322 -1768,-853 267,-717 958,-1228 1768,-1228z"/>
   <path class="fil0" d="M574 599c153,0 276,124 276,276 0,153 -123,276 -276,276 -152,0 -276,-123 -276,-276 0,-152 124,-276 276,-276zm2644 -338c21,0 38,17 38,37 0,21 -17,38 -38,38 -20,0 -37,-17 -37,-38 0,-20 17,-37 37,-37zm-213 -98c31,0 55,25 55,55 0,31 -24,56 -55,56 -30,0 -55,-25 -55,-56 0,-30 25,-55 55,-55zm-266 -87c45,0 81,36 81,81 0,45 -36,82 -81,82 -45,0 -82,-37 -82,-82 0,-45 37,-81 82,-81zm-307 -65c65,0 118,52 118,117 0,65 -53,117 -118,117 -64,0 -117,-52 -117,-117 0,-65 53,-117 117,-117zm-394 -11c84,0 152,68 152,152 0,84 -68,152 -152,152 -84,0 -152,-68 -152,-152 0,-84 68,-152 152,-152zm-471 51c111,0 202,90 202,202 0,112 -91,203 -202,203 -112,0 -203,-91 -203,-203 0,-112 91,-202 203,-202zm-477 186c129,0 234,105 234,235 0,129 -105,234 -234,234 -130,0 -235,-105 -235,-234 0,-130 105,-235 235,-235z"/>
   <rect class="fil3" x="1092" y="3085" width="2520" height="1055" rx="1260" ry="242"/>
   <path class="fil4" d="M1556 3304l139 0 0 261 -444 0c23,-148 151,-261 305,-261zm240 0l322 0 0 261 -322 0 0 -261zm423 0l322 0 0 261 -322 0 0 -261zm424 0l322 0 0 261 -322 0 0 -261zm423 0l83 0c154,0 282,113 305,261l-388 0 0 -261zm382 389c-36,131 -157,229 -299,229l-83 0 0 -229 382 0zm-483 229l-322 0 0 -229 322 0 0 229zm-424 0l-322 0 0 -229 322 0 0 229zm-423 0l-322 0 0 -229 322 0 0 229zm-423 0l-139 0c-142,0 -263,-98 -299,-229l438 0 0 229z"/>
   <g>
    <circle class="fil3" cx="1451" cy="1800" r="399"/>
    <circle class="fil5" cx="1451" cy="1800" r="114"/>
    <circle class="fil3" cx="3259" cy="1800" r="399"/>
    <circle class="fil5" cx="3259" cy="1800" r="114"/>
   </g>
  </g>
 </g>
</svg>
