<?xml version="1.0" encoding="UTF-8"?>
<!DOCTYPE svg PUBLIC "-//W3C//DTD SVG 1.1//EN" "http://www.w3.org/Graphics/SVG/1.1/DTD/svg11.dtd">
<!-- Creator: CorelDRAW X8 -->
<svg xmlns="http://www.w3.org/2000/svg" xml:space="preserve" width="31.4547mm" height="35.6728mm" version="1.1" style="shape-rendering:geometricPrecision; text-rendering:geometricPrecision; image-rendering:optimizeQuality; fill-rule:evenodd; clip-rule:evenodd"
viewBox="0 0 1276 1447"
 xmlns:xlink="http://www.w3.org/1999/xlink">
 <defs>
  <style type="text/css">
   <![CDATA[
    .fil3 {fill:#2A1304}
    .fil0 {fill:#2C3D51}
    .fil1 {fill:#FEC12B}
    .fil5 {fill:white}
    .fil4 {fill:white}
    .fil2 {fill:white;fill-opacity:0.301961}
   ]]>
  </style>
 </defs>
 <g id="Layer_x0020_1">
  <metadata id="CorelCorpID_0Corel-Layer"/>
  <g id="_2537603753536">
   <path class="fil0" d="M0 221l0 30c1,1 2,3 3,4 2,7 5,14 9,20 2,4 5,7 10,12l0 0 0 0c12,10 26,17 42,17l1 0 0 0 0 0c35,1 67,-24 68,-64 1,-38 -25,-62 -55,-67l-1 0 0 0 -1 -1 -2 0 0 0c-1,0 -2,0 -2,0l-1 0 -2 0c-18,-1 -36,5 -50,20 -5,5 -9,12 -13,18l-4 8c-1,0 -1,2 -2,3zm132 326c-50,0 -91,41 -91,91 0,50 41,91 91,91 3,0 5,0 8,0l0 260c0,97 80,177 178,177l425 0c0,1 1,2 2,3 153,183 111,278 111,278 196,-219 165,-264 208,-287 9,-3 18,-7 26,-11l0 0 0 0c60,-28 102,-90 102,-160l0 -260c47,-4 84,-43 84,-91 0,-48 -37,-87 -84,-91l0 -258c0,-98 -80,-178 -178,-178l-696 0c-98,0 -178,80 -178,178l0 258c-3,0 -5,0 -8,0zm-32 -441c4,23 20,36 38,41 5,1 11,2 16,2 11,0 21,-3 30,-8 19,-11 31,-32 24,-61 -5,-20 -18,-33 -34,-38 -6,-3 -13,-4 -20,-4 -12,0 -24,5 -34,12 -15,11 -25,30 -20,56zm188 -106c25,0 45,20 45,44 0,25 -20,45 -45,45 -24,0 -44,-20 -44,-45 0,-24 20,-44 44,-44zm447 34c6,0 11,4 11,10 0,6 -5,11 -11,11 -6,0 -11,-5 -11,-11 0,-6 5,-10 11,-10zm-57 -5c9,0 15,7 15,15 0,9 -6,15 -15,15 -8,0 -14,-6 -14,-15 0,-8 6,-15 14,-15zm-74 -6c12,0 21,9 21,21 0,12 -9,22 -21,22 -12,0 -22,-10 -22,-22 0,-12 10,-21 22,-21zm-83 -5c15,0 27,12 27,26 0,15 -12,27 -27,27 -14,0 -26,-12 -26,-27 0,-14 12,-26 26,-26zm-104 -8c19,0 35,15 35,34 0,19 -16,35 -35,35 -19,0 -34,-16 -34,-35 0,-19 15,-34 34,-34z"/>
   <rect class="fil1" x="206" y="178" width="920" height="922" rx="155" ry="29"/>
   <path class="fil2" d="M362 178l609 0c85,0 155,70 155,155l0 205c-126,101 -286,162 -460,162 -174,0 -334,-61 -460,-162l0 -205c0,-85 70,-155 156,-155z"/>
   <rect class="fil3" x="348" y="750" width="634" height="266" rx="317" ry="61"/>
   <path class="fil4" d="M465 805l35 0 0 65 -112 0c6,-37 38,-65 77,-65zm60 0l81 0 0 65 -81 0 0 -65zm107 0l81 0 0 65 -81 0 0 -65zm106 0l82 0 0 65 -82 0 0 -65zm107 0l21 0c39,0 71,28 77,65l-98 0 0 -65zm96 97c-9,34 -39,58 -75,58l-21 0 0 -58 96 0zm-121 58l-82 0 0 -58 82 0 0 58zm-107 0l-81 0 0 -58 81 0 0 58zm-107 0l-81 0 0 -58 81 0 0 58zm-106 0l-35 0c-36,0 -66,-24 -75,-58l110 0 0 58z"/>
   <g>
    <circle class="fil3" cx="438" cy="439" r="100"/>
    <circle class="fil5" cx="438" cy="439" r="29"/>
    <circle class="fil3" cx="894" cy="439" r="100"/>
    <circle class="fil5" cx="894" cy="439" r="29"/>
   </g>
  </g>
 </g>
</svg>
