<?xml version="1.0" encoding="UTF-8"?>
<!DOCTYPE svg PUBLIC "-//W3C//DTD SVG 1.1//EN" "http://www.w3.org/Graphics/SVG/1.1/DTD/svg11.dtd">
<!-- Creator: CorelDRAW X8 -->
<svg xmlns="http://www.w3.org/2000/svg" xml:space="preserve" width="31.564mm" height="35.6728mm" version="1.1" style="shape-rendering:geometricPrecision; text-rendering:geometricPrecision; image-rendering:optimizeQuality; fill-rule:evenodd; clip-rule:evenodd"
viewBox="0 0 1238 1399"
 xmlns:xlink="http://www.w3.org/1999/xlink">
 <defs>
  <style type="text/css">
   <![CDATA[
    .fil5 {fill:black}
    .fil3 {fill:#232945}
    .fil0 {fill:#2C3D51}
    .fil9 {fill:#831B21}
    .fil1 {fill:red}
    .fil4 {fill:white}
    .fil6 {fill:#C6F3FF;fill-rule:nonzero}
    .fil2 {fill:#611204;fill-opacity:0.301961}
    .fil7 {fill:white;fill-rule:nonzero;fill-opacity:0.701961}
    .fil8 {fill:url(#id6)}
   ]]>
  </style>
      <mask id="id0">
  <radialGradient id="id1" gradientUnits="userSpaceOnUse" cx="413.74" cy="471.414" r="0" fx="413.74" fy="471.414">
   <stop offset="0" style="stop-opacity:1; stop-color:white"/>
   <stop offset="1" style="stop-opacity:0; stop-color:white"/>
  </radialGradient>
       <rect style="fill:url(#id1)" x="410" y="467" width="60.9687" height="60.9647"/>
      </mask>
      <mask id="id2">
  <radialGradient id="id3" gradientUnits="userSpaceOnUse" cx="793.169" cy="471.414" r="0" fx="793.169" fy="471.414">
   <stop offset="0" style="stop-opacity:1; stop-color:white"/>
   <stop offset="1" style="stop-opacity:0; stop-color:white"/>
  </radialGradient>
       <rect style="fill:url(#id3)" x="789" y="467" width="60.9687" height="60.9647"/>
      </mask>
      <mask id="id4">
  <linearGradient id="id5" gradientUnits="userSpaceOnUse" x1="655.915" y1="955.341" x2="647.398" y2="1180.31">
   <stop offset="0" style="stop-opacity:0; stop-color:white"/>
   <stop offset="1" style="stop-opacity:1; stop-color:white"/>
  </linearGradient>
       <rect style="fill:url(#id5)" x="528" y="908" width="232" height="216"/>
      </mask>
  <linearGradient id="id6" gradientUnits="userSpaceOnUse" x1="639.949" y1="797.35" x2="648.268" y2="960.595">
   <stop offset="0" style="stop-opacity:1; stop-color:#2A0609"/>
   <stop offset="1" style="stop-opacity:1; stop-color:#BF2222"/>
  </linearGradient>
 </defs>
 <g id="Layer_x0020_1">
  <metadata id="CorelCorpID_0Corel-Layer"/>
  <g id="_2537813919776">
   <path class="fil0" d="M0 214l0 28c1,2 2,4 3,5 2,7 4,13 8,19 2,3 5,7 10,12l0 0 1 0c10,9 25,16 40,16l1 0 0 0 0 0c33,1 65,-24 66,-62 1,-37 -25,-60 -53,-65l-2 0 0 0 -1 0 -1 0 -1 -1c0,0 -1,0 -2,0l-1 0 -1 0c-18,-1 -35,6 -49,20 -5,5 -9,11 -12,17l-4 8c-1,0 -1,2 -2,3zm132 316c-48,0 -88,39 -88,88 0,48 40,88 88,88 1,0 2,0 3,0l0 250c0,95 78,172 172,172l411 0c1,1 2,2 2,3 149,176 108,268 108,268 189,-212 159,-255 201,-278 8,-2 17,-6 25,-9l0 0 0 0c58,-28 99,-88 99,-156l0 -250c47,-2 85,-41 85,-88 0,-48 -38,-87 -85,-88l0 -250c0,-95 -77,-172 -172,-172l-674 0c-94,0 -172,77 -172,172l0 250c-1,0 -2,0 -3,0zm-36 -428c5,23 20,35 38,40 5,1 10,2 15,2 11,0 21,-3 29,-8 18,-10 30,-30 23,-59 -4,-19 -17,-31 -33,-37 -5,-2 -12,-3 -19,-3 -12,0 -24,4 -33,11 -15,11 -24,29 -20,54zm183 -102c24,0 43,19 43,43 0,24 -19,43 -43,43 -24,0 -43,-19 -43,-43 0,-24 19,-43 43,-43zm432 33c5,0 10,4 10,10 0,5 -5,10 -10,10 -6,0 -10,-5 -10,-10 0,-6 4,-10 10,-10zm-55 -5c8,0 15,7 15,15 0,8 -7,14 -15,14 -8,0 -14,-6 -14,-14 0,-8 6,-15 14,-15zm-72 -6c11,0 21,9 21,21 0,11 -10,21 -21,21 -12,0 -21,-10 -21,-21 0,-12 9,-21 21,-21zm-80 -5c14,0 25,12 25,26 0,14 -11,25 -25,25 -14,0 -25,-11 -25,-25 0,-14 11,-26 25,-26zm-101 -7c19,0 34,14 34,33 0,18 -15,33 -34,33 -18,0 -33,-15 -33,-33 0,-19 15,-33 33,-33z"/>
   <rect class="fil1" x="199" y="172" width="890" height="892" rx="150" ry="28"/>
   <path class="fil2" d="M350 172l589 0c82,0 150,67 150,150l0 198c-122,98 -276,157 -445,157 -168,0 -323,-59 -445,-157l0 -198c0,-83 68,-150 151,-150z"/>
   <g>
    <g>
     <path class="fil3" d="M454 441c40,0 73,40 73,90 0,50 -35,72 -75,72 -39,0 -70,-22 -70,-72 0,-50 33,-90 72,-90z"/>
     <path class="fil4" style="mask:url(#id0)" d="M440 471c15,0 27,12 27,27 0,15 -12,27 -27,27 -14,0 -26,-12 -26,-27 0,-15 12,-27 26,-27z"/>
    </g>
    <g>
     <path class="fil3" d="M834 441c40,0 72,40 72,90 0,50 -34,72 -74,72 -40,0 -70,-22 -70,-72 0,-50 32,-90 72,-90z"/>
     <path class="fil4" style="mask:url(#id2)" d="M820 471c14,0 26,12 26,27 0,15 -12,27 -26,27 -15,0 -27,-12 -27,-27 0,-15 12,-27 27,-27z"/>
    </g>
   </g>
   <g>
    <path class="fil5" d="M521 273c16,0 29,13 29,29 0,5 -1,10 -4,14l0 0c-2,4 -6,8 -10,10 -63,59 -253,130 -253,77 0,-19 16,-21 88,-42 71,-20 129,-78 129,-78l0 0c6,-6 13,-10 21,-10z"/>
    <path class="fil5" d="M767 273c-16,0 -29,13 -29,29 0,5 2,10 4,14l0 0c2,4 6,8 10,10 64,59 253,130 253,77 0,-19 -16,-21 -88,-42 -71,-20 -129,-78 -129,-78l0 0c-5,-6 -13,-10 -21,-10z"/>
   </g>
   <g>
    <path class="fil6" d="M221 665c25,103 99,155 99,206 0,52 -25,104 -99,104 -74,0 -98,-52 -98,-104 0,-51 74,-103 98,-206z"/>
    <path class="fil7" d="M219 713c9,42 35,64 35,85 0,21 -9,42 -35,42 -27,0 -36,-21 -36,-42 0,-21 27,-43 36,-85z"/>
   </g>
   <g>
    <path class="fil6" d="M1049 191c24,104 98,155 98,207 0,51 -24,103 -98,103 -74,0 -99,-52 -99,-103 0,-52 74,-103 99,-207z"/>
    <path class="fil7" d="M1046 239c9,43 36,64 36,85 0,21 -9,43 -36,43 -26,0 -35,-22 -35,-43 0,-21 26,-42 35,-85z"/>
   </g>
   <g>
    <path class="fil8" d="M643 798c92,0 164,49 190,111 29,69 -107,47 -181,47 -73,0 -223,24 -198,-49 21,-63 98,-109 189,-109z"/>
    <g>
     <path class="fil9" d="M784 912c4,26 6,55 5,83 3,81 -13,154 -104,173 -12,3 -25,5 -40,5l-1 0 -1 0c-14,0 -28,-2 -40,-5 -91,-19 -107,-92 -104,-173 -1,-28 1,-57 5,-83l2 -1c0,-7 1,-14 2,-21 0,0 60,-33 136,-30 77,-3 137,30 137,30 0,7 1,14 2,21l1 1z"/>
     <path class="fil4" style="mask:url(#id4)" d="M756 1055c0,36 -50,66 -112,66 -61,0 -111,-30 -111,-66 0,0 -11,-115 48,-138l1 0 0 0 0 0 1 0 0 -1 1 0 0 0 1 0 1 0 0 0 0 -1 1 0 0 0 1 0 0 0 0 0 1 0 1 -1 1 0 0 0 1 0 1 0 0 0 1 0 0 -1 1 0 0 0 0 0 1 0 1 0 0 0 0 0 1 0 1 0 1 0 0 0 0 0 1 -1 1 0 0 0 1 0 0 0 0 0 1 0 0 0 1 0 0 0c6,-1 10,1 13,3l1 1 1 0 0 1 1 1 1 0 0 1 1 0 1 1c0,0 1,1 1,1 0,1 1,1 1,2 1,1 1,1 1,2l1 1c0,0 0,1 1,1l0 1 0 1c1,1 1,2 1,3l1 1c0,1 0,1 0,2l0 1c1,1 1,2 1,3 0,1 0,2 0,3l0 0c0,1 0,2 1,3l0 1c0,1 0,2 0,3l0 0 0 1 0 1 0 1 0 1 -1 1 0 0 0 1 0 0 0 0 0 0 0 0 0 0 0 0c0,0 -4,18 12,20 16,-2 12,-20 12,-20l0 0 0 0 0 0 0 0 0 0 0 0 0 -1 0 0 0 -1 0 -1 0 -1 0 -1 0 -1 0 0c0,-1 0,-2 0,-3l0 -1c0,-1 0,-2 0,-3l0 0c0,-1 0,-2 0,-3 0,-1 1,-2 1,-3l0 -1 0 -2 1 -1c0,-1 0,-2 1,-3l0 -1 1 -1c0,0 0,-1 0,-1l1 -1c0,-1 1,-1 1,-2 1,-1 1,-1 1,-2 1,0 1,-1 1,-1l1 -1 1 0 0 -1 1 0 1 -1 1 -1 1 0 0 -1c3,-2 8,-4 13,-3l1 0 0 0 0 0 1 0 0 0 0 0 1 0 0 0 1 0 1 1 0 0 1 0 0 0 1 0 1 0 0 0 0 0 2 0 0 0 0 0 1 0 0 0 0 1 1 0 1 0 0 0 1 0 0 0 1 0 1 1 1 0 0 0 1 0 0 0 0 0 1 0 0 1 1 0 1 0 0 0 0 0 1 0 0 1 1 0 0 0 1 0 0 0c59,23 49,138 49,138z"/>
    </g>
   </g>
  </g>
 </g>
</svg>
