<?xml version="1.0" encoding="UTF-8"?>
<!DOCTYPE svg PUBLIC "-//W3C//DTD SVG 1.1//EN" "http://www.w3.org/Graphics/SVG/1.1/DTD/svg11.dtd">
<!-- Creator: CorelDRAW X8 -->
<svg xmlns="http://www.w3.org/2000/svg" xml:space="preserve" width="29.3356mm" height="33.8834mm" version="1.1" style="shape-rendering:geometricPrecision; text-rendering:geometricPrecision; image-rendering:optimizeQuality; fill-rule:evenodd; clip-rule:evenodd"
viewBox="0 0 4147 4790"
 xmlns:xlink="http://www.w3.org/1999/xlink">
 <defs>
  <style type="text/css">
   <![CDATA[
    .fil5 {fill:black}
    .fil3 {fill:#232945}
    .fil0 {fill:#2C3D51}
    .fil7 {fill:#831B21}
    .fil1 {fill:red}
    .fil4 {fill:white}
    .fil8 {fill:#C6F3FF;fill-rule:nonzero}
    .fil2 {fill:#611204;fill-opacity:0.301961}
    .fil9 {fill:white;fill-rule:nonzero;fill-opacity:0.701961}
    .fil6 {fill:url(#id6)}
   ]]>
  </style>
       <mask id="id0">
  <radialGradient id="id1" gradientUnits="userSpaceOnUse" cx="1236.24" cy="1698.62" r="0" fx="1236.24" fy="1698.62">
   <stop offset="0" style="stop-opacity:1; stop-color:white"/>
   <stop offset="1" style="stop-opacity:0; stop-color:white"/>
  </radialGradient>
        <rect style="fill:url(#id1)" x="1222" y="1684" width="220" height="220"/>
       </mask>
       <mask id="id2">
  <radialGradient id="id3" gradientUnits="userSpaceOnUse" cx="2603.91" cy="1698.62" r="0" fx="2603.91" fy="1698.62">
   <stop offset="0" style="stop-opacity:1; stop-color:white"/>
   <stop offset="1" style="stop-opacity:0; stop-color:white"/>
  </radialGradient>
        <rect style="fill:url(#id3)" x="2590" y="1684" width="220" height="220"/>
       </mask>
      <mask id="id4">
  <linearGradient id="id5" gradientUnits="userSpaceOnUse" x1="2109.17" y1="3571.54" x2="2078.47" y2="4382.46">
   <stop offset="0" style="stop-opacity:0; stop-color:white"/>
   <stop offset="1" style="stop-opacity:1; stop-color:white"/>
  </linearGradient>
       <rect style="fill:url(#id5)" x="1648" y="3401" width="837" height="780"/>
      </mask>
  <linearGradient id="id6" gradientUnits="userSpaceOnUse" x1="2051.62" y1="3002.05" x2="2081.61" y2="3590.47">
   <stop offset="0" style="stop-opacity:1; stop-color:#2A0609"/>
   <stop offset="1" style="stop-opacity:1; stop-color:#BF2222"/>
  </linearGradient>
 </defs>
 <g id="Layer_x0020_1">
  <metadata id="CorelCorpID_0Corel-Layer"/>
  <g id="_2537699144144">
   <path class="fil0" d="M218 2535c-127,-46 -218,-169 -218,-312 0,-156 108,-287 254,-322 190,-825 930,-1440 1813,-1440 881,0 1620,613 1812,1436 153,30 268,165 268,326 0,149 -97,275 -232,317 -40,338 -170,649 -367,907l1 0c0,0 182,53 -14,1343 0,0 -107,-522 -945,-682l0 0c-166,48 -342,74 -523,74 -956,0 -1743,-720 -1849,-1647z"/>
   <circle class="fil1" cx="2067" cy="2321" r="1655"/>
   <path class="fil2" d="M2067 666c711,0 1317,449 1551,1078 -411,465 -955,748 -1551,748 -597,0 -1141,-283 -1552,-748 234,-629 841,-1078 1552,-1078z"/>
   <path class="fil0" d="M504 526c134,0 242,108 242,242 0,134 -108,242 -242,242 -134,0 -242,-108 -242,-242 0,-134 108,-242 242,-242zm2320 -297c18,0 33,15 33,33 0,18 -15,33 -33,33 -18,0 -33,-15 -33,-33 0,-18 15,-33 33,-33zm-187 -86c27,0 49,22 49,49 0,26 -22,48 -49,48 -27,0 -48,-22 -48,-48 0,-27 21,-49 48,-49zm-234 -77c40,0 72,32 72,72 0,39 -32,72 -72,72 -39,0 -71,-33 -71,-72 0,-40 32,-72 71,-72zm-269 -57c57,0 103,46 103,103 0,57 -46,103 -103,103 -56,0 -102,-46 -102,-103 0,-57 46,-103 102,-103zm-346 -9c74,0 134,60 134,133 0,74 -60,134 -134,134 -73,0 -133,-60 -133,-134 0,-73 60,-133 133,-133zm-413 44c98,0 177,80 177,178 0,98 -79,178 -177,178 -98,0 -178,-80 -178,-178 0,-98 80,-178 178,-178zm-419 164c114,0 206,92 206,206 0,113 -92,206 -206,206 -113,0 -206,-93 -206,-206 0,-114 93,-206 206,-206z"/>
   <g>
    <g>
     <g>
      <path class="fil3" d="M1383 1587c143,0 260,147 260,327 0,180 -124,260 -267,260 -144,0 -253,-80 -253,-260 0,-180 116,-327 260,-327z"/>
      <path class="fil4" style="mask:url(#id0)" d="M1332 1699c53,0 96,42 96,95 0,53 -43,96 -96,96 -53,0 -96,-43 -96,-96 0,-53 43,-95 96,-95z"/>
     </g>
     <g>
      <path class="fil3" d="M2750 1587c144,0 261,147 261,327 0,180 -124,260 -268,260 -143,0 -253,-80 -253,-260 0,-180 117,-327 260,-327z"/>
      <path class="fil4" style="mask:url(#id2)" d="M2700 1699c53,0 95,42 95,95 0,53 -42,96 -95,96 -53,0 -96,-43 -96,-96 0,-53 43,-95 96,-95z"/>
     </g>
    </g>
    <g>
     <path class="fil5" d="M1625 985c56,0 102,46 102,103 0,18 -4,35 -13,50l0 0c-9,16 -21,29 -36,38 -230,210 -913,466 -913,275 0,-69 59,-76 317,-149 258,-74 466,-283 466,-283l0 0c19,-21 46,-34 77,-34z"/>
     <path class="fil5" d="M2509 985c-57,0 -103,46 -103,103 0,18 5,35 13,50l0 0c9,16 21,29 37,38 229,210 912,466 912,275 0,-69 -59,-76 -317,-149 -257,-74 -466,-283 -466,-283l0 0c-19,-21 -46,-34 -76,-34z"/>
    </g>
   </g>
   <g>
    <path class="fil6" d="M2064 3003c329,0 590,177 685,400 104,249 -388,173 -652,173 -265,0 -807,86 -717,-177 79,-228 356,-396 684,-396z"/>
    <g>
     <path class="fil7" d="M2573 3417c13,93 21,195 17,297 9,291 -47,554 -375,624 -44,11 -93,17 -146,17l-2 0 -3 0c-53,0 -102,-6 -145,-17 -328,-70 -385,-333 -376,-624 -4,-102 4,-204 18,-297l6 -5c3,-26 5,-51 8,-75 0,0 216,-118 492,-109 275,-9 491,109 491,109 3,24 5,49 8,75l7 5z"/>
     <path class="fil4" style="mask:url(#id4)" d="M2469 3931c0,130 -180,236 -402,236 -222,0 -402,-106 -402,-236 0,0 -38,-416 175,-497l1 0 2 -1 1 0 2 -1 2 0 1 -1 2 -1 1 0 3 -1 2 -1 1 0 2 -1 1 0 2 0 1 -1 2 0 1 -1 5 -1 2 -1 2 0 4 -1 1 0 3 -1 1 0 2 -1 1 0 1 0 2 0 1 -1 4 0 1 0 1 -1 4 0 1 0 3 0 2 -1 1 0 4 0 1 0 2 0 2 0 1 0 1 0 2 0 1 0 1 0 1 0c21,-4 36,1 47,11l3 2 3 1 3 2 3 2 2 2 3 3 2 2 2 2c2,2 3,4 5,5 1,2 2,4 3,5 2,3 4,6 6,9l1 2c1,2 2,4 3,6l1 3 1 3c2,4 3,8 5,12l0 3c1,2 1,4 2,6l1 3c1,4 1,8 2,12 0,3 1,6 1,9l0 3c1,2 1,5 1,8l0 5c0,3 0,7 0,10l0 2 0 2 0 4 0 2 0 5 0 4 -1 1 0 1 0 1 0 0 0 1 0 0 0 0 0 1c0,0 -16,64 43,70 58,-6 42,-70 42,-70l0 -1 0 0 0 0 0 -1 0 0 0 -1 0 -1 0 -1 -1 -4 0 -5 0 -2 0 -4 0 -2 0 -2c0,-3 0,-7 0,-10l0 -5c1,-3 1,-6 1,-8l0 -3c1,-3 1,-6 1,-9 1,-4 2,-8 3,-12l0 -3 2 -6 1 -3c1,-4 2,-8 4,-12l1 -3 1 -3c1,-2 2,-4 3,-6l2 -2c1,-3 3,-6 5,-9 1,-1 2,-3 4,-5 1,-1 3,-3 4,-5l2 -2 3 -2 2 -3 3 -2 2 -2 3 -2 3 -1 3 -2c11,-10 27,-15 47,-11l1 0 1 0 1 0 2 0 2 0 1 0 1 0 2 0 1 0 4 0 1 0 2 1 3 0 1 0 4 0 1 1 1 0 4 0 2 1 1 0 1 0 1 0 2 1 1 0 3 1 1 0 4 1 2 0 3 1 4 1 1 1 2 0 1 1 2 0 1 0 2 1 1 0 2 1 3 1 1 0 2 1 2 1 1 0 2 1 1 0 2 1 2 0c212,81 175,497 175,497z"/>
    </g>
   </g>
   <g>
    <path class="fil8" d="M473 2271c89,372 355,558 355,744 0,186 -89,372 -355,372 -266,0 -354,-186 -354,-372 0,-186 266,-372 354,-744z"/>
    <path class="fil9" d="M464 2443c32,153 128,230 128,306 0,76 -32,153 -128,153 -96,0 -128,-77 -128,-153 0,-76 96,-153 128,-306z"/>
   </g>
   <g>
    <path class="fil8" d="M3435 1094c89,372 355,558 355,744 0,186 -89,371 -355,371 -266,0 -354,-185 -354,-371 0,-186 266,-372 354,-744z"/>
    <path class="fil9" d="M3426 1266c32,153 128,230 128,306 0,76 -32,153 -128,153 -96,0 -128,-77 -128,-153 0,-76 96,-153 128,-306z"/>
   </g>
  </g>
 </g>
</svg>
