<?xml version="1.0" encoding="UTF-8"?>
<!DOCTYPE svg PUBLIC "-//W3C//DTD SVG 1.1//EN" "http://www.w3.org/Graphics/SVG/1.1/DTD/svg11.dtd">
<!-- Creator: CorelDRAW X8 -->
<svg xmlns="http://www.w3.org/2000/svg" xml:space="preserve" width="31.564mm" height="35.6728mm" version="1.1" style="shape-rendering:geometricPrecision; text-rendering:geometricPrecision; image-rendering:optimizeQuality; fill-rule:evenodd; clip-rule:evenodd"
viewBox="0 0 359 405"
 xmlns:xlink="http://www.w3.org/1999/xlink">
 <defs>
  <style type="text/css">
   <![CDATA[
    .fil3 {fill:#1D213A}
    .fil0 {fill:#2C3D51}
    .fil4 {fill:#3C0404}
    .fil1 {fill:#FEC12B}
    .fil2 {fill:white;fill-opacity:0.301961}
    .fil5 {fill:url(#id0)}
   ]]>
  </style>
  <linearGradient id="id0" gradientUnits="userSpaceOnUse" x1="251.478" y1="189.325" x2="221.651" y2="276.814">
   <stop offset="0" style="stop-opacity:1; stop-color:#E15261"/>
   <stop offset="1" style="stop-opacity:1; stop-color:#420909"/>
  </linearGradient>
 </defs>
 <g id="Layer_x0020_1">
  <metadata id="CorelCorpID_0Corel-Layer"/>
  <g id="_2537545753904">
   <path class="fil0" d="M0 62l0 8c0,1 1,1 1,2 0,2 1,3 2,5 1,1 2,2 3,3l0 0 0 0c3,3 8,5 12,5l0 0 0 0 0 0c10,0 19,-7 19,-18 1,-10 -7,-17 -15,-19l-1 0 0 0 0 0 0 0 0 0c-1,0 -1,0 -1,0l0 0 -1 0c-5,0 -10,2 -14,6 -1,1 -2,3 -3,5l-2 2c0,0 0,1 0,1zm38 92c-14,0 -25,11 -25,25 0,14 11,26 25,26 1,0 1,0 1,-1l0 73c0,27 23,50 50,50l119 0c0,0 1,0 1,1 43,51 31,77 31,77 55,-61 46,-73 58,-80 3,-1 5,-2 7,-3l1 0 0 0c16,-8 28,-25 28,-45l0 -73c14,0 25,-11 25,-25 0,-14 -11,-25 -25,-25l0 -73c0,-27 -22,-50 -50,-50l-195 0c-27,0 -50,23 -50,50l0 73c0,0 0,0 -1,0zm-10 -124c1,6 6,10 11,11 1,1 3,1 4,1 3,0 6,-1 9,-3 5,-3 8,-8 6,-17 -1,-5 -5,-9 -9,-10 -2,-1 -4,-1 -6,-1 -3,0 -7,1 -9,3 -5,3 -7,8 -6,16zm53 -30c7,0 12,6 12,12 0,7 -5,13 -12,13 -7,0 -13,-6 -13,-13 0,-6 6,-12 13,-12zm125 9c2,0 3,2 3,3 0,2 -1,3 -3,3 -2,0 -3,-1 -3,-3 0,-1 1,-3 3,-3zm-16 -1c2,0 4,2 4,4 0,3 -2,5 -4,5 -2,0 -4,-2 -4,-5 0,-2 2,-4 4,-4zm-21 -2c4,0 6,3 6,6 0,4 -2,6 -6,6 -3,0 -6,-2 -6,-6 0,-3 3,-6 6,-6zm-23 -1c4,0 7,3 7,7 0,4 -3,8 -7,8 -4,0 -7,-4 -7,-8 0,-4 3,-7 7,-7zm-29 -2c5,0 10,4 10,9 0,6 -5,10 -10,10 -5,0 -10,-4 -10,-10 0,-5 5,-9 10,-9z"/>
   <rect class="fil1" x="58" y="50" width="258" height="258" rx="44" ry="8"/>
   <path class="fil2" d="M101 50l171 0c24,0 44,19 44,43l0 58c-36,28 -81,45 -129,45 -49,0 -94,-17 -129,-45l0 -58c0,-24 19,-43 43,-43z"/>
   <path class="fil3" d="M155 114c14,9 3,40 -14,29 -13,-9 -16,-13 -32,-13 -30,-2 -30,22 -43,11 -4,-10 4,-23 19,-32 21,-11 52,-13 70,5zm63 0c-13,9 -3,40 14,29 13,-9 16,-13 32,-13 30,-2 30,22 43,11 4,-10 -4,-23 -19,-32 -21,-11 -52,-13 -70,5z"/>
   <g>
    <path class="fil4" d="M269 231c-3,0 -5,1 -6,2 -22,18 -50,26 -78,26 -28,0 -56,-8 -78,-26 -1,-1 -3,-2 -6,-2 -4,0 -7,3 -7,7 0,2 0,4 1,5 17,29 52,44 88,45 37,1 74,-14 91,-45 1,-1 2,-3 2,-5 0,-4 -3,-7 -7,-7z"/>
    <path class="fil5" d="M246 186c19,0 34,15 34,34 0,4 -1,7 -2,11l0 0 0 0c-2,4 -4,8 -7,12 -10,13 -28,33 -56,36 -36,4 -16,-9 -16,-9 11,-6 14,-24 16,-39 -2,-4 -2,-7 -2,-11 0,-4 1,-8 2,-12l0 0 0 0c5,-13 17,-22 31,-22z"/>
   </g>
  </g>
 </g>
</svg>
