<?xml version="1.0" encoding="UTF-8"?>
<!DOCTYPE svg PUBLIC "-//W3C//DTD SVG 1.1//EN" "http://www.w3.org/Graphics/SVG/1.1/DTD/svg11.dtd">
<!-- Creator: CorelDRAW X8 -->
<svg xmlns="http://www.w3.org/2000/svg" xml:space="preserve" width="29.3356mm" height="33.8834mm" version="1.1" style="shape-rendering:geometricPrecision; text-rendering:geometricPrecision; image-rendering:optimizeQuality; fill-rule:evenodd; clip-rule:evenodd"
viewBox="0 0 488 563"
 xmlns:xlink="http://www.w3.org/1999/xlink">
 <defs>
  <style type="text/css">
   <![CDATA[
    .fil3 {fill:#1D213A}
    .fil0 {fill:#2C3D51}
    .fil4 {fill:#3C0404}
    .fil1 {fill:#FFBD2D}
    .fil2 {fill:white;fill-opacity:0.301961}
    .fil5 {fill:url(#id0)}
   ]]>
  </style>
  <linearGradient id="id0" gradientUnits="userSpaceOnUse" x1="329.248" y1="299.433" x2="289.559" y2="415.85">
   <stop offset="0" style="stop-opacity:1; stop-color:#E15261"/>
   <stop offset="1" style="stop-opacity:1; stop-color:#420909"/>
  </linearGradient>
 </defs>
 <g id="Layer_x0020_1">
  <metadata id="CorelCorpID_0Corel-Layer"/>
  <g id="_2537701117936">
   <path class="fil0" d="M26 298c-15,-5 -26,-20 -26,-37 0,-18 13,-33 30,-38 22,-97 109,-169 213,-169 104,0 191,72 213,169 18,4 32,19 32,38 0,18 -12,33 -28,38 -4,39 -20,76 -43,106l0 0c0,0 22,6 -1,158 0,0 -13,-61 -111,-80l0 0c-20,6 -41,9 -62,9 -112,0 -205,-85 -217,-194z"/>
   <circle class="fil1" cx="243" cy="273" r="195"/>
   <path class="fil2" d="M243 78c84,0 155,53 182,127 -48,55 -112,88 -182,88 -70,0 -134,-33 -182,-88 27,-74 98,-127 182,-127z"/>
   <path class="fil0" d="M59 62c16,0 29,13 29,28 0,16 -13,29 -29,29 -15,0 -28,-13 -28,-29 0,-15 13,-28 28,-28zm273 -35c2,0 4,2 4,4 0,2 -2,4 -4,4 -2,0 -4,-2 -4,-4 0,-2 2,-4 4,-4zm-22 -10c3,0 6,2 6,6 0,3 -3,5 -6,5 -3,0 -6,-2 -6,-5 0,-4 3,-6 6,-6zm-27 -9c4,0 8,4 8,8 0,5 -4,9 -8,9 -5,0 -9,-4 -9,-9 0,-4 4,-8 9,-8zm-32 -7c7,0 12,6 12,12 0,7 -5,12 -12,12 -7,0 -12,-5 -12,-12 0,-6 5,-12 12,-12zm-41 -1c9,0 16,7 16,16 0,8 -7,15 -16,15 -8,0 -15,-7 -15,-15 0,-9 7,-16 15,-16zm-48 5c11,0 21,10 21,21 0,12 -10,21 -21,21 -12,0 -21,-9 -21,-21 0,-11 9,-21 21,-21zm-50 19c14,0 25,11 25,25 0,13 -11,24 -25,24 -13,0 -24,-11 -24,-24 0,-14 11,-25 24,-25z"/>
   <path class="fil3" d="M201 174c18,12 4,53 -19,38 -17,-12 -21,-16 -42,-17 -40,-2 -40,29 -58,15 -4,-14 6,-31 26,-42 28,-16 69,-17 93,6zm84 0c-18,12 -4,53 19,38 17,-12 21,-16 42,-17 40,-2 40,29 58,15 4,-14 -6,-31 -26,-42 -28,-16 -69,-17 -93,6z"/>
   <g>
    <path class="fil4" d="M352 354c-3,0 -6,2 -8,4 -29,23 -66,35 -103,35 -37,0 -74,-12 -104,-35 -2,-2 -5,-4 -8,-4 -5,0 -10,5 -10,10 0,3 1,5 3,7 21,39 68,59 116,60 49,1 99,-19 122,-60 1,-2 2,-4 2,-7 0,-5 -4,-10 -10,-10z"/>
    <path class="fil5" d="M322 296c25,0 45,20 45,44 0,5 -1,10 -3,15l0 0 0 0c-2,5 -5,11 -9,15 -13,18 -37,45 -74,49 -49,5 -21,-13 -21,-13 13,-7 18,-32 20,-52 -1,-4 -2,-9 -2,-14 0,-6 1,-11 3,-16l0 0 0 0c6,-17 22,-28 41,-28z"/>
   </g>
  </g>
 </g>
</svg>
