<?xml version="1.0" encoding="UTF-8"?>
<!DOCTYPE svg PUBLIC "-//W3C//DTD SVG 1.1//EN" "http://www.w3.org/Graphics/SVG/1.1/DTD/svg11.dtd">
<!-- Creator: CorelDRAW X8 -->
<svg xmlns="http://www.w3.org/2000/svg" xml:space="preserve" width="29.3356mm" height="33.8834mm" version="1.1" style="shape-rendering:geometricPrecision; text-rendering:geometricPrecision; image-rendering:optimizeQuality; fill-rule:evenodd; clip-rule:evenodd"
viewBox="0 0 4268 4929"
 xmlns:xlink="http://www.w3.org/1999/xlink">
 <defs>
  <style type="text/css">
   <![CDATA[
    .fil0 {fill:#2C3D51}
    .fil3 {fill:#422B0D}
    .fil4 {fill:#422B0D}
    .fil1 {fill:#FFBD2D}
    .fil2 {fill:white;fill-opacity:0.301961}
   ]]>
  </style>
 </defs>
 <g id="Layer_x0020_1">
  <metadata id="CorelCorpID_0Corel-Layer"/>
  <path class="fil0" d="M224 2609c-131,-48 -224,-174 -224,-321 0,-161 111,-296 261,-332 196,-849 957,-1482 1866,-1482 907,0 1667,631 1865,1479 157,30 276,169 276,335 0,153 -101,282 -239,326 -41,348 -175,668 -377,933l0 0c0,0 188,54 -14,1382 0,0 -110,-537 -972,-702l-1 0c-171,50 -351,77 -538,77 -984,0 -1794,-741 -1903,-1695z"/>
  <circle class="fil1" cx="2127" cy="2389" r="1703"/>
  <path class="fil2" d="M2127 686c731,0 1355,461 1596,1109 -423,478 -982,770 -1596,770 -614,0 -1174,-292 -1597,-770 241,-648 865,-1109 1597,-1109z"/>
  <path class="fil0" d="M519 541c137,0 249,112 249,249 0,138 -112,250 -249,250 -138,0 -250,-112 -250,-250 0,-137 112,-249 250,-249zm2387 -306c19,0 34,16 34,34 0,19 -15,34 -34,34 -19,0 -34,-15 -34,-34 0,-18 15,-34 34,-34zm-192 -88c27,0 50,23 50,50 0,28 -23,50 -50,50 -28,0 -50,-22 -50,-50 0,-27 22,-50 50,-50zm-241 -79c41,0 74,33 74,74 0,41 -33,74 -74,74 -41,0 -74,-33 -74,-74 0,-41 33,-74 74,-74zm-277 -58c59,0 106,47 106,105 0,59 -47,106 -106,106 -58,0 -105,-47 -105,-106 0,-58 47,-105 105,-105zm-356 -10c76,0 138,61 138,137 0,76 -62,137 -138,137 -75,0 -137,-61 -137,-137 0,-76 62,-137 137,-137zm-425 46c101,0 182,82 182,183 0,101 -81,182 -182,182 -101,0 -183,-81 -183,-182 0,-101 82,-183 183,-183zm-431 168c117,0 212,95 212,212 0,117 -95,212 -212,212 -117,0 -212,-95 -212,-212 0,-117 95,-212 212,-212z"/>
  <g id="_2537602950672">
   <path class="fil3" d="M1694 1750c60,0 108,48 108,107 0,15 -3,30 -9,43 -202,430 -952,230 -952,-43 0,-59 48,-107 107,-107 34,0 64,15 84,39l0 0c204,203 344,154 564,25 17,-38 54,-64 98,-64z"/>
   <path class="fil3" d="M2559 1750c-59,0 -107,48 -107,107 0,15 3,30 9,43 201,430 951,230 951,-43 0,-59 -48,-107 -107,-107 -34,0 -64,15 -83,39l0 0c-205,203 -344,154 -565,25 -16,-38 -54,-64 -98,-64z"/>
  </g>
  <path class="fil4" d="M1611 3077l1 0 0 0 1 0 1 0 1 0 0 0 1 0 0 0 1 1 0 0 1 0 1 0 0 0 1 0 0 0 1 0 1 0 0 0 1 0 0 0 1 0 1 0 0 1 1 0 0 0 1 0 0 0 1 0 1 0 1 0 1 1 0 0 1 0 0 0 1 0 0 0 1 1 0 0 1 0 0 0 1 0 1 0 0 1 1 0 0 0 1 0 1 0 0 1 1 0 0 0 1 0 0 0 1 1 2 1 1 0 0 0 1 0 0 1 1 0 0 0 1 0 0 1 2 1 0 0 1 0 0 0 1 1 0 0 1 0 0 0 1 1 0 0 1 1 1 0 0 0 1 1 0 0 0 0 1 1 0 0 1 0 0 1 1 0 0 0 1 1 0 0 1 1 0 0 1 0 0 1 0 0 1 0 0 1 0 0 1 1 0 0 1 0 0 0 1 1 0 0 1 1 0 0 0 1 1 0 0 1 1 0 0 1 1 0 0 1 1 0 0 0 0 1 1 0 0 1 0 0 1 1 0 0c9,5 18,10 27,14 143,66 285,102 425,104 140,-2 281,-38 425,-104 9,-4 18,-9 27,-14l0 0 0 -1 0 0 1 -1 0 0 1 -1 0 0 0 0 1 -1 0 0 0 -1 1 0 1 -1 0 0 1 -1 0 0 0 -1 1 0 0 -1 0 0 1 0 0 0 1 -1 0 0 1 -1 0 0 1 0 0 -1 1 0 0 0 0 -1 1 0 0 -1 1 0 0 0 1 -1 0 0 1 0 0 -1 1 0 0 0 1 -1 0 0 1 0 1 -1 0 0 1 -1 0 0 1 0 0 0 1 -1 0 0 1 0 0 0 2 -1 0 -1 1 0 0 0 1 0 0 -1 1 0 0 0 1 0 2 -1 0 -1 1 0 0 0 1 0 0 0 1 -1 1 0 0 0 1 0 0 0 1 -1 0 0 1 0 0 0 1 0 0 0 1 -1 0 0 2 0 0 0 1 0 0 0 1 -1 1 0 0 0 1 0 0 0 1 0 0 0 1 0 1 -1 0 0 1 0 1 0 0 0 1 0 0 0 1 0 1 0 0 0 1 0 0 0 1 0 0 0 1 -1 1 0 1 0 0 0 1 0 0 0 1 0 0 0 1 0c46,0 82,37 82,82l0 1 0 1 0 0 0 1 0 0 0 1 0 0 0 1 0 0 0 1 0 1 0 0 0 1 0 0 0 1 0 0 0 1 0 1 0 0 0 1 0 0 -1 1 0 0 0 0 0 1 0 0 0 1 0 1 0 0 0 1 0 0 -1 1 0 0 0 1 0 0 0 1 0 1 0 0 0 1 0 0 -1 0 0 1 0 0 0 1 0 0 0 1 -1 0 0 1 0 1 0 0 0 1 0 0 -1 1 0 0 0 0 0 1 0 0 -1 1 0 0 0 1 0 0 0 1 -1 0 0 1 0 1 0 0 -1 1 0 0 0 1 0 0 -1 1 0 0 0 0 0 1 -1 1 0 0 0 0 0 1 -1 0 0 1 0 0 -1 1 0 0 0 1 -1 1 0 0 0 0 -1 2 -1 0 -1 2 0 0 -1 2 0 0 -1 1 -1 1 0 0 -1 1c-53,254 -316,381 -577,378 -262,3 -524,-124 -578,-378l-1 -1 0 0 0 -1 -1 -1 0 0 -2 -2 0 0 -1 -2 0 0 -1 -2 0 0 -1 0 0 -1 -1 -1 0 0 0 -1 0 0 -1 -1 0 0 -1 -1 0 0 0 0 0 -1 -1 -1 0 0 0 0 0 -1 0 0 -1 -1 0 0 0 -1 0 0 -1 -1 0 -1 0 0 0 -1 -1 0 0 -1 0 0 0 -1 0 0 -1 -1 0 0 0 0 0 -1 0 0 -1 -1 0 0 0 -1 0 -1 0 0 0 -1 0 0 -1 -1 0 0 0 -1 0 0 0 0 0 -1 0 0 -1 -1 0 -1 0 0 0 -1 0 0 0 -1 0 0 0 -1 -1 0 0 -1 0 -1 0 0 0 -1 0 0 0 0 0 -1 0 0 0 -1 0 0 0 -1 0 -1 -1 0 0 -1 0 0 0 -1 0 0 0 -1 0 -1 0 0 0 -1 0 0 0 -1 0 0 0 -1 0 0 0 -1 0 -1c0,-45 37,-82 82,-82z"/>
  <g id="_2537602951600">
   <path class="fil4" d="M2797 1265c-26,0 -47,-21 -47,-47 0,-25 21,-46 47,-46 0,0 417,-55 650,289 7,8 11,19 11,30 0,26 -21,47 -47,47 -14,0 -27,-7 -36,-17l0 0c0,-1 -1,-2 -2,-3 -189,-253 -576,-253 -576,-253z"/>
   <path class="fil4" d="M1457 1265c25,0 46,-21 46,-47 0,-25 -21,-46 -46,-46 0,0 -417,-55 -650,289 -7,8 -12,19 -12,30 0,26 21,47 47,47 15,0 28,-7 36,-17l0 0c1,-1 2,-2 2,-3 190,-253 577,-253 577,-253z"/>
  </g>
 </g>
</svg>
