<?xml version="1.0" encoding="UTF-8"?>
<!DOCTYPE svg PUBLIC "-//W3C//DTD SVG 1.1//EN" "http://www.w3.org/Graphics/SVG/1.1/DTD/svg11.dtd">
<!-- Creator: CorelDRAW X8 -->
<svg xmlns="http://www.w3.org/2000/svg" xml:space="preserve" width="31.4547mm" height="35.6728mm" version="1.1" style="shape-rendering:geometricPrecision; text-rendering:geometricPrecision; image-rendering:optimizeQuality; fill-rule:evenodd; clip-rule:evenodd"
viewBox="0 0 1222 1386"
 xmlns:xlink="http://www.w3.org/1999/xlink">
 <defs>
  <style type="text/css">
   <![CDATA[
    .fil0 {fill:#2C3D51}
    .fil3 {fill:#422B0D}
    .fil4 {fill:#422B0D}
    .fil1 {fill:#FEC12B}
    .fil2 {fill:white;fill-opacity:0.301961}
   ]]>
  </style>
 </defs>
 <g id="Layer_x0020_1">
  <metadata id="CorelCorpID_0Corel-Layer"/>
  <path class="fil0" d="M0 212l0 28c1,2 2,3 3,5 1,6 4,13 8,18 2,4 5,8 10,12l0 0 0 0c11,10 25,16 41,16l0 0 0 0 1 0c32,1 64,-23 65,-61 1,-37 -25,-60 -53,-64l-2 -1 0 0 0 0 -2 0 0 0c-1,0 -2,0 -2,0l-1 0 -2 0c-17,-1 -35,5 -48,19 -5,5 -9,11 -12,18l-4 7c-1,0 -1,2 -2,3zm127 312c-48,0 -87,39 -87,87 0,49 39,88 87,88 2,0 5,-1 7,-1l0 249c0,94 77,170 170,170l407 0c1,1 2,2 3,3 147,175 106,266 106,266 188,-210 158,-253 199,-275 9,-3 17,-6 25,-10l0 0 0 0c58,-27 98,-86 98,-154l0 -249c45,-3 80,-41 80,-87 0,-45 -35,-83 -80,-87l0 -247c0,-94 -76,-170 -170,-170l-668 0c-93,0 -170,76 -170,170l0 247c-2,0 -5,0 -7,0zm-31 -423c4,23 19,35 36,40 5,1 11,2 16,2 10,0 20,-3 28,-8 18,-10 30,-30 24,-58 -5,-20 -18,-32 -33,-37 -6,-2 -12,-3 -19,-3 -12,0 -24,4 -33,11 -15,10 -24,29 -19,53zm180 -101c24,0 43,19 43,42 0,24 -19,43 -43,43 -23,0 -42,-19 -42,-43 0,-23 19,-42 42,-42zm428 32c6,0 10,5 10,10 0,6 -4,11 -10,11 -5,0 -10,-5 -10,-11 0,-5 5,-10 10,-10zm-54 -4c8,0 14,7 14,14 0,8 -6,15 -14,15 -8,0 -14,-7 -14,-15 0,-7 6,-14 14,-14zm-72 -6c12,0 21,9 21,20 0,12 -9,21 -21,21 -11,0 -20,-9 -20,-21 0,-11 9,-20 20,-20zm-79 -5c14,0 26,12 26,25 0,14 -12,26 -26,26 -14,0 -25,-12 -25,-26 0,-13 11,-25 25,-25zm-99 -8c18,0 33,15 33,33 0,19 -15,33 -33,33 -19,0 -33,-14 -33,-33 0,-18 14,-33 33,-33z"/>
  <rect class="fil1" x="197" y="170" width="881" height="884" rx="149" ry="28"/>
  <path class="fil2" d="M346 170l584 0c82,0 149,67 149,149l0 196c-121,97 -274,155 -441,155 -167,0 -320,-58 -441,-155l0 -196c0,-82 67,-149 149,-149z"/>
  <g id="_2537737253360">
   <path class="fil3" d="M523 455c15,0 28,13 28,29 0,4 -1,8 -2,12 -54,115 -254,61 -254,-12 0,-16 13,-29 28,-29 9,0 17,5 23,11l0 0c54,54 92,41 150,7 5,-10 15,-18 27,-18z"/>
   <path class="fil3" d="M754 455c-16,0 -29,13 -29,29 0,4 1,8 2,12 54,115 254,61 254,-12 0,-16 -12,-29 -28,-29 -9,0 -17,5 -22,11l0 0c-55,54 -92,41 -151,7 -5,-10 -15,-18 -26,-18z"/>
  </g>
  <path class="fil4" d="M500 794l1 0 0 0 0 0 0 0 0 0 0 0 1 0 0 1 0 0 0 0 0 0 0 0 1 0 0 0 0 0 0 0 0 0 0 0 1 0 0 0 0 0 0 0 0 0 0 0 0 0 1 0 0 0 0 0 0 0 0 0 1 0 0 0 0 0 0 0 0 0 0 0 1 0 0 0 0 0 0 0 0 1 0 0 0 0 0 0 1 0 0 0 0 0 0 0 0 0 0 0 1 0 0 0 0 0 0 0 1 0 0 1 0 0 0 0 0 0 0 0 0 0 0 0 1 0 0 0 0 0 0 0 1 1 0 0 0 0 0 0 0 0 0 0 0 0 1 0 0 0 0 0 0 0 0 1 0 0 0 0 0 0 1 0 0 0 0 0 0 0 0 0 0 0 0 0 0 1 0 0 1 0 0 0 0 0 0 0 0 0 0 0 0 0 0 0 1 1 0 0 0 0 0 0 0 0 0 0 0 0 0 0 0 1 1 0 0 0 0 0 0 0 0 0 0 0 0 0 0 0 0 1 0 0c3,1 5,2 8,4 38,17 76,27 113,27 38,0 75,-10 114,-27 2,-2 4,-3 7,-4l0 0 0 -1 0 0 0 0 0 0 0 0 0 0 1 0 0 0 0 0 0 -1 0 0 0 0 0 0 0 0 0 0 1 0 0 0 0 -1 0 0 0 0 0 0 0 0 0 0 1 0 0 0 0 0 0 0 0 -1 0 0 0 0 0 0 0 0 1 0 0 0 0 0 0 0 0 0 0 0 0 -1 0 0 1 0 0 0 0 0 0 0 0 0 0 0 0 0 1 0 0 0 0 -1 0 0 0 0 0 0 1 0 0 0 0 0 0 0 0 0 0 0 1 0 0 -1 0 0 0 0 0 0 1 0 0 0 0 0 0 0 0 0 0 0 0 0 1 0 0 0 0 0 0 0 0 -1 0 0 1 0 0 0 0 0 0 0 0 0 0 0 1 0 0 0 0 0 0 0 0 0 0 0 1 0 0 0 0 0 0 0 0 0 0 0 0 0 1 0 0 0 0 0 0 0 0 0 0 0 1 0 0 0 0 0 0 0 0 0 0 0 1 -1 0 0 0 0 0 0 0 0 0 0 1 0 0 0c12,0 22,10 22,22l0 1 0 0 0 0 0 0 0 0 0 0 0 0 0 1 0 0 0 0 0 0 0 0 0 0 0 0 0 1 0 0 0 0 0 0 0 0 0 0 -1 0 0 1 0 0 0 0 0 0 0 0 0 0 0 0 0 1 0 0 0 0 0 0 0 0 0 0 0 0 0 1 0 0 0 0 0 0 0 0 0 0 0 0 0 1 0 0 0 0 0 0 0 0 0 0 0 0 0 0 -1 1 0 0 0 0 0 0 0 0 0 0 0 0 0 1 0 0 0 0 0 0 0 0 0 0 0 0 0 1 0 0 0 0 0 0 -1 0 0 0 0 0 0 0 0 1 0 0 0 0 0 0 0 0 0 0 0 0 0 1 0 0 -1 0 0 0 0 0 0 0 0 0 0 0 0 1 0 0 -1 0 0 0 0 1 0 0 0 0 0 0 0 0 -1 1c-14,68 -84,102 -154,101 -70,1 -140,-33 -154,-101l0 -1 0 0 -1 0 0 0 0 0 0 -1 0 0 -1 0 0 0 0 -1 0 0 0 0 0 0 0 0 0 0 0 0 0 0 -1 -1 0 0 0 0 0 0 0 0 0 0 0 0 0 -1 0 0 0 0 0 0 0 0 0 0 0 0 -1 0 0 -1 0 0 0 0 0 0 0 0 0 0 0 0 0 -1 0 0 0 0 0 0 0 0 0 0 0 0 0 -1 0 0 0 0 0 0 0 0 -1 0 0 0 0 0 0 -1 0 0 0 0 0 0 0 0 0 0 0 0 0 -1 0 0 0 0 0 0 0 0 0 0 0 0 0 -1 0 0 0 0 0 0 0 0 0 0 0 0 0 -1 0 0 0 0 0 0 0 0 0 0 0 0 0 -1 0 0 0 0 0 0 0 0 0 0 0 0 -1 -1 0 0 0 0 0 0 0 0 0 0 0 0 0 -1c0,-12 10,-22 22,-22z"/>
  <g id="_2537737255184">
   <path class="fil4" d="M817 334c-7,0 -12,-6 -12,-13 0,-7 5,-12 12,-12 0,0 111,-15 174,77 2,2 3,5 3,8 0,7 -6,13 -13,13 -4,0 -7,-2 -9,-5l0 0c-1,0 -1,0 -1,-1 -51,-67 -154,-67 -154,-67z"/>
   <path class="fil4" d="M459 334c7,0 13,-6 13,-13 0,-7 -6,-12 -13,-12 0,0 -111,-15 -173,77 -2,2 -3,5 -3,8 0,7 5,13 12,13 4,0 7,-2 10,-5l0 0c0,0 0,0 0,-1 51,-67 154,-67 154,-67z"/>
  </g>
 </g>
</svg>
