<?xml version="1.0" encoding="UTF-8"?>
<!DOCTYPE svg PUBLIC "-//W3C//DTD SVG 1.1//EN" "http://www.w3.org/Graphics/SVG/1.1/DTD/svg11.dtd">
<!-- Creator: CorelDRAW X8 -->
<svg xmlns="http://www.w3.org/2000/svg" xml:space="preserve" width="29.3356mm" height="33.8834mm" version="1.1" style="shape-rendering:geometricPrecision; text-rendering:geometricPrecision; image-rendering:optimizeQuality; fill-rule:evenodd; clip-rule:evenodd"
viewBox="0 0 3640 4204"
 xmlns:xlink="http://www.w3.org/1999/xlink">
 <defs>
  <style type="text/css">
   <![CDATA[
    .fil3 {fill:#2A1304}
    .fil0 {fill:#2C3D51}
    .fil1 {fill:#FFBD2D}
    .fil4 {fill:white}
    .fil2 {fill:white;fill-opacity:0.301961}
   ]]>
  </style>
      <mask id="id0">
  <radialGradient id="id1" gradientUnits="userSpaceOnUse" cx="1096.29" cy="1266.2" r="169.052" fx="1096.29" fy="1266.2">
   <stop offset="0" style="stop-opacity:1; stop-color:white"/>
   <stop offset="0.74902" style="stop-opacity:-127.502; stop-color:white"/>
   <stop offset="1" style="stop-opacity:0; stop-color:white"/>
  </radialGradient>
       <rect style="fill:url(#id1)" x="916" y="1086" width="360" height="360"/>
      </mask>
      <mask id="id2">
  <radialGradient id="id3" gradientUnits="userSpaceOnUse" cx="2534.27" cy="1266.2" r="169.052" fx="2534.27" fy="1266.2">
   <stop offset="0" style="stop-opacity:1; stop-color:white"/>
   <stop offset="0.74902" style="stop-opacity:-127.502; stop-color:white"/>
   <stop offset="1" style="stop-opacity:0; stop-color:white"/>
  </radialGradient>
       <rect style="fill:url(#id3)" x="2354" y="1086" width="360" height="360"/>
      </mask>
 </defs>
 <g id="Layer_x0020_1">
  <metadata id="CorelCorpID_0Corel-Layer"/>
  <g id="_1262233488048">
   <path class="fil0" d="M191 2225c-111,-41 -191,-148 -191,-274 0,-137 95,-252 222,-283 168,-724 817,-1264 1592,-1264 774,0 1422,538 1590,1261 134,26 236,144 236,286 0,130 -86,241 -204,278 -35,297 -150,570 -322,796l0 0c0,0 160,46 -12,1179 0,0 -94,-458 -829,-599l0 0c-146,42 -300,65 -459,65 -839,0 -1530,-632 -1623,-1445z"/>
   <circle class="fil1" cx="1814" cy="2037" r="1453"/>
   <path class="fil2" d="M1814 585c624,0 1156,393 1361,946 -360,408 -838,656 -1361,656 -524,0 -1001,-248 -1362,-656 206,-553 738,-946 1362,-946z"/>
   <path class="fil0" d="M442 462c118,0 213,95 213,212 0,117 -95,213 -213,213 -117,0 -212,-96 -212,-213 0,-117 95,-212 212,-212zm2036 -261c16,0 29,13 29,29 0,16 -13,29 -29,29 -16,0 -29,-13 -29,-29 0,-16 13,-29 29,-29zm-164 -75c24,0 43,19 43,42 0,24 -19,43 -43,43 -23,0 -42,-19 -42,-43 0,-23 19,-42 42,-42zm-205 -68c35,0 63,28 63,63 0,35 -28,63 -63,63 -35,0 -63,-28 -63,-63 0,-35 28,-63 63,-63zm-236 -50c50,0 90,41 90,90 0,50 -40,91 -90,91 -50,0 -90,-41 -90,-91 0,-49 40,-90 90,-90zm-303 -8c64,0 116,52 116,117 0,65 -52,117 -116,117 -65,0 -117,-52 -117,-117 0,-65 52,-117 117,-117zm-364 39c86,0 156,70 156,156 0,86 -70,156 -156,156 -86,0 -156,-70 -156,-156 0,-86 70,-156 156,-156zm-367 144c100,0 181,80 181,180 0,100 -81,181 -181,181 -100,0 -180,-81 -180,-181 0,-100 80,-180 180,-180z"/>
   <g>
    <g>
     <circle class="fil3" cx="1095" cy="1386" r="341"/>
     <path class="fil4" style="mask:url(#id0)" d="M1096 1097c94,0 169,76 169,169 0,94 -75,169 -169,169 -93,0 -169,-75 -169,-169 0,-93 76,-169 169,-169z"/>
    </g>
    <g>
     <circle class="fil3" cx="2533" cy="1386" r="341"/>
     <path class="fil4" style="mask:url(#id2)" d="M2534 1097c94,0 169,76 169,169 0,94 -75,169 -169,169 -93,0 -169,-75 -169,-169 0,-93 76,-169 169,-169z"/>
    </g>
   </g>
  </g>
 </g>
</svg>
