<?xml version="1.0" encoding="UTF-8"?>
<!DOCTYPE svg PUBLIC "-//W3C//DTD SVG 1.1//EN" "http://www.w3.org/Graphics/SVG/1.1/DTD/svg11.dtd">
<!-- Creator: CorelDRAW X8 -->
<svg xmlns="http://www.w3.org/2000/svg" xml:space="preserve" width="31.564mm" height="35.6728mm" version="1.1" style="shape-rendering:geometricPrecision; text-rendering:geometricPrecision; image-rendering:optimizeQuality; fill-rule:evenodd; clip-rule:evenodd"
viewBox="0 0 1284 1451"
 xmlns:xlink="http://www.w3.org/1999/xlink">
 <defs>
  <style type="text/css">
   <![CDATA[
    .fil3 {fill:#2A1304}
    .fil0 {fill:#2C3D51}
    .fil1 {fill:#FEC12B}
    .fil4 {fill:white}
    .fil2 {fill:white;fill-opacity:0.301961}
   ]]>
  </style>
      <mask id="id0">
  <radialGradient id="id1" gradientUnits="userSpaceOnUse" cx="432.911" cy="400.791" r="55.4361" fx="432.911" fy="400.791">
   <stop offset="0" style="stop-opacity:1; stop-color:white"/>
   <stop offset="0.74902" style="stop-opacity:-127.502; stop-color:white"/>
   <stop offset="1" style="stop-opacity:0; stop-color:white"/>
  </radialGradient>
       <rect style="fill:url(#id1)" x="374" y="342" width="118" height="118"/>
      </mask>
      <mask id="id2">
  <radialGradient id="id3" gradientUnits="userSpaceOnUse" cx="904.456" cy="400.791" r="55.4361" fx="904.456" fy="400.791">
   <stop offset="0" style="stop-opacity:1; stop-color:white"/>
   <stop offset="0.74902" style="stop-opacity:-127.502; stop-color:white"/>
   <stop offset="1" style="stop-opacity:0; stop-color:white"/>
  </radialGradient>
       <rect style="fill:url(#id3)" x="845" y="342" width="118" height="118"/>
      </mask>
 </defs>
 <g id="Layer_x0020_1">
  <metadata id="CorelCorpID_0Corel-Layer"/>
  <g id="_1262243238576">
   <path class="fil0" d="M0 222l0 29c1,2 2,4 3,5 2,7 5,14 9,20 2,3 5,7 10,12l0 0 0 0c12,10 26,17 43,17l0 0 0 0 1 0c34,1 67,-24 68,-64 1,-38 -26,-62 -55,-68l-2 0 0 0 -1 0 -2 0 0 0c-1,0 -2,0 -2,-1l-1 0 -1 0c-19,0 -37,6 -51,21 -5,5 -9,11 -13,18l-4 8c-1,0 -1,2 -2,3zm137 327c-50,0 -91,41 -91,92 0,50 41,91 91,91 1,0 2,0 3,0l0 260c0,98 81,178 179,178l426 0c1,1 1,2 2,3 154,183 112,278 112,278 196,-220 165,-264 208,-288 9,-3 18,-6 27,-10l0 0 0 0c60,-29 102,-90 102,-161l0 -260c49,-2 88,-42 88,-91 0,-50 -39,-90 -88,-91l0 -260c0,-98 -80,-178 -178,-178l-699 0c-98,0 -179,80 -179,178l0 260c-1,-1 -2,-1 -3,-1zm-37 -443c4,23 20,37 39,41 5,2 10,3 16,3 11,0 21,-4 29,-9 19,-10 32,-31 25,-61 -5,-20 -18,-33 -34,-38 -6,-2 -13,-4 -20,-4 -13,0 -25,5 -34,12 -16,11 -26,30 -21,56zm189 -106c25,0 45,20 45,44 0,25 -20,45 -45,45 -24,0 -44,-20 -44,-45 0,-24 20,-44 44,-44zm448 34c6,0 11,5 11,10 0,6 -5,11 -11,11 -6,0 -10,-5 -10,-11 0,-5 4,-10 10,-10zm-56 -5c8,0 15,7 15,15 0,9 -7,15 -15,15 -9,0 -15,-6 -15,-15 0,-8 6,-15 15,-15zm-75 -6c11,0 21,9 21,21 0,12 -10,22 -21,22 -12,0 -22,-10 -22,-22 0,-12 10,-21 22,-21zm-83 -5c14,0 26,12 26,26 0,15 -12,27 -26,27 -15,0 -27,-12 -27,-27 0,-14 12,-26 27,-26zm-105 -8c19,0 35,15 35,34 0,20 -16,35 -35,35 -19,0 -34,-15 -34,-35 0,-19 15,-34 34,-34z"/>
   <rect class="fil1" x="207" y="178" width="923" height="925" rx="156" ry="29"/>
   <path class="fil2" d="M363 178l611 0c85,0 156,70 156,156l0 205c-127,102 -287,163 -462,163 -175,0 -335,-61 -461,-163l0 -205c0,-86 70,-156 156,-156z"/>
   <g>
    <g>
     <circle class="fil3" cx="432" cy="440" r="112"/>
     <path class="fil4" style="mask:url(#id0)" d="M433 345c31,0 55,25 55,56 0,30 -24,55 -55,55 -31,0 -56,-25 -56,-55 0,-31 25,-56 56,-56z"/>
    </g>
    <g>
     <circle class="fil3" cx="904" cy="440" r="112"/>
     <path class="fil4" style="mask:url(#id2)" d="M904 345c31,0 56,25 56,56 0,30 -25,55 -56,55 -30,0 -55,-25 -55,-55 0,-31 25,-56 55,-56z"/>
    </g>
   </g>
  </g>
 </g>
</svg>
