<?xml version="1.0" encoding="UTF-8"?>
<!DOCTYPE svg PUBLIC "-//W3C//DTD SVG 1.1//EN" "http://www.w3.org/Graphics/SVG/1.1/DTD/svg11.dtd">
<!-- Creator: CorelDRAW X8 -->
<svg xmlns="http://www.w3.org/2000/svg" xml:space="preserve" width="31.564mm" height="37.1317mm" version="1.1" style="shape-rendering:geometricPrecision; text-rendering:geometricPrecision; image-rendering:optimizeQuality; fill-rule:evenodd; clip-rule:evenodd"
viewBox="0 0 359 423"
 xmlns:xlink="http://www.w3.org/1999/xlink">
 <defs>
  <style type="text/css">
   <![CDATA[
    .fil8 {fill:black}
    .fil9 {fill:#201609}
    .fil0 {fill:#2C3D51}
    .fil7 {fill:#672604}
    .fil4 {fill:#6F4104}
    .fil1 {fill:#FEC12B}
    .fil10 {fill:#FF6600}
    .fil6 {fill:white}
    .fil5 {fill:white;fill-opacity:0.168627}
    .fil2 {fill:white;fill-opacity:0.301961}
    .fil3 {fill:#3C0404;fill-opacity:0.450980}
   ]]>
  </style>
      <mask id="id0">
  <radialGradient id="id1" gradientUnits="userSpaceOnUse" cx="111.99" cy="159.18" r="0" fx="111.99" fy="159.18">
   <stop offset="0" style="stop-opacity:1; stop-color:white"/>
   <stop offset="1" style="stop-opacity:0; stop-color:white"/>
  </radialGradient>
       <rect style="fill:url(#id1)" x="111" y="158" width="12.7077" height="12.7077"/>
      </mask>
      <mask id="id2">
  <radialGradient id="id3" gradientUnits="userSpaceOnUse" cx="245.493" cy="159.18" r="0" fx="245.493" fy="159.18">
   <stop offset="0" style="stop-opacity:1; stop-color:white"/>
   <stop offset="1" style="stop-opacity:0; stop-color:white"/>
  </radialGradient>
       <rect style="fill:url(#id3)" x="244" y="158" width="12.7077" height="12.7077"/>
      </mask>
 </defs>
 <g id="Layer_x0020_1">
  <metadata id="CorelCorpID_0Corel-Layer"/>
  <g id="_2537607721440">
   <path class="fil0" d="M0 79l0 8c0,0 1,1 1,1 0,2 1,4 2,6 1,1 2,2 3,3l0 0 0 0c3,3 8,5 12,5l0 0 0 0 0 0c10,0 19,-7 19,-18 1,-11 -7,-17 -15,-19l0 0 -1 0 0 0 0 0 0 0c-1,0 -1,0 -1,0l0 0 -1 0c-5,0 -10,1 -14,5 -1,2 -2,4 -3,6l-2 2c0,0 0,0 0,1zm38 91c-14,0 -25,12 -25,26 0,14 11,25 25,25 1,0 1,0 1,0l0 73c0,27 23,50 50,50l119 0c1,0 1,1 1,1 43,51 31,78 31,78 55,-62 46,-74 58,-81 3,-1 6,-2 8,-3l0 0 0 0c17,-8 29,-25 29,-45l0 -73c13,0 24,-11 24,-25 0,-14 -11,-25 -24,-26l0 -72c0,-28 -23,-50 -50,-50l-196 0c-27,0 -50,22 -50,50l0 72c0,0 0,0 -1,0zm-10 -124c1,7 6,10 11,12 1,0 3,0 4,0 3,0 6,0 9,-2 5,-3 8,-9 6,-17 -1,-6 -5,-9 -9,-11 -2,0 -4,-1 -6,-1 -3,0 -7,2 -9,4 -5,3 -7,8 -6,15zm53 -29c7,0 12,5 12,12 0,7 -5,12 -12,12 -7,0 -12,-5 -12,-12 0,-7 5,-12 12,-12zm125 9c2,0 3,1 3,3 0,2 -1,3 -3,3 -1,0 -3,-1 -3,-3 0,-2 2,-3 3,-3zm-16 -1c3,0 5,2 5,4 0,2 -2,4 -5,4 -2,0 -4,-2 -4,-4 0,-2 2,-4 4,-4zm-21 -2c4,0 6,3 6,6 0,3 -2,6 -6,6 -3,0 -6,-3 -6,-6 0,-3 3,-6 6,-6zm-23 -1c4,0 8,3 8,7 0,4 -4,7 -8,7 -4,0 -7,-3 -7,-7 0,-4 3,-7 7,-7zm-29 -3c5,0 10,5 10,10 0,5 -5,10 -10,10 -5,0 -10,-5 -10,-10 0,-5 5,-10 10,-10z"/>
   <rect class="fil1" x="58" y="66" width="258" height="259" rx="44" ry="8"/>
   <path class="fil2" d="M101 66l171 0c24,0 44,20 44,44l0 57c-35,29 -80,46 -129,46 -49,0 -94,-17 -129,-46l0 -57c0,-24 19,-44 43,-44z"/>
   <path class="fil3" d="M154 125c0,0 23,-8 59,0 -20,-2 -59,0 -59,0z"/>
   <path class="fil3" d="M140 108c0,0 34,-8 87,0 -29,-1 -87,0 -87,0z"/>
   <path class="fil4" d="M245 85c0,0 10,17 33,28 23,12 19,10 19,10 0,0 5,3 3,15 -2,12 16,70 16,70 7,-8 7,-37 19,-38 0,0 11,-59 4,-80 -8,-20 -29,-35 -29,-35 0,0 -43,-64 -107,-54 -65,10 -57,18 -57,18l0 -18c0,0 -24,21 -26,36l0 0c2,1 4,1 4,1 0,0 14,19 17,28l4 0c0,0 12,10 42,12 31,2 61,32 61,32 0,0 6,-2 -3,-25z"/>
   <path class="fil4" d="M39 170c11,1 19,45 19,45 0,0 6,-14 6,-34 0,-20 0,-20 0,-20 0,0 9,-26 26,-47 17,-21 15,-32 15,-32 0,0 4,20 2,28 -2,7 16,-15 18,-28 2,-14 2,-14 2,-14 0,0 5,17 6,24 1,6 8,-13 8,-26 0,-2 -14,-24 -17,-28 -20,-10 -65,16 -75,30 -3,4 -7,10 -8,19 -5,21 -3,52 -2,66 0,17 0,18 0,17z"/>
   <path class="fil5" d="M207 49c0,0 -65,2 -46,-20 19,-23 38,-20 38,-20 0,0 37,-16 91,31 55,48 12,71 12,71 0,0 -41,-18 -48,-33 -7,-14 -24,-11 -24,-11 0,0 11,22 4,21 -7,0 -20,-13 -20,-13 0,0 -11,-10 -7,-26z"/>
   <path class="fil5" d="M121 62c0,0 7,-20 -11,-22 -19,-1 -43,22 -43,22 0,0 -27,30 -21,57 5,27 6,28 6,28 0,0 16,-20 27,-36 11,-16 26,-40 26,-40 0,0 6,3 6,12 -1,10 10,-21 10,-21z"/>
   <g>
    <g>
     <path class="fil6" d="M123 150c19,0 34,15 34,29 0,13 -15,20 -34,20 -19,0 -34,-9 -34,-23 0,-14 15,-26 34,-26z"/>
     <circle class="fil7" cx="123" cy="173" r="22"/>
     <circle class="fil8" cx="124" cy="173" r="11"/>
     <path class="fil6" style="mask:url(#id0)" d="M117 159c3,0 5,3 5,5 0,3 -2,6 -5,6 -3,0 -5,-3 -5,-6 0,-2 2,-5 5,-5z"/>
    </g>
    <g>
     <path class="fil6" d="M245 150c-19,0 -34,15 -34,29 0,13 15,20 34,20 18,0 34,-9 34,-23 0,-14 -16,-26 -34,-26z"/>
     <circle class="fil7" cx="245" cy="173" r="22"/>
     <circle class="fil8" cx="244" cy="173" r="11"/>
     <path class="fil6" style="mask:url(#id2)" d="M251 159c-3,0 -6,3 -6,5 0,3 3,6 6,6 3,0 5,-3 5,-6 0,-2 -2,-5 -5,-5z"/>
    </g>
   </g>
   <path class="fil8" d="M123 150c17,0 31,7 36,20 7,-3 15,-6 24,-6 9,0 18,3 24,6 5,-13 18,-20 35,-20 17,0 33,8 37,23 10,3 52,-2 56,-7l0 4c0,0 -31,8 -55,8 0,1 0,2 0,3 0,20 -16,36 -37,36 -21,0 -37,-16 -37,-36 0,-1 0,-3 0,-4 -7,-3 -14,-5 -23,-5 -8,0 -15,2 -22,5 0,1 0,3 0,4 0,20 -16,36 -37,36 -20,0 -37,-16 -37,-36 0,-1 0,-2 0,-3 -25,0 -48,-8 -48,-8l0 -4c5,4 39,10 49,7 4,-15 18,-23 35,-23zm119 3c18,0 34,11 34,28 0,18 -15,32 -33,32 -19,0 -33,-14 -33,-32 0,-17 14,-28 32,-28zm-119 0c19,0 35,11 35,28 0,18 -15,32 -34,32 -18,0 -33,-14 -33,-32 0,-17 14,-28 32,-28z"/>
   <path class="fil9" d="M221 273c-2,10 -18,19 -38,19 -19,0 -35,-9 -37,-19l75 0z"/>
   <g>
    <path class="fil10" d="M148 263c-8,6 -14,25 -14,25 0,0 11,-12 14,-25z"/>
    <path class="fil10" d="M218 263c8,6 14,25 14,25 0,0 -11,-12 -14,-25z"/>
   </g>
   <g>
    <path class="fil4" d="M143 140c1,0 2,1 2,3 0,1 -1,2 -2,2 0,0 -1,0 -1,0 -13,-2 -45,6 -45,6 0,0 4,-12 46,-11z"/>
    <path class="fil4" d="M223 140c-1,0 -2,1 -2,3 0,1 1,2 2,2 1,0 1,0 1,0 13,-2 45,6 45,6 0,0 -4,-12 -46,-11z"/>
   </g>
   <path class="fil0" d="M0 79l0 8c0,0 1,1 1,1 0,2 1,4 2,6 1,1 2,2 3,3l0 0 0 0c3,3 8,5 12,5l0 0 0 0 0 0c10,0 19,-7 19,-18 1,-11 -7,-17 -15,-19l0 0 -1 0 0 0 0 0 0 0c-1,0 -1,0 -1,0l0 0 -1 0c-5,0 -10,1 -14,5 -1,2 -2,4 -3,6l-2 2c0,0 0,0 0,1zm28 -33c1,7 6,10 11,12 1,0 3,0 4,0 3,0 6,0 9,-2 5,-3 8,-9 6,-17 -1,-6 -5,-9 -9,-11 -2,0 -4,-1 -6,-1 -3,0 -7,2 -9,4 -5,3 -7,8 -6,15zm53 -29c7,0 12,5 12,12 0,7 -5,12 -12,12 -7,0 -12,-5 -12,-12 0,-7 5,-12 12,-12zm125 9c2,0 3,1 3,3 0,2 -1,3 -3,3 -1,0 -3,-1 -3,-3 0,-2 2,-3 3,-3zm-16 -1c3,0 5,2 5,4 0,2 -2,4 -5,4 -2,0 -4,-2 -4,-4 0,-2 2,-4 4,-4zm-21 -2c4,0 6,3 6,6 0,3 -2,6 -6,6 -3,0 -6,-3 -6,-6 0,-3 3,-6 6,-6zm-23 -1c4,0 8,3 8,7 0,4 -4,7 -8,7 -4,0 -7,-3 -7,-7 0,-4 3,-7 7,-7zm-29 -3c5,0 10,5 10,10 0,5 -5,10 -10,10 -5,0 -10,-5 -10,-10 0,-5 5,-10 10,-10z"/>
  </g>
 </g>
</svg>
