<?xml version="1.0" encoding="UTF-8"?>
<!DOCTYPE svg PUBLIC "-//W3C//DTD SVG 1.1//EN" "http://www.w3.org/Graphics/SVG/1.1/DTD/svg11.dtd">
<!-- Creator: CorelDRAW X8 -->
<svg xmlns="http://www.w3.org/2000/svg" xml:space="preserve" width="29.3356mm" height="34.6998mm" version="1.1" style="shape-rendering:geometricPrecision; text-rendering:geometricPrecision; image-rendering:optimizeQuality; fill-rule:evenodd; clip-rule:evenodd"
viewBox="0 0 489 578"
 xmlns:xlink="http://www.w3.org/1999/xlink">
 <defs>
  <style type="text/css">
   <![CDATA[
    .fil7 {fill:black}
    .fil8 {fill:#201609}
    .fil0 {fill:#2C3D51}
    .fil6 {fill:#672604}
    .fil3 {fill:#6F4104}
    .fil9 {fill:#FF6600}
    .fil1 {fill:#FFBD2D}
    .fil5 {fill:white}
    .fil4 {fill:white;fill-opacity:0.168627}
    .fil2 {fill:white;fill-opacity:0.301961}
   ]]>
  </style>
      <mask id="id0">
  <radialGradient id="id1" gradientUnits="userSpaceOnUse" cx="138.191" cy="236.319" r="0" fx="138.191" fy="236.319">
   <stop offset="0" style="stop-opacity:1; stop-color:white"/>
   <stop offset="1" style="stop-opacity:0; stop-color:white"/>
  </radialGradient>
       <rect style="fill:url(#id1)" x="137" y="235" width="18.6" height="18.6"/>
      </mask>
      <mask id="id2">
  <radialGradient id="id3" gradientUnits="userSpaceOnUse" cx="333.597" cy="236.319" r="0" fx="333.597" fy="236.319">
   <stop offset="0" style="stop-opacity:1; stop-color:white"/>
   <stop offset="1" style="stop-opacity:0; stop-color:white"/>
  </radialGradient>
       <rect style="fill:url(#id3)" x="332" y="235" width="18.6" height="18.6"/>
      </mask>
 </defs>
 <g id="Layer_x0020_1">
  <metadata id="CorelCorpID_0Corel-Layer"/>
  <g id="_2537691826288">
   <path class="fil0" d="M26 312c-15,-5 -26,-20 -26,-36 0,-19 13,-34 30,-38 22,-98 109,-170 214,-170 103,0 190,72 213,169 18,4 32,20 32,39 0,17 -12,32 -28,37 -4,40 -20,76 -43,107l0 0c0,0 22,6 -1,158 0,0 -13,-61 -112,-80l0 0c-19,5 -40,8 -61,8 -113,0 -206,-84 -218,-194z"/>
   <circle class="fil1" cx="244" cy="287" r="195"/>
   <path class="fil2" d="M244 92c83,0 155,53 182,127 -48,55 -112,88 -182,88 -71,0 -135,-33 -183,-88 27,-74 99,-127 183,-127z"/>
   <path class="fil3" d="M194 154c0,0 33,-11 85,0 -28,-2 -85,0 -85,0z"/>
   <path class="fil3" d="M173 137c0,0 49,-12 127,0 -42,-2 -127,0 -127,0z"/>
   <path class="fil3" d="M326 124c0,0 15,25 49,42 34,17 27,14 27,14 0,0 8,4 5,22 -3,17 20,103 20,103 0,0 7,-7 11,-28 5,-22 19,-43 19,-43 0,0 8,-56 -3,-86 -11,-30 -32,-67 -32,-67 0,0 -63,-94 -157,-80 -95,15 -83,27 -83,27l0 -27c0,0 -35,31 -38,53l0 0c3,1 5,2 5,2 0,0 14,13 20,28l0 0c0,0 28,27 73,30 46,3 89,47 89,47 0,0 9,-2 -5,-37z"/>
   <path class="fil3" d="M53 315c0,0 9,-20 9,-50 0,-29 0,-30 0,-30 0,0 13,-38 38,-68 25,-30 22,-47 22,-47 0,0 6,30 3,41 -3,11 24,-23 27,-42 3,-19 3,-19 3,-19 0,0 6,24 8,34 1,11 10,-27 7,-44 -3,-17 -21,-34 -21,-34 0,0 -36,-19 -76,19 -39,39 -45,75 -45,75 -7,42 -3,51 2,88 7,51 25,36 23,77z"/>
   <path class="fil4" d="M272 72c0,0 -96,3 -68,-30 28,-34 55,-28 55,-28 0,0 55,-25 134,45 79,69 17,103 17,103 0,0 -59,-26 -70,-47 -10,-21 -35,-17 -35,-17 0,0 16,33 6,32 -10,-2 -29,-20 -29,-20 0,0 -16,-15 -10,-38z"/>
   <path class="fil4" d="M146 91c0,0 9,-30 -17,-32 -27,-3 -63,32 -63,32 0,0 -39,44 -31,84 8,39 10,40 10,40 0,0 22,-29 38,-53 16,-24 39,-58 39,-58 0,0 9,4 8,18 0,14 16,-31 16,-31z"/>
   <g>
    <g>
     <path class="fil5" d="M155 223c27,0 49,22 49,42 0,20 -22,30 -49,30 -28,0 -50,-14 -50,-34 0,-20 22,-38 50,-38z"/>
     <circle class="fil6" cx="154" cy="257" r="32"/>
     <circle class="fil7" cx="156" cy="257" r="16"/>
     <path class="fil5" style="mask:url(#id0)" d="M146 236c4,0 7,4 7,8 0,4 -3,8 -7,8 -4,0 -8,-4 -8,-8 0,-4 4,-8 8,-8z"/>
    </g>
    <g>
     <path class="fil5" d="M332 223c-27,0 -49,22 -49,42 0,20 22,30 49,30 28,0 50,-14 50,-34 0,-20 -22,-38 -50,-38z"/>
     <circle class="fil6" cx="333" cy="257" r="32"/>
     <circle class="fil7" cx="331" cy="257" r="16"/>
     <path class="fil5" style="mask:url(#id2)" d="M341 236c-4,0 -7,4 -7,8 0,4 3,8 7,8 4,0 8,-4 8,-8 0,-4 -4,-8 -8,-8z"/>
    </g>
   </g>
   <path class="fil7" d="M162 219c24,0 46,11 53,30 10,-5 23,-8 36,-8 13,0 25,3 35,8 7,-19 26,-30 50,-30 26,0 49,13 55,34 0,0 66,-21 66,-21l0 5c0,0 -65,23 -65,23 0,2 0,3 0,5 0,29 -24,52 -54,52 -30,0 -55,-23 -55,-52 0,-2 0,-4 1,-6 -10,-5 -21,-8 -33,-8 -12,0 -24,3 -33,8 0,2 0,4 0,6 0,29 -24,52 -54,52 -30,0 -55,-23 -55,-52 0,-2 0,-3 1,-5 -49,-13 -80,-22 -80,-22l-1 -9c0,0 82,24 82,24 5,-21 26,-34 51,-34zm174 5c27,0 51,16 51,41 0,26 -22,47 -49,47 -27,0 -49,-21 -49,-47 0,-25 20,-41 47,-41zm-174 0c27,0 51,16 51,41 0,26 -22,47 -49,47 -27,0 -49,-21 -49,-47 0,-25 21,-41 47,-41z"/>
   <g>
    <path class="fil8" d="M298 399c-3,16 -26,28 -54,28 -29,0 -52,-12 -55,-28l109 0z"/>
    <g>
     <path class="fil9" d="M192 384c-12,10 -20,38 -20,38 0,0 15,-17 20,-38z"/>
     <path class="fil9" d="M295 384c12,10 20,38 20,38 0,0 -15,-17 -20,-38z"/>
    </g>
   </g>
   <g>
    <path class="fil3" d="M177 195c2,0 4,2 4,4 0,2 -2,3 -4,3 0,0 -1,0 -1,0 -18,-3 -65,9 -65,9 0,0 5,-18 66,-16z"/>
    <path class="fil3" d="M295 195c-2,0 -3,2 -3,4 0,2 1,3 3,3 1,0 1,0 2,0 18,-3 65,9 65,9 0,0 -6,-18 -67,-16z"/>
   </g>
   <path class="fil0" d="M59 76c16,0 29,12 29,28 0,16 -13,29 -29,29 -15,0 -28,-13 -28,-29 0,-16 13,-28 28,-28zm274 -35c2,0 4,1 4,3 0,3 -2,4 -4,4 -2,0 -4,-1 -4,-4 0,-2 2,-3 4,-3zm-22 -11c3,0 5,3 5,6 0,3 -2,6 -5,6 -3,0 -6,-3 -6,-6 0,-3 3,-6 6,-6zm-28 -9c5,0 9,4 9,9 0,5 -4,8 -9,8 -4,0 -8,-3 -8,-8 0,-5 4,-9 8,-9zm-31 -6c6,0 12,5 12,12 0,7 -6,12 -12,12 -7,0 -13,-5 -13,-12 0,-7 6,-12 13,-12zm-41 -1c8,0 15,7 15,15 0,9 -7,16 -15,16 -9,0 -16,-7 -16,-16 0,-8 7,-15 16,-15zm-49 5c12,0 21,9 21,21 0,11 -9,21 -21,21 -12,0 -21,-10 -21,-21 0,-12 9,-21 21,-21zm-49 19c13,0 24,11 24,24 0,14 -11,25 -24,25 -14,0 -25,-11 -25,-25 0,-13 11,-24 25,-24z"/>
  </g>
 </g>
</svg>
