<?xml version="1.0" encoding="UTF-8"?>
<!DOCTYPE svg PUBLIC "-//W3C//DTD SVG 1.1//EN" "http://www.w3.org/Graphics/SVG/1.1/DTD/svg11.dtd">
<!-- Creator: CorelDRAW X8 -->
<svg xmlns="http://www.w3.org/2000/svg" xml:space="preserve" width="35.9189mm" height="39.4603mm" version="1.1" style="shape-rendering:geometricPrecision; text-rendering:geometricPrecision; image-rendering:optimizeQuality; fill-rule:evenodd; clip-rule:evenodd"
viewBox="0 0 1149 1262"
 xmlns:xlink="http://www.w3.org/1999/xlink">
 <defs>
  <style type="text/css">
   <![CDATA[
    .str1 {stroke:#333333;stroke-width:15.9879}
    .str0 {stroke:#333333;stroke-width:15.9879}
    .fil7 {fill:none}
    .fil4 {fill:black}
    .fil3 {fill:#21302B}
    .fil0 {fill:#2C3D51}
    .fil5 {fill:#DF8E29}
    .fil1 {fill:#FEC12B}
    .fil6 {fill:white;fill-opacity:0.250980}
    .fil2 {fill:white;fill-opacity:0.301961}
   ]]>
  </style>
 </defs>
 <g id="Layer_x0020_1">
  <metadata id="CorelCorpID_0Corel-Layer"/>
  <g id="_2537611336016">
   <g>
    <path class="fil0" d="M139 174l0 24c1,1 2,2 2,3 2,6 4,11 7,16 2,3 5,6 9,9l0 0 0 0c9,8 20,13 33,14l0 0 0 0 1 0c27,0 52,-20 53,-51 1,-30 -20,-49 -43,-53l-1 0 0 0 -1 0 -1 0 -1 0c0,0 -1,0 -1,0l-1 0 -1 -1c-14,0 -29,5 -40,16 -4,5 -7,9 -10,15l-3 6c-1,0 -1,2 -2,2zm108 258c-40,0 -72,32 -72,72 0,39 32,71 72,71 1,0 2,0 3,0l0 204c0,78 63,141 140,141l335 0c0,0 1,1 2,2 121,144 87,219 87,219 154,-173 130,-208 164,-227 7,-2 14,-5 21,-8l0 0 0 0c47,-22 80,-71 80,-127l0 -204c39,-1 70,-33 70,-71 0,-39 -31,-71 -70,-72l0 -204c0,-77 -63,-140 -140,-140l-549 0c-77,0 -140,63 -140,140l0 204c-1,0 -2,0 -3,0zm-29 -348c3,18 16,28 30,32 4,1 9,2 13,2 9,0 17,-3 23,-7 15,-8 25,-25 19,-48 -3,-16 -14,-26 -26,-30 -5,-2 -10,-3 -16,-3 -10,0 -19,4 -27,9 -12,9 -20,24 -16,45zm149 -84c19,0 35,16 35,35 0,19 -16,35 -35,35 -20,0 -35,-16 -35,-35 0,-19 15,-35 35,-35zm352 27c4,0 8,3 8,8 0,5 -4,8 -8,8 -5,0 -9,-3 -9,-8 0,-5 4,-8 9,-8zm-45 -4c7,0 12,5 12,12 0,6 -5,12 -12,12 -6,0 -12,-6 -12,-12 0,-7 6,-12 12,-12zm-59 -5c10,0 17,8 17,17 0,9 -7,17 -17,17 -9,0 -17,-8 -17,-17 0,-9 8,-17 17,-17zm-65 -4c12,0 21,9 21,21 0,11 -9,21 -21,21 -11,0 -21,-10 -21,-21 0,-12 10,-21 21,-21zm-82 -6c15,0 27,12 27,27 0,15 -12,27 -27,27 -15,0 -27,-12 -27,-27 0,-15 12,-27 27,-27z"/>
    <rect class="fil1" x="302" y="140" width="725" height="727" rx="123" ry="23"/>
    <path class="fil2" d="M424 140l480 0c68,0 123,55 123,123l0 161c-99,80 -225,128 -363,128 -137,0 -263,-48 -362,-128l0 -161c0,-68 55,-123 122,-123z"/>
    <ellipse class="fil3" cx="534" cy="422" rx="56" ry="68"/>
    <ellipse class="fil3" cx="845" cy="453" rx="56" ry="68"/>
    <path class="fil4" d="M632 288c-61,-19 -123,-47 -201,-1 -10,6 -27,-11 -22,-22 25,-58 174,-56 221,-31 38,20 25,60 2,54z"/>
    <path class="fil4" d="M769 397c62,-18 124,-46 201,0 11,6 27,-11 22,-22 -25,-58 -174,-56 -221,-31 -38,19 -24,60 -2,53z"/>
    <path class="fil3" d="M802 776c0,12 -9,21 -20,21 -45,0 -62,-69 -204,-39 -11,2 -20,-9 -20,-20 0,-50 244,-35 244,38z"/>
   </g>
   <path class="fil5" d="M63 348c-30,0 -55,24 -55,55 0,7 1,14 4,21l0 0c0,0 26,101 42,179 15,77 11,130 11,130l-10 78c0,0 6,55 -17,95 -22,39 -1,127 -1,127 0,75 51,137 120,155l0 0 -33 66 329 0 -14 -63c0,0 1,6 41,-17 74,-43 78,-248 78,-328 1,-5 1,-11 1,-16 0,-6 0,-11 -1,-16 -7,-37 -38,-66 -75,-69 -8,-24 -31,-42 -57,-42l-37 -6c0,0 7,-124 29,-147 21,-22 14,-160 14,-160 0,-29 -23,-53 -53,-53 -29,0 -53,24 -53,53 -6,67 -47,315 -104,305 -55,-11 -63,-175 -70,-214 -19,-100 -56,-123 -56,-123l0 0c-9,-6 -21,-10 -33,-10z"/>
   <path class="fil6" d="M63 348c-30,0 -55,24 -55,55 0,0 40,35 56,135 15,100 15,131 15,131 0,0 29,49 32,86 4,37 4,36 4,36l108 1 27 5 -88 29 -32 10 -29 14 -25 17 -18 20 -20 19c-6,11 -9,26 -10,41l39 39c0,0 43,40 56,80 13,41 71,85 71,85 0,0 32,33 65,31 34,-3 35,-3 35,-3 0,0 -19,18 13,31 32,13 93,44 93,44l53 0 -13 -57 0 0 -109 -16c0,0 73,-30 125,-66 38,-26 72,-57 88,-72 13,-72 14,-153 14,-197 1,-5 1,-11 1,-16 0,-6 0,-11 -1,-16 -7,-37 -38,-66 -75,-69 -8,-24 -31,-42 -57,-42l-37 -6c0,0 7,-124 29,-147 21,-22 14,-160 14,-160 0,-29 -23,-53 -53,-53 -29,0 -53,24 -53,53 -1,18 -5,47 -11,80l0 0c0,0 11,59 22,73 10,13 -10,43 -10,43l-38 104c0,0 -30,16 -43,31 -13,16 -18,17 -18,17 0,0 -19,-2 -28,-20 -10,-18 -25,-48 -25,-48l-23 -90c0,0 -10,-23 -18,-29 -8,-6 -13,-12 -13,-12 0,0 28,-63 10,-130 -18,-40 -35,-51 -35,-51l0 0c-9,-6 -21,-10 -33,-10zm450 612c-6,46 -60,94 -60,94l-121 3 -1 -15 -13 -37 -33 -42 -37 -25c0,0 24,-15 31,-21 7,-7 18,-28 18,-28l46 -4c0,0 -27,34 1,37 28,4 83,1 83,1 0,0 -11,24 23,27 34,2 63,-13 63,-13l0 23z"/>
   <g>
    <g>
     <path class="fil7 str0" d="M483 745c0,0 -36,73 -46,121 -9,47 -16,105 -16,105 0,0 -9,57 20,62 29,4 55,-31 55,-31l17 -42 0 -75 17 -5m-76 307c0,0 -70,8 -78,0m-219 1c0,0 66,16 89,10m74 -310l3 74c0,0 6,30 36,33 30,2 65,-49 65,-49m-35 -249c0,0 -31,53 -22,76m-329 133c0,0 32,-51 104,-74 71,-22 121,-40 121,-40 0,0 115,-42 132,-4 16,38 2,55 2,55 0,0 -7,33 -54,42 -46,8 -45,2 -45,2 0,0 -10,25 -29,38 -19,13 -27,15 -27,15 0,0 61,16 80,75 19,58 7,84 7,84"/>
    </g>
    <g>
     <path class="fil7 str1" d="M63 348c-30,0 -55,24 -55,55 0,7 1,14 4,21l0 0c0,0 26,101 42,179 15,77 11,130 11,130l-10 78c0,0 6,55 -17,95 -22,39 -1,127 -1,127 0,75 51,137 120,155l0 0 -33 66 329 0 -14 -63c0,0 1,6 41,-17 74,-43 78,-248 78,-328 1,-5 1,-11 1,-16 0,-6 0,-11 -1,-16 -7,-37 -38,-66 -75,-69 -8,-24 -31,-42 -57,-42l-37 -6c0,0 7,-124 29,-147 21,-22 14,-160 14,-160 0,-29 -23,-53 -53,-53 -29,0 -53,24 -53,53 -6,67 -47,315 -104,305 -55,-11 -63,-175 -70,-214 -19,-100 -56,-123 -56,-123l0 0c-9,-6 -21,-10 -33,-10z"/>
    </g>
   </g>
  </g>
 </g>
</svg>
