<?xml version="1.0" encoding="UTF-8"?>
<!DOCTYPE svg PUBLIC "-//W3C//DTD SVG 1.1//EN" "http://www.w3.org/Graphics/SVG/1.1/DTD/svg11.dtd">
<!-- Creator: CorelDRAW X8 -->
<svg xmlns="http://www.w3.org/2000/svg" xml:space="preserve" width="35.8075mm" height="39.6896mm" version="1.1" style="shape-rendering:geometricPrecision; text-rendering:geometricPrecision; image-rendering:optimizeQuality; fill-rule:evenodd; clip-rule:evenodd"
viewBox="0 0 605 671"
 xmlns:xlink="http://www.w3.org/1999/xlink">
 <defs>
  <style type="text/css">
   <![CDATA[
    .str1 {stroke:#333333;stroke-width:8.44745}
    .str0 {stroke:#333333;stroke-width:8.44745}
    .fil7 {fill:none}
    .fil4 {fill:black}
    .fil3 {fill:#21302B}
    .fil0 {fill:#2C3D51}
    .fil5 {fill:#DF8E29}
    .fil1 {fill:#FFBD2D}
    .fil6 {fill:white;fill-opacity:0.250980}
    .fil2 {fill:white;fill-opacity:0.301961}
   ]]>
  </style>
 </defs>
 <g id="Layer_x0020_1">
  <metadata id="CorelCorpID_0Corel-Layer"/>
  <g id="_2537699137872">
   <path class="fil0" d="M26 303c-15,-6 -26,-20 -26,-37 0,-19 13,-35 30,-39 23,-98 111,-172 217,-172 105,0 194,73 217,172 18,3 32,19 32,39 0,17 -12,32 -28,38 -5,40 -20,77 -44,108l0 0c0,0 22,6 -2,160 0,0 -12,-62 -112,-81l0 0c-20,6 -41,9 -63,9 -114,0 -208,-86 -221,-197z"/>
   <circle class="fil1" cx="247" cy="277" r="198"/>
   <path class="fil2" d="M247 80c85,0 157,53 185,128 -49,56 -114,90 -185,90 -71,0 -136,-34 -185,-90 28,-75 100,-128 185,-128z"/>
   <path class="fil0" d="M60 63c16,0 29,13 29,29 0,16 -13,29 -29,29 -16,0 -29,-13 -29,-29 0,-16 13,-29 29,-29zm277 -36c3,0 4,2 4,4 0,2 -1,4 -4,4 -2,0 -3,-2 -3,-4 0,-2 1,-4 3,-4zm-22 -10c3,0 6,3 6,6 0,3 -3,6 -6,6 -3,0 -6,-3 -6,-6 0,-3 3,-6 6,-6zm-28 -9c5,0 9,4 9,8 0,5 -4,9 -9,9 -5,0 -8,-4 -8,-9 0,-4 3,-8 8,-8zm-32 -7c7,0 12,6 12,12 0,7 -5,13 -12,13 -7,0 -12,-6 -12,-13 0,-6 5,-12 12,-12zm-41 -1c9,0 16,7 16,16 0,9 -7,16 -16,16 -9,0 -16,-7 -16,-16 0,-9 7,-16 16,-16zm-50 5c12,0 22,10 22,22 0,11 -10,21 -22,21 -11,0 -21,-10 -21,-21 0,-12 10,-22 21,-22zm-50 20c14,0 25,11 25,24 0,14 -11,25 -25,25 -13,0 -24,-11 -24,-25 0,-13 11,-24 24,-24z"/>
   <ellipse class="fil3" cx="313" cy="221" rx="27" ry="33"/>
   <ellipse class="fil3" cx="160" cy="237" rx="27" ry="33"/>
   <path class="fil4" d="M265 155c30,-9 61,-22 99,0 5,3 13,-5 11,-11 -13,-28 -86,-27 -109,-15 -19,10 -12,30 -1,26z"/>
   <path class="fil4" d="M198 209c-31,-9 -61,-22 -99,0 -5,3 -14,-5 -11,-11 12,-28 85,-27 109,-15 18,10 12,30 1,26z"/>
   <path class="fil3" d="M181 396c0,5 5,10 10,10 23,0 31,-34 101,-19 5,1 10,-4 10,-10 0,-24 -121,-17 -121,19z"/>
   <path class="fil5" d="M571 184c17,0 30,13 30,29 0,4 -1,8 -2,11l0 0c0,0 -14,54 -23,96 -8,41 -5,69 -5,69l5 42c0,0 -4,29 9,50 12,21 0,68 0,68 0,40 -27,73 -64,82l0 0 18 35 -176 0 8 -33c0,0 -1,3 -21,-9 -40,-23 -42,-132 -42,-175 -1,-3 -1,-6 -1,-8 0,-3 0,-6 1,-9 3,-20 20,-35 40,-37 4,-13 16,-22 30,-22l20 -3c0,0 -4,-66 -15,-78 -12,-12 -8,-86 -8,-86 0,-15 12,-28 28,-28 15,0 28,13 28,28 4,36 26,168 56,163 29,-6 33,-93 37,-114 10,-54 30,-66 30,-66l0 0c5,-3 11,-5 17,-5z"/>
   <path class="fil6" d="M571 184c17,0 30,13 30,29 0,0 -22,19 -30,72 -8,53 -8,70 -8,70 0,0 -15,26 -17,46 -2,19 -2,19 -2,19l-58 0 -14 3 47 15 17 6 15 7 13 9 10 11 11 10c3,6 4,14 5,22l-21 21c0,0 -23,21 -30,42 -7,22 -37,45 -37,45 0,0 -17,18 -35,17 -18,-1 -19,-1 -19,-1 0,0 11,9 -6,16 -18,7 -50,23 -50,23l-29 0 7 -30 0 0 59 -9c0,0 -39,-16 -67,-35 -20,-14 -38,-30 -47,-38 -7,-38 -7,-82 -7,-105 -1,-3 -1,-6 -1,-8 0,-3 0,-6 1,-9 3,-20 20,-35 40,-37 4,-13 16,-22 30,-22l20 -3c0,0 -4,-66 -15,-78 -12,-12 -8,-86 -8,-86 0,-15 12,-28 28,-28 15,0 28,13 28,28 1,10 3,25 6,43l0 0c0,0 -6,31 -11,38 -6,7 5,23 5,23l20 56c0,0 16,9 23,17 7,8 9,9 9,9 0,0 11,-2 16,-11 5,-10 13,-26 13,-26l12 -48c0,0 5,-12 10,-15 4,-3 7,-6 7,-6 0,0 -15,-34 -6,-70 10,-21 19,-27 19,-27l0 0c5,-3 11,-5 17,-5zm-239 326c3,24 32,50 32,50l64 1 1 -8 6 -19 18 -23 20 -13c0,0 -13,-8 -17,-11 -3,-4 -9,-15 -9,-15l-25 -2c0,0 15,18 0,20 -15,2 -45,0 -45,0 0,0 6,13 -12,14 -18,2 -33,-6 -33,-6l0 12z"/>
   <g>
    <g>
     <path class="fil7 str0" d="M348 395c0,0 19,39 24,65 5,25 9,56 9,56 0,0 4,30 -11,33 -15,2 -29,-17 -29,-17l-9 -22 0 -40 -9 -3m40 164c0,0 37,4 42,0m116 0c0,0 -35,9 -47,5m-40 -164l-1 39c0,0 -3,16 -19,17 -16,1 -35,-26 -35,-26m19 -132c0,0 16,28 11,40m176 71c0,0 -17,-27 -56,-39 -38,-12 -64,-22 -64,-22 0,0 -61,-22 -70,-2 -9,21 -1,30 -1,30 0,0 3,17 28,22 25,4 24,1 24,1 0,0 5,13 16,20 10,7 14,8 14,8 0,0 -32,9 -42,40 -11,31 -4,45 -4,45"/>
    </g>
    <g>
     <path class="fil7 str1" d="M571 184c17,0 30,13 30,29 0,4 -1,8 -2,11l0 0c0,0 -14,54 -23,96 -8,41 -5,69 -5,69l5 42c0,0 -4,29 9,50 12,21 0,68 0,68 0,40 -27,73 -64,82l0 0 18 35 -176 0 8 -33c0,0 -1,3 -21,-9 -40,-23 -42,-132 -42,-175 -1,-3 -1,-6 -1,-8 0,-3 0,-6 1,-9 3,-20 20,-35 40,-37 4,-13 16,-22 30,-22l20 -3c0,0 -4,-66 -15,-78 -12,-12 -8,-86 -8,-86 0,-15 12,-28 28,-28 15,0 28,13 28,28 4,36 26,168 56,163 29,-6 33,-93 37,-114 10,-54 30,-66 30,-66l0 0c5,-3 11,-5 17,-5z"/>
    </g>
   </g>
  </g>
 </g>
</svg>
