<?xml version="1.0" encoding="UTF-8"?>
<!DOCTYPE svg PUBLIC "-//W3C//DTD SVG 1.1//EN" "http://www.w3.org/Graphics/SVG/1.1/DTD/svg11.dtd">
<!-- Creator: CorelDRAW X8 -->
<svg xmlns="http://www.w3.org/2000/svg" xml:space="preserve" width="31.564mm" height="35.6728mm" version="1.1" style="shape-rendering:geometricPrecision; text-rendering:geometricPrecision; image-rendering:optimizeQuality; fill-rule:evenodd; clip-rule:evenodd"
viewBox="0 0 1258 1422"
 xmlns:xlink="http://www.w3.org/1999/xlink">
 <defs>
  <style type="text/css">
   <![CDATA[
    .fil3 {fill:#181B32}
    .fil0 {fill:#2C3D51}
    .fil5 {fill:#470D12}
    .fil4 {fill:#6D12C3}
    .fil1 {fill:#FEC12B}
    .fil2 {fill:white;fill-opacity:0.301961}
   ]]>
  </style>
 </defs>
 <g id="Layer_x0020_1">
  <metadata id="CorelCorpID_0Corel-Layer"/>
  <g id="_2537600855936">
   <path class="fil0" d="M0 217l0 29c1,2 2,4 3,5 2,7 5,13 8,19 3,4 6,8 11,12l0 0 0 0c11,10 25,16 41,17l1 0 0 0 0 0c34,1 66,-24 67,-63 1,-38 -25,-61 -54,-66l-2 0 0 0 0 -1 -2 0 -1 0c0,0 -1,0 -2,0l0 0 -2 0c-18,-1 -36,5 -49,20 -5,5 -10,11 -13,18l-4 8c-1,-1 -1,1 -2,2zm134 321c-49,0 -89,40 -89,90 0,49 40,89 89,89 1,0 2,0 3,0l0 254c0,97 79,175 175,175l418 0c1,1 1,2 2,3 151,180 109,273 109,273 193,-216 162,-260 204,-283 9,-2 18,-6 26,-10l0 0 0 0c59,-28 101,-88 101,-158l0 -254c48,-2 86,-41 86,-89 0,-49 -38,-88 -86,-90l0 -254c0,-96 -79,-175 -175,-175l-685 0c-96,0 -175,79 -175,175l0 254c-1,0 -2,0 -3,0zm-36 -434c4,23 20,36 38,40 5,2 10,3 16,3 10,0 20,-4 29,-9 18,-10 31,-30 24,-59 -5,-21 -18,-33 -34,-38 -6,-2 -12,-3 -19,-3 -13,0 -24,4 -34,11 -15,11 -25,30 -20,55zm185 -104c25,0 44,19 44,44 0,24 -19,43 -44,43 -24,0 -43,-19 -43,-43 0,-25 19,-44 43,-44zm439 33c6,0 11,5 11,11 0,5 -5,10 -11,10 -5,0 -10,-5 -10,-10 0,-6 5,-11 10,-11zm-55 -4c8,0 14,6 14,15 0,8 -6,14 -14,14 -8,0 -15,-6 -15,-14 0,-9 7,-15 15,-15zm-74 -7c12,0 21,10 21,22 0,11 -9,21 -21,21 -12,0 -21,-10 -21,-21 0,-12 9,-22 21,-22zm-81 -4c14,0 26,11 26,26 0,14 -12,25 -26,25 -14,0 -26,-11 -26,-25 0,-15 12,-26 26,-26zm-102 -8c19,0 34,15 34,34 0,18 -15,33 -34,33 -19,0 -34,-15 -34,-33 0,-19 15,-34 34,-34z"/>
   <rect class="fil1" x="203" y="175" width="904" height="906" rx="153" ry="29"/>
   <path class="fil2" d="M355 175l599 0c84,0 152,68 152,152l0 201c-123,100 -280,160 -451,160 -172,0 -329,-60 -452,-160l0 -201c0,-84 68,-152 152,-152z"/>
   <g>
    <g>
     <path class="fil3" d="M731 542c-3,1 -6,1 -9,1 -13,0 -24,-11 -24,-24 0,-37 79,-74 102,-83 36,-15 90,-36 131,-36 10,0 17,8 17,18 0,9 -7,16 -16,17 -25,6 -117,33 -130,63 109,24 157,61 157,61l0 0c8,3 13,11 13,19 0,14 -13,23 -26,20 -8,0 -129,-56 -215,-56z"/>
     <path class="fil3" d="M578 542c3,1 6,1 9,1 13,0 24,-11 24,-24 0,-37 -79,-74 -102,-83 -36,-15 -90,-36 -131,-36 -10,0 -17,8 -17,18 0,9 7,16 16,17 25,6 117,33 130,63 -109,24 -157,61 -157,61l0 0c-8,3 -13,11 -13,19 0,14 13,23 26,20 8,0 129,-56 215,-56z"/>
    </g>
    <g>
     <path class="fil4" d="M928 333c8,0 15,7 15,15 0,9 -7,16 -15,16 0,0 -1,0 -1,0l0 0c-65,2 -215,11 -215,-85 0,-9 7,-15 15,-15 6,0 11,3 13,8 43,42 130,62 188,61z"/>
     <path class="fil4" d="M381 333c-8,0 -15,7 -15,15 0,9 7,16 15,16 0,0 1,0 1,0l0 0c65,2 215,11 215,-85 0,-9 -7,-15 -15,-15 -6,0 -11,3 -13,8 -43,42 -130,62 -188,61z"/>
    </g>
   </g>
   <path class="fil5" d="M912 922c0,-64 -38,-84 -78,-90 -45,-6 -57,4 -96,8 -35,4 -132,4 -167,0 -39,-4 -51,-14 -96,-8 -40,6 -78,26 -78,90 0,32 41,36 64,29 50,-14 73,-22 128,-25 44,0 87,0 131,0 55,3 78,11 128,25 23,7 64,3 64,-29z"/>
  </g>
 </g>
</svg>
