<?xml version="1.0" encoding="UTF-8"?>
<!DOCTYPE svg PUBLIC "-//W3C//DTD SVG 1.1//EN" "http://www.w3.org/Graphics/SVG/1.1/DTD/svg11.dtd">
<!-- Creator: CorelDRAW X8 -->
<svg xmlns="http://www.w3.org/2000/svg" xml:space="preserve" width="29.3356mm" height="33.8834mm" version="1.1" style="shape-rendering:geometricPrecision; text-rendering:geometricPrecision; image-rendering:optimizeQuality; fill-rule:evenodd; clip-rule:evenodd"
viewBox="0 0 3907 4512"
 xmlns:xlink="http://www.w3.org/1999/xlink">
 <defs>
  <style type="text/css">
   <![CDATA[
    .fil3 {fill:#181B32}
    .fil0 {fill:#2C3D51}
    .fil5 {fill:#470D12}
    .fil4 {fill:#6D12C3}
    .fil1 {fill:#FFBD2D}
    .fil2 {fill:white;fill-opacity:0.301961}
   ]]>
  </style>
 </defs>
 <g id="Layer_x0020_1">
  <metadata id="CorelCorpID_0Corel-Layer"/>
  <g id="_2537542471264">
   <path class="fil0" d="M205 2388c-119,-44 -205,-159 -205,-294 0,-147 102,-270 239,-304 179,-777 876,-1356 1708,-1356 830,0 1526,578 1707,1353 144,28 253,155 253,307 0,140 -92,259 -219,299 -38,318 -161,611 -345,854l0 0c0,0 172,50 -13,1265 0,0 -101,-491 -890,-643l0 0c-157,46 -322,71 -493,71 -900,0 -1642,-679 -1742,-1552z"/>
   <circle class="fil1" cx="1947" cy="2187" r="1559"/>
   <path class="fil2" d="M1947 628c670,0 1241,422 1461,1015 -387,438 -899,705 -1461,705 -562,0 -1075,-267 -1462,-705 221,-593 792,-1015 1462,-1015z"/>
   <path class="fil0" d="M475 496c126,0 228,102 228,228 0,126 -102,228 -228,228 -126,0 -228,-102 -228,-228 0,-126 102,-228 228,-228zm2185 -280c17,0 31,13 31,31 0,17 -14,31 -31,31 -17,0 -31,-14 -31,-31 0,-18 14,-31 31,-31zm-176 -81c25,0 46,20 46,46 0,25 -21,45 -46,45 -25,0 -46,-20 -46,-45 0,-26 21,-46 46,-46zm-220 -73c37,0 67,31 67,68 0,37 -30,67 -67,67 -37,0 -68,-30 -68,-67 0,-37 31,-68 68,-68zm-253 -53c53,0 96,43 96,97 0,53 -43,97 -96,97 -54,0 -97,-44 -97,-97 0,-54 43,-97 97,-97zm-326 -9c69,0 125,56 125,126 0,69 -56,125 -125,125 -70,0 -126,-56 -126,-125 0,-70 56,-126 126,-126zm-390 42c92,0 167,75 167,167 0,93 -75,168 -167,168 -93,0 -167,-75 -167,-168 0,-92 74,-167 167,-167zm-394 154c107,0 193,87 193,194 0,107 -86,194 -193,194 -107,0 -194,-87 -194,-194 0,-107 87,-194 194,-194z"/>
   <g>
    <g>
     <path class="fil3" d="M2202 1723c-9,3 -18,5 -28,5 -45,0 -82,-36 -82,-81 0,-124 263,-247 340,-278 122,-51 303,-118 440,-118 31,0 57,25 57,57 0,31 -24,55 -54,57 -85,23 -392,111 -436,211 365,82 526,205 526,205l0 0c25,10 42,35 42,63 0,45 -42,77 -85,66 -28,0 -434,-187 -720,-187z"/>
     <path class="fil3" d="M1692 1723c9,3 18,5 28,5 45,0 81,-36 81,-81 0,-124 -263,-247 -339,-278 -122,-51 -303,-118 -440,-118 -32,0 -57,25 -57,57 0,31 24,55 54,57 85,23 392,111 435,211 -365,82 -526,205 -526,205l0 0c-25,10 -42,35 -42,63 0,45 43,77 86,66 28,0 433,-187 720,-187z"/>
    </g>
    <g>
     <path class="fil4" d="M2861 1027c28,0 50,22 50,50 0,28 -22,50 -50,50 -2,0 -3,0 -5,0l0 0c-215,7 -717,40 -717,-283 0,-28 23,-50 50,-50 20,0 36,10 45,26 141,141 431,208 627,207z"/>
     <path class="fil4" d="M1033 1027c-28,0 -51,22 -51,50 0,28 23,50 51,50 1,0 3,0 4,0l0 0c215,7 718,40 718,-283 0,-28 -23,-50 -51,-50 -19,0 -36,10 -44,26 -141,141 -432,208 -627,207z"/>
    </g>
   </g>
   <path class="fil5" d="M2806 3128c3,-215 -125,-283 -260,-301 -150,-20 -191,14 -319,27 -120,12 -441,12 -560,0 -129,-13 -170,-47 -319,-27 -135,18 -263,86 -261,301 0,106 135,119 214,96 167,-48 244,-75 428,-84 145,0 290,0 435,0 185,9 262,36 428,84 79,23 214,10 214,-96z"/>
  </g>
 </g>
</svg>
