<?xml version="1.0" encoding="UTF-8"?>
<!DOCTYPE svg PUBLIC "-//W3C//DTD SVG 1.1//EN" "http://www.w3.org/Graphics/SVG/1.1/DTD/svg11.dtd">
<!-- Creator: CorelDRAW X8 -->
<svg xmlns="http://www.w3.org/2000/svg" xml:space="preserve" width="29.3356mm" height="33.8834mm" version="1.1" style="shape-rendering:geometricPrecision; text-rendering:geometricPrecision; image-rendering:optimizeQuality; fill-rule:evenodd; clip-rule:evenodd"
viewBox="0 0 4896 5655"
 xmlns:xlink="http://www.w3.org/1999/xlink">
 <defs>
  <style type="text/css">
   <![CDATA[
    .fil0 {fill:#2C3D51}
    .fil3 {fill:#3C0404}
    .fil4 {fill:#6D12C3}
    .fil5 {fill:#F32D2D}
    .fil1 {fill:#FFBD2D}
    .fil6 {fill:white;fill-opacity:0.168627}
    .fil7 {fill:white;fill-opacity:0.231373}
    .fil2 {fill:white;fill-opacity:0.301961}
   ]]>
  </style>
 </defs>
 <g id="Layer_x0020_1">
  <metadata id="CorelCorpID_0Corel-Layer"/>
  <g id="_2537603002768">
   <path class="fil0" d="M257 2993c-150,-55 -257,-199 -257,-368 0,-185 128,-340 299,-381 225,-974 1098,-1700 2141,-1700 1041,0 1913,724 2139,1696 181,35 317,194 317,385 0,175 -115,324 -274,373 -47,400 -201,767 -433,1071l0 0c0,0 216,62 -16,1586 0,0 -126,-616 -1115,-806l0 0c-196,57 -404,88 -618,88 -1128,0 -2057,-850 -2183,-1944z"/>
   <circle class="fil1" cx="2440" cy="2740" r="1954"/>
   <path class="fil2" d="M2440 787c839,0 1555,529 1831,1272 -485,549 -1127,883 -1831,883 -705,0 -1347,-334 -1832,-883 277,-743 992,-1272 1832,-1272z"/>
   <path class="fil0" d="M595 621c158,0 286,128 286,286 0,158 -128,286 -286,286 -158,0 -286,-128 -286,-286 0,-158 128,-286 286,-286zm2739 -351c21,0 39,18 39,39 0,22 -18,39 -39,39 -22,0 -39,-17 -39,-39 0,-21 17,-39 39,-39zm-221 -101c32,0 57,26 57,57 0,32 -25,58 -57,58 -31,0 -57,-26 -57,-58 0,-31 26,-57 57,-57zm-276 -91c47,0 85,38 85,85 0,47 -38,84 -85,84 -47,0 -84,-37 -84,-84 0,-47 37,-85 84,-85zm-317 -67c67,0 121,54 121,121 0,68 -54,122 -121,122 -67,0 -122,-54 -122,-122 0,-67 55,-121 122,-121zm-409 -11c87,0 158,70 158,157 0,87 -71,158 -158,158 -87,0 -157,-71 -157,-158 0,-87 70,-157 157,-157zm-488 52c116,0 210,94 210,210 0,116 -94,210 -210,210 -116,0 -210,-94 -210,-210 0,-116 94,-210 210,-210zm-494 194c134,0 243,108 243,242 0,135 -109,243 -243,243 -134,0 -243,-108 -243,-243 0,-134 109,-242 243,-242z"/>
   <g>
    <g>
     <path class="fil3" d="M2759 2328c-11,4 -22,6 -35,6 -56,0 -102,-45 -102,-102 0,-154 330,-308 425,-348 153,-64 380,-148 552,-148 39,0 71,32 71,72 0,39 -30,69 -67,72 -107,28 -492,139 -546,264 457,102 659,257 659,257l0 0c31,13 53,43 53,79 0,56 -53,97 -107,83 -35,0 -544,-235 -903,-235z"/>
     <path class="fil3" d="M2120 2328c11,4 23,6 35,6 57,0 102,-45 102,-102 0,-154 -330,-308 -425,-348 -153,-64 -380,-148 -551,-148 -40,0 -72,32 -72,72 0,39 30,69 68,72 106,28 491,139 545,264 -457,102 -659,257 -659,257l0 0c-31,13 -53,43 -53,79 0,56 54,97 108,83 35,0 543,-235 902,-235z"/>
    </g>
    <g>
     <path class="fil4" d="M3585 1455c35,0 64,29 64,63 0,35 -29,64 -64,64 -2,0 -4,0 -6,-1l0 0c-269,9 -898,50 -898,-354 0,-35 28,-64 63,-64 24,0 45,14 55,33 177,177 541,261 786,259z"/>
     <path class="fil4" d="M1294 1455c-35,0 -63,29 -63,63 0,35 28,64 63,64 2,0 4,0 6,-1l0 0c269,9 899,50 899,-354 0,-35 -28,-64 -63,-64 -24,0 -45,14 -56,33 -177,177 -541,261 -786,259z"/>
    </g>
   </g>
   <g>
    <path class="fil3" d="M2440 3563c223,-15 714,-53 942,-126 301,-96 278,-93 278,-93 0,0 173,-50 157,111 4,31 -4,75 -26,133 -255,678 -647,968 -1350,964l-1 0 -2 0c-703,4 -1095,-286 -1350,-964 -22,-58 -30,-102 -26,-133 -16,-161 157,-111 157,-111 0,0 -22,-3 278,93 228,73 719,111 943,126z"/>
    <path class="fil5" d="M1670 4042c0,0 -219,90 -99,168 120,79 129,76 129,76 0,0 357,114 463,357 105,243 201,327 201,327 0,0 258,197 565,197 306,0 501,-332 501,-332 0,0 115,-185 -3,-381 -118,-197 -306,-367 -306,-367 0,0 -274,-255 -526,-240 -252,15 -541,0 -541,0 0,0 -135,-9 -384,195z"/>
    <path class="fil6" d="M3043 5151c240,-65 387,-316 387,-316 0,0 115,-185 -3,-381 -118,-197 -306,-367 -306,-367 0,0 -274,-255 -526,-240 -59,4 -119,5 -178,6 0,0 385,267 295,412 -126,-277 -387,-411 -387,-411l0 0c-152,-1 -271,-7 -271,-7 0,0 -29,-2 -87,17 -62,63 -111,128 -102,172 24,111 69,126 69,126 0,0 376,223 421,463 45,240 321,415 321,415 0,0 181,62 367,111z"/>
    <path class="fil7" d="M3142 4535c87,141 90,249 90,249 0,0 87,108 129,6 42,-102 9,-225 9,-225 0,0 -93,-366 -264,-338 -131,20 -2,247 36,308z"/>
   </g>
  </g>
 </g>
</svg>
