<?xml version="1.0" encoding="UTF-8"?>
<!DOCTYPE svg PUBLIC "-//W3C//DTD SVG 1.1//EN" "http://www.w3.org/Graphics/SVG/1.1/DTD/svg11.dtd">
<!-- Creator: CorelDRAW X8 -->
<svg xmlns="http://www.w3.org/2000/svg" xml:space="preserve" width="31.564mm" height="35.6728mm" version="1.1" style="shape-rendering:geometricPrecision; text-rendering:geometricPrecision; image-rendering:optimizeQuality; fill-rule:evenodd; clip-rule:evenodd"
viewBox="0 0 1191 1346"
 xmlns:xlink="http://www.w3.org/1999/xlink">
 <defs>
  <style type="text/css">
   <![CDATA[
    .fil0 {fill:#2C3D51}
    .fil3 {fill:#3C0404}
    .fil4 {fill:#6D12C3}
    .fil5 {fill:#F32D2D}
    .fil1 {fill:#FEC12B}
    .fil6 {fill:white;fill-opacity:0.168627}
    .fil7 {fill:white;fill-opacity:0.231373}
    .fil2 {fill:white;fill-opacity:0.301961}
   ]]>
  </style>
 </defs>
 <g id="Layer_x0020_1">
  <metadata id="CorelCorpID_0Corel-Layer"/>
  <g id="_2537743609328">
   <path class="fil0" d="M0 205l0 28c1,2 2,3 3,5 1,6 4,12 8,18 2,3 5,7 10,11l0 0 0 0c10,10 24,15 39,16l0 0 0 0 1 0c32,1 62,-23 63,-60 1,-35 -24,-57 -51,-62l-2 0 0 0 0 -1 -2 0 0 0c-1,0 -2,0 -2,0l-1 0 -1 0c-17,-1 -35,5 -47,19 -5,5 -9,10 -12,17l-4 7c-1,0 -1,2 -2,2zm127 305c-47,0 -84,38 -84,84 0,47 37,85 84,85 1,0 2,0 3,0l0 241c0,91 75,165 166,165l395 0c1,1 1,2 2,3 143,170 103,258 103,258 183,-204 154,-245 194,-267 8,-3 16,-6 24,-10l0 0 0 0c56,-26 95,-83 95,-149l0 -241c46,-2 82,-39 82,-85 0,-46 -36,-83 -82,-84l0 -241c0,-91 -74,-165 -165,-165l-648 0c-91,0 -166,74 -166,165l0 241c-1,0 -2,0 -3,0zm-34 -411c4,21 18,33 36,37 4,2 9,3 15,3 10,0 19,-3 27,-8 18,-10 29,-29 23,-57 -5,-19 -17,-30 -32,-35 -6,-2 -12,-3 -18,-3 -12,0 -23,4 -32,10 -14,11 -24,28 -19,53zm175 -99c23,0 42,18 42,41 0,23 -19,41 -42,41 -22,0 -41,-18 -41,-41 0,-23 19,-41 41,-41zm416 31c5,0 10,5 10,10 0,6 -5,10 -10,10 -6,0 -10,-4 -10,-10 0,-5 4,-10 10,-10zm-53 -4c8,0 14,7 14,14 0,8 -6,14 -14,14 -7,0 -14,-6 -14,-14 0,-7 7,-14 14,-14zm-69 -6c11,0 20,9 20,20 0,11 -9,20 -20,20 -11,0 -20,-9 -20,-20 0,-11 9,-20 20,-20zm-77 -4c13,0 24,11 24,24 0,14 -11,25 -24,25 -14,0 -25,-11 -25,-25 0,-13 11,-24 25,-24zm-97 -8c18,0 32,15 32,32 0,18 -14,32 -32,32 -18,0 -32,-14 -32,-32 0,-17 14,-32 32,-32z"/>
   <rect class="fil1" x="192" y="165" width="856" height="858" rx="145" ry="27"/>
   <path class="fil2" d="M336 165l567 0c80,0 145,65 145,145l0 190c-117,94 -266,151 -428,151 -162,0 -311,-57 -428,-151l0 -190c0,-80 65,-145 144,-145z"/>
   <g>
    <g>
     <path class="fil3" d="M692 513c-3,1 -5,1 -8,1 -13,0 -23,-10 -23,-23 0,-35 74,-69 96,-78 35,-15 86,-34 125,-34 9,0 16,7 16,16 0,9 -7,16 -15,17 -24,6 -111,31 -124,59 104,23 149,58 149,58l0 0c7,3 12,10 12,18 0,13 -12,22 -24,19 -8,0 -123,-53 -204,-53z"/>
     <path class="fil3" d="M547 513c3,1 6,1 8,1 13,0 23,-10 23,-23 0,-35 -74,-69 -96,-78 -34,-15 -86,-34 -124,-34 -9,0 -17,7 -17,16 0,9 7,16 16,17 24,6 111,31 123,59 -103,23 -149,58 -149,58l0 0c-7,3 -12,10 -12,18 0,13 12,22 24,19 8,0 123,-53 204,-53z"/>
    </g>
    <g>
     <path class="fil4" d="M879 316c8,0 14,6 14,14 0,8 -6,14 -14,14 -1,0 -1,0 -2,0l0 0c-61,2 -203,11 -203,-80 0,-8 7,-14 14,-14 6,0 11,3 13,7 40,40 122,59 178,59z"/>
     <path class="fil4" d="M361 316c-8,0 -15,6 -15,14 0,8 7,14 15,14 0,0 1,0 1,0l0 0c61,2 203,11 203,-80 0,-8 -6,-14 -14,-14 -6,0 -10,3 -13,7 -40,40 -122,59 -177,59z"/>
    </g>
   </g>
   <g>
    <path class="fil3" d="M620 764c-51,-3 -162,-12 -213,-29 -68,-21 -63,-21 -63,-21 0,0 -39,-11 -36,25 -1,7 1,17 6,30 58,154 146,219 305,218l1 0 0 0c159,1 248,-64 305,-218 5,-13 7,-23 6,-30 4,-36 -35,-25 -35,-25 0,0 5,0 -63,21 -52,17 -163,26 -213,29z"/>
    <path class="fil5" d="M794 872c0,0 49,21 22,38 -27,18 -29,17 -29,17 0,0 -81,26 -105,81 -23,55 -45,74 -45,74 0,0 -59,44 -128,44 -69,0 -113,-74 -113,-74 0,0 -26,-42 0,-87 27,-44 70,-83 70,-83 0,0 61,-57 119,-54 57,3 122,0 122,0 0,0 30,-2 87,44z"/>
    <path class="fil6" d="M483 1123c-54,-15 -87,-71 -87,-71 0,0 -26,-42 0,-87 27,-44 70,-83 70,-83 0,0 61,-57 119,-54 13,1 27,1 40,1 0,0 -87,61 -67,93 29,-62 88,-92 88,-92l0 0c34,-1 61,-2 61,-2 0,0 6,0 19,4 15,14 26,29 24,39 -6,25 -16,28 -16,28 0,0 -85,51 -95,105 -10,54 -73,94 -73,94 0,0 -41,14 -83,25z"/>
    <path class="fil7" d="M461 984c-20,32 -20,56 -20,56 0,0 -20,24 -30,1 -9,-23 -2,-51 -2,-51 0,0 21,-82 60,-76 30,5 0,56 -8,70z"/>
   </g>
  </g>
 </g>
</svg>
